<svg width="20" height="20" viewBox="0 0 20 20" fill="none" xmlns="http://www.w3.org/2000/svg">
<mask id="mask0_11554_17343" style="mask-type:alpha" maskUnits="userSpaceOnUse" x="1" y="3" width="19" height="12">
<path d="M17.9156 14.0762C18.4374 14.216 18.9793 13.9066 19.0617 13.3728C19.2216 12.3365 19.1996 11.2776 18.9941 10.2442C18.7247 8.89022 18.1476 7.61636 17.3072 6.52115C16.4668 5.42593 15.3857 4.53872 14.1476 3.92815C12.9095 3.31757 11.5475 3 10.167 3C8.7865 3 7.42452 3.31757 6.18639 3.92815C4.94827 4.53872 3.8672 5.42593 3.02681 6.52115C2.18642 7.61636 1.60924 8.89022 1.33992 10.2442C1.13437 11.2776 1.11236 12.3365 1.27231 13.3728C1.35469 13.9066 1.89661 14.216 2.41834 14.0762C2.94007 13.9364 3.24242 13.4 3.17617 12.8639C3.08428 12.1203 3.11136 11.3647 3.25834 10.6258C3.46913 9.56608 3.92087 8.56907 4.57861 7.71188C5.23636 6.8547 6.08247 6.16031 7.05151 5.68243C8.02055 5.20455 9.08653 4.956 10.167 4.956C11.2475 4.956 12.3134 5.20455 13.2825 5.68243C14.2515 6.16031 15.0976 6.8547 15.7554 7.71188C16.4131 8.56907 16.8649 9.56608 17.0756 10.6258C17.2226 11.3647 17.2497 12.1203 17.1578 12.8639C17.0916 13.4 17.3939 13.9364 17.9156 14.0762Z" fill="#D9D9D9"/>
</mask>
<g mask="url(#mask0_11554_17343)">
<path d="M10.167 3C8.74672 3 7.34659 3.33614 6.0811 3.98094C4.81561 4.62574 3.72069 5.56089 2.88586 6.70993L4.4683 7.85964C5.12169 6.96032 5.97865 6.22841 6.96911 5.72375C7.95957 5.21909 9.0554 4.956 10.167 4.956V3Z" fill="#FFFF32"/>
<path d="M5.19327 4.49919C4.00956 5.2841 3.02843 6.33801 2.33008 7.57475C1.63173 8.8115 1.23599 10.196 1.17523 11.615L3.12944 11.6986C3.177 10.588 3.48673 9.50447 4.0333 8.53651C4.57988 7.56855 5.34778 6.74369 6.27423 6.12937L5.19327 4.49919Z" fill="#7FFF00"/>
<path d="M1.88689 8.47299C1.0681 10.3952 0.943595 12.5424 1.53473 14.5464L3.41081 13.993C2.94815 12.4245 3.04559 10.744 3.68643 9.23953L1.88689 8.47299Z" fill="#07A04B"/>
<path d="M10.167 3C11.5873 3 12.9874 3.33614 14.2529 3.98094C15.5184 4.62574 16.6133 5.56089 17.4481 6.70993L15.8657 7.85964C15.2123 6.96032 14.3553 6.22841 13.3649 5.72375C12.3744 5.21909 11.2786 4.956 10.167 4.956V3Z" fill="#C68F16"/>
<path d="M15.1407 4.49919C16.3244 5.2841 17.3056 6.33801 18.0039 7.57475C18.7023 8.8115 19.098 10.196 19.1588 11.615L17.2045 11.6986C17.157 10.588 16.8473 9.50447 16.3007 8.53651C15.7541 7.56855 14.9862 6.74369 14.0598 6.12937L15.1407 4.49919Z" fill="#FE8D00"/>
<path d="M18.4471 8.47299C19.2659 10.3952 19.3904 12.5424 18.7993 14.5464L16.9232 13.993C17.3858 12.4245 17.2884 10.744 16.6476 9.23953L18.4471 8.47299Z" fill="#F80D1B"/>
</g>
<path d="M11.3464 13.3078C10.9387 13.5434 10.4542 13.6074 9.99944 13.4857C9.54464 13.3641 9.15679 13.0667 8.92123 12.6591C8.58964 12.0853 8.61201 11.4026 8.91698 10.8779L12.2277 5.12385L12.2309 11.6691C12.2649 12.3192 11.9458 12.9615 11.3464 13.3078Z" fill="#242177"/>
</svg>
