<?xml version="1.0" encoding="UTF-8"?>
<svg version="1.1" xmlns="http://www.w3.org/2000/svg" width="300" height="300">
<path d="M0 0 C99 0 198 0 300 0 C300 99 300 198 300 300 C201 300 102 300 0 300 C0 201 0 102 0 0 Z " fill="#FEFEFE" transform="translate(0,0)"/>
<path d="M0 0 C0.62132813 0.47050781 1.24265625 0.94101563 1.8828125 1.42578125 C2.83414063 2.00972656 3.78546875 2.59367188 4.765625 3.1953125 C5.83554688 3.86949219 6.90546875 4.54367188 8.0078125 5.23828125 C32.87537411 20.58849979 59.99586575 25.04539093 88.50390625 18.4765625 C89.27202637 18.29174316 90.04014648 18.10692383 90.83154297 17.91650391 C92.45733613 17.52756743 94.09266023 17.17850099 95.73046875 16.84375 C105.66140752 14.47599616 115.94764275 8.12715857 124.0546875 2.046875 C126.8828125 0.42578125 126.8828125 0.42578125 129.83984375 0.45703125 C154.06251292 8.16848434 171.48519906 31.31322605 182.75854492 52.96264648 C190.12896458 67.62252849 195.07030919 83.11325143 196.8828125 99.42578125 C108.4428125 99.42578125 20.0028125 99.42578125 -71.1171875 99.42578125 C-65.72164812 67.05254497 -52.6265251 32.25380645 -25.109375 11.94384766 C-5.83609442 -1.58285218 -5.83609442 -1.58285218 0 0 Z " fill="#CACAC9" transform="translate(86.1171875,200.57421875)"/>
<path d="M0 0 C1.25876953 0.00773437 1.25876953 0.00773437 2.54296875 0.015625 C18.4868967 0.69101075 36.56652289 9.04644662 48 20 C48 20.66 48 21.32 48 22 C48.5775 22.23332031 49.155 22.46664062 49.75 22.70703125 C56.24242232 26.43791977 60.57290276 34.51299452 64 41 C64.639375 42.04800781 65.27875 43.09601563 65.9375 44.17578125 C74.84554839 59.80181175 75.6017433 81.26091251 71.5 98.4375 C65.06807244 120.32862186 51.12158007 137.97038439 31.06225586 149.01025391 C14.52126434 157.67093229 -6.89299599 160.11719678 -25 155 C-25.7321875 154.84015625 -26.464375 154.6803125 -27.21875 154.515625 C-46.04748434 149.87120386 -61.93596229 137.34591005 -72 121 C-74.62614715 116.42716062 -76.89951485 111.82845701 -79 107 C-79.43699219 106.01515625 -79.87398438 105.0303125 -80.32421875 104.015625 C-86.04202425 88.20639435 -85.82790534 65.40810496 -79 50 C-78.49082031 48.81792969 -77.98164062 47.63585937 -77.45703125 46.41796875 C-73.97994922 38.76046042 -69.63375213 32.22677867 -64 26 C-63.33484375 25.24203125 -62.6696875 24.4840625 -61.984375 23.703125 C-45.63359692 6.14117818 -23.48616775 -0.66438947 0 0 Z " fill="#CACAC9" transform="translate(155,41)"/>
</svg>
