<svg width="56" height="56" viewBox="0 0 56 56" fill="none" xmlns="http://www.w3.org/2000/svg">
<g clip-path="url(#clip0_10223_7484)">
<path d="M36.2062 23.2625H22.8281L32.8257 53.3447L35.7836 51.6369C36.0451 51.4859 36.2062 51.2069 36.2062 50.905V23.2625Z" fill="#756DFF"/>
<path d="M20.293 23.2625L27.9997 56.0002C28.1458 56.0002 28.2918 55.9626 28.4226 55.887L32.8257 53.3447V23.2625H20.293Z" fill="#756DFF"/>
<path d="M19.7935 23.2625V50.905C19.7935 51.2069 19.9545 51.486 20.216 51.6369L27.5778 55.8871C27.7084 55.9625 27.8541 56.0002 27.9999 56.0003V23.2626H19.7935V23.2625Z" fill="url(#paint0_linear_10223_7484)"/>
<path d="M27.5777 18.2802L20.2155 22.5305C19.6521 22.8556 19.6521 23.6688 20.2155 23.994L27.5777 28.2441C27.8391 28.395 28.1612 28.395 28.4226 28.2441L35.7839 23.9939C36.3472 23.6687 36.3472 22.8556 35.7839 22.5304L28.4226 18.2801C28.1612 18.1293 27.8391 18.1293 27.5777 18.2802Z" fill="url(#paint1_linear_10223_7484)"/>
<path d="M16.4132 41.4331H3.03516L13.0327 53.3442L15.9907 51.6364C16.2521 51.4854 16.4132 51.2064 16.4132 50.9046V41.4331Z" fill="#756DFF"/>
<path d="M0.5 41.4331L8.20675 55.9997C8.35278 55.9997 8.49881 55.9621 8.62962 55.8865L13.0327 53.3442V41.4331H0.5Z" fill="#756DFF"/>
<path d="M0.000488281 41.4331V50.9046C0.000488281 51.2064 0.161501 51.4855 0.42302 51.6364L7.78488 55.8866C7.91547 55.962 8.06116 55.9998 8.20696 55.9999V41.4332L0.000488281 41.4331Z" fill="url(#paint2_linear_10223_7484)"/>
<path d="M7.78473 36.4513L0.422532 40.7015C-0.140844 41.0267 -0.140844 41.8399 0.422532 42.165L7.78473 46.4152C8.04613 46.566 8.36827 46.566 8.62968 46.4152L15.991 42.165C16.5542 41.8399 16.5542 41.0268 15.991 40.7015L8.62968 36.4513C8.36827 36.3004 8.04613 36.3004 7.78473 36.4513Z" fill="url(#paint3_linear_10223_7484)"/>
<path d="M55.9997 5.0957H42.6216L52.6191 53.3446L55.5771 51.6367C55.8385 51.4858 55.9996 51.2068 55.9996 50.9049L55.9997 5.0957Z" fill="#756DFF"/>
<path d="M40.0864 5.0957L47.7932 56.0001C47.9392 56.0001 48.0852 55.9624 48.2161 55.8868L52.6192 53.3446V5.0957H40.0864Z" fill="#756DFF"/>
<path d="M39.5869 5.0957V50.9049C39.5869 51.2068 39.7479 51.4859 40.0094 51.6367L47.3713 55.887C47.5019 55.9623 47.6476 56.0001 47.7934 56.0002V5.0957H39.5869Z" fill="url(#paint4_linear_10223_7484)"/>
<path d="M47.3712 0.113628L40.009 4.36385C39.4456 4.68903 39.4456 5.5022 40.009 5.82738L47.3712 10.0776C47.6326 10.2285 47.9547 10.2285 48.2161 10.0776L55.5774 5.8275C56.1407 5.50232 56.1407 4.68925 55.5774 4.36396L48.2161 0.113741C47.9546 -0.0372438 47.6326 -0.0372438 47.3712 0.113628Z" fill="url(#paint5_linear_10223_7484)"/>
<path d="M4.77193 20.5905C10.029 19.8599 15.0869 18.0858 19.6485 15.3724C24.2101 12.6591 28.1832 9.06126 31.3345 4.79043L31.973 9.26035C32.0075 9.47147 32.1234 9.66064 32.2959 9.78725C32.4683 9.91386 32.6835 9.96782 32.8952 9.93753C33.107 9.90724 33.2984 9.79513 33.4284 9.62526C33.5584 9.45539 33.6167 9.24132 33.5906 9.029L32.7763 3.32848C32.7097 2.90042 32.4783 2.51537 32.1317 2.25554C31.785 1.99571 31.3506 1.88169 30.921 1.93783L25.2196 2.7522C25.1135 2.76739 25.0113 2.80334 24.9191 2.858C24.8268 2.91265 24.7462 2.98495 24.6819 3.07075C24.6176 3.15656 24.5708 3.25419 24.5442 3.35808C24.5176 3.46197 24.5117 3.57008 24.5269 3.67624C24.5421 3.7824 24.578 3.88453 24.6327 3.97679C24.6873 4.06906 24.7596 4.14965 24.8454 4.21398C24.9313 4.27831 25.0289 4.3251 25.1328 4.35169C25.2367 4.37829 25.3448 4.38416 25.4509 4.36897L30.1028 3.70979C27.0908 7.81839 23.2887 11.2841 18.9194 13.9037C14.5502 16.5234 9.70178 18.2441 4.65866 18.9649C4.45725 18.9977 4.27533 19.1045 4.1486 19.2644C4.02187 19.4243 3.95948 19.6258 3.97366 19.8294C3.98784 20.033 4.07758 20.2239 4.22527 20.3647C4.37295 20.5055 4.56793 20.586 4.77193 20.5905Z" fill="#2E2A94"/>
</g>
<defs>
<linearGradient id="paint0_linear_10223_7484" x1="27.182" y1="25.2896" x2="17.4007" y2="24.9424" gradientUnits="userSpaceOnUse">
<stop stop-color="#0F00FF"/>
<stop offset="1" stop-color="white"/>
</linearGradient>
<linearGradient id="paint1_linear_10223_7484" x1="13.4806" y1="32.2762" x2="29.414" y2="23.7216" gradientUnits="userSpaceOnUse">
<stop stop-color="#B096ED"/>
<stop offset="0.0014" stop-color="#B096ED"/>
<stop offset="0.299" stop-color="#CDBCF3"/>
<stop offset="0.5742" stop-color="#E2D7F7"/>
<stop offset="0.8165" stop-color="#EFE8F9"/>
<stop offset="1" stop-color="#F3EEFA"/>
</linearGradient>
<linearGradient id="paint2_linear_10223_7484" x1="7.38903" y1="42.3351" x2="-2.3427" y2="41.5587" gradientUnits="userSpaceOnUse">
<stop stop-color="#0F00FF"/>
<stop offset="1" stop-color="white"/>
</linearGradient>
<linearGradient id="paint3_linear_10223_7484" x1="-6.31235" y1="50.4472" x2="9.62093" y2="41.8926" gradientUnits="userSpaceOnUse">
<stop stop-color="#B096ED"/>
<stop offset="0.0014" stop-color="#B096ED"/>
<stop offset="0.299" stop-color="#CDBCF3"/>
<stop offset="0.5742" stop-color="#E2D7F7"/>
<stop offset="0.8165" stop-color="#EFE8F9"/>
<stop offset="1" stop-color="#F3EEFA"/>
</linearGradient>
<linearGradient id="paint4_linear_10223_7484" x1="46.9755" y1="8.24774" x2="37.1869" y2="8.02427" gradientUnits="userSpaceOnUse">
<stop stop-color="#0F00FF"/>
<stop offset="1" stop-color="white"/>
</linearGradient>
<linearGradient id="paint5_linear_10223_7484" x1="33.2741" y1="14.1097" x2="49.2074" y2="5.55511" gradientUnits="userSpaceOnUse">
<stop stop-color="#B096ED"/>
<stop offset="0.0014" stop-color="#B096ED"/>
<stop offset="0.299" stop-color="#CDBCF3"/>
<stop offset="0.5742" stop-color="#E2D7F7"/>
<stop offset="0.8165" stop-color="#EFE8F9"/>
<stop offset="1" stop-color="#F3EEFA"/>
</linearGradient>
<clipPath id="clip0_10223_7484">
<rect width="56" height="56" fill="white"/>
</clipPath>
</defs>
</svg>