<svg width="24" height="25" viewBox="0 0 24 25" fill="none" xmlns="http://www.w3.org/2000/svg">
<path d="M5.49609 5.9458C7.079 6.1247 9.17805 6.5931 10.75 7.59912V19.1196C9.17809 18.1137 7.07894 17.6462 5.49609 17.4673C4.67272 17.3742 4.00009 16.6857 4 15.8374V7.38916C4 6.54079 4.67266 5.85275 5.49609 5.9458ZM17.5039 5.9458C18.3273 5.85275 19 6.54079 19 7.38916V15.8374C18.9999 16.6857 18.3273 17.3742 17.5039 17.4673C15.9211 17.6462 13.8219 18.1137 12.25 19.1196V7.59912C13.8219 6.5931 15.921 6.1247 17.5039 5.9458ZM6.36426 12.1372C5.9551 12.0738 5.57145 12.3541 5.50781 12.7632C5.44444 13.1724 5.72469 13.556 6.13379 13.6196C6.593 13.6908 7.07814 13.7858 7.56543 13.9087C7.96691 14.0097 8.37527 13.7662 8.47656 13.3647C8.57775 12.9633 8.33391 12.5551 7.93262 12.4536C7.39486 12.3179 6.86385 12.2146 6.36426 12.1372ZM6.36426 9.13721C5.9551 9.07384 5.57146 9.35414 5.50781 9.76318C5.44444 10.1724 5.72469 10.556 6.13379 10.6196C7.046 10.7609 8.05059 10.9942 8.97852 11.353C9.36456 11.502 9.79872 11.3102 9.94824 10.9243C10.0974 10.5382 9.90552 10.1031 9.51953 9.95361C8.46463 9.54569 7.35034 9.28997 6.36426 9.13721Z" fill="#5659FA"/>
</svg>
