<svg width="24" height="24" viewBox="0 0 24 24" fill="none" xmlns="http://www.w3.org/2000/svg">
<path d="M19.9878 16.5622C19.9382 16.0605 19.6692 15.6124 19.2497 15.3327L16.4055 13.438C15.7415 12.9958 14.8538 13.0852 14.2902 13.6474L13.3812 14.5634C13.1744 14.6353 12.218 14.2302 10.9866 12.9991C9.75466 11.7674 9.35475 10.8198 9.40711 10.6311L10.3395 9.69933C10.9026 9.13666 10.991 8.24736 10.549 7.58545L8.6531 4.74315C8.3732 4.32385 7.92472 4.05508 7.42279 4.00546C6.91974 3.95529 6.42981 4.13194 6.07351 4.488L4.66695 5.89363C2.73935 7.81995 5.24966 12.0531 8.59198 15.3938C10.8642 17.6645 15.8367 21.5792 18.0985 19.3162L19.505 17.9106C19.8613 17.5551 20.0375 17.0633 19.9878 16.5622Z" fill="#2E2A94"/>
</svg>
