<svg width="17" height="16" viewBox="0 0 17 16" fill="none" xmlns="http://www.w3.org/2000/svg">
<path d="M14.5 12.6667V11.5694C14.5 11.0242 14.1681 10.5339 13.6619 10.3314L12.3058 9.78897C11.6619 9.53143 10.9281 9.81041 10.618 10.4307L10.5 10.6667C10.5 10.6667 8.83333 10.3333 7.5 9C6.16667 7.66667 5.83333 6 5.83333 6L6.06934 5.88199C6.68959 5.57187 6.96857 4.83809 6.71103 4.19424L6.16859 2.83815C5.96611 2.33194 5.47583 2 4.93062 2H3.83333C3.09695 2 2.5 2.59695 2.5 3.33333C2.5 9.22437 7.27563 14 13.1667 14C13.903 14 14.5 13.403 14.5 12.6667Z" fill="white"/>
</svg>
