<svg width="40" height="41" viewBox="0 0 40 41" fill="none" xmlns="http://www.w3.org/2000/svg">
<rect y="0.5" width="40" height="40" rx="3.33333" fill="#EEEEEE"/>
<path d="M27.118 24.4766C26.4145 23.0058 25.2155 22.0465 23.4888 21.6149C23.233 21.5509 22.9613 21.6149 22.7534 21.7907L21.3306 22.9578C21.0588 23.1816 20.6591 23.2136 20.3553 23.0218C18.8525 22.0945 17.6215 20.8635 16.6942 19.3607C16.5024 19.0569 16.5344 18.6572 16.7582 18.3854L17.9252 16.9626C18.1011 16.7547 18.1651 16.4829 18.1011 16.2271C17.6535 14.4845 16.6942 13.2855 15.2234 12.582C14.9836 12.4701 14.7118 12.4701 14.472 12.598C13.7366 12.9977 13.0171 13.4454 12.3457 13.941C12.0899 14.1328 11.962 14.4526 12.0099 14.7723C12.4896 17.634 14.0403 20.6397 16.5503 23.1497C19.0603 25.6597 22.066 27.1945 24.9277 27.6901C25.2474 27.738 25.5672 27.6101 25.759 27.3543C26.2546 26.6829 26.7023 25.9794 27.102 25.228C27.2299 24.9882 27.2299 24.7164 27.118 24.4766Z" fill="#2E2A94"/>
</svg>
