<svg width="18" height="18" viewBox="0 0 18 18" fill="none" xmlns="http://www.w3.org/2000/svg">
<path d="M4.00033 0.666672H14.0003C15.8413 0.666672 17.3337 2.15906 17.3337 4.00001V14C17.3337 15.841 15.8413 17.3333 14.0003 17.3333H4.00033C2.15938 17.3333 0.666992 15.841 0.666992 14V4.00001C0.666992 2.15906 2.15938 0.666672 4.00033 0.666672Z" fill="#2E2A94"/>
<path fill-rule="evenodd" clip-rule="evenodd" d="M12.7174 6.00668C12.9898 6.2186 13.0389 6.61127 12.827 6.88374L9.48784 11.177C8.96808 11.8452 7.9904 11.9319 7.36113 11.3656L5.24889 9.46459C4.99233 9.23368 4.97153 8.83849 5.20244 8.58193C5.43335 8.32536 5.82853 8.30456 6.0851 8.53547L8.19734 10.4365C8.28723 10.5174 8.4269 10.505 8.50115 10.4095L11.8403 6.11632C12.0522 5.84385 12.4449 5.79476 12.7174 6.00668Z" fill="white"/>
</svg>