<svg width="16" height="16" viewBox="0 0 16 16" fill="none" xmlns="http://www.w3.org/2000/svg">
<path d="M11.3359 1.5H4.66927C3.65675 1.5 2.83594 2.32081 2.83594 3.33333V12.6667C2.83594 13.6792 3.65675 14.5 4.66927 14.5H11.3359C12.3485 14.5 13.1693 13.6792 13.1693 12.6667V3.33333C13.1693 2.32081 12.3485 1.5 11.3359 1.5Z" fill="#2E2A94"/>
<path d="M8.5026 9.33317C8.5026 9.60917 8.2786 9.83317 8.0026 9.83317H5.33594C5.05994 9.83317 4.83594 9.60917 4.83594 9.33317C4.83594 9.05717 5.05994 8.83317 5.33594 8.83317H8.0026C8.2786 8.83317 8.5026 9.05717 8.5026 9.33317ZM10.6693 6.49984H5.33594C5.05994 6.49984 4.83594 6.72384 4.83594 6.99984C4.83594 7.27584 5.05994 7.49984 5.33594 7.49984H10.6693C10.9453 7.49984 11.1693 7.27584 11.1693 6.99984C11.1693 6.72384 10.9453 6.49984 10.6693 6.49984ZM5.33594 5.1665H10.6693C10.9453 5.1665 11.1693 4.9425 11.1693 4.6665C11.1693 4.3905 10.9453 4.1665 10.6693 4.1665H5.33594C5.05994 4.1665 4.83594 4.3905 4.83594 4.6665C4.83594 4.9425 5.05994 5.1665 5.33594 5.1665Z" fill="white"/>
</svg>
