<svg width="24" height="24" viewBox="0 0 24 24" fill="none" xmlns="http://www.w3.org/2000/svg">
<rect width="24" height="24" rx="2" fill="#EEEEEE"/>
<path d="M17.2383 4H9.96168C8.43904 4 7.2 5.23904 7.2 6.76168V7.2H6.76168C5.23904 7.2 4 8.43904 4 9.96168V17.2382C4 18.761 5.23904 20 6.76168 20H14.0382C15.437 20 16.584 18.9506 16.7634 17.6H17.2382C18.761 17.6 20 16.361 20 14.8383V6.76168C20 5.23904 18.761 4 17.2383 4ZM18.4 14.8383C18.4 15.4789 17.8789 16 17.2383 16H16.8V9.96168C16.8 8.43904 15.561 7.2 14.0383 7.2H8.8V6.76168C8.8 6.12112 9.32112 5.6 9.96168 5.6H17.2382C17.8789 5.6 18.4 6.12112 18.4 6.76168V14.8383Z" fill="#2E2A94"/>
</svg>
