<svg width="36" height="36" viewBox="0 0 36 36" fill="none" xmlns="http://www.w3.org/2000/svg">
<rect width="36" height="36" rx="18" fill="#2E2A94"/>
<path d="M21.8453 21.4984C21.8845 21.5376 21.9156 21.5841 21.9368 21.6353C21.9581 21.6865 21.969 21.7414 21.969 21.7969C21.969 21.8523 21.9581 21.9072 21.9368 21.9584C21.9156 22.0096 21.8845 22.0561 21.8453 22.0953C21.8061 22.1345 21.7596 22.1656 21.7084 22.1868C21.6572 22.2081 21.6023 22.219 21.5469 22.219C21.4914 22.219 21.4365 22.2081 21.3853 22.1868C21.3341 22.1656 21.2876 22.1345 21.2484 22.0953L17.75 18.5964L14.2516 22.0953C14.1724 22.1745 14.0651 22.219 13.9531 22.219C13.8412 22.219 13.7338 22.1745 13.6546 22.0953C13.5755 22.0162 13.531 21.9088 13.531 21.7969C13.531 21.6849 13.5755 21.5776 13.6546 21.4984L17.1536 18L13.6546 14.5016C13.5755 14.4224 13.531 14.3151 13.531 14.2031C13.531 14.0912 13.5755 13.9838 13.6546 13.9046C13.7338 13.8255 13.8412 13.781 13.9531 13.781C14.0651 13.781 14.1724 13.8255 14.2516 13.9046L17.75 17.4036L21.2484 13.9046C21.3276 13.8255 21.4349 13.781 21.5469 13.781C21.6588 13.781 21.7662 13.8255 21.8453 13.9046C21.9245 13.9838 21.969 14.0912 21.969 14.2031C21.969 14.3151 21.9245 14.4224 21.8453 14.5016L18.3464 18L21.8453 21.4984Z" fill="white"/>
</svg>
