<svg width="48" height="48" viewBox="0 0 48 48" fill="none" xmlns="http://www.w3.org/2000/svg">
<path d="M44.6909 11.603L24.5938 23.2062V48L44.6909 36.3969V11.603Z" fill="url(#paint0_linear_20366_4300)"/>
<path d="M4.5 11.603L24.5971 23.2062V48L4.5 36.3969V11.603Z" fill="url(#paint1_linear_20366_4300)"/>
<path d="M4.5 11.6031L24.5971 0L44.6942 11.6031L24.5971 23.2062L4.5 11.6031Z" fill="url(#paint2_linear_20366_4300)"/>
<path d="M35.7148 16.7708L24.5938 10.3501V36.9115L35.7148 30.4907V16.7708Z" fill="url(#paint3_linear_20366_4300)"/>
<path d="M13.4766 16.7708L24.5976 10.3501V36.9115L13.4766 30.4907V16.7708Z" fill="url(#paint4_linear_20366_4300)"/>
<path d="M13.4766 30.491L24.5976 24.0703L35.7186 30.491L24.5976 36.9117L13.4766 30.491Z" fill="url(#paint5_linear_20366_4300)"/>
<defs>
<linearGradient id="paint0_linear_20366_4300" x1="44.654" y1="11.4579" x2="19.4028" y2="14.3353" gradientUnits="userSpaceOnUse">
<stop stop-color="#0F00FF"/>
<stop offset="1" stop-color="white"/>
</linearGradient>
<linearGradient id="paint1_linear_20366_4300" x1="24.5603" y1="11.4579" x2="-0.690984" y2="14.3353" gradientUnits="userSpaceOnUse">
<stop stop-color="#0F00FF"/>
<stop offset="1" stop-color="white"/>
</linearGradient>
<linearGradient id="paint2_linear_20366_4300" x1="-10.9581" y1="32.1309" x2="26.7416" y2="10.365" gradientUnits="userSpaceOnUse">
<stop stop-color="#B096ED"/>
<stop offset="0.0014" stop-color="#B096ED"/>
<stop offset="0.299" stop-color="#CDBCF3"/>
<stop offset="0.5742" stop-color="#E2D7F7"/>
<stop offset="0.8165" stop-color="#EFE8F9"/>
<stop offset="1" stop-color="#F3EEFA"/>
</linearGradient>
<linearGradient id="paint3_linear_20366_4300" x1="23.9961" y1="16.0005" x2="22.3532" y2="29.6559" gradientUnits="userSpaceOnUse">
<stop stop-color="#0F00FF"/>
<stop offset="1" stop-color="white"/>
</linearGradient>
<linearGradient id="paint4_linear_20366_4300" x1="24.5772" y1="10.2442" x2="10.5275" y2="11.4582" gradientUnits="userSpaceOnUse">
<stop stop-color="#0F00FF"/>
<stop offset="1" stop-color="white"/>
</linearGradient>
<linearGradient id="paint5_linear_20366_4300" x1="4.92271" y1="41.8503" x2="25.7843" y2="29.8059" gradientUnits="userSpaceOnUse">
<stop stop-color="#B096ED"/>
<stop offset="0.0014" stop-color="#B096ED"/>
<stop offset="0.299" stop-color="#CDBCF3"/>
<stop offset="0.5742" stop-color="#E2D7F7"/>
<stop offset="0.8165" stop-color="#EFE8F9"/>
<stop offset="1" stop-color="#F3EEFA"/>
</linearGradient>
</defs>
</svg>
