<svg width="18" height="20" viewBox="0 0 18 20" fill="none" xmlns="http://www.w3.org/2000/svg">
<path d="M0.757812 1.50445V18.4956C0.757812 19.0903 1.26755 19.6 1.86224 19.6H16.1348C16.7295 19.6 17.2392 19.0903 17.2392 18.4956V5.6248C17.2392 5.32746 17.1118 5.07259 16.8994 4.8602L12.7791 0.739848C12.5667 0.527458 12.3118 0.400024 12.0145 0.400024H1.86224C1.26755 0.400024 0.757812 0.867281 0.757812 1.50445Z" fill="#2E2A94"/>
<path d="M12.4805 0.86738V4.94526C12.4805 5.07269 12.5654 5.15765 12.6929 5.15765H16.7707C16.9406 5.15765 17.0256 4.94526 16.8982 4.81782L12.8203 0.739946C12.6929 0.612512 12.4805 0.697468 12.4805 0.86738Z" fill="white"/>
<path d="M10.3989 9.66032H13.7122H14.1794C14.5192 9.66032 14.8166 9.36298 14.8166 9.02315C14.8166 8.68333 14.5192 8.38599 14.1794 8.38599C13.075 8.38599 11.9706 8.38599 10.8661 8.38599C10.6962 8.38599 10.5688 8.38599 10.3989 8.38599C10.0591 8.38599 9.76172 8.68333 9.76172 9.02315C9.8042 9.36298 10.0591 9.66032 10.3989 9.66032Z" fill="white"/>
<path d="M10.3989 12.9311H13.7122H14.1794C14.5192 12.9311 14.8166 12.6337 14.8166 12.2939C14.8166 11.9541 14.5192 11.6567 14.1794 11.6567C13.075 11.6567 11.9706 11.6567 10.8661 11.6567C10.6962 11.6567 10.5688 11.6567 10.3989 11.6567C10.0591 11.6567 9.76172 11.9541 9.76172 12.2939C9.8042 12.6337 10.0591 12.9311 10.3989 12.9311Z" fill="white"/>
<path d="M10.3989 16.2018H13.7122H14.1794C14.5192 16.2018 14.8166 15.9045 14.8166 15.5647C14.8166 15.2248 14.5192 14.9275 14.1794 14.9275C13.075 14.9275 11.9706 14.9275 10.8661 14.9275C10.6962 14.9275 10.5688 14.9275 10.3989 14.9275C10.0591 14.9275 9.76172 15.2248 9.76172 15.5647C9.8042 15.9045 10.0591 16.2018 10.3989 16.2018Z" fill="white"/>
<path d="M7.72317 11.8689C7.4683 11.614 7.086 11.614 6.83113 11.8689C6.23644 12.4636 5.59928 13.0158 5.00459 13.6105C4.74972 13.3556 4.53733 13.1432 4.28246 12.8884C4.02759 12.6335 3.60281 12.6335 3.39043 12.8884C3.17804 13.1432 3.13556 13.5255 3.39043 13.7804C3.77273 14.1627 4.15503 14.545 4.53733 14.9273C4.7922 15.1822 5.1745 15.1822 5.42936 14.9273C6.10901 14.2901 6.78866 13.653 7.4683 13.0158C7.55326 12.9308 7.68069 12.8459 7.76565 12.7609C7.93556 12.5061 7.97804 12.0813 7.72317 11.8689Z" fill="white"/>
</svg>
