<svg width="28" height="20" viewBox="0 0 28 20" fill="none" xmlns="http://www.w3.org/2000/svg">
<path d="M27.2008 18.4V1.60002C27.2008 0.937329 26.6641 0.400024 26.0008 0.400024H2.00078C1.3375 0.400024 0.800781 0.937329 0.800781 1.60002V18.4C0.800781 19.0627 1.3375 19.6 2.00078 19.6H26.0008C26.6641 19.6 27.2008 19.0627 27.2008 18.4ZM9.20078 14.8C6.54978 14.8 4.40078 12.651 4.40078 10C4.40078 7.34902 6.54978 5.20002 9.20078 5.20002C11.8518 5.20002 14.0008 7.34902 14.0008 10C14.0008 12.651 11.8518 14.8 9.20078 14.8ZM23.0008 16H17.0008C16.6691 16 16.4008 15.7317 16.4008 15.4C16.4008 15.0684 16.6691 14.8 17.0008 14.8H23.0008C23.3324 14.8 23.6008 15.0684 23.6008 15.4C23.6008 15.7317 23.3324 16 23.0008 16ZM23.0008 12.4H17.0008C16.6691 12.4 16.4008 12.1317 16.4008 11.8C16.4008 11.4684 16.6691 11.2 17.0008 11.2H23.0008C23.3324 11.2 23.6008 11.4684 23.6008 11.8C23.6008 12.1317 23.3324 12.4 23.0008 12.4ZM23.0008 8.80002H17.0008C16.6691 8.80002 16.4008 8.53167 16.4008 8.20002C16.4008 7.86838 16.6691 7.60002 17.0008 7.60002H23.0008C23.3324 7.60002 23.6008 7.86838 23.6008 8.20002C23.6008 8.53167 23.3324 8.80002 23.0008 8.80002ZM23.0008 5.20002H17.0008C16.6691 5.20002 16.4008 4.93167 16.4008 4.60002C16.4008 4.26838 16.6691 4.00002 17.0008 4.00002H23.0008C23.3324 4.00002 23.6008 4.26838 23.6008 4.60002C23.6008 4.93167 23.3324 5.20002 23.0008 5.20002Z" fill="#2E2A94"/>
</svg>
