<svg width="20" height="20" viewBox="0 0 20 20" fill="none" xmlns="http://www.w3.org/2000/svg">
<path d="M19.8447 0.962524C19.8447 0.652024 19.3545 0.400024 18.7506 0.400024H1.24636C0.642464 0.400024 0.152344 0.652024 0.152344 0.962524V19.0375C0.152344 19.348 0.642464 19.6 1.24636 19.6H18.7506C19.3545 19.6 19.8447 19.348 19.8447 19.0375V0.962524Z" fill="#2E2A94"/>
<path d="M7.04405 8.80005H3.10559C2.83384 8.80005 2.61328 9.06885 2.61328 9.40005V13C2.61328 13.3312 2.83384 13.6 3.10559 13.6H7.04405C7.3158 13.6 7.53636 13.3312 7.53636 13V9.40005C7.53636 9.06885 7.3158 8.80005 7.04405 8.80005Z" fill="white"/>
<path d="M17.384 8.19998C17.384 8.53118 17.1083 8.79998 16.7686 8.79998H13.0763C12.7366 8.79998 12.4609 8.53118 12.4609 8.19998C12.4609 7.86878 12.7366 7.59998 13.0763 7.59998H16.7686C17.1083 7.59998 17.384 7.86878 17.384 8.19998Z" fill="white"/>
<path d="M17.3843 10.6C17.3843 10.9312 17.1086 11.2 16.7689 11.2H11.8459C11.5062 11.2 11.2305 10.9312 11.2305 10.6C11.2305 10.2688 11.5062 10 11.8459 10H16.7689C17.1086 10 17.3843 10.2688 17.3843 10.6Z" fill="white"/>
<path d="M16.1535 13C16.1535 13.3312 15.8779 13.6 15.5382 13.6H11.8459C11.5062 13.6 11.2305 13.3312 11.2305 13C11.2305 12.6688 11.5062 12.4 11.8459 12.4H15.5382C15.8779 12.4 16.1535 12.6688 16.1535 13Z" fill="white"/>
</svg>
