<svg width="20" height="30" viewBox="0 0 20 30" fill="none" xmlns="http://www.w3.org/2000/svg">
<path d="M17.6103 24.3765C17.4889 24.3765 17.3724 24.3295 17.2865 24.2457C17.2006 24.162 17.1523 24.0484 17.1523 23.93V6.0692C17.1523 5.95078 17.2006 5.8372 17.2865 5.75346C17.3724 5.66972 17.4889 5.62268 17.6103 5.62268C17.7318 5.62268 17.8483 5.66972 17.9341 5.75346C18.02 5.8372 18.0683 5.95078 18.0683 6.0692V23.93C18.0683 24.0484 18.02 24.162 17.9341 24.2457C17.8483 24.3295 17.7318 24.3765 17.6103 24.3765Z" fill="#2E2A94"/>
<path d="M2.44234 22.5914C2.32088 22.5914 2.2044 22.5443 2.11851 22.4606C2.03262 22.3768 1.98438 22.2633 1.98438 22.1448V0.7119C1.98438 0.593476 2.03262 0.479902 2.11851 0.396163C2.2044 0.312424 2.32088 0.265381 2.44234 0.265381C2.5638 0.265381 2.68029 0.312424 2.76618 0.396163C2.85206 0.479902 2.90031 0.593476 2.90031 0.7119V22.1448C2.90031 22.2633 2.85206 22.3768 2.76618 22.4606C2.68029 22.5443 2.5638 22.5914 2.44234 22.5914Z" fill="#2E2A94"/>
<path d="M10.0556 29.7346C9.93416 29.7346 9.81768 29.6876 9.73179 29.6038C9.64591 29.5201 9.59766 29.4065 9.59766 29.2881V22.1438C9.59766 22.0254 9.64591 21.9118 9.73179 21.828C9.81768 21.7443 9.93416 21.6973 10.0556 21.6973C10.1771 21.6973 10.2936 21.7443 10.3795 21.828C10.4653 21.9118 10.5136 22.0254 10.5136 22.1438V29.2881C10.5136 29.4065 10.4653 29.5201 10.3795 29.6038C10.2936 29.6876 10.1771 29.7346 10.0556 29.7346Z" fill="#2E2A94"/>
<path d="M3.35813 2.05017H1.52625C0.767463 2.05017 0.152344 2.64991 0.152344 3.38973V12.3201C0.152344 13.0599 0.767463 13.6597 1.52625 13.6597H3.35813C4.11691 13.6597 4.73203 13.0599 4.73203 12.3201V3.38973C4.73203 2.64991 4.11691 2.05017 3.35813 2.05017Z" fill="#2E2A94"/>
<path d="M10.9128 10.9811H9.08094C8.32215 10.9811 7.70703 11.5808 7.70703 12.3206V21.251C7.70703 21.9909 8.32215 22.5906 9.08094 22.5906H10.9128C11.6716 22.5906 12.2867 21.9909 12.2867 21.251V12.3206C12.2867 11.5808 11.6716 10.9811 10.9128 10.9811Z" fill="#2E2A94"/>
<path d="M18.4714 9.19458H16.6395C15.8807 9.19458 15.2656 9.79432 15.2656 10.5341V19.4645C15.2656 20.2044 15.8807 20.8041 16.6395 20.8041H18.4714C19.2302 20.8041 19.8453 20.2044 19.8453 19.4645V10.5341C19.8453 9.79432 19.2302 9.19458 18.4714 9.19458Z" fill="#2E2A94"/>
</svg>
