<svg width="18" height="20" viewBox="0 0 18 20" fill="none" xmlns="http://www.w3.org/2000/svg">
<path d="M15.2511 0.400024H2.74878C2.09746 0.400024 1.47281 0.658761 1.01226 1.11932C0.551706 1.57987 0.292969 2.20452 0.292969 2.85584V17.1442C0.292969 17.7955 0.551706 18.4202 1.01226 18.8807C1.47281 19.3413 2.09746 19.6 2.74878 19.6H15.2511C15.9024 19.6 16.5271 19.3413 16.9876 18.8807C17.4482 18.4202 17.7069 17.7955 17.7069 17.1442V2.85584C17.7069 2.20452 17.4482 1.57987 16.9876 1.11932C16.5271 0.658761 15.9024 0.400024 15.2511 0.400024ZM7.70088 14.2687C7.69212 14.2687 7.6837 14.2721 7.67747 14.2783L5.42785 16.5012C5.30227 16.6267 5.13204 16.6971 4.95455 16.6971C4.77706 16.6971 4.60683 16.6267 4.48125 16.5012L3.14171 15.1617C3.02341 15.0347 2.959 14.8668 2.96206 14.6933C2.96512 14.5198 3.03541 14.3542 3.15813 14.2315C3.28084 14.1088 3.44639 14.0385 3.61991 14.0354C3.79342 14.0324 3.96135 14.0968 4.08832 14.2151L4.34523 14.472C4.69654 14.8233 5.26614 14.8233 5.61745 14.472L6.76739 13.3221C6.8287 13.2563 6.90265 13.2035 6.9848 13.1669C7.06696 13.1303 7.15565 13.1106 7.24558 13.109C7.33551 13.1074 7.42484 13.124 7.50824 13.1576C7.59163 13.1913 7.66739 13.2415 7.73099 13.3051C7.79459 13.3687 7.84473 13.4444 7.87842 13.5278C7.9121 13.6112 7.92865 13.7006 7.92706 13.7905C7.92547 13.8804 7.90579 13.9691 7.86918 14.0513C7.83436 14.1294 7.78489 14.2002 7.7235 14.2596C7.71745 14.2655 7.70931 14.2687 7.70088 14.2687ZM7.70021 9.35705C7.69188 9.35705 7.68388 9.36033 7.67795 9.36619L5.42785 11.5896C5.30227 11.715 5.13204 11.7855 4.95455 11.7855C4.77706 11.7855 4.60683 11.715 4.48125 11.5896L3.14171 10.2501C3.02341 10.1231 2.959 9.95518 2.96206 9.78166C2.96512 9.60815 3.03541 9.44259 3.15813 9.31988C3.28084 9.19717 3.44639 9.12687 3.61991 9.12381C3.79342 9.12075 3.96135 9.18516 4.08832 9.30347L4.34523 9.56038C4.69654 9.91169 5.26614 9.91169 5.61745 9.56038L6.76739 8.41044C6.89435 8.29214 7.06228 8.22773 7.2358 8.23079C7.40931 8.23385 7.57487 8.30414 7.69758 8.42686C7.82029 8.54957 7.89058 8.71512 7.89365 8.88864C7.89663 9.05756 7.83567 9.22118 7.72328 9.34687C7.71743 9.35342 7.709 9.35705 7.70021 9.35705ZM7.71322 4.44542C7.69655 4.44542 7.68055 4.45199 7.66869 4.46371L5.42785 6.67798C5.30506 6.78781 5.14609 6.84853 4.98134 6.84853C4.81659 6.84853 4.65762 6.78781 4.53483 6.67798L3.24537 5.38851C3.21204 5.35519 3.1803 5.31991 3.15677 5.27906C3.09037 5.16377 3.05953 5.03078 3.0691 4.89701C3.08035 4.7396 3.14683 4.59121 3.25681 4.47803C3.36679 4.36484 3.51321 4.29413 3.67024 4.27836C3.79933 4.2654 3.92877 4.29025 4.04313 4.34898C4.09273 4.37446 4.13495 4.41168 4.17438 4.45111L4.37202 4.64875C4.72333 5.00006 5.29293 5.00006 5.64424 4.64875L6.79418 3.49882C6.92114 3.38051 7.08907 3.3161 7.26259 3.31916C7.4361 3.32222 7.60166 3.39251 7.72437 3.51523C7.84708 3.63794 7.91738 3.80349 7.92044 3.97701C7.92334 4.14132 7.86573 4.30062 7.75915 4.42487C7.74771 4.43821 7.7308 4.44542 7.71322 4.44542ZM14.3581 15.8047H9.89297C9.71533 15.8047 9.54498 15.7341 9.41937 15.6085C9.29377 15.4829 9.2232 15.3125 9.2232 15.1349C9.2232 14.9573 9.29377 14.7869 9.41937 14.6613C9.54498 14.5357 9.71533 14.4651 9.89297 14.4651H14.3581C14.5357 14.4651 14.7061 14.5357 14.8317 14.6613C14.9573 14.7869 15.0279 14.9573 15.0279 15.1349C15.0279 15.3125 14.9573 15.4829 14.8317 15.6085C14.7061 15.7341 14.5357 15.8047 14.3581 15.8047ZM14.3581 10.893H9.89297C9.71533 10.893 9.54498 10.8225 9.41937 10.6969C9.29377 10.5713 9.2232 10.4009 9.2232 10.2233C9.2232 10.0456 9.29377 9.87529 9.41937 9.74968C9.54498 9.62408 9.71533 9.55351 9.89297 9.55351H14.3581C14.5357 9.55351 14.7061 9.62408 14.8317 9.74968C14.9573 9.87529 15.0279 10.0456 15.0279 10.2233C15.0279 10.4009 14.9573 10.5713 14.8317 10.6969C14.7061 10.8225 14.5357 10.893 14.3581 10.893ZM14.3581 5.98142H9.89297C9.71533 5.98142 9.54498 5.91086 9.41937 5.78525C9.29377 5.65964 9.2232 5.48929 9.2232 5.31165C9.2232 5.13402 9.29377 4.96366 9.41937 4.83806C9.54498 4.71245 9.71533 4.64189 9.89297 4.64189H14.3581C14.5357 4.64189 14.7061 4.71245 14.8317 4.83806C14.9573 4.96366 15.0279 5.13402 15.0279 5.31165C15.0279 5.48929 14.9573 5.65964 14.8317 5.78525C14.7061 5.91086 14.5357 5.98142 14.3581 5.98142Z" fill="#2E2A94"/>
</svg>
