<svg width="16" height="16" viewBox="0 0 16 16" fill="none" xmlns="http://www.w3.org/2000/svg">
<path d="M2 12.7676H14C14.1501 12.7677 14.2942 12.8275 14.4004 12.9336C14.5067 13.0399 14.5664 13.1847 14.5664 13.335C14.5663 13.4851 14.5066 13.6292 14.4004 13.7354C14.2942 13.8415 14.1502 13.9013 14 13.9014H2C1.84971 13.9014 1.7049 13.8416 1.59863 13.7354C1.49254 13.6292 1.4327 13.4851 1.43262 13.335C1.43262 13.1847 1.49236 13.0399 1.59863 12.9336C1.7049 12.8273 1.84971 12.7676 2 12.7676Z" fill="white" stroke="white" stroke-width="0.2"/>
<path d="M8 1.43164C8.15011 1.43169 8.29419 1.49157 8.40039 1.59766C8.50666 1.70393 8.56641 1.84873 8.56641 1.99902V9.30078L8.7373 9.12891L10.9307 6.92969C10.9835 6.87681 11.0462 6.83428 11.1152 6.80566C11.1842 6.7771 11.2583 6.76271 11.333 6.7627C11.4077 6.7627 11.4818 6.77714 11.5508 6.80566C11.6198 6.83427 11.6825 6.87684 11.7354 6.92969C11.7882 6.98256 11.8308 7.04518 11.8594 7.11426C11.8879 7.18329 11.9023 7.25732 11.9023 7.33203C11.9023 7.40674 11.8879 7.48077 11.8594 7.5498C11.8308 7.61889 11.7882 7.6815 11.7354 7.73438L8.40234 11.0684C8.34967 11.1215 8.28682 11.1636 8.21777 11.1924C8.14878 11.2211 8.07474 11.2363 8 11.2363C7.92531 11.2363 7.85119 11.2211 7.78223 11.1924C7.74776 11.178 7.71444 11.1604 7.68359 11.1396L7.59766 11.0684L4.26367 7.73438C4.15703 7.62761 4.09668 7.48294 4.09668 7.33203C4.09668 7.18112 4.15703 7.03645 4.26367 6.92969C4.37035 6.82301 4.51516 6.76281 4.66602 6.7627C4.81703 6.7627 4.96255 6.82291 5.06934 6.92969L7.2627 9.12891L7.43359 9.30078V1.99902C7.43359 1.84876 7.4924 1.70392 7.59863 1.59766C7.7049 1.49139 7.84971 1.43164 8 1.43164Z" fill="white" stroke="white" stroke-width="0.2"/>
</svg>
