<svg width="24" height="24" viewBox="0 0 24 24" fill="none" xmlns="http://www.w3.org/2000/svg">
<path d="M21 19H2.99997C2.73475 19 2.4804 19.1054 2.29286 19.2929C2.10533 19.4804 1.99997 19.7348 1.99997 20C1.99997 20.2652 2.10533 20.5196 2.29286 20.7071C2.4804 20.8946 2.73475 21 2.99997 21H21C21.2652 21 21.5195 20.8946 21.7071 20.7071C21.8946 20.5196 22 20.2652 22 20C22 19.7348 21.8946 19.4804 21.7071 19.2929C21.5195 19.1054 21.2652 19 21 19Z" fill="#2E2A94"/>
<path d="M12 2C11.7348 2 11.4804 2.10536 11.2929 2.29289C11.1053 2.48043 11 2.73478 11 3V13.59L7.70997 10.29C7.52167 10.1017 7.26627 9.99591 6.99997 9.99591C6.73367 9.99591 6.47828 10.1017 6.28997 10.29C6.10167 10.4783 5.99588 10.7337 5.99588 11C5.99588 11.2663 6.10167 11.5217 6.28997 11.71L11.29 16.71C11.3829 16.8037 11.4935 16.8781 11.6154 16.9289C11.7373 16.9797 11.868 17.0058 12 17.0058C12.132 17.0058 12.2627 16.9797 12.3845 16.9289C12.5064 16.8781 12.617 16.8037 12.71 16.71L17.71 11.71C17.8032 11.6168 17.8772 11.5061 17.9276 11.3843C17.9781 11.2624 18.0041 11.1319 18.0041 11C18.0041 10.8681 17.9781 10.7376 17.9276 10.6158C17.8772 10.4939 17.8032 10.3832 17.71 10.29C17.6167 10.1968 17.506 10.1228 17.3842 10.0723C17.2624 10.0219 17.1318 9.99591 17 9.99591C16.8681 9.99591 16.7375 10.0219 16.6157 10.0723C16.4939 10.1228 16.3832 10.1968 16.29 10.29L13 13.59V3C13 2.73478 12.8946 2.48043 12.7071 2.29289C12.5195 2.10536 12.2652 2 12 2Z" fill="#2E2A94"/>
</svg>