<svg width="24" height="24" viewBox="0 0 24 24" fill="none" xmlns="http://www.w3.org/2000/svg">
<path d="M3 19.1504H21C21.2254 19.1504 21.4412 19.24 21.6006 19.3994C21.76 19.5588 21.8496 19.7746 21.8496 20C21.8496 20.2254 21.76 20.4412 21.6006 20.6006C21.4412 20.76 21.2254 20.8496 21 20.8496H3C2.77457 20.8496 2.55882 20.76 2.39941 20.6006C2.24001 20.4412 2.15039 20.2254 2.15039 20L2.1543 19.916C2.17361 19.7214 2.25993 19.5389 2.39941 19.3994C2.55882 19.24 2.77457 19.1504 3 19.1504Z" fill="#2E2A94" stroke="white" stroke-width="0.3"/>
<path d="M12 2.15039C12.2254 2.15039 12.4422 2.24001 12.6016 2.39941C12.7607 2.55878 12.8506 2.77475 12.8506 3V13.9531L13.1064 13.6963L16.3955 10.3955L16.3965 10.3965C16.4757 10.3173 16.5694 10.2539 16.6729 10.2109C16.7764 10.168 16.8879 10.1455 17 10.1455C17.1122 10.1455 17.2235 10.168 17.3271 10.2109C17.4307 10.2539 17.5252 10.3172 17.6045 10.3965C17.6835 10.4756 17.7462 10.5695 17.7891 10.6729C17.832 10.7765 17.8545 10.8878 17.8545 11C17.8545 11.1122 17.832 11.2235 17.7891 11.3271C17.7462 11.4305 17.6835 11.5244 17.6045 11.6035L12.6035 16.6045C12.5246 16.684 12.4306 16.7469 12.3271 16.79C12.2236 16.8332 12.1122 16.8555 12 16.8555C11.8879 16.8554 11.7764 16.8332 11.6729 16.79C11.5695 16.7469 11.4754 16.684 11.3965 16.6045V16.6035L6.39648 11.6035C6.23637 11.4434 6.14648 11.2265 6.14648 11C6.14648 10.7735 6.23637 10.5566 6.39648 10.3965C6.55661 10.2364 6.77355 10.1456 7 10.1455C7.19799 10.1455 7.38911 10.2146 7.54102 10.3389L7.60449 10.3965L10.8936 13.6963L11.1504 13.9531V3C11.1504 2.77461 11.2401 2.55881 11.3994 2.39941C11.5588 2.24005 11.7746 2.15044 12 2.15039Z" fill="#2E2A94" stroke="white" stroke-width="0.3"/>
</svg>
