<svg width="64" height="64" viewBox="0 0 64 64" fill="none" xmlns="http://www.w3.org/2000/svg">
<path d="M53.7437 29.9353L47.7438 24.6854C47.6353 24.5906 47.5019 24.529 47.3594 24.508C47.2169 24.487 47.0714 24.5075 46.9402 24.567C46.8091 24.6265 46.6978 24.7226 46.6198 24.8436C46.5417 24.9647 46.5002 25.1056 46.5001 25.2497V34.2196C46.5002 34.3533 46.536 34.4845 46.6037 34.5997C46.6715 34.7149 46.7688 34.8099 46.8856 34.8749C47.0024 34.9399 47.1344 34.9725 47.268 34.9694C47.4016 34.9662 47.532 34.9275 47.6456 34.8571L53.6456 31.1371C53.7453 31.0754 53.8291 30.9911 53.8903 30.891C53.9515 30.7909 53.9884 30.6779 53.998 30.561C54.0075 30.4441 53.9895 30.3265 53.9453 30.2179C53.9012 30.1092 53.8321 30.0125 53.7437 29.9353Z" fill="#C0BCFF"/>
<path d="M16.0603 24.5672C15.9292 24.5075 15.7836 24.487 15.6411 24.508C15.4986 24.5291 15.3651 24.5908 15.2569 24.6859L9.25689 29.9359C9.16852 30.013 9.09949 30.1098 9.05535 30.2185C9.0112 30.3271 8.99318 30.4446 9.00273 30.5615C9.01228 30.6784 9.04914 30.7915 9.11033 30.8915C9.17152 30.9916 9.25535 31.0759 9.35506 31.1377L15.355 34.8577C15.4687 34.928 15.599 34.9667 15.7326 34.9698C15.8662 34.9729 15.9982 34.9403 16.115 34.8753C16.2318 34.8103 16.3291 34.7153 16.3969 34.6002C16.4646 34.485 16.5004 34.3538 16.5005 34.2202V25.2502C16.5005 25.1061 16.459 24.9651 16.3809 24.8439C16.3029 24.7228 16.1916 24.6268 16.0603 24.5672Z" fill="#C0BCFF"/>
<path d="M47.2501 8H15.7502C15.5513 8 15.3606 8.07902 15.2199 8.21967C15.0793 8.36032 15.0002 8.55109 15.0002 8.75V34.2274C15.0002 34.355 15.0327 34.4806 15.0948 34.5922C15.1568 34.7037 15.2463 34.7976 15.3548 34.8649L26.4472 41.7424C26.5808 41.8252 26.737 41.8639 26.8938 41.8532C27.0505 41.8424 27.2 41.7826 27.321 41.6824L31.5002 38.2236L35.6794 41.6828C35.8005 41.7829 35.9499 41.8426 36.1066 41.8533C36.2634 41.8641 36.4195 41.8255 36.5531 41.7428L47.6456 34.8653C47.7541 34.798 47.8436 34.7041 47.9057 34.5924C47.9677 34.4808 48.0002 34.3551 48.0001 34.2274V8.75C48.0001 8.55109 47.9211 8.36032 47.7804 8.21967C47.6398 8.07902 47.449 8 47.2501 8Z" fill="url(#paint0_linear_20835_15461)"/>
<path d="M53.6148 29.845C53.498 29.7798 53.366 29.7471 53.2323 29.7502C53.0986 29.7533 52.9682 29.7921 52.8546 29.8625L46.8546 33.5825C46.8278 33.5992 46.8021 33.6177 46.7777 33.6378L36.2206 40.1838L31.9784 36.6726C31.8438 36.5614 31.6747 36.5006 31.5002 36.5006C31.3256 36.5006 31.1565 36.5614 31.0219 36.6726L26.7798 40.1842L16.2241 33.6389C16.1992 33.6185 16.173 33.5997 16.1457 33.5825L10.1457 29.8625C10.0321 29.7922 9.90173 29.7535 9.76812 29.7504C9.63451 29.7473 9.50249 29.7799 9.38572 29.8449C9.26894 29.9099 9.17164 30.0049 9.10388 30.1201C9.03611 30.2353 9.00033 30.3665 9.00024 30.5001V55.25C9.00024 55.4489 9.07926 55.6397 9.21991 55.7803C9.36056 55.921 9.55133 56 9.75024 56H53.2501C53.449 56 53.6398 55.921 53.7804 55.7803C53.9211 55.6397 54.0001 55.4489 54.0001 55.25V30.5001C54.0001 30.3665 53.9644 30.2353 53.8967 30.1201C53.829 30.0049 53.7316 29.9099 53.6148 29.845Z" fill="url(#paint1_linear_20835_15461)"/>
<path d="M26.7789 40.1833L9.00024 54.8948V55.2501C9.00024 55.449 9.07926 55.6398 9.21991 55.7804C9.36056 55.9211 9.55133 56.0001 9.75024 56.0001H53.2501C53.449 56.0001 53.6398 55.9211 53.7804 55.7804C53.9211 55.6398 54.0001 55.449 54.0001 55.2501V54.8948L36.2215 40.1833L36.2206 40.1839L31.9784 36.6727C31.8438 36.5615 31.6747 36.5007 31.5002 36.5007C31.3256 36.5007 31.1565 36.5615 31.0219 36.6727L26.7798 40.1842L26.7789 40.1833Z" fill="url(#paint2_linear_20835_15461)"/>
<defs>
<linearGradient id="paint0_linear_20835_15461" x1="2.309" y1="54.8751" x2="39.6373" y2="42.7466" gradientUnits="userSpaceOnUse">
<stop stop-color="#B096ED"/>
<stop offset="0.0014" stop-color="#B096ED"/>
<stop offset="0.299" stop-color="#CDBCF3"/>
<stop offset="0.5742" stop-color="#E2D7F7"/>
<stop offset="0.8165" stop-color="#EFE8F9"/>
<stop offset="1" stop-color="#F3EEFA"/>
</linearGradient>
<linearGradient id="paint1_linear_20835_15461" x1="94.0002" y1="43" x2="6.76102" y2="30.6061" gradientUnits="userSpaceOnUse">
<stop stop-color="#0F00FF"/>
<stop offset="1" stop-color="white"/>
</linearGradient>
<linearGradient id="paint2_linear_20835_15461" x1="53.9177" y1="36.423" x2="7.23164" y2="58.6569" gradientUnits="userSpaceOnUse">
<stop stop-color="#0F00FF"/>
<stop offset="1" stop-color="white"/>
</linearGradient>
</defs>
</svg>
