<svg width="40" height="41" viewBox="0 0 40 41" fill="none" xmlns="http://www.w3.org/2000/svg">
<rect y="0.5" width="40" height="40" rx="3.33333" fill="#EEEEEE"/>
<path fill-rule="evenodd" clip-rule="evenodd" d="M22.2858 21.0386L21.3472 21.9776C20.9898 22.3346 20.5052 22.5353 20.0001 22.5353C19.495 22.5353 19.0104 22.3346 18.6531 21.9776L17.7144 21.0386L12.6504 26.1026C12.8028 26.1753 12.9708 26.2142 13.143 26.2142H26.8572C27.0294 26.2142 27.1974 26.1753 27.3498 26.1026L22.2858 21.0386Z" fill="#2E2A94"/>
<path fill-rule="evenodd" clip-rule="evenodd" d="M27.8882 15.4358C27.961 15.5882 27.9998 15.7562 27.9998 15.9284V25.0712C27.9998 25.2434 27.961 25.4114 27.8882 25.5638L22.8242 20.4998L27.8882 15.4358Z" fill="#2E2A94"/>
<path fill-rule="evenodd" clip-rule="evenodd" d="M12.1116 15.4358L17.1756 20.4998L12.1116 25.5638C12.0389 25.4114 12 25.2434 12 25.0712C12 22.7291 12 18.2705 12 15.9284C12 15.7562 12.0389 15.5882 12.1116 15.4358Z" fill="#2E2A94"/>
<path fill-rule="evenodd" clip-rule="evenodd" d="M27.3498 14.8973C27.1974 14.8245 27.0294 14.7856 26.8573 14.7856C23.6698 14.7856 16.3304 14.7856 13.143 14.7856C12.9708 14.7856 12.8028 14.8245 12.6504 14.8973L19.1921 21.4386C19.4062 21.6531 19.6969 21.7735 20.0001 21.7735C20.3033 21.7735 20.594 21.6531 20.8081 21.4386L27.3498 14.8973Z" fill="#2E2A94"/>
</svg>
