<svg width="99" height="105" viewBox="0 0 99 105" fill="none" xmlns="http://www.w3.org/2000/svg">
<path d="M51.7013 104.865V104.76H49.4347V104.655H47.921V104.549H46.8444V104.444H46.0916V104.339H45.2254V104.234H44.4726V104.128H43.8251V104.023H43.2827V103.918H42.6351V103.813H42.0928V103.708H41.5585V103.602H41.1214V103.497H40.6924V103.392H40.2634V103.287H39.721V103.181H39.292V103.076H38.9682V102.971H38.5311V102.866H38.2073V102.76H37.7783V102.655H37.4545V102.55H37.0255V102.445H36.7017V102.34H36.4831V102.234H36.1593V102.129H35.8355V102.024H35.5117V101.919H35.1879V101.813H34.8641V101.708H34.5404V101.603H34.2166V101.498H33.998V101.392H33.6742V101.287H33.4638V101.182H33.14V101.077H32.9214V100.971H32.5976V100.866H32.3791V100.761H32.0553V100.656H31.8448V100.551H31.6262V100.445H31.4077V100.34H31.1972V100.235H30.8734V100.13H30.6549V100.024H30.4363V99.9192H30.2258V99.8139H30.0073V99.7087H29.7887V99.6035H29.5783V99.4983H29.3597V99.393H29.1412V99.2878H28.9307V99.1826H28.7121V99.0773H28.4936V98.9721H28.2831V98.8669H28.0645V98.7616H27.846V98.6564H27.6355V98.5512H27.417V98.4459H27.3117V98.3407H27.0932V98.2355H26.8746V98.1302H26.6642V98.025H26.5508V97.9198H26.3404V97.8145H26.1218V97.7093H25.9032V97.6041H25.798V97.4989H25.5795V97.3936H25.369V97.2884H25.2557V97.1832H25.0452V97.0779H24.9319V96.9727H24.7214V96.8675H24.5029V96.7622H24.3976V96.657H24.1791V96.5518H24.0738V96.4465H23.8553V96.3413H23.75V96.2361H23.5315V96.1308H23.4262V96.0256H23.2077V95.9204H23.1025V95.8151H22.8839V95.7099H22.7787V95.6047H22.5601V95.4994H22.4549V95.3942H22.3416V95.289H22.1311V95.1837H22.0178V95.0785H21.8073V94.9733H21.694V94.8681H21.5887V94.7628H21.3702V94.6576H21.2649V94.5524H21.1597V94.4471H20.9412V94.3419H20.8359V94.2367H20.7226V94.1314H20.5121V94.0262H20.3988V93.921H20.2936V93.8157H20.1883V93.7105H19.9698V93.6053H19.8646V93.5H19.7512V93.3948H19.646V93.2896H19.4274V93.1843H19.3222V93.0791H19.217V92.9739H19.1036V92.8686H18.9984V92.7634H18.7799V92.6582H18.6746V92.5529H18.5694V92.4477H18.4561V92.3425H18.3508V92.2373H18.2456V92.132H18.027V92.0268H17.9218V91.9216H17.8085V91.8163H17.7033V91.7111H17.598V91.6059H17.4847V91.5006H17.3795V91.3954H17.1609V91.2902H17.0557V91.1849H16.9504V91.0797H16.8371V90.9745H16.7319V90.8692H16.6266V90.764H16.5133V90.6588H16.4081V90.5535H16.3029V90.4483H16.1895V90.3431H16.0843V90.2378H15.9791V90.1326H15.8657V90.0274H15.7605V89.9221H15.6553V89.8169H15.5419V89.7117H15.4367V89.6065H15.3315V89.5012H15.2182V89.396H15.1129V89.2908H15.0077V89.1855H14.8944V89.0803H14.7891V88.9751H14.6839V88.8698H14.5706V88.7646H14.4653V88.6594H14.3601V88.5541H14.2468V88.4489H14.1416V88.3437H14.0363V88.2384H13.923V88.1332H13.8178V87.9146H13.7125V87.8094H13.5992V87.7042H13.494V87.599H13.3887V87.4937H13.2754V87.3885H13.1702V87.2833H13.0649V87.0647H12.9516V86.9595H12.8464V86.8542H12.7412V86.749H12.6278V86.6438H12.5226V86.5385H12.4174V86.32H12.304V86.2147H12.1988V86.1095H12.0936V86.0043H11.9803V85.8991H11.875V85.6805H11.7698V85.5753H11.6565V85.47H11.5512V85.3648H11.446V85.1462H11.3327V85.041H11.2274V84.9358H11.1222V84.8305H11.0089V84.612H10.9036V84.5068H10.7984V84.4015H10.6851V84.183H10.5799V84.0777H10.4746V83.9725H10.3613V83.7539H10.2561V83.6487H10.1508V83.5435H10.0375V83.3249H9.93228V83.2197H9.82704V83.0011H9.71372V82.8959H9.60849V82.6773H9.50325V82.5721H9.38993V82.4669H9.28469V82.2483H9.17946V82.1431H9.06614V81.9245H8.9609V81.8193H8.85567V81.6007H8.74235V81.4955H8.63711V81.2769H8.53188V81.1717H8.41855V80.9531H8.31332V80.7346H8.20809V80.6294H8.09476V80.4108H7.98953V80.3056H7.8843V80.087H7.77097V79.9818H7.66574V79.7632H7.56051V79.5447H7.44718V79.4394H7.34195V79.2209H7.23672V79.0023H7.12339V78.7838H7.01816V78.6785H6.91293V78.46H6.7996V78.2414H6.69437V78.0228H6.58914V77.9176H6.47581V77.6991H6.37058V77.4805H6.26535V77.2619H6.15202V77.0434H6.04679V76.8248H5.94156V76.6063H5.82823V76.3877H5.723V76.1691H5.61777V75.9506H5.50444V75.732H5.39921V75.5135H5.29398V75.2949H5.18065V75.0763H5.07542V74.8578H4.97019V74.6392H4.85686V74.4207H4.75163V74.0969H4.64639V73.8783H4.53307V73.6598H4.42784V73.4412H4.3226V73.2226H4.20928V72.8989H4.10405V72.6803H3.99881V72.3565H3.88549V72.1379H3.78025V71.8142H3.67502V71.5956H3.5617V71.2718H3.45646V70.948H3.35123V70.7295H3.23791V70.4057H3.13267V70.0819H3.02744V69.7581H2.91412V69.4343H2.80888V69.1105H2.70365V68.7867H2.59032V68.4629H2.48509V68.2444H2.37986V67.8153H2.26653V67.4916H2.1613V67.0625H2.05607V66.6335H1.94274V66.3097H1.83751V65.8807H1.73228V65.5569H1.61895V65.0146H1.51372V64.5855H1.40849V64.1565H1.29516V63.6142H1.18993V63.1851H1.0847V62.6428H0.971372V61.9952H0.86614V61.3476H0.760908V60.8053H0.647581V60.0525H0.542349V59.1863H0.437117V58.3202H0.323791V57.2436H0.218559V55.8432H0.113327V53.3581H0V51.5206H0.113327V49.1488H0.218559V47.7484H0.323791V46.5585H0.437117V45.6923H0.542349V44.9395H0.647581V44.1867H0.760908V43.5391H0.86614V42.8916H0.971372V42.3492H1.0847V41.7016H1.18993V41.2726H1.29516V40.8436H1.40849V40.3012H1.51372V39.8722H1.61895V39.4432H1.73228V39.0142H1.83751V38.6904H1.94274V38.2614H2.05607V37.9376H2.1613V37.5085H2.26653V37.0795H2.37986V36.7557H2.48509V36.4319H2.59032V36.1081H2.70365V35.7844H2.80888V35.4606H2.91412V35.1368H3.02744V34.813H3.13267V34.4892H3.23791V34.2706H3.35123V33.9468H3.45646V33.7283H3.5617V33.4045H3.67502V33.0807H3.78025V32.8621H3.88549V32.5384H3.99881V32.3198H4.10405V31.996H4.20928V31.7774H4.3226V31.5589H4.42784V31.3403H4.53307V31.0165H4.64639V30.798H4.75163V30.5794H4.85686V30.3609H4.97019V30.1423H5.07542V29.8185H5.18065V29.6H5.29398V29.3814H5.39921V29.1628H5.50444V28.9443H5.61777V28.7257H5.723V28.5072H5.82823V28.2886H5.94156V28.07H6.04679V27.8515H6.15202V27.7463H6.26535V27.5277H6.37058V27.3091H6.47581V27.0906H6.58914V26.872H6.69437V26.6535H6.7996V26.5482H6.91293V26.3297H7.01816V26.1111H7.12339V25.8926H7.23672V25.7873H7.34195V25.5688H7.44718V25.3502H7.56051V25.245H7.66574V25.0264H7.77097V24.8079H7.8843V24.7026H7.98953V24.4841H8.09476V24.3788H8.20809V24.1603H8.31332V23.9417H8.41855V23.8365H8.53188V23.6179H8.63711V23.5127H8.74235V23.2941H8.85567V23.1889H8.9609V22.9703H9.06614V22.8651H9.17946V22.6466H9.28469V22.5413H9.38993V22.3228H9.50325V22.2175H9.60849V22.1123H9.71372V21.8937H9.82704V21.7885H9.93228V21.5699H10.0375V21.4647H10.1508V21.3595H10.2561V21.1409H10.3613V21.0357H10.4746V20.8171H10.5799V20.7119H10.6851V20.6067H10.7984V20.5014H10.9036V20.2829H11.0089V20.1776H11.1222V20.0724H11.2274V19.8539H11.3327V19.7486H11.446V19.6434H11.5512V19.5382H11.6565V19.3196H11.7698V19.2144H11.875V19.1091H11.9803V19.0039H12.0936V18.7853H12.1988V18.6801H12.304V18.5749H12.4174V18.4697H12.5226V18.3644H12.6278V18.2592H12.7412V18.0406H12.8464V17.9354H12.9516V17.8302H13.0649V17.7249H13.1702V17.6197H13.2754V17.5145H13.3887V17.2959H13.494V17.1907H13.5992V17.0854H13.7125V16.9802H13.8178V16.875H13.923V16.7698H14.0363V16.6645H14.1416V16.5593H14.2468V16.4541H14.3601V16.3488H14.4653V16.2436H14.5706V16.1384H14.6839V16.0331H14.7891V15.9279H14.8944V15.7093H15.0077V15.6041H15.1129V15.4989H15.2182V15.3936H15.3315V15.2884H15.4367V15.1832H15.5419V15.0779H15.6553V14.9727H15.7605V14.8675H15.8657V14.7623H15.9791V14.657H16.1895V14.5518H16.3029V14.4466H16.4081V14.3413H16.5133V14.2361H16.6266V14.1309H16.7319V14.0256H16.8371V13.9204H16.9504V13.8152H17.0557V13.7099H17.1609V13.6047H17.2742V13.4995H17.3795V13.3942H17.4847V13.289H17.598V13.1838H17.8085V13.0785H17.9218V12.9733H18.027V12.8681H18.1323V12.7628H18.2456V12.6576H18.3508V12.5524H18.4561V12.4471H18.6746V12.3419H18.7799V12.2367H18.8932V12.1315H18.9984V12.0262H19.1036V11.921H19.217V11.8158H19.4274V11.7105H19.5408V11.6053H19.646V11.5001H19.8646V11.3948H19.9698V11.2896H20.075V11.1844H20.1883V11.0791H20.3988V10.9739H20.5121V10.8687H20.6174V10.7634H20.7226V10.6582H20.9412V10.553H21.0464V10.4477H21.1597V10.3425H21.3702V10.2373H21.4835V10.132H21.5887V10.0268H21.8073V9.92158H21.9125V9.81635H22.1311V9.71112H22.2363V9.60589H22.3416V9.50065H22.5601V9.39542H22.6653V9.29019H22.8839V9.18496H22.9891V9.07973H23.1025V8.97449H23.3129V8.86926H23.4262V8.76403H23.6367V8.6588H23.75V8.55357H23.9605V8.44833H24.1791V8.3431H24.2843V8.23787H24.5029V8.13264H24.6081V8.02741H24.8266V7.92217H24.9319V7.81694H25.1504V7.71171H25.369V7.60648H25.4742V7.50125H25.6928V7.39601H25.9032V7.29078H26.0166V7.18555H26.227V7.08032H26.4456V6.97509H26.6642V6.86985H26.7694V6.76462H26.9879V6.65939H27.1984V6.55416H27.3117V6.44893H27.5222V6.34369H27.7408V6.23846H27.9593V6.13323H28.1698V6.028H28.3883V5.92277H28.6069V5.81753H28.8174V5.7123H29.0359V5.60707H29.2545V5.50184H29.4649V5.39661H29.6835V5.29138H29.9021V5.18614H30.1125V5.08091H30.3311V4.97568H30.5496V4.87045H30.7601V4.76522H31.0839V4.65998H31.3025V4.55475H31.521V4.44952H31.7315V4.34429H31.95V4.23906H32.2738V4.13382H32.4924V4.02859H32.8162V3.92336H33.0266V3.81813H33.3504V3.7129H33.569V3.60766H33.8928V3.50243H34.1113V3.3972H34.4351V3.29197H34.6456V3.18674H34.9694V3.0815H35.2932V2.97627H35.617V2.87104H35.9408V2.76581H36.2645V2.66058H36.5883V2.55534H36.9121V2.45011H37.2359V2.34488H37.673V2.23965H37.9968V2.13442H38.4258V2.02918H38.7496V1.92395H39.1787V1.81872H39.5024V1.71349H39.9396V1.60826H40.4738V1.50303H40.9109V1.39779H41.34V1.29256H41.8823V1.18733H42.3113V1.0821H42.9589V0.976865H43.6065V0.871633H44.1488V0.766401H44.7964V0.661169H45.6545V0.555938H46.5206V0.450706H47.2734V0.345474H48.6819V0.240242H50.1875V0.13501H55.1577V0.240242H56.8819V0.345474H57.9585V0.450706H59.0432V0.555938H60.0146V0.661169H60.6622V0.766401H61.3097V0.871633H61.9573V0.976865H62.6049V1.0821H63.1392V1.18733H63.6815V1.29256H64.1105V1.39779H64.5477V1.50303H64.9767V1.60826H65.519V1.71349H65.948V1.81872H66.3771V1.92395H66.8142V2.02918H67.138V2.13442H67.4618V2.23965H67.8908V2.34488H68.2146V2.45011H68.5384V2.55534H68.8622V2.66058H69.2912V2.76581H69.615V2.87104H69.9388V2.97627H70.1573V3.0815H70.4811V3.18674H70.8049V3.29197H71.0235V3.3972H71.3473V3.50243H71.671V3.60766H71.8815V3.7129H72.2053V3.81813H72.5291V3.92336H72.7477V4.02859H73.0714V4.13382H73.29V4.23906H73.5005V4.34429H73.719V4.44952H74.0428V4.55475H74.2614V4.65998H74.4718V4.76522H74.6904V4.87045H75.0142V4.97568H75.2327V5.08091H75.4432V5.18614H75.6618V5.29138H75.8803V5.39661H76.0908V5.50184H76.3093V5.60707H76.5279V5.7123H76.7384V5.81753H76.9569V5.92277H77.1755V6.028H77.3859V6.13323H77.6045V6.23846H77.7097V6.34369H77.9283V6.44893H78.1469V6.55416H78.3573V6.65939H78.5759V6.76462H78.7944V6.86985H79.0049V6.97509H79.1182V7.08032H79.3287V7.18555H79.5472V7.29078H79.6525V7.39601H79.871V7.50125H80.0896V7.60648H80.1948V7.71171H80.4134V7.81694H80.5186V7.92217H80.7372V8.02741H80.9476V8.13264H81.061V8.23787H81.2714V8.3431H81.49V8.44833H81.5952V8.55357H81.8138V8.6588H81.919V8.76403H82.1376V8.86926H82.2428V8.97449H82.4614V9.07973H82.5666V9.18496H82.6799V9.29019H82.8904V9.39542H83.0037V9.50065H83.2142V9.60589H83.3275V9.71112H83.538V9.81635H83.6513V9.92158H83.7565V10.0268H83.9751V10.132H84.0803V10.2373H84.2989V10.3425H84.4041V10.4477H84.5093V10.553H84.7279V10.6582H84.8331V10.7634H84.9465V10.8687H85.1569V10.9739H85.2702V11.0791H85.3755V11.1844H85.4807V11.2896H85.594V11.3948H85.8045V11.5001H85.9178V11.6053H86.0231V11.7105H86.1283V11.8158H86.3468V11.921H86.4521V12.0262H86.5654V12.1315H86.6706V12.2367H86.8892V12.3419H86.9944V12.4471H87.0997V12.5524H87.213V12.6576H87.4235V12.7628H87.5368V12.8681H87.642V12.9733H87.7472V13.0785H87.8606V13.1838H87.9658V13.289H88.071V13.3942H88.1844V13.4995H88.2896V13.6047H88.3948V13.7099H88.5081V13.8152H88.7186V13.9204H88.8319V14.0256H88.9372V14.1309H89.0424V14.2361H89.1557V14.3413H89.261V14.4466H89.3662V14.5518H89.4795V14.657H89.5848V14.7623H89.69V14.8675H89.8033V14.9727H89.9085V15.0779H90.0138V15.1832H90.1271V15.2884H90.2323V15.3936H90.3376V15.4989H90.4509V15.6041H90.5561V15.7093H90.6614V15.8146H90.7747V15.9198H90.8799V16.025H90.9851V16.1303H91.0985V16.2355H91.2037V16.3407H91.3089V16.446H91.4223V16.5512H91.5275V16.6564H91.6327V16.7617H91.7461V16.8669H91.8513V16.9721H91.9565V17.1907H92.0698V17.2959H92.1751V17.4011H92.2803V17.5064H92.3936V17.6116H92.4989V17.7168H92.6041V17.8221H92.7174V18.0406H92.8227V18.1459H92.9279V18.2511H93.0412V18.3563H93.1465V18.4616H93.2517V18.6801H93.365V18.7853H93.4702V18.8906H93.5755V18.9958H93.6888V19.101H93.794V19.3196H93.8993V19.4248H94.0126V19.5301H94.1178V19.6353H94.2231V19.7405H94.3364V19.9591H94.4416V20.0643H94.5468V20.1696H94.6602V20.3881H94.7654V20.4933H94.8706V20.5986H94.984V20.8171H95.0892V20.9224H95.1944V21.0276H95.3078V21.2462H95.413V21.3514H95.5182V21.5699H95.6315V21.6752H95.7368V21.7804H95.842V21.999H95.9553V22.1042H96.0606V22.2094H96.1658V22.428H96.2791V22.5332H96.3844V22.6385H96.4896V22.857H96.6029V23.0756H96.7082V23.1808H96.8134V23.3994H96.9267V23.5046H97.0319V23.7232H97.1372V23.8284H97.2505V24.0469H97.3557V24.1522H97.461V24.3707H97.5743V24.476H97.6795V24.6945H97.7848V24.7998H97.8981V25.0183H98.0033V25.2369H98.1085V25.3421H98.2219V25.5607H98.3271V25.7792H98.4323V26.2082H98.5457V27.1796H98.4323V27.5034H98.3271V27.722H98.2219V27.9405H98.1085V28.0458H98.0033V28.151H97.8981V28.2562H97.7848V28.4748H97.5743V28.58H97.461V28.6852H97.1372V28.7905H96.7082V28.8957H96.3844V28.7905H95.6315V28.6852H95.413V28.58H95.1944V28.4748H94.984V28.3696H94.8706V28.2643H94.7654V28.1591H94.6602V28.0539H94.5468V27.9486H94.4416V27.7301H94.3364V27.5115H94.2231V27.4063H94.1178V27.1877H94.0126V26.9692H93.8993V26.8639H93.794V26.6454H93.6888V26.5401H93.5755V26.3216H93.4702V26.2163H93.365V25.9978H93.2517V25.8926H93.1465V25.674H93.0412V25.5688H92.9279V25.3502H92.8227V25.245H92.7174V25.0264H92.6041V24.9212H92.4989V24.7026H92.3936V24.5974H92.2803V24.4922H92.1751V24.2736H92.0698V24.1684H91.9565V24.0631H91.8513V23.8446H91.7461V23.7393H91.6327V23.6341H91.5275V23.4156H91.4223V23.3103H91.3089V23.0918H91.2037V22.9865H91.0985V22.8813H90.9851V22.6627H90.8799V22.5575H90.7747V22.4523H90.6614V22.347H90.5561V22.2418H90.4509V22.0233H90.3376V21.918H90.2323V21.8128H90.1271V21.7076H90.0138V21.6023H89.9085V21.3838H89.8033V21.2785H89.69V21.1733H89.5848V21.0681H89.4795V20.9628H89.3662V20.7443H89.261V20.639H89.1557V20.5338H89.0424V20.4286H88.9372V20.3234H88.8319V20.2181H88.7186V20.1129H88.6134V20.0077H88.5081V19.7891H88.3948V19.6839H88.2896V19.5786H88.1844V19.4734H88.071V19.3682H87.9658V19.2629H87.8606V19.1577H87.7472V19.0525H87.642V18.9472H87.5368V18.842H87.4235V18.7368H87.3182V18.6315H87.213V18.5263H87.0997V18.4211H86.9944V18.3159H86.8892V18.2106H86.7759V18.1054H86.6706V18.0002H86.5654V17.8949H86.4521V17.7897H86.3468V17.6845H86.2416V17.5792H86.1283V17.474H86.0231V17.3688H85.9178V17.2635H85.8045V17.1583H85.594V17.0531H85.4807V16.9478H85.3755V16.8426H85.2702V16.7374H85.1569V16.6321H85.0517V16.5269H84.9465V16.4217H84.8331V16.3164H84.7279V16.2112H84.6227V16.106H84.5093V16.0007H84.2989V15.8955H84.1855V15.7903H84.0803V15.6851H83.9751V15.5798H83.7565V15.4746H83.6513V15.3694H83.538V15.2641H83.4327V15.1589H83.2142V15.0537H83.1089V14.9484H83.0037V14.8432H82.8904V14.738H82.6799V14.6327H82.5666V14.5275H82.4614V14.4223H82.3561V14.317H82.2428V14.2118H82.0323V14.1066H81.919V14.0013H81.8138V13.8961H81.5952V13.7909H81.49V13.6856H81.2714V13.5804H81.1662V13.4752H81.061V13.37H80.8424V13.2647H80.7372V13.1595H80.5186V13.0543H80.4134V12.949H80.1948V12.8438H80.0896V12.7386H79.9763V12.6333H79.7658V12.5281H79.6525V12.4229H79.442V12.3176H79.3287V12.2124H79.1182V12.1072H79.0049V12.0019H78.7944V11.8967H78.5759V11.7915H78.4706V11.6862H78.2521V11.581H78.0335V11.4758H77.9283V11.3705H77.7097V11.2653H77.6045V11.1601H77.3859V11.0548H77.1755V10.9496H77.0622V10.8444H76.8517V10.7392H76.6331V10.6339H76.4146V10.5287H76.2041V10.4235H76.0908V10.3182H75.8803V10.213H75.6618V10.1078H75.4432V10.0025H75.2327V9.8973H75.0142V9.79206H74.7956V9.68683H74.5852V9.5816H74.3666V9.47637H74.2614V9.37114H74.0428V9.26591H73.8242V9.16067H73.5005V9.05544H73.29V8.95021H73.0714V8.84498H72.8529V8.73974H72.5291V8.63451H72.3186V8.52928H72.1001V8.42405H71.8815V8.31882H71.671V8.21358H71.3473V8.10835H71.1287V8.00312H70.8049V7.89789H70.5863V7.79266H70.2626V7.68743H69.9388V7.58219H69.7283V7.47696H69.4045V7.37173H69.0807V7.2665H68.8622V7.16127H68.5384V7.05603H68.2146V6.9508H67.8908V6.84557H67.567V6.74034H67.2432V6.63511H66.8142V6.52987H66.4904V6.42464H66.1666V6.31941H65.8428V6.21418H65.4057V6.10895H64.9767V6.00372H64.5477V5.89848H64.1105V5.79325H63.6815V5.68802H63.1392V5.58279H62.7101V5.47755H62.2811V5.37232H61.6335V5.26709H60.986V5.16186H60.3384V5.05663H59.6908V4.9514H59.0432V4.84616H57.9585V4.74093H56.8819V4.6357H55.692V4.53047H49.9771V4.6357H48.5686V4.74093H47.492V4.84616H46.6258V4.9514H45.7678V5.05663H45.1202V5.16186H44.4726V5.26709H43.9303V5.37232H43.2827V5.47755H42.7404V5.58279H42.3113V5.68802H41.8823V5.79325H41.34V5.89848H40.9109V6.00372H40.4738V6.10895H40.15V6.21418H39.721V6.31941H39.3972V6.42464H38.9682V6.52987H38.6444V6.63511H38.3206V6.74034H37.9968V6.84557H37.673V6.9508H37.3492V7.05603H37.0255V7.16127H36.7017V7.2665H36.3779V7.37173H36.0541V7.47696H35.8355V7.58219H35.5117V7.68743H35.2932V7.79266H34.9694V7.89789H34.6456V8.00312H34.4351V8.10835H34.1113V8.21358H33.8928V8.31882H33.6742V8.42405H33.4638V8.52928H33.14V8.63451H32.9214V8.73974H32.7029V8.84498H32.4924V8.95021H32.2738V9.05544H31.95V9.16067H31.7315V9.26591H31.521V9.37114H31.3025V9.47637H31.0839V9.5816H30.9787V9.68683H30.7601V9.79206H30.5496V9.8973H30.3311V10.0025H30.1125V10.1078H29.9021V10.213H29.6835V10.3182H29.4649V10.4235H29.3597V10.5287H29.1412V10.6339H28.9307V10.7392H28.7121V10.8444H28.6069V10.9496H28.3883V11.0548H28.1698V11.1601H27.9593V11.2653H27.846V11.3705H27.6355V11.4758H27.417V11.581H27.3117V11.6862H27.0932V11.7915H26.9879V11.8967H26.7694V12.0019H26.6642V12.1072H26.4456V12.2124H26.3404V12.3176H26.1218V12.4229H25.9032V12.5281H25.798V12.6333H25.6928V12.7386H25.4742V12.8438H25.369V12.949H25.1504V13.0543H25.0452V13.1595H24.8266V13.2647H24.7214V13.37H24.6081V13.4752H24.3976V13.5804H24.2843V13.6856H24.0738V13.7909H23.9605V13.8961H23.8553V14.0013H23.6367V14.1066H23.5315V14.2118H23.4262V14.317H23.3129V14.4223H23.1025V14.5275H22.9891V14.6327H22.8839V14.738H22.7787V14.8432H22.5601V14.9484H22.4549V15.0537H22.3416V15.1589H22.1311V15.2641H22.0178V15.3694H21.9125V15.4746H21.8073V15.5798H21.694V15.6851H21.5887V15.7903H21.3702V15.8955H21.2649V16.0007H21.1597V16.106H21.0464V16.2112H20.9412V16.3164H20.8359V16.4217H20.7226V16.5269H20.5121V16.6321H20.3988V16.7374H20.2936V16.8426H20.1883V16.9478H20.075V17.0531H19.9698V17.1583H19.8646V17.2635H19.7512V17.3688H19.646V17.474H19.5408V17.5792H19.4274V17.6845H19.3222V17.7897H19.217V17.8949H19.1036V18.0002H18.9984V18.1054H18.7799V18.2106H18.6746V18.3159H18.5694V18.4211H18.4561V18.5263H18.3508V18.7449H18.2456V18.8501H18.1323V18.9553H18.027V19.0606H17.9218V19.1658H17.8085V19.271H17.7033V19.3763H17.598V19.4815H17.4847V19.5867H17.3795V19.692H17.2742V19.7972H17.1609V19.9024H17.0557V20.0077H16.9504V20.1129H16.8371V20.2181H16.7319V20.4367H16.6266V20.5419H16.5133V20.6471H16.4081V20.7524H16.3029V20.8576H16.1895V20.9628H16.0843V21.1814H15.9791V21.2866H15.8657V21.3919H15.7605V21.4971H15.6553V21.6023H15.5419V21.7076H15.4367V21.9261H15.3315V22.0313H15.2182V22.1366H15.1129V22.2418H15.0077V22.4604H14.8944V22.5656H14.7891V22.6708H14.6839V22.8894H14.5706V22.9946H14.4653V23.0999H14.3601V23.2051H14.2468V23.4237H14.1416V23.5289H14.0363V23.6341H13.923V23.8527H13.8178V23.9579H13.7125V24.0631H13.5992V24.2817H13.494V24.3869H13.3887V24.6055H13.2754V24.7107H13.1702V24.8159H13.0649V25.0345H12.9516V25.1397H12.8464V25.3583H12.7412V25.4635H12.6278V25.6821H12.5226V25.7873H12.4174V26.0059H12.304V26.1111H12.1988V26.3297H12.0936V26.5482H11.9803V26.6535H11.875V26.872H11.7698V26.9773H11.6565V27.1958H11.5512V27.301H11.446V27.5196H11.3327V27.7382H11.2274V27.8434H11.1222V28.062H11.0089V28.2805H10.9036V28.4991H10.7984V28.6043H10.6851V28.8229H10.5799V29.0414H10.4746V29.26H10.3613V29.3652H10.2561V29.5838H10.1508V29.8023H10.0375V30.0209H9.93228V30.2394H9.82704V30.458H9.71372V30.6766H9.60849V30.8951H9.50325V31.1137H9.38993V31.3322H9.28469V31.5508H9.17946V31.7694H9.06614V31.9879H8.9609V32.2065H8.85567V32.5303H8.74235V32.7488H8.63711V32.9674H8.53188V33.1859H8.41855V33.4045H8.31332V33.7283H8.20809V33.9468H8.09476V34.2706H7.98953V34.4892H7.8843V34.813H7.77097V35.0315H7.66574V35.3553H7.56051V35.5739H7.44718V35.8977H7.34195V36.2215H7.23672V36.5453H7.12339V36.8691H7.01816V37.1928H6.91293V37.5166H6.7996V37.8404H6.69437V38.1642H6.58914V38.488H6.47581V38.8118H6.37058V39.2408H6.26535V39.6698H6.15202V39.9936H6.04679V40.4227H5.94156V40.8517H5.82823V41.2807H5.723V41.7097H5.61777V42.2521H5.50444V42.6811H5.39921V43.2234H5.29398V43.871H5.18065V44.4134H5.07542V45.061H4.97019V45.8138H4.85686V46.6799H4.75163V47.546H4.64639V48.9464H4.53307V50.784H4.42784V54.2404H4.53307V55.9646H4.64639V57.365H4.75163V58.2311H4.85686V59.0973H4.97019V59.8501H5.07542V60.4977H5.18065V61.1453H5.29398V61.6876H5.39921V62.3352H5.50444V62.7642H5.61777V63.1932H5.723V63.6223H5.82823V64.1646H5.94156V64.5936H6.04679V64.9174H6.15202V65.3464H6.26535V65.7755H6.37058V66.0993H6.47581V66.5283H6.58914V66.8521H6.69437V67.1759H6.7996V67.4996H6.91293V67.8234H7.01816V68.1472H7.12339V68.471H7.23672V68.7948H7.34195V69.1186H7.44718V69.3372H7.56051V69.661H7.66574V69.8795H7.77097V70.2033H7.8843V70.4219H7.98953V70.7457H8.09476V70.9642H8.20809V71.288H8.31332V71.5066H8.41855V71.7251H8.53188V71.9437H8.63711V72.2675H8.74235V72.486H8.85567V72.7046H8.9609V72.9231H9.06614V73.1417H9.17946V73.4655H9.28469V73.6841H9.38993V73.9026H9.50325V74.1212H9.60849V74.2264H9.71372V74.445H9.82704V74.6635H9.93228V74.8821H10.0375V75.1006H10.1508V75.3192H10.2561V75.5377H10.3613V75.7563H10.4746V75.9749H10.5799V76.0801H10.6851V76.2987H10.7984V76.5172H10.9036V76.7358H11.0089V76.841H11.1222V77.0596H11.2274V77.2781H11.3327V77.4967H11.446V77.6019H11.5512V77.8205H11.6565V77.9257H11.7698V78.1443H11.875V78.2495H11.9803V78.4681H12.0936V78.6866H12.1988V78.7918H12.304V79.0104H12.4174V79.1156H12.5226V79.3342H12.6278V79.4394H12.7412V79.658H12.8464V79.7632H12.9516V79.9818H13.0649V80.087H13.1702V80.1922H13.2754V80.4108H13.3887V80.516H13.494V80.7346H13.5992V80.8398H13.7125V80.9451H13.8178V81.1636H13.923V81.2688H14.0363V81.4874H14.1416V81.5926H14.2468V81.6979H14.3601V81.8031H14.4653V82.0217H14.5706V82.1269H14.6839V82.2321H14.7891V82.4507H14.8944V82.5559H15.0077V82.6611H15.1129V82.7664H15.2182V82.9849H15.3315V83.0902H15.4367V83.1954H15.5419V83.3006H15.6553V83.5192H15.7605V83.6244H15.8657V83.7297H15.9791V83.8349H16.0843V83.9401H16.1895V84.0453H16.3029V84.1506H16.4081V84.3691H16.5133V84.4744H16.6266V84.5796H16.7319V84.6848H16.8371V84.7901H16.9504V84.8953H17.0557V85.0005H17.1609V85.1058H17.2742V85.3243H17.3795V85.4296H17.4847V85.5348H17.598V85.64H17.7033V85.7452H17.8085V85.8505H17.9218V85.9557H18.027V86.0609H18.1323V86.1662H18.2456V86.2714H18.3508V86.3766H18.4561V86.4819H18.5694V86.5871H18.6746V86.6923H18.7799V86.7976H18.8932V86.9028H18.9984V87.008H19.1036V87.1133H19.217V87.2185H19.3222V87.3237H19.4274V87.429H19.5408V87.5342H19.646V87.6394H19.7512V87.7447H19.8646V87.8499H19.9698V87.9551H20.1883V88.0603H20.2936V88.1656H20.3988V88.2708H20.5121V88.376H20.6174V88.4813H20.7226V88.5865H20.8359V88.6917H20.9412V88.797H21.1597V88.9022H21.2649V89.0074H21.3702V89.1127H21.4835V89.2179H21.5887V89.3231H21.694V89.4284H21.8073V89.5336H22.0178V89.6388H22.1311V89.7441H22.2363V89.8493H22.3416V89.9545H22.5601V90.0598H22.6653V90.165H22.7787V90.2702H22.8839V90.3755H23.1025V90.4807H23.2077V90.5859H23.3129V90.6911H23.5315V90.7964H23.6367V90.9016H23.75V91.0069H23.8553V91.1121H24.0738V91.2173H24.1791V91.3225H24.3976V91.4278H24.5029V91.533H24.6081V91.6382H24.8266V91.7435H24.9319V91.8487H25.1504V91.9539H25.2557V92.0592H25.369V92.1644H25.5795V92.2696H25.6928V92.3749H25.9032V92.4801H26.0166V92.5853H26.227V92.6906H26.3404V92.7958H26.5508V92.901H26.6642V93.0063H26.8746V93.1115H27.0932V93.2167H27.1984V93.3219H27.417V93.4272H27.5222V93.5324H27.7408V93.6376H27.846V93.7429H28.0645V93.8481H28.2831V93.9533H28.4936V94.0586H28.6069V94.1638H28.8174V94.269H29.0359V94.3743H29.2545V94.4795H29.3597V94.5847H29.5783V94.69H29.7887V94.7952H30.0073V94.9004H30.2258V95.0057H30.4363V95.1109H30.6549V95.2161H30.8734V95.3214H31.0839V95.4266H31.1972V95.5318H31.4077V95.6371H31.6262V95.7423H31.8448V95.8475H32.0553V95.9527H32.3791V96.058H32.5976V96.1632H32.8162V96.2684H33.0266V96.3737H33.3504V96.4789H33.569V96.5841H33.7875V96.6894H33.998V96.7946H34.3218V96.8998H34.5404V97.0051H34.8641V97.1103H35.0827V97.2155H35.4065V97.3208H35.617V97.426H35.9408V97.5312H36.1593V97.6365H36.4831V97.7417H36.8069V97.8469H37.1307V97.9522H37.4545V98.0574H37.7783V98.1626H38.1021V98.2679H38.4258V98.3731H38.7496V98.4783H39.1787V98.5835H39.5024V98.6888H39.9396V98.794H40.2634V98.8992H40.6924V99.0045H41.1214V99.1097H41.5585V99.2149H42.0928V99.3202H42.5299V99.4254H42.9589V99.5306H43.6065V99.6359H44.1488V99.7411H44.7964V99.8463H45.3307V99.9516H46.1968V100.057H47.063V100.162H47.921V100.267H49.2162V100.372H51.0537V100.478H54.5101V100.372H56.3396V100.267H57.4243V100.162H58.5009V100.057H59.367V99.9516H60.0146V99.8463H60.6622V99.7411H61.3097V99.6359H61.9573V99.5306H62.4916V99.4254H62.9287V99.3202H63.463V99.2149H63.9001V99.1097H64.3291V99.0045H64.7581V98.8992H65.3005V98.794H65.6243V98.6888H65.948V98.5835H66.2718V98.4783H66.7009V98.3731H67.0247V98.2679H67.3484V98.1626H67.7856V98.0574H68.1093V97.9522H68.4331V97.8469H68.6436V97.7417H68.9674V97.6365H69.2912V97.5312H69.5097V97.426H69.8335V97.3208H70.1573V97.2155H70.3759V97.1103H70.6997V97.0051H71.0235V96.8998H71.2339V96.7946H71.4525V96.6894H71.7763V96.5841H71.9948V96.4789H72.2053V96.3737H72.4239V96.2684H72.7477V96.1632H72.9662V96.058H73.1767V95.9527H73.3952V95.8475H73.6138V95.7423H73.9376V95.6371H74.148V95.5318H74.3666V95.4266H74.4718V95.3214H74.6904V95.2161H74.909V95.1109H75.1194V95.0057H75.338V94.9004H75.5565V94.7952H75.767V94.69H75.9855V94.5847H76.2041V94.4795H76.3093V94.3743H76.5279V94.269H76.7384V94.1638H76.9569V94.0586H77.0622V93.9533H77.2807V93.8481H77.4993V93.7429H77.6045V93.6376H77.8231V93.5324H78.0335V93.4272H78.1469V93.3219H78.3573V93.2167H78.4706V93.1115H78.6811V93.0063H78.8997V92.901H79.0049V92.7958H79.2235V92.6906H79.442V92.5853H79.5472V92.4801H79.6525V92.3749H79.871V92.2696H79.9763V92.1644H80.1948V92.0592H80.3001V91.9539H80.5186V91.8487H80.6238V91.7435H80.7372V91.6382H80.9476V91.533H81.061V91.4278H81.2714V91.3225H81.3848V91.2173H81.5952V91.1121H81.7085V91.0069H81.8138V90.9016H82.0323V90.7964H82.1376V90.6911H82.2428V90.5859H82.3561V90.4807H82.5666V90.3755H82.6799V90.2702H82.7851V90.165H82.8904V90.0598H83.1089V89.9545H83.2142V89.8493H83.3275V89.7441H83.4327V89.6388H83.6513V89.5336H83.7565V89.4284H83.8618V89.3231H83.9751V89.2179H84.1855V89.1127H84.2989V89.0074H84.4041V88.9022H84.5093V88.797H84.6227V88.6917H84.7279V88.5865H84.8331V88.4813H84.9465V88.376H85.1569V88.2708H85.2702V88.1656H85.3755V88.0603H85.4807V87.9551H85.594V87.8499H85.6993V87.7447H85.8045V87.6394H85.9178V87.5342H86.0231V87.429H86.1283V87.3237H86.2416V87.2185H86.4521V87.1133H86.5654V87.008H86.6706V86.9028H86.7759V86.7976H86.8892V86.6923H86.9944V86.5871H87.0997V86.4819H87.213V86.3766H87.3182V86.1581H87.4235V86.0528H87.5368V85.9476H87.642V85.8424H87.7472V85.7372H87.8606V85.6319H87.9658V85.5267H88.071V85.4215H88.1844V85.3162H88.2896V85.211H88.3948V85.1058H88.5081V85.0005H88.6134V84.8953H88.7186V84.7901H88.8319V84.6848H88.9372V84.5796H89.0424V84.361H89.1557V84.2558H89.261V84.1506H89.3662V84.0453H89.4795V83.9401H89.5848V83.7216H89.69V83.6163H89.8033V83.5111H89.9085V83.4059H90.0138V83.3006H90.1271V83.1954H90.2323V82.9768H90.3376V82.8716H90.4509V82.7664H90.5561V82.6611H90.6614V82.5559H90.7747V82.3374H90.8799V82.2321H90.9851V82.1269H91.0985V81.9083H91.2037V81.8031H91.3089V81.6979H91.4223V81.4793H91.5275V81.3741H91.6327V81.2688H91.7461V81.0503H91.8513V80.9451H91.9565V80.8398H92.0698V80.6213H92.1751V80.516H92.2803V80.2975H92.3936V80.1922H92.4989V80.087H92.6041V79.8684H92.7174V79.7632H92.8227V79.5447H92.9279V79.4394H93.0412V79.2209H93.1465V79.1156H93.2517V78.8971H93.365V78.7918H93.4702V78.5733H93.5755V78.4681H93.6888V78.2495H93.794V78.1443H93.8993V77.9257H94.0126V77.8205H94.1178V77.6019H94.2231V77.3834H94.3364V77.2781H94.4416V77.0596H94.5468V76.841H94.6602V76.7358H94.7654V76.6305H94.8706V76.5253H95.0892V76.4201H95.3078V76.3148H95.5182V76.2096H95.7368V76.1044H96.9267V76.2096H97.3557V76.3148H97.461V76.4201H97.6795V76.5253H97.7848V76.6305H97.8981V76.7358H98.0033V76.841H98.1085V76.9462H98.2219V77.27H98.3271V77.4886H98.4323V77.8124H98.5457V78.7838H98.4323V79.1075H98.3271V79.3261H98.2219V79.5447H98.1085V79.7632H98.0033V79.8684H97.8981V80.087H97.7848V80.3056H97.6795V80.4108H97.5743V80.6294H97.461V80.7346H97.3557V80.9531H97.2505V81.0584H97.1372V81.2769H97.0319V81.3822H96.9267V81.6007H96.8134V81.706H96.7082V81.9245H96.6029V82.1431H96.4896V82.2483H96.3844V82.3535H96.2791V82.5721H96.1658V82.6773H96.0606V82.8959H95.9553V83.0011H95.842V83.1064H95.7368V83.3249H95.6315V83.4301H95.5182V83.5354H95.413V83.7539H95.3078V83.8592H95.1944V83.9644H95.0892V84.183H94.984V84.2882H94.8706V84.5068H94.7654V84.612H94.6602V84.7172H94.5468V84.9358H94.4416V85.041H94.3364V85.1462H94.2231V85.2515H94.1178V85.47H94.0126V85.5753H93.8993V85.6805H93.794V85.7857H93.6888V85.891H93.5755V86.1095H93.4702V86.2147H93.365V86.32H93.2517V86.4252H93.1465V86.5304H93.0412V86.6357H92.9279V86.8542H92.8227V86.9595H92.7174V87.0647H92.6041V87.1699H92.4989V87.2752H92.3936V87.4937H92.2803V87.599H92.1751V87.7042H92.0698V87.8094H91.9565V87.9146H91.8513V88.0199H91.7461V88.1251H91.6327V88.2303H91.5275V88.3356H91.4223V88.4408H91.3089V88.546H91.2037V88.6513H91.0985V88.7565H90.9851V88.8617H90.8799V88.967H90.7747V89.1855H90.6614V89.2908H90.5561V89.396H90.4509V89.5012H90.3376V89.6065H90.2323V89.7117H90.1271V89.8169H90.0138V89.9221H89.9085V90.0274H89.8033V90.1326H89.69V90.2378H89.5848V90.3431H89.4795V90.4483H89.3662V90.5535H89.1557V90.6588H89.0424V90.764H88.9372V90.8692H88.8319V90.9745H88.7186V91.0797H88.6134V91.1849H88.5081V91.2902H88.3948V91.3954H88.2896V91.5006H88.1844V91.6059H88.071V91.7111H87.8606V91.8163H87.7472V91.9216H87.642V92.0268H87.5368V92.132H87.4235V92.2373H87.3182V92.3425H87.213V92.4477H87.0997V92.5529H86.8892V92.6582H86.7759V92.7634H86.6706V92.8686H86.5654V92.9739H86.3468V93.0791H86.2416V93.1843H86.1283V93.2896H86.0231V93.3948H85.8045V93.5H85.6993V93.6053H85.594V93.7105H85.4807V93.8157H85.2702V93.921H85.1569V94.0262H85.0517V94.1314H84.9465V94.2367H84.7279V94.3419H84.6227V94.4471H84.5093V94.5524H84.2989V94.6576H84.1855V94.7628H84.0803V94.8681H83.8618V94.9733H83.7565V95.0785H83.538V95.1837H83.4327V95.289H83.2142V95.3942H83.1089V95.4994H83.0037V95.6047H82.7851V95.7099H82.6799V95.8151H82.4614V95.9204H82.3561V96.0256H82.2428V96.1308H82.0323V96.2361H81.919V96.3413H81.7085V96.4465H81.49V96.5518H81.3848V96.657H81.1662V96.7622H81.061V96.8675H80.8424V96.9727H80.6238V97.0779H80.5186V97.1832H80.3001V97.2884H80.0896V97.3936H79.9763V97.4989H79.7658V97.6041H79.6525V97.7093H79.442V97.8145H79.2235V97.9198H79.1182V98.025H78.8997V98.1302H78.6811V98.2355H78.4706V98.3407H78.2521V98.4459H78.0335V98.5512H77.8231V98.6564H77.7097V98.7616H77.4993V98.8669H77.2807V98.9721H77.0622V99.0773H76.8517V99.1826H76.6331V99.2878H76.4146V99.393H76.2041V99.4983H75.9855V99.6035H75.767V99.7087H75.5565V99.8139H75.338V99.9192H75.1194V100.024H74.7956V100.13H74.5852V100.235H74.3666V100.34H74.148V100.445H73.9376V100.551H73.6138V100.656H73.3952V100.761H73.1767V100.866H72.9662V100.971H72.6424V101.077H72.3186V101.182H72.1001V101.287H71.7763V101.392H71.4525V101.498H71.2339V101.603H70.9101V101.708H70.5863V101.813H70.3759V101.919H70.0521V102.024H69.7283V102.129H69.4045V102.234H69.0807V102.34H68.7569V102.445H68.3198V102.55H67.996V102.655H67.6722V102.76H67.3484V102.866H66.9194V102.971H66.5956V103.076H66.1666V103.181H65.7295V103.287H65.3005V103.392H64.7581V103.497H64.3291V103.602H63.9001V103.708H63.463V103.813H62.9287V103.918H62.2811V104.023H61.6335V104.128H60.986V104.234H60.3384V104.339H59.5775V104.444H58.5009V104.549H57.4243V104.655H56.3396V104.76H53.9678V104.865" fill="url(#paint0_linear_18603_17376)"/>
<defs>
<linearGradient id="paint0_linear_18603_17376" x1="23.4829" y1="7.14507" x2="80.7291" y2="94.779" gradientUnits="userSpaceOnUse">
<stop stop-color="#FFCF00"/>
<stop offset="1" stop-color="#FAAD19"/>
</linearGradient>
</defs>
</svg>
