<svg width="40" height="40" viewBox="0 0 40 40" fill="none" xmlns="http://www.w3.org/2000/svg">
<rect width="40" height="40" rx="3.33333" fill="#EEEEEE"/>
<path fill-rule="evenodd" clip-rule="evenodd" d="M24.3223 25.3646C24.0716 25.7514 23.7284 26.0695 23.3237 26.2901C22.919 26.5107 22.4657 26.6268 22.0048 26.6279L23.0937 29.1558L24.5408 26.8243L27.229 27.3748L25.7383 23.914L25.2343 24.1299C25.1379 24.1668 25.0566 24.2349 25.0036 24.3234L24.3225 25.3649L24.3223 25.3646ZM12.4564 28.0997L15.1595 27.6274L16.5383 30L18.1244 26.5933C17.5945 26.6781 17.0514 26.6072 16.5611 26.3891C16.0709 26.1709 15.6545 25.815 15.3628 25.3646L14.6817 24.3232C14.6286 24.2346 14.5474 24.1665 14.451 24.1296L14.329 24.0774L12.4564 28.0997ZM16.9428 18.2971C16.8391 18.1904 16.7816 18.0471 16.7827 17.8983C16.7838 17.7495 16.8434 17.6071 16.9486 17.5019C17.0539 17.3967 17.1963 17.3371 17.3451 17.336C17.4939 17.335 17.6371 17.3925 17.7439 17.4961L18.8208 18.5731L21.9615 15.7229C22.0724 15.6219 22.2189 15.5692 22.3687 15.5762C22.5185 15.5833 22.6594 15.6496 22.7603 15.7605C22.8612 15.8714 22.914 16.0179 22.9069 16.1677C22.8999 16.3175 22.8336 16.4584 22.7227 16.5593L19.2048 19.7518C19.1523 19.8051 19.0899 19.8475 19.021 19.8765C18.9521 19.9055 18.8781 19.9206 18.8034 19.9209C18.7287 19.9212 18.6546 19.9067 18.5855 19.8782C18.5163 19.8497 18.4535 19.8079 18.4007 19.755L16.9428 18.2971ZM20.8338 10.3348L21.8297 11.0805C22.0886 11.2796 22.4027 11.3938 22.729 11.4077L23.9714 11.4769C24.3291 11.4934 24.6714 11.6271 24.9457 11.8572C25.22 12.0874 25.411 12.4013 25.4895 12.7506L25.7733 13.9622C25.8437 14.281 26.0107 14.5703 26.2516 14.7907L27.1589 15.6422C27.4223 15.8848 27.5986 16.2072 27.6607 16.5599C27.7229 16.9125 27.6675 17.2757 27.5031 17.5938L26.9417 18.7043C26.7907 18.9938 26.7327 19.3228 26.7756 19.6465L26.9232 20.882C26.969 21.2372 26.8968 21.5975 26.7177 21.9076C26.5386 22.2177 26.2626 22.4604 25.9321 22.5982L24.7882 23.0882C24.4865 23.2128 24.2306 23.4276 24.0554 23.7031L23.3743 24.7445C23.1811 25.046 22.8942 25.2756 22.5577 25.3981C22.2212 25.5205 21.8538 25.529 21.512 25.4223L20.3209 25.0623C20.0096 24.9638 19.6755 24.9638 19.3642 25.0623L18.1732 25.4223C17.8315 25.529 17.4641 25.5205 17.1276 25.3981C16.7911 25.2756 16.5042 25.046 16.311 24.7445L15.6299 23.7031C15.4547 23.4276 15.1988 23.2128 14.897 23.0882L13.7532 22.5982C13.4228 22.4603 13.1468 22.2177 12.9678 21.9076C12.7887 21.5975 12.7166 21.2372 12.7624 20.8821L12.91 19.6466C12.9529 19.3229 12.8949 18.9939 12.7439 18.7044L12.1825 17.5939C12.018 17.2758 11.9626 16.9125 12.0248 16.5599C12.087 16.2073 12.2633 15.8849 12.5266 15.6423L13.4343 14.7907C13.6751 14.5704 13.8422 14.2811 13.9126 13.9623L14.1964 12.7507C14.2748 12.4014 14.4658 12.0875 14.7401 11.8573C15.0144 11.6271 15.3567 11.4935 15.7143 11.4769L16.9567 11.4077C17.283 11.3938 17.597 11.2796 17.8559 11.0805L18.8521 10.3348C19.1368 10.1176 19.4849 10 19.843 10C20.201 10 20.5492 10.1176 20.8338 10.3348ZM19.8425 13.1201C18.9272 13.12 18.0325 13.3914 17.2714 13.8999C16.5104 14.4084 15.9172 15.1312 15.567 15.9768C15.2167 16.8224 15.125 17.7529 15.3036 18.6506C15.4822 19.5483 15.9229 20.3729 16.5701 21.0201C17.2173 21.6673 18.0419 22.108 18.9396 22.2866C19.8373 22.4652 20.7678 22.3735 21.6134 22.0233C22.459 21.673 23.1817 21.0799 23.6903 20.3188C24.1988 19.5578 24.4702 18.6631 24.4702 17.7478C24.4702 16.5205 23.9826 15.3434 23.1148 14.4755C22.2469 13.6077 21.0698 13.1201 19.8425 13.1201Z" fill="#2E2A94"/>
</svg>
