<svg width="24" height="24" viewBox="0 0 24 24" fill="none" xmlns="http://www.w3.org/2000/svg">
<path d="M12 22C17.5228 22 22 17.5228 22 12C22 6.47715 17.5228 2 12 2C6.47715 2 2 6.47715 2 12C2 17.5228 6.47715 22 12 22Z" fill="#1877F2"/>
<path d="M13.0547 18.787V12.605H15.1387L15.4509 10.185H13.0547V8.64379C13.0547 7.94479 13.2487 7.46851 14.251 7.46851H15.5213V5.31007C14.903 5.24451 14.2815 5.21276 13.6597 5.21495C11.8176 5.21495 10.5568 6.33895 10.5568 8.40411V10.185H8.48047V12.605H10.5569V18.787H13.0547Z" fill="white"/>
</svg>
