<svg width="68" height="68" viewBox="0 0 68 68" fill="none" xmlns="http://www.w3.org/2000/svg">
<path d="M34 21.5625C45.1727 21.5625 54.9083 25.1853 60.0098 30.5439H63.8008V39.3076H63.7969C63.6213 48.9126 50.3489 56.667 34 56.667C17.6513 56.6669 4.37973 48.9125 4.2041 39.3076H4.2002V30.5439H7.99121C13.0927 25.1854 22.8276 21.5626 34 21.5625Z" fill="url(#paint0_linear_27189_2061)"/>
<ellipse cx="34.0004" cy="31.1704" rx="29.8002" ry="17.5522" fill="url(#paint1_linear_27189_2061)"/>
<ellipse cx="33.9996" cy="31.1711" rx="24.5924" ry="13.3088" fill="url(#paint2_linear_27189_2061)"/>
<path d="M18.4854 25.6211L31.2743 34.3561L36.7272 28.0357L18.4854 25.6211Z" fill="url(#paint3_linear_27189_2061)"/>
<path d="M36.7279 28.0348L31.275 34.3552L52.4085 37.7812L36.7279 28.0348Z" fill="url(#paint4_linear_27189_2061)"/>
<circle cx="34.0003" cy="31.0746" r="1.83237" fill="white"/>
<defs>
<linearGradient id="paint0_linear_27189_2061" x1="53.5248" y1="80.5888" x2="53.5248" y2="21.5625" gradientUnits="userSpaceOnUse">
<stop stop-color="#0F00FF"/>
<stop offset="1" stop-color="white"/>
</linearGradient>
<linearGradient id="paint1_linear_27189_2061" x1="53.5247" y1="48.7226" x2="52.5801" y2="-2.12833" gradientUnits="userSpaceOnUse">
<stop stop-color="white"/>
<stop offset="1" stop-color="#0F00FF"/>
</linearGradient>
<linearGradient id="paint2_linear_27189_2061" x1="49.9565" y1="131.473" x2="50.3721" y2="12.4051" gradientUnits="userSpaceOnUse">
<stop stop-color="#0F00FF"/>
<stop offset="1" stop-color="white"/>
</linearGradient>
<linearGradient id="paint3_linear_27189_2061" x1="52.5126" y1="12.0326" x2="15.8517" y2="30.0159" gradientUnits="userSpaceOnUse">
<stop stop-color="#0F00FF"/>
<stop offset="1" stop-color="#8F88FF"/>
</linearGradient>
<linearGradient id="paint4_linear_27189_2061" x1="69.473" y1="13.5207" x2="27.5196" y2="34.2346" gradientUnits="userSpaceOnUse">
<stop stop-color="#0F00FF"/>
<stop offset="1" stop-color="#8F88FF"/>
</linearGradient>
</defs>
</svg>
