<svg width="30" height="22" viewBox="0 0 30 22" fill="none" xmlns="http://www.w3.org/2000/svg">
<path d="M10.9626 0.961273C11.37 0.255587 12.3886 0.255584 12.796 0.96127L23.611 19.6934C24.0184 20.3991 23.5092 21.2812 22.6943 21.2812H1.06426C0.249404 21.2812 -0.259883 20.3991 0.147545 19.6934L10.9626 0.961273Z" fill="#2E2A94"/>
<path d="M17.4104 5.53503C17.5388 5.31263 17.8601 5.31264 17.9885 5.53503L26.5051 20.287C26.6334 20.5093 26.4736 20.7867 26.217 20.787H9.18286C8.92617 20.787 8.76571 20.5093 8.8938 20.287L17.4104 5.53503Z" stroke="white"/>
<path d="M23.3004 10.8967C23.503 10.5458 24.0095 10.5458 24.212 10.8967L29.5894 20.2105C29.7919 20.5614 29.5387 21 29.1336 21H24.9964C24.5912 21 23.4963 17.4856 21.4963 14.0215L23.3004 10.8967Z" fill="#BDCBFF"/>
<path d="M23.7844 10.8593C23.7898 10.8623 23.7969 10.8675 23.804 10.8798L29.4729 20.6991C29.48 20.7115 29.4808 20.7202 29.4807 20.7264C29.4805 20.7342 29.4786 20.744 29.4729 20.7538C29.4673 20.7635 29.4599 20.7702 29.4534 20.7743C29.448 20.7775 29.4395 20.7811 29.425 20.7811H18.0872C18.0729 20.7811 18.0652 20.7775 18.0598 20.7743C18.0531 20.7703 18.045 20.7637 18.0393 20.7538C18.0337 20.744 18.0317 20.7342 18.0315 20.7264C18.0314 20.7202 18.0323 20.7114 18.0393 20.6991L23.7083 10.8798C23.7155 10.8673 23.7233 10.8623 23.7288 10.8593C23.7355 10.8556 23.7448 10.8524 23.7561 10.8524C23.7676 10.8524 23.7776 10.8555 23.7844 10.8593Z" stroke="white"/>
</svg>