<svg width="64" height="64" viewBox="0 0 64 64" fill="none" xmlns="http://www.w3.org/2000/svg">
<path d="M29.5146 24.2884L27.1455 11.6429H15.1491C14.6117 11.6429 14.12 11.9452 13.8773 12.4247L8.15081 23.7394C8.01581 24.0061 7.97184 24.3012 8.01234 24.5847L28.9668 31.2723C28.9638 31.1557 29.4837 24.402 29.5146 24.2884Z" fill="url(#paint0_linear_10223_6201)"/>
<path d="M32.3443 24.5847H8.01111C8.04842 24.8457 8.15718 25.0968 8.3354 25.3064L30.9119 51.8571C31.141 52.1266 31.4457 52.2856 31.7647 52.3381L32.3911 24.8905C32.362 24.7906 32.3471 24.6878 32.3443 24.5847Z" fill="url(#paint1_linear_10223_6201)"/>
<path d="M40.6344 24.5846L32.0046 20.6377L23.6898 24.5846C23.6925 24.6876 23.7074 24.7905 23.7366 24.8904L31.772 52.338C31.9294 52.3639 32.09 52.3635 32.2472 52.3365L41.5019 33.9119L40.5832 24.9098C40.6154 24.8037 40.6321 24.6943 40.6344 24.5846Z" fill="url(#paint2_linear_10223_6201)"/>
<path d="M40.6295 24.5847L34.9248 20.6376L31.9997 24.5845V52.357C32.0809 52.357 32.162 52.3505 32.2423 52.3367L41.497 33.9121L40.5783 24.9099C40.6105 24.8038 40.6272 24.6944 40.6295 24.5847Z" fill="url(#paint3_linear_10223_6201)"/>
<path d="M23.6903 24.5846H32.005C32.0076 24.4616 33.7366 21.1302 33.7013 21.0109L34.833 17.6929L32.005 11.6428H27.1518L23.7307 24.2374C23.6998 24.351 23.6872 24.468 23.6903 24.5846Z" fill="url(#paint4_linear_10223_6201)"/>
<path d="M36.8596 11.6427H31.9997V24.5845H40.6295C40.632 24.4615 41.2787 24.3485 41.2434 24.2292L44.6394 17.0957L36.8596 11.6427Z" fill="url(#paint5_linear_10223_6201)"/>
<path d="M40.6269 24.5846L48.671 28.3914L55.9835 24.5846C56.0239 24.3008 55.9795 24.0055 55.8441 23.7387L50.0993 12.4229C49.8563 11.9443 49.3651 11.6428 48.8284 11.6428H36.857L40.5783 24.219C40.6136 24.3383 40.6293 24.4616 40.6269 24.5846Z" fill="url(#paint6_linear_10223_6201)"/>
<path d="M40.6254 24.5847C40.6231 24.6944 40.6065 24.8038 40.5742 24.9099L32.2382 52.3367C32.5539 52.2826 32.8549 52.124 33.0818 51.8571L55.6574 25.3075C55.8358 25.0976 55.9447 24.8461 55.9819 24.5848H40.6254V24.5847Z" fill="url(#paint7_linear_10223_6201)"/>
<defs>
<linearGradient id="paint0_linear_10223_6201" x1="-0.277137" y1="38.8213" x2="23.462" y2="30.1474" gradientUnits="userSpaceOnUse">
<stop stop-color="#B096ED"/>
<stop offset="0.0014" stop-color="#B096ED"/>
<stop offset="0.299" stop-color="#CDBCF3"/>
<stop offset="0.5742" stop-color="#E2D7F7"/>
<stop offset="0.8165" stop-color="#EFE8F9"/>
<stop offset="1" stop-color="#F3EEFA"/>
</linearGradient>
<linearGradient id="paint1_linear_10223_6201" x1="32.3465" y1="24.4741" x2="2.30345" y2="29.9204" gradientUnits="userSpaceOnUse">
<stop stop-color="#0F00FF"/>
<stop offset="1" stop-color="white"/>
</linearGradient>
<linearGradient id="paint2_linear_10223_6201" x1="41.4692" y1="20.5112" x2="19.0989" y2="23.1036" gradientUnits="userSpaceOnUse">
<stop stop-color="#0F00FF"/>
<stop offset="1" stop-color="white"/>
</linearGradient>
<linearGradient id="paint3_linear_10223_6201" x1="41.4796" y1="20.5111" x2="29.4376" y2="21.2552" gradientUnits="userSpaceOnUse">
<stop stop-color="#0F00FF"/>
<stop offset="1" stop-color="white"/>
</linearGradient>
<linearGradient id="paint4_linear_10223_6201" x1="34.8126" y1="11.5912" x2="21.0639" y2="14.0342" gradientUnits="userSpaceOnUse">
<stop stop-color="#0F00FF"/>
<stop offset="1" stop-color="white"/>
</linearGradient>
<linearGradient id="paint5_linear_10223_6201" x1="44.6162" y1="11.5911" x2="29.1567" y2="14.707" gradientUnits="userSpaceOnUse">
<stop stop-color="#0F00FF"/>
<stop offset="1" stop-color="white"/>
</linearGradient>
<linearGradient id="paint6_linear_10223_6201" x1="55.9628" y1="11.5761" x2="32.8844" y2="17.0189" gradientUnits="userSpaceOnUse">
<stop stop-color="#0F00FF"/>
<stop offset="1" stop-color="white"/>
</linearGradient>
<linearGradient id="paint7_linear_10223_6201" x1="55.9384" y1="24.4741" x2="26.6316" y2="29.6485" gradientUnits="userSpaceOnUse">
<stop stop-color="#0F00FF"/>
<stop offset="1" stop-color="white"/>
</linearGradient>
</defs>
</svg>