<svg width="65" height="64" viewBox="0 0 65 64" fill="none" xmlns="http://www.w3.org/2000/svg">
<path d="M30.0148 24.2881L27.6456 11.6427H15.6493C15.1119 11.6427 14.6202 11.945 14.3775 12.4244L8.651 23.7392C8.51599 24.0058 8.47202 24.3009 8.51252 24.5845L29.467 31.272C29.464 31.1554 29.9839 24.4017 30.0148 24.2881Z" fill="#EBCB76"/>
<path d="M32.8449 24.5847H8.51172C8.54903 24.8457 8.65779 25.0968 8.83601 25.3064L31.4125 51.8571C31.6416 52.1266 31.9463 52.2856 32.2654 52.3381L32.8917 24.8905C32.8626 24.7906 32.8477 24.6878 32.8449 24.5847Z" fill="#2E2A94"/>
<path d="M41.136 24.5847L32.5062 20.6378L24.1914 24.5847C24.1941 24.6878 24.2089 24.7906 24.2382 24.8905L32.2736 52.3381C32.431 52.364 32.5916 52.3636 32.7488 52.3366L42.0034 33.912L41.0848 24.91C41.117 24.8038 41.1337 24.6944 41.136 24.5847Z" fill="#EBCB76"/>
<path d="M41.1298 24.5847L35.4251 20.6376L32.5 24.5845V52.357C32.5812 52.357 32.6623 52.3505 32.7426 52.3367L41.9973 33.9121L41.0786 24.9099C41.1108 24.8038 41.1275 24.6944 41.1298 24.5847Z" fill="#2E2A94"/>
<path d="M24.1919 24.5845H32.5066C32.5092 24.4615 34.2381 21.13 34.2029 21.0108L35.3346 17.6928L32.5066 11.6427H27.6534L24.2323 24.2373C24.2014 24.3509 24.1888 24.4678 24.1919 24.5845Z" fill="white"/>
<path d="M37.3599 11.6427H32.5V24.5845H41.1298C41.1323 24.4615 41.779 24.3485 41.7437 24.2292L45.1397 17.0957L37.3599 11.6427Z" fill="#EBCB76"/>
<path d="M41.1273 24.5846L49.1714 28.3914L56.484 24.5846C56.5243 24.3008 56.4799 24.0055 56.3446 23.7387L50.5998 12.4229C50.3567 11.9443 49.8656 11.6428 49.3288 11.6428H37.3574L41.0788 24.219C41.114 24.3383 41.1298 24.4616 41.1273 24.5846Z" fill="white"/>
<path d="M41.1254 24.5847C41.1232 24.6944 41.1066 24.8038 41.0742 24.9099L32.7383 52.3367C33.0539 52.2826 33.355 52.124 33.5819 51.8571L56.1575 25.3075C56.3359 25.0976 56.4448 24.8461 56.482 24.5848H41.1254V24.5847Z" fill="#EBCB76"/>
</svg>
