<svg width="24" height="24" viewBox="0 0 24 24" fill="none" xmlns="http://www.w3.org/2000/svg">
<circle cx="12" cy="12" r="12" fill="#9DADFE"/>
<path d="M9.95117 5.59497C10.0307 5.45727 10.2291 5.45728 10.3086 5.59497L16.7979 16.8342C16.8771 16.9718 16.7779 17.1437 16.6191 17.1438H3.64062C3.48194 17.1436 3.38281 16.9718 3.46191 16.8342L9.95117 5.59497Z" stroke="white" stroke-width="0.857143"/>
<path d="M13.5596 8.18567C13.5871 8.13794 13.656 8.13794 13.6836 8.18567L18.7939 17.0363C18.8214 17.0839 18.7873 17.1434 18.7324 17.1437H8.51172C8.45668 17.1437 8.42186 17.0839 8.44922 17.0363L13.5596 8.18567Z" fill="#9DADFE" stroke="white" stroke-width="0.857143"/>
<path d="M16.967 11.1815C17.0952 10.9595 17.4155 10.9595 17.5436 11.1815L20.9451 17.0729C21.0732 17.2948 20.913 17.5723 20.6567 17.5723H13.8539C13.5976 17.5723 13.4375 17.2948 13.5656 17.0729L16.967 11.1815Z" fill="#2E2A94"/>
</svg>
