<svg width="24" height="24" viewBox="0 0 24 24" fill="none" xmlns="http://www.w3.org/2000/svg">
<circle cx="12" cy="12" r="12" fill="#9DADFE"/>
<path d="M9.57993 5.37676C9.82439 4.95335 10.4355 4.95335 10.68 5.37676L17.169 16.6161C17.4135 17.0395 17.1079 17.5687 16.619 17.5687H3.64095C3.15203 17.5687 2.84646 17.0395 3.09092 16.6161L9.57993 5.37676Z" fill="#2E2A94"/>
<path d="M13.5596 8.18567C13.5871 8.13794 13.656 8.13794 13.6836 8.18567L18.7939 17.0363C18.8214 17.0839 18.7873 17.1434 18.7324 17.1437H8.51172C8.45668 17.1437 8.42186 17.0839 8.44922 17.0363L13.5596 8.18567Z" stroke="white" stroke-width="0.857143"/>
<path d="M16.9819 11.3379C17.1034 11.1274 17.4073 11.1274 17.5288 11.3379L20.7552 16.9262C20.8768 17.1367 20.7248 17.3999 20.4818 17.3999H17.9994C17.7563 17.3999 17.0994 15.2913 15.8994 13.2128L16.9819 11.3379Z" fill="#9DADFE"/>
<path d="M20.4912 17.1404H14.0195L17.2549 11.5349L20.4912 17.1404Z" stroke="white" stroke-width="0.857143"/>
</svg>
