<svg width="24" height="24" viewBox="0 0 24 24" fill="none" xmlns="http://www.w3.org/2000/svg">
<circle cx="12" cy="12" r="12" fill="#9DADFE"/>
<path d="M9.95117 5.59497C10.0307 5.45727 10.2291 5.45728 10.3086 5.59497L16.7979 16.8342C16.8771 16.9718 16.7779 17.1437 16.6191 17.1438H3.64062C3.48194 17.1436 3.38281 16.9718 3.46191 16.8342L9.95117 5.59497Z" stroke="white" stroke-width="0.857143"/>
<path d="M13.1887 7.97103C13.3812 7.63759 13.8625 7.63759 14.055 7.97103L19.1651 16.8221C19.3576 17.1555 19.117 17.5723 18.732 17.5723H8.51165C8.12663 17.5723 7.88598 17.1555 8.0785 16.8221L13.1887 7.97103Z" fill="#2E2A94"/>
<path d="M20.4912 17.1438H14.0195L17.2549 11.5383L20.4912 17.1438Z" stroke="white" stroke-width="0.857143"/>
</svg>
