<svg width="24" height="24" viewBox="0 0 24 24" fill="none" xmlns="http://www.w3.org/2000/svg">
<circle cx="12" cy="12" r="12" fill="#9DADFE"/>
<path d="M11.3887 20.0787C11.3423 20.0284 11.4089 19.9865 11.3985 19.9387C11.3971 19.7534 11.5119 19.606 11.5636 19.4381C11.5821 19.3781 11.6104 19.3212 11.6313 19.2615C11.736 19.0371 11.8212 18.8046 11.914 18.5756C11.9423 18.5145 11.9626 18.4499 11.9887 18.3881C12.061 18.216 12.1273 18.0418 12.1954 17.8684C12.2987 17.6142 12.4021 17.3605 12.5071 17.107C12.5473 17.0135 12.586 16.9192 12.6192 16.8229C12.7567 16.4878 12.8949 16.1534 13.0304 15.8176C13.1232 15.6559 13.1704 15.6441 13.3002 15.7718C13.4158 15.8853 13.54 15.9876 13.6608 16.094C13.6985 16.1307 13.7359 16.168 13.7938 16.1303C13.8828 16.0801 13.9715 16.0301 14.0668 15.9931C14.2253 15.9376 14.3691 15.8549 14.5031 15.7544C14.6215 15.6919 14.7241 15.6085 14.8225 15.5187C14.9747 15.406 15.1098 15.2744 15.2383 15.1358C15.3175 15.029 15.4146 14.9368 15.4886 14.8258C15.6065 14.6827 15.7029 14.5253 15.7947 14.3651C15.9347 14.1389 16.046 13.8994 16.1315 13.6474C16.1462 13.6065 16.163 13.5667 16.1783 13.5262C16.2457 13.3199 16.2977 13.1101 16.3354 12.8965C16.3721 12.6857 16.4049 12.4745 16.4003 12.2595C16.4443 12.0071 16.3916 11.7568 16.3822 11.5058C16.3392 11.1854 16.2628 10.8733 16.1466 10.5713C16.1012 10.4198 16.0202 10.2847 15.9507 10.1441C15.89 10.0132 15.816 9.89029 15.736 9.77021C15.6495 9.64001 15.61 9.50003 15.6505 9.34434C15.7504 9.16248 15.8785 8.99911 15.9972 8.82981C16.0579 8.74568 16.111 8.65597 16.1766 8.57568C16.304 8.41267 16.4164 8.23778 16.5595 8.08698C16.6541 7.95224 16.7763 7.84263 16.8925 7.72779C17.0789 7.58571 17.2618 7.43701 17.5048 7.40071C17.7848 7.34241 18.042 7.40804 18.286 7.54487C18.7869 7.8367 19.1378 8.27164 19.4408 8.75301C19.52 8.88112 19.5818 9.01796 19.6481 9.1527C19.6705 9.21763 19.6977 9.28046 19.7267 9.3426C19.8823 9.69656 19.9644 10.0711 20.0387 10.4481C20.0534 10.5239 20.0691 10.5993 20.0834 10.675C20.1277 11.0195 20.155 11.3651 20.1836 11.7111C20.208 11.8915 20.1969 12.0724 20.1955 12.2532C20.2161 12.4741 20.1522 12.6906 20.1619 12.9105C20.1427 13.1311 20.1148 13.3507 20.0775 13.5692C20.0234 13.838 19.9727 14.1078 19.9015 14.3727C19.8279 14.5818 19.7623 14.7941 19.6903 15.0042C19.675 15.0444 19.6617 15.0852 19.6471 15.1257C19.5654 15.3104 19.4935 15.4992 19.4076 15.6818C19.2812 15.9317 19.1493 16.1788 18.9894 16.4096C18.9761 16.4302 18.9618 16.4494 18.9472 16.4689C18.7842 16.6951 18.6135 16.9154 18.4274 17.1231C18.3873 17.1615 18.3475 17.2009 18.3094 17.2411C18.0734 17.4732 17.8483 17.7165 17.5903 17.926C17.5736 17.9438 17.5561 17.9605 17.5383 17.9773C17.0786 18.3619 16.6038 18.7267 16.1239 19.0856C16.0628 19.1348 15.9954 19.1756 15.9378 19.2294C15.8725 19.2891 15.9123 19.3432 15.9486 19.3952C16.0335 19.517 16.1033 19.6479 16.1864 19.7705C16.2167 19.8246 16.2652 19.871 16.2631 19.9398C16.268 19.9677 16.2747 19.9942 16.3047 20.0068C16.3127 20.1317 16.2171 20.071 16.172 20.0717C15.7053 20.0783 15.2386 20.0787 14.7719 20.0808C13.6437 20.0801 12.5155 20.0797 11.3873 20.079L11.3887 20.0787Z" fill="#2E2A94"/>
<path d="M12.54 3.9179C12.1218 3.92349 11.7033 3.91651 11.2847 3.91406C10.8194 3.91406 10.3544 3.91406 9.88913 3.91406H7.66309C7.73395 4.02123 7.78108 4.09279 7.8282 4.16435C7.86974 4.32562 8.00867 4.42476 8.08407 4.56439C8.20345 4.74172 8.20136 4.75393 8.02333 4.86913C7.94619 4.91904 7.86485 4.96233 7.78806 5.0126C7.66972 5.09253 7.55453 5.17701 7.43724 5.25799C7.30354 5.34422 7.17962 5.4437 7.05256 5.539C6.87837 5.6692 6.72024 5.8193 6.55304 5.95754C6.27029 6.27065 5.93064 6.52862 5.67407 6.86687C5.54456 7.04141 5.41192 7.2135 5.27752 7.3842C5.19165 7.52802 5.10648 7.67218 5.01258 7.81111C4.96091 7.89419 4.91344 7.97972 4.85933 8.06105C4.73018 8.31692 4.59509 8.57 4.48408 8.83495C4.42264 8.98505 4.36609 9.13689 4.31269 9.28979C4.2886 9.36379 4.26696 9.43849 4.23798 9.51075C4.17759 9.67098 4.14513 9.83923 4.09661 10.0029C4.00026 10.3464 3.95523 10.7004 3.88542 11.0495C3.86517 11.1825 3.8732 11.3183 3.84179 11.4499C3.85191 11.7211 3.78454 11.9888 3.80304 12.2607C3.80164 12.4185 3.79222 12.5767 3.81526 12.7341C3.85575 13.0814 3.87809 13.4308 3.95523 13.7729C3.99922 13.9524 4.05263 14.1286 4.1001 14.307C4.27882 14.8072 4.43312 15.3186 4.76857 15.7459C4.86317 15.836 4.93194 15.9473 5.01677 16.0454C5.13126 16.1892 5.25553 16.324 5.39865 16.4399C5.48382 16.5187 5.58436 16.5784 5.67302 16.6528C5.85105 16.762 6.03676 16.8514 6.23154 16.9174H10.6393C10.67 16.9111 10.7004 16.9041 10.7311 16.8954C10.803 16.8507 10.7828 16.8036 10.7328 16.7593C10.6899 16.7216 10.6365 16.6992 10.5873 16.6706C10.4494 16.5952 10.3178 16.5104 10.189 16.4214C10.0871 16.3589 9.99769 16.2796 9.89855 16.2137C9.70586 16.0796 9.53866 15.9152 9.35714 15.7672C9.29396 15.7078 9.23252 15.6464 9.17283 15.5836C8.99899 15.4241 8.84749 15.2439 8.69285 15.0666C8.62688 14.9895 8.56579 14.9085 8.50994 14.8236C8.38602 14.6648 8.26314 14.5049 8.16191 14.3301C7.90116 13.9342 7.68717 13.516 7.54371 13.0629C7.4341 12.6877 7.3381 12.31 7.3573 11.9134C7.358 11.875 7.3587 11.837 7.35695 11.7986C7.34718 11.4272 7.42677 11.0711 7.54126 10.7206C7.70288 10.2435 7.95631 9.81863 8.27013 9.42767C8.34902 9.32714 8.4506 9.24615 8.52041 9.13759C8.637 8.98784 8.79932 8.88801 8.93267 8.7564C9.02517 8.68519 9.11035 8.60491 9.20809 8.54068C9.40322 8.38813 9.61196 8.25688 9.8256 8.13296C9.87412 8.10434 9.92543 8.0813 9.9764 8.05756C10.085 8.00345 10.1946 7.95109 10.3014 7.8935C10.3935 7.84393 10.4599 7.86103 10.5272 7.94062C10.6281 8.05966 10.7199 8.18602 10.825 8.30156C10.9147 8.40035 10.9747 8.38953 11.0327 8.26945C11.0627 8.20731 11.0882 8.14239 11.1133 8.07781C11.1587 7.93364 11.2163 7.79401 11.2767 7.65578C11.3099 7.56013 11.3486 7.46658 11.3887 7.37373C11.5001 7.11087 11.5902 6.83964 11.7015 6.57679C11.8307 6.25355 11.9459 5.92472 12.0778 5.60253C12.111 5.50549 12.1497 5.41054 12.1906 5.31664C12.296 5.05239 12.4011 4.78814 12.5016 4.52215C12.5463 4.36646 12.6499 4.22962 12.6472 4.05893C12.6911 3.95141 12.6636 3.91616 12.5403 3.9179H12.54Z" fill="#2E2A94"/>
<path d="M12.8115 7.13163C12.1298 7.29953 11.5203 8.19874 11.2141 8.72724C11.2019 8.75272 11.1897 8.77821 11.1775 8.80369C11.1726 8.80718 11.1684 8.81137 11.1642 8.81521C11.0783 8.9681 11.0246 9.07701 11.0099 9.10703C10.9384 9.28401 10.8762 9.46518 10.8008 9.64077C10.6483 10.0446 10.495 10.4485 10.339 10.851C10.2591 11.1009 10.162 11.3446 10.0685 11.5893C10.0102 11.7502 9.95398 11.9122 9.88766 12.07C9.85973 12.159 9.83076 12.2476 9.78852 12.3314C9.71417 12.5245 9.64296 12.7189 9.57 12.9126C9.47819 13.1563 9.40663 13.4073 9.29318 13.6425C9.24431 13.7494 9.23698 13.8708 9.17799 13.9742C9.15635 14.0335 9.1375 14.0939 9.1169 14.1536C9.07082 14.2894 9.05128 14.4248 9.06105 14.5599L11.8592 16.5751C11.906 16.5482 11.9524 16.5144 11.9988 16.4732C12.2052 16.256 12.3008 15.9709 12.4603 15.7251C12.5385 15.6001 12.601 15.4664 12.6705 15.3362C12.7221 15.2245 12.7947 15.1247 12.8495 15.0147C12.9651 14.7896 13.0562 14.5529 13.1696 14.3264C13.2388 14.1365 13.3229 13.9529 13.4007 13.7668C13.4154 13.7274 13.429 13.6876 13.4465 13.6492C13.5529 13.3961 13.6587 13.1423 13.7568 12.8857C13.8657 12.5943 13.9812 12.3052 14.102 12.0183C14.1579 11.8654 14.2176 11.7139 14.2821 11.5645C14.3788 11.3338 14.4525 11.094 14.5562 10.8657C14.6281 10.6827 14.6885 10.4956 14.7667 10.3152C14.7932 10.2523 14.8141 10.1878 14.8389 10.1242C14.9154 9.91583 15.0019 9.71128 15.0815 9.50358C15.1709 9.24806 15.2798 9.00056 15.388 8.75237C15.4149 8.69268 15.4428 8.63369 15.4732 8.57539C15.5688 8.38166 15.6844 8.19979 15.809 8.02351C15.9193 7.91006 15.9999 7.76938 16.1252 7.6692C16.2736 7.55889 16.3986 7.41647 16.5731 7.34212C16.6391 7.29744 16.7319 7.25904 16.7065 7.16165C16.0673 7.18678 12.8118 7.12988 12.8118 7.12988L12.8115 7.13163Z" fill="#2E2A94"/>
</svg>
