<svg width="24" height="24" viewBox="0 0 24 24" fill="none" xmlns="http://www.w3.org/2000/svg">
<path d="M19.07 5.93044C17.1801 4.04071 14.6692 3 11.9997 3C9.33022 3 6.81926 4.04071 4.92937 5.93048C4.70049 6.15937 4.70076 6.53053 4.92937 6.75919L6.70429 8.53422C6.93318 8.76311 7.30442 8.76287 7.53307 8.53418C8.72677 7.34017 10.3131 6.68258 11.9997 6.68258C13.6863 6.68258 15.2726 7.34017 16.4664 8.53414C16.5763 8.64403 16.7253 8.70584 16.8807 8.70584C17.134 8.70584 17.2829 8.54641 17.2951 8.53418L19.07 6.75915C19.2989 6.5303 19.2987 6.1591 19.07 5.93044Z" fill="#FFE600"/>
<path d="M19.0703 5.93044C17.1804 4.04071 14.6695 3 12 3V6.68262C13.6866 6.68262 15.2729 7.34021 16.4667 8.53418C16.5766 8.64407 16.7256 8.70587 16.881 8.70587C17.1343 8.70587 17.2832 8.54645 17.2954 8.53422L19.0703 6.75919C19.2992 6.5303 19.299 6.1591 19.0703 5.93044Z" fill="#FFAA32"/>
<path d="M7.53414 17.4666C7.02996 16.9625 5.69141 15.4716 5.68262 12.9988C5.68293 11.3128 6.34045 9.72704 7.53414 8.53346L4.93052 5.92969C3.04075 7.8193 2 10.3303 2 13.0001C2 15.6698 3.04075 18.1808 4.93052 20.0704C5.04495 20.1848 5.19488 20.242 5.34485 20.242C5.49483 20.242 5.6448 20.1848 5.75922 20.0704L7.53414 18.2953C7.76299 18.0665 7.76299 17.6955 7.53414 17.4666Z" fill="#9BFF00"/>
<path d="M16.4666 17.4666C16.9707 16.9625 18.3093 15.4716 18.3181 12.9988C18.3178 11.3128 17.6603 9.72704 16.4666 8.53346L19.0702 5.92969C20.9599 7.8193 22.0007 10.3303 22.0007 13.0001C22.0007 15.6698 20.9599 18.1808 19.0702 20.0704C18.9558 20.1848 18.8058 20.242 18.6558 20.242C18.5059 20.242 18.3559 20.1848 18.2415 20.0704L16.4666 18.2953C16.2377 18.0665 16.2377 17.6955 16.4666 17.4666Z" fill="#FF1E5A"/>
<path d="M5.68262 12.9988C5.68293 11.3128 6.34045 9.72704 7.53414 8.53346L4.93052 5.92969C3.04075 7.8193 2 10.3303 2 13.0001L5.68262 12.9988Z" fill="#00D200"/>
<path d="M16.4666 17.4669C16.9707 16.9627 18.3093 15.4719 18.3181 12.999L22.0007 13.0003C22.0007 15.67 20.9599 18.181 19.0702 20.0706C18.9558 20.1851 18.8058 20.2423 18.6558 20.2423C18.5059 20.2423 18.3559 20.185 18.2415 20.0706L16.4666 18.2956C16.2377 18.0667 16.2377 17.6957 16.4666 17.4669Z" fill="#C40050"/>
<path d="M10.4245 12.2058C9.99542 13.126 10.3949 14.2237 11.3151 14.6528C12.4776 15.1949 17.6394 16.3447 18.2241 16.474C18.4923 16.5334 18.7657 16.3984 18.8818 16.1495C18.9978 15.9006 18.9255 15.6045 18.7076 15.4372C18.2327 15.0724 14.0339 11.8573 12.8715 11.3152C11.9513 10.8861 10.8536 11.2857 10.4245 12.2058Z" fill="#001428"/>
<line x1="12.2594" y1="13.6492" x2="11.3531" y2="13.2266" stroke="black"/>
<line x1="12.6836" y1="12.743" x2="12.261" y2="13.6494" stroke="black"/>
</svg>
