<svg width="16" height="16" viewBox="0 0 16 16" fill="none" xmlns="http://www.w3.org/2000/svg">
<g clip-path="url(#clip0_10918_2363)">
<mask id="path-1-inside-1_10918_2363" fill="white">
<path d="M0 8C0 3.58172 3.58172 0 8 0C12.4183 0 16 3.58172 16 8C16 12.4183 12.4183 16 8 16C3.58172 16 0 12.4183 0 8Z"/>
</mask>
<path d="M8 16C12.4183 16 16 12.4183 16 8C16 3.58172 12.4183 0 8 0C3.58172 0 0 3.58172 0 8C0 12.4183 3.58172 16 8 16Z" fill="#F0F0F0"/>
<path d="M8.0002 0C4.82832 0 2.0877 1.84687 0.793945 4.52187H15.2064C13.9127 1.84687 11.1721 0 8.0002 0Z" fill="#FF9811"/>
<path d="M8.0002 16C11.1721 16 13.9127 14.1531 15.2064 11.4781H0.793945C2.0877 14.1531 4.82832 16 8.0002 16Z" fill="#6DA544"/>
</g>
<path d="M8 16V15C4.13401 15 1 11.866 1 8H0H-1C-1 12.9706 3.02944 17 8 17V16ZM16 8H15C15 11.866 11.866 15 8 15V16V17C12.9706 17 17 12.9706 17 8H16ZM8 0V1C11.866 1 15 4.13401 15 8H16H17C17 3.02944 12.9706 -1 8 -1V0ZM8 0V-1C3.02944 -1 -1 3.02944 -1 8H0H1C1 4.13401 4.13401 1 8 1V0Z" fill="#9E9E9E" mask="url(#path-1-inside-1_10918_2363)"/>
<defs>
<clipPath id="clip0_10918_2363">
<path d="M0 8C0 3.58172 3.58172 0 8 0C12.4183 0 16 3.58172 16 8C16 12.4183 12.4183 16 8 16C3.58172 16 0 12.4183 0 8Z" fill="white"/>
</clipPath>
</defs>
</svg>