<svg width="13" height="12" viewBox="0 0 13 12" fill="none" xmlns="http://www.w3.org/2000/svg">
<path d="M2 6C2 6.59095 2.1164 7.17611 2.34254 7.72208C2.56869 8.26804 2.90016 8.76412 3.31802 9.18198C3.73588 9.59984 4.23196 9.93131 4.77792 10.1575C5.32389 10.3836 5.90905 10.5 6.5 10.5C7.09095 10.5 7.67611 10.3836 8.22208 10.1575C8.76804 9.93131 9.26412 9.59984 9.68198 9.18198C10.0998 8.76412 10.4313 8.26804 10.6575 7.72208C10.8836 7.17611 11 6.59095 11 6C11 4.80653 10.5259 3.66193 9.68198 2.81802C8.83807 1.97411 7.69347 1.5 6.5 1.5C5.30653 1.5 4.16193 1.97411 3.31802 2.81802C2.47411 3.66193 2 4.80653 2 6Z" stroke="#E0E0E0" stroke-linecap="round" stroke-linejoin="round"/>
<path d="M6.5 4.5H6.505" stroke="#E0E0E0" stroke-linecap="round" stroke-linejoin="round"/>
<path d="M6 6H6.5V8H7" stroke="#E0E0E0" stroke-linecap="round" stroke-linejoin="round"/>
</svg>
