<svg width="152" height="162" viewBox="0 0 152 162" fill="none" xmlns="http://www.w3.org/2000/svg">
<path d="M79.7404 161.528V161.366H76.2447V161.204H73.91V161.041H72.2495V160.879H71.0884V160.717H69.7526V160.555H68.5915V160.392H67.5927V160.23H66.7562V160.068H65.7574V159.905H64.921V159.743H64.097V159.581H63.4228V159.418H62.7611V159.256H62.0994V159.094H61.2629V158.932H60.6012V158.769H60.1018V158.607H59.4276V158.445H58.9282V158.282H58.2665V158.12H57.7672V157.958H57.1055V157.795H56.6061V157.633H56.269V157.471H55.7696V157.308H55.2702V157.146H54.7708V156.984H54.2714V156.822H53.772V156.659H53.2726V156.497H52.7732V156.335H52.4362V156.172H51.9368V156.01H51.6122V155.848H51.1128V155.685H50.7757V155.523H50.2763V155.361H49.9392V155.199H49.4398V155.036H49.1152V154.874H48.7781V154.712H48.441V154.549H48.1164V154.387H47.617V154.225H47.2799V154.062H46.9428V153.9H46.6182V153.738H46.2811V153.576H45.9441V153.413H45.6195V153.251H45.2824V153.089H44.9453V152.926H44.6207V152.764H44.2836V152.602H43.9465V152.439H43.6219V152.277H43.2848V152.115H42.9477V151.953H42.6231V151.79H42.286V151.628H42.1237V151.466H41.7866V151.303H41.4495V151.141H41.1249V150.979H40.9501V150.816H40.6255V150.654H40.2884V150.492H39.9514V150.329H39.7891V150.167H39.452V150.005H39.1274V149.843H38.9526V149.68H38.628V149.518H38.4532V149.356H38.1286V149.193H37.7915V149.031H37.6292V148.869H37.2921V148.706H37.1298V148.544H36.7927V148.382H36.6304V148.22H36.2933V148.057H36.131V147.895H35.7939V147.733H35.6316V147.57H35.2945V147.408H35.1322V147.246H34.7951V147.083H34.6328V146.921H34.458V146.759H34.1334V146.597H33.9586V146.434H33.634V146.272H33.4593V146.11H33.297V145.947H32.9599V145.785H32.7976V145.623H32.6353V145.46H32.2982V145.298H32.1359V145.136H31.9611V144.973H31.6365V144.811H31.4617V144.649H31.2994V144.487H31.1371V144.324H30.8V144.162H30.6377V144H30.4629V143.837H30.3006V143.675H29.9635V143.513H29.8012V143.35H29.6389V143.188H29.4641V143.026H29.3018V142.864H28.9647V142.701H28.8024V142.539H28.6401V142.377H28.4653V142.214H28.303V142.052H28.1407V141.89H27.8036V141.727H27.6413V141.565H27.4666V141.403H27.3043V141.241H27.142V141.078H26.9672V140.916H26.8049V140.754H26.4678V140.591H26.3055V140.429H26.1432V140.267H25.9684V140.104H25.8061V139.942H25.6438V139.78H25.469V139.618H25.3067V139.455H25.1444V139.293H24.9696V139.131H24.8073V138.968H24.645V138.806H24.4702V138.644H24.3079V138.481H24.1456V138.319H23.9708V138.157H23.8085V137.994H23.6462V137.832H23.4714V137.67H23.3091V137.508H23.1468V137.345H22.972V137.183H22.8097V137.021H22.6474V136.858H22.4726V136.696H22.3103V136.534H22.148V136.371H21.9732V136.209H21.8109V136.047H21.6486V135.885H21.4739V135.722H21.3116V135.385H21.1492V135.223H20.9745V135.061H20.8122V134.898H20.6499V134.736H20.4751V134.574H20.3128V134.411H20.1505V134.074H19.9757V133.912H19.8134V133.75H19.6511V133.587H19.4763V133.425H19.314V133.263H19.1517V132.926H18.9769V132.763H18.8146V132.601H18.6523V132.439H18.4775V132.276H18.3152V131.939H18.1529V131.777H17.9781V131.615H17.8158V131.452H17.6535V131.115H17.4787V130.953H17.3164V130.791H17.1541V130.628H16.9793V130.291H16.817V130.129H16.6547V129.967H16.4799V129.63H16.3176V129.467H16.1553V129.305H15.9805V128.968H15.8182V128.806H15.6559V128.643H15.4811V128.306H15.3188V128.144H15.1565V127.807H14.9818V127.645H14.8195V127.308H14.6572V127.145H14.4824V126.983H14.3201V126.646H14.1578V126.484H13.983V126.146H13.8207V125.984H13.6584V125.647H13.4836V125.485H13.3213V125.148H13.159V124.985H12.9842V124.648H12.8219V124.311H12.6596V124.149H12.4848V123.812H12.3225V123.649H12.1602V123.312H11.9854V123.15H11.8231V122.813H11.6608V122.476H11.486V122.314H11.3237V121.976H11.1614V121.639H10.9866V121.302H10.8243V121.14H10.662V120.803H10.4872V120.466H10.3249V120.129H10.1626V119.966H9.98784V119.629H9.82554V119.292H9.66323V118.955H9.48845V118.618H9.32614V118.281H9.16384V117.944H8.98905V117.607H8.82675V117.27H8.66445V116.933H8.48966V116.596H8.32736V116.258H8.16506V115.921H7.99027V115.584H7.82797V115.247H7.66567V114.91H7.49088V114.573H7.32858V114.074H7.16627V113.737H6.99149V113.399H6.82918V113.062H6.66688V112.725H6.49209V112.226H6.32979V111.889H6.16749V111.389H5.9927V111.052H5.8304V110.553H5.6681V110.216H5.49331V109.716H5.33101V109.217H5.16871V108.88H4.99392V108.381H4.83162V107.881H4.66931V107.382H4.49453V106.882H4.33223V106.383H4.16992V105.884H3.99514V105.384H3.83283V105.047H3.67053V104.385H3.49574V103.886H3.33344V103.224H3.17114V102.563H2.99635V102.063H2.83405V101.402H2.67175V100.902H2.49696V100.066H2.33466V99.404H2.17235V98.7423H1.99757V97.9058H1.83527V97.2441H1.67296V96.4076H1.49818V95.4088H1.33587V94.4101H1.17357V93.5736H0.998784V92.4125H0.836482V91.0766H0.674179V89.7407H0.499392V88.0803H0.33709V85.9204H0.174787V82.0876H0V79.2535H0.174787V75.5955H0.33709V73.4356H0.499392V71.6003H0.674179V70.2645H0.836482V69.1034H0.998784V67.9423H1.17357V66.9435H1.33587V65.9447H1.49818V65.1082H1.67296V64.1094H1.83527V63.4478H1.99757V62.7861H2.17235V61.9496H2.33466V61.2879H2.49696V60.6262H2.67175V59.9645H2.83405V59.4651H2.99635V58.8034H3.17114V58.304H3.33344V57.6423H3.49574V56.9806H3.67053V56.4812H3.83283V55.9818H3.99514V55.4824H4.16992V54.9831H4.33223V54.4837H4.49453V53.9843H4.66931V53.4849H4.83162V52.9855H4.99392V52.6484H5.16871V52.149H5.33101V51.8119H5.49331V51.3125H5.6681V50.8131H5.8304V50.476H5.9927V49.9767H6.16749V49.6396H6.32979V49.1402H6.49209V48.8031H6.66688V48.466H6.82918V48.1289H6.99149V47.6295H7.16627V47.2924H7.32858V46.9553H7.49088V46.6182H7.66567V46.2812H7.82797V45.7818H7.99027V45.4447H8.16506V45.1076H8.32736V44.7705H8.48966V44.4334H8.66445V44.0963H8.82675V43.7592H8.98905V43.4221H9.16384V43.085H9.32614V42.748H9.48845V42.5857H9.66323V42.2486H9.82554V41.9115H9.98784V41.5744H10.1626V41.2373H10.3249V40.9002H10.4872V40.7379H10.662V40.4008H10.8243V40.0637H10.9866V39.7266H11.1614V39.5643H11.3237V39.2272H11.486V38.8901H11.6608V38.7279H11.8231V38.3908H11.9854V38.0537H12.1602V37.8914H12.3225V37.5543H12.4848V37.392H12.6596V37.0549H12.8219V36.7178H12.9842V36.5555H13.159V36.2184H13.3213V36.0561H13.4836V35.719H13.6584V35.5567H13.8207V35.2196H13.983V35.0573H14.1578V34.7202H14.3201V34.5579H14.4824V34.2208H14.6572V34.0585H14.8195V33.8962H14.9818V33.5591H15.1565V33.3968H15.3188V33.0597H15.4811V32.8974H15.6559V32.7351H15.8182V32.3981H15.9805V32.2358H16.1553V31.8987H16.3176V31.7364H16.4799V31.5741H16.6547V31.4118H16.817V31.0747H16.9793V30.9124H17.1541V30.7501H17.3164V30.413H17.4787V30.2507H17.6535V30.0884H17.8158V29.9261H17.9781V29.589H18.1529V29.4267H18.3152V29.2644H18.4775V29.1021H18.6523V28.765H18.8146V28.6027H18.9769V28.4404H19.1517V28.2781H19.314V28.1158H19.4763V27.9535H19.6511V27.6164H19.8134V27.4541H19.9757V27.2918H20.1505V27.1295H20.3128V26.9672H20.4751V26.8049H20.6499V26.4678H20.8122V26.3055H20.9745V26.1432H21.1492V25.9809H21.3116V25.8186H21.4739V25.6563H21.6486V25.494H21.8109V25.3317H21.9732V25.1694H22.148V25.0071H22.3103V24.8448H22.4726V24.6824H22.6474V24.5201H22.8097V24.3578H22.972V24.0208H23.1468V23.8585H23.3091V23.6961H23.4714V23.5338H23.6462V23.3715H23.8085V23.2092H23.9708V23.0469H24.1456V22.8846H24.3079V22.7223H24.4702V22.56H24.645V22.3977H24.9696V22.2354H25.1444V22.0731H25.3067V21.9108H25.469V21.7485H25.6438V21.5862H25.8061V21.4239H25.9684V21.2616H26.1432V21.0993H26.3055V20.937H26.4678V20.7747H26.6426V20.6124H26.8049V20.4501H26.9672V20.2878H27.142V20.1255H27.4666V19.9632H27.6413V19.8009H27.8036V19.6386H27.9659V19.4763H28.1407V19.314H28.303V19.1517H28.4653V18.9894H28.8024V18.8271H28.9647V18.6648H29.1395V18.5025H29.3018V18.3402H29.4641V18.1779H29.6389V18.0156H29.9635V17.8533H30.1383V17.691H30.3006V17.5287H30.6377V17.3664H30.8V17.2041H30.9623V17.0417H31.1371V16.8794H31.4617V16.7171H31.6365V16.5548H31.7988V16.3925H31.9611V16.2302H32.2982V16.0679H32.4605V15.9056H32.6353V15.7433H32.9599V15.581H33.1347V15.4187H33.297V15.2564H33.634V15.0941H33.7963V14.9318H34.1334V14.7695H34.2957V14.6072H34.458V14.4449H34.7951V14.2826H34.9574V14.1203H35.2945V13.958H35.4568V13.7957H35.6316V13.6334H35.9562V13.4711H36.131V13.3088H36.4556V13.1465H36.6304V12.9842H36.955V12.8219H37.2921V12.6596H37.4544V12.4973H37.7915V12.335H37.9538V12.1727H38.2909V12.0104H38.4532V11.8481H38.7903V11.6858H39.1274V11.5235H39.2897V11.3612H39.6268V11.1989H39.9514V11.0366H40.1261V10.8743H40.4507V10.712H40.7878V10.5497H41.1249V10.3874H41.2872V10.2251H41.6243V10.0627H41.9489V9.90045H42.1237V9.73814H42.4483V9.57584H42.7854V9.41354H43.1225V9.25124H43.4471V9.08893H43.7842V8.92663H44.1213V8.76433H44.4459V8.60203H44.783V8.43972H45.1201V8.27742H45.4447V8.11512H45.7817V7.95282H46.1188V7.79052H46.4434V7.62821H46.7805V7.46591H47.1176V7.30361H47.4422V7.14131H47.9416V6.979H48.2787V6.8167H48.6158V6.6544H48.9404V6.4921H49.2775V6.32979H49.7769V6.16749H50.114V6.00519H50.6134V5.84289H50.938V5.68058H51.4374V5.51828H51.7745V5.35598H52.2738V5.19368H52.6109V5.03137H53.1103V4.86907H53.4349V4.70677H53.9343V4.54447H54.4337V4.38216H54.9331V4.21986H55.4325V4.05756H55.9319V3.89526H56.4313V3.73296H56.9307V3.57065H57.4301V3.40835H58.1042V3.24605H58.6036V3.08375H59.2653V2.92144H59.7647V2.75914H60.4264V2.59684H60.9258V2.43454H61.6V2.27223H62.424V2.10993H63.0982V1.94763H63.7599V1.78533H64.5964V1.62302H65.258V1.46072H66.2568V1.29842H67.2556V1.13612H68.0921V0.973814H69.0909V0.811512H70.4143V0.64921H71.7501V0.486907H72.9112V0.324605H75.0836V0.162302H77.4057V0H85.0714V0.162302H87.7307V0.324605H89.3912V0.486907H91.0641V0.64921H92.5623V0.811512H93.5611V0.973814H94.5599V1.13612H95.5586V1.29842H96.5574V1.46072H97.3814V1.62302H98.2179V1.78533H98.8796V1.94763H99.5538V2.10993H100.215V2.27223H101.052V2.43454H101.714V2.59684H102.375V2.75914H103.05V2.92144H103.549V3.08375H104.048V3.24605H104.71V3.40835H105.209V3.57065H105.709V3.73296H106.208V3.89526H106.87V4.05756H107.369V4.21986H107.869V4.38216H108.206V4.54447H108.705V4.70677H109.205V4.86907H109.542V5.03137H110.041V5.19368H110.54V5.35598H110.865V5.51828H111.364V5.68058H111.864V5.84289H112.201V6.00519H112.7V6.16749H113.037V6.32979H113.362V6.4921H113.699V6.6544H114.198V6.8167H114.536V6.979H114.86V7.14131H115.197V7.30361H115.697V7.46591H116.034V7.62821H116.358V7.79052H116.695V7.95282H117.033V8.11512H117.357V8.27742H117.694V8.43972H118.031V8.60203H118.356V8.76433H118.693V8.92663H119.03V9.08893H119.355V9.25124H119.692V9.41354H119.854V9.57584H120.191V9.73814H120.528V9.90045H120.853V10.0627H121.19V10.2251H121.527V10.3874H121.852V10.5497H122.026V10.712H122.351V10.8743H122.688V11.0366H122.85V11.1989H123.188V11.3612H123.525V11.5235H123.687V11.6858H124.024V11.8481H124.186V12.0104H124.523V12.1727H124.848V12.335H125.023V12.4973H125.347V12.6596H125.684V12.8219H125.847V12.9842H126.184V13.1465H126.346V13.3088H126.683V13.4711H126.846V13.6334H127.183V13.7957H127.345V13.958H127.52V14.1203H127.844V14.2826H128.019V14.4449H128.344V14.6072H128.519V14.7695H128.843V14.9318H129.018V15.0941H129.18V15.2564H129.517V15.4187H129.68V15.581H130.017V15.7433H130.179V15.9056H130.341V16.0679H130.678V16.2302H130.841V16.3925H131.015V16.5548H131.34V16.7171H131.515V16.8794H131.677V17.0417H131.839V17.2041H132.014V17.3664H132.339V17.5287H132.514V17.691H132.676V17.8533H132.838V18.0156H133.175V18.1779H133.338V18.3402H133.512V18.5025H133.675V18.6648H134.012V18.8271H134.174V18.9894H134.336V19.1517H134.511V19.314H134.836V19.4763H135.011V19.6386H135.173V19.8009H135.335V19.9632H135.51V20.1255H135.672V20.2878H135.835V20.4501H136.009V20.6124H136.172V20.7747H136.334V20.937H136.509V21.0993H136.833V21.2616H137.008V21.4239H137.17V21.5862H137.333V21.7485H137.508V21.9108H137.67V22.0731H137.832V22.2354H138.007V22.3977H138.169V22.56H138.332V22.7223H138.506V22.8846H138.669V23.0469H138.831V23.2092H139.006V23.3715H139.168V23.5338H139.33V23.6961H139.505V23.8585H139.667V24.0208H139.83V24.1831H140.005V24.3454H140.167V24.5077H140.329V24.67H140.504V24.8323H140.666V24.9946H140.829V25.1569H141.003V25.3192H141.166V25.4815H141.328V25.6438H141.503V25.8061H141.665V25.9684H141.827V26.3055H142.002V26.4678H142.164V26.6301H142.327V26.7924H142.501V26.9547H142.664V27.117H142.826V27.2793H143.001V27.6164H143.163V27.7787H143.325V27.941H143.5V28.1033H143.663V28.2656H143.825V28.6027H144V28.765H144.162V28.9273H144.324V29.0896H144.499V29.2519H144.661V29.589H144.824V29.7513H144.998V29.9136H145.161V30.0759H145.323V30.2382H145.498V30.5753H145.66V30.7376H145.822V30.8999H145.997V31.237H146.16V31.3993H146.322V31.5616H146.497V31.8987H146.659V32.061H146.821V32.2233H146.996V32.5604H147.158V32.7227H147.321V33.0597H147.495V33.222H147.658V33.3844H147.82V33.7214H147.995V33.8837H148.157V34.046H148.319V34.3831H148.494V34.5454H148.656V34.7077H148.819V35.0448H148.994V35.3819H149.156V35.5442H149.318V35.8813H149.493V36.0436H149.655V36.3807H149.818V36.543H149.992V36.8801H150.155V37.0424H150.317V37.3795H150.492V37.5418H150.654V37.8789H150.816V38.0412H150.991V38.3783H151.153V38.7154H151.316V38.8777H151.491V39.2148H151.653V39.5518H151.815V40.2135H151.99V41.7117H151.815V42.2111H151.653V42.5482H151.491V42.8853H151.316V43.0476H151.153V43.2099H150.991V43.3722H150.816V43.7093H150.492V43.8716H150.317V44.0339H149.818V44.1962H149.156V44.3585H148.656V44.1962H147.495V44.0339H147.158V43.8716H146.821V43.7093H146.497V43.547H146.322V43.3847H146.16V43.2224H145.997V43.0601H145.822V42.8978H145.66V42.5607H145.498V42.2236H145.323V42.0613H145.161V41.7242H144.998V41.3871H144.824V41.2248H144.661V40.8877H144.499V40.7254H144.324V40.3883H144.162V40.226H144V39.8889H143.825V39.7266H143.663V39.3895H143.5V39.2272H143.325V38.8901H143.163V38.7279H143.001V38.3908H142.826V38.2285H142.664V37.8914H142.501V37.7291H142.327V37.5668H142.164V37.2297H142.002V37.0674H141.827V36.9051H141.665V36.568H141.503V36.4057H141.328V36.2434H141.166V35.9063H141.003V35.744H140.829V35.4069H140.666V35.2446H140.504V35.0823H140.329V34.7452H140.167V34.5829H140.005V34.4206H139.83V34.2583H139.667V34.096H139.505V33.7589H139.33V33.5966H139.168V33.4343H139.006V33.272H138.831V33.1097H138.669V32.7726H138.506V32.6103H138.332V32.448H138.169V32.2857H138.007V32.1234H137.832V31.7863H137.67V31.624H137.508V31.4617H137.333V31.2994H137.17V31.1371H137.008V30.9748H136.833V30.8125H136.671V30.6502H136.509V30.3131H136.334V30.1508H136.172V29.9885H136.009V29.8262H135.835V29.6639H135.672V29.5016H135.51V29.3393H135.335V29.177H135.173V29.0147H135.011V28.8524H134.836V28.6901H134.674V28.5278H134.511V28.3655H134.336V28.2032H134.174V28.0409H134.012V27.8786H133.837V27.7163H133.675V27.554H133.512V27.3916H133.338V27.2293H133.175V27.067H133.013V26.9047H132.838V26.7424H132.676V26.5801H132.514V26.4178H132.339V26.2555H132.014V26.0932H131.839V25.9309H131.677V25.7686H131.515V25.6063H131.34V25.444H131.178V25.2817H131.015V25.1194H130.841V24.9571H130.678V24.7948H130.516V24.6325H130.341V24.4702H130.017V24.3079H129.842V24.1456H129.68V23.9833H129.517V23.821H129.18V23.6587H129.018V23.4964H128.843V23.3341H128.681V23.1718H128.344V23.0095H128.181V22.8472H128.019V22.6849H127.844V22.5226H127.52V22.3603H127.345V22.198H127.183V22.0357H127.02V21.8734H126.846V21.7111H126.521V21.5488H126.346V21.3865H126.184V21.2242H125.847V21.0619H125.684V20.8996H125.347V20.7373H125.185V20.5749H125.023V20.4126H124.686V20.2503H124.523V20.088H124.186V19.9257H124.024V19.7634H123.687V19.6011H123.525V19.4388H123.35V19.2765H123.025V19.1142H122.85V18.9519H122.526V18.7896H122.351V18.6273H122.026V18.465H121.852V18.3027H121.527V18.1404H121.19V17.9781H121.028V17.8158H120.691V17.6535H120.353V17.4912H120.191V17.3289H119.854V17.1666H119.692V17.0043H119.355V16.842H119.03V16.6797H118.855V16.5174H118.531V16.3551H118.194V16.1928H117.856V16.0305H117.532V15.8682H117.357V15.7059H117.033V15.5436H116.695V15.3813H116.358V15.219H116.034V15.0567H115.697V14.8944H115.36V14.7321H115.035V14.5698H114.698V14.4075H114.536V14.2452H114.198V14.0829H113.861V13.9206H113.362V13.7583H113.037V13.5959H112.7V13.4336H112.363V13.2713H111.864V13.109H111.539V12.9467H111.202V12.7844H110.865V12.6221H110.54V12.4598H110.041V12.2975H109.704V12.1352H109.205V11.9729H108.867V11.8106H108.368V11.6483H107.869V11.486H107.544V11.3237H107.045V11.1614H106.545V10.9991H106.208V10.8368H105.709V10.6745H105.209V10.5122H104.71V10.3499H104.211V10.1876H103.711V10.0253H103.05V9.86299H102.55V9.70069H102.051V9.53839H101.551V9.37608H100.877V9.21378H100.215V9.05148H99.5538V8.88918H98.8796V8.72688H98.2179V8.56457H97.3814V8.40227H96.7197V8.23997H96.058V8.07766H95.0592V7.91536H94.0605V7.75306H93.0617V7.59076H92.0629V7.42846H91.0641V7.26615H89.3912V7.10385H87.7307V6.94155H85.8954V6.77925H77.0811V6.94155H74.9088V7.10385H73.2483V7.26615H71.9124V7.42846H70.5891V7.59076H69.5903V7.75306H68.5915V7.91536H67.755V8.07766H66.7562V8.23997H65.9197V8.40227H65.258V8.56457H64.5964V8.72688H63.7599V8.88918H63.0982V9.05148H62.424V9.21378H61.9246V9.37608H61.2629V9.53839H60.7635V9.70069H60.1018V9.86299H59.6024V10.0253H59.103V10.1876H58.6036V10.3499H58.1042V10.5122H57.6049V10.6745H57.1055V10.8368H56.6061V10.9991H56.1067V11.1614H55.6073V11.3237H55.2702V11.486H54.7708V11.6483H54.4337V11.8106H53.9343V11.9729H53.4349V12.1352H53.1103V12.2975H52.6109V12.4598H52.2738V12.6221H51.9368V12.7844H51.6122V12.9467H51.1128V13.109H50.7757V13.2713H50.4386V13.4336H50.114V13.5959H49.7769V13.7583H49.2775V13.9206H48.9404V14.0829H48.6158V14.2452H48.2787V14.4075H47.9416V14.5698H47.7793V14.7321H47.4422V14.8944H47.1176V15.0567H46.7805V15.219H46.4434V15.3813H46.1188V15.5436H45.7817V15.7059H45.4447V15.8682H45.2824V16.0305H44.9453V16.1928H44.6207V16.3551H44.2836V16.5174H44.1213V16.6797H43.7842V16.842H43.4471V17.0043H43.1225V17.1666H42.9477V17.3289H42.6231V17.4912H42.286V17.6535H42.1237V17.8158H41.7866V17.9781H41.6243V18.1404H41.2872V18.3027H41.1249V18.465H40.7878V18.6273H40.6255V18.7896H40.2884V18.9519H39.9514V19.1142H39.7891V19.2765H39.6268V19.4388H39.2897V19.6011H39.1274V19.7634H38.7903V19.9257H38.628V20.088H38.2909V20.2503H38.1286V20.4126H37.9538V20.5749H37.6292V20.7373H37.4544V20.8996H37.1298V21.0619H36.955V21.2242H36.7927V21.3865H36.4556V21.5488H36.2933V21.7111H36.131V21.8734H35.9562V22.0357H35.6316V22.198H35.4568V22.3603H35.2945V22.5226H35.1322V22.6849H34.7951V22.8472H34.6328V23.0095H34.458V23.1718H34.1334V23.3341H33.9586V23.4964H33.7963V23.6587H33.634V23.821H33.4593V23.9833H33.297V24.1456H32.9599V24.3079H32.7976V24.4702H32.6353V24.6325H32.4605V24.7948H32.2982V24.9571H32.1359V25.1194H31.9611V25.2817H31.6365V25.444H31.4617V25.6063H31.2994V25.7686H31.1371V25.9309H30.9623V26.0932H30.8V26.2555H30.6377V26.4178H30.4629V26.5801H30.3006V26.7424H30.1383V26.9047H29.9635V27.067H29.8012V27.2293H29.6389V27.3916H29.4641V27.554H29.3018V27.7163H28.9647V27.8786H28.8024V28.0409H28.6401V28.2032H28.4653V28.3655H28.303V28.7026H28.1407V28.8649H27.9659V29.0272H27.8036V29.1895H27.6413V29.3518H27.4666V29.5141H27.3043V29.6764H27.142V29.8387H26.9672V30.001H26.8049V30.1633H26.6426V30.3256H26.4678V30.4879H26.3055V30.6502H26.1432V30.8125H25.9684V30.9748H25.8061V31.3119H25.6438V31.4742H25.469V31.6365H25.3067V31.7988H25.1444V31.9611H24.9696V32.1234H24.8073V32.4605H24.645V32.6228H24.4702V32.7851H24.3079V32.9474H24.1456V33.1097H23.9708V33.272H23.8085V33.6091H23.6462V33.7714H23.4714V33.9337H23.3091V34.096H23.1468V34.4331H22.972V34.5954H22.8097V34.7577H22.6474V35.0948H22.4726V35.2571H22.3103V35.4194H22.148V35.5817H21.9732V35.9188H21.8109V36.0811H21.6486V36.2434H21.4739V36.5805H21.3116V36.7428H21.1492V36.9051H20.9745V37.2422H20.8122V37.4045H20.6499V37.7416H20.4751V37.9039H20.3128V38.0662H20.1505V38.4032H19.9757V38.5655H19.8134V38.9026H19.6511V39.0649H19.4763V39.402H19.314V39.5643H19.1517V39.9014H18.9769V40.0637H18.8146V40.4008H18.6523V40.7379H18.4775V40.9002H18.3152V41.2373H18.1529V41.3996H17.9781V41.7367H17.8158V41.899H17.6535V42.2361H17.4787V42.5732H17.3164V42.7355H17.1541V43.0726H16.9793V43.4096H16.817V43.7467H16.6547V43.909H16.4799V44.2461H16.3176V44.5832H16.1553V44.9203H15.9805V45.0826H15.8182V45.4197H15.6559V45.7568H15.4811V46.0939H15.3188V46.431H15.1565V46.7681H14.9818V47.1051H14.8195V47.4422H14.6572V47.7793H14.4824V48.1164H14.3201V48.4535H14.1578V48.7906H13.983V49.1277H13.8207V49.4648H13.6584V49.9642H13.4836V50.3013H13.3213V50.6384H13.159V50.9754H12.9842V51.3125H12.8219V51.8119H12.6596V52.149H12.4848V52.6484H12.3225V52.9855H12.1602V53.4849H11.9854V53.822H11.8231V54.3214H11.6608V54.6585H11.486V55.1578H11.3237V55.6572H11.1614V56.1566H10.9866V56.656H10.8243V57.1554H10.662V57.6548H10.4872V58.1542H10.3249V58.6536H10.1626V59.153H9.98784V59.6524H9.82554V60.3141H9.66323V60.9758H9.48845V61.4752H9.32614V62.1368H9.16384V62.7985H8.98905V63.4602H8.82675V64.1219H8.66445V64.9584H8.48966V65.6201H8.32736V66.4566H8.16506V67.4554H7.99027V68.2919H7.82797V69.2906H7.66567V70.4517H7.49088V71.7876H7.32858V73.1235H7.16627V75.2833H6.99149V78.1174H6.82918V83.4484H6.99149V86.1077H7.16627V88.2675H7.32858V89.6034H7.49088V90.9393H7.66567V92.1004H7.82797V93.0992H7.99027V94.0979H8.16506V94.9344H8.32736V95.9332H8.48966V96.5949H8.66445V97.2566H8.82675V97.9183H8.98905V98.7548H9.16384V99.4165H9.32614V99.9159H9.48845V100.578H9.66323V101.239H9.82554V101.739H9.98784V102.4H10.1626V102.9H10.3249V103.399H10.4872V103.899H10.662V104.398H10.8243V104.897H10.9866V105.397H11.1614V105.896H11.3237V106.395H11.486V106.733H11.6608V107.232H11.8231V107.569H11.9854V108.068H12.1602V108.406H12.3225V108.905H12.4848V109.242H12.6596V109.741H12.8219V110.078H12.9842V110.416H13.159V110.753H13.3213V111.252H13.4836V111.589H13.6584V111.926H13.8207V112.263H13.983V112.6H14.1578V113.1H14.3201V113.437H14.4824V113.774H14.6572V114.111H14.8195V114.273H14.9818V114.61H15.1565V114.948H15.3188V115.285H15.4811V115.622H15.6559V115.959H15.8182V116.296H15.9805V116.633H16.1553V116.97H16.3176V117.132H16.4799V117.469H16.6547V117.807H16.817V118.144H16.9793V118.306H17.1541V118.643H17.3164V118.98H17.4787V119.317H17.6535V119.48H17.8158V119.817H17.9781V119.979H18.1529V120.316H18.3152V120.478H18.4775V120.815H18.6523V121.152H18.8146V121.315H18.9769V121.652H19.1517V121.814H19.314V122.151H19.4763V122.314H19.6511V122.651H19.8134V122.813H19.9757V123.15H20.1505V123.312H20.3128V123.475H20.4751V123.812H20.6499V123.974H20.8122V124.311H20.9745V124.473H21.1492V124.636H21.3116V124.973H21.4739V125.135H21.6486V125.472H21.8109V125.635H21.9732V125.797H22.148V125.959H22.3103V126.296H22.4726V126.459H22.6474V126.621H22.8097V126.958H22.972V127.12H23.1468V127.283H23.3091V127.445H23.4714V127.782H23.6462V127.944H23.8085V128.107H23.9708V128.269H24.1456V128.606H24.3079V128.768H24.4702V128.931H24.645V129.093H24.8073V129.255H24.9696V129.417H25.1444V129.58H25.3067V129.917H25.469V130.079H25.6438V130.241H25.8061V130.404H25.9684V130.566H26.1432V130.728H26.3055V130.891H26.4678V131.053H26.6426V131.39H26.8049V131.552H26.9672V131.715H27.142V131.877H27.3043V132.039H27.4666V132.202H27.6413V132.364H27.8036V132.526H27.9659V132.688H28.1407V132.851H28.303V133.013H28.4653V133.175H28.6401V133.338H28.8024V133.5H28.9647V133.662H29.1395V133.825H29.3018V133.987H29.4641V134.149H29.6389V134.311H29.8012V134.474H29.9635V134.636H30.1383V134.798H30.3006V134.961H30.4629V135.123H30.6377V135.285H30.8V135.448H31.1371V135.61H31.2994V135.772H31.4617V135.935H31.6365V136.097H31.7988V136.259H31.9611V136.421H32.1359V136.584H32.2982V136.746H32.6353V136.908H32.7976V137.071H32.9599V137.233H33.1347V137.395H33.297V137.558H33.4593V137.72H33.634V137.882H33.9586V138.044H34.1334V138.207H34.2957V138.369H34.458V138.531H34.7951V138.694H34.9574V138.856H35.1322V139.018H35.2945V139.181H35.6316V139.343H35.7939V139.505H35.9562V139.667H36.2933V139.83H36.4556V139.992H36.6304V140.154H36.7927V140.317H37.1298V140.479H37.2921V140.641H37.6292V140.804H37.7915V140.966H37.9538V141.128H38.2909V141.29H38.4532V141.453H38.7903V141.615H38.9526V141.777H39.1274V141.94H39.452V142.102H39.6268V142.264H39.9514V142.427H40.1261V142.589H40.4507V142.751H40.6255V142.913H40.9501V143.076H41.1249V143.238H41.4495V143.4H41.7866V143.563H41.9489V143.725H42.286V143.887H42.4483V144.05H42.7854V144.212H42.9477V144.374H43.2848V144.537H43.6219V144.699H43.9465V144.861H44.1213V145.023H44.4459V145.186H44.783V145.348H45.1201V145.51H45.2824V145.673H45.6195V145.835H45.9441V145.997H46.2811V146.16H46.6182V146.322H46.9428V146.484H47.2799V146.646H47.617V146.809H47.9416V146.971H48.1164V147.133H48.441V147.296H48.7781V147.458H49.1152V147.62H49.4398V147.783H49.9392V147.945H50.2763V148.107H50.6134V148.269H50.938V148.432H51.4374V148.594H51.7745V148.756H52.1115V148.919H52.4362V149.081H52.9355V149.243H53.2726V149.406H53.772V149.568H54.1091V149.73H54.6085V149.893H54.9331V150.055H55.4325V150.217H55.7696V150.379H56.269V150.542H56.7684V150.704H57.2678V150.866H57.7672V151.029H58.2665V151.191H58.7659V151.353H59.2653V151.516H59.7647V151.678H60.4264V151.84H60.9258V152.002H61.6V152.165H62.0994V152.327H62.7611V152.489H63.4228V152.652H64.097V152.814H64.921V152.976H65.5951V153.139H66.2568V153.301H67.2556V153.463H68.0921V153.625H69.0909V153.788H69.9149V153.95H71.2507V154.112H72.5866V154.275H73.91V154.437H75.9076V154.599H78.7416V154.762H84.0726V154.599H86.8942V154.437H88.5672V154.275H90.2276V154.112H91.5635V153.95H92.5623V153.788H93.5611V153.625H94.5599V153.463H95.5586V153.301H96.3826V153.139H97.0568V152.976H97.8808V152.814H98.555V152.652H99.2167V152.489H99.8784V152.327H100.715V152.165H101.214V152.002H101.714V151.84H102.213V151.678H102.875V151.516H103.374V151.353H103.874V151.191H104.548V151.029H105.047V150.866H105.546V150.704H105.871V150.542H106.37V150.379H106.87V150.217H107.207V150.055H107.706V149.893H108.206V149.73H108.543V149.568H109.042V149.406H109.542V149.243H109.866V149.081H110.203V148.919H110.703V148.756H111.04V148.594H111.364V148.432H111.701V148.269H112.201V148.107H112.538V147.945H112.863V147.783H113.2V147.62H113.537V147.458H114.036V147.296H114.361V147.133H114.698V146.971H114.86V146.809H115.197V146.646H115.534V146.484H115.859V146.322H116.196V146.16H116.533V145.997H116.858V145.835H117.195V145.673H117.532V145.51H117.694V145.348H118.031V145.186H118.356V145.023H118.693V144.861H118.855V144.699H119.192V144.537H119.529V144.374H119.692V144.212H120.029V144.05H120.353V143.887H120.528V143.725H120.853V143.563H121.028V143.4H121.352V143.238H121.689V143.076H121.852V142.913H122.189V142.751H122.526V142.589H122.688V142.427H122.85V142.264H123.188V142.102H123.35V141.94H123.687V141.777H123.849V141.615H124.186V141.453H124.349V141.29H124.523V141.128H124.848V140.966H125.023V140.804H125.347V140.641H125.522V140.479H125.847V140.317H126.022V140.154H126.184V139.992H126.521V139.83H126.683V139.667H126.846V139.505H127.02V139.343H127.345V139.181H127.52V139.018H127.682V138.856H127.844V138.694H128.181V138.531H128.344V138.369H128.519V138.207H128.681V138.044H129.018V137.882H129.18V137.72H129.343V137.558H129.517V137.395H129.842V137.233H130.017V137.071H130.179V136.908H130.341V136.746H130.516V136.584H130.678V136.421H130.841V136.259H131.015V136.097H131.34V135.935H131.515V135.772H131.677V135.61H131.839V135.448H132.014V135.285H132.177V135.123H132.339V134.961H132.514V134.798H132.676V134.636H132.838V134.474H133.013V134.311H133.338V134.149H133.512V133.987H133.675V133.825H133.837V133.662H134.012V133.5H134.174V133.338H134.336V133.175H134.511V133.013H134.674V132.676H134.836V132.514H135.011V132.351H135.173V132.189H135.335V132.027H135.51V131.864H135.672V131.702H135.835V131.54H136.009V131.378H136.172V131.215H136.334V131.053H136.509V130.891H136.671V130.728H136.833V130.566H137.008V130.404H137.17V130.241H137.333V129.904H137.508V129.742H137.67V129.58H137.832V129.417H138.007V129.255H138.169V128.918H138.332V128.756H138.506V128.593H138.669V128.431H138.831V128.269H139.006V128.107H139.168V127.769H139.33V127.607H139.505V127.445H139.667V127.283H139.83V127.12H140.005V126.783H140.167V126.621H140.329V126.459H140.504V126.121H140.666V125.959H140.829V125.797H141.003V125.46H141.166V125.297H141.328V125.135H141.503V124.798H141.665V124.636H141.827V124.473H142.002V124.136H142.164V123.974H142.327V123.637H142.501V123.475H142.664V123.312H142.826V122.975H143.001V122.813H143.163V122.476H143.325V122.314H143.5V121.976H143.663V121.814H143.825V121.477H144V121.315H144.162V120.978H144.324V120.815H144.499V120.478H144.661V120.316H144.824V119.979H144.998V119.817H145.161V119.48H145.323V119.142H145.498V118.98H145.66V118.643H145.822V118.306H145.997V118.144H146.16V117.981H146.322V117.819H146.659V117.657H146.996V117.494H147.321V117.332H147.658V117.17H149.493V117.332H150.155V117.494H150.317V117.657H150.654V117.819H150.816V117.981H150.991V118.144H151.153V118.306H151.316V118.468H151.491V118.968H151.653V119.305H151.815V119.804H151.99V121.302H151.815V121.802H151.653V122.139H151.491V122.476H151.316V122.813H151.153V122.975H150.991V123.312H150.816V123.649H150.654V123.812H150.492V124.149H150.317V124.311H150.155V124.648H149.992V124.811H149.818V125.148H149.655V125.31H149.493V125.647H149.318V125.809H149.156V126.146H148.994V126.484H148.819V126.646H148.656V126.808H148.494V127.145H148.319V127.308H148.157V127.645H147.995V127.807H147.82V127.969H147.658V128.306H147.495V128.469H147.321V128.631H147.158V128.968H146.996V129.13H146.821V129.293H146.659V129.63H146.497V129.792H146.322V130.129H146.16V130.291H145.997V130.454H145.822V130.791H145.66V130.953H145.498V131.115H145.323V131.278H145.161V131.615H144.998V131.777H144.824V131.939H144.661V132.102H144.499V132.264H144.324V132.601H144.162V132.763H144V132.926H143.825V133.088H143.663V133.25H143.5V133.413H143.325V133.75H143.163V133.912H143.001V134.074H142.826V134.237H142.664V134.399H142.501V134.736H142.327V134.898H142.164V135.061H142.002V135.223H141.827V135.385H141.665V135.547H141.503V135.71H141.328V135.872H141.166V136.034H141.003V136.197H140.829V136.359H140.666V136.521H140.504V136.684H140.329V136.846H140.167V137.008H140.005V137.345H139.83V137.508H139.667V137.67H139.505V137.832H139.33V137.994H139.168V138.157H139.006V138.319H138.831V138.481H138.669V138.644H138.506V138.806H138.332V138.968H138.169V139.131H138.007V139.293H137.832V139.455H137.508V139.618H137.333V139.78H137.17V139.942H137.008V140.104H136.833V140.267H136.671V140.429H136.509V140.591H136.334V140.754H136.172V140.916H136.009V141.078H135.835V141.241H135.51V141.403H135.335V141.565H135.173V141.727H135.011V141.89H134.836V142.052H134.674V142.214H134.511V142.377H134.336V142.539H134.012V142.701H133.837V142.864H133.675V143.026H133.512V143.188H133.175V143.35H133.013V143.513H132.838V143.675H132.676V143.837H132.339V144H132.177V144.162H132.014V144.324H131.839V144.487H131.515V144.649H131.34V144.811H131.178V144.973H131.015V145.136H130.678V145.298H130.516V145.46H130.341V145.623H130.017V145.785H129.842V145.947H129.68V146.11H129.343V146.272H129.18V146.434H128.843V146.597H128.681V146.759H128.344V146.921H128.181V147.083H128.019V147.246H127.682V147.408H127.52V147.57H127.183V147.733H127.02V147.895H126.846V148.057H126.521V148.22H126.346V148.382H126.022V148.544H125.684V148.706H125.522V148.869H125.185V149.031H125.023V149.193H124.686V149.356H124.349V149.518H124.186V149.68H123.849V149.843H123.525V150.005H123.35V150.167H123.025V150.329H122.85V150.492H122.526V150.654H122.189V150.816H122.026V150.979H121.689V151.141H121.352V151.303H121.028V151.466H120.691V151.628H120.353V151.79H120.029V151.953H119.854V152.115H119.529V152.277H119.192V152.439H118.855V152.602H118.531V152.764H118.194V152.926H117.856V153.089H117.532V153.251H117.195V153.413H116.858V153.576H116.533V153.738H116.196V153.9H115.859V154.062H115.36V154.225H115.035V154.387H114.698V154.549H114.361V154.712H114.036V154.874H113.537V155.036H113.2V155.199H112.863V155.361H112.538V155.523H112.039V155.685H111.539V155.848H111.202V156.01H110.703V156.172H110.203V156.335H109.866V156.497H109.367V156.659H108.867V156.822H108.543V156.984H108.043V157.146H107.544V157.308H107.045V157.471H106.545V157.633H106.046V157.795H105.372V157.958H104.872V158.12H104.373V158.282H103.874V158.445H103.212V158.607H102.712V158.769H102.051V158.932H101.377V159.094H100.715V159.256H99.8784V159.418H99.2167V159.581H98.555V159.743H97.8808V159.905H97.0568V160.068H96.058V160.23H95.0592V160.392H94.0605V160.555H93.0617V160.717H91.8881V160.879H90.2276V161.041H88.5672V161.204H86.8942V161.366H83.2361V161.528" fill="url(#paint0_linear_11824_21474)"/>
<defs>
<linearGradient id="paint0_linear_11824_21474" x1="36.2184" y1="10.8118" x2="124.511" y2="145.972" gradientUnits="userSpaceOnUse">
<stop stop-color="#FFCF00"/>
<stop offset="1" stop-color="#FAAD19"/>
</linearGradient>
</defs>
</svg>
