<svg width="17" height="17" viewBox="0 0 17 17" fill="none" xmlns="http://www.w3.org/2000/svg">
<path d="M12.0869 2.01042C13.9258 2.01055 15.4169 3.50159 15.417 5.3405V12.0143C15.4169 13.8532 13.9258 15.3443 12.0869 15.3444H5.41309C3.57417 15.3443 2.08314 13.8532 2.08301 12.0143V5.3405C2.08314 3.50159 3.57417 2.01056 5.41309 2.01042H12.0869ZM8.75 5.34441C6.90905 5.34441 5.41699 6.83646 5.41699 8.67741C5.41699 10.5184 6.90905 12.0104 8.75 12.0104C10.5909 12.0104 12.083 10.5184 12.083 8.67741C12.083 6.83646 10.5909 5.34441 8.75 5.34441ZM8.75 6.67741C9.85457 6.67741 10.75 7.57284 10.75 8.67741C10.75 9.78198 9.85457 10.6774 8.75 10.6774C7.64543 10.6774 6.75 9.78198 6.75 8.67741C6.75 7.57284 7.64543 6.67741 8.75 6.67741ZM12.75 4.01042C12.3818 4.01042 12.083 4.30922 12.083 4.67741C12.083 5.0456 12.3818 5.34441 12.75 5.34441C13.1182 5.34441 13.417 5.0456 13.417 4.67741C13.417 4.30922 13.1182 4.01042 12.75 4.01042Z" fill="white"/>
</svg>
