<svg width="32" height="32" viewBox="0 0 32 32" fill="none" xmlns="http://www.w3.org/2000/svg">
<g clip-path="url(#clip0_20835_15625)">
<path d="M16 0C7.16375 0 0 7.16375 0 16C0 24.8363 7.16375 32 16 32C24.8363 32 32 24.8363 32 16C32 7.16375 24.8363 0 16 0Z" fill="#212121"/>
<path d="M19.0194 10.0723H13.1213C11.4414 10.0723 10.0703 11.4372 10.0703 13.1232V19.0213C10.0703 20.7012 11.4352 22.0723 13.1213 22.0723H19.0194C20.6992 22.0723 22.0703 20.7074 22.0703 19.0213V13.1232C22.0641 11.4372 20.6992 10.0723 19.0194 10.0723ZM16.0672 20.0157C13.8933 20.0157 12.1208 18.2431 12.1208 16.0692C12.1208 13.8952 13.8933 12.1227 16.0672 12.1227C18.2412 12.1227 20.0137 13.8952 20.0137 16.0692C20.0137 18.2431 18.2412 20.0157 16.0672 20.0157ZM20.2113 12.5612C19.8408 12.5612 19.5443 12.2648 19.5443 11.8942C19.5443 11.5236 19.8408 11.2272 20.2113 11.2272C20.5819 11.2272 20.8783 11.5236 20.8783 11.8942C20.8783 12.2648 20.5819 12.5612 20.2113 12.5612Z" fill="#D5DEFF"/>
<path d="M18.4659 16.0977C18.4818 14.7743 17.4218 13.6886 16.0983 13.6727C14.7749 13.6568 13.6892 14.7168 13.6733 16.0402C13.6574 17.3637 14.7174 18.4494 16.0408 18.4653C17.3643 18.4812 18.45 17.4212 18.4659 16.0977Z" fill="#D5DEFF"/>
</g>
<defs>
<clipPath id="clip0_20835_15625">
<rect width="32" height="32" fill="white"/>
</clipPath>
</defs>
</svg>
