<svg width="24" height="24" viewBox="0 0 24 24" fill="none" xmlns="http://www.w3.org/2000/svg">
<path d="M22.1261 14.3974C22.1261 11.5474 19.4617 9.21304 16.1025 9.01904C15.8737 12.1832 12.9235 14.7264 9.21729 14.9738C9.56417 17.6794 12.3167 19.7944 15.6521 19.7944C16.0533 19.7944 16.464 19.7607 16.8783 19.6923C17.1549 20.4685 17.8852 20.9991 18.7374 20.9991C19.0843 20.9991 19.4274 20.9063 19.7293 20.732C19.8455 20.6645 19.9158 20.5407 19.9158 20.4076C19.9158 20.2735 19.8446 20.1507 19.7283 20.0832C19.3477 19.8629 19.1114 19.4551 19.1114 19.0173C19.1114 18.9966 19.1124 18.9751 19.1133 18.9526C20.9761 17.9672 22.1245 16.2378 22.1245 14.3974L22.1261 14.3974Z" fill="#5659FA"/>
<path d="M8.625 2.99979C4.903 2.99979 1.875 5.52359 1.875 8.62499C1.875 10.0556 2.51624 11.4102 3.68438 12.4546C3.66938 13.078 3.3272 13.6555 2.78344 13.9705C2.66719 14.038 2.59594 14.1608 2.59594 14.2949C2.59594 14.429 2.66719 14.5527 2.78344 14.6193C3.17156 14.8443 3.61312 14.9634 4.06032 14.9634C4.9097 14.9634 5.68782 14.5471 6.16132 13.859C6.95164 14.1187 7.77944 14.2499 8.62612 14.2499C12.3481 14.2499 15.3761 11.7261 15.3761 8.62471C15.3761 5.52351 12.3481 2.99951 8.62612 2.99951L8.625 2.99979Z" fill="#5659FA"/>
</svg>
