<svg width="16" height="16" viewBox="0 0 16 16" fill="none" xmlns="http://www.w3.org/2000/svg">
<path fill-rule="evenodd" clip-rule="evenodd" d="M13.6578 2.34454C16.7816 5.46833 16.7816 10.5321 13.6578 13.6581C10.9591 16.3546 6.81386 16.7225 3.71982 14.7618L3.09595 14.9286L0.330975 15.669L1.07133 12.904L1.23812 12.2801C-0.722488 9.18608 -0.354565 5.04084 2.34181 2.34446C5.46801 -0.781501 10.5318 -0.781501 13.6578 2.34454ZM12.1131 10.2922C12.3805 10.2922 12.5975 10.507 12.5975 10.7743C12.5975 11.0416 12.3804 11.2588 12.1131 11.2588H3.88669C3.61929 11.2588 3.4022 11.0417 3.4022 10.7743C3.4022 10.5069 3.61929 10.2922 3.88669 10.2922H12.1131ZM12.1131 7.51576C12.3805 7.51576 12.5975 7.73285 12.5975 8.00025C12.5975 8.26765 12.3804 8.48474 12.1131 8.48474H3.88669C3.61929 8.48474 3.4022 8.26765 3.4022 8.00025C3.4022 7.73285 3.61929 7.51576 3.88669 7.51576H12.1131ZM12.1131 4.7416C12.3805 4.7416 12.5975 4.95869 12.5975 5.22609C12.5975 5.49348 12.3804 5.71057 12.1131 5.71057H3.88669C3.61929 5.71057 3.4022 5.49348 3.4022 5.22609C3.4022 4.95869 3.61929 4.7416 3.88669 4.7416H12.1131Z" fill="#5659FA"/>
</svg>
