<svg width="72" height="72" viewBox="0 0 72 72" fill="none" xmlns="http://www.w3.org/2000/svg">
<g clip-path="url(#clip0_11789_4052)">
<path d="M30.9719 56.9443V64.0898C30.9719 68.4583 27.4306 71.9996 23.0622 71.9996C18.6937 71.9996 15.1523 68.4583 15.1523 64.0898V56.9443H30.9719Z" fill="#2E2A94"/>
<path d="M31.5493 55.5648C36.2943 58.3043 36.3685 62.7274 31.6543 65.467C26.9409 68.2061 19.304 68.178 14.5591 65.4385C9.81418 62.699 9.79011 58.3041 14.5036 55.5649C19.2177 52.8254 26.8045 52.8254 31.5493 55.5648Z" fill="#FFD500"/>
<path d="M35.538 60.0633L35.5287 62.5646C35.5236 64.3913 34.326 66.2131 31.9213 67.6106C27.0561 70.4379 19.1734 70.4089 14.2757 67.5812C11.8113 66.1584 10.5807 64.303 10.586 62.4503L10.5951 59.9492C10.5899 61.8018 11.8206 63.6572 14.2849 65.08C19.1826 67.9077 27.0654 67.9367 31.9305 65.1094C34.3352 63.712 35.5328 61.8901 35.538 60.0633Z" fill="url(#paint0_linear_11789_4052)"/>
<path d="M31.8207 54.8873C36.7184 57.715 36.795 62.2805 31.9291 65.1082C27.0639 67.9355 19.1812 67.9065 14.2835 65.0788C9.38589 62.2512 9.36104 57.7148 14.2262 54.8874C19.0921 52.0597 26.9231 52.0597 31.8207 54.8873Z" fill="#242177"/>
<path d="M35.1504 56.458L35.1415 59.4464C35.1365 61.2161 33.9762 62.9811 31.6465 64.335C26.9331 67.0741 19.2962 67.046 14.5512 64.3065C12.1638 62.9281 10.9715 61.1305 10.9766 59.3357L10.9854 56.3474C10.9804 58.1422 12.1727 59.9398 14.5602 61.3182C19.3052 64.0577 26.942 64.0858 31.6555 61.3467C33.9852 59.9928 35.1454 58.2278 35.1504 56.458Z" fill="#5659FA"/>
<path d="M31.5493 51.4447C36.2943 54.1842 36.3685 58.6073 31.6543 61.3468C26.9409 64.086 19.304 64.0579 14.5591 61.3184C9.81418 58.5789 9.79011 54.184 14.5036 51.4448C19.2177 48.7053 26.8045 48.7052 31.5493 51.4447Z" fill="#FFD500"/>
<path d="M35.538 55.9423L35.5287 58.4435C35.5236 60.2702 34.326 62.092 31.9213 63.4895C27.0561 66.3168 19.1734 66.2878 14.2757 63.4601C11.8113 62.0373 10.5807 60.1819 10.586 58.3293L10.5951 55.8281C10.5899 57.6807 11.8206 59.5361 14.2849 60.9589C19.1826 63.7866 27.0654 63.8156 31.9305 60.9883C34.3352 59.5909 35.5328 57.769 35.538 55.9423Z" fill="url(#paint1_linear_11789_4052)"/>
<path d="M31.8207 50.7672C36.7184 53.5949 36.795 58.1603 31.9291 60.9881C27.0639 63.8154 19.1812 63.7864 14.2835 60.9587C9.38589 58.1311 9.36104 53.5947 14.2262 50.7673C19.0921 47.9396 26.9231 47.9395 31.8207 50.7672Z" fill="#242177"/>
<path d="M35.1504 52.3366L35.1415 55.3251C35.1365 57.0948 33.9762 58.8598 31.6465 60.2136C26.9331 62.9528 19.2962 62.9247 14.5512 60.1852C12.1638 58.8068 10.9715 57.0092 10.9766 55.2144L10.9854 52.2261C10.9804 54.0209 12.1727 55.8184 14.5602 57.1969C19.3052 59.9364 26.942 59.9645 31.6555 57.2253C33.9852 55.8715 35.1454 54.1064 35.1504 52.3366Z" fill="#5659FA"/>
<path d="M31.5493 47.3234C36.2943 50.0629 36.3685 54.486 31.6543 57.2255C26.9409 59.9647 19.304 59.9365 14.5591 57.197C9.81418 54.4576 9.79011 50.0626 14.5036 47.3235C19.2177 44.5839 26.8045 44.5839 31.5493 47.3234Z" fill="#FFD500"/>
<path d="M35.538 51.8209L35.5287 54.3222C35.5236 56.1489 34.326 57.9707 31.9213 59.3681C27.0561 62.1955 19.1734 62.1664 14.2757 59.3388C11.8113 57.916 10.5807 56.0605 10.586 54.2079L10.5951 51.7068C10.5899 53.5594 11.8206 55.4148 14.2849 56.8376C19.1826 59.6653 27.0654 59.6943 31.9305 56.867C34.3352 55.4695 35.5328 53.6477 35.538 51.8209Z" fill="url(#paint2_linear_11789_4052)"/>
<path d="M31.8207 46.6458C36.7184 49.4735 36.795 54.039 31.9291 56.8667C27.0639 59.6941 19.1812 59.6651 14.2835 56.8374C9.38589 54.0097 9.36104 49.4733 14.2262 46.646C19.0921 43.8182 26.9231 43.8182 31.8207 46.6458Z" fill="#242177"/>
<path d="M30.7577 47.0998C35.0614 49.5845 35.1287 53.5962 30.853 56.081C26.5779 58.5654 19.6513 58.5399 15.3477 56.0552C11.0441 53.5705 11.0223 49.5843 15.2974 47.0999C19.573 44.6152 26.4542 44.6151 30.7577 47.0998Z" fill="#FCBE0D"/>
<path d="M17.5352 51.8254L17.5445 53.064L20.2623 54.6434L20.253 53.4049L17.5352 51.8254Z" fill="#E0E2E2"/>
<path d="M20.2539 53.4038L20.2633 54.6423L29.502 49.3084L29.4926 48.0698L20.2539 53.4038Z" fill="#D4D6D6"/>
<path d="M17.5352 51.8245L20.253 53.4039L29.4917 48.0699L26.7739 46.4905L17.5352 51.8245Z" fill="#ECF0F1"/>
<path d="M20.7643 51.3684C20.4568 51.3684 20.2074 51.1189 20.2074 50.8115V45.0338L10.5445 24.2944C10.3563 23.8716 10.402 23.4032 10.663 23.033C11.3125 22.1111 12.3497 22.6528 13.748 22.6433C15.6319 22.7865 16.0817 18.9111 18.9083 19.4455C20.8571 19.8106 21.2029 16.1707 23.9004 16.4486L24.3681 16.4979C25.6852 16.6329 25.9749 15.2453 26.832 14.2008C27.9427 12.5482 29.8513 13.2209 30.0069 13.2113C30.9419 13.3713 31.2691 12.4957 31.8835 11.938C32.1979 11.5892 32.6863 11.5033 33.1021 11.7241C33.5161 11.9442 33.7188 12.3981 33.6061 12.8535L25.8093 41.629V48.4893C25.8093 48.7967 25.5598 49.0462 25.2524 49.0462C24.9449 49.0462 24.6955 48.7967 24.6955 48.4893V41.555C24.6955 41.5057 24.702 41.4568 24.7147 41.4093L32.4071 13.0199L31.8937 13.5884C30.3766 15.2669 28.7741 13.3021 27.7573 14.8215C27.0306 15.6399 26.4194 17.8364 24.2513 17.6059C24.0515 17.6179 23.184 17.3148 22.5495 18.0421C21.6055 18.8922 20.7553 20.9262 18.7031 20.5404C16.7272 20.1655 16.4085 23.957 13.6643 23.7542C11.8194 23.6582 11.6793 23.5235 11.5734 23.6744C11.4543 23.8442 11.2097 22.9594 21.2689 44.6752C21.3034 44.7488 21.3211 44.8293 21.3211 44.9105V50.8115C21.3211 51.1189 21.0717 51.3684 20.7643 51.3684Z" fill="#2E2A94"/>
<path opacity="0.3" d="M45.9371 20.0465C46.8609 27.2935 44.4106 33.9886 39.9491 38.779C36.8904 42.0632 34.9989 46.2607 34.9989 50.7486V51.0426C34.9989 52.7959 33.9072 54.6484 31.4924 55.9219C26.8943 58.6015 19.3188 58.6015 14.6214 55.9219C12.2396 54.5491 11.1149 52.7959 11.1149 51.0426H11.0157V50.775C11.0157 46.4657 9.5045 42.2194 6.50333 39.127C2.47479 34.9759 0 29.313 0 23.0732C0 9.49873 11.7249 -1.35119 25.6219 0.136479C36.0757 1.25556 44.6076 9.6173 45.9371 20.0465Z" fill="#9DADFE"/>
</g>
<defs>
<linearGradient id="paint0_linear_11789_4052" x1="33.051" y1="60.554" x2="6.71936" y2="51.0279" gradientUnits="userSpaceOnUse">
<stop stop-color="#0F00FF"/>
<stop offset="1" stop-color="white"/>
</linearGradient>
<linearGradient id="paint1_linear_11789_4052" x1="33.051" y1="56.4329" x2="6.71936" y2="46.9068" gradientUnits="userSpaceOnUse">
<stop stop-color="#0F00FF"/>
<stop offset="1" stop-color="white"/>
</linearGradient>
<linearGradient id="paint2_linear_11789_4052" x1="33.051" y1="52.3116" x2="6.71936" y2="42.7855" gradientUnits="userSpaceOnUse">
<stop stop-color="#0F00FF"/>
<stop offset="1" stop-color="white"/>
</linearGradient>
<clipPath id="clip0_11789_4052">
<rect width="72" height="72" fill="white"/>
</clipPath>
</defs>
</svg>