<svg width="25" height="24" viewBox="0 0 25 24" fill="none" xmlns="http://www.w3.org/2000/svg">
<rect x="0.666016" width="24" height="24" rx="2" fill="#F5F5F5"/>
<path d="M12.6636 7.2002L8.73633 8.50929V12.0002C8.73633 12.0002 8.73633 15.0547 12.6636 16.8002C16.5909 15.0547 16.5909 12.0002 16.5909 12.0002V8.50929L12.6636 7.2002Z" fill="#2E2A94"/>
<path d="M20.6969 17.8666H13.2306C12.9362 17.8666 12.6973 17.6277 12.6973 17.3333C12.6973 17.0389 12.6973 6.96149 12.6973 6.6671C12.6973 6.37271 12.9362 6.13379 13.2306 6.13379H20.6969C20.9913 6.13379 21.2302 6.37271 21.2302 6.6671V17.3333C21.2302 17.6277 20.9913 17.8666 20.6969 17.8666Z" fill="#9DADFE"/>
<path d="M15.3638 9.33371H13.2306C12.9362 9.33371 12.6973 9.09479 12.6973 8.8004C12.6973 8.50601 12.9362 8.26709 13.2306 8.26709H15.3638C15.6582 8.26709 15.8971 8.50601 15.8971 8.8004C15.8971 9.09479 15.6582 9.33371 15.3638 9.33371Z" fill="#2E2A94"/>
<path d="M15.3638 11.467H13.2306C12.9362 11.467 12.6973 11.2281 12.6973 10.9337C12.6973 10.6393 12.9362 10.4004 13.2306 10.4004H15.3638C15.6582 10.4004 15.8971 10.6393 15.8971 10.9337C15.8971 11.2281 15.6582 11.467 15.3638 11.467Z" fill="#2E2A94"/>
<path d="M15.3638 13.6003H13.2306C12.9362 13.6003 12.6973 13.3614 12.6973 13.067C12.6973 12.7726 12.9362 12.5337 13.2306 12.5337H15.3638C15.6582 12.5337 15.8971 12.7726 15.8971 13.067C15.8971 13.3614 15.6582 13.6003 15.3638 13.6003Z" fill="#2E2A94"/>
<path d="M15.3638 15.7336H13.2306C12.9362 15.7336 12.6973 15.4947 12.6973 15.2003C12.6973 14.9059 12.9362 14.667 13.2306 14.667H15.3638C15.6582 14.667 15.8971 14.9059 15.8971 15.2003C15.8971 15.4947 15.6582 15.7336 15.3638 15.7336Z" fill="#2E2A94"/>
<path d="M18.5667 9.33371H17.5001C17.2057 9.33371 16.9668 9.09479 16.9668 8.8004C16.9668 8.50601 17.2057 8.26709 17.5001 8.26709H18.5667C18.8611 8.26709 19.1 8.50601 19.1 8.8004C19.1 9.09479 18.8611 9.33371 18.5667 9.33371Z" fill="#2E2A94"/>
<path d="M18.5667 11.467H17.5001C17.2057 11.467 16.9668 11.2281 16.9668 10.9337C16.9668 10.6393 17.2057 10.4004 17.5001 10.4004H18.5667C18.8611 10.4004 19.1 10.6393 19.1 10.9337C19.1 11.2281 18.8611 11.467 18.5667 11.467Z" fill="#2E2A94"/>
<path d="M18.5667 13.6003H17.5001C17.2057 13.6003 16.9668 13.3614 16.9668 13.067C16.9668 12.7726 17.2057 12.5337 17.5001 12.5337H18.5667C18.8611 12.5337 19.1 12.7726 19.1 13.067C19.1 13.3614 18.8611 13.6003 18.5667 13.6003Z" fill="#2E2A94"/>
<path d="M18.5667 15.7336H17.5001C17.2057 15.7336 16.9668 15.4947 16.9668 15.2003C16.9668 14.9059 17.2057 14.667 17.5001 14.667H18.5667C18.8611 14.667 19.1 14.9059 19.1 15.2003C19.1 15.4947 18.8611 15.7336 18.5667 15.7336Z" fill="#2E2A94"/>
<path d="M13.5725 4.12338C13.4509 4.02205 13.2877 3.97832 13.1341 4.01032L4.6012 5.61025C4.34841 5.65718 4.16602 5.8769 4.16602 6.13396V17.8668C4.16602 18.1228 4.34841 18.3435 4.6012 18.3905L13.1341 19.9904C13.1661 19.9968 13.1992 20 13.2323 20C13.356 20 13.4765 19.9573 13.5725 19.8773C13.6952 19.776 13.7656 19.6245 13.7656 19.4667V4.53403C13.7656 4.3751 13.6952 4.22471 13.5725 4.12338Z" fill="#2E2A94"/>
<path d="M11.5021 13.7824L9.81573 11.8551L11.5213 9.66209C11.7026 9.42957 11.6599 9.09465 11.4285 8.91332C11.197 8.732 10.8621 8.77466 10.6797 9.00612L9.10003 11.037L7.76889 9.51596C7.5737 9.29197 7.23665 9.27171 7.01692 9.46583C6.79507 9.65996 6.77267 9.99701 6.96679 10.2178L8.43339 11.8945L6.94653 13.8059C6.7652 14.0384 6.80787 14.3733 7.03932 14.5547C7.13745 14.6304 7.25371 14.6667 7.36784 14.6667C7.52677 14.6667 7.68356 14.5963 7.78916 14.4608L9.1491 12.7116L10.7 14.4832C10.8056 14.6048 10.9527 14.6667 11.101 14.6667C11.2258 14.6667 11.3506 14.6229 11.4519 14.5344C11.6738 14.3403 11.6962 14.0032 11.5021 13.7824Z" fill="#FAFAFA"/>
</svg>
