<svg width="16" height="17" viewBox="0 0 16 17" fill="none" xmlns="http://www.w3.org/2000/svg">
<path d="M4 15.3444H1.33301V6.34441H4V15.3444ZM8.66699 6.34441V6.90495C9.08394 6.75762 9.5326 6.67741 10 6.67741C12.2091 6.67741 14 8.46828 14 10.6774V15.3444H11.333V10.6774C11.333 9.94103 10.7364 9.34441 10 9.34441C9.26362 9.34441 8.66699 9.94103 8.66699 10.6774V15.3444H6V6.34441H8.66699ZM2.66699 2.01042C3.40322 2.0106 4 2.60813 4 3.34441C3.99982 4.08053 3.40311 4.67724 2.66699 4.67741C1.93072 4.67741 1.33318 4.08064 1.33301 3.34441C1.33301 2.60803 1.93061 2.01042 2.66699 2.01042Z" fill="white"/>
</svg>
