<svg width="21" height="20" viewBox="0 0 21 20" fill="none" xmlns="http://www.w3.org/2000/svg">
<path d="M15.2815 2.26367C15.9654 2.26367 16.6214 2.53538 17.105 3.01903C17.5887 3.50267 17.8604 4.15864 17.8604 4.84262V6.56192C17.8604 7.2459 17.5887 7.90186 17.105 8.38551C16.6214 8.86916 15.9654 9.14086 15.2815 9.14086H4.96567C4.28169 9.14086 3.62572 8.86916 3.14208 8.38551C2.65843 7.90186 2.38672 7.2459 2.38672 6.56192V4.84262C2.38672 4.15864 2.65843 3.50267 3.14208 3.01903C3.62572 2.53538 4.28169 2.26367 4.96567 2.26367H15.2815Z" fill="#382AD7"/>
<path d="M15.2815 10.8594C15.9654 10.8594 16.6214 11.1311 17.105 11.6147C17.5887 12.0984 17.8604 12.7543 17.8604 13.4383V15.1576C17.8604 15.8416 17.5887 16.4976 17.105 16.9812C16.6214 17.4649 15.9654 17.7366 15.2815 17.7366H4.96567C4.28169 17.7366 3.62572 17.4649 3.14208 16.9812C2.65843 16.4976 2.38672 15.8416 2.38672 15.1576V13.4383C2.38672 12.7543 2.65843 12.0984 3.14208 11.6147C3.62572 11.1311 4.28169 10.8594 4.96567 10.8594H15.2815Z" fill="#382AD7"/>
</svg>
