<svg width="21" height="20" viewBox="0 0 21 20" fill="none" xmlns="http://www.w3.org/2000/svg">
<path d="M4.96484 2.76315H15.2803C15.8316 2.76315 16.3611 2.98265 16.751 3.37253C17.1406 3.76236 17.3594 4.2911 17.3594 4.84225V6.561C17.3594 7.11233 17.1408 7.64184 16.751 8.03171C16.3611 8.42159 15.8316 8.64011 15.2803 8.64011H4.96484C4.41365 8.64011 3.88496 8.42136 3.49512 8.03171C3.10524 7.64183 2.88574 7.11238 2.88574 6.561V4.84225L2.89551 4.6362C2.94284 4.16042 3.15406 3.71358 3.49512 3.37253C3.885 2.98265 4.41347 2.76315 4.96484 2.76315Z" stroke="#757575"/>
<path d="M4.96484 11.3596H15.2803C15.8316 11.3596 16.3611 11.5791 16.751 11.969C17.1406 12.3589 17.3594 12.8876 17.3594 13.4388V15.1575C17.3594 15.7088 17.1408 16.2383 16.751 16.6282C16.3611 17.0181 15.8316 17.2366 15.2803 17.2366H4.96484C4.41365 17.2366 3.88496 17.0179 3.49512 16.6282C3.10524 16.2383 2.88574 15.7089 2.88574 15.1575V13.4388L2.89551 13.2327C2.94284 12.7569 3.15406 12.3101 3.49512 11.969C3.885 11.5791 4.41347 11.3596 4.96484 11.3596Z" stroke="#757575"/>
</svg>