<svg width="308" height="174" viewBox="0 0 308 174" fill="none" xmlns="http://www.w3.org/2000/svg">
<g clip-path="url(#clip0_15371_11046)">
<path d="M225.299 0.25C225.946 0.250144 226.551 0.603462 227.005 1.21484C227.402 1.74987 227.673 2.47263 227.736 3.28711L227.75 3.6416V169.359C227.75 170.314 227.462 171.169 227.009 171.78C226.555 172.392 225.948 172.747 225.298 172.75H30.7012C30.0545 172.75 29.4488 172.397 28.9951 171.785C28.5982 171.25 28.3267 170.527 28.2637 169.713L28.25 169.358V3.64062C28.2501 2.68595 28.5377 1.83106 28.9912 1.21973C29.4165 0.646573 29.9772 0.298477 30.5811 0.254883L30.7021 0.25H225.299Z" fill="url(#paint0_linear_15371_11046)" stroke="#2E2A94" stroke-width="0.5"/>
<path d="M235.78 151.867C244.837 151.867 252.179 136.887 252.179 118.407C252.179 99.9271 244.837 84.9463 235.78 84.9463C226.722 84.9463 219.38 99.9271 219.38 118.407C219.38 136.887 226.722 151.867 235.78 151.867Z" fill="#4338F3"/>
<path d="M234.265 173.181C240.833 133.772 234.331 94.5071 234.265 94.113L232.988 94.3306C233.054 94.7206 239.519 133.78 232.988 172.967L234.265 173.181Z" fill="#242177"/>
<path d="M221.333 111.205L220.722 112.349L235.552 120.281L236.164 119.138L221.333 111.205Z" fill="#242177"/>
<path d="M251.21 115.179L236.382 123.116L236.994 124.26L251.822 116.323L251.21 115.179Z" fill="#242177"/>
<path d="M275.184 130.895C292.899 130.895 307.261 101.593 307.261 65.4473C307.261 29.3017 292.899 0 275.184 0C257.468 0 243.106 29.3017 243.106 65.4473C243.106 101.593 257.468 130.895 275.184 130.895Z" fill="#BDCBFF"/>
<path d="M271.609 172.475C284.437 95.4963 271.74 18.8011 271.609 18.0334L270.332 18.251C270.463 19.0146 283.123 95.5045 270.332 172.261L271.609 172.475Z" fill="#2E2A94"/>
<path d="M246.643 51.9177L246.031 53.0615L275.037 68.5752L275.649 67.4314L246.643 51.9177Z" fill="#2E2A94"/>
<path d="M305.651 59.6805L276.65 75.2043L277.263 76.348L306.263 60.8242L305.651 59.6805Z" fill="#2E2A94"/>
<path d="M307.864 173.259H0V172.52H308L307.864 173.259Z" fill="#2E2A94"/>
<path d="M128.393 56.2274C142.51 56.194 153.966 67.6169 154 81.7229C154 99.7368 133.893 116.348 128.393 116.348C122.893 116.348 102.786 99.5586 102.786 81.7229C102.82 67.6057 114.276 56.194 128.393 56.2274Z" fill="url(#paint1_linear_15371_11046)"/>
<path d="M128.394 99.6475C138.232 99.6475 146.207 91.6721 146.207 81.834C146.207 71.9959 138.232 64.0205 128.394 64.0205C118.555 64.0205 110.58 71.9959 110.58 81.834C110.58 91.6721 118.555 99.6475 128.394 99.6475Z" fill="white"/>
<path d="M129.837 81.5466L135.868 75.5144C136.261 75.1221 136.261 74.4877 135.868 74.0953C135.476 73.7029 134.842 73.7029 134.449 74.0953L128.417 80.1275L122.385 74.0953C121.993 73.7029 121.359 73.7029 120.966 74.0953C120.574 74.4877 120.574 75.1221 120.966 75.5144L126.998 81.5466L120.966 87.5788C120.574 87.9711 120.574 88.6055 120.966 88.9979C121.162 89.1936 121.419 89.292 121.676 89.292C121.933 89.292 122.19 89.1936 122.385 88.9979L128.417 82.9657L134.449 88.9979C134.645 89.1936 134.902 89.292 135.159 89.292C135.416 89.292 135.673 89.1936 135.868 88.9979C136.261 88.6055 136.261 87.9711 135.868 87.5788L129.837 81.5466Z" fill="#4338F3"/>
</g>
<defs>
<linearGradient id="paint0_linear_15371_11046" x1="127.493" y1="209.851" x2="130.598" y2="21.5712" gradientUnits="userSpaceOnUse">
<stop stop-color="#2E3289"/>
<stop offset="0.05" stop-color="#2E3289" stop-opacity="0.9"/>
<stop offset="0.23" stop-color="#2E3289" stop-opacity="0.58"/>
<stop offset="0.41" stop-color="#2E3289" stop-opacity="0.33"/>
<stop offset="0.58" stop-color="#2E3289" stop-opacity="0.15"/>
<stop offset="0.73" stop-color="#2E3289" stop-opacity="0.04"/>
<stop offset="0.85" stop-color="#2E3289" stop-opacity="0"/>
</linearGradient>
<linearGradient id="paint1_linear_15371_11046" x1="153.906" y1="55.9876" x2="90.6764" y2="67.103" gradientUnits="userSpaceOnUse">
<stop stop-color="#0F00FF"/>
<stop offset="1" stop-color="white"/>
</linearGradient>
<clipPath id="clip0_15371_11046">
<rect width="308" height="173.259" fill="white"/>
</clipPath>
</defs>
</svg>
