<svg width="28" height="20" viewBox="0 0 28 20" fill="none" xmlns="http://www.w3.org/2000/svg">
<g clip-path="url(#clip0_19587_3747)">
<path d="M0 4C0 1.79086 1.79086 0 4 0H24C26.2091 0 28 1.79086 28 4V16C28 18.2091 26.2091 20 24 20H4C1.79086 20 0 18.2091 0 16V4Z" fill="white"/>
<path d="M3 0H97V70H3V0Z" fill="#181A93"/>
<path d="M0 0H28V6.57143H0V0Z" fill="#FFA44A"/>
<path d="M0 13.4286H28V20H0V13.4286Z" fill="#1A9F0B"/>
<path d="M0 6.57141H28V13.4286H0V6.57141Z" fill="white"/>
<path d="M13.9991 12.4C15.3136 12.4 16.3791 11.3255 16.3791 9.99998C16.3791 8.67449 15.3136 7.59998 13.9991 7.59998C12.6847 7.59998 11.6191 8.67449 11.6191 9.99998C11.6191 11.3255 12.6847 12.4 13.9991 12.4Z" fill="white"/>
<path d="M13.9995 13.0857C12.3151 13.0857 10.9395 11.6985 10.9395 10C10.9395 8.30152 12.3151 6.91431 13.9995 6.91431C15.6838 6.91431 17.0595 8.30152 17.0595 10C17.0595 11.6985 15.6838 13.0857 13.9995 13.0857ZM13.9995 12.3143C15.2208 12.3143 16.2945 11.2316 16.2945 10C16.2945 8.76844 15.2275 7.68574 13.9995 7.68574C12.7714 7.68574 11.7045 8.76844 11.7045 10C11.7045 11.2316 12.7781 12.3143 13.9995 12.3143Z" fill="#181A93"/>
<path d="M14.0006 11.3714C14.7517 11.3714 15.3606 10.7574 15.3606 9.99997C15.3606 9.24255 14.7517 8.62854 14.0006 8.62854C13.2495 8.62854 12.6406 9.24255 12.6406 9.99997C12.6406 10.7574 13.2495 11.3714 14.0006 11.3714Z" fill="#181A93"/>
</g>
<path d="M4 0.5H24C25.933 0.5 27.5 2.067 27.5 4V16C27.5 17.933 25.933 19.5 24 19.5H4C2.067 19.5 0.5 17.933 0.5 16V4C0.5 2.067 2.067 0.5 4 0.5Z" stroke="#DFDFDF"/>
<defs>
<clipPath id="clip0_19587_3747">
<path d="M0 4C0 1.79086 1.79086 0 4 0H24C26.2091 0 28 1.79086 28 4V16C28 18.2091 26.2091 20 24 20H4C1.79086 20 0 18.2091 0 16V4Z" fill="white"/>
</clipPath>
</defs>
</svg>
