<svg width="39" height="40" viewBox="0 0 39 40" fill="none" xmlns="http://www.w3.org/2000/svg">
<rect width="39" height="40" rx="3.33333" fill="#EEEEEE"/>
<path d="M26.6154 28C26.1277 27.9936 25.6619 27.7971 25.317 27.4522C24.9722 27.1074 24.7756 26.6415 24.7692 26.1538V13.8462C24.7692 13.3565 24.9637 12.8869 25.31 12.5407C25.6562 12.1945 26.1258 12 26.6154 12C27.105 12 27.5746 12.1945 27.9208 12.5407C28.267 12.8869 28.4615 13.3565 28.4615 13.8462V26.1538C28.4552 26.6415 28.2586 27.1074 27.9138 27.4522C27.5689 27.7971 27.103 27.9936 26.6154 28Z" fill="#2E2A94"/>
<path d="M19.2308 27.9999C18.7431 27.9935 18.2772 27.797 17.9324 27.4521C17.5875 27.1073 17.391 26.6414 17.3846 26.1537V16.3076C17.3846 15.8179 17.5791 15.3484 17.9253 15.0022C18.2716 14.6559 18.7411 14.4614 19.2308 14.4614C19.7204 14.4614 20.19 14.6559 20.5362 15.0022C20.8824 15.3484 21.0769 15.8179 21.0769 16.3076V26.1537C21.0705 26.6414 20.874 27.1073 20.5291 27.4521C20.1843 27.797 19.7184 27.9935 19.2308 27.9999Z" fill="#2E2A94"/>
<path d="M11.8462 27.9998C11.3585 27.9934 10.8926 27.7968 10.5478 27.452C10.2029 27.1072 10.0064 26.6413 10 26.1536V18.769C10 18.2794 10.1945 17.8098 10.5407 17.4636C10.8869 17.1174 11.3565 16.9229 11.8462 16.9229C12.3358 16.9229 12.8054 17.1174 13.1516 17.4636C13.4978 17.8098 13.6923 18.2794 13.6923 18.769V26.1536C13.6859 26.6413 13.4894 27.1072 13.1445 27.452C12.7997 27.7968 12.3338 27.9934 11.8462 27.9998Z" fill="#2E2A94"/>
</svg>