<svg width="38" height="38" viewBox="0 0 38 38" fill="none" xmlns="http://www.w3.org/2000/svg">
<path d="M11.2488 7.36793H26.7812C28.6584 7.10036 30.3967 8.40483 30.6643 10.2815C30.7104 10.603 30.7104 10.9294 30.6643 11.251V30.6665L26.7812 26.7834H11.2488C9.3722 27.0509 7.6333 25.7471 7.36574 23.8698C7.31962 23.5483 7.31962 23.2219 7.36574 22.9003V11.251C7.09817 9.37439 8.40204 7.6355 10.2793 7.36793C10.6008 7.32182 10.9273 7.32182 11.2488 7.36793Z" fill="url(#paint0_linear_10223_6477)"/>
<path fill-rule="evenodd" clip-rule="evenodd" d="M18.8258 10.3809C18.8492 10.3038 18.9193 10.25 19 10.25C19.0807 10.25 19.152 10.3038 19.1742 10.3809C19.1742 10.3809 19.4946 11.4531 19.8371 12.6024C20.3832 14.4346 21.8166 15.8668 23.6476 16.4129C24.7969 16.7554 25.8691 17.0758 25.8691 17.0758C25.9462 17.0992 26 17.1693 26 17.25C26 17.3307 25.9462 17.402 25.8691 17.4242C25.8691 17.4242 24.7969 17.7446 23.6476 18.0871C21.8154 18.6332 20.3832 20.0666 19.8371 21.8976C19.4946 23.0469 19.1742 24.1191 19.1742 24.1191C19.1508 24.1962 19.0807 24.25 19 24.25C18.9193 24.25 18.848 24.1962 18.8258 24.1191C18.8258 24.1191 18.5054 23.0469 18.1629 21.8976C17.6168 20.0654 16.1834 18.6332 14.3524 18.0871C13.2031 17.7446 12.131 17.4242 12.131 17.4242C12.0538 17.4008 12 17.3307 12 17.25C12 17.1693 12.0538 17.098 12.131 17.0758C12.131 17.0758 13.2031 16.7554 14.3524 16.4129C16.1846 15.8668 17.6168 14.4334 18.1629 12.6024C18.5054 11.4531 18.8258 10.3809 18.8258 10.3809Z" fill="#242177"/>
<defs>
<linearGradient id="paint0_linear_10223_6477" x1="19.0149" y1="7.62505" x2="19.0149" y2="37.375" gradientUnits="userSpaceOnUse">
<stop stop-color="white"/>
<stop offset="1" stop-color="#585EF9"/>
</linearGradient>
</defs>
</svg>