<svg width="38" height="38" viewBox="0 0 38 38" fill="none" xmlns="http://www.w3.org/2000/svg">
<path d="M30.6483 25.6529C30.5759 24.9214 30.1836 24.2678 29.5718 23.8599L25.424 21.0968C24.4557 20.452 23.1612 20.5823 22.3393 21.4022L21.0137 22.738C20.7121 22.8429 19.3174 22.2521 17.5215 20.4567C15.7249 18.6605 15.1417 17.2786 15.2181 17.0035L16.5779 15.6446C17.399 14.824 17.5279 13.5271 16.8834 12.5619L14.1185 8.41683C13.7103 7.80535 13.0563 7.41339 12.3243 7.34103C11.5907 7.26786 10.8762 7.52548 10.3566 8.04473L8.30535 10.0946C5.49427 12.9038 9.15515 19.0772 14.0294 23.949C17.343 27.2605 24.5945 32.9694 27.893 29.6692L29.9442 27.6194C30.4638 27.1009 30.7207 26.3836 30.6483 25.6529Z" fill="url(#paint0_linear_10223_6482)"/>
<defs>
<linearGradient id="paint0_linear_10223_6482" x1="12.875" y1="20.75" x2="36.5" y2="40" gradientUnits="userSpaceOnUse">
<stop stop-color="white"/>
<stop offset="1" stop-color="#585EF9"/>
</linearGradient>
</defs>
</svg>