<svg width="40" height="41" viewBox="0 0 40 41" fill="none" xmlns="http://www.w3.org/2000/svg">
<circle cx="20" cy="20.6642" r="20" fill="#BDCBFF"/>
<circle cx="19.9961" cy="20.6885" r="20" fill="#BDCBFF"/>
<mask id="mask0_11386_26616" style="mask-type:alpha" maskUnits="userSpaceOnUse" x="-1" y="0" width="41" height="41">
<circle cx="19.9961" cy="20.6885" r="20" fill="#2E86C1"/>
</mask>
<g mask="url(#mask0_11386_26616)">
<rect x="1.99609" y="30.6885" width="36" height="10" fill="#2E2A94"/>
<path d="M12.9941 37.6884V32.4084H17.1061V33.4724H14.3701V34.5444H16.5461V35.5444H14.3701V36.6244H17.2101V37.6884H12.9941Z" fill="white"/>
<path d="M22.481 32.4084V33.4724H20.761V37.6884H19.385V33.4724H17.657V32.4084H22.481Z" fill="white"/>
<path d="M27.3716 33.4724H24.6436V34.5924H26.8196V35.6564H24.6436V37.6884H23.2676V32.4084H27.3716V33.4724Z" fill="white"/>
<path d="M15.8823 15.6723H14.9723L11.3123 10.1223V15.6723H10.4023V8.69235H11.3123L14.9723 14.2323V8.69235H15.8823V15.6723Z" fill="#2E2A94"/>
<path d="M17.9036 9.30235C17.7303 9.30235 17.5836 9.24235 17.4636 9.12235C17.3436 9.00235 17.2836 8.85568 17.2836 8.68235C17.2836 8.50902 17.3436 8.36235 17.4636 8.24235C17.5836 8.12235 17.7303 8.06235 17.9036 8.06235C18.0703 8.06235 18.2103 8.12235 18.3236 8.24235C18.4436 8.36235 18.5036 8.50902 18.5036 8.68235C18.5036 8.85568 18.4436 9.00235 18.3236 9.12235C18.2103 9.24235 18.0703 9.30235 17.9036 9.30235ZM18.3436 10.1923V15.6723H17.4336V10.1923H18.3436Z" fill="#2E2A94"/>
<path d="M22.1245 10.9423H20.9745V15.6723H20.0645V10.9423H19.3545V10.1923H20.0645V9.80235C20.0645 9.18902 20.2212 8.74235 20.5345 8.46235C20.8545 8.17568 21.3645 8.03235 22.0645 8.03235V8.79235C21.6645 8.79235 21.3812 8.87235 21.2145 9.03235C21.0545 9.18568 20.9745 9.44235 20.9745 9.80235V10.1923H22.1245V10.9423Z" fill="#2E2A94"/>
<path d="M24.2955 10.9423V14.1723C24.2955 14.439 24.3522 14.629 24.4655 14.7423C24.5789 14.849 24.7755 14.9023 25.0555 14.9023H25.7255V15.6723H24.9055C24.3989 15.6723 24.0189 15.5557 23.7655 15.3223C23.5122 15.089 23.3855 14.7057 23.3855 14.1723V10.9423H22.6755V10.1923H23.3855V8.81235H24.2955V10.1923H25.7255V10.9423H24.2955Z" fill="#2E2A94"/>
<path d="M31.5481 10.1923L28.2481 18.2523H27.3081L28.3881 15.6123L26.1781 10.1923H27.1881L28.9081 14.6323L30.6081 10.1923H31.5481Z" fill="#2E2A94"/>
<path d="M15.8105 21.8642H12.6905V23.2442C12.8239 23.0976 13.0105 22.9776 13.2505 22.8842C13.4905 22.7909 13.7505 22.7442 14.0305 22.7442C14.5305 22.7442 14.9439 22.8576 15.2705 23.0842C15.6039 23.3109 15.8472 23.6042 16.0005 23.9642C16.1539 24.3242 16.2305 24.7142 16.2305 25.1342C16.2305 25.9142 16.0105 26.5342 15.5705 26.9942C15.1305 27.4476 14.5105 27.6742 13.7105 27.6742C13.1772 27.6742 12.7139 27.5842 12.3205 27.4042C11.9272 27.2176 11.6239 26.9609 11.4105 26.6342C11.1972 26.3076 11.0805 25.9309 11.0605 25.5042H12.7305C12.7705 25.7109 12.8672 25.8842 13.0205 26.0242C13.1739 26.1576 13.3839 26.2242 13.6505 26.2242C13.9639 26.2242 14.1972 26.1242 14.3505 25.9242C14.5039 25.7242 14.5805 25.4576 14.5805 25.1242C14.5805 24.7976 14.5005 24.5476 14.3405 24.3742C14.1805 24.2009 13.9472 24.1142 13.6405 24.1142C13.4139 24.1142 13.2272 24.1709 13.0805 24.2842C12.9339 24.3909 12.8372 24.5342 12.7905 24.7142H11.1405V20.3642H15.8105V21.8642Z" fill="#2E2A94"/>
<path d="M17.1745 23.9242C17.1745 22.7776 17.3945 21.8742 17.8345 21.2142C18.2811 20.5542 18.9978 20.2242 19.9845 20.2242C20.9711 20.2242 21.6845 20.5542 22.1245 21.2142C22.5711 21.8742 22.7945 22.7776 22.7945 23.9242C22.7945 25.0842 22.5711 25.9942 22.1245 26.6542C21.6845 27.3142 20.9711 27.6442 19.9845 27.6442C18.9978 27.6442 18.2811 27.3142 17.8345 26.6542C17.3945 25.9942 17.1745 25.0842 17.1745 23.9242ZM21.1145 23.9242C21.1145 23.2509 21.0411 22.7342 20.8945 22.3742C20.7478 22.0076 20.4445 21.8242 19.9845 21.8242C19.5245 21.8242 19.2211 22.0076 19.0745 22.3742C18.9278 22.7342 18.8545 23.2509 18.8545 23.9242C18.8545 24.3776 18.8811 24.7542 18.9345 25.0542C18.9878 25.3476 19.0945 25.5876 19.2545 25.7742C19.4211 25.9542 19.6645 26.0442 19.9845 26.0442C20.3045 26.0442 20.5445 25.9542 20.7045 25.7742C20.8711 25.5876 20.9811 25.3476 21.0345 25.0542C21.0878 24.7542 21.1145 24.3776 21.1145 23.9242Z" fill="#2E2A94"/>
<path d="M23.6979 23.9242C23.6979 22.7776 23.9179 21.8742 24.3579 21.2142C24.8046 20.5542 25.5212 20.2242 26.5079 20.2242C27.4946 20.2242 28.2079 20.5542 28.6479 21.2142C29.0946 21.8742 29.3179 22.7776 29.3179 23.9242C29.3179 25.0842 29.0946 25.9942 28.6479 26.6542C28.2079 27.3142 27.4946 27.6442 26.5079 27.6442C25.5212 27.6442 24.8046 27.3142 24.3579 26.6542C23.9179 25.9942 23.6979 25.0842 23.6979 23.9242ZM27.6379 23.9242C27.6379 23.2509 27.5646 22.7342 27.4179 22.3742C27.2712 22.0076 26.9679 21.8242 26.5079 21.8242C26.0479 21.8242 25.7446 22.0076 25.5979 22.3742C25.4512 22.7342 25.3779 23.2509 25.3779 23.9242C25.3779 24.3776 25.4046 24.7542 25.4579 25.0542C25.5112 25.3476 25.6179 25.5876 25.7779 25.7742C25.9446 25.9542 26.1879 26.0442 26.5079 26.0442C26.8279 26.0442 27.0679 25.9542 27.2279 25.7742C27.3946 25.5876 27.5046 25.3476 27.5579 25.0542C27.6112 24.7542 27.6379 24.3776 27.6379 23.9242Z" fill="#2E2A94"/>
</g>
</svg>
