<svg width="84" height="89" viewBox="0 0 84 89" fill="none" xmlns="http://www.w3.org/2000/svg">
<path d="M43.9359 89V88.9106H42.0098V88.8212H40.7234V88.7317H39.8085V88.6423H39.1688V88.5529H38.4328V88.4634H37.793V88.374H37.2427V88.2846H36.7818V88.1952H36.2315V88.1057H35.7706V88.0163H35.3166V87.9269H34.9451V87.8375H34.5805V87.748H34.216V87.6586H33.7551V87.5692H33.3905V87.4798H33.1153V87.3903H32.7439V87.3009H32.4687V87.2115H32.1041V87.1221H31.829V87.0326H31.4644V86.9432H31.1892V86.8538H31.0035V86.7644H30.7283V86.6749H30.4532V86.5855H30.178V86.4961H29.9028V86.4066H29.6277V86.3172H29.3525V86.2278H29.0774V86.1384H28.8916V86.0489H28.6165V85.9595H28.4376V85.8701H28.1625V85.7807H27.9767V85.6912H27.7016V85.6018H27.5158V85.5124H27.2407V85.423H27.0618V85.3335H26.8761V85.2441H26.6904V85.1547H26.5115V85.0652H26.2364V84.9758H26.0506V84.8864H25.8649V84.797H25.686V84.7075H25.5003V84.6181H25.3146V84.5287H25.1357V84.4393H24.95V84.3498H24.7643V84.2604H24.5854V84.171H24.3997V84.0816H24.2139V83.9921H24.0351V83.9027H23.8494V83.8133H23.6636V83.7239H23.4848V83.6344H23.299V83.545H23.2096V83.4556H23.0239V83.3661H22.8382V83.2767H22.6593V83.1873H22.563V83.0979H22.3841V83.0084H22.1984V82.919H22.0127V82.8296H21.9233V82.7402H21.7375V82.6507H21.5587V82.5613H21.4624V82.4719H21.2835V82.3825H21.1872V82.293H21.0083V82.2036H20.8226V82.1142H20.7332V82.0247H20.5475V81.9353H20.458V81.8459H20.2723V81.7565H20.1829V81.667H19.9971V81.5776H19.9077V81.4882H19.722V81.3988H19.6326V81.3093H19.4468V81.2199H19.3574V81.1305H19.1717V81.0411H19.0822V80.9516H18.9859V80.8622H18.8071V80.7728H18.7108V80.6833H18.5319V80.5939H18.4356V80.5045H18.3462V80.4151H18.1605V80.3256H18.071V80.2362H17.9816V80.1468H17.7959V80.0574H17.7064V79.9679H17.6101V79.8785H17.4313V79.7891H17.335V79.6997H17.2456V79.6102H17.1561V79.5208H16.9704V79.4314H16.881V79.3419H16.7847V79.2525H16.6952V79.1631H16.5095V79.0737H16.4201V78.9842H16.3307V78.8948H16.2343V78.8054H16.1449V78.716H15.9592V78.6265H15.8698V78.5371H15.7803V78.4477H15.684V78.3583H15.5946V78.2688H15.5052V78.1794H15.3194V78.09H15.23V78.0006H15.1337V77.9111H15.0443V77.8217H14.9549V77.7323H14.8586V77.6428H14.7691V77.5534H14.5834V77.464H14.494V77.3746H14.4045V77.2851H14.3082V77.1957H14.2188V77.1063H14.1294V77.0169H14.0331V76.9274H13.9437V76.838H13.8542V76.7486H13.7579V76.6591H13.6685V76.5697H13.5791V76.4803H13.4828V76.3909H13.3933V76.3015H13.3039V76.212H13.2076V76.1226H13.1182V76.0332H13.0288V75.9437H12.9324V75.8543H12.843V75.7649H12.7536V75.6755H12.6573V75.586H12.5679V75.4966H12.4784V75.4072H12.3821V75.3178H12.2927V75.2283H12.2033V75.1389H12.107V75.0495H12.0175V74.9601H11.9281V74.8706H11.8318V74.7812H11.7424V74.5955H11.653V74.506H11.5567V74.4166H11.4672V74.3272H11.3778V74.2378H11.2815V74.1483H11.1921V74.0589H11.1026V73.8732H11.0063V73.7837H10.9169V73.6943H10.8275V73.6049H10.7312V73.5155H10.6418V73.426H10.5523V73.2403H10.456V73.1509H10.3666V73.0615H10.2772V72.972H10.1809V72.8826H10.0914V72.6969H10.002V72.6074H9.9057V72.518H9.81628V72.4286H9.72685V72.2429H9.63055V72.1534H9.54112V72.064H9.45169V71.9746H9.35539V71.7888H9.26596V71.6994H9.17653V71.61H9.08023V71.4243H8.9908V71.3348H8.90137V71.2454H8.80507V71.0597H8.71564V70.9703H8.62622V70.8808H8.52991V70.6951H8.44049V70.6057H8.35106V70.4199H8.25475V70.3305H8.16533V70.1448H8.0759V70.0554H7.97959V69.9659H7.89017V69.7802H7.80074V69.6908H7.70444V69.505H7.61501V69.4156H7.52558V69.2299H7.42928V69.1404H7.33985V68.9547H7.25042V68.8653H7.15412V68.6796H7.06469V68.4938H6.97527V68.4044H6.87896V68.2187H6.78953V68.1292H6.70011V67.9435H6.6038V67.8541H6.51438V67.6684H6.42495V67.4826H6.32864V67.3932H6.23922V67.2075H6.14979V67.0217H6.05349V66.836H5.96406V66.7466H5.87463V66.5608H5.77833V66.3751H5.6889V66.1894H5.59947V66.0999H5.50317V65.9142H5.41374V65.7285H5.32432V65.5428H5.22801V65.357H5.13858V65.1713H5.04916V64.9856H4.95285V64.7998H4.86343V64.6141H4.774V64.4284H4.67769V64.2426H4.58827V64.0569H4.49884V63.8712H4.40254V63.6854H4.31311V63.4997H4.22368V63.314H4.12738V63.1282H4.03795V62.8531H3.94852V62.6673H3.85222V62.4816H3.76279V62.2959H3.67337V62.1101H3.57706V61.835H3.48763V61.6493H3.39821V61.3741H3.3019V61.1884H3.21247V60.9132H3.12305V60.7275H3.02674V60.4523H2.93732V60.1772H2.84789V59.9914H2.75158V59.7163H2.66216V59.4411H2.57273V59.166H2.47643V58.8908H2.387V58.6156H2.29757V58.3405H2.20127V58.0653H2.11184V57.8796H2.02241V57.515H1.92611V57.2398H1.83668V56.8753H1.74726V56.5107H1.65095V56.2355H1.56152V55.8709H1.4721V55.5958H1.37579V55.1349H1.28637V54.7703H1.19694V54.4057H1.10063V53.9448H1.01121V53.5802H0.921781V53.1193H0.825475V52.569H0.736049V52.0187H0.646622V51.5578H0.550317V50.9181H0.46089V50.182H0.371464V49.446H0.275158V48.5311H0.185732V47.341H0.0963055V45.2292H0V43.6677H0.0963055V41.6521H0.185732V40.4621H0.275158V39.4508H0.371464V38.7148H0.46089V38.0751H0.550317V37.4353H0.646622V36.885H0.736049V36.3347H0.825475V35.8738H0.921781V35.3235H1.01121V34.9589H1.10063V34.5943H1.19694V34.1334H1.28637V33.7688H1.37579V33.4042H1.4721V33.0397H1.56152V32.7645H1.65095V32.3999H1.74726V32.1248H1.83668V31.7602H1.92611V31.3956H2.02241V31.1204H2.11184V30.8453H2.20127V30.5701H2.29757V30.2949H2.387V30.0198H2.47643V29.7446H2.57273V29.4695H2.66216V29.1943H2.75158V29.0086H2.84789V28.7334H2.93732V28.5477H3.02674V28.2725H3.12305V27.9974H3.21247V27.8116H3.3019V27.5365H3.39821V27.3508H3.48763V27.0756H3.57706V26.8899H3.67337V26.7041H3.76279V26.5184H3.85222V26.2432H3.94852V26.0575H4.03795V25.8718H4.12738V25.686H4.22368V25.5003H4.31311V25.2252H4.40254V25.0394H4.49884V24.8537H4.58827V24.668H4.67769V24.4822H4.774V24.2965H4.86343V24.1108H4.95285V23.925H5.04916V23.7393H5.13858V23.5536H5.22801V23.4641H5.32432V23.2784H5.41374V23.0927H5.50317V22.9069H5.59947V22.7212H5.6889V22.5355H5.77833V22.4461H5.87463V22.2603H5.96406V22.0746H6.05349V21.8889H6.14979V21.7994H6.23922V21.6137H6.32864V21.428H6.42495V21.3385H6.51438V21.1528H6.6038V20.9671H6.70011V20.8776H6.78953V20.6919H6.87896V20.6025H6.97527V20.4168H7.06469V20.231H7.15412V20.1416H7.25042V19.9559H7.33985V19.8664H7.42928V19.6807H7.52558V19.5913H7.61501V19.4056H7.70444V19.3161H7.80074V19.1304H7.89017V19.041H7.97959V18.8552H8.0759V18.7658H8.16533V18.6764H8.25475V18.4906H8.35106V18.4012H8.44049V18.2155H8.52991V18.1261H8.62622V18.0366H8.71564V17.8509H8.80507V17.7615H8.90137V17.5757H8.9908V17.4863H9.08023V17.3969H9.17653V17.3075H9.26596V17.1217H9.35539V17.0323H9.45169V16.9429H9.54112V16.7572H9.63055V16.6677H9.72685V16.5783H9.81628V16.4889H9.9057V16.3031H10.002V16.2137H10.0914V16.1243H10.1809V16.0349H10.2772V15.8491H10.3666V15.7597H10.456V15.6703H10.5523V15.5808H10.6418V15.4914H10.7312V15.402H10.8275V15.2163H10.9169V15.1268H11.0063V15.0374H11.1026V14.948H11.1921V14.8586H11.2815V14.7691H11.3778V14.5834H11.4672V14.494H11.5567V14.4045H11.653V14.3151H11.7424V14.2257H11.8318V14.1363H11.9281V14.0468H12.0175V13.9574H12.107V13.868H12.2033V13.7786H12.2927V13.6891H12.3821V13.5997H12.4784V13.5103H12.5679V13.4209H12.6573V13.2351H12.7536V13.1457H12.843V13.0563H12.9324V12.9668H13.0288V12.8774H13.1182V12.788H13.2076V12.6986H13.3039V12.6091H13.3933V12.5197H13.4828V12.4303H13.5791V12.3409H13.7579V12.2514H13.8542V12.162H13.9437V12.0726H14.0331V11.9832H14.1294V11.8937H14.2188V11.8043H14.3082V11.7149H14.4045V11.6254H14.494V11.536H14.5834V11.4466H14.6797V11.3572H14.7691V11.2677H14.8586V11.1783H14.9549V11.0889H15.1337V10.9995H15.23V10.91H15.3194V10.8206H15.4089V10.7312H15.5052V10.6418H15.5946V10.5523H15.684V10.4629H15.8698V10.3735H15.9592V10.284H16.0555V10.1946H16.1449V10.1052H16.2343V10.0158H16.3307V9.92634H16.5095V9.83692H16.6058V9.74749H16.6952V9.65806H16.881V9.56864H16.9704V9.47921H17.0598V9.38978H17.1561V9.30036H17.335V9.21093H17.4313V9.1215H17.5207V9.03208H17.6101V8.94265H17.7959V8.85322H17.8853V8.7638H17.9816V8.67437H18.1605V8.58494H18.2568V8.49552H18.3462V8.40609H18.5319V8.31666H18.6213V8.22724H18.8071V8.13781H18.8965V8.04839H18.9859V7.95896H19.1717V7.86953H19.2611V7.78011H19.4468V7.69068H19.5362V7.60125H19.6326V7.51183H19.8114V7.4224H19.9077V7.33297H20.0866V7.24355H20.1829V7.15412H20.3617V7.06469H20.5475V6.97527H20.6369V6.88584H20.8226V6.79641H20.912V6.70699H21.0978V6.61756H21.1872V6.52813H21.3729V6.43871H21.5587V6.34928H21.6481V6.25986H21.8338V6.17043H22.0127V6.081H22.109V5.99158H22.2878V5.90215H22.4736V5.81272H22.6593V5.7233H22.7487V5.63387H22.9345V5.54444H23.1133V5.45502H23.2096V5.36559H23.3885V5.27616H23.5742V5.18674H23.7599V5.09731H23.9388V5.00788H24.1245V4.91846H24.3102V4.82903H24.4891V4.7396H24.6748V4.65018H24.8606V4.56075H25.0394V4.47133H25.2251V4.3819H25.4109V4.29247H25.5897V4.20305H25.7755V4.11362H25.9612V4.02419H26.1401V3.93477H26.4152V3.84534H26.6009V3.75591H26.7867V3.66649H26.9655V3.57706H27.1513V3.48763H27.4264V3.39821H27.6122V3.30878H27.8873V3.21935H28.0662V3.12993H28.3413V3.0405H28.5271V2.95107H28.8022V2.86165H28.9879V2.77222H29.2631V2.6828H29.442V2.59337H29.7171V2.50394H29.9923V2.41452H30.2674V2.32509H30.5426V2.23566H30.8177V2.14624H31.0929V2.05681H31.3681V1.96738H31.6432V1.87796H32.0147V1.78853H32.2898V1.6991H32.6544V1.60968H32.9296V1.52025H33.2942V1.43082H33.5693V1.3414H33.9408V1.25197H34.3948V1.16254H34.7663V1.07312H35.1309V0.983692H35.5917V0.894265H35.9563V0.804839H36.5066V0.715412H37.057V0.625986H37.5179V0.536559H38.0682V0.447132H38.7973V0.357706H39.5334V0.268279H40.1731V0.178853H41.3701V0.0894265H42.6496V0H46.8732V0.0894265H48.3385V0.178853H49.2534V0.268279H50.1751V0.357706H51.0006V0.447132H51.5509V0.536559H52.1012V0.625986H52.6516V0.715412H53.2019V0.804839H53.6559V0.894265H54.1168V0.983692H54.4814V1.07312H54.8528V1.16254H55.2174V1.25197H55.6783V1.3414H56.0429V1.43082H56.4075V1.52025H56.7789V1.60968H57.0541V1.6991H57.3293V1.78853H57.6938V1.87796H57.969V1.96738H58.2442V2.05681H58.5193V2.14624H58.8839V2.23566H59.1591V2.32509H59.4342V2.41452H59.62V2.50394H59.8951V2.59337H60.1703V2.6828H60.356V2.77222H60.6312V2.86165H60.9063V2.95107H61.0852V3.0405H61.3603V3.12993H61.6355V3.21935H61.8212V3.30878H62.0964V3.39821H62.2821V3.48763H62.461V3.57706H62.6467V3.66649H62.9219V3.75591H63.1076V3.84534H63.2864V3.93477H63.4722V4.02419H63.7473V4.11362H63.9331V4.20305H64.1119V4.29247H64.2977V4.3819H64.4834V4.47133H64.6622V4.56075H64.848V4.65018H65.0337V4.7396H65.2125V4.82903H65.3983V4.91846H65.584V5.00788H65.7629V5.09731H65.9486V5.18674H66.038V5.27616H66.2238V5.36559H66.4095V5.45502H66.5883V5.54444H66.7741V5.63387H66.9598V5.7233H67.1387V5.81272H67.235V5.90215H67.4138V5.99158H67.5995V6.081H67.689V6.17043H67.8747V6.25986H68.0604V6.34928H68.1499V6.43871H68.3356V6.52813H68.425V6.61756H68.6108V6.70699H68.7896V6.79641H68.8859V6.88584H69.0648V6.97527H69.2505V7.06469H69.3399V7.15412H69.5257V7.24355H69.6151V7.33297H69.8008V7.4224H69.8902V7.51183H70.076V7.60125H70.1654V7.69068H70.2617V7.78011H70.4406V7.86953H70.5369V7.95896H70.7157V8.04839H70.812V8.13781H70.9909V8.22724H71.0872V8.31666H71.1766V8.40609H71.3623V8.49552H71.4518V8.58494H71.6375V8.67437H71.7269V8.7638H71.8164V8.85322H72.0021V8.94265H72.0915V9.03208H72.1878V9.1215H72.3667V9.21093H72.463V9.30036H72.5524V9.38978H72.6418V9.47921H72.7381V9.56864H72.917V9.65806H73.0133V9.74749H73.1027V9.83692H73.1921V9.92634H73.3779V10.0158H73.4673V10.1052H73.5636V10.1946H73.653V10.284H73.8388V10.3735H73.9282V10.4629H74.0176V10.5523H74.1139V10.6418H74.2928V10.7312H74.3891V10.8206H74.4785V10.91H74.5679V10.9995H74.6642V11.0889H74.7537V11.1783H74.8431V11.2677H74.9394V11.3572H75.0288V11.4466H75.1182V11.536H75.2146V11.6254H75.3934V11.7149H75.4897V11.8043H75.5791V11.8937H75.6686V11.9832H75.7649V12.0726H75.8543V12.162H75.9437V12.2514H76.04V12.3409H76.1295V12.4303H76.2189V12.5197H76.3152V12.6091H76.4046V12.6986H76.494V12.788H76.5903V12.8774H76.6798V12.9668H76.7692V13.0563H76.8655V13.1457H76.9549V13.2351H77.0444V13.3245H77.1407V13.414H77.2301V13.5034H77.3195V13.5928H77.4158V13.6823H77.5052V13.7717H77.5947V13.8611H77.691V13.9505H77.7804V14.04H77.8698V14.1294H77.9661V14.2188H78.0556V14.3082H78.145V14.494H78.2413V14.5834H78.3307V14.6728H78.4202V14.7623H78.5165V14.8517H78.6059V14.9411H78.6953V15.0305H78.7916V15.2163H78.881V15.3057H78.9705V15.3951H79.0668V15.4845H79.1562V15.574H79.2456V15.7597H79.3419V15.8491H79.4314V15.9386H79.5208V16.028H79.6171V16.1174H79.7065V16.3031H79.796V16.3926H79.8923V16.482H79.9817V16.5714H80.0711V16.6608H80.1674V16.8466H80.2568V16.936H80.3463V17.0254H80.4426V17.2112H80.532V17.3006H80.6214V17.39H80.7177V17.5757H80.8072V17.6652H80.8966V17.7546H80.9929V17.9403H81.0823V18.0298H81.1717V18.2155H81.268V18.3049H81.3575V18.3943H81.4469V18.5801H81.5432V18.6695H81.6326V18.7589H81.7221V18.9447H81.8184V19.0341H81.9078V19.1235H81.9972V19.3092H82.0935V19.495H82.183V19.5844H82.2724V19.7701H82.3687V19.8596H82.4581V20.0453H82.5475V20.1347H82.6438V20.3205H82.7333V20.4099H82.8227V20.5956H82.919V20.685H83.0084V20.8708H83.0979V20.9602H83.1942V21.1459H83.2836V21.3317H83.373V21.4211H83.4693V21.6068H83.5587V21.7926H83.6482V22.1571H83.7445V22.9826H83.6482V23.2578H83.5587V23.4435H83.4693V23.6292H83.373V23.7187H83.2836V23.8081H83.1942V23.8975H83.0979V24.0832H82.919V24.1727H82.8227V24.2621H82.5475V24.3515H82.183V24.441H81.9078V24.3515H81.268V24.2621H81.0823V24.1727H80.8966V24.0832H80.7177V23.9938H80.6214V23.9044H80.532V23.815H80.4426V23.7255H80.3463V23.6361H80.2568V23.4504H80.1674V23.2646H80.0711V23.1752H79.9817V22.9895H79.8923V22.8038H79.796V22.7143H79.7065V22.5286H79.6171V22.4392H79.5208V22.2534H79.4314V22.164H79.3419V21.9783H79.2456V21.8889H79.1562V21.7031H79.0668V21.6137H78.9705V21.428H78.881V21.3385H78.7916V21.1528H78.6953V21.0634H78.6059V20.8776H78.5165V20.7882H78.4202V20.6988H78.3307V20.5131H78.2413V20.4236H78.145V20.3342H78.0556V20.1485H77.9661V20.0591H77.8698V19.9696H77.7804V19.7839H77.691V19.6945H77.5947V19.5087H77.5052V19.4193H77.4158V19.3299H77.3195V19.1442H77.2301V19.0547H77.1407V18.9653H77.0444V18.8759H76.9549V18.7864H76.8655V18.6007H76.7692V18.5113H76.6798V18.4219H76.5903V18.3324H76.494V18.243H76.4046V18.0573H76.3152V17.9678H76.2189V17.8784H76.1295V17.789H76.04V17.6996H75.9437V17.5138H75.8543V17.4244H75.7649V17.335H75.6686V17.2456H75.5791V17.1561H75.4897V17.0667H75.3934V16.9773H75.304V16.8879H75.2146V16.7021H75.1182V16.6127H75.0288V16.5233H74.9394V16.4338H74.8431V16.3444H74.7537V16.255H74.6642V16.1656H74.5679V16.0761H74.4785V15.9867H74.3891V15.8973H74.2928V15.8079H74.2034V15.7184H74.1139V15.629H74.0176V15.5396H73.9282V15.4501H73.8388V15.3607H73.7425V15.2713H73.653V15.1819H73.5636V15.0924H73.4673V15.003H73.3779V14.9136H73.2885V14.8242H73.1921V14.7347H73.1027V14.6453H73.0133V14.5559H72.917V14.4665H72.7381V14.377H72.6418V14.2876H72.5524V14.1982H72.463V14.1088H72.3667V14.0193H72.2772V13.9299H72.1878V13.8405H72.0915V13.751H72.0021V13.6616H71.9127V13.5722H71.8164V13.4828H71.6375V13.3933H71.5412V13.3039H71.4518V13.2145H71.3623V13.1251H71.1766V13.0356H71.0872V12.9462H70.9909V12.8568H70.9015V12.7674H70.7157V12.6779H70.6263V12.5885H70.5369V12.4991H70.4406V12.4096H70.2617V12.3202H70.1654V12.2308H70.076V12.1414H69.9865V12.0519H69.8902V11.9625H69.7114V11.8731H69.6151V11.7837H69.5257V11.6942H69.3399V11.6048H69.2505V11.5154H69.0648V11.426H68.9753V11.3365H68.8859V11.2471H68.7002V11.1577H68.6108V11.0682H68.425V10.9788H68.3356V10.8894H68.1499V10.8H68.0604V10.7105H67.9641V10.6211H67.7853V10.5317H67.689V10.4423H67.5101V10.3528H67.4138V10.2634H67.235V10.174H67.1387V10.0846H66.9598V9.99513H66.7741V9.90571H66.6846V9.81628H66.4989V9.72685H66.3132V9.63743H66.2238V9.548H66.038V9.45857H65.9486V9.36915H65.7629V9.27972H65.584V9.19029H65.4877V9.10087H65.3089V9.01144H65.1231V8.92201H64.9374V8.83259H64.7585V8.74316H64.6622V8.65373H64.4834V8.56431H64.2977V8.47488H64.1119V8.38546H63.9331V8.29603H63.7473V8.2066H63.5616V8.11717H63.3827V8.02775H63.197V7.93832H63.1076V7.8489H62.9219V7.75947H62.7361V7.67004H62.461V7.58062H62.2821V7.49119H62.0964V7.40176H61.9107V7.31234H61.6355V7.22291H61.4566V7.13348H61.2709V7.04406H61.0852V6.95463H60.9063V6.8652H60.6312V6.77578H60.4454V6.68635H60.1703V6.59692H59.9845V6.5075H59.7094V6.41807H59.4342V6.32865H59.2554V6.23922H58.9802V6.14979H58.7051V6.06037H58.5193V5.97094H58.2442V5.88151H57.969V5.79209H57.6938V5.70266H57.4187V5.61323H57.1435V5.52381H56.7789V5.43438H56.5038V5.34495H56.2286V5.25553H55.9535V5.1661H55.582V5.07667H55.2174V4.98725H54.8528V4.89782H54.4814V4.80839H54.1168V4.71897H53.6559V4.62954H53.2913V4.54011H52.9267V4.45069H52.3764V4.36126H51.8261V4.27184H51.2758V4.18241H50.7255V4.09298H50.1751V4.00356H49.2534V3.91413H48.3385V3.8247H47.3273V3.73528H42.4707V3.8247H41.2738V3.91413H40.3589V4.00356H39.6228V4.09298H38.8936V4.18241H38.3433V4.27184H37.793V4.36126H37.3321V4.45069H36.7818V4.54011H36.3209V4.62954H35.9563V4.71897H35.5917V4.80839H35.1309V4.89782H34.7663V4.98725H34.3948V5.07667H34.1196V5.1661H33.7551V5.25553H33.4799V5.34495H33.1153V5.43438H32.8402V5.52381H32.565V5.61323H32.2898V5.70266H32.0147V5.79209H31.7395V5.88151H31.4644V5.97094H31.1892V6.06037H30.914V6.14979H30.6389V6.23922H30.4532V6.32865H30.178V6.41807H29.9923V6.5075H29.7171V6.59692H29.442V6.68635H29.2631V6.77578H28.9879V6.8652H28.8022V6.95463H28.6165V7.04406H28.4376V7.13348H28.1625V7.22291H27.9767V7.31234H27.791V7.40176H27.6122V7.49119H27.4264V7.58062H27.1513V7.67004H26.9655V7.75947H26.7867V7.8489H26.6009V7.93832H26.4152V8.02775H26.3258V8.11717H26.1401V8.2066H25.9612V8.29603H25.7755V8.38546H25.5897V8.47488H25.4109V8.56431H25.2251V8.65373H25.0394V8.74316H24.95V8.83259H24.7643V8.92201H24.5854V9.01144H24.3997V9.10087H24.3102V9.19029H24.1245V9.27972H23.9388V9.36915H23.7599V9.45857H23.6636V9.548H23.4848V9.63743H23.299V9.72685H23.2096V9.81628H23.0239V9.90571H22.9345V9.99513H22.7487V10.0846H22.6593V10.174H22.4736V10.2634H22.3841V10.3528H22.1984V10.4423H22.0127V10.5317H21.9233V10.6211H21.8338V10.7105H21.6481V10.8H21.5587V10.8894H21.3729V10.9788H21.2835V11.0682H21.0978V11.1577H21.0083V11.2471H20.912V11.3365H20.7332V11.426H20.6369V11.5154H20.458V11.6048H20.3617V11.6942H20.2723V11.7837H20.0866V11.8731H19.9971V11.9625H19.9077V12.0519H19.8114V12.1414H19.6326V12.2308H19.5362V12.3202H19.4468V12.4096H19.3574V12.4991H19.1717V12.5885H19.0822V12.6779H18.9859V12.7674H18.8071V12.8568H18.7108V12.9462H18.6213V13.0356H18.5319V13.1251H18.4356V13.2145H18.3462V13.3039H18.1605V13.3933H18.071V13.4828H17.9816V13.5722H17.8853V13.6616H17.7959V13.751H17.7064V13.8405H17.6101V13.9299H17.4313V14.0193H17.335V14.1088H17.2456V14.1982H17.1561V14.2876H17.0598V14.377H16.9704V14.4665H16.881V14.5559H16.7847V14.6453H16.6952V14.7347H16.6058V14.8242H16.5095V14.9136H16.4201V15.003H16.3307V15.0924H16.2343V15.1819H16.1449V15.2713H15.9592V15.3607H15.8698V15.4501H15.7803V15.5396H15.684V15.629H15.5946V15.8147H15.5052V15.9042H15.4089V15.9936H15.3194V16.083H15.23V16.1724H15.1337V16.2619H15.0443V16.3513H14.9549V16.4407H14.8586V16.5301H14.7691V16.6196H14.6797V16.709H14.5834V16.7984H14.494V16.8879H14.4045V16.9773H14.3082V17.0667H14.2188V17.2524H14.1294V17.3419H14.0331V17.4313H13.9437V17.5207H13.8542V17.6101H13.7579V17.6996H13.6685V17.8853H13.5791V17.9747H13.4828V18.0642H13.3933V18.1536H13.3039V18.243H13.2076V18.3324H13.1182V18.5182H13.0288V18.6076H12.9324V18.697H12.843V18.7864H12.7536V18.9722H12.6573V19.0616H12.5679V19.151H12.4784V19.3368H12.3821V19.4262H12.2927V19.5156H12.2033V19.605H12.107V19.7908H12.0175V19.8802H11.9281V19.9696H11.8318V20.1554H11.7424V20.2448H11.653V20.3342H11.5567V20.5199H11.4672V20.6094H11.3778V20.7951H11.2815V20.8845H11.1921V20.974H11.1026V21.1597H11.0063V21.2491H10.9169V21.4348H10.8275V21.5243H10.7312V21.71H10.6418V21.7994H10.5523V21.9852H10.456V22.0746H10.3666V22.2603H10.2772V22.4461H10.1809V22.5355H10.0914V22.7212H10.002V22.8106H9.9057V22.9964H9.81628V23.0858H9.72685V23.2715H9.63055V23.4573H9.54112V23.5467H9.45169V23.7324H9.35539V23.9182H9.26596V24.1039H9.17653V24.1933H9.08023V24.379H8.9908V24.5648H8.90137V24.7505H8.80507V24.8399H8.71564V25.0257H8.62622V25.2114H8.52991V25.3971H8.44049V25.5829H8.35106V25.7686H8.25475V25.9543H8.16533V26.1401H8.0759V26.3258H7.97959V26.5115H7.89017V26.6973H7.80074V26.883H7.70444V27.0687H7.61501V27.2544H7.52558V27.5296H7.42928V27.7153H7.33985V27.9011H7.25042V28.0868H7.15412V28.2725H7.06469V28.5477H6.97527V28.7334H6.87896V29.0086H6.78953V29.1943H6.70011V29.4695H6.6038V29.6552H6.51438V29.9304H6.42495V30.1161H6.32864V30.3913H6.23922V30.6664H6.14979V30.9416H6.05349V31.2167H5.96406V31.4919H5.87463V31.767H5.77833V32.0422H5.6889V32.3174H5.59947V32.5925H5.50317V32.8677H5.41374V33.2323H5.32432V33.5968H5.22801V33.872H5.13858V34.2366H5.04916V34.6012H4.95285V34.9658H4.86343V35.3303H4.774V35.7912H4.67769V36.1558H4.58827V36.6167H4.49884V37.167H4.40254V37.6279H4.31311V38.1782H4.22368V38.818H4.12738V39.554H4.03795V40.2901H3.94852V41.4801H3.85222V43.0417H3.76279V45.979H3.85222V47.4442H3.94852V48.6343H4.03795V49.3703H4.12738V50.1064H4.22368V50.7461H4.31311V51.2964H4.40254V51.8467H4.49884V52.3076H4.58827V52.8579H4.67769V53.2225H4.774V53.5871H4.86343V53.9517H4.95285V54.4126H5.04916V54.7772H5.13858V55.0523H5.22801V55.4169H5.32432V55.7815H5.41374V56.0567H5.50317V56.4212H5.59947V56.6964H5.6889V56.9716H5.77833V57.2467H5.87463V57.5219H5.96406V57.797H6.05349V58.0722H6.14979V58.3474H6.23922V58.6225H6.32864V58.8083H6.42495V59.0834H6.51438V59.2691H6.6038V59.5443H6.70011V59.73H6.78953V60.0052H6.87896V60.1909H6.97527V60.4661H7.06469V60.6518H7.15412V60.8375H7.25042V61.0233H7.33985V61.2984H7.42928V61.4842H7.52558V61.6699H7.61501V61.8556H7.70444V62.0414H7.80074V62.3165H7.89017V62.5023H7.97959V62.688H8.0759V62.8737H8.16533V62.9631H8.25475V63.1489H8.35106V63.3346H8.44049V63.5203H8.52991V63.7061H8.62622V63.8918H8.71564V64.0775H8.80507V64.2633H8.90137V64.449H8.9908V64.5384H9.08023V64.7242H9.17653V64.9099H9.26596V65.0956H9.35539V65.185H9.45169V65.3708H9.54112V65.5565H9.63055V65.7422H9.72685V65.8317H9.81628V66.0174H9.9057V66.1068H10.002V66.2926H10.0914V66.382H10.1809V66.5677H10.2772V66.7534H10.3666V66.8429H10.456V67.0286H10.5523V67.118H10.6418V67.3038H10.7312V67.3932H10.8275V67.5789H10.9169V67.6684H11.0063V67.8541H11.1026V67.9435H11.1921V68.0329H11.2815V68.2187H11.3778V68.3081H11.4672V68.4938H11.5567V68.5833H11.653V68.6727H11.7424V68.8584H11.8318V68.9478H11.9281V69.1336H12.0175V69.223H12.107V69.3124H12.2033V69.4019H12.2927V69.5876H12.3821V69.677H12.4784V69.7664H12.5679V69.9522H12.6573V70.0416H12.7536V70.131H12.843V70.2204H12.9324V70.4062H13.0288V70.4956H13.1182V70.585H13.2076V70.6745H13.3039V70.8602H13.3933V70.9496H13.4828V71.039H13.5791V71.1285H13.6685V71.2179H13.7579V71.3073H13.8542V71.3967H13.9437V71.5825H14.0331V71.6719H14.1294V71.7613H14.2188V71.8508H14.3082V71.9402H14.4045V72.0296H14.494V72.119H14.5834V72.2085H14.6797V72.3942H14.7691V72.4836H14.8586V72.5731H14.9549V72.6625H15.0443V72.7519H15.1337V72.8413H15.23V72.9308H15.3194V73.0202H15.4089V73.1096H15.5052V73.199H15.5946V73.2885H15.684V73.3779H15.7803V73.4673H15.8698V73.5567H15.9592V73.6462H16.0555V73.7356H16.1449V73.825H16.2343V73.9145H16.3307V74.0039H16.4201V74.0933H16.5095V74.1827H16.6058V74.2722H16.6952V74.3616H16.7847V74.451H16.881V74.5404H16.9704V74.6299H17.1561V74.7193H17.2456V74.8087H17.335V74.8981H17.4313V74.9876H17.5207V75.077H17.6101V75.1664H17.7064V75.2558H17.7959V75.3453H17.9816V75.4347H18.071V75.5241H18.1605V75.6136H18.2568V75.703H18.3462V75.7924H18.4356V75.8818H18.5319V75.9713H18.7108V76.0607H18.8071V76.1501H18.8965V76.2395H18.9859V76.329H19.1717V76.4184H19.2611V76.5078H19.3574V76.5972H19.4468V76.6867H19.6326V76.7761H19.722V76.8655H19.8114V76.9549H19.9971V77.0444H20.0866V77.1338H20.1829V77.2232H20.2723V77.3127H20.458V77.4021H20.5475V77.4915H20.7332V77.5809H20.8226V77.6704H20.912V77.7598H21.0978V77.8492H21.1872V77.9386H21.3729V78.0281H21.4624V78.1175H21.5587V78.2069H21.7375V78.2963H21.8338V78.3858H22.0127V78.4752H22.109V78.5646H22.2878V78.6541H22.3841V78.7435H22.563V78.8329H22.6593V78.9223H22.8382V79.0118H23.0239V79.1012H23.1133V79.1906H23.299V79.28H23.3885V79.3695H23.5742V79.4589H23.6636V79.5483H23.8494V79.6377H24.0351V79.7272H24.2139V79.8166H24.3102V79.906H24.4891V79.9954H24.6748V80.0849H24.8606V80.1743H24.95V80.2637H25.1357V80.3532H25.3146V80.4426H25.5003V80.532H25.686V80.6214H25.8649V80.7109H26.0506V80.8003H26.2364V80.8897H26.4152V80.9791H26.5115V81.0686H26.6904V81.158H26.8761V81.2474H27.0618V81.3368H27.2407V81.4263H27.5158V81.5157H27.7016V81.6051H27.8873V81.6946H28.0662V81.784H28.3413V81.8734H28.5271V81.9628H28.7128V82.0523H28.8916V82.1417H29.1668V82.2311H29.3525V82.3205H29.6277V82.41H29.8134V82.4994H30.0886V82.5888H30.2674V82.6782H30.5426V82.7677H30.7283V82.8571H31.0035V82.9465H31.2786V83.036H31.5538V83.1254H31.829V83.2148H32.1041V83.3042H32.3793V83.3937H32.6544V83.4831H32.9296V83.5725H33.2942V83.6619H33.5693V83.7514H33.9408V83.8408H34.216V83.9302H34.5805V84.0196H34.9451V84.1091H35.3166V84.1985H35.7706V84.2879H36.1421V84.3773H36.5066V84.4668H37.057V84.5562H37.5179V84.6456H38.0682V84.7351H38.5222V84.8245H39.2582V84.9139H39.9943V85.0033H40.7234V85.0928H41.8241V85.1822H43.3856V85.2716H46.3229V85.1822H47.8776V85.0928H48.7994V85.0033H49.7142V84.9139H50.4503V84.8245H51.0006V84.7351H51.5509V84.6456H52.1012V84.5562H52.6516V84.4668H53.1056V84.3773H53.477V84.2879H53.9311V84.1985H54.3025V84.1091H54.6671V84.0196H55.0317V83.9302H55.4926V83.8408H55.7677V83.7514H56.0429V83.6619H56.3181V83.5725H56.6826V83.4831H56.9578V83.3937H57.233V83.3042H57.6044V83.2148H57.8796V83.1254H58.1547V83.036H58.3336V82.9465H58.6087V82.8571H58.8839V82.7677H59.0696V82.6782H59.3448V82.5888H59.62V82.4994H59.8057V82.41H60.0808V82.3205H60.356V82.2311H60.5349V82.1417H60.7206V82.0523H60.9957V81.9628H61.1815V81.8734H61.3603V81.784H61.5461V81.6946H61.8212V81.6051H62.007V81.5157H62.1858V81.4263H62.3715V81.3368H62.5573V81.2474H62.8324V81.158H63.0113V81.0686H63.197V80.9791H63.2864V80.8897H63.4722V80.8003H63.6579V80.7109H63.8368V80.6214H64.0225V80.532H64.2082V80.4426H64.3871V80.3532H64.5728V80.2637H64.7585V80.1743H64.848V80.0849H65.0337V79.9954H65.2125V79.906H65.3983V79.8166H65.4877V79.7272H65.6734V79.6377H65.8592V79.5483H65.9486V79.4589H66.1343V79.3695H66.3132V79.28H66.4095V79.1906H66.5883V79.1012H66.6846V79.0118H66.8635V78.9223H67.0492V78.8329H67.1387V78.7435H67.3244V78.6541H67.5101V78.5646H67.5995V78.4752H67.689V78.3858H67.8747V78.2963H67.9641V78.2069H68.1499V78.1175H68.2393V78.0281H68.425V77.9386H68.5145V77.8492H68.6108V77.7598H68.7896V77.6704H68.8859V77.5809H69.0648V77.4915H69.1611V77.4021H69.3399V77.3127H69.4362V77.2232H69.5257V77.1338H69.7114V77.0444H69.8008V76.9549H69.8902V76.8655H69.9865V76.7761H70.1654V76.6867H70.2617V76.5972H70.3511V76.5078H70.4406V76.4184H70.6263V76.329H70.7157V76.2395H70.812V76.1501H70.9015V76.0607H71.0872V75.9713H71.1766V75.8818H71.266V75.7924H71.3623V75.703H71.5412V75.6136H71.6375V75.5241H71.7269V75.4347H71.8164V75.3453H71.9127V75.2558H72.0021V75.1664H72.0915V75.077H72.1878V74.9876H72.3667V74.8981H72.463V74.8087H72.5524V74.7193H72.6418V74.6299H72.7381V74.5404H72.8276V74.451H72.917V74.3616H73.0133V74.2722H73.1027V74.1827H73.1921V74.0933H73.2885V74.0039H73.4673V73.9145H73.5636V73.825H73.653V73.7356H73.7425V73.6462H73.8388V73.5567H73.9282V73.4673H74.0176V73.3779H74.1139V73.2885H74.2034V73.1027H74.2928V73.0133H74.3891V72.9239H74.4785V72.8344H74.5679V72.745H74.6642V72.6556H74.7537V72.5662H74.8431V72.4767H74.9394V72.3873H75.0288V72.2979H75.1182V72.2085H75.2146V72.119H75.304V72.0296H75.3934V71.9402H75.4897V71.8508H75.5791V71.7613H75.6686V71.5756H75.7649V71.4862H75.8543V71.3967H75.9437V71.3073H76.04V71.2179H76.1295V71.0322H76.2189V70.9427H76.3152V70.8533H76.4046V70.7639H76.494V70.6745H76.5903V70.585H76.6798V70.3993H76.7692V70.3099H76.8655V70.2204H76.9549V70.131H77.0444V70.0416H77.1407V69.8559H77.2301V69.7664H77.3195V69.677H77.4158V69.4913H77.5052V69.4019H77.5947V69.3124H77.691V69.1267H77.7804V69.0373H77.8698V68.9478H77.9661V68.7621H78.0556V68.6727H78.145V68.5833H78.2413V68.3975H78.3307V68.3081H78.4202V68.1224H78.5165V68.0329H78.6059V67.9435H78.6953V67.7578H78.7916V67.6684H78.881V67.4826H78.9705V67.3932H79.0668V67.2075H79.1562V67.118H79.2456V66.9323H79.3419V66.8429H79.4314V66.6571H79.5208V66.5677H79.6171V66.382H79.7065V66.2926H79.796V66.1068H79.8923V66.0174H79.9817V65.8317H80.0711V65.6459H80.1674V65.5565H80.2568V65.3708H80.3463V65.185H80.4426V65.0956H80.532V65.0062H80.6214V64.9168H80.8072V64.8273H80.9929V64.7379H81.1717V64.6485H81.3575V64.5591H82.3687V64.6485H82.7333V64.7379H82.8227V64.8273H83.0084V64.9168H83.0979V65.0062H83.1942V65.0956H83.2836V65.185H83.373V65.2745H83.4693V65.5496H83.5587V65.7354H83.6482V66.0105H83.7445V66.836H83.6482V67.1112H83.5587V67.2969H83.4693V67.4826H83.373V67.6684H83.2836V67.7578H83.1942V67.9435H83.0979V68.1292H83.0084V68.2187H82.919V68.4044H82.8227V68.4938H82.7333V68.6796H82.6438V68.769H82.5475V68.9547H82.4581V69.0441H82.3687V69.2299H82.2724V69.3193H82.183V69.505H82.0935V69.6908H81.9972V69.7802H81.9078V69.8696H81.8184V70.0554H81.7221V70.1448H81.6326V70.3305H81.5432V70.4199H81.4469V70.5094H81.3575V70.6951H81.268V70.7845H81.1717V70.8739H81.0823V71.0597H80.9929V71.1491H80.8966V71.2385H80.8072V71.4243H80.7177V71.5137H80.6214V71.6994H80.532V71.7888H80.4426V71.8783H80.3463V72.064H80.2568V72.1534H80.1674V72.2429H80.0711V72.3323H79.9817V72.518H79.8923V72.6074H79.796V72.6969H79.7065V72.7863H79.6171V72.8757H79.5208V73.0615H79.4314V73.1509H79.3419V73.2403H79.2456V73.3297H79.1562V73.4192H79.0668V73.5086H78.9705V73.6943H78.881V73.7837H78.7916V73.8732H78.6953V73.9626H78.6059V74.052H78.5165V74.2378H78.4202V74.3272H78.3307V74.4166H78.2413V74.506H78.145V74.5955H78.0556V74.6849H77.9661V74.7743H77.8698V74.8637H77.7804V74.9532H77.691V75.0426H77.5947V75.132H77.5052V75.2215H77.4158V75.3109H77.3195V75.4003H77.2301V75.4897H77.1407V75.6755H77.0444V75.7649H76.9549V75.8543H76.8655V75.9437H76.7692V76.0332H76.6798V76.1226H76.5903V76.212H76.494V76.3015H76.4046V76.3909H76.3152V76.4803H76.2189V76.5697H76.1295V76.6591H76.04V76.7486H75.9437V76.838H75.7649V76.9274H75.6686V77.0169H75.5791V77.1063H75.4897V77.1957H75.3934V77.2851H75.304V77.3746H75.2146V77.464H75.1182V77.5534H75.0288V77.6428H74.9394V77.7323H74.8431V77.8217H74.6642V77.9111H74.5679V78.0006H74.4785V78.09H74.3891V78.1794H74.2928V78.2688H74.2034V78.3583H74.1139V78.4477H74.0176V78.5371H73.8388V78.6265H73.7425V78.716H73.653V78.8054H73.5636V78.8948H73.3779V78.9842H73.2885V79.0737H73.1921V79.1631H73.1027V79.2525H72.917V79.3419H72.8276V79.4314H72.7381V79.5208H72.6418V79.6102H72.463V79.6997H72.3667V79.7891H72.2772V79.8785H72.1878V79.9679H72.0021V80.0574H71.9127V80.1468H71.8164V80.2362H71.6375V80.3256H71.5412V80.4151H71.4518V80.5045H71.266V80.5939H71.1766V80.6833H70.9909V80.7728H70.9015V80.8622H70.7157V80.9516H70.6263V81.0411H70.5369V81.1305H70.3511V81.2199H70.2617V81.3093H70.076V81.3988H69.9865V81.4882H69.8902V81.5776H69.7114V81.667H69.6151V81.7565H69.4362V81.8459H69.2505V81.9353H69.1611V82.0247H68.9753V82.1142H68.8859V82.2036H68.7002V82.293H68.5145V82.3825H68.425V82.4719H68.2393V82.5613H68.0604V82.6507H67.9641V82.7402H67.7853V82.8296H67.689V82.919H67.5101V83.0084H67.3244V83.0979H67.235V83.1873H67.0492V83.2767H66.8635V83.3661H66.6846V83.4556H66.4989V83.545H66.3132V83.6344H66.1343V83.7239H66.038V83.8133H65.8592V83.9027H65.6734V83.9921H65.4877V84.0816H65.3089V84.171H65.1231V84.2604H64.9374V84.3498H64.7585V84.4393H64.5728V84.5287H64.3871V84.6181H64.2082V84.7075H64.0225V84.797H63.8368V84.8864H63.5616V84.9758H63.3827V85.0652H63.197V85.1547H63.0113V85.2441H62.8324V85.3335H62.5573V85.423H62.3715V85.5124H62.1858V85.6018H62.007V85.6912H61.7318V85.7807H61.4566V85.8701H61.2709V85.9595H60.9957V86.0489H60.7206V86.1384H60.5349V86.2278H60.2597V86.3172H59.9845V86.4066H59.8057V86.4961H59.5305V86.5855H59.2554V86.6749H58.9802V86.7644H58.7051V86.8538H58.4299V86.9432H58.0584V87.0326H57.7833V87.1221H57.5081V87.2115H57.233V87.3009H56.8684V87.3903H56.5932V87.4798H56.2286V87.5692H55.8572V87.6586H55.4926V87.748H55.0317V87.8375H54.6671V87.9269H54.3025V88.0163H53.9311V88.1057H53.477V88.1952H52.9267V88.2846H52.3764V88.374H51.8261V88.4634H51.2758V88.5529H50.6292V88.6423H49.7142V88.7317H48.7994V88.8212H47.8776V88.9106H45.862V89" fill="url(#paint0_linear_27367_57169)"/>
<defs>
<linearGradient id="paint0_linear_27367_57169" x1="19.9559" y1="5.95718" x2="68.6039" y2="80.4288" gradientUnits="userSpaceOnUse">
<stop stop-color="#FFCF00"/>
<stop offset="1" stop-color="#FAAD19"/>
</linearGradient>
</defs>
</svg>
