<svg width="102" height="103" viewBox="0 0 102 103" fill="none" xmlns="http://www.w3.org/2000/svg">
<g filter="url(#filter0_d_11386_18062)">
<circle cx="50.9941" cy="51.2817" r="30" fill="#BDCBFF"/>
<path d="M44.9435 34.7236C45.5546 33.6651 47.0825 33.6651 47.6936 34.7236L63.9162 62.8218C64.5273 63.8804 63.7634 65.2035 62.5411 65.2035H30.096C28.8737 65.2035 28.1098 63.8804 28.721 62.8218L44.9435 34.7236Z" fill="#2E2A94"/>
<path d="M54.6162 41.584C54.8089 41.2508 55.2898 41.2507 55.4824 41.584L68.2578 63.7119C68.4504 64.0455 68.2094 64.4629 67.8242 64.4629H42.2734C41.8884 64.4627 41.6483 64.0454 41.8408 63.7119L54.6162 41.584Z" stroke="white" stroke-width="1.5"/>
<path d="M63.4503 49.6272C63.7542 49.1008 64.5138 49.1008 64.8177 49.6272L72.8837 63.5979C73.1876 64.1242 72.8077 64.7821 72.2 64.7821H65.9942C65.3865 64.7821 63.7441 59.5104 60.7441 54.3143L63.4503 49.6272Z" fill="#BDCBFF"/>
<path d="M64.1758 49.5703C64.184 49.5749 64.1943 49.5829 64.2051 49.6016L72.709 64.3301C72.7198 64.3487 72.7208 64.3617 72.7207 64.3711C72.7205 64.3827 72.7174 64.3974 72.709 64.4121C72.7004 64.427 72.6887 64.4373 72.6787 64.4434C72.6707 64.4482 72.6591 64.4541 72.6377 64.4541H55.6309C55.6092 64.4541 55.5969 64.4482 55.5889 64.4434C55.5789 64.4373 55.5681 64.427 55.5596 64.4121C55.551 64.3973 55.5471 64.3827 55.5469 64.3711C55.5467 64.3617 55.5488 64.3487 55.5596 64.3301L64.0625 49.6016C64.0733 49.5829 64.0836 49.5749 64.0918 49.5703C64.102 49.5647 64.1167 49.5606 64.1338 49.5605C64.1509 49.5605 64.1656 49.5647 64.1758 49.5703Z" stroke="white" stroke-width="1.5"/>
</g>
<defs>
<filter id="filter0_d_11386_18062" x="-0.00585938" y="0.281738" width="102.006" height="102" filterUnits="userSpaceOnUse" color-interpolation-filters="sRGB">
<feFlood flood-opacity="0" result="BackgroundImageFix"/>
<feColorMatrix in="SourceAlpha" type="matrix" values="0 0 0 0 0 0 0 0 0 0 0 0 0 0 0 0 0 0 127 0" result="hardAlpha"/>
<feOffset/>
<feGaussianBlur stdDeviation="10.5"/>
<feComposite in2="hardAlpha" operator="out"/>
<feColorMatrix type="matrix" values="0 0 0 0 0 0 0 0 0 0 0 0 0 0 0 0 0 0 0.07 0"/>
<feBlend mode="normal" in2="BackgroundImageFix" result="effect1_dropShadow_11386_18062"/>
<feBlend mode="normal" in="SourceGraphic" in2="effect1_dropShadow_11386_18062" result="shape"/>
</filter>
</defs>
</svg>
