<svg width="65" height="64" viewBox="0 0 65 64" fill="none" xmlns="http://www.w3.org/2000/svg">
<path d="M38.0294 28.6158H28.4736L35.6148 50.1032L37.7276 48.8834C37.9144 48.7755 38.0294 48.5762 38.0294 48.3606V28.6158Z" fill="#EBCB76"/>
<path d="M26.6611 28.6158L32.166 52C32.2703 52 32.3746 51.9732 32.468 51.9192L35.6131 50.1032V28.6158H26.6611Z" fill="#EBCB76"/>
<path d="M26.3057 28.6158V48.3606C26.3057 48.5762 26.4207 48.7756 26.6075 48.8834L31.866 51.9192C31.9592 51.9731 32.0633 52 32.1674 52.0001V28.6159H26.3057V28.6158Z" fill="#2E2A94"/>
<path d="M31.8662 25.0576L26.6075 28.0935C26.2051 28.3257 26.2051 28.9066 26.6075 29.1388L31.8662 32.1746C32.0529 32.2824 32.283 32.2824 32.4697 32.1746L37.7278 29.1388C38.1302 28.9065 38.1302 28.3257 37.7278 28.0934L32.4697 25.0575C32.283 24.9497 32.0529 24.9497 31.8662 25.0576Z" fill="white"/>
<path d="M23.8907 41.5953H14.335L21.4761 50.1033L23.5889 48.8834C23.7756 48.7756 23.8907 48.5763 23.8907 48.3607V41.5953Z" fill="#EBCB76"/>
<path d="M12.5244 41.5953L18.0293 52.0001C18.1336 52.0001 18.2379 51.9732 18.3313 51.9192L21.4764 50.1033V41.5953H12.5244Z" fill="#EBCB76"/>
<path d="M12.167 41.5953V48.3607C12.167 48.5763 12.282 48.7757 12.4688 48.8834L17.7273 51.9193C17.8206 51.9732 17.9246 52.0001 18.0288 52.0002V41.5954L12.167 41.5953Z" fill="#2E2A94"/>
<path d="M17.7275 38.0366L12.4688 41.0725C12.0664 41.3048 12.0664 41.8856 12.4688 42.1179L17.7275 45.1537C17.9142 45.2615 18.1443 45.2615 18.3311 45.1537L23.5891 42.1179C23.9915 41.8856 23.9915 41.3049 23.5891 41.0725L18.3311 38.0366C18.1443 37.9289 17.9142 37.9289 17.7275 38.0366Z" fill="white"/>
<path d="M52.1682 15.6398H42.6123L49.7534 50.1033L51.8663 48.8835C52.053 48.7756 52.1681 48.5764 52.1681 48.3607L52.1682 15.6398Z" fill="#EBCB76"/>
<path d="M40.7998 15.6398L46.3046 52.0002C46.409 52.0002 46.5133 51.9733 46.6067 51.9193L49.7518 50.1033V15.6398H40.7998Z" fill="#EBCB76"/>
<path d="M40.4443 15.6398V48.3607C40.4443 48.5763 40.5593 48.7757 40.7461 48.8835L46.0046 51.9193C46.0979 51.9732 46.202 52.0002 46.3061 52.0002V15.6398H40.4443Z" fill="#2E2A94"/>
<path d="M46.0049 12.0812L40.7461 15.1171C40.3437 15.3493 40.3437 15.9302 40.7461 16.1624L46.0049 19.1983C46.1916 19.3061 46.4217 19.3061 46.6084 19.1983L51.8665 16.1625C52.2688 15.9303 52.2688 15.3495 51.8665 15.1171L46.6084 12.0813C46.4216 11.9734 46.1916 11.9734 46.0049 12.0812Z" fill="white"/>
<path d="M15.5765 26.7073C19.3315 26.1854 22.9444 24.9182 26.2026 22.9801C29.4609 21.042 32.2989 18.4721 34.5498 15.4215L35.0059 18.6143C35.0306 18.7651 35.1133 18.9002 35.2365 18.9906C35.3597 19.0811 35.5134 19.1196 35.6646 19.098C35.8159 19.0764 35.9526 18.9963 36.0455 18.8749C36.1383 18.7536 36.1799 18.6007 36.1613 18.449L35.5797 14.3772C35.5321 14.0715 35.3668 13.7964 35.1192 13.6108C34.8716 13.4252 34.5613 13.3438 34.2545 13.3839L30.182 13.9656C30.1062 13.9764 30.0333 14.0021 29.9674 14.0412C29.9015 14.0802 29.8439 14.1318 29.7979 14.1931C29.752 14.2544 29.7186 14.3242 29.6996 14.3984C29.6806 14.4726 29.6764 14.5498 29.6872 14.6256C29.6981 14.7015 29.7238 14.7744 29.7628 14.8403C29.8018 14.9062 29.8535 14.9638 29.9148 15.0097C29.9761 15.0557 30.0458 15.0891 30.12 15.1081C30.1942 15.1271 30.2714 15.1313 30.3473 15.1204L33.67 14.6496C31.5186 17.5843 28.8028 20.0599 25.6819 21.931C22.561 23.8022 19.0978 25.0312 15.4956 25.5462C15.3517 25.5695 15.2218 25.6458 15.1313 25.7601C15.0407 25.8743 14.9962 26.0182 15.0063 26.1636C15.0164 26.309 15.0805 26.4454 15.186 26.546C15.2915 26.6466 15.4308 26.7041 15.5765 26.7073Z" fill="#2E2A94"/>
</svg>
