<svg width="48" height="48" viewBox="0 0 48 48" fill="none" xmlns="http://www.w3.org/2000/svg">
<path d="M16 8C14.9 8 14 8.9 14 10V38C14 39.1 14.9 40 16 40H36C37.1 40 38 39.1 38 38V16L30 8H16Z" fill="#C4D3FF"/>
<path d="M32 16H38L30 8V14C30 15.1 30.9 16 32 16Z" fill="#2E2A94"/>
<path d="M34 34C34 34.55 33.55 35 33 35H11C10.45 35 10 34.55 10 34V24C10 23.45 10.45 23 11 23H33C33.55 23 34 23.45 34 24V34Z" fill="url(#paint0_linear_27189_2393)"/>
<path d="M14.3594 26.9465C14.3594 26.6825 14.5674 26.3945 14.9024 26.3945H16.7494C17.7894 26.3945 18.7254 27.0905 18.7254 28.4245C18.7254 29.6885 17.7894 30.3925 16.7494 30.3925H15.4144V31.4485C15.4144 31.8005 15.1904 31.9995 14.9024 31.9995C14.6384 31.9995 14.3594 31.8005 14.3594 31.4485V26.9465ZM15.4144 27.4015V29.3935H16.7494C17.2854 29.3935 17.7094 28.9205 17.7094 28.4245C17.7094 27.8655 17.2854 27.4015 16.7494 27.4015H15.4144Z" fill="white"/>
<path d="M20.2913 31.9998C20.0273 31.9998 19.7393 31.8558 19.7393 31.5048V26.9628C19.7393 26.6758 20.0273 26.4668 20.2913 26.4668H22.1223C25.7763 26.4668 25.6963 31.9998 22.1943 31.9998H20.2913ZM20.7953 27.4428V31.0248H22.1223C24.2813 31.0248 24.3773 27.4428 22.1223 27.4428H20.7953Z" fill="white"/>
<path d="M26.9923 27.5068V28.7778H29.0313C29.3193 28.7778 29.6073 29.0658 29.6073 29.3448C29.6073 29.6088 29.3193 29.8248 29.0313 29.8248H26.9923V31.5038C26.9923 31.7838 26.7933 31.9988 26.5133 31.9988C26.1613 31.9988 25.9463 31.7838 25.9463 31.5038V26.9618C25.9463 26.6748 26.1623 26.4658 26.5133 26.4658H29.3203C29.6723 26.4658 29.8803 26.6748 29.8803 26.9618C29.8803 27.2178 29.6723 27.5058 29.3203 27.5058H26.9923V27.5068Z" fill="white"/>
<defs>
<linearGradient id="paint0_linear_27189_2393" x1="15.9331" y1="32.8" x2="26.8477" y2="22.0448" gradientUnits="userSpaceOnUse">
<stop stop-color="#B0B7FF"/>
<stop offset="1" stop-color="#363E93"/>
</linearGradient>
</defs>
</svg>
