<svg width="20" height="20" viewBox="0 0 20 20" fill="none" xmlns="http://www.w3.org/2000/svg">
<path d="M2.5014 18.0919C2.35806 18.0923 2.21619 18.0631 2.08466 18.0061C1.95313 17.9491 1.83477 17.8656 1.73699 17.7608C1.63922 17.656 1.56413 17.5321 1.51642 17.397C1.46871 17.2618 1.44941 17.1182 1.45974 16.9753L1.73474 13.3336C1.75996 12.984 1.91094 12.6554 2.15974 12.4086L13.1597 1.45027C13.4362 1.18395 13.8051 1.03516 14.1889 1.03516C14.5727 1.03516 14.9416 1.18395 15.2181 1.45027L18.1097 4.3336C18.3825 4.60835 18.5356 4.97979 18.5356 5.36694C18.5356 5.75408 18.3825 6.12553 18.1097 6.40027L7.10973 17.4003C6.86334 17.6436 6.5384 17.7913 6.19307 17.8169L2.58474 18.0919H2.5014ZM14.1681 2.26694C14.1398 2.26681 14.1118 2.27268 14.0859 2.28417C14.0601 2.29566 14.0369 2.31251 14.0181 2.3336L3.04307 13.3336C3.00883 13.37 2.98822 13.4171 2.98474 13.4669L2.73474 16.8003L6.06807 16.5503C6.11921 16.5453 6.1667 16.5215 6.2014 16.4836L17.2264 5.51694C17.2633 5.47569 17.2837 5.42228 17.2837 5.36694C17.2837 5.31159 17.2633 5.25819 17.2264 5.21694L14.3347 2.3336C14.3145 2.30973 14.2887 2.29117 14.2597 2.27955C14.2306 2.26793 14.1992 2.2636 14.1681 2.26694Z" fill="#4338F3"/>
<path d="M15.3266 8.92595C15.2443 8.92781 15.1625 8.91246 15.0864 8.88089C15.0104 8.84932 14.9418 8.80223 14.885 8.74262L10.835 4.67595C10.7588 4.55849 10.7243 4.41885 10.7369 4.27943C10.7496 4.14001 10.8087 4.00888 10.9048 3.90705C11.0008 3.80522 11.1283 3.73859 11.2667 3.71784C11.4052 3.69709 11.5466 3.72342 11.6683 3.79262L15.7433 7.85928C15.8603 7.97647 15.9261 8.13533 15.9261 8.30095C15.9261 8.46658 15.8603 8.62543 15.7433 8.74262C15.6329 8.85463 15.4838 8.92022 15.3266 8.92595Z" fill="#4338F3"/>
</svg>
