<svg width="36" height="42" viewBox="0 0 36 42" fill="none" xmlns="http://www.w3.org/2000/svg">
<path d="M33.255 15.555L7.5 0.675C6.76379 0.239431 5.92538 0.00654031 5.07 0C3.72535 0 2.43578 0.534159 1.48497 1.48497C0.534159 2.43578 0 3.72535 0 5.07V37.005C0.000171011 37.8973 0.239372 38.7733 0.692733 39.5419C1.14609 40.3104 1.79706 40.9435 2.57795 41.3753C3.35884 41.8071 4.24114 42.0218 5.13312 41.9971C6.02509 41.9725 6.89417 41.7093 7.65 41.235L33.435 24.945C34.2367 24.4432 34.8948 23.7423 35.3451 22.9106C35.7954 22.0789 36.0226 21.1447 36.0045 20.199C35.9863 19.2534 35.7235 18.3286 35.2417 17.5147C34.7598 16.7008 34.0754 16.0257 33.255 15.555Z" fill="white"/>
</svg>
