<svg width="20" height="20" viewBox="0 0 20 20" fill="none" xmlns="http://www.w3.org/2000/svg">
<path d="M10.2901 2.12201C10.1685 2.02174 10.0075 1.98014 9.85172 2.00894L1.31803 3.60901C1.06522 3.65594 0.882812 3.87568 0.882812 4.13276V15.8666C0.882812 16.1226 1.06522 16.3434 1.31803 16.3903L9.85172 17.9904C9.88372 17.9968 9.91785 18 9.94985 18C10.0725 18 10.1941 17.9573 10.2901 17.8773C10.4128 17.776 10.4832 17.6245 10.4832 17.4666V2.53269C10.4832 2.37375 10.4128 2.22335 10.2901 2.12201ZM9.4165 16.8234L1.94952 15.4239V4.57545L9.4165 3.17592V16.8234Z" fill="#2E2A94"/>
<path d="M17.4144 4.13281H9.94742C9.65301 4.13281 9.41406 4.37176 9.41406 4.66617C9.41406 4.96058 9.65301 5.19952 9.94742 5.19952H16.881V14.7999H9.94742C9.65301 14.7999 9.41406 15.0389 9.41406 15.3333C9.41406 15.6277 9.65301 15.8666 9.94742 15.8666H17.4144C17.7088 15.8666 17.9477 15.6277 17.9477 15.3333V4.66617C17.9477 4.37176 17.7088 4.13281 17.4144 4.13281Z" fill="#2E2A94"/>
<path d="M12.0808 6.26611H9.94742C9.65301 6.26611 9.41406 6.50506 9.41406 6.79947C9.41406 7.09388 9.65301 7.33282 9.94742 7.33282H12.0808C12.3753 7.33282 12.6142 7.09388 12.6142 6.79947C12.6142 6.50506 12.3753 6.26611 12.0808 6.26611Z" fill="#2E2A94"/>
<path d="M12.0808 8.39941H9.94742C9.65301 8.39941 9.41406 8.63836 9.41406 8.93277C9.41406 9.22718 9.65301 9.46612 9.94742 9.46612H12.0808C12.3753 9.46612 12.6142 9.22718 12.6142 8.93277C12.6142 8.63836 12.3753 8.39941 12.0808 8.39941Z" fill="#2E2A94"/>
<path d="M12.0808 10.5332H9.94742C9.65301 10.5332 9.41406 10.7721 9.41406 11.0666C9.41406 11.361 9.65301 11.5999 9.94742 11.5999H12.0808C12.3753 11.5999 12.6142 11.361 12.6142 11.0666C12.6142 10.7721 12.3753 10.5332 12.0808 10.5332Z" fill="#2E2A94"/>
<path d="M12.0808 12.6665H9.94742C9.65301 12.6665 9.41406 12.9054 9.41406 13.1999C9.41406 13.4943 9.65301 13.7332 9.94742 13.7332H12.0808C12.3753 13.7332 12.6142 13.4943 12.6142 13.1999C12.6142 12.9054 12.3753 12.6665 12.0808 12.6665Z" fill="#2E2A94"/>
<path d="M15.2837 6.26611H14.2169C13.9225 6.26611 13.6836 6.50506 13.6836 6.79947C13.6836 7.09388 13.9225 7.33282 14.2169 7.33282H15.2837C15.5781 7.33282 15.817 7.09388 15.817 6.79947C15.817 6.50506 15.5781 6.26611 15.2837 6.26611Z" fill="#2E2A94"/>
<path d="M15.2837 8.39941H14.2169C13.9225 8.39941 13.6836 8.63836 13.6836 8.93277C13.6836 9.22718 13.9225 9.46612 14.2169 9.46612H15.2837C15.5781 9.46612 15.817 9.22718 15.817 8.93277C15.817 8.63836 15.5781 8.39941 15.2837 8.39941Z" fill="#2E2A94"/>
<path d="M15.2837 10.5332H14.2169C13.9225 10.5332 13.6836 10.7721 13.6836 11.0666C13.6836 11.361 13.9225 11.5999 14.2169 11.5999H15.2837C15.5781 11.5999 15.817 11.361 15.817 11.0666C15.817 10.7721 15.5781 10.5332 15.2837 10.5332Z" fill="#2E2A94"/>
<path d="M15.2837 12.6665H14.2169C13.9225 12.6665 13.6836 12.9054 13.6836 13.1999C13.6836 13.4943 13.9225 13.7332 14.2169 13.7332H15.2837C15.5781 13.7332 15.817 13.4943 15.817 13.1999C15.817 12.9054 15.5781 12.6665 15.2837 12.6665Z" fill="#2E2A94"/>
<path d="M8.21962 11.782L4.48614 7.51514C4.28986 7.2922 3.95385 7.27086 3.73304 7.46501C3.51116 7.65915 3.48876 7.99623 3.6829 8.21704L7.41639 12.4839C7.522 12.6044 7.6692 12.6663 7.81747 12.6663C7.94228 12.6663 8.06709 12.6226 8.16949 12.534C8.39137 12.3399 8.41377 12.0039 8.21962 11.782Z" fill="#2E2A94"/>
<path d="M8.14512 6.91281C7.91258 6.7304 7.57763 6.77414 7.39629 7.00561L3.6628 11.8058C3.48253 12.0384 3.52413 12.3744 3.75667 12.5546C3.85481 12.6304 3.97002 12.6666 4.08415 12.6666C4.24203 12.6666 4.3999 12.5962 4.50444 12.4618L8.23793 7.66164C8.41927 7.42803 8.37767 7.09308 8.14512 6.91281Z" fill="#2E2A94"/>
</svg>
