<svg width="24" height="24" viewBox="0 0 24 24" fill="none" xmlns="http://www.w3.org/2000/svg">
<path d="M7.39395 7.42203H4.85778C4.38599 7.42203 4 7.80804 4 8.27981V12.4915C4 12.9633 4.38599 13.3493 4.85778 13.3493H7.39395V7.42203Z" fill="#5659FA"/>
<path d="M17.1298 5.08602C16.8119 4.93012 16.441 4.99241 16.1805 5.22326C14.4413 6.64394 12.2094 7.42862 9.96731 7.42203C9.96731 7.42204 7.96582 7.42204 7.96582 7.42204V13.3493H9.96731C12.2215 13.3399 14.4295 14.1303 16.1948 15.5595C16.7232 16.0355 17.6428 15.6287 17.6187 14.9104C17.6187 14.9105 17.6187 5.86088 17.6187 5.86088C17.6187 5.52634 17.4329 5.22898 17.1298 5.08602Z" fill="#5659FA"/>
<path d="M18.1904 8.13971V12.6288C20.6037 12.0819 20.6024 8.68578 18.1904 8.13971Z" fill="#5659FA"/>
<path d="M9.20681 13.9211H5.86719L8.08026 18.8191C8.26896 19.2365 8.68642 19.5082 9.14676 19.5082C9.89029 19.5279 10.4865 18.7578 10.279 18.0413L9.20681 13.9211Z" fill="#5659FA"/>
</svg>
