<svg width="24" height="24" viewBox="0 0 24 24" fill="none" xmlns="http://www.w3.org/2000/svg">
<path d="M19.35 5H8.14999C7.76353 5 7.44999 5.31354 7.44999 5.7V17.6C7.44999 18.1389 7.24656 18.6289 6.91113 19H18.65C19.4229 19 20.05 18.3729 20.05 17.6V5.7C20.05 5.31354 19.7365 5 19.35 5ZM9.19999 7.27516C9.19999 6.98495 9.43479 6.75016 9.72499 6.75016H12.875C13.1652 6.75016 13.4 6.98495 13.4 7.27516V10.4252C13.4 10.7154 13.1652 10.9502 12.875 10.9502H9.72499C9.43479 10.9502 9.19999 10.7154 9.19999 10.4252V7.27516ZM17.95 16.2H9.54999C9.35676 16.2 9.19999 16.0432 9.19999 15.85C9.19999 15.6568 9.35676 15.5 9.54999 15.5H17.95C18.1432 15.5 18.3 15.6568 18.3 15.85C18.3 16.0432 18.1432 16.2 17.95 16.2ZM17.95 14.45H9.54999C9.35676 14.45 9.19999 14.2932 9.19999 14.1C9.19999 13.9068 9.35676 13.75 9.54999 13.75H17.95C18.1432 13.75 18.3 13.9068 18.3 14.1C18.3 14.2932 18.1432 14.45 17.95 14.45ZM17.95 12.7H9.54999C9.35676 12.7 9.19999 12.5432 9.19999 12.35C9.19999 12.1568 9.35676 12 9.54999 12H17.95C18.1432 12 18.3 12.1568 18.3 12.35C18.3 12.5432 18.1432 12.7 17.95 12.7ZM17.95 10.95H14.8C14.6068 10.95 14.45 10.7932 14.45 10.6C14.45 10.4068 14.6068 10.25 14.8 10.25H17.95C18.1432 10.25 18.3 10.4068 18.3 10.6C18.3 10.7932 18.1432 10.95 17.95 10.95ZM17.95 9.2H14.8C14.6068 9.2 14.45 9.04323 14.45 8.85C14.45 8.65677 14.6068 8.5 14.8 8.5H17.95C18.1432 8.5 18.3 8.65677 18.3 8.85C18.3 9.04323 18.1432 9.2 17.95 9.2ZM17.95 7.45H14.8C14.6068 7.45 14.45 7.29323 14.45 7.1C14.45 6.90677 14.6068 6.75 14.8 6.75H17.95C18.1432 6.75 18.3 6.90677 18.3 7.1C18.3 7.29323 18.1432 7.45 17.95 7.45Z" fill="#5659FA"/>
<path d="M5.3502 18.9997C4.57727 18.9997 3.9502 18.3726 3.9502 17.5997V11.9997C3.9502 11.6132 4.26373 11.2997 4.6502 11.2997H6.7502V17.5997C6.7502 18.3726 6.12312 18.9997 5.3502 18.9997Z" fill="#5659FA"/>
</svg>
