<svg width="41" height="48" viewBox="0 0 41 48" fill="none" xmlns="http://www.w3.org/2000/svg">
<path d="M40.1909 11.603L20.0938 23.2061V47.9999L40.1909 36.3969V11.603Z" fill="url(#paint0_linear_18622_12984)"/>
<path d="M0 11.603L20.0971 23.2061V47.9999L0 36.3969V11.603Z" fill="url(#paint1_linear_18622_12984)"/>
<path d="M0 11.603L20.0971 -9.15527e-05L40.1942 11.603L20.0971 23.2061L0 11.603Z" fill="url(#paint2_linear_18622_12984)"/>
<path d="M31.2148 16.7705L20.0938 10.3498V36.9112L31.2148 30.4904V16.7705Z" fill="url(#paint3_linear_18622_12984)"/>
<path d="M8.97656 16.7705L20.0976 10.3498V36.9112L8.97656 30.4904V16.7705Z" fill="url(#paint4_linear_18622_12984)"/>
<path d="M8.97656 30.4908L20.0976 24.0701L31.2186 30.4908L20.0976 36.9115L8.97656 30.4908Z" fill="url(#paint5_linear_18622_12984)"/>
<defs>
<linearGradient id="paint0_linear_18622_12984" x1="40.154" y1="11.4579" x2="14.9028" y2="14.3352" gradientUnits="userSpaceOnUse">
<stop stop-color="#0F00FF"/>
<stop offset="1" stop-color="white"/>
</linearGradient>
<linearGradient id="paint1_linear_18622_12984" x1="20.0603" y1="11.4579" x2="-5.19098" y2="14.3352" gradientUnits="userSpaceOnUse">
<stop stop-color="#0F00FF"/>
<stop offset="1" stop-color="white"/>
</linearGradient>
<linearGradient id="paint2_linear_18622_12984" x1="-15.4581" y1="32.1308" x2="22.2415" y2="10.3649" gradientUnits="userSpaceOnUse">
<stop stop-color="#B096ED"/>
<stop offset="0.0014" stop-color="#B096ED"/>
<stop offset="0.299" stop-color="#CDBCF3"/>
<stop offset="0.5742" stop-color="#E2D7F7"/>
<stop offset="0.8165" stop-color="#EFE8F9"/>
<stop offset="1" stop-color="#F3EEFA"/>
</linearGradient>
<linearGradient id="paint3_linear_18622_12984" x1="19.4961" y1="16.0002" x2="17.8532" y2="29.6556" gradientUnits="userSpaceOnUse">
<stop stop-color="#0F00FF"/>
<stop offset="1" stop-color="white"/>
</linearGradient>
<linearGradient id="paint4_linear_18622_12984" x1="20.0772" y1="10.2439" x2="6.02752" y2="11.4579" gradientUnits="userSpaceOnUse">
<stop stop-color="#0F00FF"/>
<stop offset="1" stop-color="white"/>
</linearGradient>
<linearGradient id="paint5_linear_18622_12984" x1="0.422713" y1="41.8501" x2="21.2843" y2="29.8058" gradientUnits="userSpaceOnUse">
<stop stop-color="#B096ED"/>
<stop offset="0.0014" stop-color="#B096ED"/>
<stop offset="0.299" stop-color="#CDBCF3"/>
<stop offset="0.5742" stop-color="#E2D7F7"/>
<stop offset="0.8165" stop-color="#EFE8F9"/>
<stop offset="1" stop-color="#F3EEFA"/>
</linearGradient>
</defs>
</svg>
