<svg width="48" height="48" viewBox="0 0 48 48" fill="none" xmlns="http://www.w3.org/2000/svg">
<path d="M34.0952 7.23814L28 5.33338L36.381 3.80957L42.8571 6.09528L34.0952 7.23814Z" fill="#F0EAF9"/>
<path d="M28 34.2859L28.0001 5.3335L34.0954 7.23826L34.0952 36.9525L28 34.2859Z" fill="url(#paint0_linear_10161_5696)"/>
<path d="M34.0954 7.23807L34.0952 36.9524L42.8571 34.6666L42.8573 6.09521L34.0954 7.23807Z" fill="#756DFF"/>
<path d="M21.9048 16.3807L15.8096 14.476L24.1905 12.9521L30.6667 15.2379L21.9048 16.3807Z" fill="#F0EAF9"/>
<path d="M15.8096 38.0951L15.8097 14.4761L21.905 16.3808L21.9048 40.7618L15.8096 38.0951Z" fill="url(#paint1_linear_10161_5696)"/>
<path d="M21.9049 16.3807L21.9048 40.7616L30.6667 38.4759L30.6668 15.2378L21.9049 16.3807Z" fill="#756DFF"/>
<path d="M9.84524 25.9286L3.75 24.0238L12.131 22.5L18.6071 24.7857L9.84524 25.9286Z" fill="#F0EAF9"/>
<path d="M3.75 41.1668V24.0239L9.84524 25.9287V43.8335L3.75 41.1668Z" fill="url(#paint2_linear_10161_5696)"/>
<path d="M9.84521 25.9285V43.8333L18.6071 41.5476V24.7856L9.84521 25.9285Z" fill="#756DFF"/>
<defs>
<linearGradient id="paint0_linear_10161_5696" x1="35.4903" y1="1.8711" x2="26.1718" y2="2.45278" gradientUnits="userSpaceOnUse">
<stop stop-color="white"/>
<stop offset="1" stop-color="#0F00FF"/>
</linearGradient>
<linearGradient id="paint1_linear_10161_5696" x1="23.2998" y1="11.0137" x2="13.9813" y2="11.5954" gradientUnits="userSpaceOnUse">
<stop stop-color="white"/>
<stop offset="1" stop-color="#0F00FF"/>
</linearGradient>
<linearGradient id="paint2_linear_10161_5696" x1="11.2403" y1="20.5615" x2="1.92177" y2="21.1432" gradientUnits="userSpaceOnUse">
<stop stop-color="white"/>
<stop offset="1" stop-color="#0F00FF"/>
</linearGradient>
</defs>
</svg>