<svg width="56" height="56" viewBox="0 0 56 56" fill="none" xmlns="http://www.w3.org/2000/svg">
<path d="M0 9.33333C0 4.17868 4.17868 0 9.33333 0H46.6667C51.8213 0 56 4.17868 56 9.33333V46.6667C56 51.8213 51.8213 56 46.6667 56H9.33333C4.17868 56 0 51.8213 0 46.6667V9.33333Z" fill="#EDF1FF"/>
<path d="M36.882 38.939C36.7402 38.939 36.6043 38.8841 36.5041 38.7865C36.4039 38.6888 36.3477 38.5563 36.3477 38.4181V17.5805C36.3477 17.4423 36.4039 17.3098 36.5041 17.2121C36.6043 17.1145 36.7402 17.0596 36.882 17.0596C37.0237 17.0596 37.1596 17.1145 37.2598 17.2121C37.36 17.3098 37.4163 17.4423 37.4163 17.5805V38.4181C37.4163 38.5563 37.36 38.6888 37.2598 38.7865C37.1596 38.8841 37.0237 38.939 36.882 38.939Z" fill="#2E2A94"/>
<path d="M19.1862 36.8566C19.0444 36.8566 18.9085 36.8017 18.8083 36.704C18.7081 36.6063 18.6519 36.4738 18.6519 36.3356V11.3305C18.6519 11.1923 18.7081 11.0598 18.8083 10.9621C18.9085 10.8645 19.0444 10.8096 19.1862 10.8096C19.3279 10.8096 19.4638 10.8645 19.564 10.9621C19.6642 11.0598 19.7204 11.1923 19.7204 11.3305V36.3356C19.7204 36.4738 19.6642 36.6063 19.564 36.704C19.4638 36.8017 19.3279 36.8566 19.1862 36.8566Z" fill="#2E2A94"/>
<path d="M28.066 45.1904C27.9243 45.1904 27.7884 45.1355 27.6882 45.0378C27.588 44.9401 27.5317 44.8076 27.5317 44.6694V36.3344C27.5317 36.1963 27.588 36.0638 27.6882 35.9661C27.7884 35.8684 27.9243 35.8135 28.066 35.8135C28.2077 35.8135 28.3436 35.8684 28.4438 35.9661C28.544 36.0638 28.6003 36.1963 28.6003 36.3344V44.6694C28.6003 44.8076 28.544 44.9401 28.4438 45.0378C28.3436 45.1355 28.2077 45.1904 28.066 45.1904Z" fill="#2E2A94"/>
<path d="M20.2523 12.8921H18.1151C17.2298 12.8921 16.5122 13.5918 16.5122 14.4549V24.8737C16.5122 25.7368 17.2298 26.4365 18.1151 26.4365H20.2523C21.1375 26.4365 21.8552 25.7368 21.8552 24.8737V14.4549C21.8552 13.5918 21.1375 12.8921 20.2523 12.8921Z" fill="#2E2A94"/>
<path d="M29.0682 23.311H26.931C26.0458 23.311 25.3281 24.0107 25.3281 24.8739V35.2926C25.3281 36.1558 26.0458 36.8555 26.931 36.8555H29.0682C29.9535 36.8555 30.6711 36.1558 30.6711 35.2926V24.8739C30.6711 24.0107 29.9535 23.311 29.0682 23.311Z" fill="#2E2A94"/>
<path d="M37.8846 21.2271H35.7474C34.8622 21.2271 34.1445 21.9267 34.1445 22.7899V33.2087C34.1445 34.0718 34.8622 34.7715 35.7474 34.7715H37.8846C38.7699 34.7715 39.4875 34.0718 39.4875 33.2087V22.7899C39.4875 21.9267 38.7699 21.2271 37.8846 21.2271Z" fill="#2E2A94"/>
</svg>
