<svg width="40" height="40" viewBox="0 0 40 40" fill="none" xmlns="http://www.w3.org/2000/svg">
<rect width="40" height="40" rx="3.33333" fill="#EEEEEE"/>
<path d="M18.4088 27.9611C18.6205 28.0515 18.8666 27.976 18.9902 27.7807L24.6152 18.8432C24.7063 18.6985 24.7118 18.5159 24.6294 18.3667C24.547 18.217 24.3895 18.124 24.2188 18.124H20.4646L21.8608 12.5831C21.9171 12.3593 21.8031 12.1281 21.5912 12.037C21.3806 11.9464 21.133 12.0224 21.0098 12.2174L15.3848 21.1549C15.2937 21.2995 15.2882 21.4822 15.3706 21.6314C15.453 21.7811 15.6105 21.874 15.7812 21.874H19.5354L18.1392 27.4149C18.0829 27.6388 18.1968 27.87 18.4088 27.9611Z" fill="#2E2A94"/>
</svg>