<svg width="80" height="80" viewBox="0 0 80 80" fill="none" xmlns="http://www.w3.org/2000/svg">
<path d="M30 10H7.5C3.36425 10 0 13.3643 0 17.5V40C0 44.1357 3.36425 47.5 7.5 47.5H17.5916L13.7964 67.0227C13.6536 67.7564 13.8464 68.5144 14.3213 69.0906C14.7961 69.6668 15.5029 70 16.25 70H24.3494C26.5234 70 28.4558 68.5779 29.1138 66.5186L36.3916 49.2554C36.4331 49.1565 36.4685 49.0552 36.4966 48.9527C37.1631 46.5576 37.5 44.0808 37.5 41.5918V17.5C37.5 13.3643 34.1357 10 30 10Z" fill="url(#paint0_linear_26199_1028)"/>
<path d="M72.5 10H50C45.8643 10 42.5 13.3643 42.5 17.5V40C42.5 44.1357 45.8643 47.5 50 47.5H60.0928L56.2964 67.0227C56.1524 67.7564 56.3452 68.5144 56.8213 69.0906C57.2949 69.6668 58.0029 70 58.75 70H66.8506C69.0259 70 70.957 68.5779 71.6138 66.5173L78.8916 49.2554C78.9331 49.1565 78.9672 49.0552 78.9965 48.9526C79.6631 46.5552 80 44.0784 80 41.5918V17.5C80 13.3643 76.6357 10 72.5 10Z" fill="url(#paint1_linear_26199_1028)"/>
<defs>
<linearGradient id="paint0_linear_26199_1028" x1="52.341" y1="-15.3913" x2="-14.8918" y2="-5.77875" gradientUnits="userSpaceOnUse">
<stop stop-color="#9A94FF"/>
<stop offset="1" stop-color="#0E068C"/>
</linearGradient>
<linearGradient id="paint1_linear_26199_1028" x1="94.841" y1="-15.3913" x2="27.6082" y2="-5.77875" gradientUnits="userSpaceOnUse">
<stop stop-color="#9A94FF"/>
<stop offset="1" stop-color="#0E068C"/>
</linearGradient>
</defs>
</svg>
