<svg width="20" height="20" viewBox="0 0 20 20" fill="none" xmlns="http://www.w3.org/2000/svg">
<mask id="mask0_10365_160" style="mask-type:alpha" maskUnits="userSpaceOnUse" x="1" y="3" width="19" height="12">
<path d="M17.9156 14.0762C18.4374 14.216 18.9793 13.9066 19.0617 13.3728C19.2216 12.3365 19.1996 11.2776 18.9941 10.2442C18.7247 8.89022 18.1476 7.61636 17.3072 6.52115C16.4668 5.42593 15.3857 4.53872 14.1476 3.92815C12.9095 3.31757 11.5475 3 10.167 3C8.7865 3 7.42452 3.31757 6.18639 3.92815C4.94827 4.53872 3.8672 5.42593 3.02681 6.52115C2.18642 7.61636 1.60924 8.89022 1.33992 10.2442C1.13437 11.2776 1.11236 12.3365 1.27231 13.3728C1.35469 13.9066 1.89661 14.216 2.41834 14.0762C2.94007 13.9364 3.24242 13.4 3.17617 12.8639C3.08428 12.1203 3.11136 11.3647 3.25834 10.6258C3.46913 9.56608 3.92087 8.56907 4.57861 7.71188C5.23636 6.8547 6.08247 6.16031 7.05151 5.68243C8.02055 5.20455 9.08653 4.956 10.167 4.956C11.2475 4.956 12.3134 5.20455 13.2825 5.68243C14.2515 6.16031 15.0976 6.8547 15.7554 7.71188C16.4131 8.56907 16.8649 9.56608 17.0756 10.6258C17.2226 11.3647 17.2497 12.1203 17.1578 12.8639C17.0916 13.4 17.3939 13.9364 17.9156 14.0762Z" fill="#D9D9D9"/>
</mask>
<g mask="url(#mask0_10365_160)">
<path d="M10.167 3C8.74672 3 7.34659 3.33614 6.0811 3.98094C4.81561 4.62574 3.72069 5.56089 2.88586 6.70993L4.4683 7.85964C5.12169 6.96032 5.97865 6.22841 6.96911 5.72375C7.95957 5.21909 9.0554 4.956 10.167 4.956V3Z" fill="#FFFF32"/>
<path d="M5.19333 4.49915C4.00963 5.28405 3.02849 6.33796 2.33014 7.57471C1.63179 8.81145 1.23606 10.1959 1.17529 11.6149L3.1295 11.6986C3.17706 10.588 3.48679 9.50442 4.03336 8.53646C4.57994 7.5685 5.34784 6.74364 6.27429 6.12932L5.19333 4.49915Z" fill="#7FFF00"/>
<path d="M1.88689 8.47302C1.0681 10.3952 0.943595 12.5424 1.53473 14.5464L3.41081 13.993C2.94815 12.4246 3.04559 10.744 3.68643 9.23956L1.88689 8.47302Z" fill="#07A04B"/>
<path d="M10.167 3C11.5873 3 12.9874 3.33614 14.2529 3.98094C15.5184 4.62574 16.6133 5.56089 17.4481 6.70993L15.8657 7.85964C15.2123 6.96032 14.3553 6.22841 13.3649 5.72375C12.3744 5.21909 11.2786 4.956 10.167 4.956V3Z" fill="#C68F16"/>
<path d="M15.1407 4.49915C16.3244 5.28405 17.3055 6.33796 18.0038 7.57471C18.7022 8.81145 19.0979 10.1959 19.1587 11.6149L17.2045 11.6986C17.1569 10.588 16.8472 9.50442 16.3006 8.53646C15.754 7.5685 14.9861 6.74364 14.0597 6.12932L15.1407 4.49915Z" fill="#FE8D00"/>
<path d="M18.4471 8.47302C19.2659 10.3952 19.3904 12.5424 18.7993 14.5464L16.9232 13.993C17.3858 12.4246 17.2884 10.744 16.6476 9.23956L18.4471 8.47302Z" fill="#F80D1B"/>
</g>
<path d="M10.123 14.3875C9.79005 14.0546 9.60303 13.6031 9.60303 13.1323C9.60303 12.6615 9.79005 12.21 10.123 11.877C10.5916 11.4084 11.2568 11.2536 11.8426 11.4126L18.2567 13.1239L11.9346 14.8184C11.3154 15.0193 10.6125 14.877 10.123 14.3875Z" fill="#242177"/>
</svg>