<svg width="552" height="24" viewBox="0 0 552 24" fill="none" xmlns="http://www.w3.org/2000/svg">
<path d="M1.27841 6.36364H3.40909L7.11364 15.4091H7.25L10.9545 6.36364H13.0852V18H11.4148V9.57955H11.3068L7.875 17.983H6.48864L3.05682 9.57386H2.94886V18H1.27841V6.36364ZM19.1776 18.1761C18.3594 18.1761 17.6454 17.9886 17.0355 17.6136C16.4257 17.2386 15.9522 16.714 15.6151 16.0398C15.2779 15.3655 15.1094 14.5777 15.1094 13.6761C15.1094 12.7708 15.2779 11.9792 15.6151 11.3011C15.9522 10.6231 16.4257 10.0966 17.0355 9.72159C17.6454 9.34659 18.3594 9.15909 19.1776 9.15909C19.9957 9.15909 20.7098 9.34659 21.3196 9.72159C21.9295 10.0966 22.4029 10.6231 22.7401 11.3011C23.0772 11.9792 23.2457 12.7708 23.2457 13.6761C23.2457 14.5777 23.0772 15.3655 22.7401 16.0398C22.4029 16.714 21.9295 17.2386 21.3196 17.6136C20.7098 17.9886 19.9957 18.1761 19.1776 18.1761ZM19.1832 16.75C19.7135 16.75 20.1529 16.6098 20.5014 16.3295C20.8499 16.0492 21.1075 15.6761 21.2741 15.2102C21.4446 14.7443 21.5298 14.2311 21.5298 13.6705C21.5298 13.1136 21.4446 12.6023 21.2741 12.1364C21.1075 11.6667 20.8499 11.2898 20.5014 11.0057C20.1529 10.7216 19.7135 10.5795 19.1832 10.5795C18.6491 10.5795 18.206 10.7216 17.8537 11.0057C17.5052 11.2898 17.2457 11.6667 17.0753 12.1364C16.9086 12.6023 16.8253 13.1136 16.8253 13.6705C16.8253 14.2311 16.9086 14.7443 17.0753 15.2102C17.2457 15.6761 17.5052 16.0492 17.8537 16.3295C18.206 16.6098 18.6491 16.75 19.1832 16.75ZM29.2159 9.27273V10.6364H24.4489V9.27273H29.2159ZM25.7273 7.18182H27.4261V15.4375C27.4261 15.767 27.4754 16.0152 27.5739 16.1818C27.6723 16.3447 27.7992 16.4564 27.9545 16.517C28.1136 16.5739 28.286 16.6023 28.4716 16.6023C28.608 16.6023 28.7273 16.5928 28.8295 16.5739C28.9318 16.5549 29.0114 16.5398 29.0682 16.5284L29.375 17.9318C29.2765 17.9697 29.1364 18.0076 28.9545 18.0455C28.7727 18.0871 28.5455 18.1098 28.2727 18.1136C27.8258 18.1212 27.4091 18.0417 27.0227 17.875C26.6364 17.7083 26.3239 17.4508 26.0852 17.1023C25.8466 16.7538 25.7273 16.3163 25.7273 15.7898V7.18182ZM31.0952 18V9.27273H32.794V18H31.0952ZM31.9531 7.92614C31.6577 7.92614 31.4039 7.82765 31.1918 7.63068C30.9834 7.42992 30.8793 7.19129 30.8793 6.91477C30.8793 6.63447 30.9834 6.39583 31.1918 6.19886C31.4039 5.99811 31.6577 5.89773 31.9531 5.89773C32.2486 5.89773 32.5005 5.99811 32.7088 6.19886C32.9209 6.39583 33.027 6.63447 33.027 6.91477C33.027 7.19129 32.9209 7.42992 32.7088 7.63068C32.5005 7.82765 32.2486 7.92614 31.9531 7.92614ZM35.0795 6.36364H36.7784V15.6136C36.7784 15.9886 36.8258 16.2538 36.9205 16.4091C37.0189 16.5644 37.2045 16.6383 37.4773 16.6307C37.625 16.6269 37.7348 16.6174 37.8068 16.6023C37.8826 16.5871 37.9508 16.5701 38.0114 16.5511L38.3182 17.9091C38.2008 17.9432 38.0511 17.9754 37.8693 18.0057C37.6913 18.0398 37.4886 18.0587 37.2614 18.0625C36.5265 18.0739 35.9792 17.8996 35.6193 17.5398C35.2595 17.1799 35.0795 16.6553 35.0795 15.9659V6.36364ZM42.706 18.1705C42.0014 18.1705 41.3726 17.9905 40.8196 17.6307C40.2704 17.267 39.8385 16.75 39.5241 16.0795C39.2135 15.4053 39.0582 14.5966 39.0582 13.6534C39.0582 12.7102 39.2154 11.9034 39.5298 11.233C39.848 10.5625 40.2836 10.0492 40.8366 9.69318C41.3897 9.33712 42.0166 9.15909 42.7173 9.15909C43.259 9.15909 43.6946 9.25 44.0241 9.43182C44.3575 9.60985 44.6151 9.81818 44.7969 10.0568C44.9825 10.2955 45.1264 10.5057 45.2287 10.6875H45.331V9.27273H47.0298V18H45.3707V16.642H45.2287C45.1264 16.8277 44.9787 17.0398 44.7855 17.2784C44.5961 17.517 44.3348 17.7254 44.0014 17.9034C43.6681 18.0814 43.2363 18.1705 42.706 18.1705ZM43.081 16.7216C43.5696 16.7216 43.9825 16.5928 44.3196 16.3352C44.6605 16.0739 44.9181 15.7121 45.0923 15.25C45.2704 14.7879 45.3594 14.25 45.3594 13.6364C45.3594 13.0303 45.2723 12.5 45.098 12.0455C44.9238 11.5909 44.6681 11.2367 44.331 10.983C43.9938 10.7292 43.5772 10.6023 43.081 10.6023C42.5696 10.6023 42.1435 10.7348 41.8026 11C41.4616 11.2652 41.2041 11.6269 41.0298 12.0852C40.8594 12.5436 40.7741 13.0606 40.7741 13.6364C40.7741 14.2197 40.8613 14.7443 41.0355 15.2102C41.2098 15.6761 41.4673 16.0455 41.8082 16.3182C42.1529 16.5871 42.5772 16.7216 43.081 16.7216ZM49.4545 6.36364H51.1534V15.6136C51.1534 15.9886 51.2008 16.2538 51.2955 16.4091C51.3939 16.5644 51.5795 16.6383 51.8523 16.6307C52 16.6269 52.1098 16.6174 52.1818 16.6023C52.2576 16.5871 52.3258 16.5701 52.3864 16.5511L52.6932 17.9091C52.5758 17.9432 52.4261 17.9754 52.2443 18.0057C52.0663 18.0398 51.8636 18.0587 51.6364 18.0625C50.9015 18.0739 50.3542 17.8996 49.9943 17.5398C49.6345 17.1799 49.4545 16.6553 49.4545 15.9659V6.36364ZM68.2926 12.1818C68.2926 13.4242 68.0653 14.4924 67.6108 15.3864C67.1563 16.2765 66.5331 16.9621 65.7415 17.4432C64.9536 17.9205 64.0578 18.1591 63.054 18.1591C62.0464 18.1591 61.1468 17.9205 60.3551 17.4432C59.5672 16.9621 58.946 16.2746 58.4915 15.3807C58.0369 14.4867 57.8097 13.4205 57.8097 12.1818C57.8097 10.9394 58.0369 9.87311 58.4915 8.98295C58.946 8.08901 59.5672 7.40341 60.3551 6.92614C61.1468 6.44508 62.0464 6.20455 63.054 6.20455C64.0578 6.20455 64.9536 6.44508 65.7415 6.92614C66.5331 7.40341 67.1563 8.08901 67.6108 8.98295C68.0653 9.87311 68.2926 10.9394 68.2926 12.1818ZM66.554 12.1818C66.554 11.2348 66.4006 10.4375 66.0938 9.78977C65.7907 9.13826 65.3741 8.64583 64.8438 8.3125C64.3172 7.97538 63.7206 7.80682 63.054 7.80682C62.3835 7.80682 61.785 7.97538 61.2585 8.3125C60.732 8.64583 60.3153 9.13826 60.0085 9.78977C59.7055 10.4375 59.554 11.2348 59.554 12.1818C59.554 13.1288 59.7055 13.928 60.0085 14.5795C60.3153 15.2273 60.732 15.7197 61.2585 16.0568C61.785 16.3902 62.3835 16.5568 63.054 16.5568C63.7206 16.5568 64.3172 16.3902 64.8438 16.0568C65.3741 15.7197 65.7907 15.2273 66.0938 14.5795C66.4006 13.928 66.554 13.1288 66.554 12.1818ZM76.8849 11.4034L75.3452 11.6761C75.2808 11.4792 75.1785 11.2917 75.0384 11.1136C74.902 10.9356 74.7164 10.7898 74.4815 10.6761C74.2467 10.5625 73.9531 10.5057 73.6009 10.5057C73.1198 10.5057 72.7183 10.6136 72.3963 10.8295C72.0743 11.0417 71.9134 11.3163 71.9134 11.6534C71.9134 11.9451 72.0213 12.1799 72.2372 12.358C72.4531 12.536 72.8016 12.6818 73.2827 12.7955L74.669 13.1136C75.4721 13.2992 76.0705 13.5852 76.4645 13.9716C76.8584 14.358 77.0554 14.8598 77.0554 15.4773C77.0554 16 76.9039 16.4659 76.6009 16.875C76.3016 17.2803 75.883 17.5985 75.3452 17.8295C74.8111 18.0606 74.1918 18.1761 73.4872 18.1761C72.5099 18.1761 71.7126 17.9678 71.0952 17.5511C70.4777 17.1307 70.099 16.5341 69.9588 15.7614L71.6009 15.5114C71.7031 15.9394 71.9134 16.2633 72.2315 16.483C72.5497 16.6989 72.9645 16.8068 73.4759 16.8068C74.0327 16.8068 74.4777 16.6913 74.8111 16.4602C75.1444 16.2254 75.3111 15.9394 75.3111 15.6023C75.3111 15.3295 75.2088 15.1004 75.0043 14.9148C74.8035 14.7292 74.4948 14.589 74.0781 14.4943L72.6009 14.1705C71.7865 13.9848 71.1842 13.6894 70.794 13.2841C70.4077 12.8788 70.2145 12.3655 70.2145 11.7443C70.2145 11.2292 70.3584 10.7784 70.6463 10.392C70.9342 10.0057 71.3319 9.70455 71.8395 9.48864C72.3471 9.26894 72.9285 9.15909 73.5838 9.15909C74.527 9.15909 75.2694 9.36364 75.8111 9.77273C76.3527 10.178 76.7107 10.7216 76.8849 11.4034ZM80.8153 18L78.2472 9.27273H80.0028L81.7131 15.6818H81.7983L83.5142 9.27273H85.2699L86.9744 15.6534H87.0597L88.7585 9.27273H90.5142L87.9517 18H86.2188L84.446 11.6989H84.3153L82.5426 18H80.8153ZM95.1278 18.1705C94.4233 18.1705 93.7945 17.9905 93.2415 17.6307C92.6922 17.267 92.2604 16.75 91.946 16.0795C91.6354 15.4053 91.4801 14.5966 91.4801 13.6534C91.4801 12.7102 91.6373 11.9034 91.9517 11.233C92.2699 10.5625 92.7055 10.0492 93.2585 9.69318C93.8116 9.33712 94.4384 9.15909 95.1392 9.15909C95.6809 9.15909 96.1165 9.25 96.446 9.43182C96.7794 9.60985 97.0369 9.81818 97.2188 10.0568C97.4044 10.2955 97.5483 10.5057 97.6506 10.6875H97.7528V9.27273H99.4517V18H97.7926V16.642H97.6506C97.5483 16.8277 97.4006 17.0398 97.2074 17.2784C97.018 17.517 96.7566 17.7254 96.4233 17.9034C96.09 18.0814 95.6581 18.1705 95.1278 18.1705ZM95.5028 16.7216C95.9915 16.7216 96.4044 16.5928 96.7415 16.3352C97.0824 16.0739 97.34 15.7121 97.5142 15.25C97.6922 14.7879 97.7812 14.25 97.7812 13.6364C97.7812 13.0303 97.6941 12.5 97.5199 12.0455C97.3456 11.5909 97.09 11.2367 96.7528 10.983C96.4157 10.7292 95.9991 10.6023 95.5028 10.6023C94.9915 10.6023 94.5653 10.7348 94.2244 11C93.8835 11.2652 93.6259 11.6269 93.4517 12.0852C93.2813 12.5436 93.196 13.0606 93.196 13.6364C93.196 14.2197 93.2831 14.7443 93.4574 15.2102C93.6316 15.6761 93.8892 16.0455 94.2301 16.3182C94.5748 16.5871 94.9991 16.7216 95.5028 16.7216ZM101.876 6.36364H103.575V15.6136C103.575 15.9886 103.623 16.2538 103.717 16.4091C103.816 16.5644 104.001 16.6383 104.274 16.6307C104.422 16.6269 104.532 16.6174 104.604 16.6023C104.679 16.5871 104.748 16.5701 104.808 16.5511L105.115 17.9091C104.998 17.9432 104.848 17.9754 104.666 18.0057C104.488 18.0398 104.286 18.0587 104.058 18.0625C103.323 18.0739 102.776 17.8996 102.416 17.5398C102.056 17.1799 101.876 16.6553 101.876 15.9659V6.36364ZM110.607 6.36364H112.737L116.442 15.4091H116.578L120.283 6.36364H122.413V18H120.743V9.57955H120.635L117.203 17.983H115.817L112.385 9.57386H112.277V18H110.607V6.36364ZM124.83 18V9.27273H126.528V18H124.83ZM125.688 7.92614C125.392 7.92614 125.138 7.82765 124.926 7.63068C124.718 7.42992 124.614 7.19129 124.614 6.91477C124.614 6.63447 124.718 6.39583 124.926 6.19886C125.138 5.99811 125.392 5.89773 125.688 5.89773C125.983 5.89773 126.235 5.99811 126.443 6.19886C126.655 6.39583 126.761 6.63447 126.761 6.91477C126.761 7.19129 126.655 7.42992 126.443 7.63068C126.235 7.82765 125.983 7.92614 125.688 7.92614ZM132.081 18.1705C131.376 18.1705 130.748 17.9905 130.195 17.6307C129.645 17.267 129.214 16.75 128.899 16.0795C128.589 15.4053 128.433 14.5966 128.433 13.6534C128.433 12.7102 128.59 11.9034 128.905 11.233C129.223 10.5625 129.659 10.0492 130.212 9.69318C130.765 9.33712 131.392 9.15909 132.092 9.15909C132.634 9.15909 133.07 9.25 133.399 9.43182C133.732 9.60985 133.99 9.81818 134.172 10.0568C134.357 10.2955 134.501 10.5057 134.604 10.6875H134.706V6.36364H136.405V18H134.746V16.642H134.604C134.501 16.8277 134.354 17.0398 134.161 17.2784C133.971 17.517 133.71 17.7254 133.376 17.9034C133.043 18.0814 132.611 18.1705 132.081 18.1705ZM132.456 16.7216C132.945 16.7216 133.357 16.5928 133.695 16.3352C134.036 16.0739 134.293 15.7121 134.467 15.25C134.645 14.7879 134.734 14.25 134.734 13.6364C134.734 13.0303 134.647 12.5 134.473 12.0455C134.299 11.5909 134.043 11.2367 133.706 10.983C133.369 10.7292 132.952 10.6023 132.456 10.6023C131.945 10.6023 131.518 10.7348 131.178 11C130.837 11.2652 130.579 11.6269 130.405 12.0852C130.234 12.5436 130.149 13.0606 130.149 13.6364C130.149 14.2197 130.236 14.7443 130.411 15.2102C130.585 15.6761 130.842 16.0455 131.183 16.3182C131.528 16.5871 131.952 16.7216 132.456 16.7216ZM146.74 18.1761C145.895 18.1761 145.168 17.9848 144.558 17.6023C143.952 17.2159 143.486 16.6837 143.161 16.0057C142.835 15.3277 142.672 14.5511 142.672 13.6761C142.672 12.7898 142.839 12.0076 143.172 11.3295C143.505 10.6477 143.975 10.1155 144.581 9.73295C145.187 9.35038 145.901 9.15909 146.723 9.15909C147.386 9.15909 147.977 9.2822 148.496 9.52841C149.015 9.77083 149.433 10.1117 149.751 10.5511C150.073 10.9905 150.265 11.5038 150.325 12.0909H148.672C148.581 11.6818 148.373 11.3295 148.047 11.0341C147.725 10.7386 147.293 10.5909 146.751 10.5909C146.278 10.5909 145.863 10.7159 145.507 10.9659C145.155 11.2121 144.88 11.5644 144.683 12.0227C144.486 12.4773 144.388 13.0152 144.388 13.6364C144.388 14.2727 144.484 14.822 144.678 15.2841C144.871 15.7462 145.143 16.1042 145.496 16.358C145.852 16.6117 146.27 16.7386 146.751 16.7386C147.073 16.7386 147.365 16.6799 147.626 16.5625C147.892 16.4413 148.113 16.2689 148.291 16.0455C148.473 15.822 148.6 15.553 148.672 15.2386H150.325C150.265 15.803 150.081 16.3068 149.774 16.75C149.467 17.1932 149.056 17.5417 148.541 17.7955C148.03 18.0492 147.429 18.1761 146.74 18.1761ZM155.409 18.1705C154.705 18.1705 154.076 17.9905 153.523 17.6307C152.973 17.267 152.542 16.75 152.227 16.0795C151.917 15.4053 151.761 14.5966 151.761 13.6534C151.761 12.7102 151.919 11.9034 152.233 11.233C152.551 10.5625 152.987 10.0492 153.54 9.69318C154.093 9.33712 154.72 9.15909 155.42 9.15909C155.962 9.15909 156.398 9.25 156.727 9.43182C157.061 9.60985 157.318 9.81818 157.5 10.0568C157.686 10.2955 157.83 10.5057 157.932 10.6875H158.034V9.27273H159.733V18H158.074V16.642H157.932C157.83 16.8277 157.682 17.0398 157.489 17.2784C157.299 17.517 157.038 17.7254 156.705 17.9034C156.371 18.0814 155.939 18.1705 155.409 18.1705ZM155.784 16.7216C156.273 16.7216 156.686 16.5928 157.023 16.3352C157.364 16.0739 157.621 15.7121 157.795 15.25C157.973 14.7879 158.062 14.25 158.062 13.6364C158.062 13.0303 157.975 12.5 157.801 12.0455C157.627 11.5909 157.371 11.2367 157.034 10.983C156.697 10.7292 156.28 10.6023 155.784 10.6023C155.273 10.6023 154.847 10.7348 154.506 11C154.165 11.2652 153.907 11.6269 153.733 12.0852C153.563 12.5436 153.477 13.0606 153.477 13.6364C153.477 14.2197 153.564 14.7443 153.739 15.2102C153.913 15.6761 154.17 16.0455 154.511 16.3182C154.856 16.5871 155.28 16.7216 155.784 16.7216ZM162.158 21.2727V9.27273H163.817V10.6875H163.959C164.057 10.5057 164.199 10.2955 164.385 10.0568C164.571 9.81818 164.828 9.60985 165.158 9.43182C165.487 9.25 165.923 9.15909 166.464 9.15909C167.169 9.15909 167.798 9.33712 168.351 9.69318C168.904 10.0492 169.338 10.5625 169.652 11.233C169.97 11.9034 170.129 12.7102 170.129 13.6534C170.129 14.5966 169.972 15.4053 169.658 16.0795C169.343 16.75 168.911 17.267 168.362 17.6307C167.813 17.9905 167.186 18.1705 166.482 18.1705C165.951 18.1705 165.518 18.0814 165.18 17.9034C164.847 17.7254 164.586 17.517 164.396 17.2784C164.207 17.0398 164.061 16.8277 163.959 16.642H163.857V21.2727H162.158ZM163.822 13.6364C163.822 14.25 163.911 14.7879 164.089 15.25C164.268 15.7121 164.525 16.0739 164.862 16.3352C165.199 16.5928 165.612 16.7216 166.101 16.7216C166.608 16.7216 167.033 16.5871 167.374 16.3182C167.714 16.0455 167.972 15.6761 168.146 15.2102C168.324 14.7443 168.413 14.2197 168.413 13.6364C168.413 13.0606 168.326 12.5436 168.152 12.0852C167.982 11.6269 167.724 11.2652 167.379 11C167.038 10.7348 166.612 10.6023 166.101 10.6023C165.608 10.6023 165.192 10.7292 164.851 10.983C164.514 11.2367 164.258 11.5909 164.084 12.0455C163.91 12.5 163.822 13.0303 163.822 13.6364ZM180.42 9.27273V10.6364H175.489V9.27273H180.42ZM176.841 18V8.26136C176.841 7.71591 176.96 7.26326 177.199 6.90341C177.438 6.53977 177.754 6.26894 178.148 6.09091C178.542 5.90909 178.97 5.81818 179.432 5.81818C179.773 5.81818 180.064 5.84659 180.307 5.90341C180.549 5.95644 180.729 6.00568 180.847 6.05114L180.449 7.42614C180.369 7.40341 180.267 7.37689 180.142 7.34659C180.017 7.3125 179.866 7.29545 179.688 7.29545C179.275 7.29545 178.979 7.39773 178.801 7.60227C178.627 7.80682 178.54 8.10227 178.54 8.48864V18H176.841ZM187.702 14.3807V9.27273H189.406V18H187.736V16.4886H187.645C187.444 16.9545 187.122 17.3428 186.679 17.6534C186.24 17.9602 185.692 18.1136 185.037 18.1136C184.476 18.1136 183.98 17.9905 183.548 17.7443C183.12 17.4943 182.783 17.125 182.537 16.6364C182.295 16.1477 182.173 15.5436 182.173 14.8239V9.27273H183.872V14.6193C183.872 15.214 184.037 15.6875 184.366 16.0398C184.696 16.392 185.124 16.5682 185.651 16.5682C185.969 16.5682 186.285 16.4886 186.599 16.3295C186.918 16.1705 187.181 15.9299 187.389 15.608C187.601 15.286 187.705 14.8769 187.702 14.3807ZM193.388 12.8182V18H191.689V9.27273H193.32V10.6932H193.428C193.628 10.2311 193.943 9.85985 194.371 9.57955C194.803 9.29924 195.346 9.15909 196.001 9.15909C196.596 9.15909 197.117 9.28409 197.564 9.53409C198.011 9.7803 198.357 10.1477 198.604 10.6364C198.85 11.125 198.973 11.7292 198.973 12.4489V18H197.274V12.6534C197.274 12.0208 197.109 11.5265 196.78 11.1705C196.45 10.8106 195.998 10.6307 195.422 10.6307C195.028 10.6307 194.678 10.7159 194.371 10.8864C194.068 11.0568 193.827 11.3068 193.649 11.6364C193.475 11.9621 193.388 12.3561 193.388 12.8182ZM204.518 18.1705C203.814 18.1705 203.185 17.9905 202.632 17.6307C202.083 17.267 201.651 16.75 201.337 16.0795C201.026 15.4053 200.871 14.5966 200.871 13.6534C200.871 12.7102 201.028 11.9034 201.342 11.233C201.661 10.5625 202.096 10.0492 202.649 9.69318C203.202 9.33712 203.829 9.15909 204.53 9.15909C205.071 9.15909 205.507 9.25 205.837 9.43182C206.17 9.60985 206.428 9.81818 206.609 10.0568C206.795 10.2955 206.939 10.5057 207.041 10.6875H207.143V6.36364H208.842V18H207.183V16.642H207.041C206.939 16.8277 206.791 17.0398 206.598 17.2784C206.409 17.517 206.147 17.7254 205.814 17.9034C205.481 18.0814 205.049 18.1705 204.518 18.1705ZM204.893 16.7216C205.382 16.7216 205.795 16.5928 206.132 16.3352C206.473 16.0739 206.731 15.7121 206.905 15.25C207.083 14.7879 207.172 14.25 207.172 13.6364C207.172 13.0303 207.085 12.5 206.911 12.0455C206.736 11.5909 206.481 11.2367 206.143 10.983C205.806 10.7292 205.39 10.6023 204.893 10.6023C204.382 10.6023 203.956 10.7348 203.615 11C203.274 11.2652 203.017 11.6269 202.842 12.0852C202.672 12.5436 202.587 13.0606 202.587 13.6364C202.587 14.2197 202.674 14.7443 202.848 15.2102C203.022 15.6761 203.28 16.0455 203.621 16.3182C203.965 16.5871 204.39 16.7216 204.893 16.7216Z" fill="#2E2A94"/>
<path d="M549.528 20.4696L544.834 15.7765C546.194 14.1431 546.873 12.048 546.728 9.92715C546.583 7.80629 545.626 5.82289 544.056 4.38956C542.487 2.95623 540.424 2.18333 538.299 2.23163C536.174 2.27993 534.149 3.14571 532.646 4.64888C531.143 6.15205 530.277 8.17687 530.229 10.3021C530.18 12.4274 530.953 14.4894 532.387 16.0593C533.82 17.6293 535.803 18.5861 537.924 18.7309C540.045 18.8757 542.14 18.1973 543.774 16.8368L548.467 21.5308C548.536 21.6005 548.619 21.6558 548.71 21.6935C548.801 21.7312 548.899 21.7506 548.997 21.7506C549.096 21.7506 549.193 21.7312 549.284 21.6935C549.376 21.6558 549.458 21.6005 549.528 21.5308C549.598 21.4612 549.653 21.3784 549.691 21.2874C549.728 21.1963 549.748 21.0988 549.748 21.0002C549.748 20.9017 549.728 20.8041 549.691 20.713C549.653 20.622 549.598 20.5393 549.528 20.4696ZM531.747 10.5002C531.747 9.16519 532.143 7.86015 532.885 6.75011C533.627 5.64008 534.681 4.77492 535.914 4.26403C537.148 3.75314 538.505 3.61946 539.814 3.87991C541.124 4.14036 542.326 4.78324 543.27 5.72724C544.214 6.67125 544.857 7.87398 545.118 9.18335C545.378 10.4927 545.244 11.8499 544.733 13.0833C544.223 14.3167 543.357 15.3709 542.247 16.1126C541.137 16.8543 539.832 17.2502 538.497 17.2502C536.708 17.2482 534.992 16.5364 533.727 15.271C532.461 14.0056 531.749 12.2898 531.747 10.5002Z" fill="#2E2A94"/>
</svg>
