<svg width="20" height="20" viewBox="0 0 20 20" fill="none" xmlns="http://www.w3.org/2000/svg">
<path d="M19.5279 18.4696L14.8338 13.7765C16.1944 12.1431 16.8728 10.048 16.728 7.92715C16.5832 5.80629 15.6263 3.82289 14.0564 2.38956C12.4865 0.956234 10.4245 0.183327 8.2992 0.231627C6.17394 0.279927 4.14912 1.14571 2.64595 2.64888C1.14278 4.15205 0.276997 6.17687 0.228697 8.30213C0.180397 10.4274 0.953304 12.4894 2.38663 14.0593C3.81996 15.6293 5.80336 16.5861 7.92422 16.7309C10.0451 16.8757 12.1401 16.1973 13.7735 14.8368L18.4667 19.5308C18.5363 19.6005 18.6191 19.6558 18.7101 19.6935C18.8012 19.7312 18.8987 19.7506 18.9973 19.7506C19.0958 19.7506 19.1934 19.7312 19.2845 19.6935C19.3755 19.6558 19.4582 19.6005 19.5279 19.5308C19.5976 19.4612 19.6529 19.3784 19.6906 19.2874C19.7283 19.1963 19.7477 19.0988 19.7477 19.0002C19.7477 18.9017 19.7283 18.8041 19.6906 18.713C19.6529 18.622 19.5976 18.5393 19.5279 18.4696ZM1.74728 8.50021C1.74728 7.16519 2.14317 5.86015 2.88486 4.75011C3.62656 3.64008 4.68077 2.77492 5.91417 2.26403C7.14757 1.75314 8.50477 1.61946 9.81414 1.87991C11.1235 2.14036 12.3263 2.78324 13.2703 3.72724C14.2143 4.67125 14.8571 5.87398 15.1176 7.18335C15.378 8.49273 15.2444 9.84993 14.7335 11.0833C14.2226 12.3167 13.3574 13.3709 12.2474 14.1126C11.1374 14.8543 9.83231 15.2502 8.49728 15.2502C6.70768 15.2482 4.99195 14.5364 3.72651 13.271C2.46107 12.0056 1.74927 10.2898 1.74728 8.50021Z" fill="#9E9E9E"/>
</svg>