<svg width="24" height="24" viewBox="0 0 24 24" fill="none" xmlns="http://www.w3.org/2000/svg">
<path d="M18.8176 6.66611C18.8176 7.86275 17.8476 8.83283 16.651 8.83283C15.4543 8.83283 14.4844 7.86275 14.4844 6.66611C14.4844 5.46959 15.4543 4.49951 16.651 4.49951C17.8476 4.49951 18.8176 5.46959 18.8176 6.66611Z" fill="#2E2A94"/>
<path d="M16.651 9.33282C15.1803 9.33282 13.9844 8.13679 13.9844 6.6661C13.9844 5.19554 15.1803 3.99951 16.651 3.99951C18.1217 3.99951 19.3176 5.19554 19.3176 6.6661C19.3176 8.13679 18.1217 9.33282 16.651 9.33282ZM16.651 4.9995C15.7317 4.9995 14.9844 5.74754 14.9844 6.6661C14.9844 7.58479 15.7317 8.33283 16.651 8.33283C17.5703 8.33283 18.3176 7.58479 18.3176 6.6661C18.3176 5.74754 17.5703 4.9995 16.651 4.9995Z" fill="#2E2A94"/>
<path d="M18.8176 17.3327C18.8176 18.5293 17.8476 19.4993 16.651 19.4993C15.4543 19.4993 14.4844 18.5293 14.4844 17.3327C14.4844 16.1361 15.4543 15.166 16.651 15.166C17.8476 15.166 18.8176 16.1361 18.8176 17.3327Z" fill="#2E2A94"/>
<path d="M16.651 19.9993C15.1803 19.9993 13.9844 18.8033 13.9844 17.3327C13.9844 15.862 15.1803 14.666 16.651 14.666C18.1217 14.666 19.3176 15.862 19.3176 17.3327C19.3176 18.8033 18.1217 19.9993 16.651 19.9993ZM16.651 15.666C15.7317 15.666 14.9844 16.414 14.9844 17.3327C14.9844 18.2513 15.7317 18.9993 16.651 18.9993C17.5703 18.9993 18.3176 18.2513 18.3176 17.3327C18.3176 16.414 17.5703 15.666 16.651 15.666Z" fill="#2E2A94"/>
<path d="M9.48566 11.9996C9.48566 13.1962 8.51558 14.1662 7.31894 14.1662C6.12242 14.1662 5.15234 13.1962 5.15234 11.9996C5.15234 10.803 6.12242 9.83301 7.31894 9.83301C8.51558 9.83301 9.48566 10.803 9.48566 11.9996Z" fill="#2E2A94"/>
<path d="M7.31894 14.6662C5.84837 14.6662 4.65234 13.4703 4.65234 11.9996C4.65234 10.5289 5.84837 9.33301 7.31894 9.33301C8.78962 9.33301 9.98565 10.5289 9.98565 11.9996C9.98565 13.4703 8.78962 14.6662 7.31894 14.6662ZM7.31894 10.333C6.39964 10.333 5.65233 11.0809 5.65233 11.9996C5.65233 12.9183 6.39964 13.6662 7.31894 13.6662C8.23836 13.6662 8.98566 12.9183 8.98566 11.9996C8.98566 11.0809 8.23836 10.333 7.31894 10.333Z" fill="#2E2A94"/>
<path d="M8.88998 11.6796C8.65793 11.6796 8.43259 11.5589 8.30991 11.343C8.1279 11.0236 8.23996 10.6163 8.5593 10.4336L14.7451 6.90699C15.0645 6.72364 15.4718 6.8357 15.6545 7.15625C15.8365 7.47558 15.7245 7.88293 15.4052 8.06567L9.2192 11.5922C9.1152 11.6516 9.00192 11.6796 8.88998 11.6796Z" fill="#2E2A94"/>
<path d="M15.0784 17.1795C14.9663 17.1795 14.8531 17.1514 14.7491 17.0921L8.56311 13.5655C8.24378 13.3835 8.13184 12.9762 8.31385 12.6561C8.49512 12.3362 8.90307 12.2235 9.22314 12.4069L15.4091 15.9334C15.7284 16.1154 15.8404 16.5228 15.6584 16.8428C15.5351 17.0588 15.3097 17.1795 15.0784 17.1795Z" fill="#2E2A94"/>
</svg>
