<svg width="14" height="14" viewBox="0 0 14 14" fill="none" xmlns="http://www.w3.org/2000/svg">
<path d="M4.97871 6.06065C4.63393 5.37244 3.92214 4.9 3.1 4.9C1.9402 4.9 1 5.8402 1 7C1 8.1598 1.9402 9.1 3.1 9.1C3.92214 9.1 4.63393 8.62756 4.97871 7.93935M4.97871 6.06065C5.12031 6.3433 5.2 6.66234 5.2 7C5.2 7.33766 5.12031 7.6567 4.97871 7.93935M4.97871 6.06065L9.02129 4.03935M4.97871 7.93935L9.02129 9.96065M9.02129 4.03935C9.36607 4.72756 10.0779 5.2 10.9 5.2C12.0598 5.2 13 4.2598 13 3.1C13 1.9402 12.0598 1 10.9 1C9.7402 1 8.8 1.9402 8.8 3.1C8.8 3.43766 8.87969 3.7567 9.02129 4.03935ZM9.02129 9.96065C8.87969 10.2433 8.8 10.5623 8.8 10.9C8.8 12.0598 9.7402 13 10.9 13C12.0598 13 13 12.0598 13 10.9C13 9.7402 12.0598 8.8 10.9 8.8C10.0779 8.8 9.36607 9.27244 9.02129 9.96065Z" stroke="white" stroke-width="1.2" stroke-linecap="round"/>
</svg>
