<svg width="28" height="28" viewBox="0 0 28 28" fill="none" xmlns="http://www.w3.org/2000/svg">
<rect width="28" height="28" rx="14" fill="#212121"/>
<path d="M11.9787 13.0606C11.6339 12.3724 10.9221 11.9 10.1 11.9C8.9402 11.9 8 12.8402 8 14C8 15.1598 8.9402 16.1 10.1 16.1C10.9221 16.1 11.6339 15.6276 11.9787 14.9394M11.9787 13.0606C12.1203 13.3433 12.2 13.6623 12.2 14C12.2 14.3377 12.1203 14.6567 11.9787 14.9394M11.9787 13.0606L16.0213 11.0394M11.9787 14.9394L16.0213 16.9606M16.0213 11.0394C16.3661 11.7276 17.0779 12.2 17.9 12.2C19.0598 12.2 20 11.2598 20 10.1C20 8.9402 19.0598 8 17.9 8C16.7402 8 15.8 8.9402 15.8 10.1C15.8 10.4377 15.8797 10.7567 16.0213 11.0394ZM16.0213 16.9606C15.8797 17.2433 15.8 17.5623 15.8 17.9C15.8 19.0598 16.7402 20 17.9 20C19.0598 20 20 19.0598 20 17.9C20 16.7402 19.0598 15.8 17.9 15.8C17.0779 15.8 16.3661 16.2724 16.0213 16.9606Z" stroke="white" stroke-width="1.2" stroke-linecap="round"/>
</svg>
