<svg width="20" height="20" viewBox="0 0 20 20" fill="none" xmlns="http://www.w3.org/2000/svg">
<path d="M6.34418 18.9856C7.12592 18.9856 7.75964 18.3519 7.75964 17.5701C7.75964 16.7884 7.12592 16.1546 6.34418 16.1546C5.56244 16.1546 4.92871 16.7884 4.92871 17.5701C4.92871 18.3519 5.56244 18.9856 6.34418 18.9856Z" fill="white"/>
<path d="M16.2524 18.9856C17.0341 18.9856 17.6678 18.3519 17.6678 17.5701C17.6678 16.7884 17.0341 16.1546 16.2524 16.1546C15.4706 16.1546 14.8369 16.7884 14.8369 17.5701C14.8369 18.3519 15.4706 18.9856 16.2524 18.9856Z" fill="white"/>
<path d="M0.682373 2H2.72693L5.85767 13.7024C5.93734 14.0004 6.10883 14.2631 6.34591 14.4504C6.58298 14.6376 6.87259 14.739 7.17044 14.7392H15.5906C15.8886 14.7392 16.1784 14.6379 16.4157 14.4506C16.6529 14.2634 16.8245 14.0005 16.9043 13.7024L19.0834 5.53866H3.67339" stroke="white" stroke-linecap="round" stroke-linejoin="round"/>
</svg>
