<svg width="20" height="20" viewBox="0 0 20 20" fill="none" xmlns="http://www.w3.org/2000/svg">
<path d="M7.1875 16.3125C7.73978 16.3125 8.1875 15.8648 8.1875 15.3125C8.1875 14.7602 7.73978 14.3125 7.1875 14.3125C6.63522 14.3125 6.1875 14.7602 6.1875 15.3125C6.1875 15.8648 6.63522 16.3125 7.1875 16.3125Z" fill="white"/>
<path d="M14.1875 16.3125C14.7398 16.3125 15.1875 15.8648 15.1875 15.3125C15.1875 14.7602 14.7398 14.3125 14.1875 14.3125C13.6352 14.3125 13.1875 14.7602 13.1875 15.3125C13.1875 15.8648 13.6352 16.3125 14.1875 16.3125Z" fill="white"/>
<path d="M3.1875 4.3125H4.63194L6.84375 12.58C6.90004 12.7906 7.02119 12.9762 7.18868 13.1085C7.35617 13.2407 7.56078 13.3124 7.7712 13.3125H13.7199C13.9304 13.3125 14.1352 13.2409 14.3028 13.1086C14.4704 12.9763 14.5916 12.7907 14.648 12.58L16.1875 6.8125H5.3006" stroke="white" stroke-linecap="round" stroke-linejoin="round"/>
</svg>
