<svg width="25" height="24" viewBox="0 0 25 24" fill="none" xmlns="http://www.w3.org/2000/svg">
<path d="M9.95928 20.3913C10.622 20.3913 11.1593 19.8541 11.1593 19.1913C11.1593 18.5286 10.622 17.9913 9.95928 17.9913C9.29654 17.9913 8.75928 18.5286 8.75928 19.1913C8.75928 19.8541 9.29654 20.3913 9.95928 20.3913Z" fill="#2E2A94"/>
<path d="M18.3594 20.3913C19.0222 20.3913 19.5594 19.8541 19.5594 19.1913C19.5594 18.5286 19.0222 17.9913 18.3594 17.9913C17.6967 17.9913 17.1594 18.5286 17.1594 19.1913C17.1594 19.8541 17.6967 20.3913 18.3594 20.3913Z" fill="#2E2A94"/>
<path d="M3.95947 4.79138H5.82614L8.68447 15.8147C8.75722 16.0955 8.91378 16.3429 9.13023 16.5193C9.34668 16.6957 9.61109 16.7913 9.88303 16.7914H17.5706C17.8427 16.7914 18.1072 16.696 18.3238 16.5196C18.5405 16.3432 18.6971 16.0956 18.7699 15.8147L20.7595 8.12472H6.69025" stroke="#2E2A94" stroke-linecap="round" stroke-linejoin="round"/>
</svg>
