<svg width="18" height="18" viewBox="0 0 18 18" fill="none" xmlns="http://www.w3.org/2000/svg">
<path d="M3.6 0H14.4C16.3882 0 18 1.61177 18 3.6V14.4C18 16.3882 16.3882 18 14.4 18H3.6C1.61178 18 0 16.3882 0 14.4V3.6C0 1.61178 1.61177 0 3.6 0Z" fill="#2E2A94"/>
<path fill-rule="evenodd" clip-rule="evenodd" d="M13.0144 5.76722C13.3087 5.99609 13.3617 6.42018 13.1328 6.71444L9.52649 11.3511C8.96515 12.0728 7.90926 12.1665 7.22964 11.5548L4.94843 9.50175C4.67134 9.25237 4.64887 8.82557 4.89826 8.54848C5.14764 8.27139 5.57444 8.24892 5.85153 8.49831L8.13275 10.5514C8.22983 10.6388 8.38067 10.6254 8.46087 10.5223L12.0672 5.88562C12.296 5.59136 12.7201 5.53835 13.0144 5.76722Z" fill="white"/>
</svg>
