<svg width="300" height="180" viewBox="0 0 300 180" fill="none" xmlns="http://www.w3.org/2000/svg">
<path d="M47.75 8H287.75" stroke="#EEEEEE"/>
<path d="M47.75 32H287.75" stroke="#EEEEEE"/>
<path d="M47.75 56H287.75" stroke="#EEEEEE"/>
<path d="M47.75 80H287.75" stroke="#EEEEEE"/>
<path d="M47.75 104H287.75" stroke="#EEEEEE"/>
<path d="M47.75 128H287.75" stroke="#EEEEEE"/>
<path d="M47.75 152H287.75" stroke="#EEEEEE"/>
<path d="M48.25 8C48.25 64.2355 48.25 95.7645 48.25 152" stroke="#EEEEEE"/>
<path d="M96.25 8C96.25 64.2355 96.25 95.7645 96.25 152" stroke="#EEEEEE"/>
<path d="M144.25 8L144.25 152" stroke="#EEEEEE"/>
<path d="M192.25 8L192.25 152" stroke="#EEEEEE"/>
<path d="M240.25 8L240.25 152" stroke="#EEEEEE"/>
<path d="M288.25 8L288.25 152" stroke="#EEEEEE"/>
<path d="M48 150.815C197.323 153.93 252.361 117.886 288 28V146.705L48 150.815Z" fill="url(#paint0_linear_20377_16833)"/>
<path d="M288 92C236.81 147.172 140.304 151.04 47 152H288C288 152 288 101.94 288 92Z" fill="url(#paint1_linear_20377_16833)"/>
<path d="M288 92C234.26 148.229 139.238 150.581 47 152" stroke="#B7B7B7" stroke-width="0.972311"/>
<path d="M288 28C254.842 112.279 203.143 152 47 152" stroke="#2E2A94" stroke-width="0.972311"/>
<path d="M23.2812 158.852C22.6927 158.852 22.1914 158.691 21.7773 158.371C21.3633 158.048 21.0469 157.581 20.8281 156.969C20.6094 156.354 20.5 155.612 20.5 154.742C20.5 153.878 20.6094 153.139 20.8281 152.527C21.0495 151.913 21.3672 151.444 21.7813 151.121C22.1979 150.796 22.6979 150.633 23.2812 150.633C23.8646 150.633 24.3633 150.796 24.7773 151.121C25.194 151.444 25.5117 151.913 25.7305 152.527C25.9518 153.139 26.0625 153.878 26.0625 154.742C26.0625 155.612 25.9531 156.354 25.7344 156.969C25.5156 157.581 25.1992 158.048 24.7852 158.371C24.3711 158.691 23.8698 158.852 23.2812 158.852ZM23.2812 157.992C23.8646 157.992 24.3177 157.711 24.6406 157.148C24.9635 156.586 25.125 155.784 25.125 154.742C25.125 154.049 25.0508 153.46 24.9023 152.973C24.7565 152.486 24.5456 152.115 24.2695 151.859C23.9961 151.604 23.6667 151.477 23.2812 151.477C22.7031 151.477 22.2513 151.762 21.9258 152.332C21.6003 152.9 21.4375 153.703 21.4375 154.742C21.4375 155.435 21.5104 156.023 21.6563 156.508C21.8021 156.992 22.0117 157.361 22.2852 157.613C22.5612 157.866 22.8932 157.992 23.2812 157.992ZM30.7813 158.742V150.742H31.75V157.883H35.4688V158.742H30.7813Z" fill="#757575"/>
<path d="M13.4268 129.699V128.902L16.6299 123.34H17.583L14.458 128.777V128.84H19.208V129.699H13.4268ZM17.1924 131.34V129.465V129.086V126.34H18.1143V131.34H17.1924ZM23.2812 131.449C22.6927 131.449 22.1914 131.289 21.7773 130.969C21.3633 130.646 21.0469 130.178 20.8281 129.566C20.6094 128.952 20.5 128.21 20.5 127.34C20.5 126.475 20.6094 125.737 20.8281 125.125C21.0495 124.51 21.3672 124.042 21.7813 123.719C22.1979 123.393 22.6979 123.23 23.2812 123.23C23.8646 123.23 24.3633 123.393 24.7773 123.719C25.194 124.042 25.5117 124.51 25.7305 125.125C25.9518 125.737 26.0625 126.475 26.0625 127.34C26.0625 128.21 25.9531 128.952 25.7344 129.566C25.5156 130.178 25.1992 130.646 24.7852 130.969C24.3711 131.289 23.8698 131.449 23.2812 131.449ZM23.2812 130.59C23.8646 130.59 24.3177 130.309 24.6406 129.746C24.9635 129.184 25.125 128.382 25.125 127.34C25.125 126.647 25.0508 126.057 24.9023 125.57C24.7565 125.083 24.5456 124.712 24.2695 124.457C23.9961 124.202 23.6667 124.074 23.2812 124.074C22.7031 124.074 22.2513 124.359 21.9258 124.93C21.6003 125.497 21.4375 126.301 21.4375 127.34C21.4375 128.033 21.5104 128.621 21.6563 129.105C21.8021 129.59 22.0117 129.958 22.2852 130.211C22.5612 130.464 22.8932 130.59 23.2812 130.59ZM30.7813 131.34V123.34H31.75V130.48H35.4688V131.34H30.7813Z" fill="#757575"/>
<path d="M16.4561 107.574C15.9196 107.574 15.4456 107.479 15.0342 107.289C14.6253 107.096 14.3063 106.832 14.0771 106.496C13.848 106.158 13.7347 105.772 13.7373 105.34C13.7347 105.001 13.8011 104.689 13.9365 104.402C14.0719 104.113 14.2568 103.872 14.4912 103.68C14.7282 103.484 14.9925 103.361 15.2842 103.309V103.262C14.9014 103.163 14.5967 102.948 14.3701 102.617C14.1436 102.284 14.0316 101.905 14.0342 101.48C14.0316 101.074 14.1344 100.711 14.3428 100.391C14.5511 100.07 14.8376 99.8177 15.2021 99.6328C15.5693 99.4479 15.9873 99.3555 16.4561 99.3555C16.9196 99.3555 17.3337 99.4479 17.6982 99.6328C18.0628 99.8177 18.3493 100.07 18.5576 100.391C18.7686 100.711 18.8753 101.074 18.8779 101.48C18.8753 101.905 18.7594 102.284 18.5303 102.617C18.3037 102.948 18.0029 103.163 17.6279 103.262V103.309C17.917 103.361 18.1774 103.484 18.4092 103.68C18.641 103.872 18.8258 104.113 18.9639 104.402C19.1019 104.689 19.1722 105.001 19.1748 105.34C19.1722 105.772 19.055 106.158 18.8232 106.496C18.5941 106.832 18.2751 107.096 17.8662 107.289C17.46 107.479 16.9899 107.574 16.4561 107.574ZM16.4561 106.715C16.818 106.715 17.1305 106.656 17.3936 106.539C17.6566 106.422 17.8597 106.257 18.0029 106.043C18.1462 105.829 18.2191 105.579 18.2217 105.293C18.2191 104.991 18.141 104.724 17.9873 104.492C17.8337 104.26 17.624 104.078 17.3584 103.945C17.0954 103.812 16.7946 103.746 16.4561 103.746C16.1149 103.746 15.8102 103.812 15.542 103.945C15.2764 104.078 15.0667 104.26 14.9131 104.492C14.762 104.724 14.6878 104.991 14.6904 105.293C14.6878 105.579 14.7568 105.829 14.8975 106.043C15.0407 106.257 15.2451 106.422 15.5107 106.539C15.7764 106.656 16.0915 106.715 16.4561 106.715ZM16.4561 102.918C16.7425 102.918 16.9964 102.861 17.2178 102.746C17.4417 102.632 17.6175 102.471 17.7451 102.266C17.8727 102.06 17.9378 101.819 17.9404 101.543C17.9378 101.272 17.874 101.036 17.749 100.836C17.624 100.633 17.4508 100.477 17.2295 100.367C17.0081 100.255 16.7503 100.199 16.4561 100.199C16.1566 100.199 15.8949 100.255 15.6709 100.367C15.4469 100.477 15.2738 100.633 15.1514 100.836C15.029 101.036 14.9691 101.272 14.9717 101.543C14.9691 101.819 15.0303 102.06 15.1553 102.266C15.2829 102.471 15.4587 102.632 15.6826 102.746C15.9066 102.861 16.1644 102.918 16.4561 102.918ZM23.2812 107.574C22.6927 107.574 22.1914 107.414 21.7773 107.094C21.3633 106.771 21.0469 106.303 20.8281 105.691C20.6094 105.077 20.5 104.335 20.5 103.465C20.5 102.6 20.6094 101.862 20.8281 101.25C21.0495 100.635 21.3672 100.167 21.7813 99.8437C22.1979 99.5182 22.6979 99.3555 23.2812 99.3555C23.8646 99.3555 24.3633 99.5182 24.7773 99.8437C25.194 100.167 25.5117 100.635 25.7305 101.25C25.9518 101.862 26.0625 102.6 26.0625 103.465C26.0625 104.335 25.9531 105.077 25.7344 105.691C25.5156 106.303 25.1992 106.771 24.7852 107.094C24.3711 107.414 23.8698 107.574 23.2812 107.574ZM23.2812 106.715C23.8646 106.715 24.3177 106.434 24.6406 105.871C24.9635 105.309 25.125 104.507 25.125 103.465C25.125 102.772 25.0508 102.182 24.9023 101.695C24.7565 101.208 24.5456 100.837 24.2695 100.582C23.9961 100.327 23.6667 100.199 23.2812 100.199C22.7031 100.199 22.2513 100.484 21.9258 101.055C21.6003 101.622 21.4375 102.426 21.4375 103.465C21.4375 104.158 21.5104 104.746 21.6563 105.23C21.8021 105.715 22.0117 106.083 22.2852 106.336C22.5612 106.589 22.8932 106.715 23.2812 106.715ZM30.7813 107.465V99.4648H31.75V106.605H35.4688V107.465H30.7813Z" fill="#757575"/>
<path d="M10 76.4842V84.4842H9.03125V77.8904H8.96875C8.93229 77.9633 8.83854 78.0467 8.6875 78.1404C8.53646 78.2316 8.34115 78.3123 8.10156 78.3826C7.86198 78.4503 7.58854 78.4842 7.28125 78.4842V77.6717C7.59115 77.6717 7.85938 77.6157 8.08594 77.5037C8.3125 77.3917 8.5013 77.2602 8.65234 77.1092C8.80599 76.9581 8.92188 76.8214 9 76.699C9.08073 76.5766 9.1276 76.505 9.14063 76.4842H10ZM12.5078 84.5467C12.3151 84.5467 12.1497 84.4777 12.0117 84.3396C11.8737 84.2016 11.8047 84.0363 11.8047 83.8436C11.8047 83.6508 11.8737 83.4855 12.0117 83.3475C12.1497 83.2094 12.3151 83.1404 12.5078 83.1404C12.7005 83.1404 12.8659 83.2094 13.0039 83.3475C13.1419 83.4855 13.2109 83.6508 13.2109 83.8436C13.2109 83.9712 13.1784 84.0883 13.1133 84.1951C13.0508 84.3019 12.9661 84.3878 12.8594 84.4529C12.7552 84.5154 12.638 84.5467 12.5078 84.5467ZM14.8496 84.4842V83.7811L17.4902 80.8904C17.8001 80.5519 18.0553 80.2576 18.2559 80.0076C18.4564 79.755 18.6048 79.518 18.7012 79.2967C18.8001 79.0727 18.8496 78.8383 18.8496 78.5936C18.8496 78.3123 18.7819 78.0688 18.6465 77.8631C18.5137 77.6574 18.3314 77.4985 18.0996 77.3865C17.8678 77.2745 17.6074 77.2186 17.3184 77.2186C17.0111 77.2186 16.7428 77.2824 16.5137 77.41C16.2871 77.535 16.1113 77.7107 15.9863 77.9373C15.8639 78.1639 15.8027 78.4295 15.8027 78.7342H14.8809C14.8809 78.2654 14.9889 77.854 15.2051 77.4998C15.4212 77.1456 15.7155 76.8696 16.0879 76.6717C16.4629 76.4738 16.8835 76.3748 17.3496 76.3748C17.8184 76.3748 18.2337 76.4738 18.5957 76.6717C18.9577 76.8696 19.2415 77.1365 19.4473 77.4725C19.653 77.8084 19.7559 78.1821 19.7559 78.5936C19.7559 78.8878 19.7025 79.1756 19.5957 79.4568C19.4915 79.7355 19.3092 80.0467 19.0488 80.3904C18.791 80.7316 18.4329 81.1482 17.9746 81.6404L16.1777 83.5623V83.6248H19.8965V84.4842H14.8496ZM31.1816 78.9842H30.2129C30.1556 78.7055 30.0553 78.4607 29.9121 78.2498C29.7715 78.0389 29.5996 77.8618 29.3965 77.7186C29.196 77.5727 28.9733 77.4633 28.7285 77.3904C28.4837 77.3175 28.2285 77.2811 27.9629 77.2811C27.4785 77.2811 27.0397 77.4034 26.6465 77.6482C26.2559 77.893 25.9447 78.2537 25.7129 78.7303C25.4837 79.2068 25.3691 79.7915 25.3691 80.4842C25.3691 81.1769 25.4837 81.7615 25.7129 82.2381C25.9447 82.7146 26.2559 83.0753 26.6465 83.3201C27.0397 83.5649 27.4785 83.6873 27.9629 83.6873C28.2285 83.6873 28.4837 83.6508 28.7285 83.5779C28.9733 83.505 29.196 83.3969 29.3965 83.2537C29.5996 83.1079 29.7715 82.9295 29.9121 82.7186C30.0553 82.505 30.1556 82.2602 30.2129 81.9842H31.1816C31.1087 82.393 30.9759 82.7589 30.7832 83.0818C30.5905 83.4047 30.3509 83.6795 30.0645 83.9061C29.778 84.13 29.4564 84.3006 29.0996 84.4178C28.7454 84.535 28.3665 84.5936 27.9629 84.5936C27.2806 84.5936 26.6738 84.4269 26.1426 84.0936C25.6113 83.7602 25.1934 83.2863 24.8887 82.6717C24.584 82.0571 24.4316 81.3279 24.4316 80.4842C24.4316 79.6404 24.584 78.9113 24.8887 78.2967C25.1934 77.6821 25.6113 77.2081 26.1426 76.8748C26.6738 76.5415 27.2806 76.3748 27.9629 76.3748C28.3665 76.3748 28.7454 76.4334 29.0996 76.5506C29.4564 76.6678 29.778 76.8396 30.0645 77.0662C30.3509 77.2902 30.5905 77.5636 30.7832 77.8865C30.9759 78.2068 31.1087 78.5727 31.1816 78.9842ZM32.6221 84.4842V78.4842H33.5127V79.3904H33.5752C33.682 79.0936 33.8786 78.8527 34.165 78.6678C34.4515 78.4829 34.7757 78.3904 35.1377 78.3904C35.3044 78.3904 35.4502 78.41 35.5752 78.449C35.7002 78.4881 35.8096 78.5415 35.9033 78.6092L35.5908 79.3904C35.5257 79.3566 35.4489 79.3305 35.3604 79.3123C35.2744 79.2915 35.1742 79.2811 35.0596 79.2811C34.7679 79.2811 34.5075 79.3422 34.2783 79.4646C34.0518 79.587 33.8721 79.7537 33.7393 79.9646C33.609 80.1756 33.5439 80.4165 33.5439 80.6873V84.4842H32.6221Z" fill="#757575"/>
<path d="M10.3438 51.7383V59.7383H9.375V53.1445H9.3125C9.27604 53.2174 9.18229 53.3008 9.03125 53.3945C8.88021 53.4857 8.6849 53.5664 8.44531 53.6367C8.20573 53.7044 7.93229 53.7383 7.625 53.7383V52.9258C7.9349 52.9258 8.20313 52.8698 8.42969 52.7578C8.65625 52.6458 8.84505 52.5143 8.99609 52.3633C9.14974 52.2122 9.26563 52.0755 9.34375 51.9531C9.42448 51.8307 9.47135 51.7591 9.48438 51.7383H10.3438ZM12.8516 59.8008C12.6589 59.8008 12.4935 59.7318 12.3555 59.5937C12.2174 59.4557 12.1484 59.2904 12.1484 59.0977C12.1484 58.9049 12.2174 58.7396 12.3555 58.6016C12.4935 58.4635 12.6589 58.3945 12.8516 58.3945C13.0443 58.3945 13.2096 58.4635 13.3477 58.6016C13.4857 58.7396 13.5547 58.9049 13.5547 59.0977C13.5547 59.2253 13.5221 59.3424 13.457 59.4492C13.3945 59.556 13.3099 59.6419 13.2031 59.707C13.099 59.7695 12.9818 59.8008 12.8516 59.8008ZM15.0059 57.207C15.0111 56.957 15.0488 56.6979 15.1191 56.4297C15.1895 56.1615 15.3079 55.8633 15.4746 55.5352C15.6413 55.207 15.8704 54.8268 16.1621 54.3945L17.959 51.7383H19.0215L16.9121 54.8164C17.0059 54.7852 17.1022 54.7591 17.2012 54.7383C17.3027 54.7174 17.4043 54.707 17.5059 54.707C17.9902 54.707 18.4225 54.819 18.8027 55.043C19.1855 55.2669 19.4863 55.5729 19.7051 55.9609C19.9264 56.349 20.0371 56.7904 20.0371 57.2852C20.0371 57.7799 19.9277 58.2201 19.709 58.6055C19.4928 58.9909 19.1947 59.2943 18.8145 59.5156C18.4368 59.737 18.0059 59.8477 17.5215 59.8477C17.0319 59.8477 16.597 59.7344 16.2168 59.5078C15.8366 59.2786 15.5384 58.9661 15.3223 58.5703C15.1061 58.1719 15.0007 57.7174 15.0059 57.207ZM15.9277 57.2695C15.9277 57.6081 15.9954 57.9076 16.1309 58.168C16.2663 58.4284 16.4538 58.6328 16.6934 58.7812C16.9329 58.9297 17.209 59.0039 17.5215 59.0039C17.834 59.0039 18.11 58.931 18.3496 58.7852C18.5892 58.6367 18.7767 58.4336 18.9121 58.1758C19.0475 57.9154 19.1152 57.6185 19.1152 57.2852C19.1152 56.9466 19.0475 56.6484 18.9121 56.3906C18.7767 56.1328 18.5892 55.931 18.3496 55.7852C18.11 55.6393 17.834 55.5664 17.5215 55.5664C17.209 55.5664 16.9329 55.6393 16.6934 55.7852C16.4538 55.9284 16.2663 56.1289 16.1309 56.3867C15.9954 56.6419 15.9277 56.9362 15.9277 57.2695ZM31.1816 54.2383H30.2129C30.1556 53.9596 30.0553 53.7148 29.9121 53.5039C29.7715 53.293 29.5996 53.1159 29.3965 52.9727C29.196 52.8268 28.9733 52.7174 28.7285 52.6445C28.4837 52.5716 28.2285 52.5352 27.9629 52.5352C27.4785 52.5352 27.0397 52.6576 26.6465 52.9023C26.2559 53.1471 25.9447 53.5078 25.7129 53.9844C25.4837 54.4609 25.3691 55.0456 25.3691 55.7383C25.3691 56.431 25.4837 57.0156 25.7129 57.4922C25.9447 57.9687 26.2559 58.3294 26.6465 58.5742C27.0397 58.819 27.4785 58.9414 27.9629 58.9414C28.2285 58.9414 28.4837 58.9049 28.7285 58.832C28.9733 58.7591 29.196 58.651 29.3965 58.5078C29.5996 58.362 29.7715 58.1836 29.9121 57.9727C30.0553 57.7591 30.1556 57.5143 30.2129 57.2383H31.1816C31.1087 57.6471 30.9759 58.013 30.7832 58.3359C30.5905 58.6589 30.3509 58.9336 30.0645 59.1602C29.778 59.3841 29.4564 59.5547 29.0996 59.6719C28.7454 59.7891 28.3665 59.8477 27.9629 59.8477C27.2806 59.8477 26.6738 59.681 26.1426 59.3477C25.6113 59.0143 25.1934 58.5404 24.8887 57.9258C24.584 57.3112 24.4316 56.582 24.4316 55.7383C24.4316 54.8945 24.584 54.1654 24.8887 53.5508C25.1934 52.9362 25.6113 52.4622 26.1426 52.1289C26.6738 51.7956 27.2806 51.6289 27.9629 51.6289C28.3665 51.6289 28.7454 51.6875 29.0996 51.8047C29.4564 51.9219 29.778 52.0937 30.0645 52.3203C30.3509 52.5443 30.5905 52.8177 30.7832 53.1406C30.9759 53.4609 31.1087 53.8268 31.1816 54.2383ZM32.6221 59.7383V53.7383H33.5127V54.6445H33.5752C33.682 54.3477 33.8786 54.1068 34.165 53.9219C34.4515 53.737 34.7757 53.6445 35.1377 53.6445C35.3044 53.6445 35.4502 53.6641 35.5752 53.7031C35.7002 53.7422 35.8096 53.7956 35.9033 53.8633L35.5908 54.6445C35.5257 54.6107 35.4489 54.5846 35.3604 54.5664C35.2744 54.5456 35.1742 54.5352 35.0596 54.5352C34.7679 54.5352 34.5075 54.5964 34.2783 54.7187C34.0518 54.8411 33.8721 55.0078 33.7393 55.2187C33.609 55.4297 33.5439 55.6706 33.5439 55.9414V59.7383H32.6221Z" fill="#757575"/>
<path d="M14.8496 35.8672V35.1641L17.4902 32.2734C17.8001 31.9349 18.0553 31.6406 18.2559 31.3906C18.4564 31.138 18.6048 30.901 18.7012 30.6797C18.8001 30.4557 18.8496 30.2214 18.8496 29.9766C18.8496 29.6953 18.7819 29.4518 18.6465 29.2461C18.5137 29.0404 18.3314 28.8815 18.0996 28.7695C17.8678 28.6576 17.6074 28.6016 17.3184 28.6016C17.0111 28.6016 16.7428 28.6654 16.5137 28.793C16.2871 28.918 16.1113 29.0937 15.9863 29.3203C15.8639 29.5469 15.8027 29.8125 15.8027 30.1172H14.8809C14.8809 29.6484 14.9889 29.237 15.2051 28.8828C15.4212 28.5286 15.7155 28.2526 16.0879 28.0547C16.4629 27.8568 16.8835 27.7578 17.3496 27.7578C17.8184 27.7578 18.2337 27.8568 18.5957 28.0547C18.9577 28.2526 19.2415 28.5195 19.4473 28.8555C19.653 29.1914 19.7559 29.5651 19.7559 29.9766C19.7559 30.2708 19.7025 30.5586 19.5957 30.8398C19.4915 31.1185 19.3092 31.4297 19.0488 31.7734C18.791 32.1146 18.4329 32.5312 17.9746 33.0234L16.1777 34.9453V35.0078H19.8965V35.8672H14.8496ZM31.1816 30.3672H30.2129C30.1556 30.0885 30.0553 29.8437 29.9121 29.6328C29.7715 29.4219 29.5996 29.2448 29.3965 29.1016C29.196 28.9557 28.9733 28.8464 28.7285 28.7734C28.4837 28.7005 28.2285 28.6641 27.9629 28.6641C27.4785 28.6641 27.0397 28.7865 26.6465 29.0312C26.2559 29.276 25.9447 29.6367 25.7129 30.1133C25.4837 30.5898 25.3691 31.1745 25.3691 31.8672C25.3691 32.5599 25.4837 33.1445 25.7129 33.6211C25.9447 34.0977 26.2559 34.4583 26.6465 34.7031C27.0397 34.9479 27.4785 35.0703 27.9629 35.0703C28.2285 35.0703 28.4837 35.0339 28.7285 34.9609C28.9733 34.888 29.196 34.7799 29.3965 34.6367C29.5996 34.4909 29.7715 34.3125 29.9121 34.1016C30.0553 33.888 30.1556 33.6432 30.2129 33.3672H31.1816C31.1087 33.776 30.9759 34.1419 30.7832 34.4648C30.5905 34.7878 30.3509 35.0625 30.0645 35.2891C29.778 35.513 29.4564 35.6836 29.0996 35.8008C28.7454 35.918 28.3665 35.9766 27.9629 35.9766C27.2806 35.9766 26.6738 35.8099 26.1426 35.4766C25.6113 35.1432 25.1934 34.6693 24.8887 34.0547C24.584 33.4401 24.4316 32.7109 24.4316 31.8672C24.4316 31.0234 24.584 30.2943 24.8887 29.6797C25.1934 29.0651 25.6113 28.5911 26.1426 28.2578C26.6738 27.9245 27.2806 27.7578 27.9629 27.7578C28.3665 27.7578 28.7454 27.8164 29.0996 27.9336C29.4564 28.0508 29.778 28.2227 30.0645 28.4492C30.3509 28.6732 30.5905 28.9466 30.7832 29.2695C30.9759 29.5898 31.1087 29.9557 31.1816 30.3672ZM32.6221 35.8672V29.8672H33.5127V30.7734H33.5752C33.682 30.4766 33.8786 30.2357 34.165 30.0508C34.4515 29.8659 34.7757 29.7734 35.1377 29.7734C35.3044 29.7734 35.4502 29.793 35.5752 29.832C35.7002 29.8711 35.8096 29.9245 35.9033 29.9922L35.5908 30.7734C35.5257 30.7396 35.4489 30.7135 35.3604 30.6953C35.2744 30.6745 35.1742 30.6641 35.0596 30.6641C34.7679 30.6641 34.5075 30.7253 34.2783 30.8477C34.0518 30.9701 33.8721 31.1367 33.7393 31.3477C33.609 31.5586 33.5439 31.7995 33.5439 32.0703V35.8672H32.6221Z" fill="#757575"/>
<path d="M4.7627 12V11.2969L7.40332 8.40625C7.71322 8.06771 7.96842 7.77344 8.16895 7.52344C8.36947 7.27083 8.5179 7.03385 8.61426 6.8125C8.71322 6.58854 8.7627 6.35417 8.7627 6.10937C8.7627 5.82813 8.69499 5.58464 8.55957 5.37891C8.42676 5.17318 8.24447 5.01432 8.0127 4.90234C7.78092 4.79036 7.52051 4.73437 7.23145 4.73437C6.92415 4.73437 6.65592 4.79818 6.42676 4.92578C6.2002 5.05078 6.02441 5.22656 5.89941 5.45312C5.77702 5.67969 5.71582 5.94531 5.71582 6.25H4.79395C4.79395 5.78125 4.90202 5.36979 5.11816 5.01562C5.33431 4.66146 5.62858 4.38542 6.00098 4.1875C6.37598 3.98958 6.79655 3.89062 7.2627 3.89062C7.73145 3.89062 8.14681 3.98958 8.50879 4.1875C8.87077 4.38542 9.15462 4.65234 9.36035 4.98828C9.56608 5.32422 9.66895 5.69792 9.66895 6.10937C9.66895 6.40365 9.61556 6.69141 9.50879 6.97266C9.40462 7.2513 9.22233 7.5625 8.96191 7.90625C8.7041 8.2474 8.34603 8.66406 7.8877 9.15625L6.09082 11.0781V11.1406H9.80957V12H4.7627ZM12.1104 12.0625C11.9176 12.0625 11.7523 11.9935 11.6143 11.8555C11.4762 11.7174 11.4072 11.5521 11.4072 11.3594C11.4072 11.1667 11.4762 11.0013 11.6143 10.8633C11.7523 10.7253 11.9176 10.6562 12.1104 10.6562C12.3031 10.6562 12.4684 10.7253 12.6064 10.8633C12.7445 11.0013 12.8135 11.1667 12.8135 11.3594C12.8135 11.487 12.7809 11.6042 12.7158 11.7109C12.6533 11.8177 12.5687 11.9036 12.4619 11.9687C12.3577 12.0313 12.2406 12.0625 12.1104 12.0625ZM14.2646 10.3594V9.5625L17.4678 4H18.4209L15.2959 9.4375V9.5H20.0459V10.3594H14.2646ZM18.0303 12V10.125V9.74609V7H18.9521V12H18.0303ZM31.1816 6.5H30.2129C30.1556 6.22135 30.0553 5.97656 29.9121 5.76562C29.7715 5.55469 29.5996 5.3776 29.3965 5.23438C29.196 5.08854 28.9733 4.97917 28.7285 4.90625C28.4837 4.83333 28.2285 4.79687 27.9629 4.79687C27.4785 4.79687 27.0397 4.91927 26.6465 5.16406C26.2559 5.40885 25.9447 5.76953 25.7129 6.24609C25.4837 6.72266 25.3691 7.30729 25.3691 8C25.3691 8.69271 25.4837 9.27734 25.7129 9.75391C25.9447 10.2305 26.2559 10.5911 26.6465 10.8359C27.0397 11.0807 27.4785 11.2031 27.9629 11.2031C28.2285 11.2031 28.4837 11.1667 28.7285 11.0937C28.9733 11.0208 29.196 10.9128 29.3965 10.7695C29.5996 10.6237 29.7715 10.4453 29.9121 10.2344C30.0553 10.0208 30.1556 9.77604 30.2129 9.5H31.1816C31.1087 9.90885 30.9759 10.2747 30.7832 10.5977C30.5905 10.9206 30.3509 11.1953 30.0645 11.4219C29.778 11.6458 29.4564 11.8164 29.0996 11.9336C28.7454 12.0508 28.3665 12.1094 27.9629 12.1094C27.2806 12.1094 26.6738 11.9427 26.1426 11.6094C25.6113 11.276 25.1934 10.8021 24.8887 10.1875C24.584 9.57292 24.4316 8.84375 24.4316 8C24.4316 7.15625 24.584 6.42708 24.8887 5.8125C25.1934 5.19792 25.6113 4.72396 26.1426 4.39062C26.6738 4.05729 27.2806 3.89062 27.9629 3.89062C28.3665 3.89062 28.7454 3.94922 29.0996 4.06641C29.4564 4.18359 29.778 4.35547 30.0645 4.58203C30.3509 4.80599 30.5905 5.07943 30.7832 5.40234C30.9759 5.72266 31.1087 6.08854 31.1816 6.5ZM32.6221 12V6H33.5127V6.90625H33.5752C33.682 6.60938 33.8786 6.36849 34.165 6.18359C34.4515 5.9987 34.7757 5.90625 35.1377 5.90625C35.3044 5.90625 35.4502 5.92578 35.5752 5.96484C35.7002 6.00391 35.8096 6.05729 35.9033 6.125L35.5908 6.90625C35.5257 6.8724 35.4489 6.84635 35.3604 6.82812C35.2744 6.80729 35.1742 6.79687 35.0596 6.79687C34.7679 6.79687 34.5075 6.85807 34.2783 6.98047C34.0518 7.10286 33.8721 7.26953 33.7393 7.48047C33.609 7.69141 33.5439 7.93229 33.5439 8.20312V12H32.6221Z" fill="#757575"/>
<path d="M36.9348 176V175.297L39.5754 172.406C39.8853 172.068 40.1405 171.773 40.3411 171.523C40.5416 171.271 40.69 171.034 40.7864 170.812C40.8853 170.589 40.9348 170.354 40.9348 170.109C40.9348 169.828 40.8671 169.585 40.7317 169.379C40.5989 169.173 40.4166 169.014 40.1848 168.902C39.953 168.79 39.6926 168.734 39.4036 168.734C39.0963 168.734 38.828 168.798 38.5989 168.926C38.3723 169.051 38.1965 169.227 38.0715 169.453C37.9491 169.68 37.8879 169.945 37.8879 170.25H36.9661C36.9661 169.781 37.0741 169.37 37.2903 169.016C37.5064 168.661 37.8007 168.385 38.1731 168.187C38.5481 167.99 38.9687 167.891 39.4348 167.891C39.9036 167.891 40.3189 167.99 40.6809 168.187C41.0429 168.385 41.3267 168.652 41.5325 168.988C41.7382 169.324 41.8411 169.698 41.8411 170.109C41.8411 170.404 41.7877 170.691 41.6809 170.973C41.5767 171.251 41.3944 171.562 41.134 171.906C40.8762 172.247 40.5181 172.664 40.0598 173.156L38.2629 175.078V175.141H41.9817V176H36.9348ZM46.2043 176.109C45.6158 176.109 45.1145 175.949 44.7004 175.629C44.2864 175.306 43.97 174.839 43.7512 174.227C43.5325 173.612 43.4231 172.87 43.4231 172C43.4231 171.135 43.5325 170.397 43.7512 169.785C43.9726 169.171 44.2903 168.702 44.7043 168.379C45.121 168.053 45.621 167.891 46.2043 167.891C46.7877 167.891 47.2864 168.053 47.7004 168.379C48.1171 168.702 48.4348 169.171 48.6536 169.785C48.8749 170.397 48.9856 171.135 48.9856 172C48.9856 172.87 48.8762 173.612 48.6575 174.227C48.4387 174.839 48.1223 175.306 47.7082 175.629C47.2942 175.949 46.7929 176.109 46.2043 176.109ZM46.2043 175.25C46.7877 175.25 47.2408 174.969 47.5637 174.406C47.8866 173.844 48.0481 173.042 48.0481 172C48.0481 171.307 47.9739 170.717 47.8254 170.23C47.6796 169.743 47.4687 169.372 47.1926 169.117C46.9192 168.862 46.5898 168.734 46.2043 168.734C45.6262 168.734 45.1744 169.02 44.8489 169.59C44.5233 170.158 44.3606 170.961 44.3606 172C44.3606 172.693 44.4335 173.281 44.5793 173.766C44.7252 174.25 44.9348 174.618 45.2082 174.871C45.4843 175.124 45.8163 175.25 46.2043 175.25ZM50.47 176V175.297L53.1106 172.406C53.4205 172.068 53.6757 171.773 53.8762 171.523C54.0767 171.271 54.2252 171.034 54.3215 170.812C54.4205 170.589 54.47 170.354 54.47 170.109C54.47 169.828 54.4023 169.585 54.2668 169.379C54.134 169.173 53.9517 169.014 53.72 168.902C53.4882 168.79 53.2278 168.734 52.9387 168.734C52.6314 168.734 52.3632 168.798 52.134 168.926C51.9075 169.051 51.7317 169.227 51.6067 169.453C51.4843 169.68 51.4231 169.945 51.4231 170.25H50.5012C50.5012 169.781 50.6093 169.37 50.8254 169.016C51.0416 168.661 51.3358 168.385 51.7082 168.187C52.0832 167.99 52.5038 167.891 52.97 167.891C53.4387 167.891 53.8541 167.99 54.2161 168.187C54.578 168.385 54.8619 168.652 55.0676 168.988C55.2733 169.324 55.3762 169.698 55.3762 170.109C55.3762 170.404 55.3228 170.691 55.2161 170.973C55.1119 171.251 54.9296 171.562 54.6692 171.906C54.4114 172.247 54.0533 172.664 53.595 173.156L51.7981 175.078V175.141H55.5168V176H50.47ZM59.6301 176.109C59.1718 176.109 58.759 176.018 58.3918 175.836C58.0246 175.654 57.7304 175.404 57.509 175.086C57.2877 174.768 57.1666 174.406 57.1457 174H58.0832C58.1197 174.362 58.2838 174.661 58.5754 174.898C58.8697 175.133 59.2213 175.25 59.6301 175.25C59.9582 175.25 60.2499 175.173 60.5051 175.02C60.7629 174.866 60.9648 174.655 61.1106 174.387C61.259 174.116 61.3332 173.81 61.3332 173.469C61.3332 173.12 61.2564 172.809 61.1028 172.535C60.9517 172.259 60.7434 172.042 60.4778 171.883C60.2121 171.724 59.9088 171.643 59.5676 171.641C59.3228 171.638 59.0715 171.676 58.8137 171.754C58.5559 171.829 58.3437 171.927 58.177 172.047L57.2707 171.937L57.7551 168H61.9114V168.859H58.5676L58.2864 171.219H58.3332C58.4973 171.089 58.703 170.98 58.9504 170.895C59.1978 170.809 59.4556 170.766 59.7239 170.766C60.2134 170.766 60.6496 170.883 61.0325 171.117C61.4179 171.349 61.72 171.667 61.9387 172.07C62.1601 172.474 62.2707 172.935 62.2707 173.453C62.2707 173.964 62.1562 174.419 61.927 174.82C61.7004 175.219 61.3879 175.534 60.9895 175.766C60.5911 175.995 60.1379 176.109 59.6301 176.109Z" fill="#757575"/>
<path d="M84.1443 176V175.297L86.7849 172.406C87.0948 172.068 87.35 171.773 87.5505 171.523C87.751 171.271 87.8995 171.034 87.9958 170.812C88.0948 170.589 88.1443 170.354 88.1443 170.109C88.1443 169.828 88.0766 169.585 87.9412 169.379C87.8083 169.173 87.626 169.014 87.3943 168.902C87.1625 168.79 86.9021 168.734 86.613 168.734C86.3057 168.734 86.0375 168.798 85.8083 168.926C85.5818 169.051 85.406 169.227 85.281 169.453C85.1586 169.68 85.0974 169.945 85.0974 170.25H84.1755C84.1755 169.781 84.2836 169.37 84.4997 169.016C84.7159 168.661 85.0102 168.385 85.3826 168.187C85.7576 167.99 86.1781 167.891 86.6443 167.891C87.113 167.891 87.5284 167.99 87.8904 168.187C88.2523 168.385 88.5362 168.652 88.7419 168.988C88.9477 169.324 89.0505 169.698 89.0505 170.109C89.0505 170.404 88.9971 170.691 88.8904 170.973C88.7862 171.251 88.6039 171.562 88.3435 171.906C88.0857 172.247 87.7276 172.664 87.2693 173.156L85.4724 175.078V175.141H89.1912V176H84.1443ZM93.4138 176.109C92.8253 176.109 92.324 175.949 91.9099 175.629C91.4958 175.306 91.1794 174.839 90.9607 174.227C90.7419 173.612 90.6326 172.87 90.6326 172C90.6326 171.135 90.7419 170.397 90.9607 169.785C91.182 169.171 91.4997 168.702 91.9138 168.379C92.3305 168.053 92.8305 167.891 93.4138 167.891C93.9971 167.891 94.4958 168.053 94.9099 168.379C95.3266 168.702 95.6443 169.171 95.863 169.785C96.0844 170.397 96.1951 171.135 96.1951 172C96.1951 172.87 96.0857 173.612 95.8669 174.227C95.6482 174.839 95.3318 175.306 94.9177 175.629C94.5037 175.949 94.0023 176.109 93.4138 176.109ZM93.4138 175.25C93.9971 175.25 94.4503 174.969 94.7732 174.406C95.0961 173.844 95.2576 173.042 95.2576 172C95.2576 171.307 95.1833 170.717 95.0349 170.23C94.8891 169.743 94.6781 169.372 94.4021 169.117C94.1287 168.862 93.7992 168.734 93.4138 168.734C92.8357 168.734 92.3839 169.02 92.0583 169.59C91.7328 170.158 91.5701 170.961 91.5701 172C91.5701 172.693 91.643 173.281 91.7888 173.766C91.9346 174.25 92.1443 174.618 92.4177 174.871C92.6938 175.124 93.0258 175.25 93.4138 175.25ZM97.6794 176V175.297L100.32 172.406C100.63 172.068 100.885 171.773 101.086 171.523C101.286 171.271 101.435 171.034 101.531 170.812C101.63 170.589 101.679 170.354 101.679 170.109C101.679 169.828 101.612 169.585 101.476 169.379C101.343 169.173 101.161 169.014 100.929 168.902C100.698 168.79 100.437 168.734 100.148 168.734C99.8409 168.734 99.5727 168.798 99.3435 168.926C99.1169 169.051 98.9412 169.227 98.8162 169.453C98.6938 169.68 98.6326 169.945 98.6326 170.25H97.7107C97.7107 169.781 97.8188 169.37 98.0349 169.016C98.251 168.661 98.5453 168.385 98.9177 168.187C99.2927 167.99 99.7133 167.891 100.179 167.891C100.648 167.891 101.064 167.99 101.426 168.187C101.788 168.385 102.071 168.652 102.277 168.988C102.483 169.324 102.586 169.698 102.586 170.109C102.586 170.404 102.532 170.691 102.426 170.973C102.321 171.251 102.139 171.562 101.879 171.906C101.621 172.247 101.263 172.664 100.804 173.156L99.0076 175.078V175.141H102.726V176H97.6794ZM104.152 170.453C104.152 169.958 104.26 169.518 104.476 169.133C104.695 168.747 104.993 168.444 105.371 168.223C105.751 168.001 106.183 167.891 106.668 167.891C107.157 167.891 107.592 168.005 107.972 168.234C108.353 168.461 108.651 168.773 108.867 169.172C109.083 169.568 109.189 170.021 109.183 170.531C109.178 170.781 109.14 171.04 109.07 171.309C109 171.577 108.881 171.875 108.715 172.203C108.548 172.531 108.319 172.911 108.027 173.344L106.23 176H105.168L107.277 172.922C107.183 172.953 107.086 172.979 106.984 173C106.885 173.021 106.785 173.031 106.683 173.031C106.199 173.031 105.765 172.919 105.383 172.695C105.002 172.471 104.702 172.165 104.48 171.777C104.261 171.389 104.152 170.948 104.152 170.453ZM105.074 170.453C105.074 170.792 105.142 171.09 105.277 171.348C105.413 171.605 105.6 171.807 105.84 171.953C106.079 172.099 106.355 172.172 106.668 172.172C106.98 172.172 107.256 172.1 107.496 171.957C107.735 171.811 107.923 171.611 108.058 171.355C108.194 171.098 108.261 170.802 108.261 170.469C108.261 170.13 108.194 169.831 108.058 169.57C107.923 169.31 107.735 169.105 107.496 168.957C107.256 168.809 106.98 168.734 106.668 168.734C106.355 168.734 106.079 168.809 105.84 168.957C105.6 169.103 105.413 169.306 105.277 169.566C105.142 169.824 105.074 170.12 105.074 170.453Z" fill="#757575"/>
<path d="M130.693 176V175.297L133.333 172.406C133.643 172.068 133.898 171.773 134.099 171.523C134.299 171.271 134.448 171.034 134.544 170.812C134.643 170.589 134.693 170.354 134.693 170.109C134.693 169.828 134.625 169.585 134.489 169.379C134.357 169.173 134.174 169.014 133.943 168.902C133.711 168.79 133.45 168.734 133.161 168.734C132.854 168.734 132.586 168.798 132.357 168.926C132.13 169.051 131.954 169.227 131.829 169.453C131.707 169.68 131.646 169.945 131.646 170.25H130.724C130.724 169.781 130.832 169.37 131.048 169.016C131.264 168.661 131.558 168.385 131.931 168.187C132.306 167.99 132.726 167.891 133.193 167.891C133.661 167.891 134.077 167.99 134.439 168.187C134.801 168.385 135.084 168.652 135.29 168.988C135.496 169.324 135.599 169.698 135.599 170.109C135.599 170.404 135.545 170.691 135.439 170.973C135.334 171.251 135.152 171.562 134.892 171.906C134.634 172.247 134.276 172.664 133.818 173.156L132.021 175.078V175.141H135.739V176H130.693ZM139.962 176.109C139.374 176.109 138.872 175.949 138.458 175.629C138.044 175.306 137.728 174.839 137.509 174.227C137.29 173.612 137.181 172.87 137.181 172C137.181 171.135 137.29 170.397 137.509 169.785C137.73 169.171 138.048 168.702 138.462 168.379C138.879 168.053 139.379 167.891 139.962 167.891C140.545 167.891 141.044 168.053 141.458 168.379C141.875 168.702 142.193 169.171 142.411 169.785C142.633 170.397 142.743 171.135 142.743 172C142.743 172.87 142.634 173.612 142.415 174.227C142.196 174.839 141.88 175.306 141.466 175.629C141.052 175.949 140.551 176.109 139.962 176.109ZM139.962 175.25C140.545 175.25 140.999 174.969 141.321 174.406C141.644 173.844 141.806 173.042 141.806 172C141.806 171.307 141.732 170.717 141.583 170.23C141.437 169.743 141.226 169.372 140.95 169.117C140.677 168.862 140.347 168.734 139.962 168.734C139.384 168.734 138.932 169.02 138.607 169.59C138.281 170.158 138.118 170.961 138.118 172C138.118 172.693 138.191 173.281 138.337 173.766C138.483 174.25 138.693 174.618 138.966 174.871C139.242 175.124 139.574 175.25 139.962 175.25ZM144.103 174H145.087C145.116 174.271 145.208 174.5 145.364 174.687C145.523 174.872 145.729 175.013 145.982 175.109C146.234 175.203 146.514 175.25 146.821 175.25C147.155 175.25 147.454 175.194 147.72 175.082C147.986 174.97 148.196 174.803 148.353 174.582C148.509 174.358 148.587 174.081 148.587 173.75C148.587 173.461 148.519 173.193 148.384 172.945C148.249 172.695 148.031 172.493 147.732 172.34C147.432 172.186 147.035 172.109 146.54 172.109H145.9V171.328L147.9 168.922V168.859H144.493V168H149.228V168.703L147.087 171.297V171.359C147.431 171.375 147.751 171.445 148.048 171.57C148.347 171.695 148.608 171.865 148.829 172.078C149.053 172.292 149.228 172.54 149.353 172.824C149.478 173.108 149.54 173.417 149.54 173.75C149.54 174.206 149.423 174.612 149.189 174.969C148.957 175.323 148.635 175.602 148.224 175.805C147.815 176.008 147.342 176.109 146.806 176.109C146.332 176.109 145.896 176.026 145.497 175.859C145.099 175.693 144.775 175.452 144.525 175.137C144.275 174.822 144.134 174.443 144.103 174ZM151.01 174H151.994C152.023 174.271 152.115 174.5 152.272 174.687C152.43 174.872 152.636 175.013 152.889 175.109C153.141 175.203 153.421 175.25 153.729 175.25C154.062 175.25 154.361 175.194 154.627 175.082C154.893 174.97 155.104 174.803 155.26 174.582C155.416 174.358 155.494 174.081 155.494 173.75C155.494 173.461 155.427 173.193 155.291 172.945C155.156 172.695 154.938 172.493 154.639 172.34C154.339 172.186 153.942 172.109 153.447 172.109H152.807V171.328L154.807 168.922V168.859H151.401V168H156.135V168.703L153.994 171.297V171.359C154.338 171.375 154.658 171.445 154.955 171.57C155.255 171.695 155.515 171.865 155.736 172.078C155.96 172.292 156.135 172.54 156.26 172.824C156.385 173.108 156.447 173.417 156.447 173.75C156.447 174.206 156.33 174.612 156.096 174.969C155.864 175.323 155.542 175.602 155.131 175.805C154.722 176.008 154.249 176.109 153.713 176.109C153.239 176.109 152.803 176.026 152.404 175.859C152.006 175.693 151.682 175.452 151.432 175.137C151.182 174.822 151.041 174.443 151.01 174Z" fill="#757575"/>
<path d="M178.977 176V175.297L181.617 172.406C181.927 172.068 182.183 171.773 182.383 171.523C182.584 171.271 182.732 171.034 182.828 170.812C182.927 170.589 182.977 170.354 182.977 170.109C182.977 169.828 182.909 169.585 182.774 169.379C182.641 169.173 182.459 169.014 182.227 168.902C181.995 168.79 181.735 168.734 181.446 168.734C181.138 168.734 180.87 168.798 180.641 168.926C180.414 169.051 180.239 169.227 180.114 169.453C179.991 169.68 179.93 169.945 179.93 170.25H179.008C179.008 169.781 179.116 169.37 179.332 169.016C179.548 168.661 179.843 168.385 180.215 168.187C180.59 167.99 181.011 167.891 181.477 167.891C181.946 167.891 182.361 167.99 182.723 168.187C183.085 168.385 183.369 168.652 183.574 168.988C183.78 169.324 183.883 169.698 183.883 170.109C183.883 170.404 183.83 170.691 183.723 170.973C183.619 171.251 183.436 171.562 183.176 171.906C182.918 172.247 182.56 172.664 182.102 173.156L180.305 175.078V175.141H184.024V176H178.977ZM188.246 176.109C187.658 176.109 187.156 175.949 186.742 175.629C186.328 175.306 186.012 174.839 185.793 174.227C185.574 173.612 185.465 172.87 185.465 172C185.465 171.135 185.574 170.397 185.793 169.785C186.015 169.171 186.332 168.702 186.746 168.379C187.163 168.053 187.663 167.891 188.246 167.891C188.83 167.891 189.328 168.053 189.742 168.379C190.159 168.702 190.477 169.171 190.696 169.785C190.917 170.397 191.028 171.135 191.028 172C191.028 172.87 190.918 173.612 190.699 174.227C190.481 174.839 190.164 175.306 189.75 175.629C189.336 175.949 188.835 176.109 188.246 176.109ZM188.246 175.25C188.83 175.25 189.283 174.969 189.606 174.406C189.929 173.844 190.09 173.042 190.09 172C190.09 171.307 190.016 170.717 189.867 170.23C189.722 169.743 189.511 169.372 189.235 169.117C188.961 168.862 188.632 168.734 188.246 168.734C187.668 168.734 187.216 169.02 186.891 169.59C186.565 170.158 186.403 170.961 186.403 172C186.403 172.693 186.475 173.281 186.621 173.766C186.767 174.25 186.977 174.618 187.25 174.871C187.526 175.124 187.858 175.25 188.246 175.25ZM192.387 174H193.371C193.4 174.271 193.492 174.5 193.649 174.687C193.808 174.872 194.013 175.013 194.266 175.109C194.518 175.203 194.798 175.25 195.106 175.25C195.439 175.25 195.739 175.194 196.004 175.082C196.27 174.97 196.481 174.803 196.637 174.582C196.793 174.358 196.871 174.081 196.871 173.75C196.871 173.461 196.804 173.193 196.668 172.945C196.533 172.695 196.315 172.493 196.016 172.34C195.716 172.186 195.319 172.109 194.824 172.109H194.184V171.328L196.184 168.922V168.859H192.778V168H197.512V168.703L195.371 171.297V171.359C195.715 171.375 196.035 171.445 196.332 171.57C196.632 171.695 196.892 171.865 197.114 172.078C197.337 172.292 197.512 172.54 197.637 172.824C197.762 173.108 197.824 173.417 197.824 173.75C197.824 174.206 197.707 174.612 197.473 174.969C197.241 175.323 196.92 175.602 196.508 175.805C196.099 176.008 195.627 176.109 195.09 176.109C194.616 176.109 194.18 176.026 193.781 175.859C193.383 175.693 193.059 175.452 192.809 175.137C192.559 174.822 192.418 174.443 192.387 174ZM199.669 176L203.247 168.922V168.859H199.122V168H204.247V168.906L200.685 176H199.669Z" fill="#757575"/>
<path d="M226.637 176V175.297L229.277 172.406C229.587 172.068 229.842 171.773 230.043 171.523C230.243 171.271 230.392 171.034 230.488 170.812C230.587 170.589 230.637 170.354 230.637 170.109C230.637 169.828 230.569 169.585 230.433 169.379C230.301 169.173 230.118 169.014 229.887 168.902C229.655 168.79 229.394 168.734 229.105 168.734C228.798 168.734 228.53 168.798 228.301 168.926C228.074 169.051 227.898 169.227 227.773 169.453C227.651 169.68 227.59 169.945 227.59 170.25H226.668C226.668 169.781 226.776 169.37 226.992 169.016C227.208 168.661 227.502 168.385 227.875 168.187C228.25 167.99 228.67 167.891 229.137 167.891C229.605 167.891 230.021 167.99 230.383 168.187C230.745 168.385 231.028 168.652 231.234 168.988C231.44 169.324 231.543 169.698 231.543 170.109C231.543 170.404 231.489 170.691 231.383 170.973C231.278 171.251 231.096 171.562 230.836 171.906C230.578 172.247 230.22 172.664 229.762 173.156L227.965 175.078V175.141H231.683V176H226.637ZM235.906 176.109C235.318 176.109 234.816 175.949 234.402 175.629C233.988 175.306 233.672 174.839 233.453 174.227C233.234 173.612 233.125 172.87 233.125 172C233.125 171.135 233.234 170.397 233.453 169.785C233.674 169.171 233.992 168.702 234.406 168.379C234.823 168.053 235.323 167.891 235.906 167.891C236.489 167.891 236.988 168.053 237.402 168.379C237.819 168.702 238.137 169.171 238.355 169.785C238.577 170.397 238.687 171.135 238.687 172C238.687 172.87 238.578 173.612 238.359 174.227C238.14 174.839 237.824 175.306 237.41 175.629C236.996 175.949 236.495 176.109 235.906 176.109ZM235.906 175.25C236.489 175.25 236.943 174.969 237.265 174.406C237.588 173.844 237.75 173.042 237.75 172C237.75 171.307 237.676 170.717 237.527 170.23C237.381 169.743 237.17 169.372 236.894 169.117C236.621 168.862 236.291 168.734 235.906 168.734C235.328 168.734 234.876 169.02 234.551 169.59C234.225 170.158 234.062 170.961 234.062 172C234.062 172.693 234.135 173.281 234.281 173.766C234.427 174.25 234.637 174.618 234.91 174.871C235.186 175.124 235.518 175.25 235.906 175.25ZM239.984 174.359V173.562L243.187 168H244.14L241.015 173.437V173.5H245.765V174.359H239.984ZM243.75 176V174.125V173.746V171H244.672V176H243.75ZM249.684 168V176H248.716V169.406H248.653C248.617 169.479 248.523 169.563 248.372 169.656C248.221 169.747 248.026 169.828 247.786 169.898C247.546 169.966 247.273 170 246.966 170V169.187C247.276 169.187 247.544 169.132 247.77 169.02C247.997 168.908 248.186 168.776 248.337 168.625C248.49 168.474 248.606 168.337 248.684 168.215C248.765 168.092 248.812 168.021 248.825 168H249.684Z" fill="#757575"/>
<path d="M273.133 176V175.297L275.774 172.406C276.083 172.068 276.339 171.773 276.539 171.523C276.74 171.271 276.888 171.034 276.985 170.812C277.083 170.589 277.133 170.354 277.133 170.109C277.133 169.828 277.065 169.585 276.93 169.379C276.797 169.173 276.615 169.014 276.383 168.902C276.151 168.79 275.891 168.734 275.602 168.734C275.294 168.734 275.026 168.798 274.797 168.926C274.57 169.051 274.395 169.227 274.27 169.453C274.147 169.68 274.086 169.945 274.086 170.25H273.164C273.164 169.781 273.272 169.37 273.488 169.016C273.705 168.661 273.999 168.385 274.371 168.187C274.746 167.99 275.167 167.891 275.633 167.891C276.102 167.891 276.517 167.99 276.879 168.187C277.241 168.385 277.525 168.652 277.731 168.988C277.936 169.324 278.039 169.698 278.039 170.109C278.039 170.404 277.986 170.691 277.879 170.973C277.775 171.251 277.593 171.562 277.332 171.906C277.074 172.247 276.716 172.664 276.258 173.156L274.461 175.078V175.141H278.18V176H273.133ZM282.402 176.109C281.814 176.109 281.313 175.949 280.899 175.629C280.485 175.306 280.168 174.839 279.949 174.227C279.731 173.612 279.621 172.87 279.621 172C279.621 171.135 279.731 170.397 279.949 169.785C280.171 169.171 280.488 168.702 280.902 168.379C281.319 168.053 281.819 167.891 282.402 167.891C282.986 167.891 283.485 168.053 283.899 168.379C284.315 168.702 284.633 169.171 284.852 169.785C285.073 170.397 285.184 171.135 285.184 172C285.184 172.87 285.074 173.612 284.856 174.227C284.637 174.839 284.32 175.306 283.906 175.629C283.492 175.949 282.991 176.109 282.402 176.109ZM282.402 175.25C282.986 175.25 283.439 174.969 283.762 174.406C284.085 173.844 284.246 173.042 284.246 172C284.246 171.307 284.172 170.717 284.024 170.23C283.878 169.743 283.667 169.372 283.391 169.117C283.117 168.862 282.788 168.734 282.402 168.734C281.824 168.734 281.373 169.02 281.047 169.59C280.722 170.158 280.559 170.961 280.559 172C280.559 172.693 280.632 173.281 280.777 173.766C280.923 174.25 281.133 174.618 281.406 174.871C281.682 175.124 282.014 175.25 282.402 175.25ZM286.481 174.359V173.562L289.684 168H290.637L287.512 173.437V173.5H292.262V174.359H286.481ZM290.246 176V174.125V173.746V171H291.168V176H290.246ZM296.226 176.109C295.767 176.109 295.355 176.018 294.987 175.836C294.62 175.654 294.326 175.404 294.105 175.086C293.883 174.768 293.762 174.406 293.741 174H294.679C294.715 174.362 294.879 174.661 295.171 174.898C295.465 175.133 295.817 175.25 296.226 175.25C296.554 175.25 296.846 175.173 297.101 175.02C297.359 174.866 297.56 174.655 297.706 174.387C297.855 174.116 297.929 173.81 297.929 173.469C297.929 173.12 297.852 172.809 297.698 172.535C297.547 172.259 297.339 172.042 297.073 171.883C296.808 171.724 296.504 171.643 296.163 171.641C295.918 171.638 295.667 171.676 295.409 171.754C295.152 171.829 294.939 171.927 294.773 172.047L293.866 171.937L294.351 168H298.507V168.859H295.163L294.882 171.219H294.929C295.093 171.089 295.299 170.98 295.546 170.895C295.793 170.809 296.051 170.766 296.319 170.766C296.809 170.766 297.245 170.883 297.628 171.117C298.013 171.349 298.316 171.667 298.534 172.07C298.756 172.474 298.866 172.935 298.866 173.453C298.866 173.964 298.752 174.419 298.523 174.82C298.296 175.219 297.984 175.534 297.585 175.766C297.187 175.995 296.734 176.109 296.226 176.109Z" fill="#757575"/>
<defs>
<linearGradient id="paint0_linear_20377_16833" x1="190.394" y1="0.0220168" x2="190.394" y2="146.705" gradientUnits="userSpaceOnUse">
<stop stop-color="#B9DAFE"/>
<stop offset="1" stop-color="white"/>
</linearGradient>
<linearGradient id="paint1_linear_20377_16833" x1="167.5" y1="90.7397" x2="167.5" y2="152.057" gradientUnits="userSpaceOnUse">
<stop stop-color="#DDDDDD"/>
<stop offset="1" stop-color="white"/>
</linearGradient>
</defs>
</svg>
