<svg width="44" height="48" viewBox="0 0 44 48" fill="none" xmlns="http://www.w3.org/2000/svg">
<path d="M42.7983 20.7998H1.19843C0.758436 20.7998 0.398438 21.1598 0.398438 21.5998V26.3998C0.398438 38.3117 10.0864 47.9997 21.9984 47.9997C33.9103 47.9997 43.5983 38.3117 43.5983 26.3998V21.5998C43.5983 21.1598 43.2383 20.7998 42.7983 20.7998Z" fill="url(#paint0_linear_18622_13052)"/>
<path d="M22.8031 37.5996V47.9756C22.5391 47.9916 22.2671 47.9996 22.0031 47.9996C21.7391 47.9996 21.4671 47.9916 21.2031 47.9756V37.5996C21.2031 37.1596 21.5631 36.7996 22.0031 36.7996C22.4431 36.7996 22.8031 37.1596 22.8031 37.5996Z" fill="#8780FF"/>
<path d="M17.9984 37.04V47.624C17.4544 47.528 16.9264 47.408 16.3984 47.256V37.04C16.3984 36.6 16.7584 36.2401 17.1984 36.2401C17.6384 36.2401 17.9984 36.6 17.9984 37.04Z" fill="#8780FF"/>
<path d="M13.2016 35.2481V46.12C12.6576 45.88 12.1216 45.616 11.6016 45.32V35.2481C11.6016 34.8081 11.9616 34.4481 12.4016 34.4481C12.8416 34.4481 13.2016 34.8081 13.2016 35.2481Z" fill="#8780FF"/>
<path d="M8.39687 31.792V43.16C7.83687 42.712 7.30087 42.232 6.79688 41.728V31.792C6.79688 31.352 7.15687 30.992 7.59687 30.992C8.03687 30.992 8.39687 31.352 8.39687 31.792Z" fill="#8780FF"/>
<path d="M27.6 37.04V47.256C27.072 47.408 26.544 47.528 26 47.624V37.04C26 36.6 26.36 36.24 26.8 36.24C27.24 36.24 27.6 36.6 27.6 37.04Z" fill="#8780FF"/>
<path d="M32.3969 35.2481V45.32C31.8769 45.616 31.3409 45.88 30.7969 46.12V35.2481C30.7969 34.8081 31.1569 34.4481 31.5969 34.4481C32.0369 34.4481 32.3969 34.8081 32.3969 35.2481Z" fill="#8780FF"/>
<path d="M37.2016 31.792V41.728C36.6976 42.232 36.1616 42.712 35.6016 43.16V31.792C35.6016 31.352 35.9616 30.992 36.4016 30.992C36.8416 30.992 37.2016 31.352 37.2016 31.792Z" fill="#8780FF"/>
<path d="M41.9984 26.9922V34.5362C41.5584 35.6402 41.0224 36.6962 40.3984 37.6962V26.9922C40.3984 26.5522 40.7584 26.1922 41.1984 26.1922C41.6384 26.1922 41.9984 26.5522 41.9984 26.9922Z" fill="#8780FF"/>
<path d="M3.59999 28.592V37.696C2.976 36.696 2.44 35.64 2 34.536V28.592C2 28.152 2.36 27.792 2.8 27.792C3.24 27.792 3.59999 28.152 3.59999 28.592Z" fill="#8780FF"/>
<path d="M21.9984 43.1998C33.9277 43.1998 43.5983 33.5292 43.5983 21.5999C43.5983 9.67061 33.9277 0 21.9984 0C10.069 0 0.398438 9.67061 0.398438 21.5999C0.398438 33.5292 10.069 43.1998 21.9984 43.1998Z" fill="url(#paint1_linear_18622_13052)"/>
<path d="M21.9999 37.6C30.8365 37.6 37.9999 30.4366 37.9999 21.6C37.9999 12.7635 30.8365 5.6001 21.9999 5.6001C13.1634 5.6001 6 12.7635 6 21.6C6 30.4366 13.1634 37.6 21.9999 37.6Z" fill="url(#paint2_linear_18622_13052)"/>
<path d="M15.6016 19.2003C15.6016 19.6403 15.9616 20.0003 16.4016 20.0003H23.5215C23.1535 21.8243 21.5375 23.2002 19.6015 23.2002H16.4016C16.0656 23.2002 15.7616 23.4162 15.6496 23.7362C15.5376 24.0562 15.6416 24.4162 15.9056 24.6242L23.9055 31.0242C24.0495 31.1442 24.2335 31.2002 24.4015 31.2002C24.6335 31.2002 24.8655 31.0962 25.0255 30.8962C25.2975 30.5522 25.2415 30.0482 24.8975 29.7682L18.6816 24.7922H19.6015C22.4175 24.7922 24.7455 22.7042 25.1375 19.9923H29.2015C29.6415 19.9923 30.0015 19.6323 30.0015 19.1923C30.0015 18.7523 29.6415 18.3923 29.2015 18.3923H25.1375C24.9615 17.1443 24.3695 16.0323 23.5135 15.1923H29.2015C29.6415 15.1923 30.0015 14.8323 30.0015 14.3923C30.0015 13.9523 29.6415 13.5923 29.2015 13.5923H16.4016C15.9616 13.5923 15.6016 13.9523 15.6016 14.3923C15.6016 14.8323 15.9616 15.1923 16.4016 15.1923H19.6015C21.5295 15.1923 23.1455 16.5683 23.5215 18.3923H16.4016C15.9616 18.3923 15.6016 18.7523 15.6016 19.1923V19.2003Z" fill="#3025E0"/>
<defs>
<linearGradient id="paint0_linear_18622_13052" x1="43.5191" y1="20.6914" x2="-6.13094" y2="36.9646" gradientUnits="userSpaceOnUse">
<stop stop-color="#0F00FF"/>
<stop offset="1" stop-color="white"/>
</linearGradient>
<linearGradient id="paint1_linear_18622_13052" x1="39.2926" y1="2.67496" x2="-11.2489" y2="-4.48245" gradientUnits="userSpaceOnUse">
<stop stop-color="#0F00FF"/>
<stop offset="1" stop-color="white"/>
</linearGradient>
<linearGradient id="paint2_linear_18622_13052" x1="-6.30666" y1="49.9065" x2="22.1012" y2="34.7038" gradientUnits="userSpaceOnUse">
<stop stop-color="#B096ED"/>
<stop offset="0.0014" stop-color="#B096ED"/>
<stop offset="0.299" stop-color="#CDBCF3"/>
<stop offset="0.5742" stop-color="#E2D7F7"/>
<stop offset="0.8165" stop-color="#EFE8F9"/>
<stop offset="1" stop-color="#F3EEFA"/>
</linearGradient>
</defs>
</svg>
