<svg width="64" height="64" viewBox="0 0 64 64" fill="none" xmlns="http://www.w3.org/2000/svg">
<path d="M52.7983 28.7998H11.1984C10.7584 28.7998 10.3984 29.1598 10.3984 29.5998V34.3998C10.3984 46.3117 20.0864 55.9997 31.9984 55.9997C43.9103 55.9997 53.5983 46.3117 53.5983 34.3998V29.5998C53.5983 29.1598 53.2383 28.7998 52.7983 28.7998Z" fill="url(#paint0_linear_10223_6253)"/>
<path d="M32.8032 45.5997V55.9756C32.5392 55.9916 32.2672 55.9996 32.0032 55.9996C31.7392 55.9996 31.4672 55.9916 31.2032 55.9756V45.5997C31.2032 45.1597 31.5632 44.7997 32.0032 44.7997C32.4432 44.7997 32.8032 45.1597 32.8032 45.5997Z" fill="#8780FF"/>
<path d="M27.9986 45.0401V55.6241C27.4546 55.5281 26.9266 55.4081 26.3986 55.2561V45.0401C26.3986 44.6001 26.7586 44.2401 27.1986 44.2401C27.6386 44.2401 27.9986 44.6001 27.9986 45.0401Z" fill="#8780FF"/>
<path d="M23.2017 43.2481V54.1201C22.6577 53.8801 22.1217 53.6161 21.6017 53.3201V43.2481C21.6017 42.8081 21.9617 42.4481 22.4017 42.4481C22.8417 42.4481 23.2017 42.8081 23.2017 43.2481Z" fill="#8780FF"/>
<path d="M18.397 39.7921V51.16C17.837 50.712 17.301 50.232 16.797 49.728V39.7921C16.797 39.3521 17.157 38.9921 17.597 38.9921C18.037 38.9921 18.397 39.3521 18.397 39.7921Z" fill="#8780FF"/>
<path d="M37.6001 45.0401V55.2561C37.0721 55.4081 36.5441 55.5281 36.0001 55.6241V45.0401C36.0001 44.6001 36.3601 44.2401 36.8001 44.2401C37.2401 44.2401 37.6001 44.6001 37.6001 45.0401Z" fill="#8780FF"/>
<path d="M42.397 43.2481V53.3201C41.877 53.6161 41.341 53.8801 40.797 54.1201V43.2481C40.797 42.8081 41.157 42.4481 41.597 42.4481C42.037 42.4481 42.397 42.8081 42.397 43.2481Z" fill="#8780FF"/>
<path d="M47.2017 39.7921V49.728C46.6977 50.232 46.1617 50.712 45.6017 51.16V39.7921C45.6017 39.3521 45.9617 38.9921 46.4017 38.9921C46.8417 38.9921 47.2017 39.3521 47.2017 39.7921Z" fill="#8780FF"/>
<path d="M51.9986 34.9923V42.5362C51.5586 43.6402 51.0226 44.6962 50.3986 45.6962V34.9923C50.3986 34.5523 50.7586 34.1923 51.1986 34.1923C51.6386 34.1923 51.9986 34.5523 51.9986 34.9923Z" fill="#8780FF"/>
<path d="M13.6002 36.5921V45.6961C12.9762 44.6961 12.4402 43.6401 12.0002 42.5361V36.5921C12.0002 36.1521 12.3602 35.7921 12.8002 35.7921C13.2402 35.7921 13.6002 36.1521 13.6002 36.5921Z" fill="#8780FF"/>
<path d="M31.9984 51.1998C43.9277 51.1998 53.5983 41.5292 53.5983 29.5999C53.5983 17.6706 43.9277 8 31.9984 8C20.069 8 10.3984 17.6706 10.3984 29.5999C10.3984 41.5292 20.069 51.1998 31.9984 51.1998Z" fill="url(#paint1_linear_10223_6253)"/>
<path d="M32.0001 45.6C40.8366 45.6 48 38.4366 48 29.6C48 20.7635 40.8366 13.6001 32.0001 13.6001C23.1635 13.6001 16.0001 20.7635 16.0001 29.6C16.0001 38.4366 23.1635 45.6 32.0001 45.6Z" fill="url(#paint2_linear_10223_6253)"/>
<path d="M25.6016 27.2003C25.6016 27.6403 25.9616 28.0003 26.4016 28.0003H33.5215C33.1535 29.8243 31.5375 31.2002 29.6015 31.2002H26.4016C26.0656 31.2002 25.7616 31.4162 25.6496 31.7362C25.5376 32.0562 25.6416 32.4162 25.9056 32.6242L33.9055 39.0242C34.0495 39.1442 34.2335 39.2002 34.4015 39.2002C34.6335 39.2002 34.8655 39.0962 35.0255 38.8962C35.2975 38.5522 35.2415 38.0482 34.8975 37.7682L28.6816 32.7922H29.6015C32.4175 32.7922 34.7455 30.7042 35.1375 27.9923H39.2015C39.6415 27.9923 40.0015 27.6323 40.0015 27.1923C40.0015 26.7523 39.6415 26.3923 39.2015 26.3923H35.1375C34.9615 25.1443 34.3695 24.0323 33.5135 23.1923H39.2015C39.6415 23.1923 40.0015 22.8323 40.0015 22.3923C40.0015 21.9523 39.6415 21.5923 39.2015 21.5923H26.4016C25.9616 21.5923 25.6016 21.9523 25.6016 22.3923C25.6016 22.8323 25.9616 23.1923 26.4016 23.1923H29.6015C31.5295 23.1923 33.1455 24.5683 33.5215 26.3923H26.4016C25.9616 26.3923 25.6016 26.7523 25.6016 27.1923V27.2003Z" fill="#3025E0"/>
<defs>
<linearGradient id="paint0_linear_10223_6253" x1="53.5191" y1="28.6914" x2="3.86906" y2="44.9646" gradientUnits="userSpaceOnUse">
<stop stop-color="#0F00FF"/>
<stop offset="1" stop-color="white"/>
</linearGradient>
<linearGradient id="paint1_linear_10223_6253" x1="49.2926" y1="10.675" x2="-1.24885" y2="3.51755" gradientUnits="userSpaceOnUse">
<stop stop-color="#0F00FF"/>
<stop offset="1" stop-color="white"/>
</linearGradient>
<linearGradient id="paint2_linear_10223_6253" x1="3.69346" y1="57.9065" x2="32.1013" y2="42.7038" gradientUnits="userSpaceOnUse">
<stop stop-color="#B096ED"/>
<stop offset="0.0014" stop-color="#B096ED"/>
<stop offset="0.299" stop-color="#CDBCF3"/>
<stop offset="0.5742" stop-color="#E2D7F7"/>
<stop offset="0.8165" stop-color="#EFE8F9"/>
<stop offset="1" stop-color="#F3EEFA"/>
</linearGradient>
</defs>
</svg>