<svg width="65" height="64" viewBox="0 0 65 64" fill="none" xmlns="http://www.w3.org/2000/svg">
<path d="M53.6313 28.7998H12.0314C11.5914 28.7998 11.2314 29.1598 11.2314 29.5998V34.3998C11.2314 46.3117 20.9194 55.9997 32.8314 55.9997C44.7433 55.9997 54.4313 46.3117 54.4313 34.3998V29.5998C54.4313 29.1598 54.0713 28.7998 53.6313 28.7998Z" fill="#EBCB76"/>
<path d="M33.6361 45.5997V55.9756C33.3721 55.9916 33.1001 55.9996 32.8361 55.9996C32.5721 55.9996 32.3001 55.9916 32.0361 55.9756V45.5997C32.0361 45.1597 32.3961 44.7997 32.8361 44.7997C33.2761 44.7997 33.6361 45.1597 33.6361 45.5997Z" fill="#84734C"/>
<path d="M28.8314 45.0401V55.6241C28.2874 55.5281 27.7594 55.4081 27.2314 55.2561V45.0401C27.2314 44.6001 27.5914 44.2401 28.0314 44.2401C28.4714 44.2401 28.8314 44.6001 28.8314 45.0401Z" fill="#84734C"/>
<path d="M24.0346 43.2481V54.1201C23.4906 53.8801 22.9546 53.6161 22.4346 53.3201V43.2481C22.4346 42.8081 22.7946 42.4481 23.2346 42.4481C23.6746 42.4481 24.0346 42.8081 24.0346 43.2481Z" fill="#84734C"/>
<path d="M19.2299 39.7921V51.16C18.6699 50.712 18.1339 50.232 17.6299 49.728V39.7921C17.6299 39.3521 17.9899 38.9921 18.4299 38.9921C18.8699 38.9921 19.2299 39.3521 19.2299 39.7921Z" fill="#84734C"/>
<path d="M38.433 45.0401V55.2561C37.905 55.4081 37.377 55.5281 36.833 55.6241V45.0401C36.833 44.6001 37.193 44.2401 37.633 44.2401C38.073 44.2401 38.433 44.6001 38.433 45.0401Z" fill="#84734C"/>
<path d="M43.2299 43.2481V53.3201C42.7099 53.6161 42.1739 53.8801 41.6299 54.1201V43.2481C41.6299 42.8081 41.9899 42.4481 42.4299 42.4481C42.8699 42.4481 43.2299 42.8081 43.2299 43.2481Z" fill="#84734C"/>
<path d="M48.0346 39.7921V49.728C47.5306 50.232 46.9946 50.712 46.4346 51.16V39.7921C46.4346 39.3521 46.7946 38.9921 47.2346 38.9921C47.6746 38.9921 48.0346 39.3521 48.0346 39.7921Z" fill="#84734C"/>
<path d="M52.8314 34.9923V42.5362C52.3914 43.6402 51.8554 44.6962 51.2314 45.6962V34.9923C51.2314 34.5523 51.5914 34.1923 52.0314 34.1923C52.4714 34.1923 52.8314 34.5523 52.8314 34.9923Z" fill="#84734C"/>
<path d="M14.433 36.5921V45.6961C13.809 44.6961 13.273 43.6401 12.833 42.5361V36.5921C12.833 36.1521 13.193 35.7921 13.633 35.7921C14.073 35.7921 14.433 36.1521 14.433 36.5921Z" fill="#84734C"/>
<path d="M32.8314 51.1998C44.7607 51.1998 54.4313 41.5292 54.4313 29.5999C54.4313 17.6706 44.7607 8 32.8314 8C20.9021 8 11.2314 17.6706 11.2314 29.5999C11.2314 41.5292 20.9021 51.1998 32.8314 51.1998Z" fill="#2E2A94"/>
<path d="M32.8329 45.6C41.6695 45.6 48.8329 38.4366 48.8329 29.6C48.8329 20.7635 41.6695 13.6001 32.8329 13.6001C23.9964 13.6001 16.833 20.7635 16.833 29.6C16.833 38.4366 23.9964 45.6 32.8329 45.6Z" fill="#F3F1EB"/>
<path d="M31.7531 39.5092V20.309H32.9831V39.5092H31.7531ZM35.8931 26.069C35.8031 25.309 35.4381 24.719 34.7981 24.299C34.1581 23.879 33.3731 23.669 32.4431 23.669C31.7631 23.669 31.1681 23.779 30.6581 23.999C30.153 24.219 29.758 24.5215 29.473 24.9065C29.193 25.2915 29.053 25.729 29.053 26.219C29.053 26.629 29.1505 26.9815 29.3455 27.2765C29.5455 27.5665 29.8005 27.8091 30.1105 28.0041C30.4206 28.1941 30.7456 28.3516 31.0856 28.4766C31.4256 28.5966 31.7381 28.6941 32.0231 28.7691L33.5831 29.1891C33.9831 29.2941 34.4281 29.4391 34.9181 29.6241C35.4131 29.8091 35.8856 30.0616 36.3356 30.3816C36.7906 30.6966 37.1656 31.1016 37.4606 31.5966C37.7556 32.0916 37.9031 32.6991 37.9031 33.4191C37.9031 34.2491 37.6856 34.9991 37.2506 35.6691C36.8206 36.3392 36.1906 36.8717 35.3606 37.2667C34.5356 37.6617 33.5331 37.8592 32.3531 37.8592C31.2531 37.8592 30.3006 37.6817 29.4955 37.3267C28.6955 36.9717 28.0655 36.4767 27.6055 35.8417C27.1505 35.2066 26.893 34.4691 26.833 33.6291H28.753C28.803 34.2091 28.998 34.6891 29.338 35.0691C29.683 35.4441 30.118 35.7241 30.6431 35.9092C31.1731 36.0892 31.7431 36.1792 32.3531 36.1792C33.0631 36.1792 33.7006 36.0642 34.2656 35.8341C34.8306 35.5991 35.2781 35.2741 35.6081 34.8591C35.9381 34.4391 36.1031 33.9491 36.1031 33.3891C36.1031 32.8791 35.9606 32.4641 35.6756 32.1441C35.3906 31.8241 35.0156 31.5641 34.5506 31.3641C34.0856 31.1641 33.5831 30.9891 33.0431 30.8391L31.1531 30.2991C29.953 29.9541 29.003 29.4616 28.303 28.8216C27.603 28.1816 27.253 27.344 27.253 26.309C27.253 25.449 27.4855 24.699 27.9505 24.059C28.4205 23.414 29.0505 22.914 29.8405 22.559C30.6356 22.199 31.5231 22.019 32.5031 22.019C33.4931 22.019 34.3731 22.1965 35.1431 22.5515C35.9131 22.9015 36.5231 23.3815 36.9731 23.9915C37.4281 24.6015 37.6681 25.294 37.6931 26.069H35.8931Z" fill="#2E2A94"/>
</svg>
