<svg width="21" height="20" viewBox="0 0 21 20" fill="none" xmlns="http://www.w3.org/2000/svg">
<path d="M4.15918 2.76367H7.59766C7.92092 2.76375 8.23137 2.8925 8.45996 3.12109C8.68839 3.34972 8.81641 3.66019 8.81641 3.9834V7.42188C8.81632 7.74514 8.68855 8.05559 8.45996 8.28418C8.23137 8.51277 7.92092 8.64054 7.59766 8.64062H4.15918C3.83598 8.64062 3.5255 8.51261 3.29688 8.28418C3.06828 8.05559 2.93953 7.74514 2.93945 7.42188V3.9834L2.94531 3.8623C2.97305 3.58323 3.09683 3.32114 3.29688 3.12109C3.49692 2.92105 3.75901 2.79727 4.03809 2.76953L4.15918 2.76367Z" stroke="#757575"/>
<path d="M12.7559 2.76367H16.1943C16.5176 2.76375 16.8281 2.8925 17.0566 3.12109C17.2851 3.34972 17.4131 3.66019 17.4131 3.9834V7.42188C17.413 7.74514 17.2852 8.05559 17.0566 8.28418C16.8281 8.51277 16.5176 8.64054 16.1943 8.64062H12.7559C12.4327 8.64062 12.1222 8.51261 11.8936 8.28418C11.665 8.05559 11.5362 7.74514 11.5361 7.42188V3.9834L11.542 3.8623C11.5697 3.58323 11.6935 3.32114 11.8936 3.12109C12.0936 2.92105 12.3557 2.79727 12.6348 2.76953L12.7559 2.76367Z" stroke="#757575"/>
<path d="M4.15918 11.3594H7.59766C7.92092 11.3595 8.23137 11.4882 8.45996 11.7168C8.68839 11.9454 8.81641 12.2559 8.81641 12.5791V16.0176C8.81632 16.3408 8.68855 16.6513 8.45996 16.8799C8.23137 17.1085 7.92092 17.2362 7.59766 17.2363H4.15918C3.83598 17.2363 3.5255 17.1083 3.29688 16.8799C3.06828 16.6513 2.93953 16.3408 2.93945 16.0176V12.5791L2.94531 12.458C2.97305 12.1789 3.09683 11.9168 3.29688 11.7168C3.49692 11.5168 3.75901 11.393 4.03809 11.3652L4.15918 11.3594Z" stroke="#757575"/>
<path d="M12.7559 11.3594H16.1943C16.5176 11.3595 16.8281 11.4882 17.0566 11.7168C17.2851 11.9454 17.4131 12.2559 17.4131 12.5791V16.0176C17.413 16.3408 17.2852 16.6513 17.0566 16.8799C16.8281 17.1085 16.5176 17.2362 16.1943 17.2363H12.7559C12.4327 17.2363 12.1222 17.1083 11.8936 16.8799C11.665 16.6513 11.5362 16.3408 11.5361 16.0176V12.5791L11.542 12.458C11.5697 12.1789 11.6935 11.9168 11.8936 11.7168C12.0936 11.5168 12.3557 11.393 12.6348 11.3652L12.7559 11.3594Z" stroke="#757575"/>
</svg>