<svg width="21" height="20" viewBox="0 0 21 20" fill="none" xmlns="http://www.w3.org/2000/svg">
<path d="M7.59637 2.26315C8.05236 2.26315 8.48967 2.44429 8.8121 2.76672C9.13453 3.08915 9.31567 3.52647 9.31567 3.98245V7.42105C9.31567 7.87703 9.13453 8.31434 8.8121 8.63678C8.48967 8.95921 8.05236 9.14035 7.59637 9.14035H4.15777C3.70179 9.14035 3.26448 8.95921 2.94205 8.63678C2.61962 8.31434 2.43848 7.87703 2.43848 7.42105V3.98245C2.43848 3.52647 2.61962 3.08915 2.94205 2.76672C3.26448 2.44429 3.70179 2.26315 4.15777 2.26315H7.59637Z" fill="#382AD7"/>
<path d="M16.1931 2.26315C16.649 2.26315 17.0863 2.44429 17.4088 2.76672C17.7312 3.08915 17.9123 3.52647 17.9123 3.98245V7.42105C17.9123 7.87703 17.7312 8.31434 17.4088 8.63678C17.0863 8.95921 16.649 9.14035 16.1931 9.14035H12.7545C12.2985 9.14035 11.8612 8.95921 11.5387 8.63678C11.2163 8.31434 11.0352 7.87703 11.0352 7.42105V3.98245C11.0352 3.52647 11.2163 3.08915 11.5387 2.76672C11.8612 2.44429 12.2985 2.26315 12.7545 2.26315H16.1931Z" fill="#382AD7"/>
<path d="M7.59637 10.8596C8.05236 10.8596 8.48967 11.0408 8.8121 11.3632C9.13453 11.6857 9.31567 12.123 9.31567 12.5789V16.0175C9.31567 16.4735 9.13453 16.9108 8.8121 17.2333C8.48967 17.5557 8.05236 17.7368 7.59637 17.7368H4.15777C3.70179 17.7368 3.26448 17.5557 2.94205 17.2333C2.61962 16.9108 2.43848 16.4735 2.43848 16.0175V12.5789C2.43848 12.123 2.61962 11.6857 2.94205 11.3632C3.26448 11.0408 3.70179 10.8596 4.15777 10.8596H7.59637Z" fill="#382AD7"/>
<path d="M16.1931 10.8596C16.649 10.8596 17.0863 11.0408 17.4088 11.3632C17.7312 11.6857 17.9123 12.123 17.9123 12.5789V16.0175C17.9123 16.4735 17.7312 16.9108 17.4088 17.2333C17.0863 17.5557 16.649 17.7368 16.1931 17.7368H12.7545C12.2985 17.7368 11.8612 17.5557 11.5387 17.2333C11.2163 16.9108 11.0352 16.4735 11.0352 16.0175V12.5789C11.0352 12.123 11.2163 11.6857 11.5387 11.3632C11.8612 11.0408 12.2985 10.8596 12.7545 10.8596H16.1931Z" fill="#382AD7"/>
</svg>
