<svg width="20" height="20" viewBox="0 0 20 20" fill="none" xmlns="http://www.w3.org/2000/svg">
<path fill-rule="evenodd" clip-rule="evenodd" d="M10 18.3332C14.6024 18.3332 18.3334 14.6022 18.3334 9.99984C18.3334 5.39746 14.6024 1.6665 10 1.6665C5.39765 1.6665 1.66669 5.39746 1.66669 9.99984C1.66669 14.6022 5.39765 18.3332 10 18.3332ZM13.8267 7.88358C14.0386 7.61111 13.9895 7.21844 13.7171 7.00652C13.4446 6.7946 13.0519 6.84369 12.84 7.11615L9.50085 11.4094C9.42659 11.5048 9.28693 11.5172 9.19703 11.4363L7.0848 9.53531C6.82823 9.3044 6.43305 9.32519 6.20213 9.58176C5.97122 9.83833 5.99202 10.2335 6.24859 10.4644L8.36082 12.3654C8.9901 12.9318 9.96777 12.8451 10.4875 12.1768L13.8267 7.88358Z" fill="#00A850"/>
</svg>
