<svg width="68" height="68" viewBox="0 0 68 68" fill="none" xmlns="http://www.w3.org/2000/svg">
<circle cx="33.6" cy="34.4001" r="33.6" fill="#23A26D" fill-opacity="0.12"/>
<path d="M50.6673 34.4016C50.6673 43.6063 43.2054 51.0682 34.0007 51.0682C24.7959 51.0682 17.334 43.6063 17.334 34.4016C17.334 25.1968 24.7959 17.7349 34.0007 17.7349C43.2054 17.7349 50.6673 25.1968 50.6673 34.4016Z" fill="#09743D"/>
<path fill-rule="evenodd" clip-rule="evenodd" d="M41.4348 28.4149C41.9797 28.8388 42.0779 29.6241 41.654 30.169L34.9757 38.7555C33.9362 40.092 31.9808 40.2654 30.7223 39.1327L26.4978 35.3307C25.9847 34.8689 25.9431 34.0785 26.4049 33.5654C26.8667 33.0523 27.6571 33.0107 28.1702 33.4725L32.3947 37.2745C32.5745 37.4363 32.8538 37.4115 33.0023 37.2206L39.6806 28.6342C40.1045 28.0892 40.8898 27.9911 41.4348 28.4149Z" fill="white"/>
</svg>
