<svg xmlns="http://www.w3.org/2000/svg" width="10" height="8" viewBox="0 0 10 8" fill="none">
  <path d="M6.08204 0.112285C6.00659 0.0394215 5.90555 -0.000896247 5.80067 1.51211e-05C5.6958 0.000926489 5.59547 0.042994 5.52131 0.117157C5.44714 0.19132 5.40508 0.291646 5.40416 0.396524C5.40325 0.501403 5.44357 0.602444 5.51643 0.677885L8.43362 3.5951H0.599219C0.493132 3.5951 0.391391 3.63724 0.316376 3.71226C0.241362 3.78727 0.199219 3.88901 0.199219 3.9951C0.199219 4.10119 0.241362 4.20293 0.316376 4.27794C0.391391 4.35296 0.493132 4.3951 0.599219 4.3951H8.43362L5.51643 7.31228C5.47822 7.34918 5.44775 7.39332 5.42679 7.44212C5.40582 7.49092 5.39479 7.54341 5.39433 7.59652C5.39387 7.64964 5.40399 7.70231 5.4241 7.75147C5.44421 7.80062 5.47391 7.84529 5.51147 7.88284C5.54903 7.9204 5.59369 7.9501 5.64285 7.97021C5.692 7.99033 5.74468 8.00045 5.79779 7.99998C5.8509 7.99952 5.90339 7.98849 5.95219 7.96753C6.00099 7.94656 6.04513 7.91609 6.08203 7.87788L9.68203 4.27788C9.71917 4.24075 9.74864 4.19666 9.76875 4.14814C9.78885 4.09962 9.7992 4.04761 9.7992 3.99508C9.7992 3.94256 9.78885 3.89055 9.76875 3.84203C9.74864 3.7935 9.71917 3.74942 9.68203 3.71228L6.08204 0.112285Z" fill="white"/>
</svg>