<svg xmlns="http://www.w3.org/2000/svg" width="10" height="8" viewBox="0 0 10 8" fill="none">
  <path d="M3.91796 7.88771C3.99341 7.96058 4.09445 8.0009 4.19933 7.99998C4.3042 7.99907 4.40453 7.95701 4.47869 7.88284C4.55286 7.80868 4.59492 7.70835 4.59584 7.60348C4.59675 7.4986 4.55643 7.39756 4.48357 7.32212L1.56638 4.4049L9.40078 4.4049C9.50687 4.4049 9.60861 4.36276 9.68362 4.28774C9.75864 4.21273 9.80078 4.11099 9.80078 4.0049C9.80078 3.89881 9.75864 3.79707 9.68362 3.72206C9.60861 3.64704 9.50687 3.6049 9.40078 3.6049L1.56638 3.6049L4.48357 0.687715C4.52178 0.650816 4.55225 0.606679 4.57321 0.557878C4.59418 0.509076 4.60521 0.456587 4.60567 0.403475C4.60614 0.350364 4.59601 0.297691 4.5759 0.248533C4.55579 0.199375 4.52609 0.154714 4.48853 0.117157C4.45098 0.0795994 4.40631 0.0498986 4.35716 0.0297861C4.308 0.00967359 4.25533 -0.000446804 4.20221 1.47693e-05C4.1491 0.000476343 4.09661 0.0115108 4.04781 0.0324745C3.99901 0.0534382 3.95487 0.0839114 3.91797 0.122116L0.317974 3.72211C0.280827 3.75925 0.251359 3.80333 0.231255 3.85186C0.211151 3.90038 0.200803 3.95239 0.200803 4.00491C0.200803 4.05744 0.211151 4.10945 0.231255 4.15797C0.251359 4.20649 0.280827 4.25058 0.317973 4.28771L3.91796 7.88771Z" fill="#2E2A94"/>
</svg>