<svg width="223" height="238" viewBox="0 0 223 238" fill="none" xmlns="http://www.w3.org/2000/svg">
<path d="M116.998 237.736V237.497H111.869V237.259H108.443V237.021H106.007V236.783H104.303V236.545H102.343V236.307H100.64V236.069H99.1744V235.831H97.9471V235.592H96.4816V235.354H95.2543V235.116H94.0453V234.878H93.0561V234.64H92.0853V234.402H91.1144V234.164H89.8871V233.925H88.9162V233.687H88.1835V233.449H87.1943V233.211H86.4616V232.973H85.4907V232.735H84.758V232.497H83.7871V232.259H83.0544V232.02H82.5598V231.782H81.8271V231.544H81.0944V231.306H80.3616V231.068H79.6289V230.83H78.8962V230.592H78.1635V230.353H77.4307V230.115H76.9361V229.877H76.2034V229.639H75.7272V229.401H74.9944V229.163H74.4998V228.925H73.7671V228.686H73.2725V228.448H72.5398V228.21H72.0635V227.972H71.5689V227.734H71.0743V227.496H70.5981V227.258H69.8654V227.02H69.3708V226.781H68.8762V226.543H68.3999V226.305H67.9053V226.067H67.4107V225.829H66.9345V225.591H66.4399V225.353H65.9453V225.114H65.469V224.876H64.9744V224.638H64.4798V224.4H64.0035V224.162H63.509V223.924H63.0144V223.686H62.5381V223.447H62.0435V223.209H61.8054V222.971H61.3108V222.733H60.8162V222.495H60.3399V222.257H60.0835V222.019H59.6072V221.781H59.1126V221.542H58.618V221.304H58.3799V221.066H57.8853V220.828H57.409V220.59H57.1526V220.352H56.6763V220.114H56.4198V219.875H55.9436V219.637H55.449V219.399H55.2108V219.161H54.7163V218.923H54.4781V218.685H53.9835V218.447H53.7454V218.208H53.2508V217.97H53.0127V217.732H52.5181V217.494H52.2799V217.256H51.7854V217.018H51.5472V216.78H51.0526V216.542H50.8145V216.303H50.558V216.065H50.0818V215.827H49.8253V215.589H49.349V215.351H49.0926V215.113H48.8545V214.875H48.3599V214.636H48.1217V214.398H47.8836V214.16H47.389V213.922H47.1509V213.684H46.8944V213.446H46.4181V213.208H46.1617V212.97H45.9236V212.731H45.6854V212.493H45.1908V212.255H44.9527V212.017H44.6962V211.779H44.4581V211.541H43.9635V211.303H43.7254V211.064H43.4872V210.826H43.2308V210.588H42.9927V210.35H42.4981V210.112H42.2599V209.874H42.0218V209.636H41.7653V209.397H41.5272V209.159H41.2891V208.921H40.7945V208.683H40.5563V208.445H40.2999V208.207H40.0618V207.969H39.8236V207.731H39.5672V207.492H39.329V207.254H38.8344V207.016H38.5963V206.778H38.3582V206.54H38.1017V206.302H37.8636V206.064H37.6254V205.825H37.369V205.587H37.1309V205.349H36.8927V205.111H36.6363V204.873H36.3981V204.635H36.16V204.397H35.9035V204.158H35.6654V203.92H35.4273V203.682H35.1708V203.444H34.9327V203.206H34.6945V202.968H34.4381V202.73H34.2V202.492H33.9618V202.253H33.7054V202.015H33.4672V201.777H33.2291V201.539H32.9726V201.301H32.7345V201.063H32.4964V200.825H32.2399V200.586H32.0018V200.348H31.7636V200.11H31.5072V199.872H31.2691V199.377H31.0309V199.139H30.7745V198.901H30.5363V198.663H30.2982V198.425H30.0417V198.187H29.8036V197.949H29.5655V197.454H29.309V197.216H29.0709V196.978H28.8327V196.74H28.5763V196.502H28.3382V196.263H28.1V195.769H27.8436V195.531H27.6054V195.293H27.3673V195.054H27.1108V194.816H26.8727V194.322H26.6346V194.084H26.3781V193.845H26.14V193.607H25.9018V193.113H25.6454V192.875H25.4072V192.636H25.1691V192.398H24.9127V191.904H24.6745V191.666H24.4364V191.427H24.1799V190.933H23.9418V190.695H23.7037V190.457H23.4472V189.962H23.2091V189.724H22.9709V189.486H22.7145V188.991H22.4763V188.753H22.2382V188.258H21.9818V188.02H21.7436V187.526H21.5055V187.287H21.249V187.049H21.0109V186.555H20.7728V186.317H20.5163V185.822H20.2782V185.584H20.04V185.089H19.7836V184.851H19.5454V184.357H19.3073V184.118H19.0509V183.624H18.8127V183.129H18.5746V182.891H18.3181V182.397H18.08V182.158H17.8419V181.664H17.5854V181.426H17.3473V180.931H17.1091V180.437H16.8527V180.198H16.6145V179.704H16.3764V179.209H16.12V178.715H15.8818V178.476H15.6437V177.982H15.3872V177.487H15.1491V176.993H14.911V176.755H14.6545V176.26H14.4164V175.765H14.1782V175.271H13.9218V174.776H13.6836V174.282H13.4455V173.787H13.1891V173.292H12.9509V172.798H12.7128V172.303H12.4563V171.809H12.2182V171.314H11.9801V170.819H11.7236V170.325H11.4855V169.83H11.2473V169.336H10.9909V168.841H10.7527V168.108H10.5146V167.614H10.2582V167.119H10.02V166.625H9.78188V166.13H9.52543V165.397H9.28729V164.903H9.04916V164.17H8.7927V163.675H8.55457V162.943H8.31643V162.448H8.05998V161.715H7.82184V160.983H7.58371V160.488H7.32725V159.755H7.08912V159.023H6.85098V158.29H6.59453V157.557H6.35639V156.824H6.11826V156.092H5.8618V155.359H5.62367V154.864H5.38553V153.894H5.12908V153.161H4.89094V152.19H4.65281V151.219H4.39635V150.486H4.15822V149.515H3.92008V148.783H3.66363V147.555H3.42549V146.585H3.18735V145.614H2.9309V144.386H2.69277V143.416H2.45463V142.188H2.19818V140.723H1.96004V139.257H1.7219V138.03H1.46545V136.326H1.22731V134.366H0.989179V132.406H0.732725V129.97H0.49459V126.801H0.256454V121.177H0V117.019H0.256454V111.652H0.49459V108.483H0.732725V105.79H0.989179V103.83H1.22731V102.126H1.46545V100.423H1.7219V98.9574H1.96004V97.492H2.19818V96.2647H2.45463V94.7992H2.69277V93.8284H2.9309V92.8575H3.18735V91.6302H3.42549V90.6593H3.66363V89.6885H3.92008V88.7176H4.15822V87.9849H4.39635V87.014H4.65281V86.2813H4.89094V85.3104H5.12908V84.3396H5.38553V83.6068H5.62367V82.8741H5.8618V82.1414H6.11826V81.4087H6.35639V80.6759H6.59453V79.9432H6.85098V79.2105H7.08912V78.4778H7.32725V77.9832H7.58371V77.2504H7.82184V76.7559H8.05998V76.0231H8.31643V75.2904H8.55457V74.7958H8.7927V74.0631H9.04916V73.5685H9.28729V72.8358H9.52543V72.3412H9.78188V71.8466H10.02V71.352H10.2582V70.6193H10.5146V70.1247H10.7527V69.6301H10.9909V69.1355H11.2473V68.6409H11.4855V67.9082H11.7236V67.4136H11.9801V66.919H12.2182V66.4244H12.4563V65.9298H12.7128V65.4352H12.9509V64.9407H13.1891V64.4461H13.4455V63.9515H13.6836V63.4569H13.9218V63.2188H14.1782V62.7242H14.4164V62.2296H14.6545V61.735H14.911V61.2404H15.1491V60.7458H15.3872V60.5077H15.6437V60.0131H15.8818V59.5185H16.12V59.0239H16.3764V58.7858H16.6145V58.2912H16.8527V57.7966H17.1091V57.5585H17.3473V57.0639H17.5854V56.5693H17.8419V56.3311H18.08V55.8365H18.3181V55.5984H18.5746V55.1038H18.8127V54.6092H19.0509V54.3711H19.3073V53.8765H19.5454V53.6384H19.7836V53.1438H20.04V52.9056H20.2782V52.4111H20.5163V52.1729H20.7728V51.6783H21.0109V51.4402H21.249V50.9456H21.5055V50.7075H21.7436V50.4693H21.9818V49.9747H22.2382V49.7366H22.4763V49.242H22.7145V49.0039H22.9709V48.7657H23.2091V48.2712H23.4472V48.033H23.7037V47.5384H23.9418V47.3003H24.1799V47.0622H24.4364V46.824H24.6745V46.3294H24.9127V46.0913H25.1691V45.8532H25.4072V45.3586H25.6454V45.1204H25.9018V44.8823H26.14V44.6442H26.3781V44.1496H26.6346V43.9114H26.8727V43.6733H27.1108V43.4352H27.3673V42.9406H27.6054V42.7024H27.8436V42.4643H28.1V42.2262H28.3382V41.988H28.5763V41.7499H28.8327V41.2553H29.0709V41.0172H29.309V40.779H29.5655V40.5409H29.8036V40.3028H30.0417V40.0646H30.2982V39.57H30.5363V39.3319H30.7745V39.0938H31.0309V38.8556H31.2691V38.6175H31.5072V38.3794H31.7636V38.1412H32.0018V37.9031H32.2399V37.665H32.4964V37.4268H32.7345V37.1887H32.9726V36.9506H33.2291V36.7124H33.4672V36.4743H33.7054V35.9797H33.9618V35.7416H34.2V35.5034H34.4381V35.2653H34.6945V35.0271H34.9327V34.789H35.1708V34.5509H35.4273V34.3127H35.6654V34.0746H35.9035V33.8365H36.16V33.5983H36.6363V33.3602H36.8927V33.1221H37.1309V32.8839H37.369V32.6458H37.6254V32.4076H37.8636V32.1695H38.1017V31.9314H38.3582V31.6932H38.5963V31.4551H38.8344V31.217H39.0909V30.9788H39.329V30.7407H39.5672V30.5026H39.8236V30.2644H40.2999V30.0263H40.5563V29.7882H40.7945V29.55H41.0326V29.3119H41.2891V29.0737H41.5272V28.8356H41.7653V28.5975H42.2599V28.3593H42.4981V28.1212H42.7545V27.8831H42.9927V27.6449H43.2308V27.4068H43.4872V27.1687H43.9635V26.9305H44.22V26.6924H44.4581V26.4543H44.9527V26.2161H45.1908V25.978H45.429V25.7398H45.6854V25.5017H46.1617V25.2636H46.4181V25.0254H46.6563V24.7873H46.8944V24.5492H47.389V24.311H47.6271V24.0729H47.8836V23.8348H48.3599V23.5966H48.6163V23.3585H48.8545V23.1204H49.349V22.8822H49.5872V22.6441H50.0818V22.4059H50.3199V22.1678H50.558V21.9297H51.0526V21.6915H51.2908V21.4534H51.7854V21.2153H52.0235V20.9771H52.2799V20.739H52.7562V20.5009H53.0127V20.2627H53.4889V20.0246H53.7454V19.7865H54.2217V19.5483H54.7163V19.3102H54.9544V19.0721H55.449V18.8339H55.6871V18.5958H56.1817V18.3576H56.4198V18.1195H56.9144V17.8814H57.409V17.6432H57.6472V17.4051H58.1418V17.167H58.618V16.9288H58.8745V16.6907H59.3507V16.4526H59.8453V16.2144H60.3399V15.9763H60.5781V15.7381H61.0726V15.5H61.5489V15.2619H61.8054V15.0237H62.2816V14.7856H62.7762V14.5475H63.2708V14.3093H63.7471V14.0712H64.2417V13.8331H64.7363V13.5949H65.2125V13.3568H65.7071V13.1187H66.2017V12.8805H66.678V12.6424H67.1726V12.4042H67.6672V12.1661H68.1434V11.928H68.638V11.6898H69.1326V11.4517H69.6089V11.2136H70.3416V10.9754H70.8362V10.7373H71.3308V10.4992H71.8071V10.261H72.3017V10.0229H73.0344V9.78475H73.529V9.54662H74.2617V9.30848H74.738V9.07035H75.4707V8.83221H75.9653V8.59408H76.698V8.35594H77.1926V8.1178H77.9253V7.87967H78.4016V7.64153H79.1343V7.4034H79.8671V7.16526H80.5998V6.92713H81.3325V6.68899H82.0652V6.45085H82.798V6.21272H83.5307V5.97458H84.2634V5.73645H85.2526V5.49831H85.9853V5.26018H86.9562V5.02204H87.6889V4.7839H88.6598V4.54577H89.3925V4.30763H90.3817V4.0695H91.5907V3.83136H92.5798V3.59322H93.5507V3.35509H94.778V3.11695H95.7489V2.87882H97.2143V2.64068H98.6798V2.40255H99.9071V2.16441H101.373V1.92627H103.314V1.68814H105.274V1.45H106.978V1.21187H110.165V0.973731H113.572V0.735596H124.82V0.973731H128.721V1.21187H131.158V1.45H133.612V1.68814H135.811V1.92627H137.276V2.16441H138.742V2.40255H140.207V2.64068H141.672V2.87882H142.881V3.11695H144.109V3.35509H145.08V3.59322H146.069V3.83136H147.04V4.0695H148.267V4.30763H149.238V4.54577H150.209V4.7839H151.198V5.02204H151.931V5.26018H152.663V5.49831H153.634V5.73645H154.367V5.97458H155.1V6.21272H155.832V6.45085H156.803V6.68899H157.536V6.92713H158.269V7.16526H158.763V7.4034H159.496V7.64153H160.229V7.87967H160.723V8.1178H161.456V8.35594H162.189V8.59408H162.665V8.83221H163.398V9.07035H164.13V9.30848H164.625V9.54662H165.358V9.78475H165.852V10.0229H166.329V10.261H166.823V10.4992H167.556V10.7373H168.051V10.9754H168.527V11.2136H169.021V11.4517H169.754V11.6898H170.249V11.928H170.725V12.1661H171.22V12.4042H171.714V12.6424H172.19V12.8805H172.685V13.1187H173.18V13.3568H173.656V13.5949H174.15V13.8331H174.645V14.0712H175.121V14.3093H175.616V14.5475H175.854V14.7856H176.349V15.0237H176.843V15.2619H177.32V15.5H177.814V15.7381H178.309V15.9763H178.785V16.2144H179.041V16.4526H179.518V16.6907H180.012V16.9288H180.25V17.167H180.745V17.4051H181.24V17.6432H181.478V17.8814H181.972V18.1195H182.21V18.3576H182.705V18.5958H183.181V18.8339H183.438V19.0721H183.914V19.3102H184.409V19.5483H184.647V19.7865H185.141V20.0246H185.379V20.2627H185.874V20.5009H186.112V20.739H186.607V20.9771H186.845V21.2153H187.101V21.4534H187.578V21.6915H187.834V21.9297H188.31V22.1678H188.567V22.4059H189.043V22.6441H189.3V22.8822H189.538V23.1204H190.032V23.3585H190.27V23.5966H190.765V23.8348H191.003V24.0729H191.241V24.311H191.736V24.5492H191.974V24.7873H192.23V25.0254H192.707V25.2636H192.963V25.5017H193.201V25.7398H193.439V25.978H193.696V26.2161H194.172V26.4543H194.429V26.6924H194.667V26.9305H194.905V27.1687H195.4V27.4068H195.638V27.6449H195.894V27.8831H196.132V28.1212H196.627V28.3593H196.865V28.5975H197.103V28.8356H197.36V29.0737H197.836V29.3119H198.092V29.55H198.33V29.7882H198.569V30.0263H198.825V30.2644H199.063V30.5026H199.301V30.7407H199.558V30.9788H199.796V31.217H200.034V31.4551H200.29V31.6932H200.767V31.9314H201.023V32.1695H201.261V32.4076H201.499V32.6458H201.756V32.8839H201.994V33.1221H202.232V33.3602H202.489V33.5983H202.727V33.8365H202.965V34.0746H203.221V34.3127H203.459V34.5509H203.698V34.789H203.954V35.0271H204.192V35.2653H204.43V35.5034H204.687V35.7416H204.925V35.9797H205.163V36.2178H205.42V36.456H205.658V36.6941H205.896V36.9322H206.152V37.1704H206.39V37.4085H206.629V37.6466H206.885V37.8848H207.123V38.1229H207.361V38.361H207.618V38.5992H207.856V38.8373H208.094V39.3319H208.35V39.57H208.589V39.8082H208.827V40.0463H209.083V40.2844H209.321V40.5226H209.559V40.7607H209.816V41.2553H210.054V41.4934H210.292V41.7316H210.549V41.9697H210.787V42.2079H211.025V42.7024H211.281V42.9406H211.519V43.1787H211.758V43.4168H212.014V43.655H212.252V44.1496H212.49V44.3877H212.747V44.6258H212.985V44.864H213.223V45.1021H213.48V45.5967H213.718V45.8348H213.956V46.073H214.212V46.5676H214.45V46.8057H214.688V47.0438H214.945V47.5384H215.183V47.7766H215.421V48.0147H215.678V48.5093H215.916V48.7474H216.154V49.242H216.41V49.4802H216.649V49.7183H216.887V50.2129H217.143V50.451H217.381V50.6891H217.619V51.1837H217.876V51.4219H218.114V51.66H218.352V52.1546H218.609V52.6492H218.847V52.8873H219.085V53.3819H219.341V53.62H219.579V54.1146H219.818V54.3528H220.074V54.8474H220.312V55.0855H220.55V55.5801H220.807V55.8182H221.045V56.3128H221.283V56.551H221.539V57.0455H221.778V57.5401H222.016V57.7783H222.272V58.2729H222.51V58.7674H222.748V59.7383H223.005V61.9365H222.748V62.6692H222.51V63.1638H222.272V63.6584H222.016V63.8965H221.778V64.1347H221.539V64.3728H221.283V64.8674H220.807V65.1055H220.55V65.3437H219.818V65.5818H218.847V65.8199H218.114V65.5818H216.41V65.3437H215.916V65.1055H215.421V64.8674H214.945V64.6293H214.688V64.3911H214.45V64.153H214.212V63.9148H213.956V63.6767H213.718V63.1821H213.48V62.6875H213.223V62.4494H212.985V61.9548H212.747V61.4602H212.49V61.2221H212.252V60.7275H212.014V60.4894H211.758V59.9948H211.519V59.7566H211.281V59.262H211.025V59.0239H210.787V58.5293H210.549V58.2912H210.292V57.7966H210.054V57.5585H209.816V57.0639H209.559V56.8257H209.321V56.3311H209.083V56.093H208.827V55.8549H208.589V55.3603H208.35V55.1221H208.094V54.884H207.856V54.3894H207.618V54.1513H207.361V53.9131H207.123V53.4186H206.885V53.1804H206.629V52.6858H206.39V52.4477H206.152V52.2096H205.896V51.715H205.658V51.4768H205.42V51.2387H205.163V51.0006H204.925V50.7624H204.687V50.2678H204.43V50.0297H204.192V49.7916H203.954V49.5534H203.698V49.3153H203.459V48.8207H203.221V48.5826H202.965V48.3444H202.727V48.1063H202.489V47.8682H202.232V47.3736H201.994V47.1354H201.756V46.8973H201.499V46.6592H201.261V46.421H201.023V46.1829H200.767V45.9448H200.529V45.7066H200.29V45.212H200.034V44.9739H199.796V44.7358H199.558V44.4976H199.301V44.2595H199.063V44.0214H198.825V43.7832H198.569V43.5451H198.33V43.3069H198.092V43.0688H197.836V42.8307H197.598V42.5925H197.36V42.3544H197.103V42.1163H196.865V41.8781H196.627V41.64H196.37V41.4019H196.132V41.1637H195.894V40.9256H195.638V40.6875H195.4V40.4493H195.161V40.2112H194.905V39.973H194.667V39.7349H194.429V39.4968H194.172V39.2586H193.696V39.0205H193.439V38.7824H193.201V38.5442H192.963V38.3061H192.707V38.068H192.469V37.8298H192.23V37.5917H191.974V37.3535H191.736V37.1154H191.498V36.8773H191.241V36.6391H190.765V36.401H190.509V36.1629H190.27V35.9247H190.032V35.6866H189.538V35.4485H189.3V35.2103H189.043V34.9722H188.805V34.7341H188.31V34.4959H188.072V34.2578H187.834V34.0196H187.578V33.7815H187.101V33.5434H186.845V33.3052H186.607V33.0671H186.369V32.829H186.112V32.5908H185.636V32.3527H185.379V32.1146H185.141V31.8764H184.647V31.6383H184.409V31.4002H183.914V31.162H183.676V30.9239H183.438V30.6857H182.943V30.4476H182.705V30.2095H182.21V29.9713H181.972V29.7332H181.478V29.4951H181.24V29.2569H180.983V29.0188H180.507V28.7807H180.25V28.5425H179.774V28.3044H179.518V28.0663H179.041V27.8281H178.785V27.59H178.309V27.3518H177.814V27.1137H177.576V26.8756H177.081V26.6374H176.587V26.3993H176.349V26.1612H175.854V25.923H175.616V25.6849H175.121V25.4468H174.645V25.2086H174.389V24.9705H173.912V24.7324H173.418V24.4942H172.923V24.2561H172.447V24.0179H172.19V23.7798H171.714V23.5417H171.22V23.3035H170.725V23.0654H170.249V22.8273H169.754V22.5891H169.26V22.351H168.783V22.1129H168.289V21.8747H168.051V21.6366H167.556V21.3985H167.061V21.1603H166.329V20.9222H165.852V20.684H165.358V20.4459H164.863V20.2078H164.13V19.9696H163.654V19.7315H163.16V19.4934H162.665V19.2552H162.189V19.0171H161.456V18.779H160.961V18.5408H160.229V18.3027H159.734V18.0646H159.001V17.8264H158.269V17.5883H157.792V17.3501H157.06V17.112H156.327V16.8739H155.832V16.6357H155.1V16.3976H154.367V16.1595H153.634V15.9213H152.901V15.6832H152.169V15.4451H151.198V15.2069H150.465V14.9688H149.732V14.7307H149V14.4925H148.011V14.2544H147.04V14.0162H146.069V13.7781H145.08V13.54H144.109V13.3018H142.881V13.0637H141.911V12.8256H140.94V12.5874H139.474V12.3493H138.009V12.1112H136.543V11.873H135.078V11.6349H133.612V11.3968H131.158V11.1586H128.721V10.9205H126.029V10.6823H113.096V10.9205H109.909V11.1586H107.472V11.3968H105.512V11.6349H103.571V11.873H102.105V12.1112H100.64V12.3493H99.4125V12.5874H97.9471V12.8256H96.7197V13.0637H95.7489V13.3018H94.778V13.54H93.5507V13.7781H92.5798V14.0162H91.5907V14.2544H90.8579V14.4925H89.8871V14.7307H89.1543V14.9688H88.1835V15.2069H87.4508V15.4451H86.718V15.6832H85.9853V15.9213H85.2526V16.1595H84.5199V16.3976H83.7871V16.6357H83.0544V16.8739H82.3217V17.112H81.589V17.3501H81.0944V17.5883H80.3616V17.8264H79.8671V18.0646H79.1343V18.3027H78.4016V18.5408H77.9253V18.779H77.1926V19.0171H76.698V19.2552H76.2034V19.4934H75.7272V19.7315H74.9944V19.9696H74.4998V20.2078H74.0053V20.4459H73.529V20.684H73.0344V20.9222H72.3017V21.1603H71.8071V21.3985H71.3308V21.6366H70.8362V21.8747H70.3416V22.1129H70.1035V22.351H69.6089V22.5891H69.1326V22.8273H68.638V23.0654H68.1434V23.3035H67.6672V23.5417H67.1726V23.7798H66.678V24.0179H66.4399V24.2561H65.9453V24.4942H65.469V24.7324H64.9744V24.9705H64.7363V25.2086H64.2417V25.4468H63.7471V25.6849H63.2708V25.923H63.0144V26.1612H62.5381V26.3993H62.0435V26.6374H61.8054V26.8756H61.3108V27.1137H61.0726V27.3518H60.5781V27.59H60.3399V27.8281H59.8453V28.0663H59.6072V28.3044H59.1126V28.5425H58.618V28.7807H58.3799V29.0188H58.1418V29.2569H57.6472V29.4951H57.409V29.7332H56.9144V29.9713H56.6763V30.2095H56.1817V30.4476H55.9436V30.6857H55.6871V30.9239H55.2108V31.162H54.9544V31.4002H54.4781V31.6383H54.2217V31.8764H53.9835V32.1146H53.4889V32.3527H53.2508V32.5908H53.0127V32.829H52.7562V33.0671H52.2799V33.3052H52.0235V33.5434H51.7854V33.7815H51.5472V34.0196H51.0526V34.2578H50.8145V34.4959H50.558V34.7341H50.0818V34.9722H49.8253V35.2103H49.5872V35.4485H49.349V35.6866H49.0926V35.9247H48.8545V36.1629H48.3599V36.401H48.1217V36.6391H47.8836V36.8773H47.6271V37.1154H47.389V37.3535H47.1509V37.5917H46.8944V37.8298H46.4181V38.068H46.1617V38.3061H45.9236V38.5442H45.6854V38.7824H45.429V39.0205H45.1908V39.2586H44.9527V39.4968H44.6962V39.7349H44.4581V39.973H44.22V40.2112H43.9635V40.4493H43.7254V40.6875H43.4872V40.9256H43.2308V41.1637H42.9927V41.4019H42.4981V41.64H42.2599V41.8781H42.0218V42.1163H41.7653V42.3544H41.5272V42.849H41.2891V43.0871H41.0326V43.3253H40.7945V43.5634H40.5563V43.8015H40.2999V44.0397H40.0618V44.2778H39.8236V44.5159H39.5672V44.7541H39.329V44.9922H39.0909V45.2303H38.8344V45.4685H38.5963V45.7066H38.3582V45.9448H38.1017V46.1829H37.8636V46.6775H37.6254V46.9156H37.369V47.1537H37.1309V47.3919H36.8927V47.63H36.6363V47.8682H36.3981V48.3627H36.16V48.6009H35.9035V48.839H35.6654V49.0772H35.4273V49.3153H35.1708V49.5534H34.9327V50.048H34.6945V50.2861H34.4381V50.5243H34.2V50.7624H33.9618V51.257H33.7054V51.4951H33.4672V51.7333H33.2291V52.2279H32.9726V52.466H32.7345V52.7041H32.4964V52.9423H32.2399V53.4369H32.0018V53.675H31.7636V53.9131H31.5072V54.4077H31.2691V54.6459H31.0309V54.884H30.7745V55.3786H30.5363V55.6167H30.2982V56.1113H30.0417V56.3494H29.8036V56.5876H29.5655V57.0822H29.309V57.3203H29.0709V57.8149H28.8327V58.053H28.5763V58.5476H28.3382V58.7858H28.1V59.2804H27.8436V59.5185H27.6054V60.0131H27.3673V60.5077H27.1108V60.7458H26.8727V61.2404H26.6346V61.4785H26.3781V61.9731H26.14V62.2113H25.9018V62.7058H25.6454V63.2004H25.4072V63.4386H25.1691V63.9332H24.9127V64.4278H24.6745V64.9223H24.4364V65.1605H24.1799V65.6551H23.9418V66.1497H23.7037V66.6442H23.4472V66.8824H23.2091V67.377H22.9709V67.8716H22.7145V68.3661H22.4763V68.8607H22.2382V69.3553H21.9818V69.8499H21.7436V70.3445H21.5055V70.8391H21.249V71.3337H21.0109V71.8283H20.7728V72.3229H20.5163V72.8175H20.2782V73.312H20.04V74.0448H19.7836V74.5394H19.5454V75.034H19.3073V75.5285H19.0509V76.0231H18.8127V76.7559H18.5746V77.2504H18.3181V77.9832H18.08V78.4778H17.8419V79.2105H17.5854V79.7051H17.3473V80.4378H17.1091V80.9324H16.8527V81.6651H16.6145V82.3978H16.3764V83.1306H16.12V83.8633H15.8818V84.596H15.6437V85.3287H15.3872V86.0615H15.1491V86.7942H14.911V87.5269H14.6545V88.2596H14.4164V89.2305H14.1782V90.2014H13.9218V90.9341H13.6836V91.905H13.4455V92.8758H13.1891V93.8467H12.9509V94.8175H12.7128V96.0449H12.4563V97.0157H12.2182V98.243H11.9801V99.7085H11.7236V100.936H11.4855V102.401H11.2473V104.105H10.9909V106.065H10.7527V108.025H10.5146V111.194H10.2582V115.352H10.02V123.174H10.2582V127.076H10.5146V130.245H10.7527V132.205H10.9909V134.165H11.2473V135.868H11.4855V137.334H11.7236V138.799H11.9801V140.027H12.2182V141.492H12.4563V142.463H12.7128V143.434H12.9509V144.405H13.1891V145.632H13.4455V146.603H13.6836V147.336H13.9218V148.307H14.1782V149.277H14.4164V150.01H14.6545V150.981H14.911V151.714H15.1491V152.446H15.3872V153.179H15.6437V153.912H15.8818V154.645H16.12V155.377H16.3764V156.11H16.6145V156.843H16.8527V157.337H17.1091V158.07H17.3473V158.565H17.5854V159.297H17.8419V159.792H18.08V160.525H18.3181V161.019H18.5746V161.752H18.8127V162.247H19.0509V162.741H19.3073V163.236H19.5454V163.968H19.7836V164.463H20.04V164.958H20.2782V165.452H20.5163V165.947H20.7728V166.68H21.0109V167.174H21.249V167.669H21.5055V168.163H21.7436V168.402H21.9818V168.896H22.2382V169.391H22.4763V169.885H22.7145V170.38H22.9709V170.874H23.2091V171.369H23.4472V171.864H23.7037V172.358H23.9418V172.596H24.1799V173.091H24.4364V173.586H24.6745V174.08H24.9127V174.318H25.1691V174.813H25.4072V175.307H25.6454V175.802H25.9018V176.04H26.14V176.535H26.3781V176.773H26.6346V177.267H26.8727V177.506H27.1108V178H27.3673V178.495H27.6054V178.733H27.8436V179.228H28.1V179.466H28.3382V179.96H28.5763V180.198H28.8327V180.693H29.0709V180.931H29.309V181.426H29.5655V181.664H29.8036V181.902H30.0417V182.397H30.2982V182.635H30.5363V183.129H30.7745V183.367H31.0309V183.606H31.2691V184.1H31.5072V184.338H31.7636V184.833H32.0018V185.071H32.2399V185.309H32.4964V185.547H32.7345V186.042H32.9726V186.28H33.2291V186.518H33.4672V187.013H33.7054V187.251H33.9618V187.489H34.2V187.727H34.4381V188.222H34.6945V188.46H34.9327V188.698H35.1708V188.936H35.4273V189.431H35.6654V189.669H35.9035V189.907H36.16V190.145H36.3981V190.383H36.6363V190.621H36.8927V190.86H37.1309V191.354H37.369V191.592H37.6254V191.83H37.8636V192.069H38.1017V192.307H38.3582V192.545H38.5963V192.783H38.8344V193.021H39.0909V193.516H39.329V193.754H39.5672V193.992H39.8236V194.23H40.0618V194.468H40.2999V194.706H40.5563V194.944H40.7945V195.183H41.0326V195.421H41.2891V195.659H41.5272V195.897H41.7653V196.135H42.0218V196.373H42.2599V196.611H42.4981V196.85H42.7545V197.088H42.9927V197.326H43.2308V197.564H43.4872V197.802H43.7254V198.04H43.9635V198.278H44.22V198.516H44.4581V198.755H44.6962V198.993H44.9527V199.231H45.1908V199.469H45.6854V199.707H45.9236V199.945H46.1617V200.183H46.4181V200.422H46.6563V200.66H46.8944V200.898H47.1509V201.136H47.389V201.374H47.8836V201.612H48.1217V201.85H48.3599V202.089H48.6163V202.327H48.8545V202.565H49.0926V202.803H49.349V203.041H49.8253V203.279H50.0818V203.517H50.3199V203.755H50.558V203.994H51.0526V204.232H51.2908V204.47H51.5472V204.708H51.7854V204.946H52.2799V205.184H52.5181V205.422H52.7562V205.661H53.2508V205.899H53.4889V206.137H53.7454V206.375H53.9835V206.613H54.4781V206.851H54.7163V207.089H55.2108V207.328H55.449V207.566H55.6871V207.804H56.1817V208.042H56.4198V208.28H56.9144V208.518H57.1526V208.756H57.409V208.994H57.8853V209.233H58.1418V209.471H58.618V209.709H58.8745V209.947H59.3507V210.185H59.6072V210.423H60.0835V210.661H60.3399V210.9H60.8162V211.138H61.3108V211.376H61.5489V211.614H62.0435V211.852H62.2816V212.09H62.7762V212.328H63.0144V212.567H63.509V212.805H64.0035V213.043H64.4798V213.281H64.7363V213.519H65.2125V213.757H65.7071V213.995H66.2017V214.233H66.4399V214.472H66.9345V214.71H67.4107V214.948H67.9053V215.186H68.3999V215.424H68.8762V215.662H69.3708V215.9H69.8654V216.139H70.3416V216.377H70.5981V216.615H71.0743V216.853H71.5689V217.091H72.0635V217.329H72.5398V217.567H73.2725V217.805H73.7671V218.044H74.2617V218.282H74.738V218.52H75.4707V218.758H75.9653V218.996H76.4599V219.234H76.9361V219.472H77.6689V219.711H78.1635V219.949H78.8962V220.187H79.3908V220.425H80.1235V220.663H80.5998V220.901H81.3325V221.139H81.8271V221.378H82.5598V221.616H83.2925V221.854H84.0253V222.092H84.758V222.33H85.4907V222.568H86.2234V222.806H86.9562V223.044H87.6889V223.283H88.6598V223.521H89.3925V223.759H90.3817V223.997H91.1144V224.235H92.0853V224.473H93.0561V224.711H94.0453V224.95H95.2543V225.188H96.2435V225.426H97.2143V225.664H98.6798V225.902H99.9071V226.14H101.373V226.378H102.582V226.617H104.542V226.855H106.502V227.093H108.443V227.331H111.374V227.569H115.532V227.807H123.354V227.569H127.494V227.331H129.949V227.093H132.385V226.855H134.345V226.617H135.811V226.378H137.276V226.14H138.742V225.902H140.207V225.664H141.416V225.426H142.405V225.188H143.614V224.95H144.603V224.711H145.574V224.473H146.545V224.235H147.772V223.997H148.505V223.759H149.238V223.521H149.971V223.283H150.941V223.044H151.674V222.806H152.407V222.568H153.396V222.33H154.129V222.092H154.861V221.854H155.338V221.616H156.07V221.378H156.803V221.139H157.298V220.901H158.031V220.663H158.763V220.425H159.258V220.187H159.991V219.949H160.723V219.711H161.2V219.472H161.694V219.234H162.427V218.996H162.921V218.758H163.398V218.52H163.892V218.282H164.625V218.044H165.12V217.805H165.596V217.567H166.09V217.329H166.585V217.091H167.318V216.853H167.794V216.615H168.289V216.377H168.527V216.139H169.021V215.9H169.516V215.662H169.992V215.424H170.487V215.186H170.981V214.948H171.458V214.71H171.952V214.472H172.447V214.233H172.685V213.995H173.18V213.757H173.656V213.519H174.15V213.281H174.389V213.043H174.883V212.805H175.378V212.567H175.616V212.328H176.111V212.09H176.587V211.852H176.843V211.614H177.32V211.376H177.576V211.138H178.052V210.9H178.547V210.661H178.785V210.423H179.28V210.185H179.774V209.947H180.012V209.709H180.25V209.471H180.745V209.233H180.983V208.994H181.478V208.756H181.716V208.518H182.21V208.28H182.449V208.042H182.705V207.804H183.181V207.566H183.438V207.328H183.914V207.089H184.171V206.851H184.647V206.613H184.903V206.375H185.141V206.137H185.636V205.899H185.874V205.661H186.112V205.422H186.369V205.184H186.845V204.946H187.101V204.708H187.34V204.47H187.578V204.232H188.072V203.994H188.31V203.755H188.567V203.517H188.805V203.279H189.3V203.041H189.538V202.803H189.776V202.565H190.032V202.327H190.509V202.089H190.765V201.85H191.003V201.612H191.241V201.374H191.498V201.136H191.736V200.898H191.974V200.66H192.23V200.422H192.707V200.183H192.963V199.945H193.201V199.707H193.439V199.469H193.696V199.231H193.934V198.993H194.172V198.755H194.429V198.516H194.667V198.278H194.905V198.04H195.161V197.802H195.638V197.564H195.894V197.326H196.132V197.088H196.37V196.85H196.627V196.611H196.865V196.373H197.103V196.135H197.36V195.897H197.598V195.402H197.836V195.164H198.092V194.926H198.33V194.688H198.569V194.45H198.825V194.212H199.063V193.974H199.301V193.735H199.558V193.497H199.796V193.259H200.034V193.021H200.29V192.783H200.529V192.545H200.767V192.307H201.023V192.069H201.261V191.83H201.499V191.336H201.756V191.098H201.994V190.86H202.232V190.621H202.489V190.383H202.727V189.889H202.965V189.651H203.221V189.412H203.459V189.174H203.698V188.936H203.954V188.698H204.192V188.203H204.43V187.965H204.687V187.727H204.925V187.489H205.163V187.251H205.42V186.756H205.658V186.518H205.896V186.28H206.152V185.785H206.39V185.547H206.629V185.309H206.885V184.815H207.123V184.576H207.361V184.338H207.618V183.844H207.856V183.606H208.094V183.367H208.35V182.873H208.589V182.635H208.827V182.14H209.083V181.902H209.321V181.664H209.559V181.169H209.816V180.931H210.054V180.437H210.292V180.198H210.549V179.704H210.787V179.466H211.025V178.971H211.281V178.733H211.519V178.238H211.758V178H212.014V177.506H212.252V177.267H212.49V176.773H212.747V176.535H212.985V176.04H213.223V175.546H213.48V175.307H213.718V174.813H213.956V174.318H214.212V174.08H214.45V173.842H214.688V173.604H215.183V173.366H215.678V173.128H216.154V172.889H216.649V172.651H219.341V172.889H220.312V173.128H220.55V173.366H221.045V173.604H221.283V173.842H221.539V174.08H221.778V174.318H222.016V174.556H222.272V175.289H222.51V175.784H222.748V176.516H223.005V178.715H222.748V179.447H222.51V179.942H222.272V180.437H222.016V180.931H221.778V181.169H221.539V181.664H221.283V182.158H221.045V182.397H220.807V182.891H220.55V183.129H220.312V183.624H220.074V183.862H219.818V184.357H219.579V184.595H219.341V185.089H219.085V185.327H218.847V185.822H218.609V186.317H218.352V186.555H218.114V186.793H217.876V187.287H217.619V187.526H217.381V188.02H217.143V188.258H216.887V188.496H216.649V188.991H216.41V189.229H216.154V189.467H215.916V189.962H215.678V190.2H215.421V190.438H215.183V190.933H214.945V191.171H214.688V191.666H214.45V191.904H214.212V192.142H213.956V192.636H213.718V192.875H213.48V193.113H213.223V193.351H212.985V193.845H212.747V194.084H212.49V194.322H212.252V194.56H212.014V194.798H211.758V195.293H211.519V195.531H211.281V195.769H211.025V196.007H210.787V196.245H210.549V196.483H210.292V196.978H210.054V197.216H209.816V197.454H209.559V197.692H209.321V197.93H209.083V198.425H208.827V198.663H208.589V198.901H208.35V199.139H208.094V199.377H207.856V199.616H207.618V199.854H207.361V200.092H207.123V200.33H206.885V200.568H206.629V200.806H206.39V201.044H206.152V201.283H205.896V201.521H205.658V201.759H205.42V202.253H205.163V202.492H204.925V202.73H204.687V202.968H204.43V203.206H204.192V203.444H203.954V203.682H203.698V203.92H203.459V204.158H203.221V204.397H202.965V204.635H202.727V204.873H202.489V205.111H202.232V205.349H201.756V205.587H201.499V205.825H201.261V206.064H201.023V206.302H200.767V206.54H200.529V206.778H200.29V207.016H200.034V207.254H199.796V207.492H199.558V207.731H199.301V207.969H198.825V208.207H198.569V208.445H198.33V208.683H198.092V208.921H197.836V209.159H197.598V209.397H197.36V209.636H197.103V209.874H196.627V210.112H196.37V210.35H196.132V210.588H195.894V210.826H195.4V211.064H195.161V211.303H194.905V211.541H194.667V211.779H194.172V212.017H193.934V212.255H193.696V212.493H193.439V212.731H192.963V212.97H192.707V213.208H192.469V213.446H192.23V213.684H191.736V213.922H191.498V214.16H191.241V214.398H190.765V214.636H190.509V214.875H190.27V215.113H189.776V215.351H189.538V215.589H189.043V215.827H188.805V216.065H188.31V216.303H188.072V216.542H187.834V216.78H187.34V217.018H187.101V217.256H186.607V217.494H186.369V217.732H186.112V217.97H185.636V218.208H185.379V218.447H184.903V218.685H184.409V218.923H184.171V219.161H183.676V219.399H183.438V219.637H182.943V219.875H182.449V220.114H182.21V220.352H181.716V220.59H181.24V220.828H180.983V221.066H180.507V221.304H180.25V221.542H179.774V221.781H179.28V222.019H179.041V222.257H178.547V222.495H178.052V222.733H177.576V222.971H177.081V223.209H176.587V223.447H176.111V223.686H175.854V223.924H175.378V224.162H174.883V224.4H174.389V224.638H173.912V224.876H173.418V225.114H172.923V225.353H172.447V225.591H171.952V225.829H171.458V226.067H170.981V226.305H170.487V226.543H169.992V226.781H169.26V227.02H168.783V227.258H168.289V227.496H167.794V227.734H167.318V227.972H166.585V228.21H166.09V228.448H165.596V228.686H165.12V228.925H164.387V229.163H163.654V229.401H163.16V229.639H162.427V229.877H161.694V230.115H161.2V230.353H160.467V230.592H159.734V230.83H159.258V231.068H158.525V231.306H157.792V231.544H157.06V231.782H156.327V232.02H155.594V232.259H154.605V232.497H153.872V232.735H153.14V232.973H152.407V233.211H151.436V233.449H150.703V233.687H149.732V233.925H148.743V234.164H147.772V234.402H146.545V234.64H145.574V234.878H144.603V235.116H143.614V235.354H142.405V235.592H140.94V235.831H139.474V236.069H138.009V236.307H136.543V236.545H134.821V236.783H132.385V237.021H129.949V237.259H127.494V237.497H122.127V237.736" fill="url(#paint0_linear_13209_41329)"/>
<defs>
<linearGradient id="paint0_linear_13209_41329" x1="53.1409" y1="16.5991" x2="182.687" y2="214.911" gradientUnits="userSpaceOnUse">
<stop stop-color="#FFCF00"/>
<stop offset="1" stop-color="#FAAD19"/>
</linearGradient>
</defs>
</svg>
