<svg width="108" height="115" viewBox="0 0 108 115" fill="none" xmlns="http://www.w3.org/2000/svg">
<path d="M56.4343 114.318V114.203H53.9603V114.088H52.308V113.973H51.1328V113.858H50.3111V113.743H49.3656V113.628H48.5439V113.514H47.837V113.399H47.245V113.284H46.5382V113.169H45.9462V113.054H45.363V112.939H44.8859V112.824H44.4176V112.71H43.9493V112.595H43.3573V112.48H42.889V112.365H42.5356V112.25H42.0584V112.135H41.705V112.02H41.2367V111.905H40.8833V111.791H40.415V111.676H40.0615V111.561H39.823V111.446H39.4695V111.331H39.1161V111.216H38.7627V111.101H38.4092V110.987H38.0558V110.872H37.7024V110.757H37.3489V110.642H37.1104V110.527H36.7569V110.412H36.5272V110.297H36.1738V110.183H35.9352V110.068H35.5818V109.953H35.3432V109.838H34.9898V109.723H34.7601V109.608H34.5215V109.493H34.2829V109.378H34.0532V109.264H33.6998V109.149H33.4612V109.034H33.2226V108.919H32.9929V108.804H32.7543V108.689H32.5158V108.574H32.286V108.46H32.0475V108.345H31.8089V108.23H31.5792V108.115H31.3406V108H31.102V107.885H30.8723V107.77H30.6337V107.655H30.3952V107.541H30.1654V107.426H29.9269V107.311H29.812V107.196H29.5734V107.081H29.3349V106.966H29.1051V106.851H28.9814V106.737H28.7517V106.622H28.5131V106.507H28.2746V106.392H28.1597V106.277H27.9211V106.162H27.6914V106.047H27.5677V105.932H27.338V105.818H27.2143V105.703H26.9845V105.588H26.746V105.473H26.6311V105.358H26.3925V105.243H26.2777V105.128H26.0391V105.014H25.9242V104.899H25.6857V104.784H25.5708V104.669H25.3323V104.554H25.2174V104.439H24.9788V104.324H24.864V104.21H24.6254V104.095H24.5105V103.98H24.3868V103.865H24.1571V103.75H24.0334V103.635H23.8037V103.52H23.68V103.405H23.5651V103.291H23.3265V103.176H23.2117V103.061H23.0968V102.946H22.8582V102.831H22.7434V102.716H22.6197V102.601H22.3899V102.487H22.2662V102.372H22.1514V102.257H22.0365V102.142H21.7979V102.027H21.6831V101.912H21.5594V101.797H21.4445V101.682H21.2059V101.568H21.0911V101.453H20.9762V101.338H20.8525V101.223H20.7376V101.108H20.4991V100.993H20.3842V100.878H20.2693V100.764H20.1456V100.649H20.0308V100.534H19.9159V100.419H19.6773V100.304H19.5625V100.189H19.4388V100.074H19.3239V99.9595H19.209V99.8446H19.0853V99.7298H18.9705V99.6149H18.7319V99.5H18.617V99.3852H18.5022V99.2703H18.3785V99.1554H18.2636V99.0406H18.1487V98.9257H18.025V98.8108H17.9102V98.696H17.7953V98.5811H17.6716V98.4662H17.5567V98.3514H17.4419V98.2365H17.3182V98.1216H17.2033V98.0068H17.0884V97.8919H16.9647V97.777H16.8499V97.6622H16.735V97.5473H16.6113V97.4324H16.4964V97.3176H16.3816V97.2027H16.2579V97.0878H16.143V96.973H16.0281V96.8581H15.9044V96.7432H15.7896V96.6284H15.6747V96.5135H15.551V96.3987H15.4361V96.2838H15.3213V96.1689H15.1976V96.0541H15.0827V95.8155H14.9679V95.7006H14.8442V95.5858H14.7293V95.4709H14.6144V95.356H14.4907V95.2412H14.3759V95.1263H14.261V94.8877H14.1373V94.7729H14.0224V94.658H13.9076V94.5431H13.7839V94.4283H13.669V94.3134H13.5541V94.0748H13.4304V93.96H13.3156V93.8451H13.2007V93.7302H13.077V93.6154H12.9621V93.3768H12.8473V93.2619H12.7236V93.1471H12.6087V93.0322H12.4938V92.7936H12.3701V92.6788H12.2553V92.5639H12.1404V92.4491H12.0167V92.2105H11.9018V92.0956H11.787V91.9808H11.6633V91.7422H11.5484V91.6273H11.4335V91.5125H11.3098V91.2739H11.195V91.159H11.0801V91.0442H10.9564V90.8056H10.8415V90.6907H10.7267V90.4521H10.603V90.3373H10.4881V90.0987H10.3732V89.9839H10.2495V89.869H10.1347V89.6304H10.0198V89.5156H9.8961V89.277H9.78124V89.1621H9.66637V88.9236H9.54267V88.8087H9.4278V88.5701H9.31294V88.4553H9.18924V88.2167H9.07437V87.9781H8.95951V87.8633H8.8358V87.6247H8.72094V87.5098H8.60607V87.2713H8.48237V87.1564H8.36751V86.9178H8.25264V86.6793H8.12894V86.5644H8.01407V86.3258H7.89921V86.0873H7.77551V85.8487H7.66064V85.7338H7.54578V85.4953H7.42208V85.2567H7.30721V85.0181H7.19235V84.9033H7.06864V84.6647H6.95378V84.4261H6.83891V84.1876H6.71521V83.949H6.60035V83.7104H6.48548V83.4719H6.36178V83.2333H6.24691V82.9947H6.13205V82.7562H6.00835V82.5176H5.89348V82.279H5.77862V82.0405H5.65492V81.8019H5.54005V81.5633H5.42518V81.3248H5.30148V81.0862H5.18662V80.7328H5.07175V80.4942H4.94805V80.2556H4.83318V80.0171H4.71832V79.7785H4.59462V79.4251H4.47975V79.1865H4.36489V78.8331H4.24119V78.5945H4.12632V78.2411H4.01146V78.0025H3.88775V77.6491H3.77289V77.2956H3.65802V77.0571H3.53432V76.7036H3.41946V76.3502H3.30459V75.9968H3.18089V75.6433H3.06602V75.2899H2.95116V74.9365H2.82746V74.583H2.71259V74.3445H2.59773V73.8762H2.47403V73.5228H2.35916V73.0544H2.24429V72.5862H2.12059V72.2327H2.00573V71.7644H1.89086V71.411H1.76716V70.819H1.6523V70.3507H1.53743V69.8824H1.41373V69.2904H1.29886V68.8221H1.184V68.2301H1.0603V67.5232H0.945431V66.8164H0.830566V66.2244H0.706864V65.4026H0.591999V64.4572H0.477133V63.5118H0.353432V62.3366H0.238567V60.808H0.123701V58.0954H0V56.0897H0.123701V53.5008H0.238567V51.9722H0.353432V50.6734H0.477133V49.7279H0.591999V48.9062H0.706864V48.0845H0.830566V47.3776H0.945431V46.6707H1.0603V46.0787H1.184V45.3719H1.29886V44.9036H1.41373V44.4353H1.53743V43.8433H1.6523V43.375H1.76716V42.9067H1.89086V42.4384H2.00573V42.0849H2.12059V41.6166H2.24429V41.2632H2.35916V40.7949H2.47403V40.3266H2.59773V39.9732H2.71259V39.6198H2.82746V39.2663H2.95116V38.9129H3.06602V38.5595H3.18089V38.206H3.30459V37.8526H3.41946V37.4992H3.53432V37.2606H3.65802V36.9072H3.77289V36.6686H3.88775V36.3152H4.01146V35.9617H4.12632V35.7232H4.24119V35.3697H4.36489V35.1312H4.47975V34.7777H4.59462V34.5392H4.71832V34.3006H4.83318V34.062H4.94805V33.7086H5.07175V33.47H5.18662V33.2315H5.30148V32.9929H5.42518V32.7543H5.54005V32.4009H5.65492V32.1623H5.77862V31.9238H5.89348V31.6852H6.00835V31.4466H6.13205V31.2081H6.24691V30.9695H6.36178V30.7309H6.48548V30.4924H6.60035V30.2538H6.71521V30.1389H6.83891V29.9004H6.95378V29.6618H7.06864V29.4232H7.19235V29.1847H7.30721V28.9461H7.42208V28.8312H7.54578V28.5927H7.66064V28.3541H7.77551V28.1155H7.89921V28.0007H8.01407V27.7621H8.12894V27.5235H8.25264V27.4087H8.36751V27.1701H8.48237V26.9315H8.60607V26.8167H8.72094V26.5781H8.8358V26.4632H8.95951V26.2247H9.07437V25.9861H9.18924V25.8712H9.31294V25.6327H9.4278V25.5178H9.54267V25.2792H9.66637V25.1644H9.78124V24.9258H9.8961V24.8109H10.0198V24.5724H10.1347V24.4575H10.2495V24.2189H10.3732V24.1041H10.4881V23.9892H10.603V23.7506H10.7267V23.6358H10.8415V23.3972H10.9564V23.2824H11.0801V23.1675H11.195V22.9289H11.3098V22.8141H11.4335V22.5755H11.5484V22.4606H11.6633V22.3458H11.787V22.2309H11.9018V21.9923H12.0167V21.8775H12.1404V21.7626H12.2553V21.524H12.3701V21.4092H12.4938V21.2943H12.6087V21.1794H12.7236V20.9409H12.8473V20.826H12.9621V20.7111H13.077V20.5963H13.2007V20.3577H13.3156V20.2428H13.4304V20.128H13.5541V20.0131H13.669V19.8982H13.7839V19.7834H13.9076V19.5448H14.0224V19.4299H14.1373V19.3151H14.261V19.2002H14.3759V19.0853H14.4907V18.9705H14.6144V18.7319H14.7293V18.617H14.8442V18.5022H14.9679V18.3873H15.0827V18.2724H15.1976V18.1576H15.3213V18.0427H15.4361V17.9279H15.551V17.813H15.6747V17.6981H15.7896V17.5833H15.9044V17.4684H16.0281V17.3535H16.143V17.2387H16.2579V17.0001H16.3816V16.8852H16.4964V16.7704H16.6113V16.6555H16.735V16.5406H16.8499V16.4258H16.9647V16.3109H17.0884V16.196H17.2033V16.0812H17.3182V15.9663H17.4419V15.8514H17.6716V15.7366H17.7953V15.6217H17.9102V15.5068H18.025V15.392H18.1487V15.2771H18.2636V15.1622H18.3785V15.0474H18.5022V14.9325H18.617V14.8176H18.7319V14.7028H18.8556V14.5879H18.9705V14.4731H19.0853V14.3582H19.209V14.2433H19.4388V14.1285H19.5625V14.0136H19.6773V13.8987H19.7922V13.7839H19.9159V13.669H20.0308V13.5541H20.1456V13.4393H20.3842V13.3244H20.4991V13.2095H20.6228V13.0947H20.7376V12.9798H20.8525V12.8649H20.9762V12.7501H21.2059V12.6352H21.3296V12.5203H21.4445V12.4055H21.6831V12.2906H21.7979V12.1757H21.9128V12.0609H22.0365V11.946H22.2662V11.8311H22.3899V11.7163H22.5048V11.6014H22.6197V11.4865H22.8582V11.3717H22.9731V11.2568H23.0968V11.142H23.3265V11.0271H23.4502V10.9122H23.5651V10.7974H23.8037V10.6825H23.9185V10.5676H24.1571V10.4528H24.272V10.3379H24.3868V10.223H24.6254V10.1082H24.7403V9.9933H24.9788V9.87843H25.0937V9.76357H25.2174V9.6487H25.4471V9.53384H25.5708V9.41897H25.8005V9.3041H25.9242V9.18924H26.154V9.07437H26.3925V8.95951H26.5074V8.84464H26.746V8.72978H26.8608V8.61491H27.0994V8.50005H27.2143V8.38518H27.4528V8.27032H27.6914V8.15545H27.8063V8.04058H28.0448V7.92572H28.2746V7.81085H28.3983V7.69599H28.628V7.58112H28.8666V7.46626H29.1051V7.35139H29.22V7.23653H29.4586V7.12166H29.6883V7.00679H29.812V6.89193H30.0417V6.77706H30.2803V6.6622H30.5189V6.54733H30.7486V6.43247H30.9872V6.3176H31.2257V6.20274H31.4555V6.08787H31.694V5.97301H31.9326V5.85814H32.1623V5.74327H32.4009V5.62841H32.6395V5.51354H32.8692V5.39868H33.1078V5.28381H33.3463V5.16895H33.5761V5.05408H33.9295V4.93922H34.1681V4.82435H34.4066V4.70949H34.6364V4.59462H34.8749V4.47975H35.2284V4.36489H35.4669V4.25002H35.8204V4.13516H36.0501V4.02029H36.4035V3.90543H36.6421V3.79056H36.9955V3.6757H37.2341V3.56083H37.5875V3.44596H37.8172V3.3311H38.1707V3.21623H38.5241V3.10137H38.8775V2.9865H39.231V2.87164H39.5844V2.75677H39.9378V2.64191H40.2913V2.52704H40.6447V2.41218H41.1218V2.29731H41.4753V2.18244H41.9436V2.06758H42.297V1.95271H42.7653V1.83785H43.1187V1.72298H43.5959V1.60812H44.179V1.49325H44.6562V1.37839H45.1245V1.26352H45.7165V1.14865H46.1847V1.03379H46.8916V0.918924H47.5985V0.804058H48.1905V0.689193H48.8973V0.574327H49.8339V0.459462H50.7794V0.344596H51.6011V0.229731H53.1385V0.114865H54.782V0H60.2072V0.114865H62.0892V0.229731H63.2644V0.344596H64.4484V0.459462H65.5087V0.574327H66.2155V0.689193H66.9224V0.804058H67.6292V0.918924H68.3361V1.03379H68.9193V1.14865H69.5113V1.26352H69.9796V1.37839H70.4567V1.49325H70.925V1.60812H71.517V1.72298H71.9853V1.83785H72.4536V1.95271H72.9307V2.06758H73.2842V2.18244H73.6376V2.29731H74.1059V2.41218H74.4593V2.52704H74.8128V2.64191H75.1662V2.75677H75.6345V2.87164H75.9879V2.9865H76.3414V3.10137H76.5799V3.21623H76.9333V3.3311H77.2868V3.44596H77.5253V3.56083H77.8788V3.6757H78.2322V3.79056H78.462V3.90543H78.8154V4.02029H79.1688V4.13516H79.4074V4.25002H79.7608V4.36489H79.9994V4.47975H80.2291V4.59462H80.4677V4.70949H80.8211V4.82435H81.0597V4.93922H81.2894V5.05408H81.528V5.16895H81.8814V5.28381H82.12V5.39868H82.3497V5.51354H82.5883V5.62841H82.8268V5.74327H83.0566V5.85814H83.2951V5.97301H83.5337V6.08787H83.7634V6.20274H84.002V6.3176H84.2406V6.43247H84.4703V6.54733H84.7089V6.6622H84.8237V6.77706H85.0623V6.89193H85.3009V7.00679H85.5306V7.12166H85.7692V7.23653H86.0077V7.35139H86.2374V7.46626H86.3612V7.58112H86.5909V7.69599H86.8295V7.81085H86.9443V7.92572H87.1829V8.04058H87.4215V8.15545H87.5363V8.27032H87.7749V8.38518H87.8897V8.50005H88.1283V8.61491H88.3581V8.72978H88.4817V8.84464H88.7115V8.95951H88.95V9.07437H89.0649V9.18924H89.3035V9.3041H89.4183V9.41897H89.6569V9.53384H89.7718V9.6487H90.0103V9.76357H90.1252V9.87843H90.2489V9.9933H90.4786V10.1082H90.6023V10.223H90.8321V10.3379H90.9558V10.4528H91.1855V10.5676H91.3092V10.6825H91.4241V10.7974H91.6626V10.9122H91.7775V11.0271H92.0161V11.142H92.1309V11.2568H92.2458V11.3717H92.4844V11.4865H92.5992V11.6014H92.7229V11.7163H92.9527V11.8311H93.0764V11.946H93.1912V12.0609H93.3061V12.1757H93.4298V12.2906H93.6595V12.4055H93.7832V12.5203H93.8981V12.6352H94.013V12.7501H94.2515V12.8649H94.3664V12.9798H94.4901V13.0947H94.605V13.2095H94.8435V13.3244H94.9584V13.4393H95.0733V13.5541H95.197V13.669H95.4267V13.7839H95.5504V13.8987H95.6653V14.0136H95.7801V14.1285H95.9038V14.2433H96.0187V14.3582H96.1336V14.4731H96.2573V14.5879H96.3721V14.7028H96.487V14.8176H96.6107V14.9325H96.8404V15.0474H96.9641V15.1622H97.079V15.2771H97.1938V15.392H97.3176V15.5068H97.4324V15.6217H97.5473V15.7366H97.671V15.8514H97.7859V15.9663H97.9007V16.0812H98.0244V16.196H98.1393V16.3109H98.2541V16.4258H98.3778V16.5406H98.4927V16.6555H98.6076V16.7704H98.7313V16.8852H98.8461V17.0001H98.961V17.115H99.0847V17.2298H99.1996V17.3447H99.3144V17.4596H99.4381V17.5744H99.553V17.6893H99.6679V17.8041H99.7916V17.919H99.9064V18.0339H100.021V18.1487H100.145V18.2636H100.26V18.3785H100.375V18.617H100.498V18.7319H100.613V18.8468H100.728V18.9616H100.852V19.0765H100.967V19.1914H101.082V19.3062H101.205V19.5448H101.32V19.6597H101.435V19.7745H101.559V19.8894H101.674V20.0043H101.788V20.2428H101.912V20.3577H102.027V20.4726H102.142V20.5874H102.266V20.7023H102.38V20.9409H102.495V21.0557H102.619V21.1706H102.734V21.2855H102.849V21.4003H102.972V21.6389H103.087V21.7538H103.202V21.8686H103.326V22.1072H103.441V22.2221H103.556V22.3369H103.679V22.5755H103.794V22.6904H103.909V22.8052H104.033V23.0438H104.148V23.1586H104.262V23.3972H104.386V23.5121H104.501V23.6269H104.616V23.8655H104.74V23.9804H104.854V24.0952H104.969V24.3338H105.093V24.4487H105.208V24.5635H105.323V24.8021H105.446V25.0407H105.561V25.1555H105.676V25.3941H105.8V25.509H105.915V25.7475H106.03V25.8624H106.153V26.101H106.268V26.2158H106.383V26.4544H106.507V26.5693H106.622V26.8078H106.737V26.9227H106.86V27.1613H106.975V27.3998H107.09V27.5147H107.214V27.7533H107.329V27.9918H107.443V28.4601H107.567V29.5204H107.443V29.8739H107.329V30.1124H107.214V30.351H107.09V30.4659H106.975V30.5807H106.86V30.6956H106.737V30.9342H106.507V31.049H106.383V31.1639H106.03V31.2788H105.561V31.3936H105.208V31.2788H104.386V31.1639H104.148V31.049H103.909V30.9342H103.679V30.8193H103.556V30.7044H103.441V30.5896H103.326V30.4747H103.202V30.3598H103.087V30.1213H102.972V29.8827H102.849V29.7678H102.734V29.5293H102.619V29.2907H102.495V29.1758H102.38V28.9373H102.266V28.8224H102.142V28.5838H102.027V28.469H101.912V28.2304H101.788V28.1155H101.674V27.877H101.559V27.7621H101.435V27.5235H101.32V27.4087H101.205V27.1701H101.082V27.0552H100.967V26.8167H100.852V26.7018H100.728V26.5869H100.613V26.3484H100.498V26.2335H100.375V26.1186H100.26V25.8801H100.145V25.7652H100.021V25.6503H99.9064V25.4118H99.7916V25.2969H99.6679V25.0583H99.553V24.9435H99.4381V24.8286H99.3144V24.59H99.1996V24.4752H99.0847V24.3603H98.961V24.2455H98.8461V24.1306H98.7313V23.892H98.6076V23.7772H98.4927V23.6623H98.3778V23.5474H98.2541V23.4326H98.1393V23.194H98.0244V23.0791H97.9007V22.9643H97.7859V22.8494H97.671V22.7345H97.5473V22.496H97.4324V22.3811H97.3176V22.2662H97.1938V22.1514H97.079V22.0365H96.9641V21.9216H96.8404V21.8068H96.7256V21.6919H96.6107V21.4533H96.487V21.3385H96.3721V21.2236H96.2573V21.1087H96.1336V20.9939H96.0187V20.879H95.9038V20.7641H95.7801V20.6493H95.6653V20.5344H95.5504V20.4195H95.4267V20.3047H95.3118V20.1898H95.197V20.075H95.0733V19.9601H94.9584V19.8452H94.8435V19.7304H94.7198V19.6155H94.605V19.5006H94.4901V19.3858H94.3664V19.2709H94.2515V19.156H94.1367V19.0412H94.013V18.9263H93.8981V18.8114H93.7832V18.6966H93.6595V18.5817H93.4298V18.4668H93.3061V18.352H93.1912V18.2371H93.0764V18.1222H92.9527V18.0074H92.8378V17.8925H92.7229V17.7776H92.5992V17.6628H92.4844V17.5479H92.3695V17.433H92.2458V17.3182H92.0161V17.2033H91.8924V17.0884H91.7775V16.9736H91.6626V16.8587H91.4241V16.7439H91.3092V16.629H91.1855V16.5141H91.0706V16.3993H90.8321V16.2844H90.7172V16.1695H90.6023V16.0547H90.4786V15.9398H90.2489V15.8249H90.1252V15.7101H90.0103V15.5952H89.8955V15.4803H89.7718V15.3655H89.542V15.2506H89.4183V15.1357H89.3035V15.0209H89.0649V14.906H88.95V14.7911H88.7115V14.6763H88.5966V14.5614H88.4817V14.4465H88.2432V14.3317H88.1283V14.2168H87.8897V14.1019H87.7749V13.9871H87.5363V13.8722H87.4215V13.7573H87.2978V13.6425H87.068V13.5276H86.9443V13.4128H86.7146V13.2979H86.5909V13.183H86.3612V13.0682H86.2374V12.9533H86.0077V12.8384H85.7692V12.7236H85.6543V12.6087H85.4157V12.4938H85.1772V12.379H85.0623V12.2641H84.8237V12.1492H84.7089V12.0344H84.4703V11.9195H84.2406V11.8046H84.1169V11.6898H83.8871V11.5749H83.6486V11.46H83.41V11.3452H83.1803V11.2303H83.0566V11.1154H82.8268V11.0006H82.5883V10.8857H82.3497V10.7708H82.12V10.656H81.8814V10.5411H81.6428V10.4263H81.4131V10.3114H81.1745V10.1965H81.0597V10.0817H80.8211V9.96679H80.5825V9.85192H80.2291V9.73706H79.9994V9.62219H79.7608V9.50733H79.5222V9.39246H79.1688V9.2776H78.9391V9.16273H78.7005V9.04787H78.462V8.933H78.2322V8.81813H77.8788V8.70327H77.6402V8.5884H77.2868V8.47354H77.0482V8.35867H76.6948V8.24381H76.3414V8.12894H76.1116V8.01408H75.7582V7.89921H75.4048V7.78435H75.1662V7.66948H74.8128V7.55461H74.4593V7.43975H74.1059V7.32488H73.7525V7.21002H73.399V7.09515H72.9307V6.98029H72.5773V6.86542H72.2239V6.75056H71.8704V6.63569H71.3933V6.52082H70.925V6.40596H70.4567V6.29109H69.9796V6.17623H69.5113V6.06136H68.9193V5.9465H68.451V5.83163H67.9827V5.71677H67.2758V5.6019H66.5689V5.48704H65.8621V5.37217H65.1552V5.2573H64.4484V5.14244H63.2644V5.02757H62.0892V4.91271H60.7903V4.79784H54.5523V4.91271H53.0148V5.02757H51.8397V5.14244H50.8942V5.2573H49.9576V5.37217H49.2508V5.48704H48.5439V5.6019H47.9519V5.71677H47.245V5.83163H46.653V5.9465H46.1847V6.06136H45.7165V6.17623H45.1245V6.29109H44.6562V6.40596H44.179V6.52082H43.8256V6.63569H43.3573V6.75056H43.0039V6.86542H42.5356V6.98029H42.1821V7.09515H41.8287V7.21002H41.4753V7.32488H41.1218V7.43975H40.7684V7.55461H40.415V7.66948H40.0615V7.78435H39.7081V7.89921H39.3547V8.01408H39.1161V8.12894H38.7627V8.24381H38.5241V8.35867H38.1707V8.47354H37.8172V8.5884H37.5875V8.70327H37.2341V8.81813H36.9955V8.933H36.7569V9.04787H36.5272V9.16273H36.1738V9.2776H35.9352V9.39246H35.6967V9.50733H35.4669V9.62219H35.2284V9.73706H34.8749V9.85192H34.6364V9.96679H34.4066V10.0817H34.1681V10.1965H33.9295V10.3114H33.8146V10.4263H33.5761V10.5411H33.3463V10.656H33.1078V10.7708H32.8692V10.8857H32.6395V11.0006H32.4009V11.1154H32.1623V11.2303H32.0475V11.3452H31.8089V11.46H31.5792V11.5749H31.3406V11.6898H31.2257V11.8046H30.9872V11.9195H30.7486V12.0344H30.5189V12.1492H30.3952V12.2641H30.1654V12.379H29.9269V12.4938H29.812V12.6087H29.5734V12.7236H29.4586V12.8384H29.22V12.9533H29.1051V13.0682H28.8666V13.183H28.7517V13.2979H28.5131V13.4128H28.2746V13.5276H28.1597V13.6425H28.0448V13.7573H27.8063V13.8722H27.6914V13.9871H27.4528V14.1019H27.338V14.2168H27.0994V14.3317H26.9845V14.4465H26.8608V14.5614H26.6311V14.6763H26.5074V14.7911H26.2777V14.906H26.154V15.0209H26.0391V15.1357H25.8005V15.2506H25.6857V15.3655H25.5708V15.4803H25.4471V15.5952H25.2174V15.7101H25.0937V15.8249H24.9788V15.9398H24.864V16.0547H24.6254V16.1695H24.5105V16.2844H24.3868V16.3993H24.1571V16.5141H24.0334V16.629H23.9185V16.7439H23.8037V16.8587H23.68V16.9736H23.5651V17.0884H23.3265V17.2033H23.2117V17.3182H23.0968V17.433H22.9731V17.5479H22.8582V17.6628H22.7434V17.7776H22.6197V17.8925H22.3899V18.0074H22.2662V18.1222H22.1514V18.2371H22.0365V18.352H21.9128V18.4668H21.7979V18.5817H21.6831V18.6966H21.5594V18.8114H21.4445V18.9263H21.3296V19.0412H21.2059V19.156H21.0911V19.2709H20.9762V19.3858H20.8525V19.5006H20.7376V19.6155H20.4991V19.7304H20.3842V19.8452H20.2693V19.9601H20.1456V20.075H20.0308V20.3135H19.9159V20.4284H19.7922V20.5432H19.6773V20.6581H19.5625V20.773H19.4388V20.8878H19.3239V21.0027H19.209V21.1176H19.0853V21.2324H18.9705V21.3473H18.8556V21.4622H18.7319V21.577H18.617V21.6919H18.5022V21.8068H18.3785V21.9216H18.2636V22.1602H18.1487V22.2751H18.025V22.3899H17.9102V22.5048H17.7953V22.6197H17.6716V22.7345H17.5567V22.9731H17.4419V23.088H17.3182V23.2028H17.2033V23.3177H17.0884V23.4326H16.9647V23.5474H16.8499V23.786H16.735V23.9009H16.6113V24.0157H16.4964V24.1306H16.3816V24.3692H16.2579V24.484H16.143V24.5989H16.0281V24.8375H15.9044V24.9523H15.7896V25.0672H15.6747V25.182H15.551V25.4206H15.4361V25.5355H15.3213V25.6503H15.1976V25.8889H15.0827V26.0038H14.9679V26.1186H14.8442V26.3572H14.7293V26.4721H14.6144V26.7106H14.4907V26.8255H14.3759V26.9404H14.261V27.1789H14.1373V27.2938H14.0224V27.5324H13.9076V27.6472H13.7839V27.8858H13.669V28.0007H13.5541V28.2392H13.4304V28.3541H13.3156V28.5927H13.2007V28.8312H13.077V28.9461H12.9621V29.1847H12.8473V29.2995H12.7236V29.5381H12.6087V29.653H12.4938V29.8915H12.3701V30.1301H12.2553V30.245H12.1404V30.4835H12.0167V30.7221H11.9018V30.9607H11.787V31.0755H11.6633V31.3141H11.5484V31.5527H11.4335V31.7912H11.3098V31.9061H11.195V32.1447H11.0801V32.3832H10.9564V32.6218H10.8415V32.8604H10.7267V33.0989H10.603V33.3375H10.4881V33.5761H10.3732V33.8146H10.2495V34.0532H10.1347V34.2918H10.0198V34.5303H9.8961V34.7689H9.78124V35.0075H9.66637V35.3609H9.54267V35.5995H9.4278V35.838H9.31294V36.0766H9.18924V36.3152H9.07437V36.6686H8.95951V36.9072H8.8358V37.2606H8.72094V37.4992H8.60607V37.8526H8.48237V38.0912H8.36751V38.4446H8.25264V38.6832H8.12894V39.0366H8.01407V39.39H7.89921V39.7435H7.77551V40.0969H7.66064V40.4503H7.54578V40.8038H7.42208V41.1572H7.30721V41.5106H7.19235V41.8641H7.06864V42.2175H6.95378V42.6858H6.83891V43.1541H6.71521V43.5075H6.60035V43.9758H6.48548V44.4441H6.36178V44.9124H6.24691V45.3807H6.13205V45.9727H6.00835V46.441H5.89348V47.033H5.77862V47.7399H5.65492V48.3319H5.54005V49.0387H5.42518V49.8605H5.30148V50.8059H5.18662V51.7513H5.07175V53.2799H4.94805V55.2856H4.83318V59.0585H4.94805V60.9406H5.07175V62.4692H5.18662V63.4146H5.30148V64.36H5.42518V65.1817H5.54005V65.8886H5.65492V66.5955H5.77862V67.1875H5.89348V67.8943H6.00835V68.3626H6.13205V68.8309H6.24691V69.2992H6.36178V69.8912H6.48548V70.3595H6.60035V70.713H6.71521V71.1813H6.83891V71.6496H6.95378V72.003H7.06864V72.4713H7.19235V72.8247H7.30721V73.1781H7.42208V73.5316H7.54578V73.885H7.66064V74.2384H7.77551V74.5919H7.89921V74.9453H8.01407V75.2987H8.12894V75.5373H8.25264V75.8907H8.36751V76.1293H8.48237V76.4827H8.60607V76.7213H8.72094V77.0747H8.8358V77.3133H8.95951V77.6667H9.07437V77.9053H9.18924V78.1439H9.31294V78.3824H9.4278V78.7359H9.54267V78.9744H9.66637V79.213H9.78124V79.4516H9.8961V79.6901H10.0198V80.0436H10.1347V80.2821H10.2495V80.5207H10.3732V80.7593H10.4881V80.8741H10.603V81.1127H10.7267V81.3513H10.8415V81.5898H10.9564V81.8284H11.0801V82.067H11.195V82.3055H11.3098V82.5441H11.4335V82.7827H11.5484V82.8975H11.6633V83.1361H11.787V83.3747H11.9018V83.6132H12.0167V83.7281H12.1404V83.9667H12.2553V84.2052H12.3701V84.4438H12.4938V84.5587H12.6087V84.7972H12.7236V84.9121H12.8473V85.1507H12.9621V85.2655H13.077V85.5041H13.2007V85.7427H13.3156V85.8575H13.4304V86.0961H13.5541V86.211H13.669V86.4495H13.7839V86.5644H13.9076V86.803H14.0224V86.9178H14.1373V87.1564H14.261V87.2713H14.3759V87.3861H14.4907V87.6247H14.6144V87.7396H14.7293V87.9781H14.8442V88.093H14.9679V88.2079H15.0827V88.4464H15.1976V88.5613H15.3213V88.7999H15.4361V88.9147H15.551V89.0296H15.6747V89.1445H15.7896V89.383H15.9044V89.4979H16.0281V89.6128H16.143V89.8513H16.2579V89.9662H16.3816V90.081H16.4964V90.1959H16.6113V90.4345H16.735V90.5493H16.8499V90.6642H16.9647V90.7791H17.0884V91.0176H17.2033V91.1325H17.3182V91.2474H17.4419V91.3622H17.5567V91.4771H17.6716V91.592H17.7953V91.7068H17.9102V91.9454H18.025V92.0603H18.1487V92.1751H18.2636V92.29H18.3785V92.4049H18.5022V92.5197H18.617V92.6346H18.7319V92.7495H18.8556V92.988H18.9705V93.1029H19.0853V93.2178H19.209V93.3326H19.3239V93.4475H19.4388V93.5624H19.5625V93.6772H19.6773V93.7921H19.7922V93.907H19.9159V94.0218H20.0308V94.1367H20.1456V94.2516H20.2693V94.3664H20.3842V94.4813H20.4991V94.5961H20.6228V94.711H20.7376V94.8259H20.8525V94.9408H20.9762V95.0556H21.0911V95.1705H21.2059V95.2853H21.3296V95.4002H21.4445V95.5151H21.5594V95.6299H21.6831V95.7448H21.7979V95.8597H22.0365V95.9745H22.1514V96.0894H22.2662V96.2043H22.3899V96.3191H22.5048V96.434H22.6197V96.5489H22.7434V96.6637H22.8582V96.7786H23.0968V96.8935H23.2117V97.0083H23.3265V97.1232H23.4502V97.2381H23.5651V97.3529H23.68V97.4678H23.8037V97.5826H24.0334V97.6975H24.1571V97.8124H24.272V97.9272H24.3868V98.0421H24.6254V98.157H24.7403V98.2718H24.864V98.3867H24.9788V98.5016H25.2174V98.6164H25.3323V98.7313H25.4471V98.8462H25.6857V98.961H25.8005V99.0759H25.9242V99.1908H26.0391V99.3056H26.2777V99.4205H26.3925V99.5354H26.6311V99.6502H26.746V99.7651H26.8608V99.88H27.0994V99.9948H27.2143V100.11H27.4528V100.225H27.5677V100.339H27.6914V100.454H27.9211V100.569H28.0448V100.684H28.2746V100.799H28.3983V100.914H28.628V101.029H28.7517V101.143H28.9814V101.258H29.1051V101.373H29.3349V101.488H29.5734V101.603H29.6883V101.718H29.9269V101.833H30.0417V101.948H30.2803V102.062H30.3952V102.177H30.6337V102.292H30.8723V102.407H31.102V102.522H31.2257V102.637H31.4555V102.752H31.694V102.866H31.9326V102.981H32.0475V103.096H32.286V103.211H32.5158V103.326H32.7543V103.441H32.9929V103.556H33.2226V103.671H33.4612V103.785H33.6998V103.9H33.9295V104.015H34.0532V104.13H34.2829V104.245H34.5215V104.36H34.7601V104.475H34.9898V104.589H35.3432V104.704H35.5818V104.819H35.8204V104.934H36.0501V105.049H36.4035V105.164H36.6421V105.279H36.8806V105.394H37.1104V105.508H37.4638V105.623H37.7024V105.738H38.0558V105.853H38.2944V105.968H38.6478V106.083H38.8775V106.198H39.231V106.312H39.4695V106.427H39.823V106.542H40.1764V106.657H40.5298V106.772H40.8833V106.887H41.2367V107.002H41.5901V107.116H41.9436V107.231H42.297V107.346H42.7653V107.461H43.1187V107.576H43.5959V107.691H43.9493V107.806H44.4176V107.921H44.8859V108.035H45.363V108.15H45.9462V108.265H46.4233V108.38H46.8916V108.495H47.5985V108.61H48.1905V108.725H48.8973V108.839H49.4805V108.954H50.4259V109.069H51.3714V109.184H52.308V109.299H53.7217V109.414H55.7274V109.529H59.5003V109.414H61.4972V109.299H62.6812V109.184H63.8564V109.069H64.8018V108.954H65.5087V108.839H66.2155V108.725H66.9224V108.61H67.6292V108.495H68.2124V108.38H68.6895V108.265H69.2727V108.15H69.7498V108.035H70.2181V107.921H70.6864V107.806H71.2784V107.691H71.6319V107.576H71.9853V107.461H72.3387V107.346H72.807V107.231H73.1605V107.116H73.5139V107.002H73.991V106.887H74.3445V106.772H74.6979V106.657H74.9276V106.542H75.2811V106.427H75.6345V106.312H75.8731V106.198H76.2265V106.083H76.5799V105.968H76.8185V105.853H77.1719V105.738H77.5253V105.623H77.7551V105.508H77.9936V105.394H78.3471V105.279H78.5856V105.164H78.8154V105.049H79.0539V104.934H79.4074V104.819H79.6459V104.704H79.8757V104.589H80.1142V104.475H80.3528V104.36H80.7062V104.245H80.936V104.13H81.1745V104.015H81.2894V103.9H81.528V103.785H81.7665V103.671H81.9963V103.556H82.2348V103.441H82.4734V103.326H82.7031V103.211H82.9417V103.096H83.1803V102.981H83.2951V102.866H83.5337V102.752H83.7634V102.637H84.002V102.522H84.1169V102.407H84.3554V102.292H84.594V102.177H84.7089V102.062H84.9474V101.948H85.1772V101.833H85.3009V101.718H85.5306V101.603H85.6543V101.488H85.884V101.373H86.1226V101.258H86.2374V101.143H86.476V101.029H86.7146V100.914H86.8295V100.799H86.9443V100.684H87.1829V100.569H87.2978V100.454H87.5363V100.339H87.6512V100.225H87.8897V100.11H88.0046V99.9948H88.1283V99.88H88.3581V99.7651H88.4817V99.6502H88.7115V99.5354H88.8352V99.4205H89.0649V99.3056H89.1886V99.1908H89.3035V99.0759H89.542V98.961H89.6569V98.8462H89.7718V98.7313H89.8955V98.6164H90.1252V98.5016H90.2489V98.3867H90.3638V98.2718H90.4786V98.157H90.7172V98.0421H90.8321V97.9272H90.9558V97.8124H91.0706V97.6975H91.3092V97.5826H91.4241V97.4678H91.5389V97.3529H91.6626V97.2381H91.8924V97.1232H92.0161V97.0083H92.1309V96.8935H92.2458V96.7786H92.3695V96.6637H92.4844V96.5489H92.5992V96.434H92.7229V96.3191H92.9527V96.2043H93.0764V96.0894H93.1912V95.9745H93.3061V95.8597H93.4298V95.7448H93.5447V95.6299H93.6595V95.5151H93.7832V95.4002H93.8981V95.2853H94.013V95.1705H94.1367V95.0556H94.3664V94.9408H94.4901V94.8259H94.605V94.711H94.7198V94.5961H94.8435V94.4813H94.9584V94.3664H95.0733V94.2516H95.197V94.1367H95.3118V93.8981H95.4267V93.7832H95.5504V93.6684H95.6653V93.5535H95.7801V93.4387H95.9038V93.3238H96.0187V93.2089H96.1336V93.0941H96.2573V92.9792H96.3721V92.8643H96.487V92.7495H96.6107V92.6346H96.7256V92.5197H96.8404V92.4049H96.9641V92.29H97.079V92.1751H97.1938V91.9366H97.3176V91.8217H97.4324V91.7068H97.5473V91.592H97.671V91.4771H97.7859V91.2385H97.9007V91.1237H98.0244V91.0088H98.1393V90.8939H98.2541V90.7791H98.3778V90.6642H98.4927V90.4257H98.6076V90.3108H98.7313V90.1959H98.8461V90.081H98.961V89.9662H99.0847V89.7276H99.1996V89.6128H99.3144V89.4979H99.4381V89.2593H99.553V89.1445H99.6679V89.0296H99.7916V88.791H99.9064V88.6761H100.021V88.5613H100.145V88.3227H100.26V88.2079H100.375V88.093H100.498V87.8544H100.613V87.7396H100.728V87.501H100.852V87.3861H100.967V87.2713H101.082V87.0327H101.205V86.9178H101.32V86.6793H101.435V86.5644H101.559V86.3258H101.674V86.211H101.788V85.9724H101.912V85.8575H102.027V85.619H102.142V85.5041H102.266V85.2655H102.38V85.1507H102.495V84.9121H102.619V84.7972H102.734V84.5587H102.849V84.3201H102.972V84.2052H103.087V83.9667H103.202V83.7281H103.326V83.6132H103.441V83.4984H103.556V83.3835H103.794V83.2686H104.033V83.1538H104.262V83.0389H104.501V82.924H105.8V83.0389H106.268V83.1538H106.383V83.2686H106.622V83.3835H106.737V83.4984H106.86V83.6132H106.975V83.7281H107.09V83.843H107.214V84.1964H107.329V84.435H107.443V84.7884H107.567V85.8487H107.443V86.2021H107.329V86.4407H107.214V86.6793H107.09V86.9178H106.975V87.0327H106.86V87.2713H106.737V87.5098H106.622V87.6247H106.507V87.8633H106.383V87.9781H106.268V88.2167H106.153V88.3316H106.03V88.5701H105.915V88.685H105.8V88.9236H105.676V89.0384H105.561V89.277H105.446V89.5156H105.323V89.6304H105.208V89.7453H105.093V89.9839H104.969V90.0987H104.854V90.3373H104.74V90.4521H104.616V90.567H104.501V90.8056H104.386V90.9205H104.262V91.0353H104.148V91.2739H104.033V91.3887H103.909V91.5036H103.794V91.7422H103.679V91.857H103.556V92.0956H103.441V92.2105H103.326V92.3253H103.202V92.5639H103.087V92.6788H102.972V92.7936H102.849V92.9085H102.734V93.1471H102.619V93.2619H102.495V93.3768H102.38V93.4917H102.266V93.6065H102.142V93.8451H102.027V93.96H101.912V94.0748H101.788V94.1897H101.674V94.3046H101.559V94.4194H101.435V94.658H101.32V94.7729H101.205V94.8877H101.082V95.0026H100.967V95.1175H100.852V95.356H100.728V95.4709H100.613V95.5858H100.498V95.7006H100.375V95.8155H100.26V95.9303H100.145V96.0452H100.021V96.1601H99.9064V96.275H99.7916V96.3898H99.6679V96.5047H99.553V96.6196H99.4381V96.7344H99.3144V96.8493H99.1996V96.9641H99.0847V97.2027H98.961V97.3176H98.8461V97.4324H98.7313V97.5473H98.6076V97.6622H98.4927V97.777H98.3778V97.8919H98.2541V98.0068H98.1393V98.1216H98.0244V98.2365H97.9007V98.3514H97.7859V98.4662H97.671V98.5811H97.5473V98.696H97.3176V98.8108H97.1938V98.9257H97.079V99.0406H96.9641V99.1554H96.8404V99.2703H96.7256V99.3852H96.6107V99.5H96.487V99.6149H96.3721V99.7298H96.2573V99.8446H96.1336V99.9595H95.9038V100.074H95.7801V100.189H95.6653V100.304H95.5504V100.419H95.4267V100.534H95.3118V100.649H95.197V100.764H95.0733V100.878H94.8435V100.993H94.7198V101.108H94.605V101.223H94.4901V101.338H94.2515V101.453H94.1367V101.568H94.013V101.682H93.8981V101.797H93.6595V101.912H93.5447V102.027H93.4298V102.142H93.3061V102.257H93.0764V102.372H92.9527V102.487H92.8378V102.601H92.7229V102.716H92.4844V102.831H92.3695V102.946H92.2458V103.061H92.0161V103.176H91.8924V103.291H91.7775V103.405H91.5389V103.52H91.4241V103.635H91.1855V103.75H91.0706V103.865H90.8321V103.98H90.7172V104.095H90.6023V104.21H90.3638V104.324H90.2489V104.439H90.0103V104.554H89.8955V104.669H89.7718V104.784H89.542V104.899H89.4183V105.014H89.1886V105.128H88.95V105.243H88.8352V105.358H88.5966V105.473H88.4817V105.588H88.2432V105.703H88.0046V105.818H87.8897V105.932H87.6512V106.047H87.4215V106.162H87.2978V106.277H87.068V106.392H86.9443V106.507H86.7146V106.622H86.476V106.737H86.3612V106.851H86.1226V106.966H85.884V107.081H85.6543V107.196H85.4157V107.311H85.1772V107.426H84.9474V107.541H84.8237V107.655H84.594V107.77H84.3554V107.885H84.1169V108H83.8871V108.115H83.6486V108.23H83.41V108.345H83.1803V108.46H82.9417V108.574H82.7031V108.689H82.4734V108.804H82.2348V108.919H81.9963V109.034H81.6428V109.149H81.4131V109.264H81.1745V109.378H80.936V109.493H80.7062V109.608H80.3528V109.723H80.1142V109.838H79.8757V109.953H79.6459V110.068H79.2925V110.183H78.9391V110.297H78.7005V110.412H78.3471V110.527H77.9936V110.642H77.7551V110.757H77.4016V110.872H77.0482V110.987H76.8185V111.101H76.4651V111.216H76.1116V111.331H75.7582V111.446H75.4048V111.561H75.0513V111.676H74.5742V111.791H74.2208V111.905H73.8673V112.02H73.5139V112.135H73.0456V112.25H72.6922V112.365H72.2239V112.48H71.7467V112.595H71.2784V112.71H70.6864V112.824H70.2181V112.939H69.7498V113.054H69.2727V113.169H68.6895V113.284H67.9827V113.399H67.2758V113.514H66.5689V113.628H65.8621V113.743H65.0315V113.858H63.8564V113.973H62.6812V114.088H61.4972V114.203H58.9083V114.318" fill="url(#paint0_linear_13209_46853)"/>
<defs>
<linearGradient id="paint0_linear_13209_46853" x1="25.6327" y1="7.65181" x2="88.1195" y2="103.308" gradientUnits="userSpaceOnUse">
<stop stop-color="#FFCF00"/>
<stop offset="1" stop-color="#FAAD19"/>
</linearGradient>
</defs>
</svg>
