<svg width="32" height="32" viewBox="0 0 32 32" fill="none" xmlns="http://www.w3.org/2000/svg">
<g clip-path="url(#clip0_20835_15621)">
<path d="M16 0C7.16375 0 0 7.16375 0 16C0 24.8363 7.16375 32 16 32C24.8363 32 32 24.8363 32 16C32 7.16375 24.8363 0 16 0Z" fill="#212121"/>
<path d="M17.1419 15.1931L21.6091 10.0002H20.5505L16.6716 14.5091L13.5735 10.0002H10.0002L14.6852 16.8185L10.0002 22.2639H11.0589L15.1552 17.5024L18.427 22.2639H22.0002L17.1416 15.1931H17.1419ZM11.4403 10.7972H13.0664L20.551 21.5032H18.925L11.4403 10.7972Z" fill="#D5DEFF"/>
</g>
<defs>
<clipPath id="clip0_20835_15621">
<rect width="32" height="32" fill="white"/>
</clipPath>
</defs>
</svg>
