<svg width="24" height="24" viewBox="0 0 24 24" fill="none" xmlns="http://www.w3.org/2000/svg">
<path d="M12.6689 11.6594L17.1696 18.0971H15.3225L11.6498 12.8439V12.8436L11.1106 12.0725L6.82031 5.93555H8.66742L12.1297 10.8883L12.6689 11.6594Z" fill="black"/>
<path d="M19.839 2H4.16104C2.96756 2 2 2.96756 2 4.16104V19.839C2 21.0324 2.96756 22 4.16104 22H19.839C21.0324 22 22 21.0324 22 19.839V4.16104C22 2.96756 21.0324 2 19.839 2ZM14.7566 18.9604L11.0401 13.5514L6.38696 18.9604H5.18435L10.5061 12.7746L5.18435 5.02934H9.24336L12.7627 10.1513L17.1689 5.02934H18.3715L13.2968 10.9283H13.2965L18.8156 18.9604H14.7566Z" fill="black"/>
</svg>
