<svg width="16" height="16" viewBox="0 0 16 16" fill="none" xmlns="http://www.w3.org/2000/svg">
<path d="M6.66699 8.66699C9.24398 8.66709 11.3327 9.86046 11.333 11.333C11.333 12.8057 9.24417 13.9999 6.66699 14C4.08966 14 2 12.8058 2 11.333C2.00031 9.8604 4.08985 8.66699 6.66699 8.66699ZM10.5908 8.68848C12.5196 8.83135 14 9.66286 14 10.667C13.9997 11.3853 13.2419 12.0156 12.1045 12.3682C12.2533 12.0401 12.333 11.6922 12.333 11.333C12.3329 10.2937 11.6645 9.35565 10.5908 8.68848ZM6.66699 2C8.1396 2.00018 9.33301 3.19434 9.33301 4.66699C9.33283 6.13949 8.13949 7.33283 6.66699 7.33301C5.19434 7.33301 4.00018 6.1396 4 4.66699C4 3.19423 5.19423 2 6.66699 2ZM10.084 3.33496C11.1494 3.37903 11.9998 4.25678 12 5.33301C12 6.43756 11.1045 7.33298 10 7.33301C9.75662 7.33301 9.52335 7.28957 9.30762 7.20996C9.94259 6.55074 10.3329 5.65455 10.333 4.66699C10.333 4.19726 10.2449 3.74773 10.084 3.33496Z" fill="#212121"/>
</svg>
