<svg width="12" height="14" viewBox="0 0 12 14" fill="none" xmlns="http://www.w3.org/2000/svg">
<path d="M11.085 5.185L2.5 0.225C2.2546 0.0798102 1.97513 0.0021801 1.69 0C1.24178 0 0.811926 0.178053 0.49499 0.49499C0.178053 0.811926 0 1.24178 0 1.69V12.335C5.70035e-05 12.6324 0.0797907 12.9244 0.230911 13.1806C0.382031 13.4368 0.59902 13.6478 0.859317 13.7918C1.11961 13.9357 1.41371 14.0073 1.71104 13.999C2.00836 13.9908 2.29806 13.9031 2.55 13.745L11.145 8.315C11.4122 8.14775 11.6316 7.91411 11.7817 7.63687C11.9318 7.35962 12.0075 7.04822 12.0015 6.73301C11.9954 6.41779 11.9078 6.10952 11.7472 5.83823C11.5866 5.56694 11.3585 5.34189 11.085 5.185Z" fill="white"/>
</svg>
