<svg width="16" height="16" viewBox="0 0 16 16" fill="none" xmlns="http://www.w3.org/2000/svg">
<g clip-path="url(#clip0_17234_11979)">
<path d="M7.99969 14.6667C11.6816 14.6667 14.6664 11.6819 14.6664 8.00004C14.6664 4.31814 11.6816 1.33337 7.99969 1.33337C4.31779 1.33337 1.33303 4.31814 1.33303 8.00004C1.33303 9.00767 1.55657 9.96308 1.95677 10.8194L1.55602 13.2912C1.44651 13.9667 2.03254 14.5501 2.70753 14.4376L5.1529 14.0301C6.01623 14.4384 6.98129 14.6667 7.99969 14.6667Z" stroke="#EEEEEE" stroke-linecap="square" stroke-linejoin="round"/>
<path d="M10.6663 10.0741V9.78331C10.6663 9.42209 10.4464 9.09726 10.111 8.9631L9.80001 8.83869C9.45231 8.69961 9.05604 8.85027 8.88856 9.18523C8.88856 9.18523 8.14782 9.03708 7.55523 8.44449C6.96264 7.85189 6.81449 7.11115 6.81449 7.11115C7.14944 6.94368 7.3001 6.54741 7.16102 6.1997L7.03661 5.88868C6.90246 5.5533 6.57763 5.33337 6.2164 5.33337H5.9256C5.59832 5.33337 5.33301 5.59869 5.33301 5.92597C5.33301 8.5442 7.45551 10.6667 10.0737 10.6667C10.401 10.6667 10.6663 10.4014 10.6663 10.0741Z" fill="#EEEEEE"/>
</g>
<defs>
<clipPath id="clip0_17234_11979">
<rect width="16" height="16" fill="white"/>
</clipPath>
</defs>
</svg>
