<svg width="16" height="16" viewBox="0 0 16 16" fill="none" xmlns="http://www.w3.org/2000/svg">
<g clip-path="url(#clip0_17234_16913)">
<path d="M8.00018 14.6668C11.6821 14.6668 14.6668 11.6821 14.6668 8.00016C14.6668 4.31826 11.6821 1.3335 8.00018 1.3335C4.31828 1.3335 1.33351 4.31826 1.33351 8.00016C1.33351 9.00779 1.55706 9.9632 1.95726 10.8195L1.55651 13.2913C1.44699 13.9668 2.03303 14.5502 2.70802 14.4377L5.15339 14.0302C6.01671 14.4385 6.98178 14.6668 8.00018 14.6668Z" stroke="#111111" stroke-linecap="square" stroke-linejoin="round"/>
<path d="M10.6668 10.0742V9.78343C10.6668 9.42221 10.4469 9.09738 10.1115 8.96322L9.8005 8.83882C9.4528 8.69973 9.05653 8.8504 8.88905 9.18535C8.88905 9.18535 8.14831 9.0372 7.55572 8.44461C6.96313 7.85201 6.81498 7.11127 6.81498 7.11127C7.14993 6.9438 7.30059 6.54753 7.16151 6.19983L7.0371 5.88881C6.90295 5.55342 6.57811 5.3335 6.21689 5.3335H5.92609C5.59881 5.3335 5.3335 5.59881 5.3335 5.92609C5.3335 8.54433 7.456 10.6668 10.0742 10.6668C10.4015 10.6668 10.6668 10.4015 10.6668 10.0742Z" fill="#111111"/>
</g>
<defs>
<clipPath id="clip0_17234_16913">
<rect width="16" height="16" fill="white"/>
</clipPath>
</defs>
</svg>
