<svg width="24" height="24" viewBox="0 0 24 24" fill="none" xmlns="http://www.w3.org/2000/svg">
<path d="M12.0025 2H11.9975C6.48375 2 2 6.485 2 12C2 14.1875 2.705 16.215 3.90375 17.8612L2.6575 21.5763L6.50125 20.3475C8.0825 21.395 9.96875 22 12.0025 22C17.5162 22 22 17.5138 22 12C22 6.48625 17.5162 2 12.0025 2Z" fill="#4CAF50"/>
<path d="M17.8187 16.1217C17.5775 16.803 16.62 17.368 15.8562 17.533C15.3337 17.6442 14.6512 17.733 12.3537 16.7805C9.415 15.563 7.5225 12.5767 7.375 12.383C7.23375 12.1892 6.1875 10.8017 6.1875 9.36672C6.1875 7.93172 6.91625 7.23297 7.21 6.93297C7.45125 6.68672 7.85 6.57422 8.2325 6.57422C8.35625 6.57422 8.4675 6.58047 8.5675 6.58547C8.86125 6.59797 9.00875 6.61547 9.2025 7.07922C9.44375 7.66047 10.0312 9.09547 10.1012 9.24297C10.1725 9.39047 10.2438 9.59047 10.1437 9.78422C10.05 9.98422 9.9675 10.073 9.82 10.243C9.6725 10.413 9.5325 10.543 9.385 10.7255C9.25 10.8842 9.0975 11.0542 9.2675 11.348C9.4375 11.6355 10.025 12.5942 10.89 13.3642C12.0062 14.358 12.9112 14.6755 13.235 14.8105C13.4762 14.9105 13.7637 14.8867 13.94 14.6992C14.1637 14.458 14.44 14.058 14.7212 13.6642C14.9212 13.3817 15.1737 13.3467 15.4387 13.4467C15.7087 13.5405 17.1375 14.2467 17.4312 14.393C17.725 14.5405 17.9187 14.6105 17.99 14.7342C18.06 14.858 18.06 15.4392 17.8187 16.1217Z" fill="#FAFAFA"/>
</svg>
