<svg width="16" height="16" viewBox="0 0 16 16" fill="none" xmlns="http://www.w3.org/2000/svg">
<path d="M8.00031 1.33331C11.6821 1.33348 14.6663 4.31851 14.6663 8.00031C14.6661 11.682 11.682 14.6662 8.00031 14.6663C6.98198 14.6663 6.0169 14.4378 5.15363 14.0296L2.24933 14.514C1.79948 14.5887 1.40876 14.1995 1.48175 13.7493L1.95734 10.8196C1.55718 9.96342 1.33336 9.00781 1.33331 8.00031C1.33331 4.31841 4.31841 1.33331 8.00031 1.33331ZM5.92609 5.33331C5.59881 5.33331 5.33331 5.59881 5.33331 5.92609C5.3334 8.54425 7.45634 10.6663 10.0745 10.6663C10.4014 10.6661 10.6661 10.4014 10.6663 10.0745V9.78351C10.6663 9.42239 10.4469 9.09742 10.1116 8.9632L9.80011 8.8382C9.45259 8.6994 9.05648 8.85023 8.88898 9.18488C8.88898 9.18488 8.14851 9.03698 7.55597 8.44464C6.96338 7.85205 6.81476 7.11066 6.81476 7.11066C7.14961 6.94314 7.3005 6.54718 7.16144 6.19952L7.03741 5.88898C6.90331 5.5537 6.57818 5.33347 6.2171 5.33331H5.92609Z" fill="white"/>
</svg>
