<svg width="40" height="40" viewBox="0 0 40 40" fill="none" xmlns="http://www.w3.org/2000/svg">
<rect width="40" height="40" rx="3.33333" fill="#EEEEEE"/>
<path d="M20.002 12H19.998C15.587 12 12 15.588 12 20C12 21.75 12.564 23.372 13.523 24.689L12.526 27.661L15.601 26.678C16.866 27.516 18.375 28 20.002 28C24.413 28 28 24.411 28 20C28 15.589 24.413 12 20.002 12Z" fill="#4CAF50"/>
<path d="M24.6575 23.2969C24.4645 23.8419 23.6985 24.2939 23.0875 24.4259C22.6695 24.5149 22.1235 24.5859 20.2855 23.8239C17.9345 22.8499 16.4205 20.4609 16.3025 20.3059C16.1895 20.1509 15.3525 19.0409 15.3525 17.8929C15.3525 16.7449 15.9355 16.1859 16.1705 15.9459C16.3635 15.7489 16.6825 15.6589 16.9885 15.6589C17.0875 15.6589 17.1765 15.6639 17.2565 15.6679C17.4915 15.6779 17.6095 15.6919 17.7645 16.0629C17.9575 16.5279 18.4275 17.6759 18.4835 17.7939C18.5405 17.9119 18.5975 18.0719 18.5175 18.2269C18.4425 18.3869 18.3765 18.4579 18.2585 18.5939C18.1405 18.7299 18.0285 18.8339 17.9105 18.9799C17.8025 19.1069 17.6805 19.2429 17.8165 19.4779C17.9525 19.7079 18.4225 20.4749 19.1145 21.0909C20.0075 21.8859 20.7315 22.1399 20.9905 22.2479C21.1835 22.3279 21.4135 22.3089 21.5545 22.1589C21.7335 21.9659 21.9545 21.6459 22.1795 21.3309C22.3395 21.1049 22.5415 21.0769 22.7535 21.1569C22.9695 21.2319 24.1125 21.7969 24.3475 21.9139C24.5825 22.0319 24.7375 22.0879 24.7945 22.1869C24.8505 22.2859 24.8505 22.7509 24.6575 23.2969Z" fill="#FAFAFA"/>
</svg>
