<svg width="40" height="41" viewBox="0 0 40 41" fill="none" xmlns="http://www.w3.org/2000/svg">
<rect y="0.5" width="40" height="40" rx="3.33333" fill="#EEEEEE"/>
<path d="M20.002 12.5H19.998C15.587 12.5 12 16.088 12 20.5C12 22.25 12.564 23.872 13.523 25.189L12.526 28.161L15.601 27.178C16.866 28.016 18.375 28.5 20.002 28.5C24.413 28.5 28 24.911 28 20.5C28 16.089 24.413 12.5 20.002 12.5Z" fill="#4CAF50"/>
<path d="M24.6575 23.7969C24.4645 24.3419 23.6985 24.7939 23.0875 24.9259C22.6695 25.0149 22.1235 25.0859 20.2855 24.3239C17.9345 23.3499 16.4205 20.9609 16.3025 20.8059C16.1895 20.6509 15.3525 19.5409 15.3525 18.3929C15.3525 17.2449 15.9355 16.6859 16.1705 16.4459C16.3635 16.2489 16.6825 16.1589 16.9885 16.1589C17.0875 16.1589 17.1765 16.1639 17.2565 16.1679C17.4915 16.1779 17.6095 16.1919 17.7645 16.5629C17.9575 17.0279 18.4275 18.1759 18.4835 18.2939C18.5405 18.4119 18.5975 18.5719 18.5175 18.7269C18.4425 18.8869 18.3765 18.9579 18.2585 19.0939C18.1405 19.2299 18.0285 19.3339 17.9105 19.4799C17.8025 19.6069 17.6805 19.7429 17.8165 19.9779C17.9525 20.2079 18.4225 20.9749 19.1145 21.5909C20.0075 22.3859 20.7315 22.6399 20.9905 22.7479C21.1835 22.8279 21.4135 22.8089 21.5545 22.6589C21.7335 22.4659 21.9545 22.1459 22.1795 21.8309C22.3395 21.6049 22.5415 21.5769 22.7535 21.6569C22.9695 21.7319 24.1125 22.2969 24.3475 22.4139C24.5825 22.5319 24.7375 22.5879 24.7945 22.6869C24.8505 22.7859 24.8505 23.2509 24.6575 23.7969Z" fill="#FAFAFA"/>
</svg>
