<svg width="24" height="24" viewBox="0 0 24 24" fill="none" xmlns="http://www.w3.org/2000/svg">
<path d="M20.844 3.70991H12.675V2.05391C12.675 1.68116 12.3728 1.37891 12 1.37891C11.6272 1.37891 11.325 1.68116 11.325 2.05391V3.70991H3.156C2.24175 3.70991 1.5 4.45166 1.5 5.36591V15.8037C1.5 16.7187 2.24175 17.4597 3.156 17.4597H7.7985L5.41425 21.6072C5.22825 21.9304 5.33925 22.3429 5.66325 22.5289C5.76975 22.5897 5.8845 22.6189 5.9985 22.6189C6.2325 22.6189 6.45975 22.4974 6.58425 22.2799L9.3555 17.4589H14.643L17.4142 22.2799C17.5387 22.4974 17.7668 22.6189 18 22.6189C18.114 22.6189 18.2303 22.5897 18.3353 22.5289C18.6593 22.3429 18.7703 21.9304 18.5842 21.6072L16.2 17.4597H20.8425C21.7575 17.4597 22.4985 16.7179 22.4985 15.8037V5.36591C22.5 4.45166 21.7582 3.70991 20.844 3.70991ZM9.387 11.6352H5.5725C5.19975 11.6352 4.8975 11.3329 4.8975 10.9602C4.8975 10.5874 5.19975 10.2852 5.5725 10.2852H9.387C9.75975 10.2852 10.062 10.5874 10.062 10.9602C10.062 11.3329 9.75975 11.6352 9.387 11.6352ZM14.0565 7.96466H5.5725C5.19975 7.96466 4.8975 7.66241 4.8975 7.28966C4.8975 6.91691 5.19975 6.61466 5.5725 6.61466H14.0573C14.43 6.61466 14.7323 6.91691 14.7323 7.28966C14.7323 7.66241 14.4293 7.96466 14.0565 7.96466Z" fill="#2E2A94"/>
</svg>
