<svg width="48" height="48" viewBox="0 0 48 48" fill="none" xmlns="http://www.w3.org/2000/svg">
<path d="M40.0099 8.28943L32.8012 4.1001L32.8615 25.3737L40.0703 29.5629L40.0099 8.28943Z" fill="url(#paint0_linear_18622_13016)"/>
<path d="M47.1094 4.18934L39.9004 0L32.7986 4.10027L40.0074 8.28961L47.1094 4.18934Z" fill="url(#paint1_linear_18622_13016)"/>
<path d="M40.0097 8.28972L40.0701 29.5632L47.1719 25.463L47.1117 4.18945L40.0097 8.28972Z" fill="#756DFF"/>
<path d="M29.3577 10.2893L22.1487 6.1001L22.2208 31.5196L29.4297 35.7089L29.3577 10.2893Z" fill="url(#paint2_linear_18622_13016)"/>
<path d="M36.4609 6.18885L29.2522 1.99951L22.1503 6.09968L29.3593 10.2889L36.4609 6.18885Z" fill="url(#paint3_linear_18622_13016)"/>
<path d="M29.3576 10.289L29.4296 35.7086L36.5312 31.6083L36.4592 6.18896L29.3576 10.289Z" fill="#756DFF"/>
<path d="M18.6951 11.473L11.4863 7.28369L11.5724 37.6652L18.7812 41.8545L18.6951 11.473Z" fill="url(#paint4_linear_18622_13016)"/>
<path d="M25.7812 7.37771L18.5724 3.18848L11.4789 7.28384L18.6877 11.4732L25.7812 7.37771Z" fill="url(#paint5_linear_18622_13016)"/>
<path d="M18.6953 11.4729L18.7814 41.8544L25.875 37.759L25.7888 7.37744L18.6953 11.4729Z" fill="#756DFF"/>
<path d="M8.02977 11.681L0.821019 7.4917L0.923955 43.8107L8.13281 48L8.02977 11.681Z" fill="url(#paint6_linear_18622_13016)"/>
<path d="M15.125 7.58533L7.91625 3.396L0.822583 7.49157L8.03134 11.6809L15.125 7.58533Z" fill="url(#paint7_linear_18622_13016)"/>
<path d="M8.02997 11.6814L8.13301 48.0004L15.2266 43.9048L15.1236 7.58582L8.02997 11.6814Z" fill="#756DFF"/>
<defs>
<linearGradient id="paint0_linear_18622_13016" x1="32.8145" y1="3.99859" x2="42.0345" y2="4.54177" gradientUnits="userSpaceOnUse">
<stop stop-color="#0F00FF"/>
<stop offset="1" stop-color="white"/>
</linearGradient>
<linearGradient id="paint1_linear_18622_13016" x1="52.6131" y1="11.4776" x2="39.1684" y2="3.74089" gradientUnits="userSpaceOnUse">
<stop stop-color="#B096ED"/>
<stop offset="0.0014" stop-color="#B096ED"/>
<stop offset="0.299" stop-color="#CDBCF3"/>
<stop offset="0.5742" stop-color="#E2D7F7"/>
<stop offset="0.8165" stop-color="#EFE8F9"/>
<stop offset="1" stop-color="#F3EEFA"/>
</linearGradient>
<linearGradient id="paint2_linear_18622_13016" x1="22.1621" y1="5.98206" x2="31.4053" y2="6.45113" gradientUnits="userSpaceOnUse">
<stop stop-color="#0F00FF"/>
<stop offset="1" stop-color="white"/>
</linearGradient>
<linearGradient id="paint3_linear_18622_13016" x1="41.9646" y1="13.4768" x2="28.5202" y2="5.7401" gradientUnits="userSpaceOnUse">
<stop stop-color="#B096ED"/>
<stop offset="0.0014" stop-color="#B096ED"/>
<stop offset="0.299" stop-color="#CDBCF3"/>
<stop offset="0.5742" stop-color="#E2D7F7"/>
<stop offset="0.8165" stop-color="#EFE8F9"/>
<stop offset="1" stop-color="#F3EEFA"/>
</linearGradient>
<linearGradient id="paint4_linear_18622_13016" x1="11.4997" y1="7.14587" x2="20.7669" y2="7.54943" gradientUnits="userSpaceOnUse">
<stop stop-color="#0F00FF"/>
<stop offset="1" stop-color="white"/>
</linearGradient>
<linearGradient id="paint5_linear_18622_13016" x1="31.2817" y1="14.6593" x2="17.845" y2="6.92712" gradientUnits="userSpaceOnUse">
<stop stop-color="#B096ED"/>
<stop offset="0.0014" stop-color="#B096ED"/>
<stop offset="0.299" stop-color="#CDBCF3"/>
<stop offset="0.5742" stop-color="#E2D7F7"/>
<stop offset="0.8165" stop-color="#EFE8F9"/>
<stop offset="1" stop-color="#F3EEFA"/>
</linearGradient>
<linearGradient id="paint6_linear_18622_13016" x1="1.54978" y1="10" x2="10.27" y2="9.77709" gradientUnits="userSpaceOnUse">
<stop stop-color="#0F00FF"/>
<stop offset="1" stop-color="white"/>
</linearGradient>
<linearGradient id="paint7_linear_18622_13016" x1="20.6255" y1="14.8671" x2="7.18857" y2="7.13495" gradientUnits="userSpaceOnUse">
<stop stop-color="#B096ED"/>
<stop offset="0.0014" stop-color="#B096ED"/>
<stop offset="0.299" stop-color="#CDBCF3"/>
<stop offset="0.5742" stop-color="#E2D7F7"/>
<stop offset="0.8165" stop-color="#EFE8F9"/>
<stop offset="1" stop-color="#F3EEFA"/>
</linearGradient>
</defs>
</svg>
