<svg width="39" height="40" viewBox="0 0 39 40" fill="none" xmlns="http://www.w3.org/2000/svg">
<rect width="39" height="40" rx="3.33333" fill="#EEEEEE"/>
<path fill-rule="evenodd" clip-rule="evenodd" d="M27.6389 30H12.3611C12.1619 30 12 29.8476 12 29.66V10.34C12 10.1524 12.1619 10 12.3611 10H27.6389C27.8381 10 28 10.1524 28 10.34V29.66C28 29.8476 27.8381 30 27.6389 30Z" fill="#2E2A94"/>
<path d="M20.85 23.5H15.75C15.5511 23.5 15.3603 23.421 15.2197 23.2803C15.079 23.1397 15 22.9489 15 22.75C15 22.5511 15.079 22.3603 15.2197 22.2197C15.3603 22.079 15.5511 22 15.75 22H20.85C21.0489 22 21.2397 22.079 21.3803 22.2197C21.521 22.3603 21.6 22.5511 21.6 22.75C21.6 22.9489 21.521 23.1397 21.3803 23.2803C21.2397 23.421 21.0489 23.5 20.85 23.5Z" fill="white"/>
<path d="M21.16 26.5H15.75C15.5511 26.5 15.3603 26.421 15.2197 26.2803C15.079 26.1397 15 25.9489 15 25.75C15 25.5511 15.079 25.3603 15.2197 25.2197C15.3603 25.079 15.5511 25 15.75 25H21.16C21.3589 25 21.5497 25.079 21.6903 25.2197C21.831 25.3603 21.91 25.5511 21.91 25.75C21.91 25.9489 21.831 26.1397 21.6903 26.2803C21.5497 26.421 21.3589 26.5 21.16 26.5Z" fill="white"/>
<path d="M22.75 19.5C22.5519 19.4974 22.3626 19.4176 22.2225 19.2775C22.0824 19.1374 22.0026 18.9481 22 18.75V13.75C22 13.5511 22.079 13.3603 22.2197 13.2197C22.3603 13.079 22.5511 13 22.75 13C22.9489 13 23.1397 13.079 23.2803 13.2197C23.421 13.3603 23.5 13.5511 23.5 13.75V18.75C23.4974 18.9481 23.4176 19.1374 23.2775 19.2775C23.1374 19.4176 22.9481 19.4974 22.75 19.5Z" fill="white"/>
<path d="M19.75 19.5C19.5519 19.4974 19.3626 19.4176 19.2225 19.2775C19.0824 19.1374 19.0026 18.9481 19 18.75V14.75C19 14.5511 19.079 14.3603 19.2197 14.2197C19.3603 14.079 19.5511 14 19.75 14C19.9489 14 20.1397 14.079 20.2803 14.2197C20.421 14.3603 20.5 14.5511 20.5 14.75V18.75C20.4974 18.9481 20.4176 19.1374 20.2775 19.2775C20.1374 19.4176 19.9481 19.4974 19.75 19.5Z" fill="white"/>
<path d="M16.75 19.5C16.5519 19.4974 16.3626 19.4176 16.2225 19.2775C16.0824 19.1374 16.0026 18.9481 16 18.75V15.75C16 15.5511 16.079 15.3603 16.2197 15.2197C16.3603 15.079 16.5511 15 16.75 15C16.9489 15 17.1397 15.079 17.2803 15.2197C17.421 15.3603 17.5 15.5511 17.5 15.75V18.75C17.4974 18.9481 17.4176 19.1374 17.2775 19.2775C17.1374 19.4176 16.9481 19.4974 16.75 19.5Z" fill="white"/>
</svg>
