<svg width="17" height="17" viewBox="0 0 17 17" fill="none" xmlns="http://www.w3.org/2000/svg">
<g clip-path="url(#clip0_15816_19284)">
<path d="M12.8198 2.17741C14.5705 2.1775 15.9897 3.59668 15.9897 5.34734V12.0075C15.9897 13.7581 14.5705 15.1773 12.8198 15.1774H3.68018C1.98419 15.1774 0.599078 13.8455 0.51416 12.1706L0.510254 12.0075V5.34734C0.510296 3.59666 1.9295 2.17746 3.68018 2.17741H12.8198ZM7.44385 6.04851C6.66604 5.6596 5.75079 6.22489 5.75049 7.09441V10.2594C5.75049 11.1292 6.66591 11.6953 7.44385 11.3063L10.6089 9.72331C11.4706 9.29192 11.4708 8.06171 10.6089 7.63054L7.44385 6.04851Z" fill="white"/>
</g>
<defs>
<clipPath id="clip0_15816_19284">
<rect width="16" height="16" fill="white" transform="translate(0.25 0.677414)"/>
</clipPath>
</defs>
</svg>
