<svg width="40" height="40" viewBox="0 0 40 40" fill="none" xmlns="http://www.w3.org/2000/svg">
<circle cx="20" cy="20" r="20" fill="#D5DEFF"/>
<path d="M20.0035 4.67002C20.3167 5.15067 20.6091 5.58883 20.8915 6.03366C22.5833 8.69762 24.2093 11.3991 25.4539 14.3079C25.8495 15.2326 26.2219 16.1739 26.2944 17.191C26.5093 20.2115 24.3968 23.0537 21.4504 23.7301C17.7535 24.5781 14.1691 22.0549 13.7084 18.2897C13.5635 17.106 13.8684 16.0039 14.289 14.9227C15.1404 12.7302 16.2758 10.6802 17.4795 8.66763C18.2408 7.39479 19.0522 6.15111 19.8419 4.89493C19.8802 4.83413 19.9252 4.77748 20.0035 4.66919V4.67002ZM24.6525 17.545C24.6517 17.5242 24.6517 17.5033 24.6492 17.4825C24.4542 16.0039 23.7845 14.7011 23.1173 13.3999C22.9782 13.1292 22.65 13.1201 22.42 13.3258C22.2176 13.5066 22.2301 13.7082 22.3342 13.9447C22.6916 14.7611 23.0381 15.5816 23.3805 16.4038C23.7345 17.2534 23.7137 18.1073 23.3472 18.9436C22.8974 19.9715 22.1202 20.6513 21.0514 20.9895C20.784 21.0745 20.6049 21.2144 20.6232 21.5159C20.6457 21.8866 20.9323 22.0449 21.3563 21.9266C23.1964 21.4168 24.6617 19.4676 24.6517 17.5442L24.6525 17.545Z" fill="#2E2A94"/>
<path d="M9.39602 21.1944C8.45972 21.4835 7.98491 22.0766 8.01989 22.9088C8.04572 23.5168 8.34477 23.9783 8.8679 24.2732C9.42768 24.5881 10.005 24.8713 10.5756 25.1679C10.8879 25.3303 11.2028 25.4894 11.516 25.651C11.7751 25.7843 12.0625 25.7177 12.1899 25.4936C12.3215 25.2628 12.2399 24.9854 11.9642 24.8363C11.4627 24.5648 10.9512 24.3115 10.4439 24.0516C10.0749 23.8625 9.70174 23.681 9.33688 23.4835C9.05782 23.3319 8.90038 23.0012 8.97285 22.7222C9.04782 22.4356 9.19777 22.1965 9.52514 22.1665C9.65092 22.1549 9.79753 22.1807 9.91082 22.2373C11.4585 23.0129 13.0071 23.7867 14.5432 24.5831C15.2029 24.9246 15.6644 25.4678 15.9085 26.1758C16.31 27.3412 16.7007 28.5099 17.0955 29.6778C17.1247 29.7636 17.1447 29.8535 17.1763 29.9685H15.0696C14.3216 29.9685 13.5736 29.9627 12.8264 29.9727C12.6223 29.9752 12.4906 29.931 12.374 29.7403C12.0816 29.2621 11.666 28.9047 11.1795 28.6257C10.1716 28.0484 9.16195 27.4736 8.16067 26.8855C7.51842 26.5082 7.13191 25.9284 6.96364 25.2112C6.25392 22.1757 5.55086 19.1386 4.84613 16.1022C4.79948 15.9007 4.74117 15.6991 4.72201 15.4941C4.66204 14.8427 4.98191 14.3529 5.54669 14.203C6.14313 14.0447 6.76288 14.3263 7.02278 14.8944C7.1519 15.1759 7.24686 15.4733 7.35599 15.7649C8.03322 17.5675 8.70962 19.3701 9.39519 21.1953L9.39602 21.1944Z" fill="#2E2A94"/>
<path d="M30.5903 21.2068C31.0518 19.9797 31.5033 18.7794 31.9539 17.579C32.2738 16.726 32.5895 15.8705 32.9111 15.0183C33.106 14.5027 33.4892 14.2053 34.0315 14.1612C34.4713 14.1254 34.8436 14.2945 35.0977 14.6768C35.301 14.9834 35.3234 15.3249 35.2451 15.6656C34.5229 18.8052 33.794 21.9423 33.066 25.0803C32.8594 25.9691 32.3679 26.6147 31.5424 27.0495C30.5611 27.566 29.599 28.1257 28.6702 28.7297C28.2554 28.9996 27.9438 29.4252 27.5815 29.7768C27.5065 29.8492 27.4157 29.9583 27.3316 29.9592C25.8363 29.97 24.3411 29.9675 22.8125 29.9675C22.8608 29.8084 22.8975 29.6726 22.9433 29.5393C23.3148 28.4731 23.6863 27.4077 24.062 26.3431C24.3261 25.5951 24.8109 25.0328 25.5173 24.6721C27.0225 23.9032 28.5303 23.141 30.038 22.3771C30.4404 22.1731 30.7919 22.2589 30.9701 22.5971C31.1318 22.9044 30.9768 23.3159 30.607 23.5084C29.7606 23.9482 28.9026 24.3655 28.0671 24.8237C27.9155 24.907 27.7739 25.1369 27.7647 25.3077C27.7572 25.4351 27.9505 25.6034 28.0913 25.6983C28.1662 25.7492 28.3362 25.715 28.4361 25.665C29.2708 25.2485 30.1038 24.827 30.9285 24.3914C31.7848 23.939 32.1647 23.1552 31.9073 22.3671C31.7057 21.7491 31.2867 21.35 30.5911 21.2076L30.5903 21.2068Z" fill="#2E2A94"/>
<path d="M24.7506 30.9756C25.7269 30.9756 26.7031 30.9739 27.6794 30.9756C28.2167 30.9772 28.4841 31.2379 28.4874 31.7761C28.4933 32.6899 28.4933 33.6037 28.4874 34.5175C28.4841 35.0656 28.2117 35.3289 27.6544 35.3289C25.7227 35.3305 23.7909 35.3305 21.8592 35.3289C21.2969 35.3289 21.0095 35.0481 21.007 34.4925C21.0029 33.5995 21.0029 32.7065 21.007 31.8127C21.0095 31.2513 21.2911 30.9747 21.8525 30.9739C22.818 30.9722 23.7843 30.9739 24.7497 30.9739L24.7506 30.9756ZM26.7889 33.6537C26.8822 33.6537 26.9755 33.6628 27.068 33.652C27.3571 33.6187 27.5653 33.3646 27.5187 33.0906C27.4712 32.809 27.2962 32.6632 27.0064 32.6491C26.4582 32.6224 26.235 32.7174 26.16 33.0181C26.0626 33.4079 26.3066 33.6562 26.7889 33.6537Z" fill="#2E2A94"/>
<path d="M15.2503 30.9756C16.2158 30.9756 17.1821 30.9739 18.1475 30.9756C18.6915 30.9764 18.9797 31.2547 18.983 31.7928C18.988 32.6966 18.988 33.5996 18.983 34.5034C18.9797 35.0432 18.6906 35.3297 18.1525 35.3297C16.2108 35.3314 14.2682 35.3314 12.3265 35.3297C11.775 35.3297 11.5059 35.0632 11.5034 34.5092C11.4984 33.6054 11.4993 32.7024 11.5034 31.7986C11.5059 31.2288 11.7708 30.9764 12.3531 30.9756C13.3186 30.9748 14.2849 30.9756 15.2503 30.9756ZM13.1703 33.6512C13.2486 33.6512 13.3436 33.6637 13.4344 33.6487C13.7709 33.5929 14.0066 33.2047 13.8692 32.929C13.7067 32.6025 13.3977 32.6541 13.1086 32.6466C12.8537 32.6399 12.6155 32.6799 12.5205 32.944C12.4764 33.0664 12.4789 33.238 12.5314 33.3563C12.6463 33.6137 12.8837 33.6862 13.1695 33.6512H13.1703Z" fill="#2E2A94"/>
<path d="M24.6508 17.5449C24.6608 19.4683 23.1955 21.4176 21.3554 21.9274C20.9314 22.0448 20.6449 21.8874 20.6224 21.5167C20.6041 21.216 20.7832 21.0752 21.0505 20.9903C22.1193 20.652 22.8957 19.9723 23.3463 18.9444C23.7128 18.108 23.7337 17.2542 23.3796 16.4045C23.0364 15.5824 22.6907 14.761 22.3334 13.9455C22.2301 13.7089 22.2168 13.5073 22.4192 13.3266C22.6491 13.1208 22.9773 13.13 23.1164 13.4007C23.7836 14.701 24.4534 16.0039 24.6483 17.4833C24.6508 17.5041 24.6508 17.5249 24.6516 17.5458L24.6508 17.5449Z" fill="#9DADFE"/>
<path d="M26.787 33.654C26.3046 33.6565 26.0604 33.4082 26.1579 33.0182C26.2329 32.7174 26.457 32.6224 27.0045 32.6491C27.2945 32.6632 27.4687 32.809 27.517 33.0907C27.5637 33.3649 27.3553 33.619 27.0662 33.6523C26.9745 33.6632 26.8804 33.654 26.787 33.654Z" fill="#9DADFE"/>
<path d="M13.1723 33.6516C12.8865 33.6866 12.649 33.6149 12.534 33.3566C12.4815 33.2391 12.479 33.0666 12.5232 32.9441C12.6182 32.68 12.8557 32.64 13.1115 32.6467C13.4006 32.6542 13.709 32.6025 13.8723 32.9291C14.0098 33.205 13.774 33.5924 13.4373 33.6491C13.3465 33.6641 13.2515 33.6516 13.1732 33.6516H13.1723Z" fill="#9DADFE"/>
</svg>
