<svg width="40" height="40" viewBox="0 0 40 40" fill="none" xmlns="http://www.w3.org/2000/svg">
<circle cx="20" cy="20" r="20" fill="#FFC1CE"/>
<path d="M32 11.5989C32 12.9188 30.92 13.9989 29.6 13.9989H22.536L22.696 14.2628C22.776 14.3828 22.816 14.5268 22.816 14.6708C22.816 14.9589 22.68 15.2148 22.44 15.3589C22.312 15.4389 22.168 15.4788 22.016 15.4788C21.736 15.4788 21.488 15.3348 21.336 15.1029L20.92 14.4148C20.84 14.2869 20.816 14.1429 20.816 13.9989H20.8V26.9109C22.176 27.2708 23.2 28.5109 23.2 29.9989C23.2 31.7668 21.768 33.1989 20 33.1989C18.232 33.1989 16.8 31.7668 16.8 29.9989C16.8 28.5109 17.824 27.2708 19.2 26.9109V13.9989H19.184C19.184 14.1429 19.16 14.2869 19.08 14.4148L18.664 15.1029C18.512 15.3349 18.256 15.4788 17.984 15.4788C17.832 15.4788 17.688 15.4388 17.56 15.3589C17.32 15.2148 17.176 14.9589 17.184 14.6788C17.184 14.5268 17.224 14.3828 17.304 14.2628L17.464 13.9989H10.4C9.08 13.9989 8 12.9188 8 11.5989C8 10.2789 9.08 9.19885 10.4 9.19885H29.6C30.92 9.19885 32 10.2789 32 11.5989Z" fill="#2E2A94"/>
<path d="M29.1984 23.5988C27.6547 23.5988 26.3984 24.855 26.3984 26.3988C26.3984 27.9425 27.6547 29.1988 29.1984 29.1988C30.7422 29.1988 31.9984 27.9425 31.9984 26.3988C31.9984 24.855 30.7422 23.5988 29.1984 23.5988ZM29.1984 27.5988C28.5367 27.5988 27.9984 27.0605 27.9984 26.3988C27.9984 25.737 28.5367 25.1988 29.1984 25.1988C29.8602 25.1988 30.3984 25.737 30.3984 26.3988C30.3984 27.0605 29.8602 27.5988 29.1984 27.5988Z" fill="#2E2A94"/>
<path d="M10.8 23.5989C9.25624 23.5989 8 24.8551 8 26.3989C8 27.9426 9.25624 29.1989 10.8 29.1989C12.3438 29.1989 13.6 27.9426 13.6 26.3989C13.6 24.8551 12.3438 23.5989 10.8 23.5989ZM10.8 27.5989C10.1383 27.5989 9.6 27.0606 9.6 26.3989C9.6 25.7372 10.1383 25.1989 10.8 25.1989C11.4617 25.1989 12 25.7372 12 26.3989C12 27.0606 11.4617 27.5989 10.8 27.5989Z" fill="#2E2A94"/>
<path d="M15.4641 18.7667C15.0961 18.5425 14.5922 18.6628 14.3683 19.0308L13.9441 19.7105C13.8723 19.8386 13.8242 19.9746 13.8242 20.1269C13.8242 20.3988 13.9684 20.6628 14.2082 20.8144C14.3363 20.8863 14.4801 20.9269 14.6242 20.9269C14.9043 20.9269 15.1601 20.791 15.3043 20.5503L15.7281 19.8706C15.8403 19.6863 15.8723 19.4706 15.8242 19.2628C15.7762 19.0542 15.6484 18.8784 15.4641 18.7667Z" fill="#2E2A94"/>
<path d="M13.7847 21.495C13.4245 21.2708 12.9124 21.3911 12.6886 21.7591L12.2726 22.4387C12.1925 22.5591 12.1527 22.7028 12.1527 22.8465C12.1445 23.1348 12.2886 23.3911 12.5285 23.5348C12.6566 23.6145 12.8008 23.6543 12.9445 23.6543C13.2246 23.6543 13.4804 23.5106 13.6328 23.2707L14.0488 22.5911C14.1605 22.4145 14.2007 22.1989 14.1445 21.9911C14.0964 21.7825 13.9686 21.6067 13.7847 21.495Z" fill="#2E2A94"/>
<path d="M16.984 17.8231L17.4 17.1426C17.5117 16.959 17.5519 16.7504 17.5039 16.5426C17.4559 16.3348 17.3277 16.159 17.1437 16.0387C16.7758 15.8145 16.2637 15.9426 16.0398 16.3027L15.6238 16.9824C15.5437 17.1105 15.5039 17.2543 15.5039 17.3988C15.5039 17.6785 15.6481 17.9347 15.8879 18.0863C16.0078 18.1668 16.152 18.2067 16.3039 18.2067C16.584 18.2067 16.8398 18.0629 16.984 17.8231Z" fill="#2E2A94"/>
<path d="M27.049 23.6543C27.2014 23.6543 27.3451 23.6145 27.4732 23.5348C27.7131 23.3911 27.849 23.1348 27.849 22.8465C27.849 22.7028 27.8092 22.559 27.7295 22.4387L27.3131 21.7591C27.0889 21.3911 26.5772 21.2708 26.217 21.495C26.0334 21.6067 25.9053 21.7825 25.8569 21.9911C25.8014 22.1989 25.8412 22.4145 25.9529 22.5911L26.3693 23.2707C26.5131 23.5106 26.7693 23.6543 27.049 23.6543Z" fill="#2E2A94"/>
<path d="M24.4945 17.3988C24.4945 17.2542 24.4539 17.1105 24.3742 16.9824L23.9586 16.3027C23.7344 15.9425 23.2226 15.8144 22.8539 16.0386C22.6703 16.1589 22.5422 16.3347 22.4945 16.5425C22.4461 16.7503 22.4781 16.9589 22.5906 17.1425L23.014 17.823C23.1586 18.0628 23.414 18.2066 23.6945 18.2066C23.8383 18.2066 23.982 18.1668 24.1102 18.0863C24.35 17.9347 24.4945 17.6785 24.4945 17.3988Z" fill="#2E2A94"/>
<path d="M26.1776 20.1271C26.1776 19.9826 26.13 19.8388 26.0573 19.7107L25.6339 19.031C25.4097 18.6631 24.8979 18.5427 24.5378 18.7669C24.3534 18.8787 24.2261 19.0545 24.1776 19.263C24.13 19.4708 24.162 19.6865 24.2737 19.8708L24.6893 20.5505C24.8417 20.7911 25.0979 20.9271 25.3776 20.9271C25.5214 20.9271 25.6659 20.8864 25.794 20.8146C26.0339 20.663 26.1776 20.4068 26.1776 20.1271Z" fill="#2E2A94"/>
</svg>
