<svg width="40" height="40" viewBox="0 0 40 40" fill="none" xmlns="http://www.w3.org/2000/svg">
<circle cx="20" cy="20" r="20" fill="#FFC1CE"/>
<path d="M19.0691 32.2963C18.9985 32.2198 19.0999 32.1561 19.084 32.0833C19.0819 31.8012 19.2567 31.5769 19.3353 31.3214C19.3635 31.23 19.4065 31.1434 19.4384 31.0525C19.5978 30.7109 19.7274 30.357 19.8688 30.0085C19.9118 29.9155 19.9426 29.8172 19.9825 29.7232C20.0924 29.4612 20.1934 29.1961 20.297 28.932C20.4543 28.5452 20.6115 28.159 20.7715 27.7732C20.8326 27.6308 20.8916 27.4874 20.942 27.3407C21.1514 26.8307 21.3618 26.3216 21.5679 25.8105C21.7093 25.5645 21.781 25.5464 21.9786 25.7409C22.1545 25.9136 22.3437 26.0693 22.5275 26.2313C22.5849 26.2871 22.6417 26.344 22.7299 26.2866C22.8654 26.2101 23.0004 26.1341 23.1454 26.0778C23.3866 25.9933 23.6055 25.8674 23.8096 25.7143C23.9897 25.6192 24.1459 25.4923 24.2957 25.3557C24.5274 25.1841 24.733 24.9838 24.9285 24.7728C25.0491 24.6103 25.1968 24.47 25.3095 24.301C25.4891 24.0832 25.6357 23.8436 25.7755 23.5997C25.9885 23.2554 26.158 22.8909 26.2882 22.5073C26.3105 22.4451 26.336 22.3846 26.3594 22.3229C26.4619 22.0089 26.5411 21.6896 26.5985 21.3644C26.6543 21.0435 26.7042 20.7221 26.6973 20.3948C26.7642 20.0106 26.684 19.6297 26.6697 19.2476C26.6043 18.7599 26.488 18.2849 26.311 17.8253C26.242 17.5947 26.1187 17.3891 26.013 17.175C25.9205 16.9757 25.8079 16.7887 25.6862 16.6059C25.5544 16.4077 25.4944 16.1947 25.556 15.9577C25.708 15.6809 25.903 15.4322 26.0836 15.1745C26.1761 15.0465 26.2568 14.9099 26.3567 14.7877C26.5507 14.5396 26.7217 14.2734 26.9396 14.0439C27.0836 13.8388 27.2695 13.672 27.4465 13.4972C27.7302 13.2809 28.0086 13.0546 28.3784 12.9993C28.8045 12.9106 29.1961 13.0105 29.5675 13.2187C30.3299 13.6629 30.8639 14.3249 31.3251 15.0576C31.4457 15.2526 31.5398 15.4609 31.6407 15.666C31.6747 15.7648 31.7162 15.8605 31.7603 15.955C31.9972 16.4938 32.1221 17.0639 32.2353 17.6377C32.2576 17.753 32.2815 17.8678 32.3033 17.9831C32.3707 18.5075 32.4122 19.0335 32.4558 19.5601C32.4929 19.8347 32.4759 20.11 32.4738 20.3852C32.5052 20.7215 32.4079 21.0509 32.4228 21.3857C32.3936 21.7215 32.3511 22.0557 32.2942 22.3883C32.2119 22.7974 32.1348 23.2081 32.0264 23.6114C31.9143 23.9296 31.8145 24.2527 31.705 24.5725C31.6816 24.6336 31.6614 24.6958 31.6391 24.7574C31.5148 25.0385 31.4053 25.326 31.2746 25.6038C31.0823 25.9843 30.8815 26.3604 30.6381 26.7116C30.6179 26.743 30.5961 26.7722 30.5738 26.802C30.3257 27.1463 30.0659 27.4815 29.7827 27.7977C29.7216 27.8561 29.661 27.9161 29.6031 27.9772C29.2439 28.3306 28.9012 28.7009 28.5086 29.0197C28.4831 29.0468 28.4565 29.0723 28.4294 29.0978C27.7297 29.6833 27.0071 30.2385 26.2765 30.7847C26.1835 30.8597 26.081 30.9218 25.9933 31.0036C25.8939 31.0945 25.9545 31.1769 26.0098 31.256C26.1389 31.4415 26.2451 31.6407 26.3716 31.8272C26.4178 31.9095 26.4917 31.9802 26.4885 32.0849C26.4959 32.1274 26.506 32.1678 26.5517 32.1869C26.5639 32.3771 26.4184 32.2847 26.3498 32.2857C25.6394 32.2958 24.9291 32.2963 24.2187 32.2995C22.5015 32.2985 20.7842 32.2979 19.067 32.2969L19.0691 32.2963Z" fill="#2E2A94"/>
<path d="M20.8209 7.6983C20.1844 7.7068 19.5473 7.69617 18.9103 7.69245C18.202 7.69245 17.4943 7.69245 16.7861 7.69245H13.3978C13.5057 7.85557 13.5774 7.96449 13.6491 8.07341C13.7124 8.31888 13.9238 8.46977 14.0386 8.6823C14.2203 8.95221 14.2171 8.97081 13.9462 9.14615C13.8287 9.22212 13.7049 9.28801 13.588 9.36452C13.4079 9.48619 13.2326 9.61477 13.0541 9.73804C12.8506 9.86927 12.662 10.0207 12.4686 10.1658C12.2034 10.3639 11.9627 10.5924 11.7082 10.8028C11.2779 11.2794 10.7609 11.672 10.3704 12.1869C10.1732 12.4526 9.97134 12.7145 9.76678 12.9743C9.63608 13.1932 9.50644 13.4127 9.36351 13.6241C9.28488 13.7506 9.21262 13.8807 9.13026 14.0045C8.93367 14.394 8.72805 14.7792 8.55909 15.1825C8.46558 15.411 8.37951 15.6421 8.29821 15.8748C8.26155 15.9874 8.22861 16.1011 8.18451 16.2111C8.09259 16.455 8.04318 16.7111 7.96933 16.9603C7.82268 17.4831 7.75414 18.0219 7.64788 18.5532C7.61706 18.7556 7.62928 18.9623 7.58146 19.1626C7.59687 19.5754 7.49432 19.983 7.52248 20.3969C7.52036 20.637 7.50601 20.8777 7.54108 21.1173C7.60271 21.646 7.63672 22.1779 7.75414 22.6986C7.82109 22.9716 7.90238 23.24 7.97464 23.5115C8.24667 24.2729 8.48152 25.0512 8.99212 25.7016C9.13611 25.8387 9.24078 26.0082 9.36989 26.1575C9.54416 26.3764 9.73331 26.5814 9.95115 26.7578C10.0808 26.8779 10.2338 26.9688 10.3688 27.0819C10.6397 27.2483 10.9224 27.3843 11.2189 27.4847H17.9279C17.9746 27.4751 18.0209 27.4645 18.0676 27.4512C18.1771 27.3832 18.1462 27.3115 18.0703 27.244C18.0049 27.1866 17.9236 27.1526 17.8487 27.109C17.6388 26.9943 17.4385 26.8652 17.2425 26.7297C17.0873 26.6346 16.9513 26.514 16.8004 26.4135C16.5071 26.2095 16.2526 25.9593 15.9763 25.734C15.8802 25.6437 15.7867 25.5502 15.6958 25.4545C15.4312 25.2117 15.2006 24.9375 14.9652 24.6676C14.8648 24.5502 14.7718 24.4269 14.6868 24.2978C14.4982 24.0561 14.3112 23.8127 14.1571 23.5465C13.7602 22.944 13.4345 22.3075 13.2161 21.6178C13.0493 21.0467 12.9032 20.4718 12.9324 19.8682C12.9335 19.8098 12.9345 19.7518 12.9319 19.6934C12.917 19.1281 13.0381 18.5861 13.2124 18.0527C13.4584 17.3264 13.8441 16.6797 14.3218 16.0847C14.4419 15.9316 14.5965 15.8084 14.7028 15.6431C14.8802 15.4152 15.1273 15.2632 15.3302 15.0629C15.471 14.9545 15.6007 14.8323 15.7495 14.7346C16.0465 14.5024 16.3642 14.3026 16.6894 14.114C16.7632 14.0704 16.8413 14.0354 16.9189 13.9992C17.0841 13.9169 17.251 13.8372 17.4136 13.7495C17.5538 13.6741 17.6548 13.7001 17.7573 13.8212C17.9109 14.0024 18.0506 14.1948 18.2105 14.3706C18.3471 14.521 18.4385 14.5045 18.5267 14.3217C18.5724 14.2272 18.6112 14.1283 18.6494 14.03C18.7185 13.8106 18.8061 13.5981 18.8981 13.3877C18.9485 13.2421 19.0075 13.0997 19.0686 12.9584C19.2381 12.5583 19.3752 12.1455 19.5447 11.7454C19.7413 11.2534 19.9166 10.7529 20.1174 10.2625C20.1679 10.1147 20.2269 9.97022 20.2891 9.8273C20.4495 9.42509 20.6095 9.02288 20.7625 8.61801C20.8305 8.38104 20.9883 8.17277 20.984 7.91295C21.051 7.7493 21.009 7.69564 20.8214 7.6983H20.8209Z" fill="#2E2A94"/>
<path d="M21.235 12.59C20.1974 12.8456 19.2697 14.2143 18.8037 15.0187C18.7851 15.0575 18.7665 15.0963 18.7479 15.1351C18.7405 15.1404 18.7341 15.1468 18.7277 15.1526C18.597 15.3853 18.5152 15.5511 18.4929 15.5968C18.384 15.8662 18.2894 16.1419 18.1746 16.4092C17.9425 17.0239 17.7092 17.6386 17.4717 18.2513C17.35 18.6317 17.2023 19.0025 17.0599 19.375C16.9712 19.6199 16.8857 19.8665 16.7847 20.1066C16.7422 20.2421 16.6981 20.3771 16.6338 20.5046C16.5206 20.7984 16.4122 21.0944 16.3012 21.3892C16.1615 21.7601 16.0525 22.1421 15.8799 22.5002C15.8055 22.6628 15.7943 22.8477 15.7045 23.005C15.6716 23.0953 15.6429 23.1872 15.6115 23.2781C15.5414 23.4848 15.5117 23.6909 15.5265 23.8965L19.7856 26.9639C19.8568 26.923 19.9275 26.8714 19.9981 26.8087C20.3121 26.4782 20.4577 26.0441 20.7005 25.6701C20.8196 25.4799 20.9147 25.2764 21.0204 25.0782C21.099 24.9082 21.2095 24.7562 21.293 24.5889C21.4688 24.2462 21.6075 23.8859 21.7802 23.5411C21.8854 23.2521 22.0134 22.9726 22.1319 22.6894C22.1542 22.6293 22.175 22.5688 22.2015 22.5103C22.3636 22.1251 22.5246 21.7389 22.6739 21.3483C22.8396 20.9047 23.0155 20.4647 23.1993 20.028C23.2844 19.7953 23.3752 19.5647 23.4735 19.3373C23.6207 18.9861 23.7328 18.6211 23.8906 18.2736C24 17.9952 24.092 17.7104 24.211 17.4357C24.2514 17.34 24.2832 17.2418 24.321 17.1451C24.4373 16.8279 24.5691 16.5165 24.6902 16.2004C24.8263 15.8114 24.992 15.4347 25.1567 15.057C25.1976 14.9661 25.2401 14.8763 25.2864 14.7876C25.432 14.4927 25.6078 14.2159 25.7975 13.9476C25.9654 13.7749 26.0881 13.5608 26.2789 13.4083C26.5047 13.2404 26.6949 13.0236 26.9606 12.9104C27.061 12.8424 27.2023 12.784 27.1635 12.6357C26.1907 12.674 21.2356 12.5874 21.2356 12.5874L21.235 12.59Z" fill="#2E2A94"/>
</svg>
