<svg width="40" height="40" viewBox="0 0 40 40" fill="none" xmlns="http://www.w3.org/2000/svg">
<circle cx="20" cy="20" r="20" fill="#D9CEFF"/>
<path d="M25.4422 13.4801C25.7493 13.7255 26.0258 14.0324 26.2715 14.3085L29.8959 10.7186C30.0802 10.8106 30.2952 10.8413 30.5102 10.8413C31.3702 10.8413 32.0766 10.1356 32.0766 9.2765C32.0766 8.41738 31.3702 7.71167 30.5102 7.71167C29.6501 7.71167 28.9437 8.41738 28.9437 9.2765C28.9437 9.49128 28.9744 9.70606 29.0666 9.89016L25.4422 13.4801Z" fill="#2E2A94"/>
<path d="M14.6704 26.1737C14.3632 25.9282 14.0868 25.6214 13.8411 25.3452L10.2167 28.9351C10.0324 28.8738 9.81741 28.8124 9.60241 28.8124C8.74239 28.8124 8.03595 29.5181 8.03595 30.3772C8.03595 31.2363 8.74239 31.9421 9.60241 31.9421C10.4624 31.9421 11.1689 31.2363 11.1689 30.3772C11.1689 30.1624 11.1382 29.9477 11.046 29.7636L14.6704 26.1737Z" fill="#2E2A94"/>
<path d="M30.3656 28.8724C30.1506 28.8724 29.9356 28.9031 29.7513 28.9952L26.1577 25.4053C25.912 25.7121 25.6048 25.9882 25.2977 26.2337L28.8913 29.8236C28.8299 30.0077 28.7685 30.2225 28.7685 30.4373C28.7685 31.2964 29.4749 32.0021 30.3349 32.0021C31.1949 32.0021 31.9014 31.2964 31.9014 30.4373C31.9014 29.5475 31.2256 28.8724 30.3656 28.8724Z" fill="#2E2A94"/>
<path d="M22.4726 8.15046L23.9162 7.29134C24.162 7.47544 24.4998 7.59817 24.8684 7.59817C25.7284 7.59817 26.4349 6.89246 26.4349 6.03334C26.4349 5.17421 25.7284 4.46851 24.8684 4.46851C24.0084 4.46851 23.3019 5.17421 23.3019 6.03334C23.3019 6.0947 23.3019 6.18675 23.3327 6.24812L21.5819 7.29134C21.3976 7.41407 21.3055 7.59817 21.3055 7.81295V11.0347C21.7048 11.096 22.1041 11.1881 22.5034 11.3108V8.15046H22.4726Z" fill="#2E2A94"/>
<path d="M14.6273 7.83539C14.9959 7.83539 15.3031 7.71266 15.5795 7.49788L17.0231 8.357V11.5173C17.3917 11.3946 17.791 11.3026 18.221 11.2412V8.01949C18.221 7.80471 18.0981 7.62061 17.9446 7.49788L16.1938 6.45466C16.1938 6.39329 16.2245 6.30125 16.2245 6.23988C16.2245 5.38076 15.5181 4.67505 14.6581 4.67505C13.798 4.67505 13.0916 5.38076 13.0916 6.23988C13.0609 7.12969 13.7673 7.83539 14.6273 7.83539Z" fill="#2E2A94"/>
<path d="M17.3495 31.758L15.9059 32.6171C15.6295 32.433 15.3223 32.3103 14.9538 32.3103C14.0937 32.3103 13.3873 33.016 13.3873 33.8751C13.3873 34.7342 14.0937 35.44 14.9538 35.44C15.8138 35.44 16.5202 34.7342 16.5202 33.8751C16.5202 33.8138 16.5202 33.7217 16.4895 33.6603L18.2403 32.6171C18.4245 32.4944 18.5167 32.3103 18.5167 32.0955V28.8738C18.1174 28.8124 17.7181 28.7204 17.3188 28.5977V31.758H17.3495Z" fill="#2E2A94"/>
<path d="M25.177 32.4018C24.8084 32.4018 24.5013 32.5246 24.2248 32.7394L22.812 31.8802V28.6892C22.4434 28.8119 22.0441 28.904 21.6141 28.9654V32.1871C21.6141 32.4018 21.7369 32.5859 21.8905 32.7087L23.6413 33.7519C23.6413 33.8133 23.6105 33.9053 23.6105 33.9667C23.6105 34.8258 24.317 35.5315 25.177 35.5315C26.037 35.5315 26.7435 34.8258 26.7435 33.9667C26.7435 33.1076 26.0677 32.4018 25.177 32.4018Z" fill="#2E2A94"/>
<path d="M33.9327 23.4299C33.8713 23.4299 33.7792 23.4606 33.7177 23.4606L32.6734 21.7117C32.5813 21.5276 32.3663 21.4355 32.182 21.4355H28.9569C28.8955 21.8344 28.8033 22.2333 28.6805 22.6322H31.8441L32.7041 24.0743C32.5198 24.3504 32.3663 24.6573 32.3663 25.0255C32.3663 25.8846 33.0727 26.5903 33.9327 26.5903C34.7927 26.5903 35.4992 25.8846 35.4992 25.0255C35.4992 24.1356 34.7927 23.4299 33.9327 23.4299Z" fill="#2E2A94"/>
<path d="M32.0264 14.9127C32.0264 15.2502 32.1493 15.5878 32.3643 15.8639L31.5043 17.2753H28.3406C28.4635 17.6435 28.5556 18.0424 28.6171 18.472H31.8421C32.0571 18.472 32.2414 18.3492 32.3336 18.1958L33.3779 16.4469C33.4393 16.4469 33.5315 16.4776 33.5929 16.4776C34.4529 16.4776 35.1593 15.7719 35.1593 14.9127C35.1593 14.0536 34.4529 13.3479 33.5929 13.3479C32.7329 13.3479 32.0264 14.0229 32.0264 14.9127Z" fill="#2E2A94"/>
<path d="M6.19953 16.7027C6.26096 16.7027 6.35311 16.672 6.41454 16.672L7.45884 18.4209C7.5817 18.605 7.76599 18.7277 7.981 18.7277H11.2061C11.2675 18.3289 11.3596 17.93 11.4825 17.5311H8.28814L7.42813 16.089C7.61242 15.8129 7.73528 15.506 7.73528 15.1378C7.73528 14.2787 7.02883 13.573 6.16882 13.573C5.3088 13.573 4.60236 14.2787 4.60236 15.1378C4.63307 15.997 5.33951 16.7027 6.19953 16.7027Z" fill="#2E2A94"/>
<path d="M7.66443 25.1087C7.66443 24.7712 7.54157 24.4337 7.35728 24.1575L8.2173 22.7154H11.3809C11.2581 22.3472 11.1659 21.9484 11.1045 21.5188H7.84872C7.63371 21.5188 7.44942 21.6415 7.32657 21.7949L6.28226 23.5439C6.22083 23.5439 6.12868 23.5132 6.06725 23.5132C5.20724 23.5132 4.50079 24.2189 4.50079 25.078C4.50079 25.9371 5.20724 26.6429 6.06725 26.6429C6.95799 26.6735 7.66443 25.9985 7.66443 25.1087Z" fill="#2E2A94"/>
<path d="M9.42269 11.2914C9.6377 11.2914 9.8527 11.2608 10.037 11.1687L13.6613 14.7586C13.9071 14.4518 14.2142 14.1756 14.4907 13.9302L10.8663 10.3096C10.9277 10.1255 10.9892 9.91071 10.9892 9.69593C10.9892 8.83681 10.2827 8.1311 9.42269 8.1311C8.56267 8.1311 7.85623 8.83681 7.85623 9.69593C7.85623 10.5551 8.56267 11.2914 9.42269 11.2914Z" fill="#2E2A94"/>
<ellipse cx="20" cy="20" rx="9.17016" ry="9.17025" fill="#2E2A94"/>
<path d="M24.0611 16.9788L23.624 18.5918H15.4544L15.8977 16.9788H24.0611ZM19.9548 26.509L15.6453 21.3253L15.6391 19.9586H17.7692C18.2782 19.9586 18.7029 19.8744 19.0436 19.7061C19.3884 19.5338 19.649 19.2937 19.8255 18.9858C20.0061 18.6739 20.0963 18.3086 20.0963 17.89C20.0963 17.262 19.9117 16.7572 19.5423 16.3755C19.1729 15.9938 18.5819 15.803 17.7692 15.803H15.4544L15.9346 13.9006H17.7692C18.8035 13.9006 19.6592 14.0607 20.3365 14.3808C21.0178 14.6969 21.5267 15.1442 21.8632 15.7229C22.2039 16.3016 22.3742 16.9788 22.3742 17.7546C22.3742 18.44 22.249 19.0515 21.9987 19.5892C21.7483 20.1268 21.3543 20.568 20.8167 20.9128C20.279 21.2576 19.5751 21.4874 18.705 21.6023L18.6311 21.6269L22.522 26.3982V26.509H19.9548ZM24.0734 13.9006L23.624 15.5382L16.9997 15.5136L17.4491 13.9006H24.0734Z" fill="white"/>
<path d="M24.0611 16.9788L23.624 18.5918H15.4544L15.8977 16.9788H24.0611ZM19.9548 26.509L15.6453 21.3253L15.6391 19.9586H17.7692C18.2782 19.9586 18.7029 19.8744 19.0436 19.7061C19.3884 19.5338 19.649 19.2937 19.8255 18.9858C20.0061 18.6739 20.0963 18.3086 20.0963 17.89C20.0963 17.262 19.9117 16.7572 19.5423 16.3755C19.1729 15.9938 18.5819 15.803 17.7692 15.803H15.4544L15.9346 13.9006H17.7692C18.8035 13.9006 19.6592 14.0607 20.3365 14.3808C21.0178 14.6969 21.5267 15.1442 21.8632 15.7229C22.2039 16.3016 22.3742 16.9788 22.3742 17.7546C22.3742 18.44 22.249 19.0515 21.9987 19.5892C21.7483 20.1268 21.3543 20.568 20.8167 20.9128C20.279 21.2576 19.5751 21.4874 18.705 21.6023L18.6311 21.6269L22.522 26.3982V26.509H19.9548ZM24.0734 13.9006L23.624 15.5382L16.9997 15.5136L17.4491 13.9006H24.0734Z" fill="#D9CEFF"/>
</svg>
