<svg width="40" height="40" viewBox="0 0 40 40" fill="none" xmlns="http://www.w3.org/2000/svg">
<circle cx="20" cy="20" r="20" fill="#FFE986"/>
<circle cx="20.0002" cy="19.9565" r="15.1565" fill="#2E2A94"/>
<path d="M29.4938 23.8569C29.7599 24.0843 30.0399 24.2974 30.2872 24.5436C30.5489 24.8043 30.5224 25.1894 30.6425 25.5131C30.6557 25.5497 30.6308 25.5779 30.5899 25.5945C30.4416 25.6548 30.0006 25.4655 29.9414 25.3112C29.8955 25.1905 29.8429 25.0715 29.8119 24.947C29.7477 24.6925 29.6205 24.4927 29.3698 24.3903C29.1856 24.3151 29.1408 24.1723 29.1612 23.9902C29.2326 23.3632 29.0699 22.7866 28.7778 22.2393C28.7451 22.1779 28.7446 22.0777 28.6555 22.0755C28.5847 22.0739 28.5692 22.1618 28.536 22.2133C28.2649 22.6361 28.2682 22.635 27.971 22.2415C27.727 21.9178 27.4714 21.6029 27.2313 21.277C27.1499 21.1663 27.0702 21.1458 26.9496 21.1978C26.6962 21.308 26.44 21.412 26.1838 21.5155C26.0936 21.552 26.0366 21.6162 25.9813 21.6937C25.5984 22.2238 25.2056 22.7468 24.8271 23.2802C24.6008 23.5995 24.5925 23.993 24.5134 24.3577C24.4143 24.8142 24.2793 25.2353 23.9529 25.5934C23.7719 25.792 23.7404 25.7173 23.6596 25.5364C23.2385 24.5945 22.8081 23.6571 22.3842 22.7163C22.3211 22.5758 22.2724 22.4413 22.0694 22.495C21.9748 22.5199 21.9255 22.4253 21.8718 22.366C21.5814 22.0451 21.2898 21.7247 21.0076 21.3965C20.903 21.2748 20.7907 21.2205 20.6269 21.2239C20.1848 21.2338 19.7399 21.199 19.3 21.2333C18.5851 21.2892 17.9162 21.1265 17.2505 20.8996C17.1255 20.857 17.048 20.7944 16.9899 20.6826C16.8411 20.3971 16.6762 20.1215 16.4986 19.8526C16.4067 19.7131 16.3365 19.7225 16.2103 19.8028C16.0936 19.8769 16.0277 19.9273 16.1091 20.0784C16.3497 20.5244 16.5816 20.9754 16.8057 21.4297C16.8699 21.5603 16.9584 21.5896 17.0718 21.5382C17.67 21.267 18.137 21.4004 18.5602 21.9123C18.8258 22.2332 18.8297 22.1818 18.6847 22.5769C18.464 23.1779 18.0595 23.4761 17.4492 23.6399C16.5882 23.8712 15.7494 24.1867 14.9061 24.4816C14.713 24.5491 14.6273 24.506 14.5493 24.3278C14.2516 23.6493 14.1149 22.9216 13.8908 22.2211C13.633 21.4148 13.452 20.5853 13.1543 19.7917C13.1621 19.6711 13.1898 19.5477 13.1245 19.4231C13.021 19.5089 13.1001 19.6467 12.9889 19.7076C12.8716 19.6368 12.9231 19.4624 12.7277 19.3518C12.9054 19.6323 12.7277 19.883 12.8395 20.1176C13.0675 21.1497 13.306 22.1796 13.5168 23.2149C13.5787 23.5204 13.706 23.7584 13.9284 23.9686C14.2234 24.247 14.505 24.5403 14.6068 24.9548C14.6378 25.0809 14.7219 25.0981 14.8381 25.0881C15.3516 25.0444 15.8661 25.0101 16.3796 24.9681C16.5058 24.9575 16.5904 24.9592 16.5152 25.1224C16.2789 25.6321 16.0576 26.149 15.8042 26.6503C15.7389 26.7793 15.5817 26.8645 15.4595 26.9602C14.915 27.3852 14.3705 27.8108 13.8194 28.2275C13.6894 28.3254 13.6579 28.4134 13.7038 28.575C13.8775 29.1859 14.0253 29.8041 14.1962 30.4156C14.2427 30.5816 14.2123 30.6945 14.0878 30.8063C13.8892 30.9844 13.7104 31.1875 13.5024 31.3535C13.3574 31.4692 13.3358 31.5865 13.41 31.7337C13.5406 31.9922 13.498 32.1703 13.2539 32.364C12.7571 32.7575 12.7892 32.7387 12.2115 32.4581C11.2875 32.0093 10.6567 31.2346 9.94733 30.5434C9.76252 30.3635 9.59929 30.1571 9.39899 29.9978C9.00227 29.6818 8.82244 29.2579 8.68964 28.7875C8.48215 28.0526 8.23592 27.3282 8.024 26.5939C7.89674 26.1528 7.67818 25.7561 7.43196 25.3825C7.21672 25.0555 7.21008 24.7146 7.26983 24.3776C7.33734 23.9991 7.34343 23.6676 7.08503 23.3527C6.93452 23.169 6.81667 22.9554 6.70435 22.7446C6.5472 22.4507 6.3624 22.1995 6.00883 22.1347C5.9048 22.1154 5.86109 22.0362 5.82181 21.9493C5.6962 21.6727 5.56894 21.3965 5.44223 21.1204C5.45883 21.0949 5.44555 21.0839 5.42176 21.0778C5.41125 21.0551 5.40018 21.0324 5.38967 21.0097C5.38247 20.9948 5.37473 20.9793 5.36698 20.9643C5.35923 20.9455 5.35093 20.9261 5.34319 20.9073C5.34817 20.8509 5.3205 20.811 5.27734 20.7795C5.2862 20.3772 5.29505 19.9754 5.3039 19.5731C5.3039 19.5349 5.3039 19.4962 5.3039 19.458C5.30556 19.4027 5.30722 19.3479 5.30944 19.2925C5.3111 19.1282 5.31331 18.9638 5.31497 18.7989C5.25466 18.1642 5.4118 17.5909 5.74379 17.0436C6.00551 16.612 6.21909 16.1499 6.43433 15.6922C6.61913 15.2977 6.96994 15.0641 7.27703 14.7946C7.53432 14.5683 7.73739 14.2662 8.0821 14.1461C8.07602 14.4582 8.29789 14.5799 8.53139 14.7033C8.82465 14.8583 9.1085 15.0298 9.39789 15.192C9.86101 15.4515 9.88038 15.4626 9.60151 15.9125C9.40619 16.2274 9.3669 16.5024 9.57107 16.8245C9.70774 17.0408 9.79517 17.2882 9.90638 17.5206C10.1653 18.0629 10.1736 18.0685 10.5117 17.587C10.6279 17.4216 10.707 17.3994 10.8824 17.5101C11.5602 17.9368 12.2491 18.3452 12.9352 18.758C13.011 18.8034 13.094 18.9229 13.1837 18.7707C13.4531 18.3125 13.7226 17.8543 14.0125 17.3612C13.6175 17.302 13.2661 17.2439 12.9131 17.198C12.346 17.1244 12.1335 16.8366 12.2497 16.2866C12.2818 16.1338 12.3161 15.9805 12.3415 15.8267C12.3531 15.7575 12.383 15.6635 12.2928 15.6314C12.1291 15.5727 11.9398 15.4814 11.7888 15.5489C11.6576 15.6076 11.76 15.7968 11.755 15.928C11.755 15.9368 11.7572 15.9462 11.7605 15.9551C11.8607 16.2179 11.6825 16.3137 11.4938 16.41C11.3882 16.4637 11.3583 16.4172 11.3572 16.3248C11.3522 15.9656 11.2709 15.5838 11.3655 15.2523C11.495 14.7996 11.3854 14.4001 11.2902 13.9834C11.2686 13.8893 11.2963 13.7261 11.1436 13.7327C10.9582 13.741 10.971 13.8987 10.9588 14.0431C10.9284 14.3951 11.0672 14.7116 11.1364 15.0431C11.1547 15.1322 11.3439 15.3774 11.0014 15.2423C10.9461 15.2207 10.925 15.286 10.9206 15.3276C10.9029 15.4919 10.779 15.5235 10.6334 15.5644C10.6179 15.3414 10.7729 15.1566 10.7319 14.9385C10.6661 14.586 10.6179 14.2307 10.5648 13.876C10.5477 13.7637 10.5123 13.6796 10.3739 13.7006C10.2162 13.725 10.0657 13.7371 9.96061 13.5722C9.92022 13.5091 9.85714 13.5534 9.82671 13.6004C9.62585 13.9164 9.25347 13.948 8.96741 14.1217C8.68024 14.2966 8.38366 14.3785 8.081 14.15C8.10257 13.9651 8.20106 13.7847 8.09096 13.5916C8.05167 13.5224 8.12194 13.4521 8.16731 13.3957C8.3986 13.109 8.63597 12.8274 8.86283 12.5374C8.95136 12.4245 9.01942 12.43 9.1002 12.5346C9.10574 12.5418 9.11238 12.5485 9.11846 12.5551C9.3811 12.8192 9.62548 12.8034 9.85161 12.5075C10.0253 12.2806 10.2068 12.0593 10.2505 11.7615C10.2705 11.6243 10.3651 11.5861 10.4918 11.6011C10.8979 11.6498 11.2725 11.5275 11.6455 11.3919C11.879 11.3067 12.1108 11.2414 12.3714 11.2629C12.5745 11.2796 12.6768 11.0831 12.7786 10.9365C12.8174 10.88 12.8312 10.8103 12.9092 10.8479C12.9734 10.8789 12.9352 10.9409 12.9203 10.9935C12.7858 11.4633 12.8019 11.4323 13.2396 11.6547C13.5937 11.8351 13.8277 11.7604 14.0729 11.4882C14.3595 11.1694 14.7191 10.9221 14.9089 10.5098C15.0013 10.3084 15.2846 10.2907 15.4501 10.1457C15.5331 10.0726 15.7483 10.0438 15.6548 9.89056C15.5646 9.7428 15.4229 9.89222 15.3173 9.94368C14.6843 10.2497 14.0817 10.6005 13.6396 11.1694C13.509 11.3371 13.3408 11.3653 13.1322 11.3C13.1925 11.1395 13.2274 10.9763 13.3314 10.8324C13.4432 10.6775 13.4985 10.5242 13.2014 10.5314C13.1494 10.5325 13.0963 10.5065 13.0199 10.4866C13.3209 10.123 13.5732 9.76771 14.0662 9.64319C14.536 9.52477 14.993 9.33219 15.4312 9.12135C15.891 8.9 16.3641 8.8679 16.8555 8.88063C16.9938 8.88451 17.0757 8.93099 17.1377 9.05218C17.26 9.28903 17.3977 9.51813 17.5211 9.75498C17.5626 9.83522 17.6451 9.91435 17.5184 10.0162C17.4132 10.1014 17.3374 10.1966 17.1908 10.1019C17.1216 10.0571 17.0442 10.0228 16.9667 9.99515C16.8937 9.96914 16.8101 9.86953 16.747 9.94313C16.6956 10.0029 16.6928 10.1158 16.6923 10.2049C16.6917 10.3205 16.8018 10.3001 16.8748 10.3299C17.2079 10.4661 17.4995 10.3936 17.8144 10.2303C18.7273 9.75664 19.6553 9.31172 20.5815 8.86458C20.7403 8.78822 20.8504 8.6792 20.9406 8.53643C21.1398 8.22155 21.3401 7.90778 21.5415 7.59457C21.6422 7.43796 21.7761 7.38483 21.9504 7.47393C22.0317 7.51543 22.1147 7.55583 22.1933 7.60231C22.7931 7.95869 23.4206 7.88122 24.0569 7.73181C24.172 7.70469 24.2185 7.63939 24.2223 7.54532C24.2345 7.22933 24.4204 7.07162 24.6993 6.98751C24.7341 6.97699 24.7651 6.95486 24.7983 6.93881C25.21 6.73627 25.2133 6.6931 24.831 6.41254C24.779 6.37436 24.707 6.34392 24.7502 6.26423C24.8194 6.13585 24.8929 5.96208 25.0523 5.9809C25.2869 6.00857 25.5796 5.92611 25.7096 6.25482C25.76 6.38155 25.9238 6.42084 26.0427 6.49057C26.3686 6.68148 26.6962 6.86908 27.0216 7.06055C27.1743 7.1502 27.2894 7.25534 27.1588 7.44903C27.0962 7.542 27.1931 7.58073 27.2385 7.625C27.3895 7.77276 27.5406 7.92328 27.7066 8.05388C27.867 8.1806 27.8886 8.31729 27.7945 8.48607C27.6988 8.65872 27.716 8.81201 27.8443 8.96751C27.9611 9.10918 28.0574 9.26745 28.1608 9.41963C28.3816 9.74391 28.4436 9.7832 28.7794 9.62493C28.9294 9.5541 28.993 9.60169 29.0788 9.68802C29.0705 9.69964 29.0622 9.71181 29.0533 9.72288C29.0179 9.72122 28.9831 9.71901 28.9476 9.71735C28.9371 9.7096 28.9266 9.7013 28.9167 9.693C28.9244 9.70351 28.9327 9.71403 28.9405 9.72454C28.9631 9.77656 29.0041 9.78818 29.0555 9.77822L29.0533 9.77601C29.1601 10.045 29.3892 10.1982 29.6077 10.362C29.6354 10.3526 29.6636 10.3438 29.6913 10.3344L29.7057 10.3416L29.7162 10.3299L29.7195 10.3311H29.7134C29.6338 10.4904 29.7798 10.5524 29.8595 10.616C30.3791 11.0322 30.4947 11.6819 30.8018 12.2197C30.8145 12.2424 30.8234 12.274 30.8195 12.2994C30.7282 12.9358 30.8837 13.4007 31.3358 13.8417C31.3883 13.8932 31.4403 13.9458 31.4957 13.9945C31.7487 14.221 31.7909 14.5032 31.6224 14.8411C31.3933 14.555 31.1703 14.2772 30.949 13.9983C30.8136 13.8279 30.6989 13.8378 30.6048 14.0282C30.5805 14.0769 30.5545 14.1245 30.5202 14.1898C30.3818 14.0586 30.394 13.8744 30.2811 13.7161C30.1561 13.9292 30.0371 14.1311 29.9187 14.3342C29.891 14.3818 29.865 14.4266 29.9126 14.4831C30.0299 14.6209 30.4438 14.674 30.6026 14.5716C30.6613 14.534 30.7199 14.4842 30.8118 14.5041C30.8416 14.7133 30.7487 14.9142 30.7653 15.1267C30.778 15.2905 30.7985 15.4039 30.9706 15.4648C31.6506 15.7055 31.8448 16.322 32.0313 16.9158C32.1287 17.2262 31.9505 17.5477 31.9057 17.8654C31.8609 18.1836 31.7613 18.4951 31.7242 18.8139C31.6971 19.0485 31.598 19.2046 31.4066 19.3274C31.2671 19.4165 31.1509 19.5454 31.0054 19.6196C30.5799 19.8365 30.399 20.2029 30.3049 20.6461C30.2745 20.7911 30.28 20.8808 30.3995 20.9804C30.6823 21.2161 30.9484 21.4729 31.2279 21.713C31.3341 21.8044 31.3595 21.8912 31.3031 22.0224C31.1139 22.4623 30.9285 22.9039 30.7531 23.3494C30.6956 23.4961 30.6292 23.5044 30.5113 23.4236C30.2911 23.2719 30.0676 23.1264 29.8451 22.9781C29.8302 22.9427 29.8125 22.9111 29.7649 22.9194C29.7256 22.8929 29.6863 22.8663 29.6476 22.8397C29.6105 22.754 29.5336 22.6959 29.4572 22.7401C29.3516 22.801 29.3925 22.9095 29.4323 23.003C29.4307 23.1308 29.4296 23.2587 29.4285 23.3859C29.424 23.4059 29.4196 23.4263 29.4152 23.4468C29.398 23.5791 29.3654 23.7141 29.4683 23.8297C29.4622 23.8563 29.4722 23.8663 29.4987 23.8596L29.4938 23.8569ZM14.4331 14.7327C14.5127 14.84 14.5625 14.9048 14.6101 14.9712C14.65 15.0276 14.6843 15.0962 14.5874 15.1211C14.4463 15.1571 14.2848 15.2556 14.163 15.1864C14.038 15.1156 14.163 14.9695 14.1929 14.8649C14.2333 14.7216 14.163 14.6331 14.0806 14.5473C13.986 14.4488 13.9113 14.5534 13.8388 14.5927C13.5478 14.7498 13.2639 14.9192 12.9718 15.0741C12.6968 15.2202 12.8943 15.4272 12.8926 15.6081C12.891 15.7719 12.9983 15.7935 13.1317 15.8007C13.4327 15.8162 13.7331 15.8472 14.0347 15.8605C14.1282 15.8643 14.2034 15.892 14.2427 15.9673C14.4463 16.3574 14.8303 16.3087 15.1734 16.3591C15.2702 16.3734 15.3516 16.3568 15.4097 16.2617C15.47 16.1621 15.4263 16.0862 15.3731 16.0088C15.2271 15.7968 15.086 15.5816 14.931 15.3763C14.8237 15.234 14.827 15.1261 14.9554 14.9944C15.0489 14.8981 15.1817 14.8146 15.2005 14.6259C14.9465 14.6613 14.7136 14.6934 14.4336 14.7327H14.4331ZM17.5405 17.5914C17.5322 17.4846 17.5405 17.3884 17.515 17.302C17.4387 17.0397 17.4923 16.8765 17.7978 16.8554C17.9638 16.8438 17.9367 16.7486 17.8675 16.6474C17.707 16.4111 17.551 16.172 17.385 15.9396C17.2932 15.8107 17.3208 15.7243 17.4697 15.7166C17.8094 15.6983 17.857 15.508 17.8238 15.2196C17.8039 15.0464 17.7524 15.0237 17.5991 15.0686C17.3607 15.1383 17.1161 15.1859 16.8754 15.2462C16.6098 15.3126 16.4361 15.6967 16.5589 15.9418C16.6784 16.1803 16.799 16.4188 16.9219 16.6557C16.9689 16.7464 16.9872 16.8195 16.8804 16.8898C16.7703 16.9622 16.5678 16.9634 16.5683 17.1178C16.5689 17.24 16.684 17.3618 16.7487 17.4835C16.7963 17.5732 16.8439 17.6628 16.8926 17.7514C17.032 18.0021 17.2749 17.9047 17.4641 17.8842C17.6213 17.867 17.5089 17.6833 17.5399 17.5926L17.5405 17.5914Z" fill="#FFE986"/>
</svg>
