<svg width="40" height="40" viewBox="0 0 40 40" fill="none" xmlns="http://www.w3.org/2000/svg">
<circle cx="20" cy="20" r="20" fill="#D9CEFF"/>
<mask id="mask0_22862_5011" style="mask-type:alpha" maskUnits="userSpaceOnUse" x="0" y="0" width="40" height="40">
<circle cx="20" cy="20" r="20" fill="#2E86C1"/>
</mask>
<g mask="url(#mask0_22862_5011)">
<rect x="2" y="30" width="36" height="10" fill="#2E2A94"/>
<path d="M13.0447 37V31.1818H16.9652V32.196H14.2749V33.5824H16.7635V34.5966H14.2749V35.9858H16.9766V37H13.0447ZM17.7216 32.196V31.1818H22.5V32.196H20.7188V37H19.5028V32.196H17.7216ZM23.2869 37V31.1818H27.1392V32.196H24.517V33.5824H26.8835V34.5966H24.517V37H23.2869Z" fill="#D9CEFF"/>
</g>
<path d="M15.8968 27.1193C15.2946 27.1193 14.7576 27.0085 14.286 26.7869C13.8173 26.5653 13.4451 26.2599 13.1696 25.8707C12.894 25.4815 12.7505 25.0355 12.7392 24.5327H14.5289C14.5488 24.8707 14.6909 25.1449 14.9551 25.3551C15.2193 25.5653 15.5332 25.6704 15.8968 25.6704C16.1866 25.6704 16.4423 25.6065 16.6639 25.4787C16.8883 25.348 17.063 25.1676 17.188 24.9375C17.3159 24.7045 17.3798 24.4375 17.3798 24.1364C17.3798 23.8295 17.3145 23.5596 17.1838 23.3267C17.0559 23.0937 16.8784 22.9119 16.6511 22.7812C16.4238 22.6506 16.1639 22.5838 15.8713 22.581C15.6156 22.581 15.367 22.6335 15.1255 22.7386C14.8869 22.8437 14.7008 22.9872 14.5673 23.169L12.9267 22.875L13.34 18.2727H18.6753V19.7812H14.8613L14.6355 21.9673H14.6866C14.84 21.7514 15.0716 21.5724 15.3812 21.4304C15.6909 21.2883 16.0375 21.2173 16.421 21.2173C16.9466 21.2173 17.4153 21.3409 17.8272 21.5881C18.2392 21.8352 18.5645 22.1747 18.8031 22.6065C19.0417 23.0355 19.1596 23.5298 19.1568 24.0895C19.1596 24.6775 19.0233 25.2003 18.7477 25.6577C18.475 26.1122 18.0929 26.4702 17.6014 26.7315C17.1128 26.99 16.5446 27.1193 15.8968 27.1193Z" fill="#2E2A94"/>
<path d="M23.8656 27.1918C23.1326 27.1889 22.502 27.0085 21.9735 26.6506C21.448 26.2926 21.0432 25.7741 20.7591 25.0952C20.4778 24.4162 20.3386 23.5994 20.3414 22.6449C20.3414 21.6932 20.4821 20.8821 20.7633 20.2116C21.0474 19.5412 21.4522 19.0312 21.9778 18.6818C22.5062 18.3295 23.1355 18.1534 23.8656 18.1534C24.5957 18.1534 25.2236 18.3295 25.7491 18.6818C26.2775 19.0341 26.6838 19.5454 26.9679 20.2159C27.252 20.8835 27.3926 21.6932 27.3897 22.6449C27.3897 23.6023 27.2477 24.4204 26.9636 25.0994C26.6824 25.7784 26.2789 26.2969 25.7534 26.6548C25.2278 27.0128 24.5985 27.1918 23.8656 27.1918ZM23.8656 25.6619C24.3656 25.6619 24.7647 25.4105 25.063 24.9077C25.3613 24.4048 25.5091 23.6506 25.5062 22.6449C25.5062 21.9829 25.438 21.4318 25.3017 20.9915C25.1682 20.5511 24.9778 20.2202 24.7307 19.9986C24.4863 19.777 24.198 19.6662 23.8656 19.6662C23.3684 19.6662 22.9707 19.9148 22.6724 20.4119C22.3741 20.9091 22.2235 21.6534 22.2207 22.6449C22.2207 23.3153 22.2875 23.875 22.421 24.3239C22.5574 24.7699 22.7491 25.1051 22.9963 25.3295C23.2434 25.5511 23.5332 25.6619 23.8656 25.6619Z" fill="#2E2A94"/>
<path d="M15.1505 7.72726V15H14.142L10.4452 9.66618H10.3778V15H9.28046V7.72726H10.2961L13.9964 13.0682H14.0638V7.72726H15.1505Z" fill="#2E2A94"/>
<path d="M16.6659 15V9.54544H17.7277V15H16.6659ZM17.2022 8.70382C17.0175 8.70382 16.8589 8.64227 16.7263 8.51917C16.5961 8.39369 16.531 8.24454 16.531 8.07172C16.531 7.89653 16.5961 7.74739 16.7263 7.62428C16.8589 7.49881 17.0175 7.43607 17.2022 7.43607C17.3868 7.43607 17.5442 7.49881 17.6745 7.62428C17.807 7.74739 17.8733 7.89653 17.8733 8.07172C17.8733 8.24454 17.807 8.39369 17.6745 8.51917C17.5442 8.64227 17.3868 8.70382 17.2022 8.70382Z" fill="#2E2A94"/>
<path d="M21.752 9.54544V10.3977H18.6697V9.54544H21.752ZM19.5148 15V8.91334C19.5148 8.57243 19.5894 8.28953 19.7386 8.06462C19.8877 7.83735 20.0854 7.66808 20.3316 7.55681C20.5778 7.44317 20.8453 7.38635 21.1341 7.38635C21.3472 7.38635 21.5295 7.40411 21.681 7.43962C21.8325 7.47276 21.945 7.50354 22.0184 7.53195L21.7698 8.39132C21.7201 8.37712 21.6562 8.36055 21.578 8.34161C21.4999 8.3203 21.4052 8.30965 21.294 8.30965C21.0359 8.30965 20.8512 8.37357 20.74 8.50141C20.6311 8.62925 20.5766 8.81391 20.5766 9.05539V15H19.5148Z" fill="#2E2A94"/>
<path d="M25.3937 9.54544V10.3977H22.4143V9.54544H25.3937ZM23.2133 8.23863H24.2751V13.3984C24.2751 13.6044 24.3059 13.7595 24.3675 13.8636C24.429 13.9654 24.5083 14.0353 24.6054 14.0731C24.7048 14.1087 24.8125 14.1264 24.9285 14.1264C25.0138 14.1264 25.0883 14.1205 25.1523 14.1087C25.2162 14.0968 25.2659 14.0873 25.3014 14.0802L25.4932 14.9574C25.4316 14.981 25.344 15.0047 25.2304 15.0284C25.1167 15.0544 24.9747 15.0686 24.8042 15.071C24.5249 15.0757 24.2645 15.026 24.023 14.9219C23.7815 14.8177 23.5862 14.6567 23.4371 14.4389C23.2879 14.2211 23.2133 13.9477 23.2133 13.6186V8.23863Z" fill="#2E2A94"/>
<path d="M27.2394 17.0454C27.0808 17.0454 26.9364 17.0324 26.8062 17.0064C26.676 16.9827 26.5789 16.9567 26.515 16.9283L26.7707 16.0582C26.9648 16.1103 27.1376 16.1328 27.2892 16.1257C27.4407 16.1186 27.5744 16.0618 27.6904 15.9552C27.8088 15.8487 27.913 15.6747 28.0029 15.4332L28.1343 15.071L26.1386 9.54544H27.275L28.6563 13.7784H28.7132L30.0946 9.54544H31.2345L28.9866 15.728C28.8824 16.0121 28.7499 16.2524 28.5889 16.4489C28.4279 16.6477 28.2361 16.7969 28.0136 16.8963C27.791 16.9957 27.533 17.0454 27.2394 17.0454Z" fill="#2E2A94"/>
</svg>
