<svg width="40" height="40" viewBox="0 0 40 40" fill="none" xmlns="http://www.w3.org/2000/svg">
<circle cx="20" cy="20" r="20" fill="#FFC1CE"/>
<path d="M20 6.59961C20.1917 6.59961 20.2934 6.66804 20.3135 6.69141L29.3262 17.3623C29.2756 17.3817 29.2041 17.4004 29.1074 17.4004H10.8926C10.7953 17.4004 10.7235 17.3819 10.6729 17.3623L19.6865 6.69141C19.7066 6.66803 19.8083 6.59961 20 6.59961Z" stroke="#2E2A94" stroke-width="1.2"/>
<path d="M24.0332 32.4004H15.9668L20 27.624L24.0332 32.4004Z" stroke="#2E2A94" stroke-width="1.2"/>
<path d="M19.421 18.2285C19.6783 17.9238 20.3217 17.9238 20.579 18.2285L27.4094 26.3146C27.6668 26.6192 27.3451 27 26.8305 27H13.1695C12.6549 27 12.3332 26.6192 12.5906 26.3146L19.421 18.2285Z" fill="#2E2A94"/>
</svg>
