<svg width="40" height="40" viewBox="0 0 40 40" fill="none" xmlns="http://www.w3.org/2000/svg">
<g clip-path="url(#clip0_22862_5017)">
<circle cx="20" cy="20" r="20" fill="#D9CEFF"/>
<mask id="mask0_22862_5017" style="mask-type:alpha" maskUnits="userSpaceOnUse" x="0" y="0" width="40" height="40">
<circle cx="20" cy="20" r="20" fill="#2E86C1"/>
</mask>
<g mask="url(#mask0_22862_5017)">
<rect x="2" y="30" width="36" height="10" fill="#2E2A94"/>
<path d="M13.0447 37V31.1818H16.9652V32.196H14.2749V33.5824H16.7635V34.5966H14.2749V35.9858H16.9766V37H13.0447ZM17.7216 32.196V31.1818H22.5V32.196H20.7188V37H19.5028V32.196H17.7216ZM23.2869 37V31.1818H27.1392V32.196H24.517V33.5824H26.8835V34.5966H24.517V37H23.2869Z" fill="#D9CEFF"/>
</g>
<path d="M15.8968 27.1193C15.2946 27.1193 14.7576 27.0085 14.286 26.7869C13.8173 26.5653 13.4451 26.26 13.1696 25.8707C12.894 25.4815 12.7505 25.0355 12.7392 24.5327H14.5289C14.5488 24.8707 14.6909 25.1449 14.9551 25.3551C15.2193 25.5653 15.5332 25.6705 15.8968 25.6705C16.1866 25.6705 16.4423 25.6065 16.6639 25.4787C16.8883 25.348 17.063 25.1676 17.188 24.9375C17.3159 24.7046 17.3798 24.4375 17.3798 24.1364C17.3798 23.8296 17.3145 23.5597 17.1838 23.3267C17.0559 23.0938 16.8784 22.9119 16.6511 22.7813C16.4238 22.6506 16.1639 22.5838 15.8713 22.581C15.6156 22.581 15.367 22.6335 15.1255 22.7386C14.8869 22.8438 14.7008 22.9872 14.5673 23.169L12.9267 22.875L13.34 18.2727H18.6753V19.7813H14.8613L14.6355 21.9673H14.6866C14.84 21.7514 15.0716 21.5725 15.3812 21.4304C15.6909 21.2884 16.0375 21.2173 16.421 21.2173C16.9466 21.2173 17.4153 21.3409 17.8272 21.5881C18.2392 21.8352 18.5645 22.1747 18.8031 22.6065C19.0417 23.0355 19.1596 23.5298 19.1568 24.0895C19.1596 24.6776 19.0233 25.2003 18.7477 25.6577C18.475 26.1122 18.0929 26.4702 17.6014 26.7315C17.1128 26.9901 16.5446 27.1193 15.8968 27.1193Z" fill="#2E2A94"/>
<path d="M23.8656 27.1918C23.1326 27.1889 22.502 27.0085 21.9735 26.6506C21.448 26.2926 21.0432 25.7742 20.7591 25.0952C20.4778 24.4162 20.3386 23.5994 20.3414 22.6449C20.3414 21.6932 20.4821 20.8821 20.7633 20.2117C21.0474 19.5412 21.4522 19.0313 21.9778 18.6818C22.5062 18.3296 23.1355 18.1534 23.8656 18.1534C24.5957 18.1534 25.2235 18.3296 25.7491 18.6818C26.2775 19.0341 26.6838 19.5455 26.9679 20.2159C27.252 20.8835 27.3926 21.6932 27.3897 22.6449C27.3897 23.6023 27.2477 24.4205 26.9636 25.0994C26.6824 25.7784 26.2789 26.2969 25.7534 26.6548C25.2278 27.0128 24.5985 27.1918 23.8656 27.1918ZM23.8656 25.6619C24.3656 25.6619 24.7647 25.4105 25.063 24.9077C25.3613 24.4048 25.5091 23.6506 25.5062 22.6449C25.5062 21.983 25.438 21.4318 25.3017 20.9915C25.1682 20.5511 24.9778 20.2202 24.7307 19.9986C24.4863 19.777 24.198 19.6662 23.8656 19.6662C23.3684 19.6662 22.9707 19.9148 22.6724 20.4119C22.3741 20.9091 22.2235 21.6534 22.2207 22.6449C22.2207 23.3153 22.2875 23.875 22.421 24.3239C22.5574 24.7699 22.7491 25.1051 22.9963 25.3296C23.2434 25.5511 23.5332 25.6619 23.8656 25.6619Z" fill="#2E2A94"/>
<path d="M15.9483 7.72728V15H14.9398L11.2431 9.6662H11.1756V15H10.0783V7.72728H11.0939L14.7942 13.0682H14.8617V7.72728H15.9483Z" fill="#2E2A94"/>
<path d="M19.8146 15.1101C19.2772 15.1101 18.8144 14.9953 18.4261 14.7656C18.0403 14.5336 17.742 14.2081 17.5313 13.7891C17.3229 13.3677 17.2188 12.8741 17.2188 12.3082C17.2188 11.7495 17.3229 11.2571 17.5313 10.831C17.742 10.4048 18.0355 10.0722 18.4119 9.8331C18.7907 9.59399 19.2334 9.47444 19.7401 9.47444C20.0478 9.47444 20.3461 9.52534 20.6349 9.62714C20.9238 9.72894 21.183 9.88874 21.4126 10.1065C21.6423 10.3243 21.8234 10.6073 21.956 10.9553C22.0885 11.3009 22.1548 11.7211 22.1548 12.2159V12.5923H17.8189V11.7969H21.1144C21.1144 11.5175 21.0575 11.2701 20.9439 11.0547C20.8303 10.8369 20.6705 10.6653 20.4645 10.5398C20.2609 10.4143 20.0218 10.3516 19.7472 10.3516C19.4489 10.3516 19.1885 10.425 18.9659 10.5717C18.7457 10.7162 18.5753 10.9055 18.4546 11.1399C18.3362 11.3719 18.277 11.6241 18.277 11.8963V12.5178C18.277 12.8823 18.3409 13.1925 18.4688 13.4482C18.599 13.7038 18.7801 13.8992 19.0121 14.0341C19.2441 14.1667 19.5152 14.233 19.8253 14.233C20.0265 14.233 20.21 14.2046 20.3757 14.1477C20.5414 14.0885 20.6847 14.001 20.8054 13.885C20.9261 13.7689 21.0185 13.6257 21.0824 13.4553L22.0874 13.6364C22.0069 13.9323 21.8625 14.1915 21.6541 14.4141C21.4482 14.6342 21.1889 14.8059 20.8764 14.929C20.5663 15.0497 20.2124 15.1101 19.8146 15.1101Z" fill="#2E2A94"/>
<path d="M24.044 9.54546L25.2479 11.669L26.4624 9.54546H27.6236L25.9226 12.2727L27.6378 15H26.4766L25.2479 12.9617L24.0227 15H22.858L24.5554 12.2727L22.8793 9.54546H24.044Z" fill="#2E2A94"/>
<path d="M31.2599 9.54546V10.3977H28.2805V9.54546H31.2599ZM29.0796 8.23864H30.1413V13.3984C30.1413 13.6044 30.1721 13.7595 30.2337 13.8636C30.2952 13.9654 30.3745 14.0353 30.4716 14.0732C30.571 14.1087 30.6787 14.1264 30.7948 14.1264C30.88 14.1264 30.9545 14.1205 31.0185 14.1087C31.0824 14.0968 31.1321 14.0874 31.1676 14.0803L31.3594 14.9574C31.2978 14.9811 31.2102 15.0047 31.0966 15.0284C30.983 15.0545 30.8409 15.0687 30.6705 15.071C30.3911 15.0758 30.1307 15.026 29.8892 14.9219C29.6477 14.8177 29.4524 14.6567 29.3033 14.4389C29.1541 14.2211 29.0796 13.9477 29.0796 13.6186V8.23864Z" fill="#2E2A94"/>
</g>
<defs>
<clipPath id="clip0_22862_5017">
<rect width="40" height="40" fill="white"/>
</clipPath>
</defs>
</svg>
