<svg width="40" height="40" viewBox="0 0 40 40" fill="none" xmlns="http://www.w3.org/2000/svg">
<circle cx="20" cy="20" r="20" fill="#D9CEFF"/>
<path d="M12.3761 31.1392C11.6734 31.1392 11.047 31.0099 10.4968 30.7514C9.94993 30.4929 9.51574 30.1366 9.19425 29.6825C8.87275 29.2285 8.70537 28.7081 8.69212 28.1214H10.7802C10.8034 28.5159 10.9691 28.8357 11.2773 29.081C11.5856 29.3262 11.9518 29.4489 12.3761 29.4489C12.7141 29.4489 13.0124 29.3743 13.271 29.2251C13.5328 29.0727 13.7366 28.8622 13.8825 28.5938C14.0316 28.322 14.1062 28.0104 14.1062 27.6591C14.1062 27.3011 14.0299 26.9863 13.8775 26.7145C13.7283 26.4427 13.5212 26.2306 13.256 26.0781C12.9909 25.9257 12.6876 25.8478 12.3462 25.8445C12.0479 25.8445 11.7579 25.9058 11.4762 26.0284C11.1978 26.151 10.9807 26.3184 10.8249 26.5305L8.91087 26.1875L9.39311 20.8182H15.6175V22.5781H11.168L10.9045 25.1286H10.9641C11.1431 24.8767 11.4132 24.6679 11.7745 24.5021C12.1358 24.3364 12.5401 24.2536 12.9876 24.2536C13.6007 24.2536 14.1476 24.3977 14.6282 24.6861C15.1088 24.9744 15.4883 25.3705 15.7667 25.8743C16.0451 26.3748 16.1826 26.9515 16.1793 27.6044C16.1826 28.2905 16.0236 28.9003 15.7021 29.4339C15.3839 29.9643 14.9381 30.3819 14.3647 30.6868C13.7946 30.9884 13.1317 31.1392 12.3761 31.1392Z" fill="#2E2A94"/>
<path d="M17.1438 20.8182H19.555L21.8768 25.2031H21.9762L24.2979 20.8182H26.7092L22.9954 27.4006V31H20.8576V27.4006L17.1438 20.8182Z" fill="#2E2A94"/>
<path d="M27.2846 31V23.3636H29.3379V24.696H29.4174C29.5566 24.2221 29.7903 23.8641 30.1184 23.6222C30.4466 23.3769 30.8244 23.2543 31.252 23.2543C31.358 23.2543 31.4724 23.2609 31.595 23.2741C31.7176 23.2874 31.8253 23.3056 31.9181 23.3288V25.2081C31.8187 25.1783 31.6812 25.1518 31.5055 25.1286C31.3298 25.1054 31.1691 25.0938 31.0233 25.0938C30.7117 25.0938 30.4333 25.1617 30.188 25.2976C29.9461 25.4302 29.7538 25.6158 29.6113 25.8544C29.4721 26.093 29.4025 26.3681 29.4025 26.6797V31H27.2846Z" fill="#2E2A94"/>
<path d="M9.73926 11.5273C9.66374 11.2904 9.56217 11.0781 9.43457 10.8906C9.30957 10.7005 9.15983 10.5391 8.98535 10.4063C8.81087 10.2708 8.61165 10.168 8.3877 10.0977C8.16634 10.0273 7.92285 9.99219 7.65723 9.99219C7.20671 9.99219 6.80046 10.1081 6.43848 10.3398C6.0765 10.5716 5.79004 10.9115 5.5791 11.3594C5.37077 11.8047 5.2666 12.3503 5.2666 12.9961C5.2666 13.6445 5.37207 14.1927 5.58301 14.6406C5.79395 15.0885 6.08301 15.4284 6.4502 15.6602C6.81738 15.8919 7.23535 16.0078 7.7041 16.0078C8.139 16.0078 8.5179 15.9193 8.84082 15.7422C9.16634 15.5651 9.41764 15.3151 9.59473 14.9922C9.77441 14.6667 9.86426 14.2839 9.86426 13.8438L10.1768 13.9023H7.8877V12.9063H11.0322V13.8164C11.0322 14.4883 10.889 15.0716 10.6025 15.5664C10.3187 16.0586 9.92546 16.4388 9.42285 16.707C8.92285 16.9753 8.34994 17.1094 7.7041 17.1094C6.98014 17.1094 6.34473 16.9427 5.79785 16.6094C5.25358 16.276 4.8291 15.8034 4.52441 15.1914C4.21973 14.5768 4.06738 13.8477 4.06738 13.0039C4.06738 12.3659 4.15592 11.793 4.33301 11.2852C4.51009 10.7773 4.75879 10.3464 5.0791 9.99219C5.40202 9.63542 5.78092 9.36328 6.21582 9.17578C6.65332 8.98568 7.13118 8.89062 7.64941 8.89062C8.08171 8.89062 8.48405 8.95443 8.85645 9.08203C9.23145 9.20964 9.56478 9.39062 9.85645 9.625C10.1507 9.85938 10.3942 10.138 10.5869 10.4609C10.7796 10.7813 10.9098 11.1367 10.9775 11.5273H9.73926Z" fill="#2E2A94"/>
<path d="M16.0059 12.4922V13.5078H12.459V12.4922H16.0059Z" fill="#2E2A94"/>
<path d="M22.0195 11.1016C21.9779 10.7318 21.806 10.4453 21.5039 10.2422C21.2018 10.0365 20.8216 9.93359 20.3633 9.93359C20.0352 9.93359 19.7513 9.98568 19.5117 10.0898C19.2721 10.1914 19.0859 10.332 18.9531 10.5117C18.8229 10.6888 18.7578 10.8906 18.7578 11.1172C18.7578 11.3073 18.8021 11.4714 18.8906 11.6094C18.9818 11.7474 19.1003 11.8633 19.2461 11.957C19.3945 12.0482 19.5534 12.125 19.7227 12.1875C19.8919 12.2474 20.0547 12.2969 20.2109 12.3359L20.9922 12.5391C21.2474 12.6016 21.5091 12.6862 21.7773 12.793C22.0456 12.8997 22.2943 13.0404 22.5234 13.2148C22.7526 13.3893 22.9375 13.6055 23.0781 13.8633C23.2214 14.1211 23.293 14.4297 23.293 14.7891C23.293 15.2422 23.1758 15.6445 22.9414 15.9961C22.7096 16.3477 22.3724 16.625 21.9297 16.8281C21.4896 17.0312 20.957 17.1328 20.332 17.1328C19.7331 17.1328 19.2148 17.0378 18.7773 16.8477C18.3398 16.6576 17.9974 16.388 17.75 16.0391C17.5026 15.6875 17.3659 15.2708 17.3398 14.7891H18.5508C18.5742 15.0781 18.668 15.319 18.832 15.5117C18.9987 15.7018 19.2109 15.8438 19.4688 15.9375C19.7292 16.0286 20.0143 16.0742 20.3242 16.0742C20.6654 16.0742 20.9688 16.0208 21.2344 15.9141C21.5026 15.8047 21.7135 15.6536 21.8672 15.4609C22.0208 15.2656 22.0977 15.0378 22.0977 14.7773C22.0977 14.5404 22.0299 14.3464 21.8945 14.1953C21.7617 14.0443 21.5807 13.9193 21.3516 13.8203C21.125 13.7214 20.8685 13.6341 20.582 13.5586L19.6367 13.3008C18.9961 13.1263 18.4883 12.8698 18.1133 12.5313C17.7409 12.1927 17.5547 11.7448 17.5547 11.1875C17.5547 10.7266 17.6797 10.3242 17.9297 9.98047C18.1797 9.63672 18.5182 9.36979 18.9453 9.17969C19.3724 8.98698 19.8542 8.89062 20.3906 8.89062C20.9323 8.89062 21.4102 8.98568 21.8242 9.17578C22.2409 9.36589 22.569 9.6276 22.8086 9.96094C23.0482 10.2917 23.1732 10.6719 23.1836 11.1016H22.0195Z" fill="#2E2A94"/>
<path d="M27.2275 17.1211C26.6364 17.1211 26.1273 16.9948 25.7002 16.7422C25.2757 16.487 24.9476 16.1289 24.7158 15.668C24.4867 15.2044 24.3721 14.6615 24.3721 14.0391C24.3721 13.4245 24.4867 12.8828 24.7158 12.4141C24.9476 11.9453 25.2705 11.5794 25.6846 11.3164C26.1012 11.0534 26.5882 10.9219 27.1455 10.9219C27.484 10.9219 27.8122 10.9779 28.1299 11.0898C28.4476 11.2018 28.7327 11.3776 28.9854 11.6172C29.238 11.8568 29.4372 12.168 29.583 12.5508C29.7288 12.931 29.8018 13.3932 29.8018 13.9375V14.3516H25.0322V13.4766H28.6572C28.6572 13.1693 28.5947 12.8971 28.4697 12.6602C28.3447 12.4206 28.1689 12.2318 27.9424 12.0938C27.7184 11.9557 27.4554 11.8867 27.1533 11.8867C26.8252 11.8867 26.5387 11.9674 26.2939 12.1289C26.0518 12.2878 25.8643 12.4961 25.7314 12.7539C25.6012 13.0091 25.5361 13.2865 25.5361 13.5859V14.2695C25.5361 14.6706 25.6064 15.0117 25.7471 15.293C25.8903 15.5742 26.0895 15.7891 26.3447 15.9375C26.5999 16.0833 26.8981 16.1563 27.2393 16.1563C27.4606 16.1563 27.6624 16.125 27.8447 16.0625C28.027 15.9974 28.1846 15.901 28.3174 15.7734C28.4502 15.6458 28.5518 15.4883 28.6221 15.3008L29.7275 15.5C29.639 15.8255 29.4801 16.1107 29.251 16.3555C29.0244 16.5977 28.7393 16.7865 28.3955 16.9219C28.0544 17.0547 27.665 17.1211 27.2275 17.1211Z" fill="#2E2A94"/>
<path d="M33.625 17.1211C33.0443 17.1211 32.5443 16.9896 32.125 16.7266C31.7083 16.4609 31.388 16.0951 31.1641 15.6289C30.9401 15.1628 30.8281 14.6289 30.8281 14.0273C30.8281 13.418 30.9427 12.8802 31.1719 12.4141C31.401 11.9453 31.724 11.5794 32.1406 11.3164C32.5573 11.0534 33.0482 10.9219 33.6133 10.9219C34.069 10.9219 34.4753 11.0065 34.832 11.1758C35.1888 11.3424 35.4766 11.5768 35.6953 11.8789C35.9167 12.181 36.0482 12.5339 36.0898 12.9375H34.9531C34.8906 12.6562 34.7474 12.4141 34.5234 12.2109C34.3021 12.0078 34.0052 11.9063 33.6328 11.9063C33.3073 11.9063 33.0221 11.9922 32.7773 12.1641C32.5352 12.3333 32.3464 12.5755 32.2109 12.8906C32.0755 13.2031 32.0078 13.5729 32.0078 14C32.0078 14.4375 32.0742 14.8151 32.207 15.1328C32.3398 15.4505 32.5273 15.6966 32.7695 15.8711C33.0143 16.0456 33.3021 16.1328 33.6328 16.1328C33.8542 16.1328 34.0547 16.0924 34.2344 16.0117C34.4167 15.9284 34.569 15.8099 34.6914 15.6563C34.8164 15.5026 34.9036 15.3177 34.9531 15.1016H36.0898C36.0482 15.4896 35.9219 15.8359 35.7109 16.1406C35.5 16.4453 35.2174 16.6849 34.8633 16.8594C34.5117 17.0339 34.099 17.1211 33.625 17.1211Z" fill="#2E2A94"/>
</svg>
