<svg width="40" height="40" viewBox="0 0 40 40" fill="none" xmlns="http://www.w3.org/2000/svg">
<circle cx="20" cy="20" r="20" fill="#D9CEFF"/>
<mask id="mask0_22862_5062" style="mask-type:alpha" maskUnits="userSpaceOnUse" x="0" y="0" width="40" height="40">
<circle cx="20" cy="20" r="20" fill="#2E86C1"/>
</mask>
<g mask="url(#mask0_22862_5062)">
<rect x="2" y="30" width="36" height="10" fill="#2E2A94"/>
<path d="M13.0447 37V31.1818H16.9652V32.196H14.2749V33.5824H16.7635V34.5966H14.2749V35.9858H16.9766V37H13.0447ZM17.7216 32.196V31.1818H22.5V32.196H20.7188V37H19.5028V32.196H17.7216ZM23.2869 37V31.1818H27.1392V32.196H24.517V33.5824H26.8835V34.5966H24.517V37H23.2869Z" fill="#D9CEFF"/>
</g>
<path d="M11.1721 10.0249C11.1034 9.80945 11.0111 9.61651 10.8951 9.44605C10.7814 9.27323 10.6453 9.12645 10.4867 9.00571C10.3281 8.8826 10.147 8.78909 9.94336 8.72517C9.74213 8.66125 9.52078 8.62929 9.2793 8.62929C8.86974 8.62929 8.50042 8.73464 8.17135 8.94534C7.84228 9.15604 7.58186 9.46499 7.3901 9.87219C7.2007 10.277 7.10601 10.773 7.10601 11.3601C7.10601 11.9496 7.20189 12.4479 7.39365 12.8551C7.58541 13.2623 7.84819 13.5713 8.182 13.782C8.51581 13.9927 8.89578 14.098 9.32192 14.098C9.71728 14.098 10.0617 14.0175 10.3553 13.8566C10.6512 13.6956 10.8797 13.4683 11.0407 13.1747C11.204 12.8788 11.2857 12.5308 11.2857 12.1307L11.5698 12.184H9.48882V11.2784H12.3475V12.1059C12.3475 12.7166 12.2173 13.247 11.9569 13.6968C11.6988 14.1442 11.3413 14.4898 10.8844 14.7337C10.4299 14.9775 9.90904 15.0995 9.32192 15.0995C8.66377 15.0995 8.08612 14.9479 7.58896 14.6449C7.09417 14.3419 6.70828 13.9122 6.43129 13.3559C6.1543 12.7971 6.01581 12.1343 6.01581 11.3672C6.01581 10.7872 6.0963 10.2664 6.25729 9.80472C6.41827 9.34307 6.64436 8.95126 6.93555 8.62929C7.22911 8.30495 7.57357 8.05756 7.96893 7.8871C8.36666 7.71428 8.80108 7.62787 9.2722 7.62787C9.66519 7.62787 10.031 7.68587 10.3695 7.80187C10.7104 7.91788 11.0134 8.08241 11.2786 8.29548C11.5461 8.50855 11.7675 8.76187 11.9427 9.05543C12.1178 9.34662 12.2362 9.66977 12.2978 10.0249H11.1721Z" fill="#2E2A94"/>
<path d="M16.869 10.902V11.8253H13.6445V10.902H16.869Z" fill="#2E2A94"/>
<path d="M22.3359 9.63781C22.2981 9.30164 22.1418 9.04122 21.8672 8.85656C21.5926 8.66954 21.2469 8.57602 20.8303 8.57602C20.532 8.57602 20.2739 8.62337 20.0561 8.71807C19.8383 8.8104 19.669 8.93824 19.5483 9.10159C19.4299 9.26258 19.3707 9.44605 19.3707 9.65202C19.3707 9.82484 19.411 9.97399 19.4915 10.0995C19.5743 10.2249 19.6821 10.3303 19.8146 10.4155C19.9496 10.4984 20.094 10.5682 20.2479 10.625C20.4018 10.6795 20.5497 10.7245 20.6918 10.76L21.402 10.9446C21.634 11.0014 21.8719 11.0784 22.1158 11.1755C22.3596 11.2725 22.5857 11.4004 22.794 11.559C23.0024 11.7176 23.1705 11.9141 23.2983 12.1485C23.4285 12.3828 23.4936 12.6634 23.4936 12.9901C23.4936 13.402 23.3871 13.7678 23.174 14.0874C22.9633 14.407 22.6567 14.6591 22.2543 14.8438C21.8542 15.0284 21.37 15.1208 20.8019 15.1208C20.2573 15.1208 19.7862 15.0344 19.3885 14.8615C18.9908 14.6887 18.6795 14.4437 18.4546 14.1264C18.2296 13.8068 18.1054 13.4281 18.0817 12.9901H19.1825C19.2038 13.2529 19.2891 13.4719 19.4382 13.647C19.5897 13.8199 19.7827 13.9489 20.0171 14.0341C20.2538 14.117 20.513 14.1584 20.7948 14.1584C21.1049 14.1584 21.3807 14.1099 21.6222 14.0128C21.866 13.9134 22.0578 13.7761 22.1974 13.6009C22.3371 13.4233 22.407 13.2162 22.407 12.9794C22.407 12.764 22.3454 12.5876 22.2223 12.4503C22.1016 12.313 21.937 12.1994 21.7287 12.1094C21.5227 12.0194 21.2895 11.9401 21.0291 11.8715L20.1698 11.6371C19.5874 11.4785 19.1257 11.2453 18.7848 10.9375C18.4463 10.6298 18.277 10.2226 18.277 9.71594C18.277 9.2969 18.3906 8.93114 18.6179 8.61864C18.8452 8.30614 19.1529 8.06347 19.5412 7.89065C19.9295 7.71546 20.3674 7.62787 20.8551 7.62787C21.3475 7.62787 21.782 7.71428 22.1584 7.8871C22.5372 8.05992 22.8355 8.29785 23.0533 8.60088C23.2711 8.90154 23.3847 9.24719 23.3942 9.63781H22.3359Z" fill="#2E2A94"/>
<path d="M27.0705 15.1101C26.5331 15.1101 26.0703 14.9953 25.682 14.7657C25.2961 14.5336 24.9978 14.2081 24.7871 13.7891C24.5788 13.3677 24.4746 12.8741 24.4746 12.3083C24.4746 11.7496 24.5788 11.2571 24.7871 10.831C24.9978 10.4049 25.2914 10.0722 25.6678 9.83312C26.0466 9.59401 26.4893 9.47446 26.9959 9.47446C27.3037 9.47446 27.602 9.52536 27.8908 9.62716C28.1796 9.72896 28.4389 9.88876 28.6685 10.1066C28.8981 10.3244 29.0793 10.6073 29.2118 10.9553C29.3444 11.3009 29.4107 11.7211 29.4107 12.2159V12.5924H25.0748V11.7969H28.3702C28.3702 11.5175 28.3134 11.2702 28.1998 11.0547C28.0861 10.8369 27.9263 10.6653 27.7204 10.5398C27.5168 10.4143 27.2776 10.3516 27.003 10.3516C26.7047 10.3516 26.4443 10.425 26.2218 10.5718C26.0016 10.7162 25.8312 10.9056 25.7104 11.1399C25.592 11.372 25.5329 11.6241 25.5329 11.8963V12.5178C25.5329 12.8824 25.5968 13.1925 25.7246 13.4482C25.8548 13.7039 26.0359 13.8992 26.2679 14.0341C26.4999 14.1667 26.771 14.233 27.0811 14.233C27.2824 14.233 27.4659 14.2046 27.6316 14.1478C27.7973 14.0886 27.9405 14.001 28.0613 13.885C28.182 13.769 28.2743 13.6257 28.3383 13.4553L29.3432 13.6364C29.2627 13.9323 29.1183 14.1916 28.91 14.4141C28.704 14.6343 28.4448 14.8059 28.1323 14.929C27.8222 15.0497 27.4682 15.1101 27.0705 15.1101Z" fill="#2E2A94"/>
<path d="M32.8864 15.1101C32.3584 15.1101 31.9039 14.9906 31.5227 14.7514C31.1439 14.51 30.8528 14.1773 30.6492 13.7536C30.4456 13.3298 30.3438 12.8445 30.3438 12.2976C30.3438 11.7436 30.4479 11.2548 30.6563 10.831C30.8646 10.4049 31.1581 10.0722 31.5369 9.83312C31.9157 9.59401 32.362 9.47446 32.8757 9.47446C33.29 9.47446 33.6593 9.5514 33.9837 9.70528C34.308 9.8568 34.5696 10.0699 34.7685 10.3445C34.9697 10.6191 35.0893 10.9399 35.1271 11.3068H34.0938C34.0369 11.0512 33.9067 10.831 33.7031 10.6463C33.5019 10.4617 33.232 10.3693 32.8935 10.3693C32.5975 10.3693 32.3383 10.4475 32.1158 10.6037C31.8956 10.7576 31.724 10.9778 31.6009 11.2642C31.4778 11.5483 31.4162 11.8845 31.4162 12.2728C31.4162 12.6705 31.4766 13.0138 31.5973 13.3026C31.718 13.5914 31.8885 13.8151 32.1087 13.9737C32.3312 14.1324 32.5928 14.2117 32.8935 14.2117C33.0947 14.2117 33.277 14.175 33.4403 14.1016C33.6061 14.0258 33.7446 13.9181 33.8558 13.7784C33.9695 13.6388 34.0488 13.4707 34.0938 13.2742H35.1271C35.0893 13.6269 34.9744 13.9418 34.7827 14.2188C34.5909 14.4958 34.334 14.7136 34.0121 14.8722C33.6925 15.0308 33.3172 15.1101 32.8864 15.1101Z" fill="#2E2A94"/>
<path d="M13.4652 27.1193C12.8629 27.1193 12.326 27.0086 11.8544 26.787C11.3857 26.5654 11.0135 26.26 10.7379 25.8708C10.4624 25.4816 10.3189 25.0355 10.3075 24.5327H12.0973C12.1172 24.8708 12.2592 25.1449 12.5234 25.3551C12.7876 25.5654 13.1016 25.6705 13.4652 25.6705C13.755 25.6705 14.0107 25.6066 14.2323 25.4787C14.4567 25.348 14.6314 25.1676 14.7564 24.9375C14.8842 24.7046 14.9482 24.4375 14.9482 24.1364C14.9482 23.8296 14.8828 23.5597 14.7521 23.3267C14.6243 23.0938 14.4467 22.912 14.2195 22.7813C13.9922 22.6506 13.7323 22.5838 13.4396 22.581C13.184 22.581 12.9354 22.6336 12.6939 22.7387C12.4553 22.8438 12.2692 22.9872 12.1357 23.1691L10.495 22.875L10.9084 18.2728H16.2436V19.7813H12.4297L12.2038 21.9674H12.255C12.4084 21.7514 12.6399 21.5725 12.9496 21.4304C13.2592 21.2884 13.6058 21.2174 13.9894 21.2174C14.5149 21.2174 14.9837 21.3409 15.3956 21.5881C15.8075 21.8353 16.1328 22.1747 16.3715 22.6066C16.6101 23.0355 16.728 23.5299 16.7251 24.0895C16.728 24.6776 16.5916 25.2003 16.3161 25.6577C16.0433 26.1122 15.6612 26.4702 15.1698 26.7316C14.6811 26.9901 14.1129 27.1193 13.4652 27.1193Z" fill="#2E2A94"/>
<path d="M17.5519 18.2728H19.6186L21.6087 22.0313H21.6939L23.684 18.2728H25.7507L22.5675 23.9148V27H20.7351V23.9148L17.5519 18.2728Z" fill="#2E2A94"/>
<path d="M26.244 27V20.4546H28.0039V21.5966H28.0721C28.1914 21.1904 28.3917 20.8836 28.6729 20.6762C28.9542 20.4659 29.2781 20.3608 29.6445 20.3608C29.7354 20.3608 29.8335 20.3665 29.9386 20.3779C30.0437 20.3892 30.136 20.4049 30.2156 20.4247V22.0355C30.1303 22.01 30.0124 21.9872 29.8619 21.9674C29.7113 21.9475 29.5735 21.9375 29.4485 21.9375C29.1815 21.9375 28.9428 21.9958 28.7326 22.1122C28.5252 22.2259 28.3604 22.385 28.2383 22.5895C28.119 22.7941 28.0593 23.0299 28.0593 23.2969V27H26.244Z" fill="#2E2A94"/>
</svg>
