<svg width="40" height="40" viewBox="0 0 40 40" fill="none" xmlns="http://www.w3.org/2000/svg">
<circle cx="20" cy="20" r="20" fill="#D9CEFF"/>
<mask id="mask0_22862_5071" style="mask-type:alpha" maskUnits="userSpaceOnUse" x="0" y="0" width="40" height="40">
<circle cx="20" cy="20" r="20" fill="#2E86C1"/>
</mask>
<g mask="url(#mask0_22862_5071)">
<rect x="2" y="30" width="36" height="10" fill="#2E2A94"/>
<path d="M13.0447 37V31.1818H16.9652V32.196H14.2749V33.5824H16.7635V34.5966H14.2749V35.9858H16.9766V37H13.0447ZM17.7216 32.196V31.1818H22.5V32.196H20.7188V37H19.5028V32.196H17.7216ZM23.2869 37V31.1818H27.1392V32.196H24.517V33.5824H26.8835V34.5966H24.517V37H23.2869Z" fill="#D9CEFF"/>
</g>
<path d="M20 27C9.24178 22.763 11.127 8.99259 11.127 8.99259C16.5061 8.99259 20 5 20 5C20 5 23.4939 8.99259 28.873 8.99259C28.873 8.99259 30.7582 22.763 20 27Z" fill="#2E2A94"/>
<path fill-rule="evenodd" clip-rule="evenodd" d="M22.4358 12.3337H23.5201C23.7395 12.3337 23.9185 12.5084 23.9185 12.7226V19.9386C23.9185 20.1528 23.7395 20.3274 23.5201 20.3274H22.4358C22.2164 20.3274 22.0374 20.1528 22.0374 19.9386V12.7226C22.0375 12.5084 22.2164 12.3337 22.4358 12.3337ZM19.3917 14.6626H20.476C20.6954 14.6626 20.8744 14.8373 20.8744 15.0515V19.9386C20.8744 20.1528 20.6954 20.3274 20.476 20.3274H19.3917C19.1723 20.3274 18.9933 20.1528 18.9933 19.9386V15.0515C18.9933 14.8373 19.1723 14.6626 19.3917 14.6626ZM16.3476 13.561H17.4319C17.6513 13.561 17.8303 13.7357 17.8303 13.9499V19.9386C17.8303 20.1528 17.6513 20.3274 17.4319 20.3274H16.3476C16.1282 20.3274 15.9492 20.1528 15.9492 19.9386V13.9499C15.9492 13.7357 16.1282 13.561 16.3476 13.561Z" fill="#D9CEFF"/>
</svg>
