<svg width="40" height="40" viewBox="0 0 40 40" fill="none" xmlns="http://www.w3.org/2000/svg">
<circle cx="20" cy="20" r="20" fill="#FFC1CE"/>
<g clip-path="url(#clip0_22862_5160)">
<path fill-rule="evenodd" clip-rule="evenodd" d="M17.5982 32.5376C17.9449 33.5544 18.9092 34.2751 20.0053 34.2751C21.113 34.2751 22.0686 33.5578 22.4128 32.5376H17.5982ZM16.5435 31.2373H23.4668C23.844 31.2373 24.1511 30.9279 24.1511 30.5476V28.8911H15.8594V30.5476C15.8594 30.9279 16.1662 31.2373 16.5435 31.2373Z" fill="#2E2A94"/>
<path d="M28.0771 17.4155C27.9068 19.1711 27.1797 20.824 25.9863 22.1362C24.769 23.4753 24.1504 25.076 24.1494 26.8921H15.8574C15.8564 25.0759 15.2379 23.4753 14.0205 22.1362C12.8268 20.8241 12.0999 19.1711 11.9297 17.4155H28.0771Z" fill="#2E2A94"/>
<path d="M21.6125 6C21.7481 6.00072 21.8802 6.04561 21.9885 6.12793C22.0968 6.21029 22.1762 6.32574 22.2141 6.45703L22.7805 8.66797C23.3343 8.90641 23.8577 9.21139 24.3391 9.57617L26.5725 9.00488C26.7035 8.97132 26.8423 8.98163 26.967 9.03418C27.0917 9.08674 27.1955 9.17933 27.2639 9.29688L28.9191 12.1074C28.9847 12.2261 29.0107 12.3633 28.9934 12.498C28.976 12.6325 28.9166 12.7577 28.8234 12.8555L27.2072 14.5186C27.2469 14.8164 27.2668 15.1162 27.2668 15.416H23.6311V15.415C23.631 14.6898 23.4174 13.981 23.0178 13.3779C22.6179 12.7748 22.049 12.304 21.384 12.0264C20.7191 11.7489 19.9872 11.6769 19.2814 11.8184C18.5757 11.9599 17.927 12.3085 17.4182 12.8213C16.9092 13.3342 16.5625 13.9887 16.4221 14.7002C16.3754 14.9371 16.3546 15.1768 16.3547 15.416H12.6936C12.6935 15.1162 12.7134 14.8164 12.7531 14.5186L11.1604 12.8555C11.0698 12.7552 11.0135 12.6282 11.0012 12.4932C10.9889 12.3581 11.021 12.2226 11.092 12.1074L12.6682 9.28516C12.7372 9.16829 12.8415 9.07689 12.966 9.02441C13.0905 8.97195 13.2285 8.96153 13.3596 8.99414L15.593 9.56543C16.0764 9.20047 16.6017 8.89469 17.1574 8.65625L17.7863 6.45703C17.8242 6.32574 17.9036 6.21029 18.0119 6.12793C18.1202 6.04561 18.2523 6.00072 18.3879 6H21.6125Z" fill="#2E2A94"/>
</g>
<defs>
<clipPath id="clip0_22862_5160">
<rect width="28" height="28" fill="white" transform="translate(6 6)"/>
</clipPath>
</defs>
</svg>
