<svg width="40" height="40" viewBox="0 0 40 40" fill="none" xmlns="http://www.w3.org/2000/svg">
<circle cx="20" cy="20" r="20" fill="#D9CEFF"/>
<g clip-path="url(#clip0_22862_5086)">
<path d="M16.25 34C17.415 34 18.3594 33.0556 18.3594 31.8906C18.3594 30.7256 17.415 29.7812 16.25 29.7812C15.085 29.7812 14.1406 30.7256 14.1406 31.8906C14.1406 33.0556 15.085 34 16.25 34Z" fill="#2E2A94"/>
<path d="M26.0938 34C27.2587 34 28.2031 33.0556 28.2031 31.8906C28.2031 30.7256 27.2587 29.7812 26.0938 29.7812C24.9288 29.7812 23.9844 30.7256 23.9844 31.8906C23.9844 33.0556 24.9288 34 26.0938 34Z" fill="#2E2A94"/>
<path d="M12.7352 27.6719C12.7352 27.2839 13.051 26.9688 13.4383 26.9688H29.4838L31 18.5312H12.7455L11.2121 10H7V11.4062H10.0394L12.6256 25.7262C11.8649 26.0451 11.3289 26.7968 11.3289 27.6719C11.3289 28.835 12.2751 29.7812 13.4383 29.7812H16.2508H26.0945H29.6102V28.375H13.4383C13.051 28.375 12.7352 28.0598 12.7352 27.6719Z" fill="#2E2A94"/>
<path d="M14.8438 15.7188H17.6562V17.125H14.8438V15.7188Z" fill="#2E2A94"/>
<path d="M20.4688 12.9062H23.2812V17.125H20.4688V12.9062Z" fill="#2E2A94"/>
<path d="M26.0938 10H28.9062V17.125H26.0938V10Z" fill="#2E2A94"/>
</g>
<defs>
<clipPath id="clip0_22862_5086">
<rect width="24" height="24" fill="white" transform="translate(7 10)"/>
</clipPath>
</defs>
</svg>
