<svg width="40" height="40" viewBox="0 0 40 40" fill="none" xmlns="http://www.w3.org/2000/svg">
<circle cx="20" cy="20" r="20" fill="#FFC1CE"/>
<path d="M19.228 6.30462C19.5711 5.89846 20.4289 5.89846 20.772 6.30462L29.8792 17.0861C30.2223 17.4923 29.7935 18 29.1073 18H10.8927C10.2065 18 9.77766 17.4923 10.1208 17.0861L19.228 6.30462Z" fill="#2E2A94"/>
<path d="M24.0332 32.4004H15.9668L20 27.624L24.0332 32.4004Z" stroke="#2E2A94" stroke-width="1.2"/>
<path d="M19.421 18.2285C19.6783 17.9238 20.3217 17.9238 20.579 18.2285L27.4094 26.3146C27.6668 26.6192 27.3451 27 26.8305 27H13.1695C12.6549 27 12.3332 26.6192 12.5906 26.3146L19.421 18.2285Z" fill="#2E2A94"/>
</svg>
