<svg width="40" height="40" viewBox="0 0 40 40" fill="none" xmlns="http://www.w3.org/2000/svg">
<circle cx="20" cy="20" r="20" fill="#FFC1CE"/>
<path d="M14.6562 14.4736H11.3604V18.293H7.63184V14.4736H4.32031V11.7373H14.6562V14.4736ZM23.5986 18.293H14.8574L16.9834 11.7373H21.4629L23.5986 18.293ZM30.2295 14.377L31.4775 11.7373H35.542L32.1816 16.9375L33.1084 18.293H27.1348L27.9736 17.0332L24.5977 11.7373H28.998L30.2295 14.377ZM18.3271 17.9609H20.0713L19.207 14.2969L18.3271 17.9609Z" fill="#2E2A94"/>
<path d="M12.1202 28.2248L8.47414 28.9997L7.64159 25.0823L11.2877 24.3074L12.1202 28.2248ZM36.0707 23.1347L31.6728 24.0694L29.743 21.6831L29.0593 24.6248L21.6429 26.201L20.7539 24.3293L17.9685 24.9213L17.9022 26.996L14.2714 27.7676L14.7093 23.5802L23.2586 21.7633L25.1369 25.0112L26.7184 21.028L32.5597 19.7866L36.0707 23.1347Z" fill="#2E2A94"/>
</svg>
