<svg width="40" height="40" viewBox="0 0 40 40" fill="none" xmlns="http://www.w3.org/2000/svg">
<circle cx="20" cy="20" r="20" fill="#FFC1CE"/>
<path d="M19.228 6.30462C19.5711 5.89846 20.4289 5.89846 20.772 6.30462L29.8792 17.0861C30.2223 17.4923 29.7935 18 29.1073 18H10.8927C10.2065 18 9.77766 17.4923 10.1208 17.0861L19.228 6.30462Z" fill="#2E2A94"/>
<path d="M24.0332 32.4004H15.9668L20 27.624L24.0332 32.4004Z" stroke="#2E2A94" stroke-width="1.2"/>
<path d="M20 18.5996C20.0475 18.5996 20.0874 18.6083 20.1133 18.6182C20.1208 18.621 20.1259 18.6234 20.1289 18.625L26.6963 26.4004H13.3037L19.8701 18.625C19.8643 18.6302 19.8672 18.6256 19.8867 18.6182C19.9126 18.6083 19.9525 18.5996 20 18.5996Z" stroke="#2E2A94" stroke-width="1.2"/>
</svg>
