<svg width="40" height="40" viewBox="0 0 40 40" fill="none" xmlns="http://www.w3.org/2000/svg">
<circle cx="20" cy="20" r="20" fill="#D5DEFF"/>
<mask id="mask0_22862_5256" style="mask-type:alpha" maskUnits="userSpaceOnUse" x="0" y="0" width="40" height="40">
<circle cx="20" cy="20" r="20" fill="#9DADFE"/>
</mask>
<g mask="url(#mask0_22862_5256)">
<path d="M-4.63428 24.6793V22.5849C-3.66176 22.5721 -2.74059 22.8483 -1.87597 23.5596C-0.948847 24.3218 0.0154815 24.72 1.0505 24.6539C1.87196 24.6004 2.63241 24.22 3.37649 23.6512C5.3111 22.1713 7.25985 22.1586 9.18478 23.6715C10.4862 24.6933 11.8181 24.93 13.1939 24.3459C13.6567 24.15 14.0942 23.7733 14.5399 23.4667C16.2781 22.268 18.0207 22.2604 19.7664 23.4081C20.2321 23.7148 20.6831 24.108 21.1615 24.3319C21.6295 24.5508 22.1243 24.6055 22.6311 24.7391V26.7954C22.1415 26.6974 21.6385 26.6873 21.1652 26.4786C20.5774 26.2203 20.0067 25.8309 19.4419 25.4403C17.9337 24.3968 16.4262 24.3434 14.935 25.4682C13.9045 26.2457 12.8561 26.7661 11.7176 26.7458C10.7295 26.728 9.77856 26.4557 8.89013 25.7113C7.61478 24.6437 6.28659 24.4007 4.91451 24.9351C4.48592 25.1018 4.0737 25.4161 3.66668 25.7138C1.77002 27.1059 -0.12887 27.1415 -2.01809 25.7164C-2.85072 25.0878 -3.69674 24.6297 -4.63353 24.6806L-4.63428 24.6793Z" fill="#2E2A94"/>
<path d="M22.6383 20.2496V22.5391C22.1294 22.4256 21.6189 22.4017 21.1345 22.1804C20.6077 21.9408 20.0906 21.5751 19.592 21.1687C17.9997 19.8713 16.4066 19.8026 14.8277 21.1631C13.716 22.1201 12.5687 22.5769 11.3491 22.4676C10.5053 22.3919 9.68909 22.0879 8.93384 21.3845C7.89734 20.4205 6.81396 20.08 5.67031 20.2468C5.00287 20.3434 4.38602 20.733 3.78332 21.2458C1.78249 22.9482 -0.217602 22.9286 -2.21099 21.2066C-2.91043 20.6027 -3.63368 20.2173 -4.40901 20.2215C-4.48118 20.2215 -4.5541 20.1907 -4.63818 20.1725V17.918C-3.91494 17.897 -3.21104 18.0371 -2.53616 18.4939C-1.96173 18.882 -1.4126 19.4173 -0.82998 19.7395C0.463232 20.4527 1.75272 20.3771 3.00427 19.3668C3.71114 18.7966 4.41356 18.2179 5.18889 18.0385C6.52005 17.7317 7.82368 17.869 9.04769 18.9885C10.2032 20.045 11.4101 20.4485 12.6676 20.0338C13.2257 19.8502 13.7756 19.4733 14.2987 19.0516C16.2273 17.4977 18.1426 17.4837 20.0683 19.0474C20.4753 19.378 20.889 19.7059 21.3168 19.9077C21.735 20.1038 22.1748 20.1361 22.6376 20.2496H22.6383Z" fill="#2E2A94"/>
<path d="M22.6311 15.5445V17.8168C22.0105 17.8818 21.4048 17.7588 20.8222 17.4084C20.3296 17.1131 19.8534 16.7174 19.372 16.3542C17.9292 15.269 16.4812 15.2294 15.0414 16.3401C14.278 16.9294 13.5295 17.5751 12.6946 17.7419C11.3798 18.0047 10.0963 17.8309 8.89311 16.7132C7.89901 15.7904 6.86177 15.4527 5.76499 15.5813C5.06779 15.6632 4.42193 16.0504 3.79392 16.5916C1.805 18.3085 -0.187653 18.3099 -2.1736 16.5959C-2.95191 15.9247 -3.75477 15.512 -4.63428 15.57V13.261C-3.78007 13.2031 -2.97051 13.4843 -2.18402 14.0636C-1.59024 14.5003 -1.00465 15.0429 -0.38781 15.2902C0.764771 15.7537 1.92628 15.6745 3.01264 14.6896C4.22847 13.5874 5.49191 13.0815 6.8387 13.2652C7.65421 13.3769 8.4288 13.7457 9.16172 14.4169C10.5442 15.6816 11.9758 15.8766 13.435 15.0542C14.0265 14.7207 14.5764 14.1173 15.1687 13.7881C16.7372 12.9176 18.2975 12.9939 19.8207 14.2007C20.4866 14.7292 21.1392 15.3312 21.8728 15.4527C22.1199 15.4937 22.3684 15.512 22.6296 15.5431L22.6311 15.5445Z" fill="#2E2A94"/>
<path d="M17.3657 24.6793V22.5849C18.3382 22.5721 19.2594 22.8483 20.124 23.5596C21.0512 24.3218 22.0155 24.72 23.0505 24.6539C23.872 24.6004 24.6324 24.22 25.3765 23.6512C27.3111 22.1713 29.2598 22.1586 31.1848 23.6715C32.4862 24.6933 33.8181 24.93 35.1939 24.3459C35.6567 24.15 36.0942 23.7733 36.5399 23.4667C38.2781 22.268 40.0207 22.2604 41.7664 23.4081C42.2321 23.7148 42.6831 24.108 43.1615 24.3319C43.6295 24.5508 44.1243 24.6055 44.6311 24.7391V26.7954C44.1415 26.6974 43.6385 26.6873 43.1652 26.4786C42.5774 26.2203 42.0067 25.8309 41.4419 25.4403C39.9337 24.3968 38.4262 24.3434 36.935 25.4682C35.9045 26.2457 34.8561 26.7661 33.7176 26.7458C32.7295 26.728 31.7786 26.4557 30.8901 25.7113C29.6148 24.6437 28.2866 24.4007 26.9145 24.9351C26.4859 25.1018 26.0737 25.4161 25.6667 25.7138C23.77 27.1059 21.8711 27.1415 19.9819 25.7164C19.1493 25.0878 18.3033 24.6297 17.3665 24.6806L17.3657 24.6793Z" fill="#2E2A94"/>
<path d="M44.6383 20.2496V22.5391C44.1294 22.4256 43.6189 22.4017 43.1345 22.1804C42.6077 21.9408 42.0906 21.5751 41.592 21.1687C39.9997 19.8713 38.4066 19.8026 36.8277 21.1631C35.716 22.1201 34.5687 22.5769 33.3491 22.4676C32.5053 22.3919 31.6891 22.0879 30.9338 21.3845C29.8973 20.4205 28.814 20.08 27.6703 20.2468C27.0029 20.3434 26.386 20.733 25.7833 21.2458C23.7825 22.9482 21.7824 22.9286 19.789 21.2066C19.0896 20.6027 18.3663 20.2173 17.591 20.2215C17.5188 20.2215 17.4459 20.1907 17.3618 20.1725V17.918C18.0851 17.897 18.789 18.0371 19.4638 18.4939C20.0383 18.882 20.5874 19.4173 21.17 19.7395C22.4632 20.4527 23.7527 20.3771 25.0043 19.3668C25.7111 18.7966 26.4136 18.2179 27.1889 18.0385C28.52 17.7317 29.8237 17.869 31.0477 18.9885C32.2032 20.045 33.4101 20.4485 34.6676 20.0338C35.2257 19.8502 35.7756 19.4733 36.2987 19.0516C38.2273 17.4977 40.1426 17.4837 42.0683 19.0474C42.4753 19.378 42.889 19.7059 43.3168 19.9077C43.735 20.1038 44.1748 20.1361 44.6376 20.2496H44.6383Z" fill="#2E2A94"/>
<path d="M44.6311 15.5445V17.8168C44.0105 17.8818 43.4048 17.7588 42.8222 17.4084C42.3296 17.1131 41.8534 16.7174 41.372 16.3542C39.9292 15.269 38.4812 15.2294 37.0414 16.3401C36.278 16.9294 35.5295 17.5751 34.6946 17.7419C33.3798 18.0047 32.0963 17.8309 30.8931 16.7132C29.899 15.7904 28.8618 15.4527 27.765 15.5813C27.0678 15.6632 26.4219 16.0504 25.7939 16.5916C23.805 18.3085 21.8123 18.3099 19.8264 16.5959C19.0481 15.9247 18.2452 15.512 17.3657 15.57V13.261C18.2199 13.2031 19.0295 13.4843 19.816 14.0636C20.4098 14.5003 20.9953 15.0429 21.6122 15.2902C22.7648 15.7537 23.9263 15.6745 25.0126 14.6896C26.2285 13.5874 27.4919 13.0815 28.8387 13.2652C29.6542 13.3769 30.4288 13.7457 31.1617 14.4169C32.5442 15.6816 33.9758 15.8766 35.435 15.0542C36.0265 14.7207 36.5764 14.1173 37.1687 13.7881C38.7372 12.9176 40.2975 12.9939 41.8207 14.2007C42.4866 14.7292 43.1392 15.3312 43.8728 15.4527C44.1199 15.4937 44.3684 15.512 44.6296 15.5431L44.6311 15.5445Z" fill="#2E2A94"/>
</g>
</svg>
