<svg width="40" height="40" viewBox="0 0 40 40" fill="none" xmlns="http://www.w3.org/2000/svg">
<circle cx="20" cy="20" r="20" fill="#D5DEFF"/>
<path d="M19.9991 9.62469C20.3874 9.62469 20.7022 9.30986 20.7022 8.92153V6.43704C20.7022 6.04871 20.3874 5.73389 19.9991 5.73389C19.6107 5.73389 19.2959 6.04871 19.2959 6.43704V8.92153C19.2959 9.30986 19.6107 9.62469 19.9991 9.62469Z" fill="#2E2A94"/>
<path d="M16.1219 10.8192C16.3965 11.0938 16.8417 11.0938 17.1163 10.8192C17.3909 10.5446 17.3909 10.0994 17.1163 9.82477L15.3595 8.06795C15.085 7.79335 14.6397 7.79335 14.3651 8.06795C14.0905 8.34256 14.0905 8.78775 14.3651 9.06236L16.1219 10.8192Z" fill="#2E2A94"/>
<path d="M23.3802 11.0251C23.5602 11.0251 23.7401 10.9565 23.8774 10.8192L25.6342 9.06236C25.9088 8.78775 25.9088 8.34256 25.6342 8.06795C25.3597 7.79335 24.9144 7.79335 24.6398 8.06795L22.883 9.82477C22.4387 10.269 22.7594 11.0251 23.3802 11.0251Z" fill="#2E2A94"/>
<path d="M20 27H7L8.03902 22.0449C8.17088 21.4148 8.49642 21 8.85918 21H18.0779C18.3963 21 18.6841 21.3525 18.8111 21.8975L20 27Z" fill="#2E2A94"/>
<path d="M26.5 20H13.5L14.539 15.0449C14.6709 14.4148 14.9964 14 15.3592 14H24.5779C24.8963 14 25.1841 14.3525 25.3111 14.8975L26.5 20Z" fill="#2E2A94"/>
<path d="M34 27H21L22.039 22.0449C22.1709 21.4148 22.4964 21 22.8592 21H32.0779C32.3963 21 32.6841 21.3525 32.8111 21.8975L34 27Z" fill="#2E2A94"/>
</svg>
