<svg width="40" height="40" viewBox="0 0 40 40" fill="none" xmlns="http://www.w3.org/2000/svg">
<circle cx="20" cy="20" r="20" fill="#D9CEFF"/>
<mask id="mask0_22862_5065" style="mask-type:alpha" maskUnits="userSpaceOnUse" x="0" y="0" width="40" height="40">
<circle cx="20" cy="20" r="20" fill="#2E86C1"/>
</mask>
<g mask="url(#mask0_22862_5065)">
<rect x="2" y="30" width="36" height="10" fill="#2E2A94"/>
<path d="M13.0447 37V31.1818H16.9652V32.196H14.2749V33.5824H16.7635V34.5966H14.2749V35.9858H16.9766V37H13.0447ZM17.7216 32.196V31.1818H22.5V32.196H20.7188V37H19.5028V32.196H17.7216ZM23.2869 37V31.1818H27.1392V32.196H24.517V33.5824H26.8835V34.5966H24.517V37H23.2869Z" fill="#D9CEFF"/>
</g>
<path d="M15.1505 7.72726V15H14.142L10.4452 9.66618H10.3778V15H9.28046V7.72726H10.2961L13.9964 13.0682H14.0638V7.72726H15.1505Z" fill="#2E2A94"/>
<path d="M16.6659 15V9.54544H17.7277V15H16.6659ZM17.2022 8.70382C17.0175 8.70382 16.8589 8.64227 16.7263 8.51917C16.5961 8.39369 16.531 8.24454 16.531 8.07172C16.531 7.89653 16.5961 7.74739 16.7263 7.62428C16.8589 7.49881 17.0175 7.43607 17.2022 7.43607C17.3868 7.43607 17.5442 7.49881 17.6745 7.62428C17.807 7.74739 17.8733 7.89653 17.8733 8.07172C17.8733 8.24454 17.807 8.39369 17.6745 8.51917C17.5442 8.64227 17.3868 8.70382 17.2022 8.70382Z" fill="#2E2A94"/>
<path d="M21.752 9.54544V10.3977H18.6697V9.54544H21.752ZM19.5148 15V8.91334C19.5148 8.57243 19.5894 8.28953 19.7386 8.06462C19.8877 7.83735 20.0854 7.66808 20.3316 7.55681C20.5778 7.44317 20.8453 7.38635 21.1341 7.38635C21.3472 7.38635 21.5295 7.40411 21.681 7.43962C21.8325 7.47276 21.945 7.50354 22.0184 7.53195L21.7698 8.39132C21.7201 8.37712 21.6562 8.36055 21.578 8.34161C21.4999 8.3203 21.4052 8.30965 21.294 8.30965C21.0359 8.30965 20.8512 8.37357 20.74 8.50141C20.6311 8.62925 20.5766 8.81391 20.5766 9.05539V15H19.5148Z" fill="#2E2A94"/>
<path d="M25.3937 9.54544V10.3977H22.4143V9.54544H25.3937ZM23.2133 8.23863H24.2751V13.3984C24.2751 13.6044 24.3059 13.7595 24.3675 13.8636C24.429 13.9654 24.5083 14.0353 24.6054 14.0731C24.7048 14.1087 24.8125 14.1264 24.9285 14.1264C25.0138 14.1264 25.0883 14.1205 25.1523 14.1087C25.2162 14.0968 25.2659 14.0873 25.3014 14.0802L25.4932 14.9574C25.4316 14.981 25.344 15.0047 25.2304 15.0284C25.1167 15.0544 24.9747 15.0686 24.8042 15.071C24.5249 15.0757 24.2645 15.026 24.023 14.9219C23.7815 14.8177 23.5862 14.6567 23.4371 14.4389C23.2879 14.2211 23.2133 13.9477 23.2133 13.6186V8.23863Z" fill="#2E2A94"/>
<path d="M27.2394 17.0454C27.0808 17.0454 26.9364 17.0324 26.8062 17.0064C26.676 16.9827 26.5789 16.9567 26.515 16.9283L26.7707 16.0582C26.9648 16.1103 27.1376 16.1328 27.2892 16.1257C27.4407 16.1186 27.5744 16.0618 27.6904 15.9552C27.8088 15.8487 27.913 15.6747 28.0029 15.4332L28.1343 15.071L26.1386 9.54544H27.275L28.6563 13.7784H28.7132L30.0946 9.54544H31.2345L28.9866 15.728C28.8824 16.0121 28.7499 16.2524 28.5889 16.4489C28.4279 16.6477 28.2361 16.7969 28.0136 16.8963C27.791 16.9957 27.533 17.0454 27.2394 17.0454Z" fill="#2E2A94"/>
<path d="M3.16718 18.7273H4.49885L6.81419 24.3807H6.89942L9.21476 18.7273H10.5464V26H9.5024V20.7372H9.43493L7.29004 25.9893H6.42357L4.27868 20.7337H4.21121V26H3.16718V18.7273Z" fill="#2E2A94"/>
<path d="M12.0566 26V20.5454H13.1183V26H12.0566ZM12.5928 19.7038C12.4081 19.7038 12.2495 19.6423 12.1169 19.5192C11.9867 19.3937 11.9216 19.2445 11.9216 19.0717C11.9216 18.8965 11.9867 18.7474 12.1169 18.6243C12.2495 18.4988 12.4081 18.4361 12.5928 18.4361C12.7774 18.4361 12.9349 18.4988 13.0651 18.6243C13.1977 18.7474 13.2639 18.8965 13.2639 19.0717C13.2639 19.2445 13.1977 19.3937 13.0651 19.5192C12.9349 19.6423 12.7774 19.7038 12.5928 19.7038Z" fill="#2E2A94"/>
<path d="M16.5887 26.1065C16.1484 26.1065 15.7554 25.9941 15.4097 25.7692C15.0664 25.5419 14.7966 25.2187 14.6001 24.7997C14.4059 24.3783 14.3089 23.8729 14.3089 23.2834C14.3089 22.6939 14.4071 22.1896 14.6036 21.7706C14.8025 21.3516 15.0747 21.0308 15.4204 20.8082C15.766 20.5857 16.1578 20.4744 16.5958 20.4744C16.9343 20.4744 17.2066 20.5312 17.4126 20.6449C17.6209 20.7561 17.7819 20.8864 17.8955 21.0355C18.0115 21.1846 18.1015 21.316 18.1654 21.4297H18.2293V18.7273H19.2911V26H18.2542V25.1513H18.1654C18.1015 25.2673 18.0092 25.3998 17.8884 25.549C17.77 25.6981 17.6067 25.8284 17.3984 25.9396C17.19 26.0509 16.9201 26.1065 16.5887 26.1065ZM16.8231 25.201C17.1285 25.201 17.3865 25.1205 17.5972 24.9595C17.8103 24.7962 17.9713 24.5701 18.0802 24.2812C18.1914 23.9924 18.2471 23.6562 18.2471 23.2727C18.2471 22.8939 18.1926 22.5625 18.0837 22.2784C17.9748 21.9943 17.815 21.773 17.6043 21.6143C17.3936 21.4557 17.1332 21.3764 16.8231 21.3764C16.5035 21.3764 16.2371 21.4593 16.0241 21.625C15.811 21.7907 15.65 22.0168 15.5411 22.3033C15.4346 22.5897 15.3813 22.9129 15.3813 23.2727C15.3813 23.6373 15.4358 23.9652 15.5447 24.2564C15.6536 24.5476 15.8145 24.7784 16.0276 24.9489C16.2431 25.1169 16.5082 25.201 16.8231 25.201Z" fill="#2E2A94"/>
<path d="M23.1041 26.1101C22.5762 26.1101 22.1217 25.9905 21.7405 25.7514C21.3617 25.5099 21.0705 25.1773 20.8669 24.7535C20.6633 24.3298 20.5615 23.8444 20.5615 23.2976C20.5615 22.7436 20.6657 22.2547 20.874 21.831C21.0824 21.4048 21.3759 21.0722 21.7547 20.8331C22.1335 20.594 22.5798 20.4744 23.0935 20.4744C23.5078 20.4744 23.8771 20.5514 24.2014 20.7052C24.5258 20.8568 24.7874 21.0698 24.9862 21.3444C25.1875 21.6191 25.307 21.9399 25.3449 22.3068H24.3115C24.2547 22.0511 24.1245 21.831 23.9209 21.6463C23.7197 21.4616 23.4498 21.3693 23.1112 21.3693C22.8153 21.3693 22.5561 21.4474 22.3335 21.6037C22.1134 21.7576 21.9417 21.9777 21.8186 22.2642C21.6955 22.5483 21.634 22.8845 21.634 23.2727C21.634 23.6704 21.6943 24.0137 21.8151 24.3025C21.9358 24.5914 22.1063 24.8151 22.3264 24.9737C22.549 25.1323 22.8106 25.2116 23.1112 25.2116C23.3125 25.2116 23.4948 25.1749 23.6581 25.1016C23.8238 25.0258 23.9623 24.9181 24.0736 24.7784C24.1872 24.6387 24.2665 24.4706 24.3115 24.2741H25.3449C25.307 24.6269 25.1922 24.9417 25.0005 25.2187C24.8087 25.4957 24.5518 25.7135 24.2299 25.8721C23.9102 26.0308 23.535 26.1101 23.1041 26.1101Z" fill="#2E2A94"/>
<path d="M28.0677 26.1207C27.7221 26.1207 27.4096 26.0568 27.1302 25.929C26.8509 25.7988 26.6295 25.6105 26.4662 25.3643C26.3052 25.1181 26.2247 24.8163 26.2247 24.4588C26.2247 24.151 26.2839 23.8977 26.4023 23.6989C26.5206 23.5 26.6804 23.3426 26.8817 23.2266C27.0829 23.1105 27.3078 23.023 27.5564 22.9638C27.805 22.9046 28.0583 22.8596 28.3163 22.8288C28.643 22.7909 28.9082 22.7602 29.1118 22.7365C29.3154 22.7105 29.4633 22.669 29.5557 22.6122C29.648 22.5554 29.6942 22.4631 29.6942 22.3352V22.3104C29.6942 22.0002 29.6066 21.7599 29.4314 21.5895C29.2586 21.419 29.0005 21.3338 28.6572 21.3338C28.2998 21.3338 28.018 21.4131 27.8121 21.5717C27.6085 21.728 27.4676 21.902 27.3895 22.0937L26.3916 21.8665C26.51 21.535 26.6828 21.2675 26.9101 21.0639C27.1397 20.8579 27.4037 20.7088 27.702 20.6165C28.0003 20.5218 28.314 20.4744 28.643 20.4744C28.8608 20.4744 29.0917 20.5005 29.3355 20.5525C29.5817 20.6023 29.8114 20.6946 30.0244 20.8295C30.2399 20.9645 30.4162 21.1574 30.5535 21.4084C30.6908 21.6569 30.7595 21.9801 30.7595 22.3778V26H29.7226V25.2543H29.68C29.6113 25.3916 29.5083 25.5265 29.371 25.6591C29.2337 25.7917 29.0573 25.9017 28.8419 25.9893C28.6265 26.0769 28.3684 26.1207 28.0677 26.1207ZM28.2986 25.2685C28.5921 25.2685 28.8431 25.2105 29.0514 25.0944C29.2621 24.9784 29.4219 24.8269 29.5308 24.6399C29.6421 24.4505 29.6977 24.2481 29.6977 24.0327V23.3295C29.6598 23.3674 29.5864 23.4029 29.4775 23.4361C29.371 23.4668 29.2491 23.4941 29.1118 23.5177C28.9745 23.5391 28.8407 23.5592 28.7105 23.5781C28.5803 23.5947 28.4714 23.6089 28.3838 23.6207C28.1778 23.6468 27.9896 23.6906 27.8192 23.7521C27.6511 23.8137 27.5161 23.9025 27.4143 24.0185C27.3149 24.1321 27.2652 24.2836 27.2652 24.473C27.2652 24.7358 27.3623 24.9346 27.5564 25.0696C27.7505 25.2022 27.9979 25.2685 28.2986 25.2685Z" fill="#2E2A94"/>
<path d="M32.1737 28.0454V20.5454H33.2107V21.4297H33.2995C33.361 21.316 33.4498 21.1846 33.5658 21.0355C33.6818 20.8864 33.8428 20.7561 34.0487 20.6449C34.2547 20.5312 34.527 20.4744 34.8655 20.4744C35.3058 20.4744 35.6988 20.5857 36.0445 20.8082C36.3901 21.0308 36.6612 21.3516 36.8577 21.7706C37.0566 22.1896 37.156 22.6939 37.156 23.2834C37.156 23.8729 37.0577 24.3783 36.8612 24.7997C36.6647 25.2187 36.3949 25.5419 36.0516 25.7692C35.7083 25.9941 35.3165 26.1065 34.8762 26.1065C34.5447 26.1065 34.2737 26.0509 34.063 25.9396C33.8546 25.8284 33.6913 25.6981 33.5729 25.549C33.4545 25.3998 33.3634 25.2673 33.2995 25.1513H33.2355V28.0454H32.1737ZM33.2142 23.2727C33.2142 23.6562 33.2699 23.9924 33.3811 24.2812C33.4924 24.5701 33.6534 24.7962 33.8641 24.9595C34.0748 25.1205 34.3328 25.201 34.6382 25.201C34.9555 25.201 35.2206 25.1169 35.4337 24.9489C35.6468 24.7784 35.8077 24.5476 35.9166 24.2564C36.0279 23.9652 36.0835 23.6373 36.0835 23.2727C36.0835 22.9129 36.0291 22.5897 35.9202 22.3033C35.8137 22.0168 35.6527 21.7907 35.4372 21.625C35.2242 21.4593 34.9578 21.3764 34.6382 21.3764C34.3305 21.3764 34.0701 21.4557 33.857 21.6143C33.6463 21.773 33.4865 21.9943 33.3776 22.2784C33.2687 22.5625 33.2142 22.8939 33.2142 23.2727Z" fill="#2E2A94"/>
</svg>
