<svg width="40" height="40" viewBox="0 0 40 40" fill="none" xmlns="http://www.w3.org/2000/svg">
<circle cx="20" cy="20" r="20" fill="#D9CEFF"/>
<path d="M15.213 31.1392C14.5103 31.1392 13.8839 31.01 13.3337 30.7514C12.7868 30.4929 12.3526 30.1366 12.0312 29.6825C11.7097 29.2285 11.5423 28.7081 11.529 28.1215H13.6171C13.6403 28.5159 13.806 28.8357 14.1142 29.081C14.4225 29.3262 14.7887 29.4489 15.213 29.4489C15.551 29.4489 15.8493 29.3743 16.1079 29.2252C16.3697 29.0727 16.5735 28.8622 16.7194 28.5938C16.8685 28.322 16.9431 28.0104 16.9431 27.6591C16.9431 27.3011 16.8669 26.9863 16.7144 26.7145C16.5652 26.4427 16.3581 26.2306 16.0929 26.0781C15.8278 25.9257 15.5245 25.8478 15.1831 25.8445C14.8848 25.8445 14.5948 25.9058 14.3131 26.0284C14.0347 26.1511 13.8176 26.3184 13.6618 26.5305L11.7478 26.1875L12.23 20.8182H18.4544V22.5781H14.0049L13.7414 25.1286H13.801C13.98 24.8767 14.2501 24.6679 14.6114 24.5021C14.9727 24.3364 15.377 24.2536 15.8245 24.2536C16.4376 24.2536 16.9845 24.3977 17.4651 24.6861C17.9457 24.9744 18.3252 25.3705 18.6036 25.8743C18.882 26.3748 19.0196 26.9515 19.0162 27.6044C19.0196 28.2905 18.8605 28.9003 18.539 29.434C18.2208 29.9643 17.775 30.3819 17.2016 30.6868C16.6315 30.9884 15.9687 31.1392 15.213 31.1392Z" fill="#2E2A94"/>
<path d="M24.5098 31.2237C23.6547 31.2204 22.9189 31.01 22.3025 30.5923C21.6893 30.1747 21.217 29.5698 20.8856 28.7777C20.5574 27.9856 20.395 27.0327 20.3983 25.919C20.3983 24.8087 20.5624 23.8625 20.8905 23.0803C21.222 22.2981 21.6943 21.7031 22.3074 21.2955C22.9239 20.8845 23.658 20.679 24.5098 20.679C25.3616 20.679 26.0941 20.8845 26.7073 21.2955C27.3238 21.7064 27.7977 22.303 28.1292 23.0852C28.4606 23.8641 28.6247 24.8087 28.6214 25.919C28.6214 27.036 28.4556 27.9905 28.1242 28.7827C27.7961 29.5748 27.3254 30.1797 26.7123 30.5973C26.0991 31.0149 25.365 31.2237 24.5098 31.2237ZM24.5098 29.4389C25.0932 29.4389 25.5589 29.1456 25.9069 28.559C26.2549 27.9723 26.4272 27.0923 26.4239 25.919C26.4239 25.1468 26.3444 24.5038 26.1853 23.9901C26.0295 23.4763 25.8074 23.0902 25.5191 22.8317C25.234 22.5732 24.8976 22.4439 24.5098 22.4439C23.9298 22.4439 23.4658 22.7339 23.1178 23.3139C22.7698 23.8939 22.5941 24.7623 22.5908 25.919C22.5908 26.7012 22.6687 27.3542 22.8245 27.8778C22.9836 28.3982 23.2073 28.7893 23.4956 29.0511C23.784 29.3097 24.1221 29.4389 24.5098 29.4389Z" fill="#2E2A94"/>
<path d="M14.9932 9V17H13.8838L9.81738 11.1328H9.74316V17H8.53613V9H9.65332L13.7236 14.875H13.7979V9H14.9932Z" fill="#2E2A94"/>
<path d="M19.2461 17.1211C18.6549 17.1211 18.1458 16.9948 17.7188 16.7422C17.2943 16.487 16.9661 16.1289 16.7344 15.668C16.5052 15.2044 16.3906 14.6615 16.3906 14.0391C16.3906 13.4245 16.5052 12.8828 16.7344 12.4141C16.9661 11.9453 17.2891 11.5794 17.7031 11.3164C18.1198 11.0534 18.6068 10.9219 19.1641 10.9219C19.5026 10.9219 19.8307 10.9779 20.1484 11.0898C20.4661 11.2018 20.7513 11.3776 21.0039 11.6172C21.2565 11.8568 21.4557 12.168 21.6016 12.5508C21.7474 12.931 21.8203 13.3932 21.8203 13.9375V14.3516H17.0508V13.4766H20.6758C20.6758 13.1693 20.6133 12.8971 20.4883 12.6602C20.3633 12.4206 20.1875 12.2318 19.9609 12.0938C19.737 11.9557 19.474 11.8867 19.1719 11.8867C18.8438 11.8867 18.5573 11.9674 18.3125 12.1289C18.0703 12.2878 17.8828 12.4961 17.75 12.7539C17.6198 13.0091 17.5547 13.2865 17.5547 13.5859V14.2695C17.5547 14.6706 17.625 15.0117 17.7656 15.293C17.9089 15.5742 18.1081 15.7891 18.3633 15.9375C18.6185 16.0833 18.9167 16.1562 19.2578 16.1562C19.4792 16.1562 19.681 16.125 19.8633 16.0625C20.0456 15.9974 20.2031 15.901 20.3359 15.7734C20.4688 15.6458 20.5703 15.4883 20.6406 15.3008L21.7461 15.5C21.6576 15.8255 21.4987 16.1107 21.2695 16.3555C21.043 16.5977 20.7578 16.7865 20.4141 16.9219C20.0729 17.0547 19.6836 17.1211 19.2461 17.1211Z" fill="#2E2A94"/>
<path d="M23.8984 11L25.2227 13.3359L26.5586 11H27.8359L25.9648 14L27.8516 17H26.5742L25.2227 14.7578L23.875 17H22.5938L24.4609 14L22.6172 11H23.8984Z" fill="#2E2A94"/>
<path d="M31.8359 11V11.9375H28.5586V11H31.8359ZM29.4375 9.5625H30.6055V15.2383C30.6055 15.4648 30.6393 15.6354 30.707 15.75C30.7747 15.862 30.862 15.9388 30.9688 15.9805C31.0781 16.0195 31.1966 16.0391 31.3242 16.0391C31.418 16.0391 31.5 16.0326 31.5703 16.0195C31.6406 16.0065 31.6953 15.9961 31.7344 15.9883L31.9453 16.9531C31.8776 16.9792 31.7812 17.0052 31.6562 17.0312C31.5312 17.0599 31.375 17.0755 31.1875 17.0781C30.8802 17.0833 30.5938 17.0286 30.3281 16.9141C30.0625 16.7995 29.8477 16.6224 29.6836 16.3828C29.5195 16.1432 29.4375 15.8424 29.4375 15.4805V9.5625Z" fill="#2E2A94"/>
</svg>
