<svg width="40" height="40" viewBox="0 0 40 40" fill="none" xmlns="http://www.w3.org/2000/svg">
<circle cx="20" cy="20" r="20" fill="#FFE986"/>
<mask id="mask0_22862_5223" style="mask-type:alpha" maskUnits="userSpaceOnUse" x="0" y="0" width="40" height="40">
<circle cx="20" cy="20" r="20" fill="#2E86C1"/>
</mask>
<g mask="url(#mask0_22862_5223)">
<rect x="2" y="30" width="36" height="10" fill="#2E2A94"/>
<path d="M13.0447 37V31.1818H16.9652V32.196H14.2749V33.5824H16.7635V34.5966H14.2749V35.9858H16.9766V37H13.0447ZM17.7216 32.196V31.1818H22.5V32.196H20.7188V37H19.5028V32.196H17.7216ZM23.2869 37V31.1818H27.1392V32.196H24.517V33.5824H26.8835V34.5966H24.517V37H23.2869Z" fill="#FFE986"/>
</g>
<path d="M8.51487 9.18181V15H7.70805L4.75067 10.7329H4.69669V15H3.81885V9.18181H4.63135L7.59158 13.4545H7.64555V9.18181H8.51487Z" fill="#2E2A94"/>
<path d="M10.2869 15H9.35507L11.4488 9.18181H12.463L14.5568 15H13.625L11.9801 10.2386H11.9346L10.2869 15ZM10.4431 12.7216H13.4659V13.4602H10.4431V12.7216Z" fill="#2E2A94"/>
<path d="M18.5234 10.7102C18.4931 10.4413 18.3681 10.2329 18.1484 10.0852C17.9287 9.9356 17.6522 9.86079 17.3188 9.86079C17.0802 9.86079 16.8738 9.89867 16.6995 9.97442C16.5253 10.0483 16.3899 10.1506 16.2933 10.2812C16.1986 10.41 16.1512 10.5568 16.1512 10.7216C16.1512 10.8598 16.1834 10.9792 16.2478 11.0795C16.3141 11.1799 16.4003 11.2642 16.5063 11.3324C16.6143 11.3987 16.7298 11.4545 16.8529 11.5C16.976 11.5436 17.0944 11.5795 17.2081 11.6079L17.7762 11.7557C17.9618 11.8011 18.1522 11.8627 18.3473 11.9403C18.5423 12.018 18.7232 12.1203 18.8899 12.2472C19.0565 12.374 19.191 12.5312 19.2933 12.7187C19.3974 12.9062 19.4495 13.1307 19.4495 13.392C19.4495 13.7216 19.3643 14.0142 19.1938 14.2699C19.0253 14.5256 18.78 14.7273 18.4581 14.875C18.138 15.0227 17.7507 15.0966 17.2961 15.0966C16.8605 15.0966 16.4836 15.0275 16.1654 14.8892C15.8473 14.7509 15.5982 14.5549 15.4183 14.3011C15.2384 14.0454 15.1389 13.7424 15.12 13.392H16.0007C16.0177 13.6023 16.0859 13.7775 16.2052 13.9176C16.3264 14.0559 16.4808 14.1591 16.6683 14.2273C16.8577 14.2936 17.0651 14.3267 17.2904 14.3267C17.5385 14.3267 17.7592 14.2879 17.9524 14.2102C18.1474 14.1307 18.3009 14.0208 18.4126 13.8807C18.5243 13.7386 18.5802 13.5729 18.5802 13.3835C18.5802 13.2112 18.531 13.0701 18.4325 12.9602C18.3359 12.8504 18.2043 12.7595 18.0376 12.6875C17.8728 12.6155 17.6863 12.5521 17.4779 12.4972L16.7904 12.3097C16.3245 12.1828 15.9552 11.9962 15.6825 11.75C15.4117 11.5038 15.2762 11.178 15.2762 10.7727C15.2762 10.4375 15.3671 10.1449 15.549 9.89488C15.7308 9.64488 15.977 9.45075 16.2876 9.31249C16.5982 9.17234 16.9486 9.10226 17.3387 9.10226C17.7327 9.10226 18.0802 9.17139 18.3813 9.30965C18.6844 9.44791 18.923 9.63825 19.0973 9.88067C19.2715 10.1212 19.3624 10.3977 19.37 10.7102H18.5234Z" fill="#2E2A94"/>
<path d="M22.3821 15H20.4985V9.18181H22.4417C23.0118 9.18181 23.5014 9.29829 23.9105 9.53124C24.3196 9.7623 24.633 10.0947 24.8508 10.5284C25.0705 10.9602 25.1804 11.4782 25.1804 12.0824C25.1804 12.6884 25.0696 13.2093 24.848 13.6449C24.6283 14.0805 24.3101 14.4157 23.8934 14.6506C23.4768 14.8835 22.973 15 22.3821 15ZM21.3764 14.2329H22.3338C22.7769 14.2329 23.1453 14.1496 23.4389 13.9829C23.7324 13.8144 23.9521 13.571 24.098 13.2528C24.2438 12.9328 24.3167 12.5426 24.3167 12.0824C24.3167 11.6259 24.2438 11.2386 24.098 10.9204C23.954 10.6023 23.7391 10.3608 23.4531 10.196C23.1671 10.0312 22.812 9.94886 22.3877 9.94886H21.3764V14.2329Z" fill="#2E2A94"/>
<path d="M26.4744 15H25.5426L27.6363 9.18181H28.6505L30.7443 15H29.8125L28.1676 10.2386H28.1221L26.4744 15ZM26.6306 12.7216H29.6534V13.4602H26.6306V12.7216Z" fill="#2E2A94"/>
<path d="M33.4502 13.1136H34.3139L34.9218 13.9062L35.2088 14.2585L36.1775 15.5227H35.2798L34.6321 14.679L34.4105 14.3722L33.4502 13.1136ZM36.365 12.0909C36.365 12.7121 36.2514 13.2462 36.0241 13.6932C35.7968 14.1382 35.4853 14.4811 35.0894 14.7216C34.6955 14.9602 34.2476 15.0795 33.7457 15.0795C33.2419 15.0795 32.7921 14.9602 32.3963 14.7216C32.0023 14.4811 31.6917 14.1373 31.4644 13.6903C31.2372 13.2434 31.1235 12.7102 31.1235 12.0909C31.1235 11.4697 31.2372 10.9365 31.4644 10.4915C31.6917 10.0445 32.0023 9.7017 32.3963 9.46306C32.7921 9.22253 33.2419 9.10226 33.7457 9.10226C34.2476 9.10226 34.6955 9.22253 35.0894 9.46306C35.4853 9.7017 35.7968 10.0445 36.0241 10.4915C36.2514 10.9365 36.365 11.4697 36.365 12.0909ZM35.4957 12.0909C35.4957 11.6174 35.419 11.2187 35.2656 10.8949C35.1141 10.5691 34.9057 10.3229 34.6406 10.1562C34.3773 9.98768 34.079 9.9034 33.7457 9.9034C33.4105 9.9034 33.1112 9.98768 32.848 10.1562C32.5847 10.3229 32.3764 10.5691 32.223 10.8949C32.0715 11.2187 31.9957 11.6174 31.9957 12.0909C31.9957 12.5644 32.0715 12.964 32.223 13.2898C32.3764 13.6136 32.5847 13.8598 32.848 14.0284C33.1112 14.1951 33.4105 14.2784 33.7457 14.2784C34.079 14.2784 34.3773 14.1951 34.6406 14.0284C34.9057 13.8598 35.1141 13.6136 35.2656 13.2898C35.419 12.964 35.4957 12.5644 35.4957 12.0909Z" fill="#2E2A94"/>
<path d="M11.3611 23.9659H12.9293L13.7176 24.9801L14.4932 25.8835L15.9549 27.7159H14.2333L13.2276 26.4801L12.712 25.7472L11.3611 23.9659ZM16.087 22.6364C16.087 23.5881 15.9066 24.3977 15.5458 25.0653C15.1878 25.7329 14.6992 26.2429 14.0799 26.5952C13.4634 26.9446 12.7702 27.1193 12.0003 27.1193C11.2247 27.1193 10.5287 26.9432 9.91224 26.5909C9.29576 26.2386 8.80855 25.7287 8.45059 25.0611C8.09264 24.3935 7.91366 23.5852 7.91366 22.6364C7.91366 21.6847 8.09264 20.875 8.45059 20.2074C8.80855 19.5398 9.29576 19.0312 9.91224 18.6818C10.5287 18.3295 11.2247 18.1534 12.0003 18.1534C12.7702 18.1534 13.4634 18.3295 14.0799 18.6818C14.6992 19.0312 15.1878 19.5398 15.5458 20.2074C15.9066 20.875 16.087 21.6847 16.087 22.6364ZM14.2162 22.6364C14.2162 22.0199 14.1239 21.5 13.9392 21.0767C13.7574 20.6534 13.5003 20.3324 13.1679 20.1136C12.8355 19.8949 12.4463 19.7855 12.0003 19.7855C11.5543 19.7855 11.1651 19.8949 10.8327 20.1136C10.5003 20.3324 10.2418 20.6534 10.0571 21.0767C9.87531 21.5 9.7844 22.0199 9.7844 22.6364C9.7844 23.2528 9.87531 23.7727 10.0571 24.196C10.2418 24.6193 10.5003 24.9403 10.8327 25.1591C11.1651 25.3778 11.5543 25.4872 12.0003 25.4872C12.4463 25.4872 12.8355 25.3778 13.1679 25.1591C13.5003 24.9403 13.7574 24.6193 13.9392 24.196C14.1239 23.7727 14.2162 23.2528 14.2162 22.6364Z" fill="#2E2A94"/>
<path d="M20.5902 27.1193C19.9879 27.1193 19.4509 27.0085 18.9794 26.7869C18.5106 26.5653 18.1384 26.2599 17.8629 25.8707C17.5873 25.4815 17.4438 25.0355 17.4325 24.5327H19.2223C19.2421 24.8707 19.3842 25.1449 19.6484 25.3551C19.9126 25.5653 20.2265 25.6704 20.5902 25.6704C20.8799 25.6704 21.1356 25.6065 21.3572 25.4787C21.5816 25.348 21.7563 25.1676 21.8813 24.9375C22.0092 24.7045 22.0731 24.4375 22.0731 24.1364C22.0731 23.8295 22.0078 23.5597 21.8771 23.3267C21.7492 23.0937 21.5717 22.9119 21.3444 22.7812C21.1171 22.6506 20.8572 22.5838 20.5646 22.581C20.3089 22.581 20.0603 22.6335 19.8188 22.7386C19.5802 22.8437 19.3941 22.9872 19.2606 23.169L17.62 22.875L18.0333 18.2727H23.3686V19.7812H19.5546L19.3288 21.9673H19.3799C19.5333 21.7514 19.7649 21.5724 20.0745 21.4304C20.3842 21.2883 20.7308 21.2173 21.1143 21.2173C21.6399 21.2173 22.1086 21.3409 22.5206 21.5881C22.9325 21.8352 23.2578 22.1747 23.4964 22.6065C23.735 23.0355 23.8529 23.5298 23.8501 24.0895C23.8529 24.6775 23.7166 25.2003 23.441 25.6577C23.1683 26.1122 22.7862 26.4702 22.2947 26.7315C21.8061 26.99 21.2379 27.1193 20.5902 27.1193Z" fill="#2E2A94"/>
<path d="M28.5589 27.1918C27.826 27.1889 27.1953 27.0085 26.6669 26.6506C26.1413 26.2926 25.7365 25.7741 25.4524 25.0952C25.1711 24.4162 25.0319 23.5994 25.0348 22.6449C25.0348 21.6932 25.1754 20.8821 25.4566 20.2116C25.7407 19.5412 26.1456 19.0312 26.6711 18.6818C27.1995 18.3295 27.8288 18.1534 28.5589 18.1534C29.289 18.1534 29.9169 18.3295 30.4424 18.6818C30.9708 19.0341 31.3771 19.5454 31.6612 20.2159C31.9453 20.8835 32.0859 21.6932 32.0831 22.6449C32.0831 23.6023 31.941 24.4204 31.6569 25.0994C31.3757 25.7784 30.9723 26.2969 30.4467 26.6548C29.9211 27.0128 29.2919 27.1918 28.5589 27.1918ZM28.5589 25.6619C29.0589 25.6619 29.4581 25.4105 29.7563 24.9077C30.0546 24.4048 30.2024 23.6506 30.1995 22.6449C30.1995 21.9829 30.1313 21.4318 29.995 20.9915C29.8615 20.5511 29.6711 20.2202 29.424 19.9986C29.1796 19.777 28.8913 19.6662 28.5589 19.6662C28.0617 19.6662 27.664 19.9148 27.3657 20.4119C27.0674 20.9091 26.9169 21.6534 26.914 22.6449C26.914 23.3153 26.9808 23.875 27.1143 24.3239C27.2507 24.7699 27.4424 25.1051 27.6896 25.3295C27.9367 25.5511 28.2265 25.6619 28.5589 25.6619Z" fill="#2E2A94"/>
</svg>
