<svg width="40" height="40" viewBox="0 0 40 40" fill="none" xmlns="http://www.w3.org/2000/svg">
<circle cx="20" cy="20" r="20" fill="#D9CEFF"/>
<mask id="mask0_22862_5023" style="mask-type:alpha" maskUnits="userSpaceOnUse" x="0" y="0" width="40" height="40">
<circle cx="20" cy="20" r="20" fill="#2E86C1"/>
</mask>
<g mask="url(#mask0_22862_5023)">
<rect x="2" y="30" width="36" height="10" fill="#2E2A94"/>
<path d="M13.0447 37V31.1818H16.9652V32.196H14.2749V33.5824H16.7635V34.5966H14.2749V35.9858H16.9766V37H13.0447ZM17.7216 32.196V31.1818H22.5V32.196H20.7188V37H19.5028V32.196H17.7216ZM23.2869 37V31.1818H27.1392V32.196H24.517V33.5824H26.8835V34.5966H24.517V37H23.2869Z" fill="#D9CEFF"/>
</g>
<path d="M15.1505 7.72727V15H14.142L10.4452 9.66619H10.3777V15H9.28045V7.72727H10.2961L13.9964 13.0682H14.0638V7.72727H15.1505Z" fill="#2E2A94"/>
<path d="M16.6659 15V9.54545H17.7277V15H16.6659ZM17.2021 8.70383C17.0175 8.70383 16.8589 8.64228 16.7263 8.51917C16.5961 8.3937 16.531 8.24455 16.531 8.07173C16.531 7.89654 16.5961 7.74739 16.7263 7.62429C16.8589 7.49881 17.0175 7.43608 17.2021 7.43608C17.3868 7.43608 17.5442 7.49881 17.6744 7.62429C17.807 7.74739 17.8733 7.89654 17.8733 8.07173C17.8733 8.24455 17.807 8.3937 17.6744 8.51917C17.5442 8.64228 17.3868 8.70383 17.2021 8.70383Z" fill="#2E2A94"/>
<path d="M21.752 9.54545V10.3977H18.6697V9.54545H21.752ZM19.5148 15V8.91335C19.5148 8.57244 19.5894 8.28953 19.7385 8.06463C19.8877 7.83735 20.0854 7.66808 20.3316 7.55682C20.5778 7.44318 20.8453 7.38636 21.1341 7.38636C21.3472 7.38636 21.5295 7.40412 21.681 7.43963C21.8325 7.47277 21.945 7.50355 22.0184 7.53196L21.7698 8.39133C21.7201 8.37713 21.6562 8.36056 21.578 8.34162C21.4999 8.32031 21.4052 8.30966 21.2939 8.30966C21.0359 8.30966 20.8512 8.37358 20.74 8.50142C20.6311 8.62926 20.5766 8.81392 20.5766 9.05539V15H19.5148Z" fill="#2E2A94"/>
<path d="M25.3937 9.54545V10.3977H22.4143V9.54545H25.3937ZM23.2133 8.23863H24.2751V13.3984C24.2751 13.6044 24.3059 13.7595 24.3675 13.8636C24.429 13.9654 24.5083 14.0353 24.6054 14.0732C24.7048 14.1087 24.8125 14.1264 24.9285 14.1264C25.0138 14.1264 25.0883 14.1205 25.1523 14.1087C25.2162 14.0968 25.2659 14.0874 25.3014 14.0803L25.4932 14.9574C25.4316 14.9811 25.344 15.0047 25.2304 15.0284C25.1167 15.0544 24.9747 15.0687 24.8042 15.071C24.5249 15.0758 24.2645 15.026 24.023 14.9219C23.7815 14.8177 23.5862 14.6567 23.4371 14.4389C23.2879 14.2211 23.2133 13.9477 23.2133 13.6186V8.23863Z" fill="#2E2A94"/>
<path d="M27.2394 17.0455C27.0808 17.0455 26.9364 17.0324 26.8062 17.0064C26.676 16.9827 26.5789 16.9567 26.515 16.9283L26.7707 16.0582C26.9648 16.1103 27.1376 16.1328 27.2891 16.1257C27.4407 16.1186 27.5744 16.0618 27.6904 15.9553C27.8088 15.8487 27.913 15.6747 28.0029 15.4332L28.1343 15.071L26.1386 9.54545H27.2749L28.6563 13.7784H28.7132L30.0945 9.54545H31.2345L28.9866 15.728C28.8824 16.0121 28.7499 16.2524 28.5889 16.4489C28.4279 16.6477 28.2361 16.7969 28.0136 16.8963C27.791 16.9957 27.533 17.0455 27.2394 17.0455Z" fill="#2E2A94"/>
<path d="M11.766 27.1193C11.1637 27.1193 10.6268 27.0085 10.1552 26.7869C9.68643 26.5653 9.31427 26.2599 9.0387 25.8707C8.76314 25.4815 8.61967 25.0355 8.60831 24.5327H10.3981C10.418 24.8707 10.56 25.1449 10.8242 25.3551C11.0884 25.5653 11.4023 25.6705 11.766 25.6705C12.0558 25.6705 12.3114 25.6065 12.533 25.4787C12.7575 25.348 12.9322 25.1676 13.0572 24.9375C13.185 24.7045 13.2489 24.4375 13.2489 24.1364C13.2489 23.8295 13.1836 23.5597 13.0529 23.3267C12.9251 23.0937 12.7475 22.9119 12.5202 22.7812C12.293 22.6506 12.033 22.5838 11.7404 22.581C11.4847 22.581 11.2361 22.6335 10.9947 22.7386C10.756 22.8437 10.57 22.9872 10.4364 23.169L8.79581 22.875L9.20916 18.2727H14.5444V19.7812H10.7305L10.5046 21.9673H10.5558C10.7092 21.7514 10.9407 21.5724 11.2504 21.4304C11.56 21.2883 11.9066 21.2173 12.2901 21.2173C12.8157 21.2173 13.2844 21.3409 13.6964 21.5881C14.1083 21.8352 14.4336 22.1747 14.6722 22.6065C14.9109 23.0355 15.0288 23.5298 15.0259 24.0895C15.0288 24.6776 14.8924 25.2003 14.6168 25.6577C14.3441 26.1122 13.962 26.4702 13.4705 26.7315C12.9819 26.9901 12.4137 27.1193 11.766 27.1193Z" fill="#2E2A94"/>
<path d="M19.7347 27.1918C19.0018 27.1889 18.3711 27.0085 17.8427 26.6506C17.3171 26.2926 16.9123 25.7741 16.6282 25.0952C16.3469 24.4162 16.2077 23.5994 16.2106 22.6449C16.2106 21.6932 16.3512 20.8821 16.6325 20.2116C16.9165 19.5412 17.3214 19.0312 17.8469 18.6818C18.3754 18.3295 19.0046 18.1534 19.7347 18.1534C20.4648 18.1534 21.0927 18.3295 21.6183 18.6818C22.1467 19.0341 22.5529 19.5455 22.837 20.2159C23.1211 20.8835 23.2617 21.6932 23.2589 22.6449C23.2589 23.6023 23.1168 24.4205 22.8327 25.0994C22.5515 25.7784 22.1481 26.2969 21.6225 26.6548C21.0969 27.0128 20.4677 27.1918 19.7347 27.1918ZM19.7347 25.6619C20.2347 25.6619 20.6339 25.4105 20.9322 24.9077C21.2305 24.4048 21.3782 23.6506 21.3754 22.6449C21.3754 21.983 21.3072 21.4318 21.1708 20.9915C21.0373 20.5511 20.8469 20.2202 20.5998 19.9986C20.3555 19.777 20.0671 19.6662 19.7347 19.6662C19.2376 19.6662 18.8398 19.9148 18.5415 20.4119C18.2433 20.9091 18.0927 21.6534 18.0898 22.6449C18.0898 23.3153 18.1566 23.875 18.2901 24.3239C18.4265 24.7699 18.6182 25.1051 18.8654 25.3295C19.1126 25.5511 19.4023 25.6619 19.7347 25.6619Z" fill="#2E2A94"/>
<path d="M27.9964 27.1918C27.2635 27.1889 26.6328 27.0085 26.1044 26.6506C25.5788 26.2926 25.174 25.7741 24.8899 25.0952C24.6087 24.4162 24.4695 23.5994 24.4723 22.6449C24.4723 21.6932 24.6129 20.8821 24.8942 20.2116C25.1783 19.5412 25.5831 19.0312 26.1087 18.6818C26.6371 18.3295 27.2663 18.1534 27.9964 18.1534C28.7266 18.1534 29.3544 18.3295 29.88 18.6818C30.4084 19.0341 30.8146 19.5455 31.0987 20.2159C31.3828 20.8835 31.5234 21.6932 31.5206 22.6449C31.5206 23.6023 31.3785 24.4205 31.0945 25.0994C30.8132 25.7784 30.4098 26.2969 29.8842 26.6548C29.3587 27.0128 28.7294 27.1918 27.9964 27.1918ZM27.9964 25.6619C28.4964 25.6619 28.8956 25.4105 29.1939 24.9077C29.4922 24.4048 29.6399 23.6506 29.6371 22.6449C29.6371 21.983 29.5689 21.4318 29.4325 20.9915C29.299 20.5511 29.1087 20.2202 28.8615 19.9986C28.6172 19.777 28.3288 19.6662 27.9964 19.6662C27.4993 19.6662 27.1016 19.9148 26.8033 20.4119C26.505 20.9091 26.3544 21.6534 26.3516 22.6449C26.3516 23.3153 26.4183 23.875 26.5518 24.3239C26.6882 24.7699 26.88 25.1051 27.1271 25.3295C27.3743 25.5511 27.6641 25.6619 27.9964 25.6619Z" fill="#2E2A94"/>
</svg>
