<svg width="40" height="40" viewBox="0 0 40 40" fill="none" xmlns="http://www.w3.org/2000/svg">
<circle cx="20" cy="20" r="20" fill="#D9CEFF"/>
<path d="M15.213 31.1392C14.5103 31.1392 13.8839 31.0099 13.3337 30.7514C12.7868 30.4929 12.3527 30.1366 12.0312 29.6825C11.7097 29.2285 11.5423 28.7081 11.529 28.1214H13.6171C13.6403 28.5159 13.806 28.8357 14.1143 29.081C14.4225 29.3262 14.7887 29.4489 15.213 29.4489C15.551 29.4489 15.8493 29.3743 16.1079 29.2251C16.3697 29.0727 16.5735 28.8622 16.7194 28.5938C16.8685 28.322 16.9431 28.0104 16.9431 27.6591C16.9431 27.3011 16.8669 26.9863 16.7144 26.7145C16.5653 26.4427 16.3581 26.2306 16.093 26.0781C15.8278 25.9257 15.5245 25.8478 15.1831 25.8445C14.8849 25.8445 14.5948 25.9058 14.3131 26.0284C14.0347 26.151 13.8176 26.3184 13.6618 26.5305L11.7478 26.1875L12.23 20.8182H18.4545V22.5781H14.0049L13.7414 25.1286H13.801C13.98 24.8767 14.2501 24.6679 14.6114 24.5021C14.9727 24.3364 15.377 24.2536 15.8245 24.2536C16.4376 24.2536 16.9845 24.3977 17.4651 24.6861C17.9457 24.9744 18.3252 25.3705 18.6036 25.8743C18.882 26.3748 19.0196 26.9515 19.0162 27.6044C19.0196 28.2905 18.8605 28.9003 18.539 29.4339C18.2208 29.9643 17.775 30.3819 17.2016 30.6868C16.6315 30.9884 15.9687 31.1392 15.213 31.1392Z" fill="#2E2A94"/>
<path d="M24.5099 31.2237C23.6547 31.2204 22.9189 31.0099 22.3025 30.5923C21.6893 30.1747 21.217 29.5698 20.8856 28.7777C20.5574 27.9856 20.395 27.0327 20.3983 25.919C20.3983 24.8087 20.5624 23.8625 20.8905 23.0803C21.222 22.2981 21.6943 21.7031 22.3074 21.2955C22.9239 20.8845 23.6581 20.679 24.5099 20.679C25.3617 20.679 26.0941 20.8845 26.7073 21.2955C27.3238 21.7064 27.7977 22.303 28.1292 23.0852C28.4606 23.8641 28.6247 24.8087 28.6214 25.919C28.6214 27.036 28.4556 27.9905 28.1242 28.7827C27.7961 29.5748 27.3254 30.1797 26.7123 30.5973C26.0991 31.0149 25.365 31.2237 24.5099 31.2237ZM24.5099 29.4389C25.0932 29.4389 25.5589 29.1456 25.9069 28.5589C26.2549 27.9723 26.4272 27.0923 26.4239 25.919C26.4239 25.1468 26.3444 24.5038 26.1853 23.9901C26.0295 23.4763 25.8074 23.0902 25.5191 22.8317C25.234 22.5732 24.8976 22.4439 24.5099 22.4439C23.9298 22.4439 23.4658 22.7339 23.1178 23.3139C22.7698 23.8939 22.5941 24.7623 22.5908 25.919C22.5908 26.7012 22.6687 27.3542 22.8245 27.8778C22.9836 28.3982 23.2073 28.7893 23.4957 29.0511C23.784 29.3097 24.1221 29.4389 24.5099 29.4389Z" fill="#2E2A94"/>
<path d="M14.6655 9V17H13.5562L9.48975 11.1328H9.41553V17H8.2085V9H9.32568L13.396 14.875H13.4702V9H14.6655Z" fill="#2E2A94"/>
<path d="M16.3325 17V11H17.5005V17H16.3325ZM16.9224 10.0742C16.7192 10.0742 16.5448 10.0065 16.3989 9.87109C16.2557 9.73307 16.1841 9.56901 16.1841 9.37891C16.1841 9.1862 16.2557 9.02214 16.3989 8.88672C16.5448 8.7487 16.7192 8.67969 16.9224 8.67969C17.1255 8.67969 17.2987 8.7487 17.4419 8.88672C17.5877 9.02214 17.6606 9.1862 17.6606 9.37891C17.6606 9.56901 17.5877 9.73307 17.4419 9.87109C17.2987 10.0065 17.1255 10.0742 16.9224 10.0742Z" fill="#2E2A94"/>
<path d="M21.9272 11V11.9375H18.5366V11H21.9272ZM19.4663 17V10.3047C19.4663 9.92969 19.5483 9.61849 19.7124 9.37109C19.8765 9.12109 20.0939 8.9349 20.3647 8.8125C20.6356 8.6875 20.9299 8.625 21.2476 8.625C21.4819 8.625 21.6825 8.64453 21.8491 8.68359C22.0158 8.72005 22.1395 8.75391 22.2202 8.78516L21.9468 9.73047C21.8921 9.71484 21.8218 9.69661 21.7358 9.67578C21.6499 9.65234 21.5457 9.64063 21.4233 9.64063C21.1395 9.64063 20.9364 9.71094 20.814 9.85156C20.6942 9.99219 20.6343 10.1953 20.6343 10.4609V17H19.4663Z" fill="#2E2A94"/>
<path d="M25.9331 11V11.9375H22.6558V11H25.9331ZM23.5347 9.5625H24.7026V15.2383C24.7026 15.4648 24.7365 15.6354 24.8042 15.75C24.8719 15.862 24.9591 15.9388 25.0659 15.9805C25.1753 16.0195 25.2938 16.0391 25.4214 16.0391C25.5151 16.0391 25.5972 16.0326 25.6675 16.0195C25.7378 16.0065 25.7925 15.9961 25.8315 15.9883L26.0425 16.9531C25.9748 16.9792 25.8784 17.0052 25.7534 17.0313C25.6284 17.0599 25.4722 17.0755 25.2847 17.0781C24.9774 17.0833 24.6909 17.0286 24.4253 16.9141C24.1597 16.7995 23.9448 16.6224 23.7808 16.3828C23.6167 16.1432 23.5347 15.8424 23.5347 15.4805V9.5625Z" fill="#2E2A94"/>
<path d="M27.9634 19.25C27.7889 19.25 27.63 19.2357 27.4868 19.207C27.3436 19.181 27.2368 19.1523 27.1665 19.1211L27.4478 18.1641C27.6613 18.2214 27.8514 18.2461 28.0181 18.2383C28.1847 18.2305 28.3319 18.168 28.4595 18.0508C28.5897 17.9336 28.7043 17.7422 28.8032 17.4766L28.9478 17.0781L26.7524 11H28.0024L29.522 15.6563H29.5845L31.104 11H32.3579L29.8853 17.8008C29.7707 18.1133 29.6248 18.3776 29.4478 18.5938C29.2707 18.8125 29.0597 18.9766 28.8149 19.0859C28.5702 19.1953 28.2863 19.25 27.9634 19.25Z" fill="#2E2A94"/>
</svg>
