<svg width="40" height="40" viewBox="0 0 40 40" fill="none" xmlns="http://www.w3.org/2000/svg">
<circle cx="20" cy="20" r="20" fill="#FFE986"/>
<mask id="mask0_22862_5220" style="mask-type:alpha" maskUnits="userSpaceOnUse" x="0" y="0" width="40" height="40">
<circle cx="20" cy="20" r="20" fill="#2E86C1"/>
</mask>
<g mask="url(#mask0_22862_5220)">
<rect x="2" y="30" width="36" height="10" fill="#2E2A94"/>
<path d="M13.0447 37V31.1818H16.9652V32.196H14.2749V33.5824H16.7635V34.5966H14.2749V35.9858H16.9766V37H13.0447ZM17.7216 32.196V31.1818H22.5V32.196H20.7188V37H19.5028V32.196H17.7216ZM23.2869 37V31.1818H27.1392V32.196H24.517V33.5824H26.8835V34.5966H24.517V37H23.2869Z" fill="#FFE986"/>
</g>
<path d="M8.51487 9.18181V15H7.70805L4.75067 10.7329H4.69669V15H3.81885V9.18181H4.63135L7.59158 13.4545H7.64555V9.18181H8.51487Z" fill="#2E2A94"/>
<path d="M10.2869 15H9.35507L11.4488 9.18181H12.463L14.5568 15H13.625L11.9801 10.2386H11.9346L10.2869 15ZM10.4431 12.7216H13.4659V13.4602H10.4431V12.7216Z" fill="#2E2A94"/>
<path d="M18.5234 10.7102C18.4931 10.4413 18.3681 10.2329 18.1484 10.0852C17.9287 9.9356 17.6522 9.86079 17.3188 9.86079C17.0802 9.86079 16.8738 9.89867 16.6995 9.97442C16.5253 10.0483 16.3899 10.1506 16.2933 10.2812C16.1986 10.41 16.1512 10.5568 16.1512 10.7216C16.1512 10.8598 16.1834 10.9792 16.2478 11.0795C16.3141 11.1799 16.4003 11.2642 16.5063 11.3324C16.6143 11.3987 16.7298 11.4545 16.8529 11.5C16.976 11.5436 17.0944 11.5795 17.2081 11.6079L17.7762 11.7557C17.9618 11.8011 18.1522 11.8627 18.3473 11.9403C18.5423 12.018 18.7232 12.1203 18.8899 12.2472C19.0565 12.374 19.191 12.5312 19.2933 12.7187C19.3974 12.9062 19.4495 13.1307 19.4495 13.392C19.4495 13.7216 19.3643 14.0142 19.1938 14.2699C19.0253 14.5256 18.78 14.7273 18.4581 14.875C18.138 15.0227 17.7507 15.0966 17.2961 15.0966C16.8605 15.0966 16.4836 15.0275 16.1654 14.8892C15.8473 14.7509 15.5982 14.5549 15.4183 14.3011C15.2384 14.0454 15.1389 13.7424 15.12 13.392H16.0007C16.0177 13.6023 16.0859 13.7775 16.2052 13.9176C16.3264 14.0559 16.4808 14.1591 16.6683 14.2273C16.8577 14.2936 17.0651 14.3267 17.2904 14.3267C17.5385 14.3267 17.7592 14.2879 17.9524 14.2102C18.1474 14.1307 18.3009 14.0208 18.4126 13.8807C18.5243 13.7386 18.5802 13.5729 18.5802 13.3835C18.5802 13.2112 18.531 13.0701 18.4325 12.9602C18.3359 12.8504 18.2043 12.7595 18.0376 12.6875C17.8728 12.6155 17.6863 12.5521 17.4779 12.4972L16.7904 12.3097C16.3245 12.1828 15.9552 11.9962 15.6825 11.75C15.4117 11.5038 15.2762 11.178 15.2762 10.7727C15.2762 10.4375 15.3671 10.1449 15.549 9.89488C15.7308 9.64488 15.977 9.45075 16.2876 9.31249C16.5982 9.17234 16.9486 9.10226 17.3387 9.10226C17.7327 9.10226 18.0802 9.17139 18.3813 9.30965C18.6844 9.44791 18.923 9.63825 19.0973 9.88067C19.2715 10.1212 19.3624 10.3977 19.37 10.7102H18.5234Z" fill="#2E2A94"/>
<path d="M22.3821 15H20.4985V9.18181H22.4417C23.0118 9.18181 23.5014 9.29829 23.9105 9.53124C24.3196 9.7623 24.633 10.0947 24.8508 10.5284C25.0705 10.9602 25.1804 11.4782 25.1804 12.0824C25.1804 12.6884 25.0696 13.2093 24.848 13.6449C24.6283 14.0805 24.3101 14.4157 23.8934 14.6506C23.4768 14.8835 22.973 15 22.3821 15ZM21.3764 14.2329H22.3338C22.7769 14.2329 23.1453 14.1496 23.4389 13.9829C23.7324 13.8144 23.9521 13.571 24.098 13.2528C24.2438 12.9328 24.3167 12.5426 24.3167 12.0824C24.3167 11.6259 24.2438 11.2386 24.098 10.9204C23.954 10.6023 23.7391 10.3608 23.4531 10.196C23.1671 10.0312 22.812 9.94886 22.3877 9.94886H21.3764V14.2329Z" fill="#2E2A94"/>
<path d="M26.4744 15H25.5426L27.6363 9.18181H28.6505L30.7443 15H29.8125L28.1676 10.2386H28.1221L26.4744 15ZM26.6306 12.7216H29.6534V13.4602H26.6306V12.7216Z" fill="#2E2A94"/>
<path d="M33.4502 13.1136H34.3139L34.9218 13.9062L35.2088 14.2585L36.1775 15.5227H35.2798L34.6321 14.679L34.4105 14.3722L33.4502 13.1136ZM36.365 12.0909C36.365 12.7121 36.2514 13.2462 36.0241 13.6932C35.7968 14.1382 35.4853 14.4811 35.0894 14.7216C34.6955 14.9602 34.2476 15.0795 33.7457 15.0795C33.2419 15.0795 32.7921 14.9602 32.3963 14.7216C32.0023 14.4811 31.6917 14.1373 31.4644 13.6903C31.2372 13.2434 31.1235 12.7102 31.1235 12.0909C31.1235 11.4697 31.2372 10.9365 31.4644 10.4915C31.6917 10.0445 32.0023 9.7017 32.3963 9.46306C32.7921 9.22253 33.2419 9.10226 33.7457 9.10226C34.2476 9.10226 34.6955 9.22253 35.0894 9.46306C35.4853 9.7017 35.7968 10.0445 36.0241 10.4915C36.2514 10.9365 36.365 11.4697 36.365 12.0909ZM35.4957 12.0909C35.4957 11.6174 35.419 11.2187 35.2656 10.8949C35.1141 10.5691 34.9057 10.3229 34.6406 10.1562C34.3773 9.98768 34.079 9.9034 33.7457 9.9034C33.4105 9.9034 33.1112 9.98768 32.848 10.1562C32.5847 10.3229 32.3764 10.5691 32.223 10.8949C32.0715 11.2187 31.9957 11.6174 31.9957 12.0909C31.9957 12.5644 32.0715 12.964 32.223 13.2898C32.3764 13.6136 32.5847 13.8598 32.848 14.0284C33.1112 14.1951 33.4105 14.2784 33.7457 14.2784C34.079 14.2784 34.3773 14.1951 34.6406 14.0284C34.9057 13.8598 35.1141 13.6136 35.2656 13.2898C35.419 12.964 35.4957 12.5644 35.4957 12.0909Z" fill="#2E2A94"/>
<path d="M13.307 18.2727V27H11.4618V20.0241H11.4106L9.41207 21.277V19.6406L11.5726 18.2727H13.307Z" fill="#2E2A94"/>
<path d="M18.803 27.1918C18.0701 27.1889 17.4394 27.0085 16.911 26.6506C16.3854 26.2926 15.9806 25.7741 15.6965 25.0952C15.4153 24.4162 15.2761 23.5994 15.2789 22.6449C15.2789 21.6932 15.4195 20.8821 15.7008 20.2116C15.9849 19.5412 16.3897 19.0312 16.9153 18.6818C17.4437 18.3295 18.0729 18.1534 18.803 18.1534C19.5332 18.1534 20.161 18.3295 20.6866 18.6818C21.215 19.0341 21.6212 19.5454 21.9053 20.2159C22.1894 20.8835 22.33 21.6932 22.3272 22.6449C22.3272 23.6023 22.1851 24.4204 21.9011 25.0994C21.6198 25.7784 21.2164 26.2969 20.6908 26.6548C20.1653 27.0128 19.536 27.1918 18.803 27.1918ZM18.803 25.6619C19.303 25.6619 19.7022 25.4105 20.0005 24.9077C20.2988 24.4048 20.4465 23.6506 20.4437 22.6449C20.4437 21.9829 20.3755 21.4318 20.2391 20.9915C20.1056 20.5511 19.9153 20.2202 19.6681 19.9986C19.4238 19.777 19.1354 19.6662 18.803 19.6662C18.3059 19.6662 17.9082 19.9148 17.6099 20.4119C17.3116 20.9091 17.161 21.6534 17.1582 22.6449C17.1582 23.3153 17.2249 23.875 17.3584 24.3239C17.4948 24.7699 17.6866 25.1051 17.9337 25.3295C18.1809 25.5511 18.4707 25.6619 18.803 25.6619Z" fill="#2E2A94"/>
<path d="M27.0648 27.1918C26.3318 27.1889 25.7011 27.0085 25.1727 26.6506C24.6472 26.2926 24.2423 25.7741 23.9582 25.0952C23.677 24.4162 23.5378 23.5994 23.5406 22.6449C23.5406 21.6932 23.6812 20.8821 23.9625 20.2116C24.2466 19.5412 24.6514 19.0312 25.177 18.6818C25.7054 18.3295 26.3347 18.1534 27.0648 18.1534C27.7949 18.1534 28.4227 18.3295 28.9483 18.6818C29.4767 19.0341 29.8829 19.5454 30.167 20.2159C30.4511 20.8835 30.5918 21.6932 30.5889 22.6449C30.5889 23.6023 30.4469 24.4204 30.1628 25.0994C29.8815 25.7784 29.4781 26.2969 28.9525 26.6548C28.427 27.0128 27.7977 27.1918 27.0648 27.1918ZM27.0648 25.6619C27.5648 25.6619 27.9639 25.4105 28.2622 24.9077C28.5605 24.4048 28.7082 23.6506 28.7054 22.6449C28.7054 21.9829 28.6372 21.4318 28.5008 20.9915C28.3673 20.5511 28.177 20.2202 27.9298 19.9986C27.6855 19.777 27.3972 19.6662 27.0648 19.6662C26.5676 19.6662 26.1699 19.9148 25.8716 20.4119C25.5733 20.9091 25.4227 21.6534 25.4199 22.6449C25.4199 23.3153 25.4866 23.875 25.6202 24.3239C25.7565 24.7699 25.9483 25.1051 26.1954 25.3295C26.4426 25.5511 26.7324 25.6619 27.0648 25.6619Z" fill="#2E2A94"/>
</svg>
