<svg width="40" height="40" viewBox="0 0 40 40" fill="none" xmlns="http://www.w3.org/2000/svg">
<circle cx="20" cy="20" r="20" fill="#FFE986"/>
<path d="M12.1915 19.8182V30H10.0388V21.8615H9.97909L7.64742 23.3231V21.4141L10.168 19.8182H12.1915Z" fill="#2E2A94"/>
<path d="M18.6036 30.2237C17.7484 30.2204 17.0127 30.0099 16.3962 29.5923C15.783 29.1747 15.3107 28.5698 14.9793 27.7777C14.6511 26.9855 14.4887 26.0327 14.4921 24.919C14.4921 23.8087 14.6561 22.8624 14.9842 22.0802C15.3157 21.298 15.788 20.7031 16.4011 20.2954C17.0176 19.8845 17.7518 19.679 18.6036 19.679C19.4554 19.679 20.1878 19.8845 20.801 20.2954C21.4175 20.7064 21.8914 21.303 22.2229 22.0852C22.5543 22.8641 22.7184 23.8087 22.7151 24.919C22.7151 26.036 22.5493 26.9905 22.2179 27.7827C21.8898 28.5748 21.4191 29.1797 20.806 29.5973C20.1928 30.0149 19.4587 30.2237 18.6036 30.2237ZM18.6036 28.4389C19.1869 28.4389 19.6526 28.1456 20.0006 27.5589C20.3486 26.9723 20.5209 26.0923 20.5176 24.919C20.5176 24.1468 20.4381 23.5038 20.279 22.99C20.1232 22.4763 19.9011 22.0902 19.6128 21.8317C19.3278 21.5731 18.9913 21.4439 18.6036 21.4439C18.0235 21.4439 17.5595 21.7339 17.2115 22.3139C16.8635 22.8939 16.6878 23.7623 16.6845 24.919C16.6845 25.7012 16.7624 26.3542 16.9182 26.8778C17.0773 27.3982 17.301 27.7893 17.5894 28.0511C17.8777 28.3097 18.2158 28.4389 18.6036 28.4389Z" fill="#2E2A94"/>
<path d="M28.2422 30.2237C27.3871 30.2204 26.6513 30.0099 26.0348 29.5923C25.4217 29.1747 24.9494 28.5698 24.6179 27.7777C24.2898 26.9855 24.1274 26.0327 24.1307 24.919C24.1307 23.8087 24.2948 22.8624 24.6229 22.0802C24.9544 21.298 25.4267 20.7031 26.0398 20.2954C26.6563 19.8845 27.3904 19.679 28.2422 19.679C29.094 19.679 29.8265 19.8845 30.4397 20.2954C31.0562 20.7064 31.5301 21.303 31.8616 22.0852C32.193 22.8641 32.3571 23.8087 32.3537 24.919C32.3537 26.036 32.188 26.9905 31.8566 27.7827C31.5285 28.5748 31.0578 29.1797 30.4446 29.5973C29.8315 30.0149 29.0973 30.2237 28.2422 30.2237ZM28.2422 28.4389C28.8256 28.4389 29.2912 28.1456 29.6392 27.5589C29.9873 26.9723 30.1596 26.0923 30.1563 24.919C30.1563 24.1468 30.0767 23.5038 29.9177 22.99C29.7619 22.4763 29.5398 22.0902 29.2515 21.8317C28.9664 21.5731 28.63 21.4439 28.2422 21.4439C27.6622 21.4439 27.1982 21.7339 26.8502 22.3139C26.5022 22.8939 26.3265 23.7623 26.3232 24.919C26.3232 25.7012 26.4011 26.3542 26.5569 26.8778C26.716 27.3982 26.9397 27.7893 27.228 28.0511C27.5164 28.3097 27.8544 28.4389 28.2422 28.4389Z" fill="#2E2A94"/>
<path d="M8.51487 10.1818V16H7.70805L4.75067 11.7329H4.69669V16H3.81885V10.1818H4.63135L7.59158 14.4545H7.64555V10.1818H8.51487Z" fill="#2E2A94"/>
<path d="M10.2869 16H9.35507L11.4488 10.1818H12.463L14.5568 16H13.625L11.9801 11.2386H11.9346L10.2869 16ZM10.4431 13.7216H13.4659V14.4602H10.4431V13.7216Z" fill="#2E2A94"/>
<path d="M18.5234 11.7102C18.4931 11.4413 18.3681 11.2329 18.1484 11.0852C17.9287 10.9356 17.6522 10.8608 17.3188 10.8608C17.0802 10.8608 16.8738 10.8987 16.6995 10.9744C16.5253 11.0483 16.3899 11.1506 16.2933 11.2812C16.1986 11.41 16.1512 11.5568 16.1512 11.7216C16.1512 11.8598 16.1834 11.9792 16.2478 12.0795C16.3141 12.1799 16.4003 12.2642 16.5063 12.3324C16.6143 12.3987 16.7298 12.4545 16.8529 12.5C16.976 12.5436 17.0944 12.5795 17.2081 12.6079L17.7762 12.7557C17.9618 12.8011 18.1522 12.8627 18.3473 12.9403C18.5423 13.018 18.7232 13.1203 18.8899 13.2472C19.0565 13.374 19.191 13.5312 19.2933 13.7187C19.3974 13.9062 19.4495 14.1307 19.4495 14.392C19.4495 14.7216 19.3643 15.0142 19.1938 15.2699C19.0253 15.5256 18.78 15.7273 18.4581 15.875C18.138 16.0227 17.7507 16.0966 17.2961 16.0966C16.8605 16.0966 16.4836 16.0275 16.1654 15.8892C15.8473 15.7509 15.5982 15.5549 15.4183 15.3011C15.2384 15.0454 15.1389 14.7424 15.12 14.392H16.0007C16.0177 14.6023 16.0859 14.7775 16.2052 14.9176C16.3264 15.0559 16.4808 15.1591 16.6683 15.2273C16.8577 15.2936 17.0651 15.3267 17.2904 15.3267C17.5385 15.3267 17.7592 15.2879 17.9524 15.2102C18.1474 15.1307 18.3009 15.0208 18.4126 14.8807C18.5243 14.7386 18.5802 14.5729 18.5802 14.3835C18.5802 14.2112 18.531 14.0701 18.4325 13.9602C18.3359 13.8504 18.2043 13.7595 18.0376 13.6875C17.8728 13.6155 17.6863 13.5521 17.4779 13.4972L16.7904 13.3097C16.3245 13.1828 15.9552 12.9962 15.6825 12.75C15.4117 12.5038 15.2762 12.178 15.2762 11.7727C15.2762 11.4375 15.3671 11.1449 15.549 10.8949C15.7308 10.6449 15.977 10.4507 16.2876 10.3125C16.5982 10.1723 16.9486 10.1023 17.3387 10.1023C17.7327 10.1023 18.0802 10.1714 18.3813 10.3097C18.6844 10.4479 18.923 10.6382 19.0973 10.8807C19.2715 11.1212 19.3624 11.3977 19.37 11.7102H18.5234Z" fill="#2E2A94"/>
<path d="M22.3821 16H20.4985V10.1818H22.4417C23.0118 10.1818 23.5014 10.2983 23.9105 10.5312C24.3196 10.7623 24.633 11.0947 24.8508 11.5284C25.0705 11.9602 25.1804 12.4782 25.1804 13.0824C25.1804 13.6884 25.0696 14.2093 24.848 14.6449C24.6283 15.0805 24.3101 15.4157 23.8934 15.6506C23.4768 15.8835 22.973 16 22.3821 16ZM21.3764 15.2329H22.3338C22.7769 15.2329 23.1453 15.1496 23.4389 14.9829C23.7324 14.8144 23.9521 14.571 24.098 14.2528C24.2438 13.9328 24.3167 13.5426 24.3167 13.0824C24.3167 12.6259 24.2438 12.2386 24.098 11.9204C23.954 11.6023 23.7391 11.3608 23.4531 11.196C23.1671 11.0312 22.812 10.9489 22.3877 10.9489H21.3764V15.2329Z" fill="#2E2A94"/>
<path d="M26.4744 16H25.5426L27.6363 10.1818H28.6505L30.7443 16H29.8125L28.1676 11.2386H28.1221L26.4744 16ZM26.6306 13.7216H29.6534V14.4602H26.6306V13.7216Z" fill="#2E2A94"/>
<path d="M33.4502 14.1136H34.3139L34.9218 14.9062L35.2088 15.2585L36.1775 16.5227H35.2798L34.6321 15.679L34.4105 15.3722L33.4502 14.1136ZM36.365 13.0909C36.365 13.7121 36.2514 14.2462 36.0241 14.6932C35.7968 15.1382 35.4853 15.4811 35.0894 15.7216C34.6955 15.9602 34.2476 16.0795 33.7457 16.0795C33.2419 16.0795 32.7921 15.9602 32.3963 15.7216C32.0023 15.4811 31.6917 15.1373 31.4644 14.6903C31.2372 14.2434 31.1235 13.7102 31.1235 13.0909C31.1235 12.4697 31.2372 11.9365 31.4644 11.4915C31.6917 11.0445 32.0023 10.7017 32.3963 10.4631C32.7921 10.2225 33.2419 10.1023 33.7457 10.1023C34.2476 10.1023 34.6955 10.2225 35.0894 10.4631C35.4853 10.7017 35.7968 11.0445 36.0241 11.4915C36.2514 11.9365 36.365 12.4697 36.365 13.0909ZM35.4957 13.0909C35.4957 12.6174 35.419 12.2187 35.2656 11.8949C35.1141 11.5691 34.9057 11.3229 34.6406 11.1562C34.3773 10.9877 34.079 10.9034 33.7457 10.9034C33.4105 10.9034 33.1112 10.9877 32.848 11.1562C32.5847 11.3229 32.3764 11.5691 32.223 11.8949C32.0715 12.2187 31.9957 12.6174 31.9957 13.0909C31.9957 13.5644 32.0715 13.964 32.223 14.2898C32.3764 14.6136 32.5847 14.8598 32.848 15.0284C33.1112 15.1951 33.4105 15.2784 33.7457 15.2784C34.079 15.2784 34.3773 15.1951 34.6406 15.0284C34.9057 14.8598 35.1141 14.6136 35.2656 14.2898C35.419 13.964 35.4957 13.5644 35.4957 13.0909Z" fill="#2E2A94"/>
</svg>
