<svg width="40" height="40" viewBox="0 0 40 40" fill="none" xmlns="http://www.w3.org/2000/svg">
<circle cx="20" cy="20" r="20" fill="#B4F099"/>
<mask id="mask0_22862_5203" style="mask-type:alpha" maskUnits="userSpaceOnUse" x="0" y="0" width="40" height="40">
<circle cx="20" cy="20" r="20" fill="#2E86C1"/>
</mask>
<g mask="url(#mask0_22862_5203)">
<rect x="2" y="30" width="36" height="10" fill="#2E2A94"/>
<path d="M13.0447 37V31.1818H16.9652V32.196H14.2749V33.5824H16.7635V34.5966H14.2749V35.9858H16.9766V37H13.0447ZM17.7216 32.196V31.1818H22.5V32.196H20.7188V37H19.5028V32.196H17.7216ZM23.2869 37V31.1818H27.1392V32.196H24.517V33.5824H26.8835V34.5966H24.517V37H23.2869Z" fill="#B4F099"/>
</g>
<path d="M22.3239 25.3918C20.8259 25.3918 19.3286 25.3977 17.8306 25.3892C17.0956 25.3853 16.4812 25.0889 15.996 24.5394C15.9246 24.4583 15.8766 24.3266 15.876 24.2176C15.8695 21.7245 15.8695 19.2313 15.876 16.7382C15.876 16.6389 15.9292 16.5228 15.9934 16.4436C16.1458 16.2555 16.3106 16.0752 16.4877 15.9091C17.2857 15.1604 17.8365 14.2398 18.3172 13.2732C18.5975 12.7095 18.844 12.1282 19.1281 11.5664C19.7003 10.4349 19.797 9.23476 19.6893 7.99889C19.6711 7.78934 19.6608 7.5785 19.6614 7.36831C19.6634 6.64236 20.3186 6.17591 20.9972 6.43151C21.197 6.50677 21.3929 6.62354 21.5557 6.76173C22.4582 7.52985 22.813 8.52048 22.5976 9.67331C22.4335 10.5511 22.235 11.4314 21.9476 12.2748C21.6206 13.233 22.2421 14.0212 23.1951 14.0011C25.0077 13.9628 26.8216 13.9901 28.6355 13.9901C29.2992 13.9901 29.8137 14.354 30.0141 14.9651C30.21 15.5626 30.0063 16.2043 29.4984 16.587C29.4724 16.6065 29.4445 16.6227 29.4186 16.6422C29.1338 16.8601 29.137 17.1514 29.438 17.3545C29.7929 17.5939 30.018 17.9085 30.0699 18.3399C30.1471 18.9815 29.7618 19.5239 29.1279 19.6627C29.0728 19.6751 29.017 19.6848 28.9625 19.6997C28.6278 19.7918 28.5149 20.1266 28.764 20.3718C29.5386 21.1347 29.043 22.4011 28.0277 22.4893C27.676 22.5198 27.5632 22.8909 27.8025 23.1634C28.0166 23.406 28.1658 23.6733 28.2151 23.9964C28.343 24.8326 27.5379 25.3983 26.9144 25.3944C25.3847 25.386 23.8543 25.3918 22.3239 25.3918Z" fill="#2E2A94"/>
<path d="M9.91406 15.5358C11.364 15.5358 12.788 15.5267 14.212 15.5404C14.7362 15.5456 15.0917 15.9374 15.093 16.4746C15.0969 19.137 15.0969 21.8001 15.093 24.4626C15.0924 24.9972 14.7187 25.3851 14.2029 25.3877C12.8023 25.3942 11.4023 25.3897 10.0016 25.389C9.97829 25.389 9.95493 25.3825 9.91406 25.3767V15.5358Z" fill="#2E2A94"/>
</svg>
