<svg width="40" height="40" viewBox="0 0 40 40" fill="none" xmlns="http://www.w3.org/2000/svg">
<circle cx="20" cy="20" r="20" fill="#FFC1CE"/>
<path d="M20 6.59961C20.1917 6.59961 20.2934 6.66804 20.3135 6.69141L29.3262 17.3623C29.2756 17.3817 29.2041 17.4004 29.1074 17.4004H10.8926C10.7953 17.4004 10.7235 17.3819 10.6729 17.3623L19.6865 6.69141C19.7066 6.66803 19.8083 6.59961 20 6.59961Z" stroke="#2E2A94" stroke-width="1.2"/>
<path d="M19.614 27.1523C19.7856 26.9492 20.2144 26.9492 20.386 27.1523L24.9396 32.5431C25.1112 32.7461 24.8967 33 24.5536 33H15.4464C15.1033 33 14.8888 32.7461 15.0604 32.5431L19.614 27.1523Z" fill="#2E2A94"/>
<path d="M20 18.5996C20.0475 18.5996 20.0874 18.6083 20.1133 18.6182C20.1208 18.621 20.1259 18.6234 20.1289 18.625L26.6963 26.4004H13.3037L19.8701 18.625C19.8643 18.6302 19.8672 18.6256 19.8867 18.6182C19.9126 18.6083 19.9525 18.5996 20 18.5996Z" stroke="#2E2A94" stroke-width="1.2"/>
</svg>
