<svg width="40" height="40" viewBox="0 0 40 40" fill="none" xmlns="http://www.w3.org/2000/svg">
<circle cx="20" cy="20" r="20" fill="#B4F099"/>
<path d="M30.3728 13.6443C30.3728 13.7774 30.3792 13.9106 30.3728 14.0427C30.3041 15.1921 30.6873 16.137 31.5804 16.9008C32.0548 17.3055 32.4831 17.7753 32.876 18.26C33.8249 19.4318 33.8324 20.5748 32.8749 21.7349C32.3586 22.3591 31.765 22.9226 31.1918 23.4989C30.698 23.9953 30.4254 24.5727 30.4157 25.2758C30.4061 26.0193 30.3803 26.7639 30.3556 27.5075C30.2955 29.2768 29.3144 30.2388 27.5218 30.2867C26.706 30.3091 25.8902 30.324 25.0744 30.3527C24.4958 30.373 24.0267 30.6404 23.6167 31.0281C23.0446 31.5693 22.496 32.137 21.8992 32.6484C20.7753 33.6113 19.7137 33.7381 18.6349 33.05C18.255 32.8071 17.9147 32.4992 17.5776 32.1978C17.2792 31.9314 16.9969 31.6449 16.7318 31.3466C16.077 30.6095 15.258 30.2878 14.2758 30.2942C13.5276 30.2995 12.7698 30.3208 12.0323 30.2196C10.4319 30.0012 9.68155 29.1128 9.6311 27.5C9.60534 26.6766 9.59138 25.8531 9.56347 25.0307C9.54415 24.4875 9.30585 24.0315 8.9366 23.6449C8.42994 23.1144 7.90933 22.5977 7.40268 22.0672C7.23737 21.8946 7.08924 21.7029 6.95077 21.508C6.24017 20.5024 6.21655 19.4669 6.96043 18.4805C7.37477 17.9308 7.846 17.4057 8.36768 16.9572C9.30585 16.1519 9.68262 15.1644 9.63432 13.9575C9.60856 13.3098 9.62251 12.6525 9.70839 12.0102C9.9016 10.5604 10.7936 9.78381 12.276 9.71989C13.1047 9.68474 13.9355 9.67195 14.7653 9.65384C15.4007 9.64106 15.9321 9.39499 16.384 8.96356C16.9336 8.43839 17.4703 7.89938 18.0328 7.38699C18.5126 6.95024 19.0611 6.61575 19.7234 6.53479C20.4887 6.43998 21.1596 6.7031 21.7232 7.18779C22.3297 7.7087 22.9018 8.27008 23.4707 8.83147C23.9978 9.35238 24.6053 9.64532 25.361 9.66024C26.2831 9.67941 27.2137 9.66876 28.124 9.79446C29.5377 9.99046 30.274 10.8629 30.3503 12.2871C30.3739 12.7377 30.3545 13.1905 30.3545 13.6421C30.3621 13.6421 30.3696 13.6421 30.376 13.6421L30.3728 13.6443ZM29.2028 13.8616C29.2156 13.8616 29.2296 13.8605 29.2425 13.8595C29.2135 13.3162 29.2028 12.7708 29.1534 12.2296C29.0772 11.4051 28.7004 10.9929 27.8739 10.9066C27.1976 10.8363 26.5117 10.8107 25.8322 10.8331C24.4293 10.8778 23.2807 10.3942 22.3382 9.36303C21.9175 8.90178 21.4634 8.46076 20.975 8.07195C20.2386 7.48499 19.6912 7.49671 18.9516 8.08686C18.5459 8.40963 18.1508 8.76116 17.8159 9.15318C16.7479 10.4038 15.4104 10.9471 13.7681 10.8363C13.1981 10.7979 12.6163 10.8363 12.0484 10.9076C11.2584 11.0067 10.9042 11.3572 10.828 12.1433C10.755 12.9082 10.7475 13.6805 10.7432 14.4496C10.7367 15.5958 10.3653 16.579 9.52268 17.379C9.10727 17.7743 8.694 18.1737 8.30328 18.5924C7.28675 19.6832 7.29212 20.3149 8.31723 21.3972C8.79383 21.9 9.29512 22.3804 9.77172 22.8843C10.2988 23.4425 10.6423 24.0965 10.6777 24.8731C10.7153 25.6816 10.7249 26.4923 10.7464 27.3008C10.7807 28.5823 11.1886 29.0244 12.4649 29.116C13.0253 29.1565 13.5909 29.1906 14.1491 29.1586C15.5993 29.0766 16.7382 29.6444 17.6903 30.6915C18.0832 31.124 18.5147 31.5309 18.972 31.8931C19.7116 32.479 20.2558 32.4619 20.9997 31.8931C21.2112 31.7312 21.4087 31.5501 21.6008 31.3658C22.0055 30.978 22.3984 30.5786 22.802 30.1908C23.5072 29.5123 24.352 29.182 25.3374 29.1746C26.1403 29.1692 26.9432 29.1533 27.744 29.0989C28.6532 29.0372 29.0954 28.5844 29.1534 27.6758C29.1995 26.9599 29.2382 26.2419 29.2199 25.5261C29.1867 24.267 29.6901 23.2688 30.5961 22.4241C31.034 22.015 31.4655 21.5932 31.853 21.1373C32.6001 20.2616 32.5851 19.6459 31.8123 18.7809C31.4215 18.3442 30.9922 17.9415 30.5778 17.5271C29.9263 16.8762 29.3659 16.1711 29.2736 15.2145C29.2307 14.766 29.2253 14.3133 29.2028 13.8627V13.8616Z" fill="#2E2A94"/>
<path d="M29.2011 13.8615C29.2237 14.3121 29.229 14.7649 29.272 15.2133C29.3643 16.171 29.9246 16.8751 30.5762 17.526C30.9905 17.9404 31.4209 18.343 31.8106 18.7798C32.5835 19.6437 32.5985 20.2605 31.8514 21.1361C31.4628 21.591 31.0324 22.0139 30.5944 22.423C29.6895 23.2666 29.185 24.2658 29.2183 25.525C29.2376 26.2408 29.1979 26.9599 29.1517 27.6746C29.0927 28.5833 28.6505 29.0371 27.7423 29.0978C26.9426 29.1521 26.1386 29.1671 25.3357 29.1735C24.3503 29.1809 23.5056 29.5111 22.8003 30.1897C22.3967 30.5785 22.0038 30.9769 21.5992 31.3647C21.407 31.549 21.2095 31.7301 20.998 31.892C20.2552 32.4608 19.7099 32.4779 18.9703 31.892C18.512 31.5287 18.0816 31.1218 17.6887 30.6904C16.7355 29.6432 15.5977 29.0744 14.1475 29.1575C13.5882 29.1894 13.0225 29.1553 12.4633 29.1149C11.1881 29.0233 10.7802 28.5812 10.7447 27.2997C10.7233 26.4901 10.7125 25.6805 10.676 24.872C10.6406 24.0954 10.2971 23.4413 9.77006 22.8831C9.29454 22.3793 8.79218 21.8989 8.31558 21.3961C7.29046 20.3148 7.2851 19.6821 8.30163 18.5912C8.69235 18.1726 9.10562 17.7731 9.52103 17.3779C10.3637 16.5779 10.734 15.5947 10.7415 14.4485C10.7458 13.6794 10.7533 12.9071 10.8263 12.1422C10.9014 11.3561 11.2568 11.0056 12.0468 10.9065C12.6146 10.8352 13.1964 10.7968 13.7664 10.8352C15.4098 10.9459 16.7473 10.4027 17.8143 9.15206C18.1492 8.75898 18.5442 8.40851 18.95 8.08574C19.6885 7.49665 20.237 7.48387 20.9734 8.07083C21.4618 8.45964 21.9158 8.90066 22.3366 9.36191C23.278 10.3941 24.4276 10.8778 25.8306 10.832C26.5101 10.8107 27.196 10.8352 27.8722 10.9055C28.6988 10.9917 29.0766 11.404 29.1517 12.2285C29.2022 12.7696 29.2129 13.3151 29.2408 13.8583C29.228 13.8583 29.214 13.8594 29.2011 13.8605V13.8615Z" fill="#2E2A94"/>
<path d="M25.1729 15.4976C25.5725 15.5216 25.8358 15.7986 25.9482 16.0806C26.0592 16.3591 26.0556 16.7089 25.875 17.0044L25.876 17.0054C25.8304 17.0798 25.7741 17.1478 25.7227 17.2036L25.5967 17.3306C23.4209 19.4919 21.2452 21.6527 19.0684 23.813C18.9899 23.8908 18.8929 23.9684 18.8135 24.0356C18.8119 24.0373 18.8112 24.0399 18.8096 24.0415C18.6301 24.2218 18.3379 24.2226 18.1572 24.0435L18.1562 24.0425L14.8047 20.6958C14.6282 20.5182 14.4926 20.2828 14.4844 20.0024C14.4761 19.7188 14.6004 19.4702 14.7842 19.2749H14.7852C14.9778 19.0709 15.237 18.9493 15.5195 18.9517C15.7997 18.9541 16.0581 19.0771 16.2598 19.2739C17.0053 20.002 17.7441 20.7365 18.4775 21.4761L18.4951 21.4956C19.2468 20.74 19.9344 20.048 20.626 19.3608L22.3857 17.6128C22.9746 17.0302 23.5665 16.4494 24.1641 15.8745V15.8735C24.2978 15.7453 24.4666 15.651 24.6289 15.5894C24.7905 15.528 24.9819 15.4864 25.1719 15.4976H25.1729Z" fill="#B4F099" stroke="#B4F099" stroke-width="0.922516" stroke-linejoin="round"/>
</svg>
