<svg width="40" height="40" viewBox="0 0 40 40" fill="none" xmlns="http://www.w3.org/2000/svg">
<circle cx="20" cy="20" r="20" fill="#FFE986"/>
<path d="M10.3937 31.1392C9.69101 31.1392 9.06459 31.0099 8.5144 30.7514C7.96753 30.4929 7.53334 30.1366 7.21185 29.6825C6.89035 29.2285 6.72297 28.7081 6.70972 28.1214H8.79779C8.82099 28.5159 8.98671 28.8357 9.29494 29.081C9.60318 29.3262 9.96942 29.4489 10.3937 29.4489C10.7317 29.4489 11.03 29.3743 11.2886 29.2251C11.5504 29.0727 11.7542 28.8622 11.9001 28.5938C12.0492 28.322 12.1238 28.0104 12.1238 27.6591C12.1238 27.3011 12.0475 26.9863 11.8951 26.7145C11.7459 26.4427 11.5388 26.2306 11.2736 26.0781C11.0085 25.9257 10.7052 25.8478 10.3638 25.8445C10.0655 25.8445 9.77553 25.9058 9.49381 26.0284C9.2154 26.151 8.99831 26.3184 8.84253 26.5305L6.92847 26.1875L7.41071 20.8182H13.6351V22.5781H9.18557L8.92207 25.1286H8.98173C9.16071 24.8767 9.43083 24.6679 9.7921 24.5021C10.1534 24.3364 10.5577 24.2536 11.0052 24.2536C11.6183 24.2536 12.1652 24.3977 12.6458 24.6861C13.1264 24.9744 13.5059 25.3705 13.7843 25.8743C14.0627 26.3748 14.2002 26.9515 14.1969 27.6044C14.2002 28.2905 14.0412 28.9003 13.7197 29.4339C13.4015 29.9643 12.9557 30.3819 12.3823 30.6868C11.8122 30.9884 11.1493 31.1392 10.3937 31.1392Z" fill="#2E2A94"/>
<path d="M19.6905 31.2237C18.8354 31.2204 18.0996 31.0099 17.4832 30.5923C16.87 30.1747 16.3977 29.5698 16.0663 28.7777C15.7381 27.9856 15.5757 27.0327 15.579 25.919C15.579 24.8087 15.7431 23.8625 16.0712 23.0803C16.4027 22.2981 16.875 21.7031 17.4881 21.2955C18.1046 20.8845 18.8387 20.679 19.6905 20.679C20.5423 20.679 21.2748 20.8845 21.888 21.2955C22.5045 21.7064 22.9784 22.303 23.3099 23.0852C23.6413 23.8641 23.8054 24.8087 23.802 25.919C23.802 27.036 23.6363 27.9905 23.3049 28.7827C22.9768 29.5748 22.5061 30.1797 21.893 30.5973C21.2798 31.0149 20.5457 31.2237 19.6905 31.2237ZM19.6905 29.4389C20.2739 29.4389 20.7395 29.1456 21.0876 28.5589C21.4356 27.9723 21.6079 27.0923 21.6046 25.919C21.6046 25.1468 21.5251 24.5038 21.366 23.9901C21.2102 23.4763 20.9881 23.0902 20.6998 22.8317C20.4147 22.5732 20.0783 22.4439 19.6905 22.4439C19.1105 22.4439 18.6465 22.7339 18.2985 23.3139C17.9505 23.8939 17.7748 24.7623 17.7715 25.919C17.7715 26.7012 17.8494 27.3542 18.0052 27.8778C18.1643 28.3982 18.388 28.7893 18.6763 29.0511C18.9647 29.3097 19.3028 29.4389 19.6905 29.4389Z" fill="#2E2A94"/>
<path d="M29.3292 31.2237C28.4741 31.2204 27.7383 31.0099 27.1218 30.5923C26.5087 30.1747 26.0364 29.5698 25.7049 28.7777C25.3768 27.9856 25.2144 27.0327 25.2177 25.919C25.2177 24.8087 25.3818 23.8625 25.7099 23.0803C26.0413 22.2981 26.5136 21.7031 27.1268 21.2955C27.7433 20.8845 28.4774 20.679 29.3292 20.679C30.181 20.679 30.9135 20.8845 31.5267 21.2955C32.1431 21.7064 32.6171 22.303 32.9485 23.0852C33.28 23.8641 33.444 24.8087 33.4407 25.919C33.4407 27.036 33.275 27.9905 32.9436 28.7827C32.6154 29.5748 32.1448 30.1797 31.5316 30.5973C30.9185 31.0149 30.1843 31.2237 29.3292 31.2237ZM29.3292 29.4389C29.9125 29.4389 30.3782 29.1456 30.7262 28.5589C31.0742 27.9723 31.2466 27.0923 31.2433 25.919C31.2433 25.1468 31.1637 24.5038 31.0046 23.9901C30.8489 23.4763 30.6268 23.0902 30.3384 22.8317C30.0534 22.5732 29.717 22.4439 29.3292 22.4439C28.7492 22.4439 28.2852 22.7339 27.9372 23.3139C27.5892 23.8939 27.4135 24.7623 27.4102 25.919C27.4102 26.7012 27.4881 27.3542 27.6438 27.8778C27.8029 28.3982 28.0267 28.7893 28.315 29.0511C28.6034 29.3097 28.9414 29.4389 29.3292 29.4389Z" fill="#2E2A94"/>
<path d="M14.6021 11.1016C14.5604 10.7318 14.3885 10.4453 14.0864 10.2422C13.7844 10.0365 13.4042 9.93359 12.9458 9.93359C12.6177 9.93359 12.3338 9.98568 12.0943 10.0898C11.8547 10.1914 11.6685 10.332 11.5357 10.5117C11.4055 10.6888 11.3404 10.8906 11.3404 11.1172C11.3404 11.3073 11.3846 11.4714 11.4732 11.6094C11.5643 11.7474 11.6828 11.8633 11.8286 11.957C11.9771 12.0482 12.1359 12.125 12.3052 12.1875C12.4745 12.2474 12.6372 12.2969 12.7935 12.3359L13.5747 12.5391C13.8299 12.6016 14.0917 12.6862 14.3599 12.793C14.6281 12.8997 14.8768 13.0404 15.106 13.2148C15.3351 13.3893 15.52 13.6055 15.6607 13.8633C15.8039 14.1211 15.8755 14.4297 15.8755 14.7891C15.8755 15.2422 15.7583 15.6445 15.5239 15.9961C15.2922 16.3477 14.9549 16.625 14.5122 16.8281C14.0721 17.0312 13.5396 17.1328 12.9146 17.1328C12.3156 17.1328 11.7974 17.0378 11.3599 16.8477C10.9224 16.6576 10.5799 16.388 10.3325 16.0391C10.0851 15.6875 9.94843 15.2708 9.92239 14.7891H11.1333C11.1568 15.0781 11.2505 15.319 11.4146 15.5117C11.5812 15.7018 11.7935 15.8438 12.0513 15.9375C12.3117 16.0286 12.5969 16.0742 12.9068 16.0742C13.2479 16.0742 13.5513 16.0208 13.8169 15.9141C14.0851 15.8047 14.2961 15.6536 14.4497 15.4609C14.6034 15.2656 14.6802 15.0378 14.6802 14.7773C14.6802 14.5404 14.6125 14.3464 14.4771 14.1953C14.3443 14.0443 14.1633 13.9193 13.9341 13.8203C13.7075 13.7214 13.451 13.6341 13.1646 13.5586L12.2193 13.3008C11.5786 13.1263 11.0708 12.8698 10.6958 12.5313C10.3234 12.1927 10.1372 11.7448 10.1372 11.1875C10.1372 10.7266 10.2622 10.3242 10.5122 9.98047C10.7622 9.63672 11.1008 9.36979 11.5279 9.17969C11.9549 8.98698 12.4367 8.89062 12.9732 8.89062C13.5148 8.89062 13.9927 8.98568 14.4068 9.17578C14.8234 9.36589 15.1516 9.6276 15.3911 9.96094C15.6307 10.2917 15.7557 10.6719 15.7661 11.1016H14.6021Z" fill="#2E2A94"/>
<path d="M19.5523 17.1133C19.0158 17.1133 18.5536 17.0156 18.1655 16.8203C17.7801 16.625 17.4833 16.3594 17.2749 16.0234C17.0666 15.6849 16.9624 15.3021 16.9624 14.875C16.9624 14.5495 17.0301 14.2604 17.1655 14.0078C17.301 13.7526 17.4898 13.5169 17.732 13.3008C17.9741 13.0846 18.2541 12.8672 18.5718 12.6484L19.8609 11.7383C20.0796 11.5951 20.2502 11.444 20.3726 11.2852C20.495 11.1237 20.5562 10.9245 20.5562 10.6875C20.5562 10.5 20.4754 10.3203 20.314 10.1484C20.1525 9.97656 19.9364 9.89063 19.6655 9.89063C19.478 9.89063 19.3127 9.9362 19.1695 10.0273C19.0288 10.1185 18.9182 10.2357 18.8374 10.3789C18.7593 10.5195 18.7202 10.668 18.7202 10.8242C18.7202 11.0065 18.7697 11.1901 18.8687 11.375C18.9702 11.5599 19.1004 11.7513 19.2593 11.9492C19.4182 12.1445 19.5848 12.3477 19.7593 12.5586L23.4741 17H22.1538L19.0796 13.3867C18.8218 13.082 18.5822 12.7956 18.3609 12.5273C18.1395 12.2565 17.9598 11.9831 17.8218 11.707C17.6864 11.4284 17.6187 11.1276 17.6187 10.8047C17.6187 10.4375 17.702 10.112 17.8687 9.82812C18.0379 9.54167 18.2736 9.31771 18.5757 9.15625C18.8778 8.99479 19.232 8.91406 19.6382 8.91406C20.0497 8.91406 20.4025 8.99479 20.6968 9.15625C20.9937 9.3151 21.2215 9.52734 21.3804 9.79297C21.5419 10.056 21.6226 10.3438 21.6226 10.6563C21.6226 11.0365 21.5275 11.3724 21.3374 11.6641C21.1499 11.9531 20.8908 12.2188 20.5601 12.4609L18.9546 13.6445C18.6421 13.8737 18.4247 14.1003 18.3023 14.3242C18.1825 14.5456 18.1226 14.7188 18.1226 14.8438C18.1226 15.0729 18.1812 15.2852 18.2984 15.4805C18.4182 15.6758 18.5848 15.832 18.7984 15.9492C19.0145 16.0664 19.2671 16.125 19.5562 16.125C19.853 16.125 20.1421 16.0612 20.4234 15.9336C20.7072 15.8034 20.9637 15.6172 21.1929 15.375C21.4247 15.1328 21.6083 14.8424 21.7437 14.5039C21.8791 14.1654 21.9468 13.7865 21.9468 13.3672H23.0015C23.0015 13.8828 22.9429 14.319 22.8257 14.6758C22.7085 15.0299 22.5666 15.319 22.3999 15.543C22.2359 15.7643 22.0809 15.9375 21.9351 16.0625C21.8882 16.1042 21.8439 16.1458 21.8023 16.1875C21.7606 16.2292 21.7163 16.2708 21.6695 16.3125C21.3986 16.5859 21.0705 16.7878 20.6851 16.918C20.3023 17.0482 19.9247 17.1133 19.5523 17.1133Z" fill="#2E2A94"/>
<path d="M24.4829 17V9H27.3345C27.9569 9 28.4725 9.11328 28.8814 9.33984C29.2902 9.56641 29.5962 9.8763 29.7993 10.2695C30.0025 10.6602 30.104 11.1003 30.104 11.5898C30.104 12.082 30.0012 12.5247 29.7954 12.918C29.5923 13.3086 29.285 13.6185 28.8736 13.8477C28.4647 14.0742 27.9504 14.1875 27.3306 14.1875H25.3697V13.1641H27.2212C27.6144 13.1641 27.9335 13.0964 28.1782 12.9609C28.423 12.8229 28.6027 12.6354 28.7173 12.3984C28.8319 12.1615 28.8892 11.8919 28.8892 11.5898C28.8892 11.2878 28.8319 11.0195 28.7173 10.7852C28.6027 10.5508 28.4217 10.3672 28.1743 10.2344C27.9295 10.1016 27.6066 10.0352 27.2056 10.0352H25.69V17H24.4829Z" fill="#2E2A94"/>
</svg>
