<svg width="40" height="40" viewBox="0 0 40 40" fill="none" xmlns="http://www.w3.org/2000/svg">
<circle cx="20" cy="20" r="20" fill="#B4F099"/>
<mask id="mask0_22862_5206" style="mask-type:alpha" maskUnits="userSpaceOnUse" x="0" y="0" width="40" height="40">
<circle cx="20" cy="20" r="20" fill="#2E86C1"/>
</mask>
<g mask="url(#mask0_22862_5206)">
<rect x="2" y="30" width="36" height="10" fill="#2E2A94"/>
<path d="M13.0447 37V31.1818H16.9652V32.196H14.2749V33.5824H16.7635V34.5966H14.2749V35.9858H16.9766V37H13.0447ZM17.7216 32.196V31.1818H22.5V32.196H20.7188V37H19.5028V32.196H17.7216ZM23.2869 37V31.1818H27.1392V32.196H24.517V33.5824H26.8835V34.5966H24.517V37H23.2869Z" fill="#B4F099"/>
</g>
<path d="M32.2469 13.7809C32.2469 21.4362 20.8963 27.6326 20.413 27.8885C20.2855 27.957 20.1431 27.9929 19.9985 27.9929C19.8538 27.9929 19.7114 27.957 19.584 27.8885C19.1006 27.6326 7.75 21.4362 7.75 13.7809C7.75203 11.9832 8.46704 10.2598 9.73817 8.98866C11.0093 7.71753 12.7328 7.00251 14.5304 7.00049C16.7887 7.00049 18.766 7.97162 19.9985 9.61313C21.231 7.97162 23.2082 7.00049 25.4665 7.00049C27.2642 7.00251 28.9876 7.71753 30.2588 8.98866C31.5299 10.2598 32.2449 11.9832 32.2469 13.7809Z" fill="#2E2A94"/>
<path d="M17.7448 17.8518C17.8766 17.6232 17.984 17.4366 18.0907 17.2499C18.515 16.5087 18.9363 15.7652 19.3652 15.027C19.6105 14.6042 19.9746 14.6095 20.2123 15.0392C20.8819 16.252 21.5462 17.4678 22.2135 18.6821C22.2631 18.772 22.3179 18.8581 22.3857 18.9731C22.7377 18.3827 23.0812 17.8259 23.4035 17.2568C23.552 16.994 23.744 16.8896 24.048 16.8934C25.1313 16.9071 26.2138 16.898 27.2971 16.8995C27.6605 16.8995 27.8494 17.0465 27.8501 17.3238C27.8501 17.6011 27.6597 17.7527 27.2994 17.7535C26.3395 17.755 25.3804 17.7611 24.4205 17.7489C24.1973 17.7459 24.0647 17.8061 23.9505 18.0087C23.581 18.6616 23.1909 19.3015 22.8047 19.9444C22.5327 20.397 22.1777 20.3916 21.9241 19.93C21.2697 18.7416 20.6191 17.5501 19.9662 16.3609C19.9121 16.2619 19.8535 16.1659 19.7773 16.0333C19.5274 16.4683 19.2928 16.8736 19.0604 17.2804C18.7725 17.7824 18.4883 18.2868 18.1981 18.788C17.9459 19.2238 17.6023 19.2268 17.3289 18.7972C17.0196 18.3119 16.7141 17.8243 16.3781 17.2926C16.1305 17.704 15.8997 18.0704 15.6864 18.4467C15.5493 18.689 15.3626 18.788 15.0831 18.7835C14.2854 18.7713 13.4871 18.7804 12.6887 18.7789C12.3329 18.7781 12.1425 18.6204 12.1486 18.3393C12.1547 18.0696 12.3367 17.9257 12.6834 17.9249C13.3865 17.9226 14.0897 17.9318 14.7928 17.9165C14.8979 17.9142 15.0412 17.832 15.0991 17.7436C15.3923 17.2896 15.6613 16.8195 15.9431 16.3579C16.1991 15.9396 16.532 15.9389 16.7994 16.3563C17.1095 16.8408 17.4142 17.3284 17.7463 17.8533L17.7448 17.8518Z" fill="#B4F099"/>
</svg>
