<svg width="40" height="40" viewBox="0 0 40 40" fill="none" xmlns="http://www.w3.org/2000/svg">
<circle cx="20" cy="20" r="20" fill="#B4F099"/>
<path d="M16.1924 21.228V22.81H12.1184V25.316H15.2404V26.87H12.1184V31H10.1584V21.228H16.1924Z" fill="#2E2A94"/>
<path d="M19.5422 21.228V31H17.5822V21.228H19.5422Z" fill="#2E2A94"/>
<path d="M29.8367 31H27.8767L23.4387 24.294V31H21.4787V21.214H23.4387L27.8767 27.934V21.214H29.8367V31Z" fill="#2E2A94"/>
<path d="M14.6021 11.1016C14.5604 10.7318 14.3885 10.4453 14.0864 10.2422C13.7843 10.0365 13.4041 9.93359 12.9458 9.93359C12.6177 9.93359 12.3338 9.98568 12.0942 10.0898C11.8547 10.1914 11.6685 10.332 11.5356 10.5117C11.4054 10.6888 11.3403 10.8906 11.3403 11.1172C11.3403 11.3073 11.3846 11.4714 11.4731 11.6094C11.5643 11.7474 11.6828 11.8633 11.8286 11.957C11.9771 12.0482 12.1359 12.125 12.3052 12.1875C12.4744 12.2474 12.6372 12.2969 12.7935 12.3359L13.5747 12.5391C13.8299 12.6016 14.0916 12.6862 14.3599 12.793C14.6281 12.8997 14.8768 13.0404 15.106 13.2148C15.3351 13.3893 15.52 13.6055 15.6606 13.8633C15.8039 14.1211 15.8755 14.4297 15.8755 14.7891C15.8755 15.2422 15.7583 15.6445 15.5239 15.9961C15.2922 16.3477 14.9549 16.625 14.5122 16.8281C14.0721 17.0312 13.5396 17.1328 12.9146 17.1328C12.3156 17.1328 11.7974 17.0378 11.3599 16.8477C10.9224 16.6576 10.5799 16.388 10.3325 16.0391C10.0851 15.6875 9.9484 15.2708 9.92236 14.7891H11.1333C11.1567 15.0781 11.2505 15.319 11.4146 15.5117C11.5812 15.7018 11.7935 15.8438 12.0513 15.9375C12.3117 16.0286 12.5968 16.0742 12.9067 16.0742C13.2479 16.0742 13.5513 16.0208 13.8169 15.9141C14.0851 15.8047 14.2961 15.6536 14.4497 15.4609C14.6034 15.2656 14.6802 15.0378 14.6802 14.7773C14.6802 14.5404 14.6125 14.3464 14.4771 14.1953C14.3442 14.0443 14.1632 13.9193 13.9341 13.8203C13.7075 13.7214 13.451 13.6341 13.1646 13.5586L12.2192 13.3008C11.5786 13.1263 11.0708 12.8698 10.6958 12.5313C10.3234 12.1927 10.1372 11.7448 10.1372 11.1875C10.1372 10.7266 10.2622 10.3242 10.5122 9.98047C10.7622 9.63672 11.1007 9.36979 11.5278 9.17969C11.9549 8.98698 12.4367 8.89062 12.9731 8.89062C13.5148 8.89062 13.9927 8.98568 14.4067 9.17578C14.8234 9.36589 15.1515 9.6276 15.3911 9.96094C15.6307 10.2917 15.7557 10.6719 15.7661 11.1016H14.6021Z" fill="#2E2A94"/>
<path d="M19.5522 17.1133C19.0158 17.1133 18.5535 17.0156 18.1655 16.8203C17.7801 16.625 17.4832 16.3594 17.2749 16.0234C17.0666 15.6849 16.9624 15.3021 16.9624 14.875C16.9624 14.5495 17.0301 14.2604 17.1655 14.0078C17.3009 13.7526 17.4897 13.5169 17.7319 13.3008C17.9741 13.0846 18.2541 12.8672 18.5718 12.6484L19.8608 11.7383C20.0796 11.5951 20.2502 11.444 20.3726 11.2852C20.495 11.1237 20.5562 10.9245 20.5562 10.6875C20.5562 10.5 20.4754 10.3203 20.314 10.1484C20.1525 9.97656 19.9364 9.89063 19.6655 9.89063C19.478 9.89063 19.3127 9.9362 19.1694 10.0273C19.0288 10.1185 18.9181 10.2357 18.8374 10.3789C18.7593 10.5195 18.7202 10.668 18.7202 10.8242C18.7202 11.0065 18.7697 11.1901 18.8687 11.375C18.9702 11.5599 19.1004 11.7513 19.2593 11.9492C19.4181 12.1445 19.5848 12.3477 19.7593 12.5586L23.4741 17H22.1538L19.0796 13.3867C18.8218 13.082 18.5822 12.7956 18.3608 12.5273C18.1395 12.2565 17.9598 11.9831 17.8218 11.707C17.6864 11.4284 17.6187 11.1276 17.6187 10.8047C17.6187 10.4375 17.702 10.112 17.8687 9.82812C18.0379 9.54167 18.2736 9.31771 18.5757 9.15625C18.8778 8.99479 19.2319 8.91406 19.6382 8.91406C20.0496 8.91406 20.4025 8.99479 20.6968 9.15625C20.9937 9.3151 21.2215 9.52734 21.3804 9.79297C21.5418 10.056 21.6226 10.3438 21.6226 10.6563C21.6226 11.0365 21.5275 11.3724 21.3374 11.6641C21.1499 11.9531 20.8908 12.2188 20.5601 12.4609L18.9546 13.6445C18.6421 13.8737 18.4246 14.1003 18.3022 14.3242C18.1825 14.5456 18.1226 14.7188 18.1226 14.8438C18.1226 15.0729 18.1812 15.2852 18.2983 15.4805C18.4181 15.6758 18.5848 15.832 18.7983 15.9492C19.0145 16.0664 19.2671 16.125 19.5562 16.125C19.853 16.125 20.1421 16.0612 20.4233 15.9336C20.7072 15.8034 20.9637 15.6172 21.1929 15.375C21.4246 15.1328 21.6082 14.8424 21.7437 14.5039C21.8791 14.1654 21.9468 13.7865 21.9468 13.3672H23.0015C23.0015 13.8828 22.9429 14.319 22.8257 14.6758C22.7085 15.0299 22.5666 15.319 22.3999 15.543C22.2358 15.7643 22.0809 15.9375 21.9351 16.0625C21.8882 16.1042 21.8439 16.1458 21.8022 16.1875C21.7606 16.2292 21.7163 16.2708 21.6694 16.3125C21.3986 16.5859 21.0705 16.7878 20.6851 16.918C20.3022 17.0482 19.9246 17.1133 19.5522 17.1133Z" fill="#2E2A94"/>
<path d="M24.4829 17V9H27.3345C27.9569 9 28.4725 9.11328 28.8813 9.33984C29.2902 9.56641 29.5962 9.8763 29.7993 10.2695C30.0024 10.6602 30.104 11.1003 30.104 11.5898C30.104 12.082 30.0011 12.5247 29.7954 12.918C29.5923 13.3086 29.285 13.6185 28.8735 13.8477C28.4647 14.0742 27.9504 14.1875 27.3306 14.1875H25.3696V13.1641H27.2212C27.6144 13.1641 27.9334 13.0964 28.1782 12.9609C28.423 12.8229 28.6027 12.6354 28.7173 12.3984C28.8319 12.1615 28.8892 11.8919 28.8892 11.5898C28.8892 11.2878 28.8319 11.0195 28.7173 10.7852C28.6027 10.5508 28.4217 10.3672 28.1743 10.2344C27.9295 10.1016 27.6066 10.0352 27.2056 10.0352H25.6899V17H24.4829Z" fill="#2E2A94"/>
</svg>
