<svg width="40" height="40" viewBox="0 0 40 40" fill="none" xmlns="http://www.w3.org/2000/svg">
<circle cx="20" cy="20" r="20" fill="#B4F099"/>
<mask id="mask0_22862_5197" style="mask-type:alpha" maskUnits="userSpaceOnUse" x="0" y="0" width="40" height="40">
<circle cx="20" cy="20" r="20" fill="#D9D9D9"/>
</mask>
<g mask="url(#mask0_22862_5197)">
<path d="M-0.231009 21.374L6.38525 20.2767L8.38286 17.8026L11.0721 19.4993L13.7018 15.4578L16.952 20.3817L18.8562 16.4795L21.9081 20.5425L23.7536 17.3959L26.9946 18.3748L29.6808 16.4128L31.7133 14.2623L34.781 15.5669L39.7433 14.7438" stroke="#2E2A94" stroke-width="2" stroke-linejoin="round"/>
</g>
<mask id="mask1_22862_5197" style="mask-type:alpha" maskUnits="userSpaceOnUse" x="0" y="0" width="40" height="40">
<circle cx="20" cy="20" r="20" fill="#2E86C1"/>
</mask>
<g mask="url(#mask1_22862_5197)">
<rect x="2" y="30" width="36" height="10" fill="#2E2A94"/>
<path d="M13.0447 37V31.1818H16.9652V32.196H14.2749V33.5824H16.7635V34.5966H14.2749V35.9858H16.9766V37H13.0447ZM17.7216 32.196V31.1818H22.5V32.196H20.7188V37H19.5028V32.196H17.7216ZM23.2869 37V31.1818H27.1392V32.196H24.517V33.5824H26.8835V34.5966H24.517V37H23.2869Z" fill="#B4F099"/>
</g>
</svg>
