<svg width="40" height="40" viewBox="0 0 40 40" fill="none" xmlns="http://www.w3.org/2000/svg">
<circle cx="20" cy="20" r="20" fill="#9DADFE"/>
<path d="M10.9762 21.5906L20.8859 6.72311C20.991 6.5661 21.1429 6.44936 21.3186 6.39049C21.4943 6.33162 21.6843 6.33383 21.8599 6.39677C22.0356 6.45971 22.1874 6.57997 22.2923 6.73941C22.3973 6.89885 22.4498 7.08882 22.4419 7.28064L22.0614 15.5422L28.487 17.0313C28.625 17.0631 28.7536 17.1297 28.8613 17.2253C28.969 17.3209 29.0525 17.4423 29.1044 17.5789C29.1562 17.7155 29.1748 17.8629 29.1584 18.0079C29.1419 18.153 29.0911 18.2912 29.0104 18.4102L19.1007 33.2777C18.9956 33.4347 18.8437 33.5514 18.668 33.6103C18.4923 33.6692 18.3023 33.667 18.1266 33.604C17.951 33.5411 17.7992 33.4208 17.6942 33.2614C17.5893 33.1019 17.5368 32.912 17.5447 32.7201L17.9281 24.4492L11.503 22.9634C11.3659 22.9311 11.2383 22.8644 11.1313 22.7692C11.0244 22.674 10.9414 22.5531 10.8898 22.4174C10.8381 22.2816 10.8194 22.1351 10.8352 21.9908C10.851 21.8465 10.9009 21.7089 10.9804 21.59L10.9762 21.5906Z" fill="#2E2A94"/>
<path d="M13.9605 9.34848L11.7022 12.7818C11.6782 12.818 11.6435 12.8451 11.6031 12.8589C11.5628 12.8727 11.5191 12.8724 11.4786 12.8582C11.4381 12.844 11.4031 12.8165 11.3787 12.78C11.3543 12.7435 11.342 12.6998 11.3435 12.6557L11.4195 10.7551L9.93956 10.4216C9.90778 10.4145 9.87811 10.3993 9.8532 10.3775C9.82829 10.3557 9.80891 10.3279 9.7968 10.2965C9.78468 10.2652 9.78021 10.2313 9.78378 10.1979C9.78735 10.1645 9.79885 10.1327 9.81726 10.1052L12.0756 6.67192C12.0995 6.63566 12.1343 6.6086 12.1746 6.59481C12.215 6.58103 12.2587 6.58127 12.2992 6.5955C12.3396 6.60973 12.3747 6.63718 12.3991 6.6737C12.4235 6.71022 12.4358 6.75384 12.4342 6.79797L12.3576 8.70076L13.8374 9.03349C13.869 9.04072 13.8985 9.05588 13.9232 9.07763C13.9479 9.09938 13.9672 9.12706 13.9792 9.15821C13.9913 9.18936 13.9958 9.22303 13.9924 9.25624C13.989 9.28945 13.9777 9.32118 13.9596 9.34862L13.9605 9.34848Z" fill="#2E2A94"/>
<path d="M28.9605 29.3485L26.7022 32.7818C26.6782 32.818 26.6435 32.8451 26.6031 32.8589C26.5628 32.8727 26.5191 32.8724 26.4786 32.8582C26.4381 32.844 26.4031 32.8165 26.3787 32.78C26.3543 32.7435 26.342 32.6998 26.3435 32.6557L26.4195 30.7551L24.9396 30.4216C24.9078 30.4145 24.8781 30.3993 24.8532 30.3775C24.8283 30.3557 24.8089 30.3279 24.7968 30.2965C24.7847 30.2652 24.7802 30.2313 24.7838 30.1979C24.7874 30.1645 24.7989 30.1327 24.8173 30.1052L27.0756 26.6719C27.0995 26.6357 27.1343 26.6086 27.1746 26.5948C27.215 26.581 27.2587 26.5813 27.2992 26.5955C27.3396 26.6097 27.3747 26.6372 27.3991 26.6737C27.4235 26.7102 27.4358 26.7538 27.4342 26.798L27.3576 28.7008L28.8374 29.0335C28.869 29.0407 28.8985 29.0559 28.9232 29.0776C28.9479 29.0994 28.9672 29.1271 28.9792 29.1582C28.9913 29.1894 28.9958 29.223 28.9924 29.2562C28.989 29.2894 28.9777 29.3212 28.9596 29.3486L28.9605 29.3485Z" fill="#2E2A94"/>
</svg>
