<svg width="40" height="40" viewBox="0 0 40 40" fill="none" xmlns="http://www.w3.org/2000/svg">
<circle cx="20" cy="20" r="20" fill="#9DADFE"/>
<path d="M18.9808 33.4643C18.9035 33.3805 19.0146 33.3107 18.9971 33.231C18.9948 32.9221 19.1862 32.6766 19.2723 32.3967C19.3031 32.2967 19.3503 32.2018 19.3852 32.1024C19.5597 31.7283 19.7017 31.3408 19.8564 30.9591C19.9035 30.8573 19.9373 30.7497 19.9809 30.6467C20.1014 30.3599 20.2119 30.0696 20.3253 29.7804C20.4976 29.3569 20.6698 28.9339 20.8449 28.5116C20.9118 28.3556 20.9764 28.1986 21.0316 28.038C21.2609 27.4795 21.4912 26.9221 21.717 26.3624C21.8717 26.0931 21.9503 26.0733 22.1667 26.2862C22.3593 26.4753 22.5664 26.6458 22.7677 26.8232C22.8305 26.8843 22.8928 26.9465 22.9894 26.8837C23.1377 26.7999 23.2855 26.7167 23.4443 26.6551C23.7084 26.5626 23.9481 26.4247 24.1715 26.2571C24.3688 26.153 24.5398 26.0139 24.7039 25.8644C24.9575 25.6765 25.1827 25.4572 25.3968 25.2262C25.5289 25.0482 25.6906 24.8946 25.8139 24.7096C26.0106 24.471 26.1712 24.2086 26.3242 23.9416C26.5575 23.5646 26.743 23.1655 26.8856 22.7454C26.91 22.6774 26.938 22.6111 26.9635 22.5436C27.0758 22.1997 27.1625 21.8501 27.2254 21.494C27.2864 21.1426 27.3411 20.7906 27.3336 20.4323C27.4069 20.0116 27.319 19.5945 27.3033 19.1762C27.2318 18.6421 27.1043 18.122 26.9106 17.6187C26.835 17.3662 26.7 17.1411 26.5842 16.9066C26.483 16.6885 26.3597 16.4837 26.2264 16.2835C26.0821 16.0665 26.0164 15.8332 26.0839 15.5737C26.2503 15.2706 26.4638 14.9984 26.6616 14.7162C26.7628 14.576 26.8513 14.4265 26.9606 14.2926C27.173 14.0209 27.3603 13.7295 27.5989 13.4781C27.7565 13.2536 27.9602 13.0709 28.1539 12.8795C28.4646 12.6427 28.7694 12.3949 29.1743 12.3343C29.6409 12.2372 30.0697 12.3466 30.4764 12.5746C31.3113 13.061 31.896 13.7859 32.4009 14.5882C32.533 14.8017 32.636 15.0298 32.7465 15.2543C32.7838 15.3626 32.8291 15.4673 32.8774 15.5708C33.1369 16.1608 33.2736 16.785 33.3975 17.4134C33.422 17.5396 33.4482 17.6653 33.472 17.7915C33.5459 18.3657 33.5913 18.9417 33.639 19.5183C33.6797 19.8191 33.6611 20.1204 33.6588 20.4218C33.6931 20.7901 33.5866 21.1508 33.6029 21.5173C33.5709 21.885 33.5244 22.2509 33.4621 22.6151C33.372 23.0631 33.2876 23.5128 33.1689 23.9544C33.0461 24.3029 32.9368 24.6566 32.8169 25.0069C32.7913 25.0738 32.7692 25.1418 32.7448 25.2093C32.6086 25.5171 32.4888 25.8318 32.3457 26.1361C32.1351 26.5527 31.9152 26.9646 31.6487 27.3491C31.6266 27.3835 31.6027 27.4155 31.5783 27.448C31.3066 27.825 31.0221 28.1922 30.712 28.5383C30.6451 28.6023 30.5788 28.6681 30.5154 28.735C30.1221 29.1219 29.7468 29.5274 29.3169 29.8764C29.289 29.9061 29.2599 29.934 29.2302 29.962C28.464 30.6031 27.6727 31.2111 26.8728 31.8091C26.771 31.8912 26.6587 31.9592 26.5627 32.0488C26.4539 32.1483 26.5202 32.2385 26.5807 32.3252C26.7221 32.5282 26.8385 32.7464 26.9769 32.9506C27.0275 33.0408 27.1084 33.1182 27.1049 33.2328C27.1131 33.2793 27.1241 33.3235 27.1742 33.3445C27.1875 33.5527 27.0281 33.4515 26.9531 33.4527C26.1752 33.4637 25.3974 33.4643 24.6195 33.4678C22.7392 33.4666 20.8588 33.4661 18.9785 33.4649L18.9808 33.4643Z" fill="#2E2A94"/>
<path d="M20.899 6.52984C20.202 6.53914 19.5045 6.52751 18.8069 6.52344C18.0314 6.52344 17.2564 6.52344 16.4809 6.52344H12.7708C12.8889 6.70205 12.9675 6.82131 13.046 6.94058C13.1153 7.20937 13.3468 7.37459 13.4725 7.60731C13.6714 7.90286 13.668 7.92322 13.3712 8.11521C13.2427 8.19841 13.1071 8.27055 12.9791 8.35433C12.7819 8.48756 12.5899 8.62835 12.3944 8.76332C12.1716 8.90703 11.9651 9.07283 11.7533 9.23166C11.463 9.44867 11.1994 9.69884 10.9208 9.92923C10.4495 10.4511 9.88342 10.881 9.45581 11.4448C9.23996 11.7357 9.01888 12.0225 8.79489 12.307C8.65177 12.5467 8.50982 12.787 8.35332 13.0185C8.26721 13.157 8.18809 13.2995 8.09791 13.4351C7.88265 13.8615 7.6575 14.2833 7.47249 14.7249C7.3701 14.9751 7.27585 15.2282 7.18683 15.483C7.14669 15.6063 7.11062 15.7308 7.06233 15.8513C6.96168 16.1183 6.90757 16.3987 6.8267 16.6716C6.66613 17.2441 6.59108 17.834 6.47472 18.4158C6.44098 18.6374 6.45436 18.8638 6.402 19.0831C6.41887 19.5351 6.30659 19.9814 6.33742 20.4346C6.33509 20.6976 6.31939 20.9611 6.35778 21.2235C6.42527 21.8024 6.46251 22.3847 6.59108 22.9549C6.66439 23.2539 6.7534 23.5477 6.83252 23.845C7.1304 24.6787 7.38755 25.531 7.94665 26.2432C8.10431 26.3933 8.21892 26.5789 8.3603 26.7423C8.55113 26.982 8.75824 27.2066 8.99678 27.3998C9.13873 27.5312 9.30629 27.6307 9.45406 27.7546C9.75077 27.9367 10.0603 28.0857 10.3849 28.1956H17.7312C17.7824 28.1852 17.833 28.1735 17.8842 28.159C18.004 28.0845 17.9703 28.006 17.8871 27.9321C17.8155 27.8693 17.7265 27.832 17.6445 27.7843C17.4147 27.6586 17.1953 27.5173 16.9807 27.3689C16.8108 27.2648 16.6618 27.1327 16.4966 27.0228C16.1755 26.7994 15.8968 26.5253 15.5943 26.2786C15.489 26.1797 15.3866 26.0774 15.2871 25.9726C14.9973 25.7068 14.7448 25.4065 14.4871 25.111C14.3772 24.9824 14.2753 24.8474 14.1823 24.7061C13.9757 24.4414 13.7709 24.1749 13.6022 23.8834C13.1676 23.2237 12.811 22.5267 12.5719 21.7715C12.3892 21.1461 12.2292 20.5166 12.2612 19.8557C12.2624 19.7917 12.2635 19.7283 12.2606 19.6643C12.2443 19.0453 12.377 18.4518 12.5678 17.8677C12.8372 17.0724 13.2595 16.3644 13.7826 15.7128C13.9141 15.5452 14.0834 15.4103 14.1997 15.2293C14.394 14.9797 14.6646 14.8133 14.8868 14.594C15.041 14.4753 15.1829 14.3415 15.3458 14.2345C15.6711 13.9802 16.019 13.7615 16.375 13.5549C16.4559 13.5072 16.5414 13.4688 16.6264 13.4293C16.8073 13.3391 16.99 13.2518 17.168 13.1558C17.3216 13.0732 17.4321 13.1017 17.5444 13.2344C17.7125 13.4328 17.8656 13.6434 18.0407 13.8359C18.1902 14.0006 18.2903 13.9825 18.3868 13.7824C18.4369 13.6789 18.4793 13.5706 18.5212 13.463C18.5969 13.2227 18.6929 12.99 18.7935 12.7596C18.8488 12.6002 18.9134 12.4443 18.9803 12.2895C19.1659 11.8515 19.316 11.3994 19.5015 10.9613C19.7168 10.4226 19.9088 9.87454 20.1287 9.33755C20.184 9.17581 20.2486 9.01756 20.3166 8.86106C20.4923 8.42065 20.6675 7.98023 20.835 7.53691C20.9095 7.27743 21.0823 7.04937 21.0776 6.76488C21.1509 6.58569 21.105 6.52693 20.8996 6.52984H20.899Z" fill="#2E2A94"/>
<path d="M21.3525 11.8862C20.2163 12.166 19.2004 13.6647 18.6902 14.5456C18.6699 14.588 18.6495 14.6305 18.6291 14.673C18.621 14.6788 18.614 14.6858 18.607 14.6922C18.4639 14.947 18.3743 15.1285 18.3499 15.1785C18.2306 15.4735 18.1271 15.7755 18.0014 16.0681C17.7471 16.7412 17.4917 17.4144 17.2317 18.0852C17.0984 18.5017 16.9367 18.9078 16.7808 19.3156C16.6836 19.5839 16.59 19.8538 16.4794 20.1168C16.4329 20.2651 16.3846 20.4129 16.3142 20.5525C16.1903 20.8743 16.0716 21.1983 15.95 21.5212C15.797 21.9273 15.6777 22.3456 15.4886 22.7377C15.4072 22.9158 15.395 23.1182 15.2967 23.2904C15.2606 23.3893 15.2292 23.49 15.1948 23.5895C15.118 23.8158 15.0855 24.0415 15.1018 24.2667L19.7654 27.6253C19.8433 27.5805 19.9207 27.5241 19.9981 27.4555C20.3419 27.0936 20.5013 26.6183 20.7672 26.2087C20.8975 26.0004 21.0017 25.7776 21.1174 25.5606C21.2035 25.3744 21.3246 25.208 21.4159 25.0247C21.6085 24.6495 21.7603 24.255 21.9494 23.8775C22.0646 23.561 22.2048 23.2549 22.3345 22.9448C22.359 22.8791 22.3817 22.8128 22.4108 22.7488C22.5882 22.327 22.7645 21.904 22.928 21.4764C23.1095 20.9906 23.3021 20.5089 23.5034 20.0307C23.5964 19.7758 23.6959 19.5233 23.8036 19.2743C23.9647 18.8898 24.0875 18.4901 24.2603 18.1096C24.3801 17.8047 24.4808 17.4929 24.6111 17.1921C24.6553 17.0874 24.6902 16.9798 24.7315 16.8739C24.8589 16.5266 25.0032 16.1856 25.1359 15.8395C25.2848 15.4136 25.4663 15.0011 25.6467 14.5875C25.6915 14.488 25.738 14.3896 25.7886 14.2925C25.948 13.9696 26.1406 13.6665 26.3483 13.3727C26.5321 13.1836 26.6665 12.9491 26.8754 12.7822C27.1227 12.5983 27.3309 12.3609 27.6218 12.237C27.7318 12.1626 27.8866 12.0986 27.8441 11.9362C26.7788 11.9781 21.3531 11.8833 21.3531 11.8833L21.3525 11.8862Z" fill="#2E2A94"/>
</svg>
