<svg width="40" height="40" viewBox="0 0 40 40" fill="none" xmlns="http://www.w3.org/2000/svg">
<circle cx="20" cy="20" r="20" fill="#9DADFE"/>
<mask id="mask0_11529_12575" style="mask-type:alpha" maskUnits="userSpaceOnUse" x="0" y="0" width="40" height="40">
<circle cx="20" cy="20" r="20" fill="#2E86C1"/>
</mask>
<g mask="url(#mask0_11529_12575)">
<rect x="2" y="30" width="36" height="10" fill="#2E2A94"/>
<path d="M17.4766 30.368V31.408H15.4446V32.616H17.2366V33.656H15.4446V34.96H17.4766V36H14.0766V30.368H17.4766ZM18.2707 31.424V30.384H22.7027V31.424H21.1667V36H19.7987V31.424H18.2707ZM23.5219 36V30.384H27.1779V31.424H24.8899V32.632H26.6019V33.672H24.8899V36H23.5219Z" fill="white"/>
</g>
<g clip-path="url(#clip0_11529_12575)">
<path d="M27.3829 12.3507L29.8816 10.3177L28.7725 8.87626L33.5 8.18921L31.8312 12.5975L30.7496 11.2975L30.6498 11.3102L21.3446 19.012L15.8264 15.9471L8.29976 22.5982C8.25597 22.6141 8.20418 22.5361 8.17811 22.5086C8.021 22.3404 7.81871 22.1058 7.6755 21.9256C7.62614 21.8632 7.46869 21.6953 7.50553 21.6311C7.50901 21.6251 7.57713 21.6036 7.60564 21.5757C8.31645 20.8764 9.13188 20.2672 9.82948 19.5633V15.2075H12.6797V17.0062C12.7655 16.9897 12.8549 16.9036 12.9237 16.8482C13.5417 16.347 14.1246 15.7461 14.7304 15.2251V11.5042H17.5806V15.472L19.6314 16.6183V12.5975H22.4816V16.3537L22.5511 16.3894L24.5323 14.7313V8.70026L24.5845 8.64736H27.3825V12.3507H27.3829Z" fill="#2E2A94"/>
<path d="M12.6828 26.3526H9.84996L9.80859 26.2827L9.8503 22.6144L12.6828 20.1099V26.3526Z" fill="#2E2A94"/>
<path d="M17.5768 18.2758V22.614H14.7266V18.2935L15.8232 17.3218L17.5768 18.2758Z" fill="#2E2A94"/>
<path d="M22.483 19.4751V23.7427H19.6328V19.4751L21.3196 20.3914L22.483 19.4751Z" fill="#2E2A94"/>
<path d="M27.3854 19.7926H24.5352V17.7646L27.3854 15.4192V19.7926Z" fill="#2E2A94"/>
<path d="M26.4076 6.70776H25.5039V8.4007H26.4076V6.70776Z" fill="#2E2A94"/>
<path d="M21.5092 10.658H20.6055V12.3509H21.5092V10.658Z" fill="#2E2A94"/>
<path d="M11.7084 26.5996V28.2396L11.6563 28.2925H10.8047V26.5996H11.7084Z" fill="#2E2A94"/>
<path d="M21.5092 25.6826H20.6055V24.0425L20.6576 23.9896H21.4571L21.5092 24.0425V25.6826Z" fill="#2E2A94"/>
<path d="M16.6108 9.56445H15.707V11.2221H16.6108V9.56445Z" fill="#2E2A94"/>
<path d="M11.7084 13.2676H10.8047V14.9252H11.7084V13.2676Z" fill="#2E2A94"/>
<path d="M26.4076 20.075H25.5039V21.7326H26.4076V20.075Z" fill="#2E2A94"/>
<path d="M16.6108 22.8965H15.707V24.5542H16.6108V22.8965Z" fill="#2E2A94"/>
</g>
<defs>
<clipPath id="clip0_11529_12575">
<rect width="26" height="26" fill="white" transform="translate(7.5 4.5)"/>
</clipPath>
</defs>
</svg>
