<svg width="40" height="40" viewBox="0 0 40 40" fill="none" xmlns="http://www.w3.org/2000/svg">
<circle cx="20" cy="20" r="20" fill="#9DADFE"/>
<path d="M27.4123 14.4548L30.1033 12.2655L28.9088 10.7132L34 9.97327L32.2029 14.7207L31.038 13.3207L30.9306 13.3343L20.9096 21.6286L14.9669 18.3279L6.86128 25.4907C6.81412 25.5077 6.75834 25.4238 6.73027 25.3942C6.56108 25.213 6.34322 24.9604 6.189 24.7663C6.13585 24.6991 5.96628 24.5183 6.00596 24.4492C6.0097 24.4427 6.08307 24.4195 6.11376 24.3895C6.87925 23.6363 7.75741 22.9804 8.50867 22.2223V17.5314H11.5781V19.4685C11.6706 19.4507 11.7668 19.358 11.8409 19.2984C12.5064 18.7586 13.1342 18.1114 13.7866 17.5504V13.5432H16.8561V17.8163L19.0646 19.0507V14.7207H22.134V18.7658L22.2089 18.8042L24.3425 17.0186V10.5236L24.3986 10.4667H27.4119V14.4548H27.4123Z" fill="#2E2A94"/>
<path d="M11.5796 29.5337H8.52892L8.48438 29.4585L8.52929 25.5079L11.5796 22.8108V29.5337Z" fill="#2E2A94"/>
<path d="M16.8546 20.8355V25.5074H13.7852V20.8545L14.9661 19.8081L16.8546 20.8355Z" fill="#2E2A94"/>
<path d="M22.1358 22.1272V26.7231H19.0664V22.1272L20.883 23.114L22.1358 22.1272Z" fill="#2E2A94"/>
<path d="M27.4132 22.4691H24.3438V20.2851L27.4132 17.7593V22.4691Z" fill="#2E2A94"/>
<path d="M26.3639 8.37744H25.3906V10.2006H26.3639V8.37744Z" fill="#2E2A94"/>
<path d="M21.0865 12.6316H20.1133V14.4548H21.0865V12.6316Z" fill="#2E2A94"/>
<path d="M10.5318 29.7993V31.5655L10.4757 31.6225H9.55859V29.7993H10.5318Z" fill="#2E2A94"/>
<path d="M21.0865 28.8119H20.1133V27.0457L20.1694 26.9888H21.0304L21.0865 27.0457V28.8119Z" fill="#2E2A94"/>
<path d="M15.8092 11.4541H14.8359V13.2393H15.8092V11.4541Z" fill="#2E2A94"/>
<path d="M10.5318 15.4421H9.55859V17.2273H10.5318V15.4421Z" fill="#2E2A94"/>
<path d="M26.3639 22.7729H25.3906V24.5581H26.3639V22.7729Z" fill="#2E2A94"/>
<path d="M15.8092 25.8115H14.8359V27.5967H15.8092V25.8115Z" fill="#2E2A94"/>
</svg>
