<svg width="40" height="40" viewBox="0 0 40 40" fill="none" xmlns="http://www.w3.org/2000/svg">
<circle cx="20" cy="20" r="20" fill="#9DADFE"/>
<path d="M25.9414 13.0116C26.2486 13.257 26.525 13.5639 26.7707 13.84L30.3951 10.2501C30.5794 10.3421 30.7944 10.3728 31.0094 10.3728C31.8694 10.3728 32.5758 9.66712 32.5758 8.80799C32.5758 7.94887 31.8694 7.24316 31.0094 7.24316C30.1493 7.24316 29.4429 7.94887 29.4429 8.80799C29.4429 9.02278 29.4736 9.23756 29.5658 9.42165L25.9414 13.0116Z" fill="#2E2A94"/>
<path d="M15.1696 25.7052C14.8624 25.4597 14.586 25.1529 14.3403 24.8767L10.7159 28.4666C10.5316 28.4053 10.3166 28.3439 10.1016 28.3439C9.2416 28.3439 8.53516 29.0496 8.53516 29.9087C8.53516 30.7678 9.2416 31.4735 10.1016 31.4735C10.9616 31.4735 11.6681 30.7678 11.6681 29.9087C11.6681 29.6939 11.6374 29.4792 11.5452 29.2951L15.1696 25.7052Z" fill="#2E2A94"/>
<path d="M30.8648 28.4039C30.6498 28.4039 30.4348 28.4346 30.2505 28.5267L26.6569 24.9368C26.4112 25.2436 26.104 25.5197 25.7969 25.7652L29.3905 29.3551C29.3291 29.5392 29.2677 29.754 29.2677 29.9688C29.2677 30.8279 29.9741 31.5336 30.8341 31.5336C31.6941 31.5336 32.4006 30.8279 32.4006 29.9688C32.4006 29.079 31.7249 28.4039 30.8648 28.4039Z" fill="#2E2A94"/>
<path d="M22.9719 7.68195L24.4155 6.82283C24.6612 7.00693 24.999 7.12966 25.3676 7.12966C26.2276 7.12966 26.9341 6.42395 26.9341 5.56483C26.9341 4.70571 26.2276 4 25.3676 4C24.5076 4 23.8012 4.70571 23.8012 5.56483C23.8012 5.6262 23.8012 5.71825 23.8319 5.77961L22.0811 6.82283C21.8968 6.94556 21.8047 7.12966 21.8047 7.34444V10.5662C22.204 10.6275 22.6033 10.7196 23.0026 10.8423V7.68195H22.9719Z" fill="#2E2A94"/>
<path d="M15.1266 7.36689C15.4951 7.36689 15.8023 7.24416 16.0787 7.02938L17.5223 7.8885V11.0488C17.8909 10.9261 18.2902 10.8341 18.7202 10.7727V7.55099C18.7202 7.3362 18.5973 7.15211 18.4438 7.02938L16.693 5.98615C16.693 5.92479 16.7237 5.83274 16.7237 5.77137C16.7237 4.91225 16.0173 4.20654 15.1573 4.20654C14.2973 4.20654 13.5908 4.91225 13.5908 5.77137C13.5601 6.66118 14.2665 7.36689 15.1266 7.36689Z" fill="#2E2A94"/>
<path d="M17.8489 31.2895L16.4053 32.1486C16.1289 31.9645 15.8218 31.8418 15.4532 31.8418C14.5932 31.8418 13.8867 32.5475 13.8867 33.4066C13.8867 34.2657 14.5932 34.9714 15.4532 34.9714C16.3132 34.9714 17.0196 34.2657 17.0196 33.4066C17.0196 33.3453 17.0196 33.2532 16.9889 33.1918L18.7397 32.1486C18.924 32.0259 19.0161 31.8418 19.0161 31.627V28.4053C18.6168 28.3439 18.2175 28.2519 17.8182 28.1292V31.2895H17.8489Z" fill="#2E2A94"/>
<path d="M25.6762 31.9333C25.3076 31.9333 25.0005 32.0561 24.724 32.2709L23.3112 31.4117V28.2207C22.9426 28.3434 22.5433 28.4355 22.1133 28.4969V31.7186C22.1133 31.9333 22.2361 32.1174 22.3897 32.2402L24.1405 33.2834C24.1405 33.3448 24.1097 33.4368 24.1097 33.4982C24.1097 34.3573 24.8162 35.063 25.6762 35.063C26.5362 35.063 27.2427 34.3573 27.2427 33.4982C27.2427 32.6391 26.5669 31.9333 25.6762 31.9333Z" fill="#2E2A94"/>
<path d="M34.4319 22.9614C34.3705 22.9614 34.2784 22.9921 34.2169 22.9921L33.1726 21.2432C33.0805 21.0591 32.8655 20.967 32.6812 20.967H29.4561C29.3947 21.3659 29.3025 21.7648 29.1797 22.1637H32.3433L33.2033 23.6058C33.0191 23.8819 32.8655 24.1888 32.8655 24.5569C32.8655 25.4161 33.5719 26.1218 34.4319 26.1218C35.292 26.1218 35.9984 25.4161 35.9984 24.5569C35.9984 23.6671 35.292 22.9614 34.4319 22.9614Z" fill="#2E2A94"/>
<path d="M32.5256 14.4442C32.5256 14.7817 32.6485 15.1193 32.8635 15.3954L32.0035 16.8068H28.8398C28.9627 17.175 29.0548 17.5739 29.1163 18.0035H32.3413C32.5563 18.0035 32.7406 17.8807 32.8328 17.7273L33.8771 15.9784C33.9385 15.9784 34.0307 16.0091 34.0921 16.0091C34.9521 16.0091 35.6586 15.3033 35.6586 14.4442C35.6586 13.5851 34.9521 12.8794 34.0921 12.8794C33.2321 12.8794 32.5256 13.5544 32.5256 14.4442Z" fill="#2E2A94"/>
<path d="M6.69874 16.2342C6.76017 16.2342 6.85231 16.2035 6.91374 16.2035L7.95805 17.9524C8.08091 18.1365 8.2652 18.2592 8.4802 18.2592H11.7053C11.7667 17.8603 11.8588 17.4615 11.9817 17.0626H8.78735L7.92733 15.6205C8.11162 15.3443 8.23448 15.0375 8.23448 14.6693C8.23448 13.8102 7.52804 13.1045 6.66802 13.1045C5.80801 13.1045 5.10156 13.8102 5.10156 14.6693C5.13228 15.5284 5.83872 16.2342 6.69874 16.2342Z" fill="#2E2A94"/>
<path d="M8.16364 24.6402C8.16364 24.3027 8.04078 23.9652 7.85649 23.689L8.7165 22.2469H11.8801C11.7573 21.8787 11.6651 21.4799 11.6037 21.0503H8.34792C8.13292 21.0503 7.94863 21.173 7.82577 21.3264L6.78146 23.0754C6.72003 23.0754 6.62789 23.0447 6.56646 23.0447C5.70644 23.0447 5 23.7504 5 24.6095C5 25.4686 5.70644 26.1743 6.56646 26.1743C7.45719 26.205 8.16364 25.53 8.16364 24.6402Z" fill="#2E2A94"/>
<path d="M9.92193 10.8229C10.1369 10.8229 10.3519 10.7923 10.5362 10.7002L14.1606 14.2901C14.4063 13.9833 14.7135 13.7071 14.9899 13.4617L11.3655 9.84109C11.427 9.65699 11.4884 9.44221 11.4884 9.22743C11.4884 8.36831 10.7819 7.6626 9.92193 7.6626C9.06191 7.6626 8.35547 8.36831 8.35547 9.22743C8.35547 10.0866 9.06191 10.8229 9.92193 10.8229Z" fill="#2E2A94"/>
<ellipse cx="20.5022" cy="19.5993" rx="9.17016" ry="9.17025" fill="#2E2A94"/>
<path d="M24.5632 16.5782L24.1261 18.1912H15.9565L16.3998 16.5782H24.5632ZM20.4569 26.1084L16.1474 20.9246L16.1412 19.5579H18.2714C18.7803 19.5579 19.2051 19.4738 19.5457 19.3055C19.8905 19.1331 20.1511 18.893 20.3276 18.5852C20.5082 18.2733 20.5985 17.908 20.5985 17.4894C20.5985 16.8614 20.4138 16.3566 20.0444 15.9749C19.675 15.5932 19.084 15.4023 18.2714 15.4023H15.9565L16.4367 13.5H18.2714C19.3056 13.5 20.1614 13.6601 20.8386 13.9802C21.5199 14.2962 22.0288 14.7436 22.3654 15.3223C22.706 15.901 22.8764 16.5782 22.8764 17.3539C22.8764 18.0393 22.7512 18.6509 22.5008 19.1885C22.2505 19.7262 21.8564 20.1674 21.3188 20.5122C20.7811 20.8569 20.0772 21.0868 19.2071 21.2017L19.1333 21.2263L23.0241 25.9975V26.1084H20.4569ZM24.5755 13.5L24.1261 15.1376L17.5018 15.113L17.9512 13.5H24.5755Z" fill="white"/>
</svg>
