<svg width="40" height="40" viewBox="0 0 40 40" fill="none" xmlns="http://www.w3.org/2000/svg">
<circle cx="20" cy="20" r="20" fill="#9DADFE"/>
<mask id="mask0_11529_12491" style="mask-type:alpha" maskUnits="userSpaceOnUse" x="0" y="0" width="40" height="40">
<circle cx="20" cy="20" r="20" fill="#2E86C1"/>
</mask>
<g mask="url(#mask0_11529_12491)">
<rect x="2" y="30" width="36" height="10" fill="#2E2A94"/>
<path d="M17.4766 30.368V31.408H15.4446V32.616H17.2366V33.656H15.4446V34.96H17.4766V36H14.0766V30.368H17.4766ZM18.2707 31.424V30.384H22.7027V31.424H21.1667V36H19.7987V31.424H18.2707ZM23.5219 36V30.384H27.1779V31.424H24.8899V32.632H26.6019V33.672H24.8899V36H23.5219Z" fill="white"/>
</g>
<path d="M14.4675 7.04H15.6075V14H14.4675L11.0375 8.81V14H9.89746V7.04H11.0375L14.4675 12.22V7.04ZM18.4045 7.03C18.4045 7.23667 18.3345 7.41 18.1945 7.55C18.0545 7.69 17.8812 7.76 17.6745 7.76C17.4745 7.76 17.3045 7.69 17.1645 7.55C17.0245 7.41 16.9545 7.23667 16.9545 7.03C16.9545 6.82333 17.0245 6.65 17.1645 6.51C17.3045 6.37 17.4745 6.3 17.6745 6.3C17.8812 6.3 18.0545 6.37 18.1945 6.51C18.3345 6.65 18.4045 6.82333 18.4045 7.03ZM17.1045 14V8.49H18.2445V14H17.1045ZM22.0512 8.49V9.42H21.0312V14H19.8812V9.42H19.2312V8.49H19.8812V8.1C19.8812 7.46667 20.0479 7.00667 20.3812 6.72C20.7212 6.42667 21.2512 6.28 21.9712 6.28V7.23C21.6245 7.23 21.3812 7.29667 21.2412 7.43C21.1012 7.55667 21.0312 7.78 21.0312 8.1V8.49H22.0512ZM25.7315 9.42H24.3915V12.47C24.3915 12.6767 24.4382 12.8267 24.5315 12.92C24.6315 13.0067 24.7982 13.05 25.0315 13.05H25.7315V14H24.8315C23.7715 14 23.2415 13.49 23.2415 12.47V9.42H22.5915V8.49H23.2415V7.12H24.3915V8.49H25.7315V9.42ZM28.3022 13.91L26.1322 8.49H27.4022L28.9522 12.69L30.5622 8.49H31.7422L28.3622 16.59H27.1822L28.3022 13.91Z" fill="#2E2A94"/>
<path d="M13.3518 18.228H18.7158V19.704H14.8878V21.696C15.0558 21.512 15.2878 21.36 15.5838 21.24C15.8798 21.112 16.2398 21.048 16.6638 21.048C17.0878 21.048 17.4878 21.136 17.8638 21.312C18.2478 21.488 18.5398 21.724 18.7398 22.02C19.1398 22.596 19.3398 23.236 19.3398 23.94C19.3398 24.868 19.0718 25.612 18.5358 26.172C18.0078 26.724 17.2718 27 16.3278 27C15.3838 27 14.6398 26.78 14.0958 26.34C13.5598 25.892 13.2438 25.308 13.1478 24.588H14.8038C14.8758 24.9 15.0398 25.148 15.2958 25.332C15.5598 25.516 15.9078 25.608 16.3398 25.608C16.7798 25.608 17.1198 25.46 17.3598 25.164C17.5998 24.868 17.7198 24.476 17.7198 23.988C17.7198 23.5 17.5958 23.124 17.3478 22.86C17.1078 22.596 16.7838 22.464 16.3758 22.464C15.6078 22.464 15.1358 22.772 14.9598 23.388H13.3518V18.228ZM20.6184 22.632C20.6184 19.728 21.6944 18.276 23.8464 18.276C26.0064 18.276 27.0864 19.728 27.0864 22.632C27.0864 25.528 26.0064 26.976 23.8464 26.976C21.6944 26.976 20.6184 25.528 20.6184 22.632ZM24.5664 19.992C24.3664 19.888 24.1304 19.836 23.8584 19.836C23.5864 19.836 23.3504 19.888 23.1504 19.992C22.9504 20.096 22.7944 20.228 22.6824 20.388C22.5784 20.548 22.4944 20.76 22.4304 21.024C22.3664 21.28 22.3224 21.528 22.2984 21.768C22.2824 22.008 22.2744 22.292 22.2744 22.62C22.2744 22.948 22.2824 23.232 22.2984 23.472C22.3224 23.712 22.3664 23.964 22.4304 24.228C22.4944 24.484 22.5784 24.696 22.6824 24.864C22.7944 25.024 22.9504 25.156 23.1504 25.26C23.3504 25.364 23.5864 25.416 23.8584 25.416C24.1304 25.416 24.3664 25.364 24.5664 25.26C24.7664 25.156 24.9184 25.024 25.0224 24.864C25.1344 24.696 25.2224 24.484 25.2864 24.228C25.3504 23.964 25.3904 23.712 25.4064 23.472C25.4304 23.232 25.4424 22.948 25.4424 22.62C25.4424 22.292 25.4304 22.008 25.4064 21.768C25.3904 21.528 25.3504 21.28 25.2864 21.024C25.2224 20.76 25.1344 20.548 25.0224 20.388C24.9184 20.228 24.7664 20.096 24.5664 19.992Z" fill="#2E2A94"/>
</svg>
