<svg width="40" height="40" viewBox="0 0 40 40" fill="none" xmlns="http://www.w3.org/2000/svg">
<g clip-path="url(#clip0_11529_12497)">
<circle cx="20" cy="20" r="20" fill="#9DADFE"/>
<mask id="mask0_11529_12497" style="mask-type:alpha" maskUnits="userSpaceOnUse" x="0" y="0" width="40" height="40">
<circle cx="20" cy="20" r="20" fill="#2E86C1"/>
</mask>
<g mask="url(#mask0_11529_12497)">
<rect x="2" y="30" width="36" height="10" fill="#2E2A94"/>
<path d="M17.4766 30.368V31.408H15.4446V32.616H17.2366V33.656H15.4446V34.96H17.4766V36H14.0766V30.368H17.4766ZM18.2707 31.424V30.384H22.7027V31.424H21.1667V36H19.7987V31.424H18.2707ZM23.5219 36V30.384H27.1779V31.424H24.8899V32.632H26.6019V33.672H24.8899V36H23.5219Z" fill="white"/>
</g>
<path d="M14.7751 7.04H15.9151V14H14.7751L11.3451 8.81V14H10.2051V7.04H11.3451L14.7751 12.22V7.04ZM19.7321 14.09C18.9321 14.09 18.2821 13.83 17.7821 13.31C17.2821 12.79 17.0321 12.1 17.0321 11.24C17.0321 10.38 17.2854 9.69333 17.7921 9.18C18.2988 8.66 18.9521 8.4 19.7521 8.4C20.5588 8.4 21.2121 8.65 21.7121 9.15C22.2121 9.64333 22.4621 10.29 22.4621 11.09C22.4621 11.2833 22.4488 11.4633 22.4221 11.63H18.2021C18.2288 12.09 18.3821 12.4567 18.6621 12.73C18.9488 12.9967 19.3054 13.13 19.7321 13.13C20.3521 13.13 20.7888 12.8733 21.0421 12.36H22.2721C22.1054 12.8667 21.8021 13.2833 21.3621 13.61C20.9221 13.93 20.3788 14.09 19.7321 14.09ZM21.2721 10.85C21.2654 10.3967 21.1154 10.0367 20.8221 9.77C20.5288 9.49667 20.1721 9.36 19.7521 9.36C19.3321 9.36 18.9788 9.49667 18.6921 9.77C18.4121 10.0367 18.2521 10.3967 18.2121 10.85H21.2721ZM27.724 8.49L25.944 11.21L27.724 14H26.434L25.244 12.13L24.124 14H22.934L24.714 11.29L22.934 8.49H24.224L25.414 10.36L26.534 8.49H27.724ZM31.2442 9.42H29.9042V12.47C29.9042 12.6767 29.9509 12.8267 30.0442 12.92C30.1442 13.0067 30.3109 13.05 30.5442 13.05H31.2442V14H30.3442C29.2842 14 28.7542 13.49 28.7542 12.47V9.42H28.1042V8.49H28.7542V7.12H29.9042V8.49H31.2442V9.42Z" fill="#2E2A94"/>
<path d="M13.3518 18.228H18.7158V19.704H14.8878V21.696C15.0558 21.512 15.2878 21.36 15.5838 21.24C15.8798 21.112 16.2398 21.048 16.6638 21.048C17.0878 21.048 17.4878 21.136 17.8638 21.312C18.2478 21.488 18.5398 21.724 18.7398 22.02C19.1398 22.596 19.3398 23.236 19.3398 23.94C19.3398 24.868 19.0718 25.612 18.5358 26.172C18.0078 26.724 17.2718 27 16.3278 27C15.3838 27 14.6398 26.78 14.0958 26.34C13.5598 25.892 13.2438 25.308 13.1478 24.588H14.8038C14.8758 24.9 15.0398 25.148 15.2958 25.332C15.5598 25.516 15.9078 25.608 16.3398 25.608C16.7798 25.608 17.1198 25.46 17.3598 25.164C17.5998 24.868 17.7198 24.476 17.7198 23.988C17.7198 23.5 17.5958 23.124 17.3478 22.86C17.1078 22.596 16.7838 22.464 16.3758 22.464C15.6078 22.464 15.1358 22.772 14.9598 23.388H13.3518V18.228ZM20.6184 22.632C20.6184 19.728 21.6944 18.276 23.8464 18.276C26.0064 18.276 27.0864 19.728 27.0864 22.632C27.0864 25.528 26.0064 26.976 23.8464 26.976C21.6944 26.976 20.6184 25.528 20.6184 22.632ZM24.5664 19.992C24.3664 19.888 24.1304 19.836 23.8584 19.836C23.5864 19.836 23.3504 19.888 23.1504 19.992C22.9504 20.096 22.7944 20.228 22.6824 20.388C22.5784 20.548 22.4944 20.76 22.4304 21.024C22.3664 21.28 22.3224 21.528 22.2984 21.768C22.2824 22.008 22.2744 22.292 22.2744 22.62C22.2744 22.948 22.2824 23.232 22.2984 23.472C22.3224 23.712 22.3664 23.964 22.4304 24.228C22.4944 24.484 22.5784 24.696 22.6824 24.864C22.7944 25.024 22.9504 25.156 23.1504 25.26C23.3504 25.364 23.5864 25.416 23.8584 25.416C24.1304 25.416 24.3664 25.364 24.5664 25.26C24.7664 25.156 24.9184 25.024 25.0224 24.864C25.1344 24.696 25.2224 24.484 25.2864 24.228C25.3504 23.964 25.3904 23.712 25.4064 23.472C25.4304 23.232 25.4424 22.948 25.4424 22.62C25.4424 22.292 25.4304 22.008 25.4064 21.768C25.3904 21.528 25.3504 21.28 25.2864 21.024C25.2224 20.76 25.1344 20.548 25.0224 20.388C24.9184 20.228 24.7664 20.096 24.5664 19.992Z" fill="#2E2A94"/>
</g>
<defs>
<clipPath id="clip0_11529_12497">
<rect width="40" height="40" fill="white"/>
</clipPath>
</defs>
</svg>
