<svg width="40" height="40" viewBox="0 0 40 40" fill="none" xmlns="http://www.w3.org/2000/svg">
<circle cx="20" cy="20" r="20" fill="#9DADFE"/>
<path d="M16.3994 9.21716C16.6144 8.84491 17.1512 8.84499 17.3662 9.21716L28.1816 27.9496C28.3964 28.3218 28.128 28.7873 27.6982 28.7875H6.06836C5.63853 28.7875 5.36935 28.3219 5.58398 27.9496L16.3994 9.21716Z" stroke="white"/>
<path d="M21.9814 13.2848C22.3023 12.7291 23.1044 12.7291 23.4253 13.2848L31.9422 28.0366C32.2631 28.5923 31.862 29.287 31.2203 29.287H14.1864C13.5447 29.287 13.1436 28.5923 13.4645 28.0366L21.9814 13.2848Z" fill="#2E2A94"/>
<path d="M28.7881 18.8651C28.7935 18.8682 28.8005 18.8733 28.8076 18.8856L34.4766 28.705C34.4837 28.7173 34.4845 28.7261 34.4844 28.7323C34.4842 28.74 34.4822 28.7498 34.4766 28.7596C34.4709 28.7694 34.4636 28.7761 34.457 28.7802C34.4517 28.7834 34.4432 28.787 34.4287 28.787H23.0908C23.0766 28.787 23.0688 28.7833 23.0635 28.7802C23.0568 28.7761 23.0487 28.7696 23.043 28.7596C23.0373 28.7498 23.0353 28.74 23.0352 28.7323C23.035 28.7261 23.0359 28.7173 23.043 28.705L28.7119 18.8856C28.7191 18.8731 28.7269 18.8681 28.7324 18.8651C28.7392 18.8614 28.7485 18.8583 28.7598 18.8583C28.7712 18.8583 28.7813 18.8613 28.7881 18.8651Z" stroke="white"/>
</svg>
