<svg width="40" height="40" viewBox="0 0 40 40" fill="none" xmlns="http://www.w3.org/2000/svg">
<circle cx="20" cy="20" r="20" fill="#9DADFE"/>
<mask id="mask0_11529_12542" style="mask-type:alpha" maskUnits="userSpaceOnUse" x="0" y="0" width="40" height="40">
<circle cx="20" cy="20" r="20" fill="#2E86C1"/>
</mask>
<g mask="url(#mask0_11529_12542)">
<rect x="2" y="30" width="36" height="10" fill="#2E2A94"/>
<path d="M17.4766 30.368V31.408H15.4446V32.616H17.2366V33.656H15.4446V34.96H17.4766V36H14.0766V30.368H17.4766ZM18.2707 31.424V30.384H22.7027V31.424H21.1667V36H19.7987V31.424H18.2707ZM23.5219 36V30.384H27.1779V31.424H24.8899V32.632H26.6019V33.672H24.8899V36H23.5219Z" fill="white"/>
</g>
<path d="M9.05645 14.06C8.10978 14.06 7.29311 13.7267 6.60645 13.06C5.91978 12.3933 5.57645 11.5467 5.57645 10.52C5.57645 9.48667 5.91978 8.63667 6.60645 7.97C7.29311 7.29667 8.13311 6.96 9.12645 6.96C9.86645 6.96 10.5231 7.14333 11.0964 7.51C11.6764 7.87 12.0964 8.38333 12.3564 9.05H10.9864C10.6131 8.35 9.99311 8 9.12645 8C8.42645 8 7.85311 8.23 7.40645 8.69C6.96645 9.15 6.74645 9.76 6.74645 10.52C6.74645 11.2733 6.96645 11.88 7.40645 12.34C7.85311 12.8 8.40645 13.03 9.06645 13.03C9.72645 13.03 10.2498 12.8567 10.6364 12.51C11.0298 12.1567 11.2664 11.68 11.3464 11.08H8.73645V10.19H12.5664V11.08C12.4598 11.9133 12.0864 12.62 11.4464 13.2C10.8064 13.7733 10.0098 14.06 9.05645 14.06ZM13.5108 10.86V9.9H17.6208V10.86H13.5108ZM21.1004 7.89C20.7604 7.89 20.4838 7.97667 20.2704 8.15C20.0571 8.32333 19.9504 8.57667 19.9504 8.91C19.9504 9.23667 20.0771 9.48667 20.3304 9.66C20.5838 9.83333 20.8904 9.96 21.2504 10.04C21.6104 10.12 21.9704 10.2133 22.3304 10.32C22.6904 10.42 22.9971 10.61 23.2504 10.89C23.5038 11.17 23.6304 11.5667 23.6304 12.08C23.6304 12.5933 23.4138 13.0533 22.9804 13.46C22.5471 13.8667 21.9671 14.07 21.2404 14.07C20.5138 14.07 19.9238 13.9 19.4704 13.56C19.0171 13.22 18.7904 12.75 18.7904 12.15H20.0104C20.0371 12.4567 20.1504 12.7 20.3504 12.88C20.5504 13.06 20.8438 13.15 21.2304 13.15C21.6171 13.15 21.9204 13.05 22.1404 12.85C22.3671 12.65 22.4804 12.4133 22.4804 12.14C22.4804 11.8667 22.4104 11.6533 22.2704 11.5C22.1371 11.3467 21.9604 11.2333 21.7404 11.16C21.5271 11.08 21.2904 11.01 21.0304 10.95C20.7704 10.89 20.5071 10.82 20.2404 10.74C19.9804 10.66 19.7404 10.5567 19.5204 10.43C19.3071 10.3033 19.1304 10.12 18.9904 9.88C18.8571 9.63333 18.7904 9.33333 18.7904 8.98C18.7904 8.37333 19.0071 7.88667 19.4404 7.52C19.8804 7.14667 20.4471 6.96 21.1404 6.96C21.8404 6.96 22.3971 7.12 22.8104 7.44C23.2304 7.76 23.4638 8.22333 23.5104 8.83H22.2504C22.2238 8.56333 22.1104 8.34 21.9104 8.16C21.7104 7.98 21.4404 7.89 21.1004 7.89ZM26.9956 14.09C26.1956 14.09 25.5456 13.83 25.0456 13.31C24.5456 12.79 24.2956 12.1 24.2956 11.24C24.2956 10.38 24.5489 9.69333 25.0556 9.18C25.5623 8.66 26.2156 8.4 27.0156 8.4C27.8223 8.4 28.4756 8.65 28.9756 9.15C29.4756 9.64333 29.7256 10.29 29.7256 11.09C29.7256 11.2833 29.7123 11.4633 29.6856 11.63H25.4656C25.4923 12.09 25.6456 12.4567 25.9256 12.73C26.2123 12.9967 26.5689 13.13 26.9956 13.13C27.6156 13.13 28.0523 12.8733 28.3056 12.36H29.5356C29.3689 12.8667 29.0656 13.2833 28.6256 13.61C28.1856 13.93 27.6423 14.09 26.9956 14.09ZM28.5356 10.85C28.5289 10.3967 28.3789 10.0367 28.0856 9.77C27.7923 9.49667 27.4356 9.36 27.0156 9.36C26.5956 9.36 26.2423 9.49667 25.9556 9.77C25.6756 10.0367 25.5156 10.3967 25.4756 10.85H28.5356ZM32.8675 14.09C32.0675 14.09 31.4175 13.83 30.9175 13.31C30.4175 12.79 30.1675 12.1033 30.1675 11.25C30.1675 10.39 30.4175 9.7 30.9175 9.18C31.4241 8.66 32.0741 8.4 32.8675 8.4C33.5341 8.4 34.0841 8.56 34.5175 8.88C34.9575 9.19333 35.2541 9.64333 35.4075 10.23H34.1775C33.9708 9.65 33.5341 9.36 32.8675 9.36C32.4008 9.36 32.0275 9.52667 31.7475 9.86C31.4741 10.1867 31.3375 10.6467 31.3375 11.24C31.3375 11.8333 31.4741 12.2967 31.7475 12.63C32.0275 12.9633 32.4008 13.13 32.8675 13.13C33.5275 13.13 33.9641 12.84 34.1775 12.26H35.4075C35.2475 12.82 34.9475 13.2667 34.5075 13.6C34.0675 13.9267 33.5208 14.09 32.8675 14.09Z" fill="#2E2A94"/>
<path d="M11.4553 18.228H16.8193V19.704H12.9913V21.696C13.1593 21.512 13.3913 21.36 13.6873 21.24C13.9833 21.112 14.3433 21.048 14.7673 21.048C15.1913 21.048 15.5913 21.136 15.9673 21.312C16.3513 21.488 16.6433 21.724 16.8433 22.02C17.2433 22.596 17.4433 23.236 17.4433 23.94C17.4433 24.868 17.1753 25.612 16.6393 26.172C16.1113 26.724 15.3753 27 14.4313 27C13.4873 27 12.7433 26.78 12.1993 26.34C11.6633 25.892 11.3473 25.308 11.2513 24.588H12.9073C12.9793 24.9 13.1433 25.148 13.3993 25.332C13.6633 25.516 14.0113 25.608 14.4433 25.608C14.8833 25.608 15.2233 25.46 15.4633 25.164C15.7033 24.868 15.8233 24.476 15.8233 23.988C15.8233 23.5 15.6993 23.124 15.4513 22.86C15.2113 22.596 14.8873 22.464 14.4793 22.464C13.7113 22.464 13.2393 22.772 13.0633 23.388H11.4553V18.228ZM22.7899 27H21.0979V24.12L18.2659 18.624H20.1619L21.9499 22.572L23.7259 18.624H25.6219L22.7899 24.12V27ZM28.3889 20.352V21.528C28.8369 20.68 29.4849 20.256 30.3329 20.256V21.984H29.9129C29.4089 21.984 29.0289 22.112 28.7729 22.368C28.5169 22.616 28.3889 23.048 28.3889 23.664V27H26.6969V20.352H28.3889Z" fill="#2E2A94"/>
</svg>
