<svg width="40" height="40" viewBox="0 0 40 40" fill="none" xmlns="http://www.w3.org/2000/svg">
<circle cx="20" cy="20" r="20" fill="#9DADFE"/>
<path d="M8.774 19.766H15.032V21.488H10.566V23.812C10.762 23.5973 11.0327 23.42 11.378 23.28C11.7233 23.1307 12.1433 23.056 12.638 23.056C13.1327 23.056 13.5993 23.1587 14.038 23.364C14.486 23.5693 14.8267 23.8447 15.06 24.19C15.5267 24.862 15.76 25.6087 15.76 26.43C15.76 27.5127 15.4473 28.3807 14.822 29.034C14.206 29.678 13.3473 30 12.246 30C11.1447 30 10.2767 29.7433 9.642 29.23C9.01667 28.7073 8.648 28.026 8.536 27.186H10.468C10.552 27.55 10.7433 27.8393 11.042 28.054C11.35 28.2687 11.756 28.376 12.26 28.376C12.7733 28.376 13.17 28.2033 13.45 27.858C13.73 27.5127 13.87 27.0553 13.87 26.486C13.87 25.9167 13.7253 25.478 13.436 25.17C13.156 24.862 12.778 24.708 12.302 24.708C11.406 24.708 10.8553 25.0673 10.65 25.786H8.774V19.766ZM21.9978 30H20.0238V26.64L16.7198 20.228H18.9318L21.0178 24.834L23.0898 20.228H25.3018L21.9978 26.64V30ZM28.5299 22.244V23.616C29.0525 22.6267 29.8085 22.132 30.7979 22.132V24.148H30.3079C29.7199 24.148 29.2765 24.2973 28.9779 24.596C28.6792 24.8853 28.5299 25.3893 28.5299 26.108V30H26.5559V22.244H28.5299Z" fill="#2E2A94"/>
<path d="M7.235 16.066C6.19367 16.066 5.29533 15.6993 4.54 14.966C3.78467 14.2327 3.407 13.3013 3.407 12.172C3.407 11.0353 3.78467 10.1003 4.54 9.367C5.29533 8.62633 6.21933 8.256 7.312 8.256C8.126 8.256 8.84833 8.45767 9.479 8.861C10.117 9.257 10.579 9.82167 10.865 10.555H9.358C8.94733 9.785 8.26533 9.4 7.312 9.4C6.542 9.4 5.91133 9.653 5.42 10.159C4.936 10.665 4.694 11.336 4.694 12.172C4.694 13.0007 4.936 13.668 5.42 14.174C5.91133 14.68 6.52 14.933 7.246 14.933C7.972 14.933 8.54767 14.7423 8.973 14.361C9.40567 13.9723 9.666 13.448 9.754 12.788H6.883V11.809H11.096V12.788C10.9787 13.7047 10.568 14.482 9.864 15.12C9.16 15.7507 8.28367 16.066 7.235 16.066ZM12.1348 12.546V11.49H16.6558V12.546H12.1348ZM20.4834 9.279C20.1094 9.279 19.805 9.37433 19.5704 9.565C19.3357 9.75567 19.2184 10.0343 19.2184 10.401C19.2184 10.7603 19.3577 11.0353 19.6364 11.226C19.915 11.4167 20.2524 11.556 20.6484 11.644C21.0444 11.732 21.4404 11.8347 21.8364 11.952C22.2324 12.062 22.5697 12.271 22.8484 12.579C23.1271 12.887 23.2664 13.3233 23.2664 13.888C23.2664 14.4527 23.028 14.9587 22.5514 15.406C22.0747 15.8533 21.4367 16.077 20.6374 16.077C19.838 16.077 19.189 15.89 18.6904 15.516C18.1917 15.142 17.9424 14.625 17.9424 13.965H19.2844C19.3137 14.3023 19.4384 14.57 19.6584 14.768C19.8784 14.966 20.201 15.065 20.6264 15.065C21.0517 15.065 21.3854 14.955 21.6274 14.735C21.8767 14.515 22.0014 14.2547 22.0014 13.954C22.0014 13.6533 21.9244 13.4187 21.7704 13.25C21.6237 13.0813 21.4294 12.9567 21.1874 12.876C20.9527 12.788 20.6924 12.711 20.4064 12.645C20.1204 12.579 19.8307 12.502 19.5374 12.414C19.2514 12.326 18.9874 12.2123 18.7454 12.073C18.5107 11.9337 18.3164 11.732 18.1624 11.468C18.0157 11.1967 17.9424 10.8667 17.9424 10.478C17.9424 9.81067 18.1807 9.27533 18.6574 8.872C19.1414 8.46133 19.7647 8.256 20.5274 8.256C21.2974 8.256 21.9097 8.432 22.3644 8.784C22.8264 9.136 23.083 9.64567 23.1344 10.313H21.7484C21.719 10.0197 21.5944 9.774 21.3744 9.576C21.1544 9.378 20.8574 9.279 20.4834 9.279ZM26.9681 16.099C26.0881 16.099 25.3731 15.813 24.8231 15.241C24.2731 14.669 23.9981 13.91 23.9981 12.964C23.9981 12.018 24.2767 11.2627 24.8341 10.698C25.3914 10.126 26.1101 9.84 26.9901 9.84C27.8774 9.84 28.5961 10.115 29.1461 10.665C29.6961 11.2077 29.9711 11.919 29.9711 12.799C29.9711 13.0117 29.9564 13.2097 29.9271 13.393H25.2851C25.3144 13.899 25.4831 14.3023 25.7911 14.603C26.1064 14.8963 26.4987 15.043 26.9681 15.043C27.6501 15.043 28.1304 14.7607 28.4091 14.196H29.7621C29.5787 14.7533 29.2451 15.2117 28.7611 15.571C28.2771 15.923 27.6794 16.099 26.9681 16.099ZM28.6621 12.535C28.6547 12.0363 28.4897 11.6403 28.1671 11.347C27.8444 11.0463 27.4521 10.896 26.9901 10.896C26.5281 10.896 26.1394 11.0463 25.8241 11.347C25.5161 11.6403 25.3401 12.0363 25.2961 12.535H28.6621ZM33.4271 16.099C32.5471 16.099 31.8321 15.813 31.2821 15.241C30.7321 14.669 30.4571 13.9137 30.4571 12.975C30.4571 12.029 30.7321 11.27 31.2821 10.698C31.8395 10.126 32.5545 9.84 33.4271 9.84C34.1605 9.84 34.7655 10.016 35.2421 10.368C35.7261 10.7127 36.0525 11.2077 36.2211 11.853H34.8681C34.6408 11.215 34.1605 10.896 33.4271 10.896C32.9138 10.896 32.5031 11.0793 32.1951 11.446C31.8945 11.8053 31.7441 12.3113 31.7441 12.964C31.7441 13.6167 31.8945 14.1263 32.1951 14.493C32.5031 14.8597 32.9138 15.043 33.4271 15.043C34.1531 15.043 34.6335 14.724 34.8681 14.086H36.2211C36.0451 14.702 35.7151 15.1933 35.2311 15.56C34.7471 15.9193 34.1458 16.099 33.4271 16.099Z" fill="#2E2A94"/>
</svg>
