<svg width="40" height="40" viewBox="0 0 40 40" fill="none" xmlns="http://www.w3.org/2000/svg">
<circle cx="20" cy="20" r="20" fill="#9DADFE"/>
<g clip-path="url(#clip0_11529_12569)">
<rect x="15" y="15" width="10" height="10" fill="white"/>
<path d="M16.4094 29.2516C16.8422 29.6317 17.289 30.0237 17.7486 30.4302C17.7517 30.433 17.7549 30.4358 17.7581 30.4386L19.287 31.7592C19.4919 31.9362 19.7461 32.0247 20.0004 32.0247C20.2546 32.0247 20.5089 31.9362 20.7138 31.7592L22.2424 30.4386C22.2456 30.4358 22.2487 30.4331 22.2518 30.4303C25.2785 27.7536 27.5477 25.7045 29.1894 23.7059C31.1069 21.3717 32.0001 19.2612 32.0001 17.0641C32.0001 13.089 28.8863 9.97522 24.9113 9.97522C23.1248 9.97522 21.3595 10.6479 20.0004 11.8141C18.6409 10.6479 16.8756 9.97522 15.089 9.97522C11.1138 9.97515 8 13.089 8 17.064C8 21.8691 11.3455 24.806 16.4094 29.2516ZM15.6354 18.8177H18.5451V15.9079H21.4549V18.8177H24.3646V21.7275H21.4549V24.6371H18.5451V21.7275H15.6354V18.8177Z" fill="#2E2A94"/>
</g>
<defs>
<clipPath id="clip0_11529_12569">
<rect width="24" height="24" fill="white" transform="translate(8 9)"/>
</clipPath>
</defs>
</svg>
