<svg width="40" height="40" viewBox="0 0 40 40" fill="none" xmlns="http://www.w3.org/2000/svg">
<circle cx="20" cy="20" r="20" fill="#9DADFE"/>
<g clip-path="url(#clip0_11529_12566)">
<path d="M17.25 34C18.415 34 19.3594 33.0556 19.3594 31.8906C19.3594 30.7256 18.415 29.7812 17.25 29.7812C16.085 29.7812 15.1406 30.7256 15.1406 31.8906C15.1406 33.0556 16.085 34 17.25 34Z" fill="#2E2A94"/>
<path d="M27.0938 34C28.2587 34 29.2031 33.0556 29.2031 31.8906C29.2031 30.7256 28.2587 29.7812 27.0938 29.7812C25.9288 29.7812 24.9844 30.7256 24.9844 31.8906C24.9844 33.0556 25.9288 34 27.0938 34Z" fill="#2E2A94"/>
<path d="M13.7352 27.6719C13.7352 27.2839 14.051 26.9688 14.4383 26.9688H30.4838L32 18.5312H13.7455L12.2121 10H8V11.4062H11.0394L13.6256 25.7262C12.8649 26.0451 12.3289 26.7968 12.3289 27.6719C12.3289 28.835 13.2751 29.7812 14.4383 29.7812H17.2508H27.0945H30.6102V28.375H14.4383C14.051 28.375 13.7352 28.0598 13.7352 27.6719Z" fill="#2E2A94"/>
<path d="M15.8438 15.7188H18.6562V17.125H15.8438V15.7188Z" fill="#2E2A94"/>
<path d="M21.4688 12.9062H24.2812V17.125H21.4688V12.9062Z" fill="#2E2A94"/>
<path d="M27.0938 10H29.9062V17.125H27.0938V10Z" fill="#2E2A94"/>
</g>
<defs>
<clipPath id="clip0_11529_12566">
<rect width="24" height="24" fill="white" transform="translate(8 10)"/>
</clipPath>
</defs>
</svg>
