<svg width="40" height="40" viewBox="0 0 40 40" fill="none" xmlns="http://www.w3.org/2000/svg">
<circle cx="20" cy="20" r="20" fill="#9DADFE"/>
<mask id="mask0_11529_12518" style="mask-type:alpha" maskUnits="userSpaceOnUse" x="0" y="0" width="40" height="40">
<circle cx="20" cy="20" r="20" fill="#2E86C1"/>
</mask>
<g mask="url(#mask0_11529_12518)">
<rect x="2" y="30" width="36" height="10" fill="#1B4F72"/>
<path d="M12.9981 37V31.72H17.1101V32.784H14.3741V33.856H16.5501V34.856H14.3741V35.936H17.2141V37H12.9981ZM22.4849 31.72V32.784H20.7649V37H19.3889V32.784H17.6609V31.72H22.4849ZM27.3755 32.784H24.6475V33.904H26.8235V34.968H24.6475V37H23.2715V31.72H27.3755V32.784Z" fill="white"/>
</g>
<mask id="mask1_11529_12518" style="mask-type:alpha" maskUnits="userSpaceOnUse" x="0" y="0" width="40" height="40">
<circle cx="20" cy="20" r="20" fill="#2E86C1"/>
</mask>
<g mask="url(#mask1_11529_12518)">
<rect x="2" y="30" width="36" height="10" fill="#2E2A94"/>
<path d="M17.4766 30.368V31.408H15.4446V32.616H17.2366V33.656H15.4446V34.96H17.4766V36H14.0766V30.368H17.4766ZM18.2707 31.424V30.384H22.7027V31.424H21.1667V36H19.7987V31.424H18.2707ZM23.5219 36V30.384H27.1779V31.424H24.8899V32.632H26.6019V33.672H24.8899V36H23.5219Z" fill="white"/>
</g>
<g clip-path="url(#clip0_11529_12518)">
<path fill-rule="evenodd" clip-rule="evenodd" d="M27.9327 16.6558C28.1471 16.8703 28.5143 16.7546 28.5671 16.4559L30.1779 7.34428C30.2232 7.08784 29.9998 6.86439 29.7433 6.90973L20.6317 8.52055C20.3331 8.57336 20.2174 8.9405 20.4319 9.15499L21.7873 10.5105C21.9338 10.6569 21.9338 10.8944 21.7873 11.0408L16.1519 16.6762C16.0054 16.8227 16.0054 17.0601 16.1519 17.2066L19.8811 20.9358C20.0275 21.0822 20.265 21.0822 20.4114 20.9358L26.0469 15.3003C26.1933 15.1539 26.4307 15.1539 26.5772 15.3003L27.9327 16.6558Z" fill="#2E2A94"/>
<path d="M15.3955 21.5691C15.2278 21.4013 14.9558 21.4013 14.7878 21.5691L9.89928 26.4576C9.73149 26.6254 9.73149 26.8975 9.89928 27.0653C9.9832 27.1492 10.0932 27.1911 10.2031 27.1911C10.3131 27.1911 10.4231 27.1492 10.5069 27.0653L15.3955 22.1767C15.5633 22.009 15.5633 21.7369 15.3955 21.5691Z" fill="#2E2A94"/>
<path d="M17.8206 22.0709C17.6527 21.9031 17.3807 21.9031 17.2129 22.0709L13.3055 25.9782C13.1377 26.146 13.1377 26.4181 13.3055 26.5859C13.3895 26.6699 13.4994 26.7118 13.6094 26.7118C13.7193 26.7118 13.8293 26.6699 13.9132 26.5859L17.8205 22.6786C17.9884 22.5108 17.9884 22.2387 17.8206 22.0709Z" fill="#2E2A94"/>
<path d="M19.9188 22.297L18.0477 24.1681C17.8799 24.3359 17.8799 24.608 18.0477 24.7758C18.1316 24.8597 18.2416 24.9017 18.3516 24.9017C18.4615 24.9017 18.5715 24.8597 18.6554 24.7758L20.5265 22.9047C20.6943 22.7369 20.6943 22.4648 20.5265 22.297C20.3587 22.1292 20.0867 22.1292 19.9188 22.297Z" fill="#2E2A94"/>
<path d="M10.6836 23.7821C10.7936 23.7821 10.9035 23.7402 10.9875 23.6563L14.8948 19.7489C15.0626 19.5811 15.0626 19.3091 14.8948 19.1412C14.7269 18.9734 14.4549 18.9734 14.2871 19.1412L10.3798 23.0485C10.212 23.2163 10.212 23.4884 10.3798 23.6563C10.4637 23.7402 10.5737 23.7821 10.6836 23.7821Z" fill="#2E2A94"/>
<path d="M12.4922 19.043C12.6022 19.043 12.7121 19.0011 12.7961 18.9172L14.6672 17.0461C14.835 16.8783 14.835 16.6062 14.6672 16.4383C14.4993 16.2706 14.2273 16.2706 14.0595 16.4383L12.1883 18.3095C12.0206 18.4773 12.0206 18.7494 12.1883 18.9172C12.2723 19.0011 12.3822 19.043 12.4922 19.043Z" fill="#2E2A94"/>
</g>
<defs>
<clipPath id="clip0_11529_12518">
<rect width="22" height="22" fill="white" transform="translate(9 6)"/>
</clipPath>
</defs>
</svg>
