<svg width="40" height="40" viewBox="0 0 40 40" fill="none" xmlns="http://www.w3.org/2000/svg">
<circle cx="20" cy="20" r="20" fill="#9DADFE"/>
<path d="M25.9365 29.9195H24.0851L23.2727 26.4563L17.5406 29.9195H13.5384C13.1742 29.9195 12.8789 30.2147 12.8789 30.5789C12.8789 30.943 13.1742 31.2383 13.5384 31.2383H25.9365C26.3007 31.2383 26.5959 30.943 26.5959 30.5789C26.5959 30.2147 26.3007 29.9195 25.9365 29.9195Z" fill="#2E2A94"/>
<path d="M15.9912 16.5499C16.1209 16.7223 16.3186 16.8132 16.5188 16.8132C16.6569 16.8132 16.796 16.7699 16.9146 16.6807C17.2058 16.4618 17.2643 16.0483 17.0455 15.7573C16.6097 15.1777 16.3698 14.4595 16.3698 13.7345C16.3698 12.9592 16.6405 12.2017 17.132 11.6018C17.3627 11.3201 17.3215 10.9046 17.0397 10.6737C16.7581 10.443 16.3425 10.4842 16.1117 10.7659C15.4275 11.6008 15.0508 12.6551 15.0508 13.7345C15.0508 14.7438 15.3848 15.7435 15.9912 16.5499Z" fill="#2E2A94"/>
<path d="M14.5814 18.5833C14.7277 18.5833 14.8748 18.5349 14.997 18.4355C15.2798 18.2059 15.3225 17.7905 15.0928 17.5078C14.2285 16.4448 13.7526 15.1047 13.7526 13.7347C13.7526 12.3014 14.2682 10.9142 15.2044 9.82863C15.4421 9.55287 15.4114 9.13649 15.1356 8.8985C14.8598 8.66078 14.4434 8.69154 14.2054 8.96716C13.0628 10.2921 12.4336 11.9853 12.4336 13.7348C12.4336 15.4068 13.0145 17.0423 14.0693 18.3399C14.1997 18.5002 14.3897 18.5833 14.5814 18.5833Z" fill="#2E2A94"/>
<path d="M23.1028 13.7345C23.1028 14.4595 22.8631 15.1779 22.4272 15.7573C22.2083 16.0484 22.2668 16.4618 22.5579 16.6807C22.6766 16.7699 22.8158 16.8132 22.9538 16.8132C23.1539 16.8132 23.3517 16.7223 23.4813 16.5499C24.0878 15.7435 24.4219 14.7436 24.4219 13.7345C24.4219 12.6551 24.0452 11.6008 23.361 10.7659C23.1302 10.4842 22.7147 10.443 22.4328 10.6737C22.1513 10.9046 22.1099 11.32 22.3408 11.6017C22.8323 12.2018 23.1028 12.9592 23.1028 13.7345Z" fill="#2E2A94"/>
<path d="M25.7172 13.7346C25.7172 15.1046 25.2413 16.4447 24.3771 17.5077C24.1472 17.7904 24.1902 18.2058 24.4728 18.4354C24.595 18.5348 24.7421 18.5832 24.8884 18.5832C25.0799 18.5832 25.2701 18.4999 25.4005 18.3397C26.4553 17.0422 27.0362 15.4067 27.0362 13.7346C27.0362 11.985 26.407 10.292 25.2644 8.96707C25.0264 8.69117 24.61 8.66055 24.3341 8.8984C24.0585 9.13612 24.0277 9.55264 24.2654 9.82853C25.2018 10.9141 25.7172 12.3013 25.7172 13.7346Z" fill="#2E2A94"/>
<path d="M15.4531 29.6404L21.6321 25.9071L16.8345 23.7527L15.4531 29.6404Z" fill="#2E2A94"/>
<path d="M22.9424 25.0508L22.0566 21.2749L18.5898 23.0962L22.9424 25.0508Z" fill="#2E2A94"/>
<path d="M19.7362 15.803C20.8767 15.803 21.8046 14.8752 21.8046 13.7347C21.8046 12.5943 20.8767 11.6665 19.7362 11.6665C18.5959 11.6665 17.668 12.5943 17.668 13.7347C17.668 14.8752 18.5959 15.803 19.7362 15.803Z" fill="#2E2A94"/>
<path d="M21.0227 16.8671C20.6255 17.0309 20.191 17.1218 19.7354 17.1218C19.2798 17.1218 18.8453 17.0309 18.4483 16.8671L17.1602 22.3575L21.7456 19.9485L21.0227 16.8671Z" fill="#2E2A94"/>
</svg>
