<svg width="40" height="40" viewBox="0 0 40 40" fill="none" xmlns="http://www.w3.org/2000/svg">
<circle cx="20" cy="20" r="20" fill="#9DADFE"/>
<mask id="mask0_11529_12622" style="mask-type:alpha" maskUnits="userSpaceOnUse" x="0" y="0" width="40" height="40">
<circle cx="20" cy="20" r="20" fill="#2E86C1"/>
</mask>
<g mask="url(#mask0_11529_12622)">
<rect x="2" y="30" width="36" height="10" fill="#2E2A94"/>
<path d="M17.4766 30.368V31.408H15.4446V32.616H17.2366V33.656H15.4446V34.96H17.4766V36H14.0766V30.368H17.4766ZM18.2707 31.424V30.384H22.7027V31.424H21.1667V36H19.7987V31.424H18.2707ZM23.5219 36V30.384H27.1779V31.424H24.8899V32.632H26.6019V33.672H24.8899V36H23.5219Z" fill="white"/>
</g>
<path fill-rule="evenodd" clip-rule="evenodd" d="M28.8159 19.1997C26.9591 19.1997 26.0275 21.4709 27.3403 22.7965C27.5822 23.0407 27.5822 23.4367 27.3403 23.6809L26.007 25.0272C25.7652 25.2714 25.3729 25.2714 25.131 25.0272C23.8182 23.7016 21.5688 24.6423 21.5688 26.5171C21.5688 26.8626 21.2914 27.1424 20.9495 27.1424H19.0638C18.7218 27.1424 18.4445 26.8626 18.4445 26.5171C18.4445 24.64 16.1968 23.7 14.8823 25.0272C14.6405 25.2714 14.2482 25.2714 14.0064 25.0272L12.673 23.6809C12.4312 23.4367 12.4312 23.0406 12.673 22.7965C13.9858 21.4709 13.0542 19.1997 11.1975 19.1997C10.8553 19.1997 10.5781 18.9196 10.5781 18.5743V17.9412C10.5781 17.8221 10.6741 17.725 10.7921 17.7246L15.1889 17.7144C15.3039 17.7141 15.3985 17.8055 15.4036 17.9215C15.5111 20.3945 17.5308 22.2746 20.0066 22.2746C22.4825 22.2746 24.5024 20.3943 24.6097 17.921C24.6147 17.8052 24.7091 17.7139 24.8239 17.7139H29.2206C29.3387 17.7139 29.4351 17.8111 29.4351 17.9304V18.5743C29.4352 18.9196 29.1581 19.1997 28.8159 19.1997ZM22.6562 17.9492C22.6672 17.8219 22.5691 17.7139 22.4425 17.7139H17.5709C17.4443 17.7139 17.3463 17.8219 17.3571 17.9492C17.4752 19.3221 18.6163 20.3078 20.0066 20.3078C21.397 20.3078 22.5382 19.3221 22.6562 17.9492Z" fill="#2E2A94"/>
<path d="M17.0136 5.60402C16.9306 5.21027 17.0261 4.80408 17.2794 4.49323C17.5327 4.17822 17.9106 4 18.3135 4H21.8102C22.213 4 22.5909 4.17822 22.8443 4.49323C23.0976 4.80408 23.1931 5.21027 23.1101 5.60402L22.159 9.67255C22.1175 9.86321 21.9472 9.99999 21.7521 9.99999H18.3716C18.1764 9.99999 18.0062 9.86321 17.9646 9.67255L17.0136 5.60402Z" fill="#2E2A94"/>
<path d="M29.2942 13.5997V15.5713C29.2942 15.7995 29.1077 15.9863 28.8797 15.9863H11.2895C11.0615 15.9863 10.875 15.7995 10.875 15.5713V13.5997C10.875 13.3673 11.0615 13.1847 11.2895 13.1847H12.0148C12.164 10.2923 13.6068 7.87849 16.1392 6.57129L16.9963 9.57128C17.1165 10.1398 17.8174 10.857 18.3977 10.857H21.7715C22.3518 10.857 22.8719 10.1398 22.9963 9.57128L23.8534 6.57129C26.3858 7.87849 28.0052 10.2964 28.1544 13.1847H28.8797C29.1077 13.1847 29.2942 13.3673 29.2942 13.5997Z" fill="#2E2A94"/>
</svg>
