<svg width="40" height="40" viewBox="0 0 40 40" fill="none" xmlns="http://www.w3.org/2000/svg">
<circle cx="20" cy="20" r="20" fill="#9DADFE"/>
<g clip-path="url(#clip0_11529_12634)">
<path fill-rule="evenodd" clip-rule="evenodd" d="M17.5982 32.5376C17.9449 33.5544 18.9092 34.2751 20.0053 34.2751C21.113 34.2751 22.0686 33.5578 22.4128 32.5376H17.5982ZM16.5435 31.2373H23.4668C23.844 31.2373 24.1511 30.9279 24.1511 30.5476V28.8911H15.8594V30.5476C15.8594 30.9279 16.1662 31.2373 16.5435 31.2373Z" fill="#2E2A94"/>
<path d="M28.0771 17.4155C27.9068 19.1711 27.1797 20.824 25.9863 22.1362C24.769 23.4753 24.1504 25.076 24.1494 26.8921H15.8574C15.8564 25.0759 15.2379 23.4753 14.0205 22.1362C12.8268 20.8241 12.0999 19.1711 11.9297 17.4155H28.0771Z" fill="#2E2A94"/>
<path d="M21.6129 6C21.7484 6.00077 21.8798 6.04577 21.9879 6.12793C22.0962 6.21029 22.1756 6.32576 22.2135 6.45703L22.7799 8.66797C23.3339 8.90647 23.858 9.21128 24.3395 9.57617L26.5729 9.00488C26.7037 8.97145 26.8419 8.98176 26.9664 9.03418C27.0912 9.08673 27.1959 9.17931 27.2643 9.29688L28.9196 12.1074C28.9851 12.2261 29.0111 12.3634 28.9938 12.498C28.9764 12.6326 28.9162 12.7577 28.8229 12.8555L27.2076 14.5186C27.2473 14.8164 27.2672 15.1162 27.2672 15.416H23.6305V15.415C23.6304 14.6898 23.417 13.981 23.0172 13.3779C22.6174 12.7748 22.0493 12.304 21.3844 12.0264C20.7195 11.7488 19.9877 11.6769 19.2819 11.8184C18.5761 11.9598 17.9275 12.3085 17.4186 12.8213C16.9096 13.3342 16.5629 13.9887 16.4225 14.7002C16.3758 14.9371 16.3541 15.1768 16.3541 15.416H12.693C12.693 15.1162 12.7129 14.8164 12.7526 14.5186L11.1598 12.8555C11.0693 12.7553 11.0139 12.6281 11.0016 12.4932C10.9893 12.3581 11.0213 12.2226 11.0924 12.1074L12.6676 9.28516C12.7365 9.16839 12.8411 9.07691 12.9655 9.02441C13.0899 8.97199 13.2281 8.96162 13.359 8.99414L15.5924 9.56543C16.0758 9.20051 16.6012 8.89467 17.1569 8.65625L17.7867 6.45703C17.8246 6.32584 17.9032 6.21027 18.0114 6.12793C18.1196 6.04557 18.2517 6.00072 18.3873 6H21.6129Z" fill="#2E2A94"/>
</g>
<defs>
<clipPath id="clip0_11529_12634">
<rect width="28" height="28" fill="white" transform="translate(6 6)"/>
</clipPath>
</defs>
</svg>
