<svg width="40" height="40" viewBox="0 0 40 40" fill="none" xmlns="http://www.w3.org/2000/svg">
<circle cx="20" cy="20" r="20" fill="#9DADFE"/>
<path d="M15.9662 8.96127C16.3737 8.25559 17.3922 8.25558 17.7997 8.96127L28.6147 27.6934C29.0221 28.3991 28.5128 29.2812 27.698 29.2812H6.06792C5.25307 29.2812 4.74378 28.3991 5.15121 27.6934L15.9662 8.96127Z" fill="#2E2A94"/>
<path d="M22.4141 13.535C22.5425 13.3126 22.8638 13.3126 22.9922 13.535L31.5088 28.287C31.637 28.5093 31.4772 28.7867 31.2207 28.787H14.1865C13.9298 28.787 13.7694 28.5093 13.8975 28.287L22.4141 13.535Z" stroke="white"/>
<path d="M28.3041 18.8967C28.5067 18.5458 29.0131 18.5458 29.2157 18.8967L34.593 28.2105C34.7956 28.5614 34.5424 29 34.1372 29H30C29.5949 29 28.5 25.4856 26.5 22.0215L28.3041 18.8967Z" fill="#9DADFE"/>
<path d="M28.7881 18.8593C28.7935 18.8623 28.8005 18.8675 28.8076 18.8798L34.4766 28.6991C34.4837 28.7115 34.4845 28.7202 34.4844 28.7264C34.4842 28.7342 34.4822 28.744 34.4766 28.7538C34.4709 28.7635 34.4636 28.7702 34.457 28.7743C34.4517 28.7775 34.4432 28.7811 34.4287 28.7811H23.0908C23.0766 28.7811 23.0688 28.7775 23.0635 28.7743C23.0568 28.7703 23.0487 28.7637 23.043 28.7538C23.0373 28.744 23.0353 28.7342 23.0352 28.7264C23.035 28.7202 23.0359 28.7114 23.043 28.6991L28.7119 18.8798C28.7191 18.8673 28.7269 18.8623 28.7324 18.8593C28.7392 18.8556 28.7485 18.8524 28.7598 18.8524C28.7712 18.8524 28.7813 18.8555 28.7881 18.8593Z" stroke="white"/>
</svg>
