<svg width="40" height="40" viewBox="0 0 40 40" fill="none" xmlns="http://www.w3.org/2000/svg">
<circle cx="20" cy="20" r="20" fill="#9DADFE"/>
<path d="M11.7467 22.1696C11.7467 22.2102 11.7467 22.2439 11.7467 22.2764C11.7467 22.7062 11.7444 23.1372 11.7479 23.5669C11.749 23.7307 11.6956 23.8585 11.5434 23.927C11.3901 23.9967 11.26 23.9445 11.1392 23.8376C9.80454 22.6493 8.46872 21.4633 7.1329 20.2762C6.94356 20.1077 6.94472 19.8905 7.13987 19.7163C7.83566 19.096 8.53377 18.4769 9.23072 17.8578C9.86959 17.2909 10.5085 16.7241 11.1462 16.1549C11.2658 16.048 11.3959 16.0062 11.5434 16.0713C11.6909 16.1363 11.7479 16.2618 11.7467 16.422C11.7432 16.8646 11.7467 17.3072 11.7467 17.7509C11.7467 17.7846 11.7467 17.8194 11.7467 17.8612C13.9955 17.953 16.0225 18.6627 17.8427 19.9986V11.7478H17.7439C17.3037 11.7478 16.8646 11.7467 16.4244 11.7478C16.2653 11.7478 16.1398 11.6933 16.0724 11.5457C16.0051 11.397 16.048 11.267 16.1537 11.1485C17.3351 9.82078 18.5152 8.49193 19.6966 7.16308C19.8917 6.94238 20.1078 6.94238 20.3029 7.16308C21.4842 8.49193 22.6644 9.82078 23.8457 11.1485C23.9514 11.267 23.9944 11.3982 23.927 11.5457C23.8597 11.6933 23.7342 11.749 23.5751 11.749C23.1383 11.7467 22.7016 11.749 22.266 11.749C22.2323 11.749 22.1974 11.749 22.1568 11.749V16.3826C23.9735 15.0479 26.0016 14.337 28.2539 14.2452C28.2539 14.2023 28.2539 14.1686 28.2539 14.1349C28.2539 13.6923 28.2563 13.2498 28.2539 12.806C28.2539 12.6457 28.3085 12.5203 28.4572 12.4541C28.6047 12.389 28.7348 12.4309 28.8545 12.5366C30.1822 13.7179 31.511 14.8981 32.8399 16.0794C33.0652 16.2803 33.064 16.4848 32.841 16.6834C31.5284 17.8485 30.217 19.0159 28.9044 20.1809C28.8742 20.2076 28.8452 20.2367 28.8127 20.2611C28.7011 20.3459 28.578 20.3679 28.4502 20.3052C28.3236 20.2437 28.2563 20.1379 28.2563 19.9962C28.2563 19.5502 28.2563 19.1041 28.2563 18.6581V18.5408C28.0739 18.5582 27.902 18.5687 27.7324 18.5919C26.9088 18.7022 26.1282 18.9508 25.4115 19.3736C23.7482 20.3517 22.7004 21.7851 22.2857 23.6726C22.1882 24.1152 22.1521 24.5659 22.1521 25.0189C22.1521 27.5465 22.1521 30.0753 22.1521 32.6029C22.1521 32.8735 22.0244 33.0025 21.756 33.0025C20.5875 33.0025 19.4189 33.0025 18.2516 33.0025C17.9832 33.0025 17.8543 32.8735 17.8543 32.604C17.8543 31.2636 17.8543 29.9219 17.8543 28.5815C17.8555 25.9284 16.2014 23.524 13.7214 22.5761C13.1197 22.3461 12.4959 22.2137 11.8524 22.1684C11.8222 22.1661 11.7908 22.1684 11.749 22.1684L11.7467 22.1696ZM21.4622 32.3171V11.7537H18.5361V32.3171H21.4622ZM22.1498 21.8792L22.1672 21.885C22.1777 21.8675 22.1882 21.8501 22.1974 21.8315C22.6191 20.9801 23.1848 20.2367 23.9027 19.6141C25.1211 18.5547 26.5383 17.9739 28.1506 17.874C28.2295 17.8694 28.2563 17.8508 28.2563 17.766C28.2528 16.8553 28.2539 15.9446 28.2539 15.034C28.2539 15.0038 28.2516 14.9724 28.2493 14.9341C28.2098 14.9341 28.1773 14.9329 28.1436 14.9341C27.1237 14.9805 26.134 15.1757 25.1734 15.5207C24.1094 15.9028 23.1383 16.4499 22.2567 17.1585C22.18 17.2201 22.1475 17.2839 22.1475 17.3873C22.151 18.7975 22.1498 20.2076 22.1498 21.6178C22.1498 21.7061 22.1498 21.7932 22.1498 21.8815V21.8792ZM11.7525 21.468C14.5287 21.6945 16.5464 23.0535 17.8485 25.5033C17.8496 25.4859 17.852 25.4766 17.852 25.4673C17.852 23.9572 17.852 22.4472 17.8496 20.936C17.8496 20.8965 17.8241 20.843 17.7927 20.8198C17.5 20.5991 17.2119 20.3691 16.9053 20.1693C15.4905 19.247 13.9351 18.7243 12.2532 18.5745C12.0894 18.5594 11.9233 18.5547 11.7537 18.5443V21.4668L11.7525 21.468ZM19.9997 7.84958C19.0461 8.92288 18.1006 9.98573 17.1469 11.0602H22.8537C21.8978 9.98573 20.9546 8.92288 19.9997 7.84958ZM32.1499 16.3814C31.0766 15.4277 30.0137 14.4834 28.9393 13.5274V19.2354C30.0149 18.2794 31.0766 17.3362 32.1499 16.3814ZM11.0625 17.1434C9.9811 18.104 8.91825 19.0495 7.8496 19.9997C8.92406 20.9545 9.98691 21.8989 11.0625 22.856V17.1434Z" fill="#2E2A94"/>
<path d="M21.4612 32.3183H18.5352V11.7537H21.4612V32.3171V32.3183Z" fill="#2E2A94"/>
<path d="M22.1508 21.8791C22.1508 21.7908 22.1508 21.7037 22.1508 21.6154C22.1508 20.2052 22.1519 18.7951 22.1484 17.3849C22.1484 17.2827 22.181 17.2177 22.2576 17.1561C23.1393 16.4475 24.1103 15.9004 25.1744 15.5183C26.135 15.1733 27.1258 14.9781 28.1445 14.9317C28.1782 14.9305 28.2119 14.9317 28.2502 14.9317C28.2525 14.9712 28.2549 15.0014 28.2549 15.0316C28.2549 15.9422 28.2549 16.8529 28.2572 17.7636C28.2572 17.8484 28.2316 17.867 28.1515 17.8716C26.5392 17.9715 25.1221 18.5535 23.9036 19.6117C23.1857 20.2354 22.62 20.9777 22.1984 21.8291C22.1891 21.8477 22.1775 21.8651 22.1682 21.8826L22.1508 21.8768V21.8791Z" fill="#2E2A94"/>
<path d="M11.7512 21.4679V18.5454C11.9219 18.5559 12.0869 18.5605 12.2506 18.5756C13.9314 18.7255 15.4868 19.2482 16.9028 20.1705C17.2094 20.3703 17.4975 20.6002 17.7902 20.8209C17.8216 20.8442 17.8471 20.8976 17.8471 20.9371C17.8495 22.4472 17.8495 23.9572 17.8495 25.4684C17.8495 25.4777 17.8483 25.487 17.846 25.5044C16.5438 23.0547 14.5273 21.6956 11.75 21.4691L11.7512 21.4679Z" fill="#2E2A94"/>
<path d="M20.0013 7.84961C20.9549 8.92291 21.8993 9.9846 22.8553 11.0602H17.1484C18.1033 9.98576 19.0476 8.92291 20.0013 7.84961Z" fill="#2E2A94"/>
<path d="M32.1481 16.3816C31.0748 17.3364 30.0131 18.2796 28.9375 19.2356V13.5276C30.012 14.4836 31.076 15.4279 32.1481 16.3816Z" fill="#2E2A94"/>
<path d="M11.0645 17.1433V22.856C9.98887 21.9 8.92603 20.9556 7.85156 19.9996C8.92022 19.0495 9.98423 18.1039 11.0645 17.1433Z" fill="#2E2A94"/>
</svg>
