<svg width="40" height="40" viewBox="0 0 40 40" fill="none" xmlns="http://www.w3.org/2000/svg">
<circle cx="20" cy="20" r="20" fill="#9DADFE"/>
<mask id="mask0_11529_12545" style="mask-type:alpha" maskUnits="userSpaceOnUse" x="0" y="0" width="40" height="40">
<circle cx="20" cy="20" r="20" fill="#2E86C1"/>
</mask>
<g mask="url(#mask0_11529_12545)">
<rect x="2" y="30" width="36" height="10" fill="#2E2A94"/>
<path d="M17.4766 30.368V31.408H15.4446V32.616H17.2366V33.656H15.4446V34.96H17.4766V36H14.0766V30.368H17.4766ZM18.2707 31.424V30.384H22.7027V31.424H21.1667V36H19.7987V31.424H18.2707ZM23.5219 36V30.384H27.1779V31.424H24.8899V32.632H26.6019V33.672H24.8899V36H23.5219Z" fill="white"/>
</g>
<path d="M13.9675 7.02364H15.1075V13.9836H13.9675L10.5375 8.79364V13.9836H9.39746V7.02364H10.5375L13.9675 12.2036V7.02364ZM17.9045 7.01364C17.9045 7.22031 17.8345 7.39364 17.6945 7.53364C17.5545 7.67364 17.3812 7.74364 17.1745 7.74364C16.9745 7.74364 16.8045 7.67364 16.6645 7.53364C16.5245 7.39364 16.4545 7.22031 16.4545 7.01364C16.4545 6.80698 16.5245 6.63364 16.6645 6.49364C16.8045 6.35364 16.9745 6.28364 17.1745 6.28364C17.3812 6.28364 17.5545 6.35364 17.6945 6.49364C17.8345 6.63364 17.9045 6.80698 17.9045 7.01364ZM16.6045 13.9836V8.47364H17.7445V13.9836H16.6045ZM21.5512 8.47364V9.40364H20.5312V13.9836H19.3812V9.40364H18.7312V8.47364H19.3812V8.08364C19.3812 7.45031 19.5479 6.99031 19.8812 6.70364C20.2212 6.41031 20.7512 6.26364 21.4712 6.26364V7.21364C21.1245 7.21364 20.8812 7.28031 20.7412 7.41364C20.6012 7.54031 20.5312 7.76364 20.5312 8.08364V8.47364H21.5512ZM25.2315 9.40364H23.8915V12.4536C23.8915 12.6603 23.9382 12.8103 24.0315 12.9036C24.1315 12.9903 24.2982 13.0336 24.5315 13.0336H25.2315V13.9836H24.3315C23.2715 13.9836 22.7415 13.4736 22.7415 12.4536V9.40364H22.0915V8.47364H22.7415V7.10364H23.8915V8.47364H25.2315V9.40364ZM27.8022 13.8936L25.6322 8.47364H26.9022L28.4522 12.6736L30.0622 8.47364H31.2422L27.8622 16.5736H26.6822L27.8022 13.8936Z" fill="#2E2A94"/>
<path d="M10.4284 18.0336V24.9836H9.2884V20.2236L7.1684 24.9836H6.3784L4.2484 20.2236V24.9836H3.1084V18.0336H4.3384L6.7784 23.4836L9.2084 18.0336H10.4284ZM12.9268 18.0136C12.9268 18.2203 12.8568 18.3936 12.7168 18.5336C12.5768 18.6736 12.4034 18.7436 12.1968 18.7436C11.9968 18.7436 11.8268 18.6736 11.6868 18.5336C11.5468 18.3936 11.4768 18.2203 11.4768 18.0136C11.4768 17.807 11.5468 17.6336 11.6868 17.4936C11.8268 17.3536 11.9968 17.2836 12.1968 17.2836C12.4034 17.2836 12.5768 17.3536 12.7168 17.4936C12.8568 17.6336 12.9268 17.807 12.9268 18.0136ZM11.6268 24.9836V19.4736H12.7668V24.9836H11.6268ZM17.5935 23.5836C17.9268 23.2436 18.0935 22.7903 18.0935 22.2236C18.0935 21.657 17.9268 21.207 17.5935 20.8736C17.2668 20.5403 16.8768 20.3736 16.4235 20.3736C15.9701 20.3736 15.5768 20.537 15.2435 20.8636C14.9168 21.1903 14.7535 21.637 14.7535 22.2036C14.7535 22.7703 14.9168 23.227 15.2435 23.5736C15.5768 23.9136 15.9701 24.0836 16.4235 24.0836C16.8768 24.0836 17.2668 23.917 17.5935 23.5836ZM16.1835 25.0736C15.4501 25.0736 14.8335 24.807 14.3335 24.2736C13.8335 23.7336 13.5835 23.047 13.5835 22.2136C13.5835 21.3736 13.8301 20.6936 14.3235 20.1736C14.8235 19.647 15.4435 19.3836 16.1835 19.3836C16.6168 19.3836 16.9968 19.4836 17.3235 19.6836C17.6568 19.877 17.9135 20.1336 18.0935 20.4536V17.5836H19.2435V24.9836H18.0935V23.9536C17.9068 24.2936 17.6501 24.567 17.3235 24.7736C16.9968 24.9736 16.6168 25.0736 16.1835 25.0736ZM22.7608 25.0736C21.9608 25.0736 21.3108 24.8136 20.8108 24.2936C20.3108 23.7736 20.0608 23.087 20.0608 22.2336C20.0608 21.3736 20.3108 20.6836 20.8108 20.1636C21.3175 19.6436 21.9675 19.3836 22.7608 19.3836C23.4275 19.3836 23.9775 19.5436 24.4108 19.8636C24.8508 20.177 25.1475 20.627 25.3008 21.2136H24.0708C23.8642 20.6336 23.4275 20.3436 22.7608 20.3436C22.2942 20.3436 21.9208 20.5103 21.6408 20.8436C21.3675 21.1703 21.2308 21.6303 21.2308 22.2236C21.2308 22.817 21.3675 23.2803 21.6408 23.6136C21.9208 23.947 22.2942 24.1136 22.7608 24.1136C23.4208 24.1136 23.8575 23.8236 24.0708 23.2436H25.3008C25.1408 23.8036 24.8408 24.2503 24.4008 24.5836C23.9608 24.9103 23.4142 25.0736 22.7608 25.0736ZM29.7669 23.5836C30.1002 23.2436 30.2669 22.7903 30.2669 22.2236C30.2669 21.657 30.1002 21.207 29.7669 20.8736C29.4402 20.5403 29.0502 20.3736 28.5969 20.3736C28.1436 20.3736 27.7502 20.537 27.4169 20.8636C27.0902 21.1903 26.9269 21.637 26.9269 22.2036C26.9269 22.7703 27.0902 23.227 27.4169 23.5736C27.7502 23.9136 28.1436 24.0836 28.5969 24.0836C29.0502 24.0836 29.4402 23.917 29.7669 23.5836ZM28.3569 25.0736C27.6236 25.0736 27.0069 24.807 26.5069 24.2736C26.0069 23.7336 25.7569 23.047 25.7569 22.2136C25.7569 21.3736 26.0036 20.6936 26.4969 20.1736C26.9969 19.647 27.6169 19.3836 28.3569 19.3836C28.7902 19.3836 29.1702 19.4836 29.4969 19.6836C29.8302 19.877 30.0869 20.1336 30.2669 20.4536V19.4736H31.4169V24.9836H30.2669V23.9536C30.0802 24.2936 29.8236 24.567 29.4969 24.7736C29.1702 24.9736 28.7902 25.0736 28.3569 25.0736ZM36.6043 23.5736C36.9376 23.227 37.1043 22.7703 37.1043 22.2036C37.1043 21.637 36.9376 21.1903 36.6043 20.8636C36.2776 20.537 35.8843 20.3736 35.4243 20.3736C34.9709 20.3736 34.5776 20.5403 34.2443 20.8736C33.9176 21.207 33.7543 21.657 33.7543 22.2236C33.7543 22.7903 33.9176 23.2436 34.2443 23.5836C34.5776 23.917 34.9709 24.0836 35.4243 24.0836C35.8776 24.0836 36.2709 23.9136 36.6043 23.5736ZM35.6743 19.3836C36.4143 19.3836 37.0309 19.647 37.5243 20.1736C38.0176 20.6936 38.2643 21.3736 38.2643 22.2136C38.2643 23.047 38.0143 23.7336 37.5143 24.2736C37.0209 24.807 36.4076 25.0736 35.6743 25.0736C35.2409 25.0736 34.8609 24.9736 34.5343 24.7736C34.2076 24.567 33.9476 24.2936 33.7543 23.9536V27.6036H32.6143V19.4736H33.7543V20.4536C33.9409 20.1336 34.1976 19.877 34.5243 19.6836C34.8576 19.4836 35.2409 19.3836 35.6743 19.3836Z" fill="#2E2A94"/>
</svg>
