<svg width="40" height="40" viewBox="0 0 40 40" fill="none" xmlns="http://www.w3.org/2000/svg">
<circle cx="20" cy="20" r="20" fill="#9DADFE"/>
<path d="M15.9662 8.96127C16.3737 8.25559 17.3922 8.25558 17.7997 8.96127L28.6147 27.6934C29.0221 28.3991 28.5128 29.2812 27.698 29.2812H6.06792C5.25307 29.2812 4.74378 28.3991 5.15121 27.6934L15.9662 8.96127Z" fill="#2E2A94"/>
<path d="M21.5488 13.0292C22.0621 12.1401 23.3451 12.1401 23.8584 13.0292L32.375 27.7811C32.888 28.67 32.247 29.7808 31.2207 29.7811H14.1865C13.1601 29.7811 12.5183 28.6701 13.0312 27.7811L21.5488 13.0292Z" fill="#2E2A94" stroke="#9DADFE"/>
<path d="M27.8428 18.3798C28.2489 17.6767 29.2639 17.6766 29.6699 18.3798L35.3389 28.1991C35.7445 28.9023 35.2367 29.7811 34.4248 29.7811H23.0869C22.2749 29.7811 21.7678 28.9023 22.1738 28.1991L27.8428 18.3798Z" fill="#2E2A94" stroke="#9DADFE"/>
</svg>
