<svg width="40" height="40" viewBox="0 0 40 40" fill="none" xmlns="http://www.w3.org/2000/svg">
<circle cx="20" cy="20" r="20" fill="#9DADFE"/>
<g clip-path="url(#clip0_11529_12631)">
<rect x="10" y="23" width="7" height="7" fill="white"/>
<rect x="10" y="10" width="7" height="7" fill="white"/>
<rect x="23" y="23" width="7" height="7" fill="white"/>
<rect x="23" y="10" width="7" height="7" fill="white"/>
<path d="M10.0539 19H16.9461C18.0786 19 19 18.0786 19 16.9461V10.0539C19 8.92135 18.0786 8 16.9461 8H10.0539C8.92135 8 8 8.92135 8 10.0539V16.9461C8 18.0786 8.92135 19 10.0539 19ZM11.4689 12.8382H12.8382V11.4689C12.8382 11.0905 13.1444 10.7842 13.5228 10.7842C13.9012 10.7842 14.2075 11.0905 14.2075 11.4689V12.8382H15.5768C15.9552 12.8382 16.2614 13.1444 16.2614 13.5228C16.2614 13.9012 15.9552 14.2075 15.5768 14.2075H14.2075V15.5768C14.2075 15.9552 13.9012 16.2614 13.5228 16.2614C13.1444 16.2614 12.8382 15.9552 12.8382 15.5768V14.2075H11.4689C11.0905 14.2075 10.7842 13.9012 10.7842 13.5228C10.7842 13.1444 11.0905 12.8382 11.4689 12.8382Z" fill="#2E2A94"/>
<path d="M29.9461 8H23.0539C21.9214 8 21 8.92135 21 10.0539V16.9461C21 18.0786 21.9214 19 23.0539 19H29.9461C31.0786 19 32 18.0786 32 16.9461V10.0539C32 8.92135 31.0786 8 29.9461 8ZM28.5768 14.2075H24.4232C24.0448 14.2075 23.7386 13.9012 23.7386 13.5228C23.7386 13.1444 24.0448 12.8382 24.4232 12.8382H28.5768C28.9552 12.8382 29.2614 13.1444 29.2614 13.5228C29.2614 13.9012 28.9552 14.2075 28.5768 14.2075Z" fill="#2E2A94"/>
<path d="M29.9461 21H23.0539C21.9214 21 21 21.9214 21 23.0539V29.9461C21 31.0786 21.9214 32 23.0539 32H29.9461C31.0786 32 32 31.0786 32 29.9461V23.0539C32 21.9214 31.0786 21 29.9461 21ZM28.5768 28.5311H24.4232C24.0448 28.5311 23.7386 28.2249 23.7386 27.8465C23.7386 27.468 24.0448 27.1618 24.4232 27.1618H28.5768C28.9552 27.1618 29.2614 27.468 29.2614 27.8465C29.2614 28.2249 28.9552 28.5311 28.5768 28.5311ZM28.5768 25.7925H24.4232C24.0448 25.7925 23.7386 25.4863 23.7386 25.1079C23.7386 24.7295 24.0448 24.4232 24.4232 24.4232H28.5768C28.9552 24.4232 29.2614 24.7295 29.2614 25.1079C29.2614 25.4863 28.9552 25.7925 28.5768 25.7925Z" fill="#2E2A94"/>
<path d="M19 29.9461V23.0539C19 21.9214 18.0786 21 16.9461 21H10.0539C8.92135 21 8 21.9214 8 23.0539V29.9461C8 31.0786 8.92135 32 10.0539 32H16.9461C18.0786 32 19 31.0786 19 29.9461ZM15.4591 27.4453C15.7265 27.7127 15.7265 28.146 15.4591 28.4135C15.1917 28.6809 14.7584 28.6809 14.491 28.4135L13.5228 27.4453L12.5547 28.4135C12.2873 28.6809 11.854 28.6809 11.5865 28.4135C11.3191 28.146 11.3191 27.7127 11.5865 27.4453L12.5547 26.4772L11.5865 25.509C11.3191 25.2416 11.3191 24.8083 11.5865 24.5409C11.854 24.2735 12.2873 24.2735 12.5547 24.5409L13.5228 25.509L14.491 24.5409C14.7584 24.2735 15.1917 24.2735 15.4591 24.5409C15.7265 24.8083 15.7265 25.2416 15.4591 25.509L14.491 26.4772L15.4591 27.4453Z" fill="#2E2A94"/>
</g>
<defs>
<clipPath id="clip0_11529_12631">
<rect width="24" height="24" fill="white" transform="translate(8 8)"/>
</clipPath>
</defs>
</svg>
