<svg width="40" height="40" viewBox="0 0 40 40" fill="none" xmlns="http://www.w3.org/2000/svg">
<circle cx="20" cy="20" r="20" fill="#9DADFE"/>
<path fill-rule="evenodd" clip-rule="evenodd" d="M30.2776 23.7334C28.1114 23.7334 27.0245 26.3832 28.5561 27.9297C28.8382 28.2147 28.8382 28.6767 28.5561 28.9615L27.0005 30.5323C26.7184 30.8171 26.2607 30.8171 25.9785 30.5323C24.4469 28.9857 21.8226 30.0832 21.8226 32.2704C21.8226 32.6735 21.4989 33 21.1 33H18.9001C18.5011 33 18.1775 32.6736 18.1775 32.2704C18.1775 30.0805 15.5551 28.9838 14.0216 30.5323C13.7394 30.8171 13.2818 30.8171 12.9996 30.5323L11.444 28.9615C11.1619 28.6767 11.1619 28.2146 11.444 27.9297C12.9757 26.3832 11.8888 23.7334 9.72257 23.7334C9.32339 23.7334 9 23.4067 9 23.0039V22.2652C9 22.1263 9.11203 22.0129 9.24964 22.0126L14.3793 22.0006C14.5135 22.0003 14.6239 22.1069 14.6297 22.2422C14.7552 25.1274 17.1116 27.3209 20 27.3209C22.8886 27.3209 25.2451 25.1271 25.3703 22.2416C25.3761 22.1065 25.4863 22 25.6202 22H30.7498C30.8876 22 31 22.1135 31 22.2527V23.0039C31.0001 23.4067 30.6768 23.7334 30.2776 23.7334ZM23.0913 22.2745C23.104 22.126 22.9896 22 22.8419 22H17.1583C17.0106 22 16.8962 22.1261 16.9089 22.2745C17.0466 23.8763 18.378 25.0263 20 25.0263C21.6222 25.0263 22.9536 23.8763 23.0913 22.2745Z" fill="#2E2A94"/>
<path d="M16.5185 7.87136C16.4216 7.41198 16.533 6.9381 16.8286 6.57543C17.1241 6.20793 17.565 6 18.035 6H22.1146C22.5845 6 23.0254 6.20793 23.321 6.57543C23.6165 6.9381 23.728 7.41198 23.6311 7.87136L22.5215 12.618C22.4731 12.8404 22.2744 13 22.0467 13H18.1028C17.8751 13 17.6765 12.8404 17.628 12.618L16.5185 7.87136Z" fill="#2E2A94"/>
<path d="M30.8486 17.1998V19.5C30.8486 19.7663 30.631 19.9841 30.3651 19.9841H9.84293C9.57698 19.9841 9.35938 19.7663 9.35938 19.5V17.1998C9.35938 16.9287 9.57698 16.7157 9.84293 16.7157H10.6892C10.8632 13.3412 12.5464 10.5251 15.501 9L16.501 12.5C16.6412 13.1633 17.4589 14 18.1359 14H22.0721C22.749 14 23.3559 13.1633 23.501 12.5L24.501 9C27.4555 10.5251 29.3448 13.346 29.5188 16.7157H30.3651C30.631 16.7157 30.8486 16.9287 30.8486 17.1998Z" fill="#2E2A94"/>
</svg>
