<svg width="40" height="40" viewBox="0 0 40 40" fill="none" xmlns="http://www.w3.org/2000/svg">
<circle cx="20" cy="20" r="20" fill="#9DADFE"/>
<mask id="mask0_11529_12694" style="mask-type:alpha" maskUnits="userSpaceOnUse" x="0" y="0" width="40" height="40">
<circle cx="20" cy="20" r="20" fill="#2E86C1"/>
</mask>
<g mask="url(#mask0_11529_12694)">
<rect x="2" y="30" width="36" height="10" fill="#2E2A94"/>
<path d="M17.4766 30.368V31.408H15.4446V32.616H17.2366V33.656H15.4446V34.96H17.4766V36H14.0766V30.368H17.4766ZM18.2707 31.424V30.384H22.7027V31.424H21.1667V36H19.7987V31.424H18.2707ZM23.5219 36V30.384H27.1779V31.424H24.8899V32.632H26.6019V33.672H24.8899V36H23.5219Z" fill="white"/>
</g>
<path d="M8.49663 8.432H9.40863V14H8.49663L5.75263 9.848V14H4.84063V8.432H5.75263L8.49663 12.576V8.432ZM14.1183 14L13.7183 12.864H11.3903L10.9903 14H10.0383L12.0303 8.432H13.0863L15.0783 14H14.1183ZM11.6383 12.152H13.4703L12.5583 9.536L11.6383 12.152ZM17.4324 9.112C17.1604 9.112 16.939 9.18133 16.7684 9.32C16.5977 9.45867 16.5124 9.66133 16.5124 9.928C16.5124 10.1893 16.6137 10.3893 16.8164 10.528C17.019 10.6667 17.2644 10.768 17.5524 10.832C17.8404 10.896 18.1284 10.9707 18.4164 11.056C18.7044 11.136 18.9497 11.288 19.1524 11.512C19.355 11.736 19.4564 12.0533 19.4564 12.464C19.4564 12.8747 19.283 13.2427 18.9364 13.568C18.5897 13.8933 18.1257 14.056 17.5444 14.056C16.963 14.056 16.491 13.92 16.1284 13.648C15.7657 13.376 15.5844 13 15.5844 12.52H16.5604C16.5817 12.7653 16.6724 12.96 16.8324 13.104C16.9924 13.248 17.227 13.32 17.5364 13.32C17.8457 13.32 18.0884 13.24 18.2644 13.08C18.4457 12.92 18.5364 12.7307 18.5364 12.512C18.5364 12.2933 18.4804 12.1227 18.3684 12C18.2617 11.8773 18.1204 11.7867 17.9444 11.728C17.7737 11.664 17.5844 11.608 17.3764 11.56C17.1684 11.512 16.9577 11.456 16.7444 11.392C16.5364 11.328 16.3444 11.2453 16.1684 11.144C15.9977 11.0427 15.8564 10.896 15.7444 10.704C15.6377 10.5067 15.5844 10.2667 15.5844 9.984C15.5844 9.49867 15.7577 9.10933 16.1044 8.816C16.4564 8.51733 16.9097 8.368 17.4644 8.368C18.0244 8.368 18.4697 8.496 18.8004 8.752C19.1364 9.008 19.323 9.37867 19.3604 9.864H18.3524C18.331 9.65067 18.2404 9.472 18.0804 9.328C17.9204 9.184 17.7044 9.112 17.4324 9.112ZM21.2045 13.304H22.1085C22.7538 13.304 23.2498 13.12 23.5965 12.752C23.9485 12.384 24.1245 11.88 24.1245 11.24C24.1245 10.5947 23.9485 10.0907 23.5965 9.728C23.2498 9.36 22.7538 9.176 22.1085 9.176H21.2045V13.304ZM22.1085 8.44C23.0045 8.44 23.7192 8.69333 24.2525 9.2C24.7912 9.70133 25.0605 10.3813 25.0605 11.24C25.0605 12.0933 24.7912 12.768 24.2525 13.264C23.7192 13.7547 23.0045 14 22.1085 14H20.2925V8.44H22.1085ZM29.4764 14L29.0764 12.864H26.7484L26.3484 14H25.3964L27.3884 8.432H28.4444L30.4364 14H29.4764ZM26.9964 12.152H28.8284L27.9164 9.536L26.9964 12.152ZM33.5985 14.056C32.8038 14.056 32.1318 13.7893 31.5825 13.256C31.0332 12.7173 30.7585 12.0373 30.7585 11.216C30.7585 10.3893 31.0332 9.70933 31.5825 9.176C32.1318 8.63733 32.8038 8.368 33.5985 8.368C34.3985 8.368 35.0705 8.63733 35.6145 9.176C36.1638 9.70933 36.4385 10.3867 36.4385 11.208C36.4385 11.72 36.3265 12.184 36.1025 12.6C35.8838 13.0107 35.5798 13.3413 35.1905 13.592L36.5265 15.008H35.3665L34.3905 13.952C34.1505 14.0213 33.8865 14.056 33.5985 14.056ZM33.5985 9.2C33.0385 9.2 32.5798 9.384 32.2225 9.752C31.8705 10.12 31.6945 10.608 31.6945 11.216C31.6945 11.8187 31.8705 12.3067 32.2225 12.68C32.5798 13.048 33.0385 13.232 33.5985 13.232C34.1585 13.232 34.6145 13.048 34.9665 12.68C35.3238 12.3067 35.5025 11.8187 35.5025 11.216C35.5025 10.608 35.3238 10.12 34.9665 9.752C34.6145 9.384 34.1585 9.2 33.5985 9.2Z" fill="#2E2A94"/>
<path d="M12.7355 27.084C11.5275 27.084 10.5115 26.68 9.68753 25.872C8.86353 25.064 8.45153 24.04 8.45153 22.8C8.45153 21.552 8.86353 20.524 9.68753 19.716C10.5195 18.908 11.5355 18.504 12.7355 18.504C13.9435 18.504 14.9595 18.908 15.7835 19.716C16.6075 20.524 17.0195 21.548 17.0195 22.788C17.0195 23.524 16.8635 24.196 16.5515 24.804C16.2475 25.412 15.8235 25.908 15.2795 26.292L17.1395 28.452H15.0515L13.8155 26.952C13.4475 27.04 13.0875 27.084 12.7355 27.084ZM12.7355 20.052C11.9755 20.052 11.3555 20.304 10.8755 20.808C10.4035 21.304 10.1675 21.968 10.1675 22.8C10.1675 23.624 10.4035 24.288 10.8755 24.792C11.3555 25.288 11.9755 25.536 12.7355 25.536C13.4955 25.536 14.1115 25.288 14.5835 24.792C15.0555 24.288 15.2915 23.62 15.2915 22.788C15.2915 21.956 15.0555 21.292 14.5835 20.796C14.1115 20.3 13.4955 20.052 12.7355 20.052ZM18.592 18.228H23.956V19.704H20.128V21.696C20.296 21.512 20.528 21.36 20.824 21.24C21.12 21.112 21.48 21.048 21.904 21.048C22.328 21.048 22.728 21.136 23.104 21.312C23.488 21.488 23.78 21.724 23.98 22.02C24.38 22.596 24.58 23.236 24.58 23.94C24.58 24.868 24.312 25.612 23.776 26.172C23.248 26.724 22.512 27 21.568 27C20.624 27 19.88 26.78 19.336 26.34C18.8 25.892 18.484 25.308 18.388 24.588H20.044C20.116 24.9 20.28 25.148 20.536 25.332C20.8 25.516 21.148 25.608 21.58 25.608C22.02 25.608 22.36 25.46 22.6 25.164C22.84 24.868 22.96 24.476 22.96 23.988C22.96 23.5 22.836 23.124 22.588 22.86C22.348 22.596 22.024 22.464 21.616 22.464C20.848 22.464 20.376 22.772 20.2 23.388H18.592V18.228ZM25.8587 22.632C25.8587 19.728 26.9347 18.276 29.0867 18.276C31.2467 18.276 32.3267 19.728 32.3267 22.632C32.3267 25.528 31.2467 26.976 29.0867 26.976C26.9347 26.976 25.8587 25.528 25.8587 22.632ZM29.8067 19.992C29.6067 19.888 29.3707 19.836 29.0987 19.836C28.8267 19.836 28.5907 19.888 28.3907 19.992C28.1907 20.096 28.0347 20.228 27.9227 20.388C27.8187 20.548 27.7347 20.76 27.6707 21.024C27.6067 21.28 27.5627 21.528 27.5387 21.768C27.5227 22.008 27.5147 22.292 27.5147 22.62C27.5147 22.948 27.5227 23.232 27.5387 23.472C27.5627 23.712 27.6067 23.964 27.6707 24.228C27.7347 24.484 27.8187 24.696 27.9227 24.864C28.0347 25.024 28.1907 25.156 28.3907 25.26C28.5907 25.364 28.8267 25.416 29.0987 25.416C29.3707 25.416 29.6067 25.364 29.8067 25.26C30.0067 25.156 30.1587 25.024 30.2627 24.864C30.3747 24.696 30.4627 24.484 30.5267 24.228C30.5907 23.964 30.6307 23.712 30.6467 23.472C30.6707 23.232 30.6827 22.948 30.6827 22.62C30.6827 22.292 30.6707 22.008 30.6467 21.768C30.6307 21.528 30.5907 21.28 30.5267 21.024C30.4627 20.76 30.3747 20.548 30.2627 20.388C30.1587 20.228 30.0067 20.096 29.8067 19.992Z" fill="#2E2A94"/>
</svg>
