<svg width="40" height="40" viewBox="0 0 40 40" fill="none" xmlns="http://www.w3.org/2000/svg">
<circle cx="20" cy="20" r="20" fill="#9DADFE"/>
<path d="M10.2715 29V20.866H8.78753V19.06H12.2875V29H10.2715ZM14.3709 23.904C14.3709 20.516 15.6262 18.822 18.1369 18.822C20.6569 18.822 21.9169 20.516 21.9169 23.904C21.9169 27.2827 20.6569 28.972 18.1369 28.972C15.6262 28.972 14.3709 27.2827 14.3709 23.904ZM18.9769 20.824C18.7436 20.7027 18.4682 20.642 18.1509 20.642C17.8336 20.642 17.5582 20.7027 17.3249 20.824C17.0916 20.9453 16.9096 21.0993 16.7789 21.286C16.6576 21.4727 16.5596 21.72 16.4849 22.028C16.4102 22.3267 16.3589 22.616 16.3309 22.896C16.3122 23.176 16.3029 23.5073 16.3029 23.89C16.3029 24.2727 16.3122 24.604 16.3309 24.884C16.3589 25.164 16.4102 25.458 16.4849 25.766C16.5596 26.0647 16.6576 26.312 16.7789 26.508C16.9096 26.6947 17.0916 26.8487 17.3249 26.97C17.5582 27.0913 17.8336 27.152 18.1509 27.152C18.4682 27.152 18.7436 27.0913 18.9769 26.97C19.2102 26.8487 19.3876 26.6947 19.5089 26.508C19.6396 26.312 19.7422 26.0647 19.8169 25.766C19.8916 25.458 19.9382 25.164 19.9569 24.884C19.9849 24.604 19.9989 24.2727 19.9989 23.89C19.9989 23.5073 19.9849 23.176 19.9569 22.896C19.9382 22.616 19.8916 22.3267 19.8169 22.028C19.7422 21.72 19.6396 21.4727 19.5089 21.286C19.3876 21.0993 19.2102 20.9453 18.9769 20.824ZM23.4217 23.904C23.4217 20.516 24.677 18.822 27.1877 18.822C29.7077 18.822 30.9677 20.516 30.9677 23.904C30.9677 27.2827 29.7077 28.972 27.1877 28.972C24.677 28.972 23.4217 27.2827 23.4217 23.904ZM28.0277 20.824C27.7944 20.7027 27.519 20.642 27.2017 20.642C26.8844 20.642 26.609 20.7027 26.3757 20.824C26.1424 20.9453 25.9604 21.0993 25.8297 21.286C25.7084 21.4727 25.6104 21.72 25.5357 22.028C25.461 22.3267 25.4097 22.616 25.3817 22.896C25.363 23.176 25.3537 23.5073 25.3537 23.89C25.3537 24.2727 25.363 24.604 25.3817 24.884C25.4097 25.164 25.461 25.458 25.5357 25.766C25.6104 26.0647 25.7084 26.312 25.8297 26.508C25.9604 26.6947 26.1424 26.8487 26.3757 26.97C26.609 27.0913 26.8844 27.152 27.2017 27.152C27.519 27.152 27.7944 27.0913 28.0277 26.97C28.261 26.8487 28.4384 26.6947 28.5597 26.508C28.6904 26.312 28.793 26.0647 28.8677 25.766C28.9424 25.458 28.989 25.164 29.0077 24.884C29.0357 24.604 29.0497 24.2727 29.0497 23.89C29.0497 23.5073 29.0357 23.176 29.0077 22.896C28.989 22.616 28.9424 22.3267 28.8677 22.028C28.793 21.72 28.6904 21.4727 28.5597 21.286C28.4384 21.0993 28.261 20.9453 28.0277 20.824Z" fill="#2E2A94"/>
<path d="M7.99663 10.432H8.90863V16H7.99663L5.25263 11.848V16H4.34063V10.432H5.25263L7.99663 14.576V10.432ZM13.6183 16L13.2183 14.864H10.8903L10.4903 16H9.53825L11.5303 10.432H12.5863L14.5783 16H13.6183ZM11.1383 14.152H12.9703L12.0583 11.536L11.1383 14.152ZM16.9324 11.112C16.6604 11.112 16.439 11.1813 16.2684 11.32C16.0977 11.4587 16.0124 11.6613 16.0124 11.928C16.0124 12.1893 16.1137 12.3893 16.3164 12.528C16.519 12.6667 16.7644 12.768 17.0524 12.832C17.3404 12.896 17.6284 12.9707 17.9164 13.056C18.2044 13.136 18.4497 13.288 18.6524 13.512C18.855 13.736 18.9564 14.0533 18.9564 14.464C18.9564 14.8747 18.783 15.2427 18.4364 15.568C18.0897 15.8933 17.6257 16.056 17.0444 16.056C16.463 16.056 15.991 15.92 15.6284 15.648C15.2657 15.376 15.0844 15 15.0844 14.52H16.0604C16.0817 14.7653 16.1724 14.96 16.3324 15.104C16.4924 15.248 16.727 15.32 17.0364 15.32C17.3457 15.32 17.5884 15.24 17.7644 15.08C17.9457 14.92 18.0364 14.7307 18.0364 14.512C18.0364 14.2933 17.9804 14.1227 17.8684 14C17.7617 13.8773 17.6204 13.7867 17.4444 13.728C17.2737 13.664 17.0844 13.608 16.8764 13.56C16.6684 13.512 16.4577 13.456 16.2444 13.392C16.0364 13.328 15.8444 13.2453 15.6684 13.144C15.4977 13.0427 15.3564 12.896 15.2444 12.704C15.1377 12.5067 15.0844 12.2667 15.0844 11.984C15.0844 11.4987 15.2577 11.1093 15.6044 10.816C15.9564 10.5173 16.4097 10.368 16.9644 10.368C17.5244 10.368 17.9697 10.496 18.3004 10.752C18.6364 11.008 18.823 11.3787 18.8604 11.864H17.8524C17.831 11.6507 17.7404 11.472 17.5804 11.328C17.4204 11.184 17.2044 11.112 16.9324 11.112ZM20.7045 15.304H21.6085C22.2538 15.304 22.7498 15.12 23.0965 14.752C23.4485 14.384 23.6245 13.88 23.6245 13.24C23.6245 12.5947 23.4485 12.0907 23.0965 11.728C22.7498 11.36 22.2538 11.176 21.6085 11.176H20.7045V15.304ZM21.6085 10.44C22.5045 10.44 23.2192 10.6933 23.7525 11.2C24.2912 11.7013 24.5605 12.3813 24.5605 13.24C24.5605 14.0933 24.2912 14.768 23.7525 15.264C23.2192 15.7547 22.5045 16 21.6085 16H19.7925V10.44H21.6085ZM28.9764 16L28.5764 14.864H26.2484L25.8484 16H24.8964L26.8884 10.432H27.9444L29.9364 16H28.9764ZM26.4964 14.152H28.3284L27.4164 11.536L26.4964 14.152ZM33.0985 16.056C32.3038 16.056 31.6318 15.7893 31.0825 15.256C30.5332 14.7173 30.2585 14.0373 30.2585 13.216C30.2585 12.3893 30.5332 11.7093 31.0825 11.176C31.6318 10.6373 32.3038 10.368 33.0985 10.368C33.8985 10.368 34.5705 10.6373 35.1145 11.176C35.6638 11.7093 35.9385 12.3867 35.9385 13.208C35.9385 13.72 35.8265 14.184 35.6025 14.6C35.3838 15.0107 35.0798 15.3413 34.6905 15.592L36.0265 17.008H34.8665L33.8905 15.952C33.6505 16.0213 33.3865 16.056 33.0985 16.056ZM33.0985 11.2C32.5385 11.2 32.0798 11.384 31.7225 11.752C31.3705 12.12 31.1945 12.608 31.1945 13.216C31.1945 13.8187 31.3705 14.3067 31.7225 14.68C32.0798 15.048 32.5385 15.232 33.0985 15.232C33.6585 15.232 34.1145 15.048 34.4665 14.68C34.8238 14.3067 35.0025 13.8187 35.0025 13.216C35.0025 12.608 34.8238 12.12 34.4665 11.752C34.1145 11.384 33.6585 11.2 33.0985 11.2Z" fill="#2E2A94"/>
</svg>
