<svg width="40" height="40" viewBox="0 0 40 40" fill="none" xmlns="http://www.w3.org/2000/svg">
<circle cx="20" cy="20" r="20" fill="#9DADFE"/>
<mask id="mask0_11529_12691" style="mask-type:alpha" maskUnits="userSpaceOnUse" x="0" y="0" width="40" height="40">
<circle cx="20" cy="20" r="20" fill="#2E86C1"/>
</mask>
<g mask="url(#mask0_11529_12691)">
<rect x="2" y="30" width="36" height="10" fill="#2E2A94"/>
<path d="M17.4766 30.368V31.408H15.4446V32.616H17.2366V33.656H15.4446V34.96H17.4766V36H14.0766V30.368H17.4766ZM18.2707 31.424V30.384H22.7027V31.424H21.1667V36H19.7987V31.424H18.2707ZM23.5219 36V30.384H27.1779V31.424H24.8899V32.632H26.6019V33.672H24.8899V36H23.5219Z" fill="white"/>
</g>
<path d="M8.49663 8.432H9.40863V14H8.49663L5.75263 9.848V14H4.84063V8.432H5.75263L8.49663 12.576V8.432ZM14.1183 14L13.7183 12.864H11.3903L10.9903 14H10.0383L12.0303 8.432H13.0863L15.0783 14H14.1183ZM11.6383 12.152H13.4703L12.5583 9.536L11.6383 12.152ZM17.4324 9.112C17.1604 9.112 16.939 9.18133 16.7684 9.32C16.5977 9.45867 16.5124 9.66133 16.5124 9.928C16.5124 10.1893 16.6137 10.3893 16.8164 10.528C17.019 10.6667 17.2644 10.768 17.5524 10.832C17.8404 10.896 18.1284 10.9707 18.4164 11.056C18.7044 11.136 18.9497 11.288 19.1524 11.512C19.355 11.736 19.4564 12.0533 19.4564 12.464C19.4564 12.8747 19.283 13.2427 18.9364 13.568C18.5897 13.8933 18.1257 14.056 17.5444 14.056C16.963 14.056 16.491 13.92 16.1284 13.648C15.7657 13.376 15.5844 13 15.5844 12.52H16.5604C16.5817 12.7653 16.6724 12.96 16.8324 13.104C16.9924 13.248 17.227 13.32 17.5364 13.32C17.8457 13.32 18.0884 13.24 18.2644 13.08C18.4457 12.92 18.5364 12.7307 18.5364 12.512C18.5364 12.2933 18.4804 12.1227 18.3684 12C18.2617 11.8773 18.1204 11.7867 17.9444 11.728C17.7737 11.664 17.5844 11.608 17.3764 11.56C17.1684 11.512 16.9577 11.456 16.7444 11.392C16.5364 11.328 16.3444 11.2453 16.1684 11.144C15.9977 11.0427 15.8564 10.896 15.7444 10.704C15.6377 10.5067 15.5844 10.2667 15.5844 9.984C15.5844 9.49867 15.7577 9.10933 16.1044 8.816C16.4564 8.51733 16.9097 8.368 17.4644 8.368C18.0244 8.368 18.4697 8.496 18.8004 8.752C19.1364 9.008 19.323 9.37867 19.3604 9.864H18.3524C18.331 9.65067 18.2404 9.472 18.0804 9.328C17.9204 9.184 17.7044 9.112 17.4324 9.112ZM21.2045 13.304H22.1085C22.7538 13.304 23.2498 13.12 23.5965 12.752C23.9485 12.384 24.1245 11.88 24.1245 11.24C24.1245 10.5947 23.9485 10.0907 23.5965 9.728C23.2498 9.36 22.7538 9.176 22.1085 9.176H21.2045V13.304ZM22.1085 8.44C23.0045 8.44 23.7192 8.69333 24.2525 9.2C24.7912 9.70133 25.0605 10.3813 25.0605 11.24C25.0605 12.0933 24.7912 12.768 24.2525 13.264C23.7192 13.7547 23.0045 14 22.1085 14H20.2925V8.44H22.1085ZM29.4764 14L29.0764 12.864H26.7484L26.3484 14H25.3964L27.3884 8.432H28.4444L30.4364 14H29.4764ZM26.9964 12.152H28.8284L27.9164 9.536L26.9964 12.152ZM33.5985 14.056C32.8038 14.056 32.1318 13.7893 31.5825 13.256C31.0332 12.7173 30.7585 12.0373 30.7585 11.216C30.7585 10.3893 31.0332 9.70933 31.5825 9.176C32.1318 8.63733 32.8038 8.368 33.5985 8.368C34.3985 8.368 35.0705 8.63733 35.6145 9.176C36.1638 9.70933 36.4385 10.3867 36.4385 11.208C36.4385 11.72 36.3265 12.184 36.1025 12.6C35.8838 13.0107 35.5798 13.3413 35.1905 13.592L36.5265 15.008H35.3665L34.3905 13.952C34.1505 14.0213 33.8865 14.056 33.5985 14.056ZM33.5985 9.2C33.0385 9.2 32.5798 9.384 32.2225 9.752C31.8705 10.12 31.6945 10.608 31.6945 11.216C31.6945 11.8187 31.8705 12.3067 32.2225 12.68C32.5798 13.048 33.0385 13.232 33.5985 13.232C34.1585 13.232 34.6145 13.048 34.9665 12.68C35.3238 12.3067 35.5025 11.8187 35.5025 11.216C35.5025 10.608 35.3238 10.12 34.9665 9.752C34.6145 9.384 34.1585 9.2 33.5985 9.2Z" fill="#2E2A94"/>
<path d="M12.1613 27V20.028H10.8893V18.48H13.8893V27H12.1613ZM15.6751 22.632C15.6751 19.728 16.7511 18.276 18.9031 18.276C21.0631 18.276 22.1431 19.728 22.1431 22.632C22.1431 25.528 21.0631 26.976 18.9031 26.976C16.7511 26.976 15.6751 25.528 15.6751 22.632ZM19.6231 19.992C19.4231 19.888 19.1871 19.836 18.9151 19.836C18.6431 19.836 18.4071 19.888 18.2071 19.992C18.0071 20.096 17.8511 20.228 17.7391 20.388C17.6351 20.548 17.5511 20.76 17.4871 21.024C17.4231 21.28 17.3791 21.528 17.3551 21.768C17.3391 22.008 17.3311 22.292 17.3311 22.62C17.3311 22.948 17.3391 23.232 17.3551 23.472C17.3791 23.712 17.4231 23.964 17.4871 24.228C17.5511 24.484 17.6351 24.696 17.7391 24.864C17.8511 25.024 18.0071 25.156 18.2071 25.26C18.4071 25.364 18.6431 25.416 18.9151 25.416C19.1871 25.416 19.4231 25.364 19.6231 25.26C19.8231 25.156 19.9751 25.024 20.0791 24.864C20.1911 24.696 20.2791 24.484 20.3431 24.228C20.4071 23.964 20.4471 23.712 20.4631 23.472C20.4871 23.232 20.4991 22.948 20.4991 22.62C20.4991 22.292 20.4871 22.008 20.4631 21.768C20.4471 21.528 20.4071 21.28 20.3431 21.024C20.2791 20.76 20.1911 20.548 20.0791 20.388C19.9751 20.228 19.8231 20.096 19.6231 19.992ZM23.4329 22.632C23.4329 19.728 24.5089 18.276 26.6609 18.276C28.8209 18.276 29.9009 19.728 29.9009 22.632C29.9009 25.528 28.8209 26.976 26.6609 26.976C24.5089 26.976 23.4329 25.528 23.4329 22.632ZM27.3809 19.992C27.1809 19.888 26.9449 19.836 26.6729 19.836C26.4009 19.836 26.1649 19.888 25.9649 19.992C25.7649 20.096 25.6089 20.228 25.4969 20.388C25.3929 20.548 25.3089 20.76 25.2449 21.024C25.1809 21.28 25.1369 21.528 25.1129 21.768C25.0969 22.008 25.0889 22.292 25.0889 22.62C25.0889 22.948 25.0969 23.232 25.1129 23.472C25.1369 23.712 25.1809 23.964 25.2449 24.228C25.3089 24.484 25.3929 24.696 25.4969 24.864C25.6089 25.024 25.7649 25.156 25.9649 25.26C26.1649 25.364 26.4009 25.416 26.6729 25.416C26.9449 25.416 27.1809 25.364 27.3809 25.26C27.5809 25.156 27.7329 25.024 27.8369 24.864C27.9489 24.696 28.0369 24.484 28.1009 24.228C28.1649 23.964 28.2049 23.712 28.2209 23.472C28.2449 23.232 28.2569 22.948 28.2569 22.62C28.2569 22.292 28.2449 22.008 28.2209 21.768C28.2049 21.528 28.1649 21.28 28.1009 21.024C28.0369 20.76 27.9489 20.548 27.8369 20.388C27.7329 20.228 27.5809 20.096 27.3809 19.992Z" fill="#2E2A94"/>
</svg>
