<svg width="40" height="40" viewBox="0 0 40 40" fill="none" xmlns="http://www.w3.org/2000/svg">
<circle cx="20" cy="20" r="20" fill="#9DADFE"/>
<mask id="mask0_11529_12503" style="mask-type:alpha" maskUnits="userSpaceOnUse" x="0" y="0" width="40" height="40">
<circle cx="20" cy="20" r="20" fill="#2E86C1"/>
</mask>
<g mask="url(#mask0_11529_12503)">
<rect x="2" y="30" width="36" height="10" fill="#2E2A94"/>
<path d="M17.4766 30.368V31.408H15.4446V32.616H17.2366V33.656H15.4446V34.96H17.4766V36H14.0766V30.368H17.4766ZM18.2707 31.424V30.384H22.7027V31.424H21.1667V36H19.7987V31.424H18.2707ZM23.5219 36V30.384H27.1779V31.424H24.8899V32.632H26.6019V33.672H24.8899V36H23.5219Z" fill="white"/>
</g>
<path d="M14.4675 7.04H15.6075V14H14.4675L11.0375 8.81V14H9.89746V7.04H11.0375L14.4675 12.22V7.04ZM18.4045 7.03C18.4045 7.23667 18.3345 7.41 18.1945 7.55C18.0545 7.69 17.8812 7.76 17.6745 7.76C17.4745 7.76 17.3045 7.69 17.1645 7.55C17.0245 7.41 16.9545 7.23667 16.9545 7.03C16.9545 6.82333 17.0245 6.65 17.1645 6.51C17.3045 6.37 17.4745 6.3 17.6745 6.3C17.8812 6.3 18.0545 6.37 18.1945 6.51C18.3345 6.65 18.4045 6.82333 18.4045 7.03ZM17.1045 14V8.49H18.2445V14H17.1045ZM22.0512 8.49V9.42H21.0312V14H19.8812V9.42H19.2312V8.49H19.8812V8.1C19.8812 7.46667 20.0479 7.00667 20.3812 6.72C20.7212 6.42667 21.2512 6.28 21.9712 6.28V7.23C21.6245 7.23 21.3812 7.29667 21.2412 7.43C21.1012 7.55667 21.0312 7.78 21.0312 8.1V8.49H22.0512ZM25.7315 9.42H24.3915V12.47C24.3915 12.6767 24.4382 12.8267 24.5315 12.92C24.6315 13.0067 24.7982 13.05 25.0315 13.05H25.7315V14H24.8315C23.7715 14 23.2415 13.49 23.2415 12.47V9.42H22.5915V8.49H23.2415V7.12H24.3915V8.49H25.7315V9.42ZM28.3022 13.91L26.1322 8.49H27.4022L28.9522 12.69L30.5622 8.49H31.7422L28.3622 16.59H27.1822L28.3022 13.91Z" fill="#2E2A94"/>
<path d="M9.47286 18.228H14.8369V19.704H11.0089V21.696C11.1769 21.512 11.4089 21.36 11.7049 21.24C12.0009 21.112 12.3609 21.048 12.7849 21.048C13.2089 21.048 13.6089 21.136 13.9849 21.312C14.3689 21.488 14.6609 21.724 14.8609 22.02C15.2609 22.596 15.4609 23.236 15.4609 23.94C15.4609 24.868 15.1929 25.612 14.6569 26.172C14.1289 26.724 13.3929 27 12.4489 27C11.5049 27 10.7609 26.78 10.2169 26.34C9.68086 25.892 9.36486 25.308 9.26886 24.588H10.9249C10.9969 24.9 11.1609 25.148 11.4169 25.332C11.6809 25.516 12.0289 25.608 12.4609 25.608C12.9009 25.608 13.2409 25.46 13.4809 25.164C13.7209 24.868 13.8409 24.476 13.8409 23.988C13.8409 23.5 13.7169 23.124 13.4689 22.86C13.2289 22.596 12.9049 22.464 12.4969 22.464C11.7289 22.464 11.2569 22.772 11.0809 23.388H9.47286V18.228ZM16.7395 22.632C16.7395 19.728 17.8155 18.276 19.9675 18.276C22.1275 18.276 23.2075 19.728 23.2075 22.632C23.2075 25.528 22.1275 26.976 19.9675 26.976C17.8155 26.976 16.7395 25.528 16.7395 22.632ZM20.6875 19.992C20.4875 19.888 20.2515 19.836 19.9795 19.836C19.7075 19.836 19.4715 19.888 19.2715 19.992C19.0715 20.096 18.9155 20.228 18.8035 20.388C18.6995 20.548 18.6155 20.76 18.5515 21.024C18.4875 21.28 18.4435 21.528 18.4195 21.768C18.4035 22.008 18.3955 22.292 18.3955 22.62C18.3955 22.948 18.4035 23.232 18.4195 23.472C18.4435 23.712 18.4875 23.964 18.5515 24.228C18.6155 24.484 18.6995 24.696 18.8035 24.864C18.9155 25.024 19.0715 25.156 19.2715 25.26C19.4715 25.364 19.7075 25.416 19.9795 25.416C20.2515 25.416 20.4875 25.364 20.6875 25.26C20.8875 25.156 21.0395 25.024 21.1435 24.864C21.2555 24.696 21.3435 24.484 21.4075 24.228C21.4715 23.964 21.5115 23.712 21.5275 23.472C21.5515 23.232 21.5635 22.948 21.5635 22.62C21.5635 22.292 21.5515 22.008 21.5275 21.768C21.5115 21.528 21.4715 21.28 21.4075 21.024C21.3435 20.76 21.2555 20.548 21.1435 20.388C21.0395 20.228 20.8875 20.096 20.6875 19.992ZM24.4973 22.632C24.4973 19.728 25.5733 18.276 27.7253 18.276C29.8853 18.276 30.9653 19.728 30.9653 22.632C30.9653 25.528 29.8853 26.976 27.7253 26.976C25.5733 26.976 24.4973 25.528 24.4973 22.632ZM28.4453 19.992C28.2453 19.888 28.0093 19.836 27.7373 19.836C27.4653 19.836 27.2293 19.888 27.0293 19.992C26.8293 20.096 26.6733 20.228 26.5613 20.388C26.4573 20.548 26.3733 20.76 26.3093 21.024C26.2453 21.28 26.2013 21.528 26.1773 21.768C26.1613 22.008 26.1533 22.292 26.1533 22.62C26.1533 22.948 26.1613 23.232 26.1773 23.472C26.2013 23.712 26.2453 23.964 26.3093 24.228C26.3733 24.484 26.4573 24.696 26.5613 24.864C26.6733 25.024 26.8293 25.156 27.0293 25.26C27.2293 25.364 27.4653 25.416 27.7373 25.416C28.0093 25.416 28.2453 25.364 28.4453 25.26C28.6453 25.156 28.7973 25.024 28.9013 24.864C29.0133 24.696 29.1013 24.484 29.1653 24.228C29.2293 23.964 29.2693 23.712 29.2853 23.472C29.3093 23.232 29.3213 22.948 29.3213 22.62C29.3213 22.292 29.3093 22.008 29.2853 21.768C29.2693 21.528 29.2293 21.28 29.1653 21.024C29.1013 20.76 29.0133 20.548 28.9013 20.388C28.7973 20.228 28.6453 20.096 28.4453 19.992Z" fill="#2E2A94"/>
</svg>
