<svg width="40" height="40" viewBox="0 0 40 40" fill="none" xmlns="http://www.w3.org/2000/svg">
<circle cx="20" cy="20" r="20" fill="#9DADFE"/>
<mask id="mask0_11529_12578" style="mask-type:alpha" maskUnits="userSpaceOnUse" x="0" y="0" width="40" height="40">
<circle cx="20" cy="20" r="20" fill="#2E86C1"/>
</mask>
<g mask="url(#mask0_11529_12578)">
<rect x="2" y="30" width="36" height="10" fill="#2E2A94"/>
<path d="M17.4766 30.368V31.408H15.4446V32.616H17.2366V33.656H15.4446V34.96H17.4766V36H14.0766V30.368H17.4766ZM18.2707 31.424V30.384H22.7027V31.424H21.1667V36H19.7987V31.424H18.2707ZM23.5219 36V30.384H27.1779V31.424H24.8899V32.632H26.6019V33.672H24.8899V36H23.5219Z" fill="white"/>
</g>
<path d="M30.4467 14.971L27.4467 7.471C27.3387 7.20475 27.047 7 26.75 7H22.112C21.8015 6.12925 20.9765 5.5 20 5.5C19.0235 5.5 18.1985 6.12925 17.888 7H13.25C12.9485 7 12.6567 7.21075 12.5532 7.471L9.55325 14.971C9.54575 14.9897 9.5 15.2388 9.5 15.25C9.5 15.253 9.50075 15.256 9.50075 15.259C9.50075 17.2998 11.171 19 13.25 19C15.308 19 16.9812 17.3328 16.997 15.2785C16.9977 15.205 16.9565 14.9965 16.946 14.9718L14.3577 8.5H17.888C18.1145 9.13525 18.6147 9.6355 19.25 9.862L18.5 22.75H16.25C15.0095 22.75 14 23.0095 14 24.25V25.75C14 26.164 14.3352 26.5 14.75 26.5H25.25C25.6647 26.5 26 26.164 26 25.75V24.25C26 23.0095 24.9905 22.75 23.75 22.75H21.5L20.75 9.862C21.3852 9.6355 21.8855 9.13525 22.112 8.5H25.6423L23.054 14.971C23.0262 15.0415 23.0037 15.2905 23.003 15.2778C23.0187 17.3327 24.692 19 26.75 19C28.808 19 30.4812 17.3328 30.497 15.2785C30.4977 15.205 30.4565 14.9965 30.4467 14.971ZM11.3578 14.5L13.25 9.769L15.1422 14.5H11.3578ZM24.8577 14.5L26.75 9.769L28.6422 14.5H24.8577Z" fill="#2E2A94"/>
</svg>
