<svg width="40" height="40" viewBox="0 0 40 40" fill="none" xmlns="http://www.w3.org/2000/svg">
<circle cx="20" cy="20" r="20" fill="#9DADFE"/>
<path d="M12.2437 19.766H18.5017V21.488H14.0357V23.812C14.2317 23.5973 14.5024 23.42 14.8477 23.28C15.1931 23.1307 15.6131 23.056 16.1077 23.056C16.6024 23.056 17.0691 23.1587 17.5077 23.364C17.9557 23.5693 18.2964 23.8447 18.5297 24.19C18.9964 24.862 19.2297 25.6087 19.2297 26.43C19.2297 27.5127 18.9171 28.3807 18.2917 29.034C17.6757 29.678 16.8171 30 15.7157 30C14.6144 30 13.7464 29.7433 13.1117 29.23C12.4864 28.7073 12.1177 28.026 12.0057 27.186H13.9377C14.0217 27.55 14.2131 27.8393 14.5117 28.054C14.8197 28.2687 15.2257 28.376 15.7297 28.376C16.2431 28.376 16.6397 28.2033 16.9197 27.858C17.1997 27.5127 17.3397 27.0553 17.3397 26.486C17.3397 25.9167 17.1951 25.478 16.9057 25.17C16.6257 24.862 16.2477 24.708 15.7717 24.708C14.8757 24.708 14.3251 25.0673 14.1197 25.786H12.2437V19.766ZM20.7215 24.904C20.7215 21.516 21.9768 19.822 24.4875 19.822C27.0075 19.822 28.2675 21.516 28.2675 24.904C28.2675 28.2827 27.0075 29.972 24.4875 29.972C21.9768 29.972 20.7215 28.2827 20.7215 24.904ZM25.3275 21.824C25.0942 21.7027 24.8188 21.642 24.5015 21.642C24.1842 21.642 23.9088 21.7027 23.6755 21.824C23.4422 21.9453 23.2602 22.0993 23.1295 22.286C23.0082 22.4727 22.9102 22.72 22.8355 23.028C22.7608 23.3267 22.7095 23.616 22.6815 23.896C22.6628 24.176 22.6535 24.5073 22.6535 24.89C22.6535 25.2727 22.6628 25.604 22.6815 25.884C22.7095 26.164 22.7608 26.458 22.8355 26.766C22.9102 27.0647 23.0082 27.312 23.1295 27.508C23.2602 27.6947 23.4422 27.8487 23.6755 27.97C23.9088 28.0913 24.1842 28.152 24.5015 28.152C24.8188 28.152 25.0942 28.0913 25.3275 27.97C25.5608 27.8487 25.7382 27.6947 25.8595 27.508C25.9902 27.312 26.0928 27.0647 26.1675 26.766C26.2422 26.458 26.2888 26.164 26.3075 25.884C26.3355 25.604 26.3495 25.2727 26.3495 24.89C26.3495 24.5073 26.3355 24.176 26.3075 23.896C26.2888 23.616 26.2422 23.3267 26.1675 23.028C26.0928 22.72 25.9902 22.4727 25.8595 22.286C25.7382 22.0993 25.5608 21.9453 25.3275 21.824Z" fill="#2E2A94"/>
<path d="M13.7026 8.344H14.9566V16H13.7026L9.92959 10.291V16H8.67559V8.344H9.92959L13.7026 14.042V8.344ZM19.1553 16.099C18.2753 16.099 17.5603 15.813 17.0103 15.241C16.4603 14.669 16.1853 13.91 16.1853 12.964C16.1853 12.018 16.464 11.2627 17.0213 10.698C17.5787 10.126 18.2973 9.84 19.1773 9.84C20.0647 9.84 20.7833 10.115 21.3333 10.665C21.8833 11.2077 22.1583 11.919 22.1583 12.799C22.1583 13.0117 22.1437 13.2097 22.1143 13.393H17.4723C17.5017 13.899 17.6703 14.3023 17.9783 14.603C18.2937 14.8963 18.686 15.043 19.1553 15.043C19.8373 15.043 20.3177 14.7607 20.5963 14.196H21.9493C21.766 14.7533 21.4323 15.2117 20.9483 15.571C20.4643 15.923 19.8667 16.099 19.1553 16.099ZM20.8493 12.535C20.842 12.0363 20.677 11.6403 20.3543 11.347C20.0317 11.0463 19.6393 10.896 19.1773 10.896C18.7153 10.896 18.3267 11.0463 18.0113 11.347C17.7033 11.6403 17.5273 12.0363 17.4833 12.535H20.8493ZM27.9464 9.939L25.9884 12.931L27.9464 16H26.5274L25.2184 13.943L23.9864 16H22.6774L24.6354 13.019L22.6774 9.939H24.0964L25.4054 11.996L26.6374 9.939H27.9464ZM31.8186 10.962H30.3446V14.317C30.3446 14.5443 30.396 14.7093 30.4986 14.812C30.6086 14.9073 30.792 14.955 31.0486 14.955H31.8186V16H30.8286C29.6626 16 29.0796 15.439 29.0796 14.317V10.962H28.3646V9.939H29.0796V8.432H30.3446V9.939H31.8186V10.962Z" fill="#2E2A94"/>
</svg>
