<svg width="40" height="40" viewBox="0 0 40 40" fill="none" xmlns="http://www.w3.org/2000/svg">
<circle cx="20" cy="20" r="20" fill="#9DADFE"/>
<mask id="mask0_11529_12554" style="mask-type:alpha" maskUnits="userSpaceOnUse" x="0" y="0" width="40" height="40">
<circle cx="20" cy="20" r="20" fill="#2E86C1"/>
</mask>
<g mask="url(#mask0_11529_12554)">
<rect x="2" y="30" width="36" height="10" fill="#2E2A94"/>
<path d="M17.4766 30.368V31.408H15.4446V32.616H17.2366V33.656H15.4446V34.96H17.4766V36H14.0766V30.368H17.4766ZM18.2707 31.424V30.384H22.7027V31.424H21.1667V36H19.7987V31.424H18.2707ZM23.5219 36V30.384H27.1779V31.424H24.8899V32.632H26.6019V33.672H24.8899V36H23.5219Z" fill="white"/>
</g>
<path d="M29.9958 25.631V10.1807H25.4516V5.63653H22.7251V3.81885H17.272V5.63653H14.5455V10.1807H10.0013V25.631H8.18359V27.4487H10.0013H14.5455H16.3632H18.1809V24.7222C18.1809 23.7225 18.9988 22.9045 19.9985 22.9045C20.9983 22.9045 21.8162 23.7225 21.8162 24.7222V27.4487H23.6339H25.4516H29.9958H31.8135V25.631H29.9958ZM14.5455 25.631H11.819V11.9984H14.5455V25.631ZM19.0897 21.0868H16.3632V19.2692H19.0897V21.0868ZM19.0897 17.4515H16.3632V15.6338H19.0897V17.4515ZM19.0897 13.8161H16.3632V11.9984H19.0897V13.8161ZM19.0897 10.1807H16.3632V8.36306H19.0897V10.1807ZM23.6339 21.0868H20.9074V19.2692H23.6339V21.0868ZM23.6339 17.4515H20.9074V15.6338H23.6339V17.4515ZM23.6339 13.8161H20.9074V11.9984H23.6339V13.8161ZM23.6339 10.1807H20.9074V8.36306H23.6339V10.1807ZM28.1781 25.631H25.4516V11.9984H28.1781V25.631Z" fill="#2E2A94"/>
</svg>
