<svg width="40" height="40" viewBox="0 0 40 40" fill="none" xmlns="http://www.w3.org/2000/svg">
<circle cx="20" cy="20" r="20" fill="#9DADFE"/>
<path d="M12.7437 19.766H19.0017V21.488H14.5357V23.812C14.7317 23.5973 15.0024 23.42 15.3477 23.28C15.6931 23.1307 16.1131 23.056 16.6077 23.056C17.1024 23.056 17.5691 23.1587 18.0077 23.364C18.4557 23.5693 18.7964 23.8447 19.0297 24.19C19.4964 24.862 19.7297 25.6087 19.7297 26.43C19.7297 27.5127 19.4171 28.3807 18.7917 29.034C18.1757 29.678 17.3171 30 16.2157 30C15.1144 30 14.2464 29.7433 13.6117 29.23C12.9864 28.7073 12.6177 28.026 12.5057 27.186H14.4377C14.5217 27.55 14.7131 27.8393 15.0117 28.054C15.3197 28.2687 15.7257 28.376 16.2297 28.376C16.7431 28.376 17.1397 28.2033 17.4197 27.858C17.6997 27.5127 17.8397 27.0553 17.8397 26.486C17.8397 25.9167 17.6951 25.478 17.4057 25.17C17.1257 24.862 16.7477 24.708 16.2717 24.708C15.3757 24.708 14.8251 25.0673 14.6197 25.786H12.7437V19.766ZM21.2215 24.904C21.2215 21.516 22.4768 19.822 24.9875 19.822C27.5075 19.822 28.7675 21.516 28.7675 24.904C28.7675 28.2827 27.5075 29.972 24.9875 29.972C22.4768 29.972 21.2215 28.2827 21.2215 24.904ZM25.8275 21.824C25.5942 21.7027 25.3188 21.642 25.0015 21.642C24.6842 21.642 24.4088 21.7027 24.1755 21.824C23.9422 21.9453 23.7602 22.0993 23.6295 22.286C23.5082 22.4727 23.4102 22.72 23.3355 23.028C23.2608 23.3267 23.2095 23.616 23.1815 23.896C23.1628 24.176 23.1535 24.5073 23.1535 24.89C23.1535 25.2727 23.1628 25.604 23.1815 25.884C23.2095 26.164 23.2608 26.458 23.3355 26.766C23.4102 27.0647 23.5082 27.312 23.6295 27.508C23.7602 27.6947 23.9422 27.8487 24.1755 27.97C24.4088 28.0913 24.6842 28.152 25.0015 28.152C25.3188 28.152 25.5942 28.0913 25.8275 27.97C26.0608 27.8487 26.2382 27.6947 26.3595 27.508C26.4902 27.312 26.5928 27.0647 26.6675 26.766C26.7422 26.458 26.7888 26.164 26.8075 25.884C26.8355 25.604 26.8495 25.2727 26.8495 24.89C26.8495 24.5073 26.8355 24.176 26.8075 23.896C26.7888 23.616 26.7422 23.3267 26.6675 23.028C26.5928 22.72 26.4902 22.4727 26.3595 22.286C26.2382 22.0993 26.0608 21.9453 25.8275 21.824Z" fill="#2E2A94"/>
<path d="M13.8642 8.344H15.1182V16H13.8642L10.0912 10.291V16H8.83721V8.344H10.0912L13.8642 14.042V8.344ZM18.1949 8.333C18.1949 8.56033 18.1179 8.751 17.9639 8.905C17.8099 9.059 17.6193 9.136 17.3919 9.136C17.1719 9.136 16.9849 9.059 16.8309 8.905C16.6769 8.751 16.5999 8.56033 16.5999 8.333C16.5999 8.10567 16.6769 7.915 16.8309 7.761C16.9849 7.607 17.1719 7.53 17.3919 7.53C17.6193 7.53 17.8099 7.607 17.9639 7.761C18.1179 7.915 18.1949 8.10567 18.1949 8.333ZM16.7649 16V9.939H18.0189V16H16.7649ZM22.2063 9.939V10.962H21.0843V16H19.8193V10.962H19.1043V9.939H19.8193V9.51C19.8193 8.81333 20.0027 8.30733 20.3693 7.992C20.7433 7.66933 21.3263 7.508 22.1183 7.508V8.553C21.737 8.553 21.4693 8.62633 21.3153 8.773C21.1613 8.91233 21.0843 9.158 21.0843 9.51V9.939H22.2063ZM26.2547 10.962H24.7807V14.317C24.7807 14.5443 24.832 14.7093 24.9347 14.812C25.0447 14.9073 25.228 14.955 25.4847 14.955H26.2547V16H25.2647C24.0987 16 23.5157 15.439 23.5157 14.317V10.962H22.8007V9.939H23.5157V8.432H24.7807V9.939H26.2547V10.962ZM29.0824 15.901L26.6954 9.939H28.0924L29.7974 14.559L31.5684 9.939H32.8664L29.1484 18.849H27.8504L29.0824 15.901Z" fill="#2E2A94"/>
</svg>
