<svg width="40" height="40" viewBox="0 0 40 40" fill="none" xmlns="http://www.w3.org/2000/svg">
<circle cx="20" cy="20" r="20" fill="#9DADFE"/>
<mask id="mask0_11529_12654" style="mask-type:alpha" maskUnits="userSpaceOnUse" x="0" y="0" width="40" height="40">
<circle cx="20" cy="20" r="20" fill="#2E86C1"/>
</mask>
<g mask="url(#mask0_11529_12654)">
<rect x="2" y="30" width="36" height="10" fill="#2E2A94"/>
<path d="M17.4766 30.368V31.408H15.4446V32.616H17.2366V33.656H15.4446V34.96H17.4766V36H14.0766V30.368H17.4766ZM18.2707 31.424V30.384H22.7027V31.424H21.1667V36H19.7987V31.424H18.2707ZM23.5219 36V30.384H27.1779V31.424H24.8899V32.632H26.6019V33.672H24.8899V36H23.5219Z" fill="white"/>
</g>
<path d="M27.4983 11.671C27.5167 12.038 27.521 12.4068 27.556 12.7721C27.6312 13.5523 28.0877 14.1258 28.6184 14.656C28.956 14.9936 29.3066 15.3216 29.624 15.6774C30.2536 16.3812 30.2658 16.8836 29.6572 17.5969C29.3407 17.9674 28.9901 18.3119 28.6333 18.6451C27.8962 19.3324 27.4852 20.1464 27.5123 21.1721C27.528 21.7552 27.4957 22.3409 27.4581 22.9232C27.41 23.6634 27.0497 24.0331 26.31 24.0825C25.6585 24.1268 25.0036 24.1389 24.3496 24.1441C23.5468 24.1502 22.8587 24.4192 22.2842 24.972C21.9554 25.2887 21.6354 25.6132 21.3057 25.9291C21.1492 26.0792 20.9883 26.2268 20.816 26.3587C20.2109 26.822 19.7667 26.8359 19.1643 26.3587C18.7909 26.0627 18.4403 25.7313 18.1202 25.3798C17.3437 24.5268 16.4169 24.0634 15.2355 24.1311C14.78 24.1571 14.3191 24.1294 13.8636 24.0964C12.8248 24.0218 12.4925 23.6617 12.4636 22.6177C12.4462 21.9582 12.4374 21.2987 12.4077 20.6401C12.3788 20.0075 12.099 19.4747 11.6697 19.02C11.2823 18.6096 10.8731 18.2182 10.4848 17.8086C9.64978 16.9278 9.6454 16.4124 10.4735 15.5238C10.7918 15.1828 11.1284 14.8574 11.4668 14.5354C12.1532 13.8837 12.4549 13.0828 12.461 12.1491C12.4645 11.5226 12.4706 10.8934 12.5301 10.2704C12.5913 9.62998 12.8807 9.34449 13.5243 9.26379C13.9869 9.20565 14.4608 9.17441 14.9251 9.20565C16.2638 9.2959 17.3534 8.85334 18.2225 7.83459C18.4953 7.51439 18.8171 7.22889 19.1477 6.96596C19.7493 6.48609 20.1961 6.47568 20.7959 6.95381C21.1938 7.27055 21.5637 7.6298 21.9064 8.00554C22.6733 8.8464 23.6098 9.24036 24.7527 9.20305C25.3062 9.18569 25.8649 9.20565 26.4158 9.26292C27.0891 9.33321 27.3969 9.66903 27.4581 10.3407C27.4992 10.7815 27.5079 11.2258 27.5307 11.6684C27.5202 11.6684 27.5088 11.6701 27.4983 11.671Z" fill="#2E2A94"/>
<path d="M24.2061 13.1284C24.4715 13.1442 24.6511 13.3285 24.7295 13.5249C24.7973 13.6951 24.8035 13.903 24.7207 14.0884L24.6797 14.1665C24.6153 14.2717 24.521 14.3578 24.4707 14.4077C22.6983 16.1684 20.9257 17.9282 19.1523 19.688C19.0893 19.7505 19.0139 19.8114 18.9443 19.8706C18.9432 19.8718 18.9425 19.8734 18.9414 19.8745C18.8563 19.9601 18.7242 19.9715 18.627 19.9077L18.5879 19.8755C17.6716 18.9619 16.7605 18.0589 15.8584 17.1489L15.8574 17.1499C15.7294 17.0211 15.6383 16.8576 15.6328 16.6694C15.6273 16.4796 15.7108 16.3078 15.8438 16.1665C15.9788 16.0236 16.1573 15.9422 16.3496 15.9438C16.5405 15.9455 16.7206 16.0284 16.8652 16.1694C17.4721 16.7621 18.0738 17.3603 18.6709 17.9624L18.7549 18.064C18.7582 18.0687 18.7605 18.0739 18.7637 18.0786C19.4154 17.4237 20.0051 16.8295 20.5986 16.2397C21.5526 15.2913 22.507 14.3364 23.4795 13.4009L23.5547 13.3374C23.6342 13.2776 23.7252 13.2301 23.8154 13.1958C23.9352 13.1503 24.0733 13.1207 24.2061 13.1284Z" fill="white" stroke="white" stroke-width="0.5" stroke-linejoin="round"/>
</svg>
