<svg width="40" height="40" viewBox="0 0 40 40" fill="none" xmlns="http://www.w3.org/2000/svg">
<circle cx="20" cy="20" r="20" fill="#9DADFE"/>
<path d="M22.9303 30.9967C21.0413 30.9967 19.1531 31.0041 17.2641 30.9935C16.3371 30.9886 15.5624 30.6147 14.9505 29.9217C14.8605 29.8195 14.7999 29.6534 14.7991 29.516C14.7909 26.372 14.7909 23.228 14.7991 20.084C14.7991 19.9588 14.8662 19.8124 14.9472 19.7126C15.1394 19.4753 15.3472 19.2479 15.5706 19.0384C16.5769 18.0943 17.2714 16.9334 17.8776 15.7145C18.2311 15.0035 18.542 14.2705 18.9003 13.562C19.6219 12.1352 19.7438 10.6217 19.6079 9.06323C19.585 8.79899 19.572 8.5331 19.5728 8.26803C19.5752 7.35257 20.4015 6.76435 21.2573 7.08668C21.5092 7.18158 21.7563 7.32884 21.9616 7.5031C23.0996 8.47174 23.5471 9.72099 23.2755 11.1748C23.0685 12.2817 22.8182 13.3918 22.4558 14.4554C22.0435 15.6637 22.8272 16.6577 24.029 16.6324C26.3148 16.5841 28.6022 16.6185 30.8897 16.6185C31.7266 16.6185 32.3754 17.0774 32.6282 17.8481C32.8752 18.6016 32.6183 19.4107 31.9778 19.8934C31.945 19.9179 31.9099 19.9384 31.8771 19.9629C31.518 20.2378 31.5221 20.6051 31.9017 20.8612C32.3492 21.1631 32.6331 21.5598 32.6985 22.1039C32.7959 22.913 32.3099 23.5969 31.5106 23.772C31.4411 23.7876 31.3707 23.7998 31.302 23.8186C30.8799 23.9348 30.7375 24.357 31.0517 24.6662C32.0285 25.6283 31.4034 27.2253 30.1231 27.3365C29.6797 27.375 29.5373 27.8429 29.8392 28.1865C30.1092 28.4925 30.2974 28.8296 30.3595 29.237C30.5207 30.2915 29.5054 31.0049 28.7192 31C26.7901 30.9894 24.8602 30.9967 22.9303 30.9967Z" fill="#2E2A94"/>
<path d="M7.28125 18.568C9.10972 18.568 10.9055 18.5566 12.7012 18.5737C13.3623 18.5803 13.8106 19.0744 13.8122 19.7518C13.8171 23.1093 13.8171 26.4677 13.8122 29.8252C13.8114 30.4993 13.3402 30.9885 12.6898 30.9918C10.9235 31 9.15799 30.9943 7.39169 30.9934C7.36224 30.9934 7.33279 30.9853 7.28125 30.9779V18.568Z" fill="#2E2A94"/>
</svg>
