<svg width="40" height="40" viewBox="0 0 40 40" fill="none" xmlns="http://www.w3.org/2000/svg">
<circle cx="20" cy="20" r="20" fill="#9DADFE"/>
<path d="M16.3994 9.21716C16.6144 8.84491 17.1512 8.84499 17.3662 9.21716L28.1816 27.9496C28.3964 28.3218 28.128 28.7873 27.6982 28.7875H6.06836C5.63853 28.7875 5.36935 28.3219 5.58398 27.9496L16.3994 9.21716Z" stroke="white"/>
<path d="M22.4141 13.535C22.5425 13.3126 22.8638 13.3126 22.9922 13.535L31.5088 28.287C31.637 28.5093 31.4772 28.7867 31.2207 28.787H14.1865C13.9298 28.787 13.7694 28.5093 13.8975 28.287L22.4141 13.535Z" fill="#9DADFE" stroke="white"/>
<path d="M28.2793 18.6357C28.4929 18.2658 29.0268 18.2658 29.2404 18.6357L34.9094 28.4547C35.123 28.8246 34.856 29.287 34.4289 29.287H23.0908C22.6637 29.287 22.3968 28.8246 22.6103 28.4547L28.2793 18.6357Z" fill="#2E2A94"/>
</svg>
