<svg width="40" height="40" viewBox="0 0 40 40" fill="none" xmlns="http://www.w3.org/2000/svg">
<circle cx="20" cy="20" r="20" fill="#9DADFE"/>
<path d="M10.4758 30V20.228H16.5238V21.74H12.4498V24.302H15.5578V25.814H12.4498V30H10.4758ZM18.0773 30V20.228H20.0513V30H18.0773ZM28.5496 20.2H30.5236V30H28.5496L24.1256 23.224V30H22.1516V20.2H24.1256L28.5496 26.976V20.2Z" fill="#2E2A94"/>
<path d="M13.3885 9.279C13.0145 9.279 12.7102 9.37433 12.4755 9.565C12.2408 9.75567 12.1235 10.0343 12.1235 10.401C12.1235 10.7603 12.2628 11.0353 12.5415 11.226C12.8202 11.4167 13.1575 11.556 13.5535 11.644C13.9495 11.732 14.3455 11.8347 14.7415 11.952C15.1375 12.062 15.4748 12.271 15.7535 12.579C16.0322 12.887 16.1715 13.3233 16.1715 13.888C16.1715 14.4527 15.9332 14.9587 15.4565 15.406C14.9798 15.8533 14.3418 16.077 13.5425 16.077C12.7432 16.077 12.0942 15.89 11.5955 15.516C11.0968 15.142 10.8475 14.625 10.8475 13.965H12.1895C12.2188 14.3023 12.3435 14.57 12.5635 14.768C12.7835 14.966 13.1062 15.065 13.5315 15.065C13.9568 15.065 14.2905 14.955 14.5325 14.735C14.7818 14.515 14.9065 14.2547 14.9065 13.954C14.9065 13.6533 14.8295 13.4187 14.6755 13.25C14.5288 13.0813 14.3345 12.9567 14.0925 12.876C13.8578 12.788 13.5975 12.711 13.3115 12.645C13.0255 12.579 12.7358 12.502 12.4425 12.414C12.1565 12.326 11.8925 12.2123 11.6505 12.073C11.4158 11.9337 11.2215 11.732 11.0675 11.468C10.9208 11.1967 10.8475 10.8667 10.8475 10.478C10.8475 9.81067 11.0858 9.27533 11.5625 8.872C12.0465 8.46133 12.6698 8.256 13.4325 8.256C14.2025 8.256 14.8148 8.432 15.2695 8.784C15.7315 9.136 15.9882 9.64567 16.0395 10.313H14.6535C14.6242 10.0197 14.4995 9.774 14.2795 9.576C14.0595 9.378 13.7625 9.279 13.3885 9.279ZM19.5322 16.088C18.8868 16.088 18.3405 15.868 17.8932 15.428C17.4458 14.988 17.2222 14.438 17.2222 13.778C17.2222 13.1107 17.4348 12.5643 17.8602 12.139C18.2855 11.7063 18.7952 11.49 19.3892 11.49L19.2022 11.402C18.7108 10.7273 18.4652 10.1517 18.4652 9.675C18.4652 9.191 18.6485 8.76933 19.0152 8.41C19.3892 8.04333 19.8915 7.86 20.5222 7.86C21.1528 7.86 21.6552 8.036 22.0292 8.388C22.4032 8.73267 22.5902 9.13967 22.5902 9.609C22.5902 9.82167 22.5572 10.0087 22.4912 10.17H21.2592C21.3178 10.038 21.3472 9.873 21.3472 9.675C21.3472 9.477 21.2702 9.301 21.1162 9.147C20.9622 8.993 20.7642 8.916 20.5222 8.916C20.2875 8.916 20.0932 8.993 19.9392 9.147C19.7925 9.301 19.7192 9.51 19.7192 9.774C19.7192 10.0307 19.8585 10.3387 20.1372 10.698L24.1522 16H22.6562L21.6552 14.647C21.5012 15.065 21.2298 15.4097 20.8412 15.681C20.4525 15.9523 20.0162 16.088 19.5322 16.088ZM18.6852 14.68C18.9198 14.9293 19.2058 15.054 19.5432 15.054C19.8805 15.054 20.1665 14.9293 20.4012 14.68C20.6432 14.4233 20.7642 14.1153 20.7642 13.756C20.7642 13.3967 20.6432 13.0923 20.4012 12.843C20.1665 12.5937 19.8768 12.469 19.5322 12.469C19.1948 12.469 18.9088 12.5937 18.6742 12.843C18.4468 13.0923 18.3332 13.4003 18.3332 13.767C18.3332 14.1263 18.4505 14.4307 18.6852 14.68ZM27.7355 8.355C28.6008 8.355 29.2682 8.57133 29.7375 9.004C30.2068 9.42933 30.4415 9.96467 30.4415 10.61C30.4415 11.248 30.2178 11.7907 29.7705 12.238C29.3305 12.678 28.6522 12.898 27.7355 12.898H26.3495V16H25.0955V8.355H27.7355ZM26.3495 11.919H27.7355C28.2122 11.919 28.5678 11.8053 28.8025 11.578C29.0372 11.3507 29.1545 11.0353 29.1545 10.632C29.1545 10.2213 29.0372 9.90233 28.8025 9.675C28.5678 9.44767 28.2122 9.334 27.7355 9.334H26.3495V11.919Z" fill="#2E2A94"/>
</svg>
