<svg width="40" height="40" viewBox="0 0 40 40" fill="none" xmlns="http://www.w3.org/2000/svg">
<circle cx="20" cy="20" r="20" fill="#9DADFE"/>
<path d="M7.71834 19.766H13.9763V21.488H9.51034V23.812C9.70634 23.5973 9.977 23.42 10.3223 23.28C10.6677 23.1307 11.0877 23.056 11.5823 23.056C12.077 23.056 12.5437 23.1587 12.9823 23.364C13.4303 23.5693 13.771 23.8447 14.0043 24.19C14.471 24.862 14.7043 25.6087 14.7043 26.43C14.7043 27.5127 14.3917 28.3807 13.7663 29.034C13.1503 29.678 12.2917 30 11.1903 30C10.089 30 9.221 29.7433 8.58634 29.23C7.961 28.7073 7.59234 28.026 7.48034 27.186H9.41234C9.49634 27.55 9.68767 27.8393 9.98634 28.054C10.2943 28.2687 10.7003 28.376 11.2043 28.376C11.7177 28.376 12.1143 28.2033 12.3943 27.858C12.6743 27.5127 12.8143 27.0553 12.8143 26.486C12.8143 25.9167 12.6697 25.478 12.3803 25.17C12.1003 24.862 11.7223 24.708 11.2463 24.708C10.3503 24.708 9.79967 25.0673 9.59434 25.786H7.71834V19.766ZM16.1961 24.904C16.1961 21.516 17.4514 19.822 19.9621 19.822C22.4821 19.822 23.7421 21.516 23.7421 24.904C23.7421 28.2827 22.4821 29.972 19.9621 29.972C17.4514 29.972 16.1961 28.2827 16.1961 24.904ZM20.8021 21.824C20.5688 21.7027 20.2934 21.642 19.9761 21.642C19.6588 21.642 19.3834 21.7027 19.1501 21.824C18.9168 21.9453 18.7348 22.0993 18.6041 22.286C18.4828 22.4727 18.3848 22.72 18.3101 23.028C18.2354 23.3267 18.1841 23.616 18.1561 23.896C18.1374 24.176 18.1281 24.5073 18.1281 24.89C18.1281 25.2727 18.1374 25.604 18.1561 25.884C18.1841 26.164 18.2354 26.458 18.3101 26.766C18.3848 27.0647 18.4828 27.312 18.6041 27.508C18.7348 27.6947 18.9168 27.8487 19.1501 27.97C19.3834 28.0913 19.6588 28.152 19.9761 28.152C20.2934 28.152 20.5688 28.0913 20.8021 27.97C21.0354 27.8487 21.2128 27.6947 21.3341 27.508C21.4648 27.312 21.5674 27.0647 21.6421 26.766C21.7168 26.458 21.7634 26.164 21.7821 25.884C21.8101 25.604 21.8241 25.2727 21.8241 24.89C21.8241 24.5073 21.8101 24.176 21.7821 23.896C21.7634 23.616 21.7168 23.3267 21.6421 23.028C21.5674 22.72 21.4648 22.4727 21.3341 22.286C21.2128 22.0993 21.0354 21.9453 20.8021 21.824ZM25.2469 24.904C25.2469 21.516 26.5022 19.822 29.0129 19.822C31.5329 19.822 32.7929 21.516 32.7929 24.904C32.7929 28.2827 31.5329 29.972 29.0129 29.972C26.5022 29.972 25.2469 28.2827 25.2469 24.904ZM29.8529 21.824C29.6195 21.7027 29.3442 21.642 29.0269 21.642C28.7095 21.642 28.4342 21.7027 28.2009 21.824C27.9675 21.9453 27.7855 22.0993 27.6549 22.286C27.5335 22.4727 27.4355 22.72 27.3609 23.028C27.2862 23.3267 27.2349 23.616 27.2069 23.896C27.1882 24.176 27.1789 24.5073 27.1789 24.89C27.1789 25.2727 27.1882 25.604 27.2069 25.884C27.2349 26.164 27.2862 26.458 27.3609 26.766C27.4355 27.0647 27.5335 27.312 27.6549 27.508C27.7855 27.6947 27.9675 27.8487 28.2009 27.97C28.4342 28.0913 28.7095 28.152 29.0269 28.152C29.3442 28.152 29.6195 28.0913 29.8529 27.97C30.0862 27.8487 30.2635 27.6947 30.3849 27.508C30.5155 27.312 30.6182 27.0647 30.6929 26.766C30.7675 26.458 30.8142 26.164 30.8329 25.884C30.8609 25.604 30.8749 25.2727 30.8749 24.89C30.8749 24.5073 30.8609 24.176 30.8329 23.896C30.8142 23.616 30.7675 23.3267 30.6929 23.028C30.6182 22.72 30.5155 22.4727 30.3849 22.286C30.2635 22.0993 30.0862 21.9453 29.8529 21.824Z" fill="#2E2A94"/>
<path d="M13.3885 9.279C13.0145 9.279 12.7102 9.37433 12.4755 9.565C12.2408 9.75567 12.1235 10.0343 12.1235 10.401C12.1235 10.7603 12.2628 11.0353 12.5415 11.226C12.8202 11.4167 13.1575 11.556 13.5535 11.644C13.9495 11.732 14.3455 11.8347 14.7415 11.952C15.1375 12.062 15.4748 12.271 15.7535 12.579C16.0322 12.887 16.1715 13.3233 16.1715 13.888C16.1715 14.4527 15.9332 14.9587 15.4565 15.406C14.9798 15.8533 14.3418 16.077 13.5425 16.077C12.7432 16.077 12.0942 15.89 11.5955 15.516C11.0968 15.142 10.8475 14.625 10.8475 13.965H12.1895C12.2188 14.3023 12.3435 14.57 12.5635 14.768C12.7835 14.966 13.1062 15.065 13.5315 15.065C13.9568 15.065 14.2905 14.955 14.5325 14.735C14.7818 14.515 14.9065 14.2547 14.9065 13.954C14.9065 13.6533 14.8295 13.4187 14.6755 13.25C14.5288 13.0813 14.3345 12.9567 14.0925 12.876C13.8578 12.788 13.5975 12.711 13.3115 12.645C13.0255 12.579 12.7358 12.502 12.4425 12.414C12.1565 12.326 11.8925 12.2123 11.6505 12.073C11.4158 11.9337 11.2215 11.732 11.0675 11.468C10.9208 11.1967 10.8475 10.8667 10.8475 10.478C10.8475 9.81067 11.0858 9.27533 11.5625 8.872C12.0465 8.46133 12.6698 8.256 13.4325 8.256C14.2025 8.256 14.8148 8.432 15.2695 8.784C15.7315 9.136 15.9882 9.64567 16.0395 10.313H14.6535C14.6242 10.0197 14.4995 9.774 14.2795 9.576C14.0595 9.378 13.7625 9.279 13.3885 9.279ZM19.5322 16.088C18.8868 16.088 18.3405 15.868 17.8932 15.428C17.4458 14.988 17.2222 14.438 17.2222 13.778C17.2222 13.1107 17.4348 12.5643 17.8602 12.139C18.2855 11.7063 18.7952 11.49 19.3892 11.49L19.2022 11.402C18.7108 10.7273 18.4652 10.1517 18.4652 9.675C18.4652 9.191 18.6485 8.76933 19.0152 8.41C19.3892 8.04333 19.8915 7.86 20.5222 7.86C21.1528 7.86 21.6552 8.036 22.0292 8.388C22.4032 8.73267 22.5902 9.13967 22.5902 9.609C22.5902 9.82167 22.5572 10.0087 22.4912 10.17H21.2592C21.3178 10.038 21.3472 9.873 21.3472 9.675C21.3472 9.477 21.2702 9.301 21.1162 9.147C20.9622 8.993 20.7642 8.916 20.5222 8.916C20.2875 8.916 20.0932 8.993 19.9392 9.147C19.7925 9.301 19.7192 9.51 19.7192 9.774C19.7192 10.0307 19.8585 10.3387 20.1372 10.698L24.1522 16H22.6562L21.6552 14.647C21.5012 15.065 21.2298 15.4097 20.8412 15.681C20.4525 15.9523 20.0162 16.088 19.5322 16.088ZM18.6852 14.68C18.9198 14.9293 19.2058 15.054 19.5432 15.054C19.8805 15.054 20.1665 14.9293 20.4012 14.68C20.6432 14.4233 20.7642 14.1153 20.7642 13.756C20.7642 13.3967 20.6432 13.0923 20.4012 12.843C20.1665 12.5937 19.8768 12.469 19.5322 12.469C19.1948 12.469 18.9088 12.5937 18.6742 12.843C18.4468 13.0923 18.3332 13.4003 18.3332 13.767C18.3332 14.1263 18.4505 14.4307 18.6852 14.68ZM27.7355 8.355C28.6008 8.355 29.2682 8.57133 29.7375 9.004C30.2068 9.42933 30.4415 9.96467 30.4415 10.61C30.4415 11.248 30.2178 11.7907 29.7705 12.238C29.3305 12.678 28.6522 12.898 27.7355 12.898H26.3495V16H25.0955V8.355H27.7355ZM26.3495 11.919H27.7355C28.2122 11.919 28.5678 11.8053 28.8025 11.578C29.0372 11.3507 29.1545 11.0353 29.1545 10.632C29.1545 10.2213 29.0372 9.90233 28.8025 9.675C28.5678 9.44767 28.2122 9.334 27.7355 9.334H26.3495V11.919Z" fill="#2E2A94"/>
</svg>
