<svg width="40" height="40" viewBox="0 0 40 40" fill="none" xmlns="http://www.w3.org/2000/svg">
<g clip-path="url(#clip0_11529_12643)">
<circle cx="20" cy="20" r="20" fill="#9DADFE"/>
<path fill-rule="evenodd" clip-rule="evenodd" d="M25.8213 8.06837C26.516 8.23369 27.1796 8.50915 27.7877 8.8836L29.0656 8.31611L30.5716 9.82209L30.0042 11.0995C30.3788 11.7078 30.6542 12.3716 30.8196 13.0665L32.1232 13.5682V15.6981L30.8193 16.2C30.654 16.8948 30.3785 17.5583 30.004 18.1665L30.5715 19.4443L29.0655 20.9503L27.7881 20.383C27.1799 20.7576 26.5161 21.033 25.8212 21.1983L25.3193 22.502H23.1895L22.6876 21.1981C21.9928 21.0328 21.3293 20.7573 20.7212 20.3829L19.4433 20.9503L17.9373 19.4443L18.5047 18.1669C18.1301 17.5587 17.8547 16.8948 17.6893 16.2L16.3856 15.6982V13.5683L17.6895 13.0665C17.8548 12.3717 18.1302 11.708 18.5047 11.0999L17.9373 9.82215L19.4433 8.31611L20.7212 8.8836C21.3293 8.50915 21.9929 8.23369 22.6876 8.06837L23.1896 6.7644H25.3194L25.8213 8.06837ZM10.518 21.7357L12.4284 29.1185C12.5208 29.4755 12.3043 29.8431 11.9473 29.9355L10.5261 30.3033C10.1691 30.3956 9.80148 30.1791 9.70911 29.8222L7.79866 22.4394C7.70629 22.0825 7.9228 21.7148 8.27975 21.6224L9.70097 21.2547C10.058 21.1623 10.4256 21.3788 10.518 21.7357ZM9.42857 22.4738C9.17837 22.4444 8.9518 22.6235 8.92243 22.8737C8.89312 23.1239 9.07217 23.3506 9.32236 23.3799C9.57256 23.4092 9.79918 23.2301 9.8285 22.9799C9.85781 22.7296 9.67876 22.5031 9.42857 22.4738ZM13.7763 27.2236L19.1336 30.3166C19.7991 30.7009 20.5112 30.7969 21.2498 30.5765L30.5486 27.8003C31.0038 27.6645 31.2263 27.0195 31.0949 26.5849C30.8015 25.6146 29.161 25.9374 28.4784 26.1231L23.3936 27.5063C22.2243 27.8243 21.4884 27.4971 20.5253 27.0635C20.5101 27.0567 20.4956 27.0491 20.4817 27.0408C19.553 26.5743 18.6831 26.0111 17.7845 25.4923C17.5759 25.3724 17.504 25.1061 17.6238 24.8976C17.7437 24.689 18.01 24.6171 18.2185 24.7369C18.5511 24.9288 18.8299 25.096 19.1048 25.2608C19.696 25.6152 20.269 25.9587 20.8691 26.2604C21.3273 26.4458 21.7574 26.4045 22.0208 25.9483C22.0243 25.9422 22.028 25.9362 22.0317 25.9304C22.2512 25.5252 22.0802 25.0435 21.7142 24.7911C20.4545 24.194 19.2953 23.3861 18.3839 22.7508C18.0557 22.522 17.7589 22.3152 17.54 22.1732C16.7808 21.6806 15.8916 21.8353 15.0694 22.0568L11.7371 22.954L12.8668 27.3199C13.1318 27.249 13.5363 27.0702 13.7763 27.2236ZM24.2544 10.5667C22.0085 10.5667 20.1879 12.3873 20.1879 14.6332C20.1879 16.879 22.0085 18.6997 24.2544 18.6997C26.5003 18.6997 28.3209 16.879 28.3209 14.6332C28.3209 12.3873 26.5003 10.5667 24.2544 10.5667Z" fill="#2E2A94"/>
</g>
<defs>
<clipPath id="clip0_11529_12643">
<rect width="40" height="40" fill="white"/>
</clipPath>
</defs>
</svg>
